%TF.GenerationSoftware,KiCad,Pcbnew,(5.1.6)-1*%
%TF.CreationDate,2020-09-22T17:38:13-04:00*%
%TF.ProjectId,wireless_charger,77697265-6c65-4737-935f-636861726765,rev?*%
%TF.SameCoordinates,Original*%
%TF.FileFunction,Paste,Top*%
%TF.FilePolarity,Positive*%
%FSLAX46Y46*%
G04 Gerber Fmt 4.6, Leading zero omitted, Abs format (unit mm)*
G04 Created by KiCad (PCBNEW (5.1.6)-1) date 2020-09-22 17:38:13*
%MOMM*%
%LPD*%
G01*
G04 APERTURE LIST*
%ADD10C,0.010000*%
%ADD11R,1.060000X0.650000*%
%ADD12R,0.800000X0.900000*%
%ADD13R,0.900000X1.200000*%
%ADD14R,2.375000X1.700000*%
%ADD15R,0.420000X0.700000*%
%ADD16R,0.420000X0.540000*%
%ADD17R,0.810000X0.220000*%
%ADD18R,0.220000X0.810000*%
%ADD19R,1.200000X0.900000*%
%ADD20R,0.900000X0.800000*%
%ADD21R,0.300000X0.350000*%
%ADD22R,0.235000X0.870000*%
%ADD23R,0.800000X0.600000*%
%ADD24R,1.220000X0.650000*%
G04 APERTURE END LIST*
D10*
%TO.C,Q4*%
G36*
X131450000Y-87200000D02*
G01*
X131450000Y-86100000D01*
X133250000Y-86100000D01*
X133250000Y-87200000D01*
X131450000Y-87200000D01*
G37*
X131450000Y-87200000D02*
X131450000Y-86100000D01*
X133250000Y-86100000D01*
X133250000Y-87200000D01*
X131450000Y-87200000D01*
%TO.C,Q3*%
G36*
X147500000Y-87200000D02*
G01*
X147500000Y-86100000D01*
X149300000Y-86100000D01*
X149300000Y-87200000D01*
X147500000Y-87200000D01*
G37*
X147500000Y-87200000D02*
X147500000Y-86100000D01*
X149300000Y-86100000D01*
X149300000Y-87200000D01*
X147500000Y-87200000D01*
%TO.C,Q2*%
G36*
X142350000Y-87000000D02*
G01*
X142350000Y-88100000D01*
X140550000Y-88100000D01*
X140550000Y-87000000D01*
X142350000Y-87000000D01*
G37*
X142350000Y-87000000D02*
X142350000Y-88100000D01*
X140550000Y-88100000D01*
X140550000Y-87000000D01*
X142350000Y-87000000D01*
%TO.C,Q1*%
G36*
X126300000Y-86950000D02*
G01*
X126300000Y-88050000D01*
X124500000Y-88050000D01*
X124500000Y-86950000D01*
X126300000Y-86950000D01*
G37*
X126300000Y-86950000D02*
X126300000Y-88050000D01*
X124500000Y-88050000D01*
X124500000Y-86950000D01*
X126300000Y-86950000D01*
%TO.C,U1*%
G36*
X134490000Y-99360000D02*
G01*
X134490000Y-98040000D01*
X135810000Y-98040000D01*
X135810000Y-99360000D01*
X134490000Y-99360000D01*
G37*
X134490000Y-99360000D02*
X134490000Y-98040000D01*
X135810000Y-98040000D01*
X135810000Y-99360000D01*
X134490000Y-99360000D01*
G36*
X134490000Y-97260000D02*
G01*
X134490000Y-95940000D01*
X135810000Y-95940000D01*
X135810000Y-97260000D01*
X134490000Y-97260000D01*
G37*
X134490000Y-97260000D02*
X134490000Y-95940000D01*
X135810000Y-95940000D01*
X135810000Y-97260000D01*
X134490000Y-97260000D01*
G36*
X136590000Y-99360000D02*
G01*
X136590000Y-98040000D01*
X137910000Y-98040000D01*
X137910000Y-99360000D01*
X136590000Y-99360000D01*
G37*
X136590000Y-99360000D02*
X136590000Y-98040000D01*
X137910000Y-98040000D01*
X137910000Y-99360000D01*
X136590000Y-99360000D01*
G36*
X136590000Y-97260000D02*
G01*
X136590000Y-95940000D01*
X137910000Y-95940000D01*
X137910000Y-97260000D01*
X136590000Y-97260000D01*
G37*
X136590000Y-97260000D02*
X136590000Y-95940000D01*
X137910000Y-95940000D01*
X137910000Y-97260000D01*
X136590000Y-97260000D01*
%TD*%
%TO.C,TH1*%
G36*
G01*
X149262500Y-77956250D02*
X149262500Y-77043750D01*
G75*
G02*
X149506250Y-76800000I243750J0D01*
G01*
X149993750Y-76800000D01*
G75*
G02*
X150237500Y-77043750I0J-243750D01*
G01*
X150237500Y-77956250D01*
G75*
G02*
X149993750Y-78200000I-243750J0D01*
G01*
X149506250Y-78200000D01*
G75*
G02*
X149262500Y-77956250I0J243750D01*
G01*
G37*
G36*
G01*
X147387500Y-77956250D02*
X147387500Y-77043750D01*
G75*
G02*
X147631250Y-76800000I243750J0D01*
G01*
X148118750Y-76800000D01*
G75*
G02*
X148362500Y-77043750I0J-243750D01*
G01*
X148362500Y-77956250D01*
G75*
G02*
X148118750Y-78200000I-243750J0D01*
G01*
X147631250Y-78200000D01*
G75*
G02*
X147387500Y-77956250I0J243750D01*
G01*
G37*
%TD*%
D11*
%TO.C,U3*%
X115200000Y-65100000D03*
X115200000Y-67000000D03*
X113000000Y-67000000D03*
X113000000Y-66050000D03*
X113000000Y-65100000D03*
%TD*%
%TO.C,R9*%
G36*
G01*
X117372500Y-66310000D02*
X117027500Y-66310000D01*
G75*
G02*
X116880000Y-66162500I0J147500D01*
G01*
X116880000Y-65867500D01*
G75*
G02*
X117027500Y-65720000I147500J0D01*
G01*
X117372500Y-65720000D01*
G75*
G02*
X117520000Y-65867500I0J-147500D01*
G01*
X117520000Y-66162500D01*
G75*
G02*
X117372500Y-66310000I-147500J0D01*
G01*
G37*
G36*
G01*
X117372500Y-67280000D02*
X117027500Y-67280000D01*
G75*
G02*
X116880000Y-67132500I0J147500D01*
G01*
X116880000Y-66837500D01*
G75*
G02*
X117027500Y-66690000I147500J0D01*
G01*
X117372500Y-66690000D01*
G75*
G02*
X117520000Y-66837500I0J-147500D01*
G01*
X117520000Y-67132500D01*
G75*
G02*
X117372500Y-67280000I-147500J0D01*
G01*
G37*
%TD*%
D12*
%TO.C,Q9*%
X118200000Y-62000000D03*
X119150000Y-64000000D03*
X117250000Y-64000000D03*
%TD*%
D13*
%TO.C,D3*%
X117700000Y-56250000D03*
X121000000Y-56250000D03*
%TD*%
%TO.C,R5*%
G36*
G01*
X111280000Y-86027500D02*
X111280000Y-86372500D01*
G75*
G02*
X111132500Y-86520000I-147500J0D01*
G01*
X110837500Y-86520000D01*
G75*
G02*
X110690000Y-86372500I0J147500D01*
G01*
X110690000Y-86027500D01*
G75*
G02*
X110837500Y-85880000I147500J0D01*
G01*
X111132500Y-85880000D01*
G75*
G02*
X111280000Y-86027500I0J-147500D01*
G01*
G37*
G36*
G01*
X110310000Y-86027500D02*
X110310000Y-86372500D01*
G75*
G02*
X110162500Y-86520000I-147500J0D01*
G01*
X109867500Y-86520000D01*
G75*
G02*
X109720000Y-86372500I0J147500D01*
G01*
X109720000Y-86027500D01*
G75*
G02*
X109867500Y-85880000I147500J0D01*
G01*
X110162500Y-85880000D01*
G75*
G02*
X110310000Y-86027500I0J-147500D01*
G01*
G37*
%TD*%
%TO.C,R2*%
G36*
G01*
X110310000Y-87027500D02*
X110310000Y-87372500D01*
G75*
G02*
X110162500Y-87520000I-147500J0D01*
G01*
X109867500Y-87520000D01*
G75*
G02*
X109720000Y-87372500I0J147500D01*
G01*
X109720000Y-87027500D01*
G75*
G02*
X109867500Y-86880000I147500J0D01*
G01*
X110162500Y-86880000D01*
G75*
G02*
X110310000Y-87027500I0J-147500D01*
G01*
G37*
G36*
G01*
X111280000Y-87027500D02*
X111280000Y-87372500D01*
G75*
G02*
X111132500Y-87520000I-147500J0D01*
G01*
X110837500Y-87520000D01*
G75*
G02*
X110690000Y-87372500I0J147500D01*
G01*
X110690000Y-87027500D01*
G75*
G02*
X110837500Y-86880000I147500J0D01*
G01*
X111132500Y-86880000D01*
G75*
G02*
X111280000Y-87027500I0J-147500D01*
G01*
G37*
%TD*%
D14*
%TO.C,Q4*%
X132350000Y-86650000D03*
D15*
X133325000Y-88600000D03*
X132675000Y-88600000D03*
X132025000Y-88600000D03*
X131375000Y-88600000D03*
D16*
X131375000Y-85520000D03*
X132025000Y-85520000D03*
X132675000Y-85520000D03*
X133325000Y-85520000D03*
%TD*%
D14*
%TO.C,Q3*%
X148400000Y-86650000D03*
D15*
X149375000Y-88600000D03*
X148725000Y-88600000D03*
X148075000Y-88600000D03*
X147425000Y-88600000D03*
D16*
X147425000Y-85520000D03*
X148075000Y-85520000D03*
X148725000Y-85520000D03*
X149375000Y-85520000D03*
%TD*%
D14*
%TO.C,Q2*%
X141450000Y-87550000D03*
D15*
X140475000Y-85600000D03*
X141125000Y-85600000D03*
X141775000Y-85600000D03*
X142425000Y-85600000D03*
D16*
X142425000Y-88680000D03*
X141775000Y-88680000D03*
X141125000Y-88680000D03*
X140475000Y-88680000D03*
%TD*%
D14*
%TO.C,Q1*%
X125400000Y-87500000D03*
D15*
X124425000Y-85550000D03*
X125075000Y-85550000D03*
X125725000Y-85550000D03*
X126375000Y-85550000D03*
D16*
X126375000Y-88630000D03*
X125725000Y-88630000D03*
X125075000Y-88630000D03*
X124425000Y-88630000D03*
%TD*%
%TO.C,C34*%
G36*
G01*
X136422500Y-92725000D02*
X136077500Y-92725000D01*
G75*
G02*
X135930000Y-92577500I0J147500D01*
G01*
X135930000Y-92282500D01*
G75*
G02*
X136077500Y-92135000I147500J0D01*
G01*
X136422500Y-92135000D01*
G75*
G02*
X136570000Y-92282500I0J-147500D01*
G01*
X136570000Y-92577500D01*
G75*
G02*
X136422500Y-92725000I-147500J0D01*
G01*
G37*
G36*
G01*
X136422500Y-93695000D02*
X136077500Y-93695000D01*
G75*
G02*
X135930000Y-93547500I0J147500D01*
G01*
X135930000Y-93252500D01*
G75*
G02*
X136077500Y-93105000I147500J0D01*
G01*
X136422500Y-93105000D01*
G75*
G02*
X136570000Y-93252500I0J-147500D01*
G01*
X136570000Y-93547500D01*
G75*
G02*
X136422500Y-93695000I-147500J0D01*
G01*
G37*
%TD*%
%TO.C,C6*%
G36*
G01*
X141522500Y-102110000D02*
X141177500Y-102110000D01*
G75*
G02*
X141030000Y-101962500I0J147500D01*
G01*
X141030000Y-101667500D01*
G75*
G02*
X141177500Y-101520000I147500J0D01*
G01*
X141522500Y-101520000D01*
G75*
G02*
X141670000Y-101667500I0J-147500D01*
G01*
X141670000Y-101962500D01*
G75*
G02*
X141522500Y-102110000I-147500J0D01*
G01*
G37*
G36*
G01*
X141522500Y-103080000D02*
X141177500Y-103080000D01*
G75*
G02*
X141030000Y-102932500I0J147500D01*
G01*
X141030000Y-102637500D01*
G75*
G02*
X141177500Y-102490000I147500J0D01*
G01*
X141522500Y-102490000D01*
G75*
G02*
X141670000Y-102637500I0J-147500D01*
G01*
X141670000Y-102932500D01*
G75*
G02*
X141522500Y-103080000I-147500J0D01*
G01*
G37*
%TD*%
%TO.C,C7*%
G36*
G01*
X128122500Y-102880000D02*
X127777500Y-102880000D01*
G75*
G02*
X127630000Y-102732500I0J147500D01*
G01*
X127630000Y-102437500D01*
G75*
G02*
X127777500Y-102290000I147500J0D01*
G01*
X128122500Y-102290000D01*
G75*
G02*
X128270000Y-102437500I0J-147500D01*
G01*
X128270000Y-102732500D01*
G75*
G02*
X128122500Y-102880000I-147500J0D01*
G01*
G37*
G36*
G01*
X128122500Y-101910000D02*
X127777500Y-101910000D01*
G75*
G02*
X127630000Y-101762500I0J147500D01*
G01*
X127630000Y-101467500D01*
G75*
G02*
X127777500Y-101320000I147500J0D01*
G01*
X128122500Y-101320000D01*
G75*
G02*
X128270000Y-101467500I0J-147500D01*
G01*
X128270000Y-101762500D01*
G75*
G02*
X128122500Y-101910000I-147500J0D01*
G01*
G37*
%TD*%
D17*
%TO.C,U1*%
X139150000Y-99850000D03*
X139150000Y-99450000D03*
X139150000Y-99050000D03*
X139150000Y-98650000D03*
X139150000Y-98250000D03*
X139150000Y-97850000D03*
X139150000Y-97450000D03*
X139150000Y-97050000D03*
X139150000Y-96650000D03*
X139150000Y-96250000D03*
X139150000Y-95850000D03*
X139150000Y-95450000D03*
X133250000Y-95450000D03*
X133250000Y-95850000D03*
X133250000Y-96250000D03*
X133250000Y-96650000D03*
X133250000Y-97050000D03*
X133250000Y-97450000D03*
X133250000Y-97850000D03*
X133250000Y-98250000D03*
X133250000Y-98650000D03*
X133250000Y-99050000D03*
X133250000Y-99450000D03*
X133250000Y-99850000D03*
D18*
X134000000Y-100600000D03*
X134400000Y-100600000D03*
X134800000Y-100600000D03*
X135200000Y-100600000D03*
X135600000Y-100600000D03*
X136000000Y-100600000D03*
X136400000Y-100600000D03*
X136800000Y-100600000D03*
X137200000Y-100600000D03*
X137600000Y-100600000D03*
X138000000Y-100600000D03*
X138400000Y-100600000D03*
X138400000Y-94700000D03*
X138000000Y-94700000D03*
X137600000Y-94700000D03*
X137200000Y-94700000D03*
X136800000Y-94700000D03*
X136400000Y-94700000D03*
X136000000Y-94700000D03*
X135600000Y-94700000D03*
X135200000Y-94700000D03*
X134800000Y-94700000D03*
X134400000Y-94700000D03*
X134000000Y-94700000D03*
%TD*%
%TO.C,C29*%
G36*
G01*
X127355000Y-95972500D02*
X127355000Y-95627500D01*
G75*
G02*
X127502500Y-95480000I147500J0D01*
G01*
X127797500Y-95480000D01*
G75*
G02*
X127945000Y-95627500I0J-147500D01*
G01*
X127945000Y-95972500D01*
G75*
G02*
X127797500Y-96120000I-147500J0D01*
G01*
X127502500Y-96120000D01*
G75*
G02*
X127355000Y-95972500I0J147500D01*
G01*
G37*
G36*
G01*
X126385000Y-95972500D02*
X126385000Y-95627500D01*
G75*
G02*
X126532500Y-95480000I147500J0D01*
G01*
X126827500Y-95480000D01*
G75*
G02*
X126975000Y-95627500I0J-147500D01*
G01*
X126975000Y-95972500D01*
G75*
G02*
X126827500Y-96120000I-147500J0D01*
G01*
X126532500Y-96120000D01*
G75*
G02*
X126385000Y-95972500I0J147500D01*
G01*
G37*
%TD*%
%TO.C,R33*%
G36*
G01*
X144462500Y-83093750D02*
X144462500Y-84006250D01*
G75*
G02*
X144218750Y-84250000I-243750J0D01*
G01*
X143731250Y-84250000D01*
G75*
G02*
X143487500Y-84006250I0J243750D01*
G01*
X143487500Y-83093750D01*
G75*
G02*
X143731250Y-82850000I243750J0D01*
G01*
X144218750Y-82850000D01*
G75*
G02*
X144462500Y-83093750I0J-243750D01*
G01*
G37*
G36*
G01*
X146337500Y-83093750D02*
X146337500Y-84006250D01*
G75*
G02*
X146093750Y-84250000I-243750J0D01*
G01*
X145606250Y-84250000D01*
G75*
G02*
X145362500Y-84006250I0J243750D01*
G01*
X145362500Y-83093750D01*
G75*
G02*
X145606250Y-82850000I243750J0D01*
G01*
X146093750Y-82850000D01*
G75*
G02*
X146337500Y-83093750I0J-243750D01*
G01*
G37*
%TD*%
%TO.C,C1*%
G36*
G01*
X145680000Y-85127500D02*
X145680000Y-85472500D01*
G75*
G02*
X145532500Y-85620000I-147500J0D01*
G01*
X145237500Y-85620000D01*
G75*
G02*
X145090000Y-85472500I0J147500D01*
G01*
X145090000Y-85127500D01*
G75*
G02*
X145237500Y-84980000I147500J0D01*
G01*
X145532500Y-84980000D01*
G75*
G02*
X145680000Y-85127500I0J-147500D01*
G01*
G37*
G36*
G01*
X144710000Y-85127500D02*
X144710000Y-85472500D01*
G75*
G02*
X144562500Y-85620000I-147500J0D01*
G01*
X144267500Y-85620000D01*
G75*
G02*
X144120000Y-85472500I0J147500D01*
G01*
X144120000Y-85127500D01*
G75*
G02*
X144267500Y-84980000I147500J0D01*
G01*
X144562500Y-84980000D01*
G75*
G02*
X144710000Y-85127500I0J-147500D01*
G01*
G37*
%TD*%
%TO.C,C2*%
G36*
G01*
X120065385Y-102125443D02*
X120309336Y-102369395D01*
G75*
G02*
X120309336Y-102577991I-104298J-104298D01*
G01*
X120100740Y-102786587D01*
G75*
G02*
X119892144Y-102786587I-104298J104298D01*
G01*
X119648192Y-102542635D01*
G75*
G02*
X119648192Y-102334039I104298J104298D01*
G01*
X119856788Y-102125443D01*
G75*
G02*
X120065384Y-102125443I104298J-104298D01*
G01*
G37*
G36*
G01*
X119379491Y-102811337D02*
X119623442Y-103055289D01*
G75*
G02*
X119623442Y-103263885I-104298J-104298D01*
G01*
X119414846Y-103472481D01*
G75*
G02*
X119206250Y-103472481I-104298J104298D01*
G01*
X118962298Y-103228529D01*
G75*
G02*
X118962298Y-103019933I104298J104298D01*
G01*
X119170894Y-102811337D01*
G75*
G02*
X119379490Y-102811337I104298J-104298D01*
G01*
G37*
%TD*%
%TO.C,C3*%
G36*
G01*
X128695000Y-85127500D02*
X128695000Y-85472500D01*
G75*
G02*
X128547500Y-85620000I-147500J0D01*
G01*
X128252500Y-85620000D01*
G75*
G02*
X128105000Y-85472500I0J147500D01*
G01*
X128105000Y-85127500D01*
G75*
G02*
X128252500Y-84980000I147500J0D01*
G01*
X128547500Y-84980000D01*
G75*
G02*
X128695000Y-85127500I0J-147500D01*
G01*
G37*
G36*
G01*
X129665000Y-85127500D02*
X129665000Y-85472500D01*
G75*
G02*
X129517500Y-85620000I-147500J0D01*
G01*
X129222500Y-85620000D01*
G75*
G02*
X129075000Y-85472500I0J147500D01*
G01*
X129075000Y-85127500D01*
G75*
G02*
X129222500Y-84980000I147500J0D01*
G01*
X129517500Y-84980000D01*
G75*
G02*
X129665000Y-85127500I0J-147500D01*
G01*
G37*
%TD*%
%TO.C,C4*%
G36*
G01*
X139377500Y-105290000D02*
X139722500Y-105290000D01*
G75*
G02*
X139870000Y-105437500I0J-147500D01*
G01*
X139870000Y-105732500D01*
G75*
G02*
X139722500Y-105880000I-147500J0D01*
G01*
X139377500Y-105880000D01*
G75*
G02*
X139230000Y-105732500I0J147500D01*
G01*
X139230000Y-105437500D01*
G75*
G02*
X139377500Y-105290000I147500J0D01*
G01*
G37*
G36*
G01*
X139377500Y-104320000D02*
X139722500Y-104320000D01*
G75*
G02*
X139870000Y-104467500I0J-147500D01*
G01*
X139870000Y-104762500D01*
G75*
G02*
X139722500Y-104910000I-147500J0D01*
G01*
X139377500Y-104910000D01*
G75*
G02*
X139230000Y-104762500I0J147500D01*
G01*
X139230000Y-104467500D01*
G75*
G02*
X139377500Y-104320000I147500J0D01*
G01*
G37*
%TD*%
%TO.C,C5*%
G36*
G01*
X140493750Y-103787500D02*
X141006250Y-103787500D01*
G75*
G02*
X141225000Y-104006250I0J-218750D01*
G01*
X141225000Y-104443750D01*
G75*
G02*
X141006250Y-104662500I-218750J0D01*
G01*
X140493750Y-104662500D01*
G75*
G02*
X140275000Y-104443750I0J218750D01*
G01*
X140275000Y-104006250D01*
G75*
G02*
X140493750Y-103787500I218750J0D01*
G01*
G37*
G36*
G01*
X140493750Y-105362500D02*
X141006250Y-105362500D01*
G75*
G02*
X141225000Y-105581250I0J-218750D01*
G01*
X141225000Y-106018750D01*
G75*
G02*
X141006250Y-106237500I-218750J0D01*
G01*
X140493750Y-106237500D01*
G75*
G02*
X140275000Y-106018750I0J218750D01*
G01*
X140275000Y-105581250D01*
G75*
G02*
X140493750Y-105362500I218750J0D01*
G01*
G37*
%TD*%
%TO.C,C8*%
G36*
G01*
X128730000Y-103427500D02*
X128730000Y-103772500D01*
G75*
G02*
X128582500Y-103920000I-147500J0D01*
G01*
X128287500Y-103920000D01*
G75*
G02*
X128140000Y-103772500I0J147500D01*
G01*
X128140000Y-103427500D01*
G75*
G02*
X128287500Y-103280000I147500J0D01*
G01*
X128582500Y-103280000D01*
G75*
G02*
X128730000Y-103427500I0J-147500D01*
G01*
G37*
G36*
G01*
X127760000Y-103427500D02*
X127760000Y-103772500D01*
G75*
G02*
X127612500Y-103920000I-147500J0D01*
G01*
X127317500Y-103920000D01*
G75*
G02*
X127170000Y-103772500I0J147500D01*
G01*
X127170000Y-103427500D01*
G75*
G02*
X127317500Y-103280000I147500J0D01*
G01*
X127612500Y-103280000D01*
G75*
G02*
X127760000Y-103427500I0J-147500D01*
G01*
G37*
%TD*%
%TO.C,C9*%
G36*
G01*
X130022500Y-102880000D02*
X129677500Y-102880000D01*
G75*
G02*
X129530000Y-102732500I0J147500D01*
G01*
X129530000Y-102437500D01*
G75*
G02*
X129677500Y-102290000I147500J0D01*
G01*
X130022500Y-102290000D01*
G75*
G02*
X130170000Y-102437500I0J-147500D01*
G01*
X130170000Y-102732500D01*
G75*
G02*
X130022500Y-102880000I-147500J0D01*
G01*
G37*
G36*
G01*
X130022500Y-101910000D02*
X129677500Y-101910000D01*
G75*
G02*
X129530000Y-101762500I0J147500D01*
G01*
X129530000Y-101467500D01*
G75*
G02*
X129677500Y-101320000I147500J0D01*
G01*
X130022500Y-101320000D01*
G75*
G02*
X130170000Y-101467500I0J-147500D01*
G01*
X130170000Y-101762500D01*
G75*
G02*
X130022500Y-101910000I-147500J0D01*
G01*
G37*
%TD*%
%TO.C,C10*%
G36*
G01*
X136143750Y-84350000D02*
X136656250Y-84350000D01*
G75*
G02*
X136875000Y-84568750I0J-218750D01*
G01*
X136875000Y-85006250D01*
G75*
G02*
X136656250Y-85225000I-218750J0D01*
G01*
X136143750Y-85225000D01*
G75*
G02*
X135925000Y-85006250I0J218750D01*
G01*
X135925000Y-84568750D01*
G75*
G02*
X136143750Y-84350000I218750J0D01*
G01*
G37*
G36*
G01*
X136143750Y-82775000D02*
X136656250Y-82775000D01*
G75*
G02*
X136875000Y-82993750I0J-218750D01*
G01*
X136875000Y-83431250D01*
G75*
G02*
X136656250Y-83650000I-218750J0D01*
G01*
X136143750Y-83650000D01*
G75*
G02*
X135925000Y-83431250I0J218750D01*
G01*
X135925000Y-82993750D01*
G75*
G02*
X136143750Y-82775000I218750J0D01*
G01*
G37*
%TD*%
%TO.C,C11*%
G36*
G01*
X149143750Y-83400000D02*
X149656250Y-83400000D01*
G75*
G02*
X149875000Y-83618750I0J-218750D01*
G01*
X149875000Y-84056250D01*
G75*
G02*
X149656250Y-84275000I-218750J0D01*
G01*
X149143750Y-84275000D01*
G75*
G02*
X148925000Y-84056250I0J218750D01*
G01*
X148925000Y-83618750D01*
G75*
G02*
X149143750Y-83400000I218750J0D01*
G01*
G37*
G36*
G01*
X149143750Y-81825000D02*
X149656250Y-81825000D01*
G75*
G02*
X149875000Y-82043750I0J-218750D01*
G01*
X149875000Y-82481250D01*
G75*
G02*
X149656250Y-82700000I-218750J0D01*
G01*
X149143750Y-82700000D01*
G75*
G02*
X148925000Y-82481250I0J218750D01*
G01*
X148925000Y-82043750D01*
G75*
G02*
X149143750Y-81825000I218750J0D01*
G01*
G37*
%TD*%
%TO.C,C12*%
G36*
G01*
X132595000Y-101677500D02*
X132595000Y-102022500D01*
G75*
G02*
X132447500Y-102170000I-147500J0D01*
G01*
X132152500Y-102170000D01*
G75*
G02*
X132005000Y-102022500I0J147500D01*
G01*
X132005000Y-101677500D01*
G75*
G02*
X132152500Y-101530000I147500J0D01*
G01*
X132447500Y-101530000D01*
G75*
G02*
X132595000Y-101677500I0J-147500D01*
G01*
G37*
G36*
G01*
X133565000Y-101677500D02*
X133565000Y-102022500D01*
G75*
G02*
X133417500Y-102170000I-147500J0D01*
G01*
X133122500Y-102170000D01*
G75*
G02*
X132975000Y-102022500I0J147500D01*
G01*
X132975000Y-101677500D01*
G75*
G02*
X133122500Y-101530000I147500J0D01*
G01*
X133417500Y-101530000D01*
G75*
G02*
X133565000Y-101677500I0J-147500D01*
G01*
G37*
%TD*%
%TO.C,C13*%
G36*
G01*
X142522500Y-103080000D02*
X142177500Y-103080000D01*
G75*
G02*
X142030000Y-102932500I0J147500D01*
G01*
X142030000Y-102637500D01*
G75*
G02*
X142177500Y-102490000I147500J0D01*
G01*
X142522500Y-102490000D01*
G75*
G02*
X142670000Y-102637500I0J-147500D01*
G01*
X142670000Y-102932500D01*
G75*
G02*
X142522500Y-103080000I-147500J0D01*
G01*
G37*
G36*
G01*
X142522500Y-102110000D02*
X142177500Y-102110000D01*
G75*
G02*
X142030000Y-101962500I0J147500D01*
G01*
X142030000Y-101667500D01*
G75*
G02*
X142177500Y-101520000I147500J0D01*
G01*
X142522500Y-101520000D01*
G75*
G02*
X142670000Y-101667500I0J-147500D01*
G01*
X142670000Y-101962500D01*
G75*
G02*
X142522500Y-102110000I-147500J0D01*
G01*
G37*
%TD*%
%TO.C,C14*%
G36*
G01*
X134062500Y-105443750D02*
X134062500Y-105956250D01*
G75*
G02*
X133843750Y-106175000I-218750J0D01*
G01*
X133406250Y-106175000D01*
G75*
G02*
X133187500Y-105956250I0J218750D01*
G01*
X133187500Y-105443750D01*
G75*
G02*
X133406250Y-105225000I218750J0D01*
G01*
X133843750Y-105225000D01*
G75*
G02*
X134062500Y-105443750I0J-218750D01*
G01*
G37*
G36*
G01*
X135637500Y-105443750D02*
X135637500Y-105956250D01*
G75*
G02*
X135418750Y-106175000I-218750J0D01*
G01*
X134981250Y-106175000D01*
G75*
G02*
X134762500Y-105956250I0J218750D01*
G01*
X134762500Y-105443750D01*
G75*
G02*
X134981250Y-105225000I218750J0D01*
G01*
X135418750Y-105225000D01*
G75*
G02*
X135637500Y-105443750I0J-218750D01*
G01*
G37*
%TD*%
%TO.C,C15*%
G36*
G01*
X135245000Y-104327500D02*
X135245000Y-104672500D01*
G75*
G02*
X135097500Y-104820000I-147500J0D01*
G01*
X134802500Y-104820000D01*
G75*
G02*
X134655000Y-104672500I0J147500D01*
G01*
X134655000Y-104327500D01*
G75*
G02*
X134802500Y-104180000I147500J0D01*
G01*
X135097500Y-104180000D01*
G75*
G02*
X135245000Y-104327500I0J-147500D01*
G01*
G37*
G36*
G01*
X134275000Y-104327500D02*
X134275000Y-104672500D01*
G75*
G02*
X134127500Y-104820000I-147500J0D01*
G01*
X133832500Y-104820000D01*
G75*
G02*
X133685000Y-104672500I0J147500D01*
G01*
X133685000Y-104327500D01*
G75*
G02*
X133832500Y-104180000I147500J0D01*
G01*
X134127500Y-104180000D01*
G75*
G02*
X134275000Y-104327500I0J-147500D01*
G01*
G37*
%TD*%
%TO.C,C16*%
G36*
G01*
X136605000Y-104672500D02*
X136605000Y-104327500D01*
G75*
G02*
X136752500Y-104180000I147500J0D01*
G01*
X137047500Y-104180000D01*
G75*
G02*
X137195000Y-104327500I0J-147500D01*
G01*
X137195000Y-104672500D01*
G75*
G02*
X137047500Y-104820000I-147500J0D01*
G01*
X136752500Y-104820000D01*
G75*
G02*
X136605000Y-104672500I0J147500D01*
G01*
G37*
G36*
G01*
X135635000Y-104672500D02*
X135635000Y-104327500D01*
G75*
G02*
X135782500Y-104180000I147500J0D01*
G01*
X136077500Y-104180000D01*
G75*
G02*
X136225000Y-104327500I0J-147500D01*
G01*
X136225000Y-104672500D01*
G75*
G02*
X136077500Y-104820000I-147500J0D01*
G01*
X135782500Y-104820000D01*
G75*
G02*
X135635000Y-104672500I0J147500D01*
G01*
G37*
%TD*%
%TO.C,C17*%
G36*
G01*
X125952500Y-97665000D02*
X126297500Y-97665000D01*
G75*
G02*
X126445000Y-97812500I0J-147500D01*
G01*
X126445000Y-98107500D01*
G75*
G02*
X126297500Y-98255000I-147500J0D01*
G01*
X125952500Y-98255000D01*
G75*
G02*
X125805000Y-98107500I0J147500D01*
G01*
X125805000Y-97812500D01*
G75*
G02*
X125952500Y-97665000I147500J0D01*
G01*
G37*
G36*
G01*
X125952500Y-96695000D02*
X126297500Y-96695000D01*
G75*
G02*
X126445000Y-96842500I0J-147500D01*
G01*
X126445000Y-97137500D01*
G75*
G02*
X126297500Y-97285000I-147500J0D01*
G01*
X125952500Y-97285000D01*
G75*
G02*
X125805000Y-97137500I0J147500D01*
G01*
X125805000Y-96842500D01*
G75*
G02*
X125952500Y-96695000I147500J0D01*
G01*
G37*
%TD*%
%TO.C,C18*%
G36*
G01*
X148112500Y-100143750D02*
X148112500Y-100656250D01*
G75*
G02*
X147893750Y-100875000I-218750J0D01*
G01*
X147456250Y-100875000D01*
G75*
G02*
X147237500Y-100656250I0J218750D01*
G01*
X147237500Y-100143750D01*
G75*
G02*
X147456250Y-99925000I218750J0D01*
G01*
X147893750Y-99925000D01*
G75*
G02*
X148112500Y-100143750I0J-218750D01*
G01*
G37*
G36*
G01*
X149687500Y-100143750D02*
X149687500Y-100656250D01*
G75*
G02*
X149468750Y-100875000I-218750J0D01*
G01*
X149031250Y-100875000D01*
G75*
G02*
X148812500Y-100656250I0J218750D01*
G01*
X148812500Y-100143750D01*
G75*
G02*
X149031250Y-99925000I218750J0D01*
G01*
X149468750Y-99925000D01*
G75*
G02*
X149687500Y-100143750I0J-218750D01*
G01*
G37*
%TD*%
%TO.C,C19*%
G36*
G01*
X125200000Y-94043750D02*
X125200000Y-94556250D01*
G75*
G02*
X124981250Y-94775000I-218750J0D01*
G01*
X124543750Y-94775000D01*
G75*
G02*
X124325000Y-94556250I0J218750D01*
G01*
X124325000Y-94043750D01*
G75*
G02*
X124543750Y-93825000I218750J0D01*
G01*
X124981250Y-93825000D01*
G75*
G02*
X125200000Y-94043750I0J-218750D01*
G01*
G37*
G36*
G01*
X126775000Y-94043750D02*
X126775000Y-94556250D01*
G75*
G02*
X126556250Y-94775000I-218750J0D01*
G01*
X126118750Y-94775000D01*
G75*
G02*
X125900000Y-94556250I0J218750D01*
G01*
X125900000Y-94043750D01*
G75*
G02*
X126118750Y-93825000I218750J0D01*
G01*
X126556250Y-93825000D01*
G75*
G02*
X126775000Y-94043750I0J-218750D01*
G01*
G37*
%TD*%
%TO.C,C20*%
G36*
G01*
X131275000Y-83675000D02*
X130025000Y-83675000D01*
G75*
G02*
X129775000Y-83425000I0J250000D01*
G01*
X129775000Y-82675000D01*
G75*
G02*
X130025000Y-82425000I250000J0D01*
G01*
X131275000Y-82425000D01*
G75*
G02*
X131525000Y-82675000I0J-250000D01*
G01*
X131525000Y-83425000D01*
G75*
G02*
X131275000Y-83675000I-250000J0D01*
G01*
G37*
G36*
G01*
X131275000Y-80875000D02*
X130025000Y-80875000D01*
G75*
G02*
X129775000Y-80625000I0J250000D01*
G01*
X129775000Y-79875000D01*
G75*
G02*
X130025000Y-79625000I250000J0D01*
G01*
X131275000Y-79625000D01*
G75*
G02*
X131525000Y-79875000I0J-250000D01*
G01*
X131525000Y-80625000D01*
G75*
G02*
X131275000Y-80875000I-250000J0D01*
G01*
G37*
%TD*%
%TO.C,C21*%
G36*
G01*
X135635000Y-103672500D02*
X135635000Y-103327500D01*
G75*
G02*
X135782500Y-103180000I147500J0D01*
G01*
X136077500Y-103180000D01*
G75*
G02*
X136225000Y-103327500I0J-147500D01*
G01*
X136225000Y-103672500D01*
G75*
G02*
X136077500Y-103820000I-147500J0D01*
G01*
X135782500Y-103820000D01*
G75*
G02*
X135635000Y-103672500I0J147500D01*
G01*
G37*
G36*
G01*
X136605000Y-103672500D02*
X136605000Y-103327500D01*
G75*
G02*
X136752500Y-103180000I147500J0D01*
G01*
X137047500Y-103180000D01*
G75*
G02*
X137195000Y-103327500I0J-147500D01*
G01*
X137195000Y-103672500D01*
G75*
G02*
X137047500Y-103820000I-147500J0D01*
G01*
X136752500Y-103820000D01*
G75*
G02*
X136605000Y-103672500I0J147500D01*
G01*
G37*
%TD*%
%TO.C,C22*%
G36*
G01*
X126405000Y-98802500D02*
X126405000Y-99147500D01*
G75*
G02*
X126257500Y-99295000I-147500J0D01*
G01*
X125962500Y-99295000D01*
G75*
G02*
X125815000Y-99147500I0J147500D01*
G01*
X125815000Y-98802500D01*
G75*
G02*
X125962500Y-98655000I147500J0D01*
G01*
X126257500Y-98655000D01*
G75*
G02*
X126405000Y-98802500I0J-147500D01*
G01*
G37*
G36*
G01*
X125435000Y-98802500D02*
X125435000Y-99147500D01*
G75*
G02*
X125287500Y-99295000I-147500J0D01*
G01*
X124992500Y-99295000D01*
G75*
G02*
X124845000Y-99147500I0J147500D01*
G01*
X124845000Y-98802500D01*
G75*
G02*
X124992500Y-98655000I147500J0D01*
G01*
X125287500Y-98655000D01*
G75*
G02*
X125435000Y-98802500I0J-147500D01*
G01*
G37*
%TD*%
%TO.C,C23*%
G36*
G01*
X126775000Y-80875000D02*
X125525000Y-80875000D01*
G75*
G02*
X125275000Y-80625000I0J250000D01*
G01*
X125275000Y-79875000D01*
G75*
G02*
X125525000Y-79625000I250000J0D01*
G01*
X126775000Y-79625000D01*
G75*
G02*
X127025000Y-79875000I0J-250000D01*
G01*
X127025000Y-80625000D01*
G75*
G02*
X126775000Y-80875000I-250000J0D01*
G01*
G37*
G36*
G01*
X126775000Y-83675000D02*
X125525000Y-83675000D01*
G75*
G02*
X125275000Y-83425000I0J250000D01*
G01*
X125275000Y-82675000D01*
G75*
G02*
X125525000Y-82425000I250000J0D01*
G01*
X126775000Y-82425000D01*
G75*
G02*
X127025000Y-82675000I0J-250000D01*
G01*
X127025000Y-83425000D01*
G75*
G02*
X126775000Y-83675000I-250000J0D01*
G01*
G37*
%TD*%
%TO.C,C24*%
G36*
G01*
X133525000Y-83675000D02*
X132275000Y-83675000D01*
G75*
G02*
X132025000Y-83425000I0J250000D01*
G01*
X132025000Y-82675000D01*
G75*
G02*
X132275000Y-82425000I250000J0D01*
G01*
X133525000Y-82425000D01*
G75*
G02*
X133775000Y-82675000I0J-250000D01*
G01*
X133775000Y-83425000D01*
G75*
G02*
X133525000Y-83675000I-250000J0D01*
G01*
G37*
G36*
G01*
X133525000Y-80875000D02*
X132275000Y-80875000D01*
G75*
G02*
X132025000Y-80625000I0J250000D01*
G01*
X132025000Y-79875000D01*
G75*
G02*
X132275000Y-79625000I250000J0D01*
G01*
X133525000Y-79625000D01*
G75*
G02*
X133775000Y-79875000I0J-250000D01*
G01*
X133775000Y-80625000D01*
G75*
G02*
X133525000Y-80875000I-250000J0D01*
G01*
G37*
%TD*%
%TO.C,C25*%
G36*
G01*
X129025000Y-80875000D02*
X127775000Y-80875000D01*
G75*
G02*
X127525000Y-80625000I0J250000D01*
G01*
X127525000Y-79875000D01*
G75*
G02*
X127775000Y-79625000I250000J0D01*
G01*
X129025000Y-79625000D01*
G75*
G02*
X129275000Y-79875000I0J-250000D01*
G01*
X129275000Y-80625000D01*
G75*
G02*
X129025000Y-80875000I-250000J0D01*
G01*
G37*
G36*
G01*
X129025000Y-83675000D02*
X127775000Y-83675000D01*
G75*
G02*
X127525000Y-83425000I0J250000D01*
G01*
X127525000Y-82675000D01*
G75*
G02*
X127775000Y-82425000I250000J0D01*
G01*
X129025000Y-82425000D01*
G75*
G02*
X129275000Y-82675000I0J-250000D01*
G01*
X129275000Y-83425000D01*
G75*
G02*
X129025000Y-83675000I-250000J0D01*
G01*
G37*
%TD*%
%TO.C,C26*%
G36*
G01*
X142360000Y-96827500D02*
X142360000Y-97172500D01*
G75*
G02*
X142212500Y-97320000I-147500J0D01*
G01*
X141917500Y-97320000D01*
G75*
G02*
X141770000Y-97172500I0J147500D01*
G01*
X141770000Y-96827500D01*
G75*
G02*
X141917500Y-96680000I147500J0D01*
G01*
X142212500Y-96680000D01*
G75*
G02*
X142360000Y-96827500I0J-147500D01*
G01*
G37*
G36*
G01*
X143330000Y-96827500D02*
X143330000Y-97172500D01*
G75*
G02*
X143182500Y-97320000I-147500J0D01*
G01*
X142887500Y-97320000D01*
G75*
G02*
X142740000Y-97172500I0J147500D01*
G01*
X142740000Y-96827500D01*
G75*
G02*
X142887500Y-96680000I147500J0D01*
G01*
X143182500Y-96680000D01*
G75*
G02*
X143330000Y-96827500I0J-147500D01*
G01*
G37*
%TD*%
%TO.C,C27*%
G36*
G01*
X119370000Y-92622500D02*
X119370000Y-92277500D01*
G75*
G02*
X119517500Y-92130000I147500J0D01*
G01*
X119812500Y-92130000D01*
G75*
G02*
X119960000Y-92277500I0J-147500D01*
G01*
X119960000Y-92622500D01*
G75*
G02*
X119812500Y-92770000I-147500J0D01*
G01*
X119517500Y-92770000D01*
G75*
G02*
X119370000Y-92622500I0J147500D01*
G01*
G37*
G36*
G01*
X120340000Y-92622500D02*
X120340000Y-92277500D01*
G75*
G02*
X120487500Y-92130000I147500J0D01*
G01*
X120782500Y-92130000D01*
G75*
G02*
X120930000Y-92277500I0J-147500D01*
G01*
X120930000Y-92622500D01*
G75*
G02*
X120782500Y-92770000I-147500J0D01*
G01*
X120487500Y-92770000D01*
G75*
G02*
X120340000Y-92622500I0J147500D01*
G01*
G37*
%TD*%
%TO.C,C28*%
G36*
G01*
X115705000Y-88995000D02*
X115705000Y-87745000D01*
G75*
G02*
X115955000Y-87495000I250000J0D01*
G01*
X116705000Y-87495000D01*
G75*
G02*
X116955000Y-87745000I0J-250000D01*
G01*
X116955000Y-88995000D01*
G75*
G02*
X116705000Y-89245000I-250000J0D01*
G01*
X115955000Y-89245000D01*
G75*
G02*
X115705000Y-88995000I0J250000D01*
G01*
G37*
G36*
G01*
X112905000Y-88995000D02*
X112905000Y-87745000D01*
G75*
G02*
X113155000Y-87495000I250000J0D01*
G01*
X113905000Y-87495000D01*
G75*
G02*
X114155000Y-87745000I0J-250000D01*
G01*
X114155000Y-88995000D01*
G75*
G02*
X113905000Y-89245000I-250000J0D01*
G01*
X113155000Y-89245000D01*
G75*
G02*
X112905000Y-88995000I0J250000D01*
G01*
G37*
%TD*%
%TO.C,C30*%
G36*
G01*
X130127500Y-95690000D02*
X130472500Y-95690000D01*
G75*
G02*
X130620000Y-95837500I0J-147500D01*
G01*
X130620000Y-96132500D01*
G75*
G02*
X130472500Y-96280000I-147500J0D01*
G01*
X130127500Y-96280000D01*
G75*
G02*
X129980000Y-96132500I0J147500D01*
G01*
X129980000Y-95837500D01*
G75*
G02*
X130127500Y-95690000I147500J0D01*
G01*
G37*
G36*
G01*
X130127500Y-94720000D02*
X130472500Y-94720000D01*
G75*
G02*
X130620000Y-94867500I0J-147500D01*
G01*
X130620000Y-95162500D01*
G75*
G02*
X130472500Y-95310000I-147500J0D01*
G01*
X130127500Y-95310000D01*
G75*
G02*
X129980000Y-95162500I0J147500D01*
G01*
X129980000Y-94867500D01*
G75*
G02*
X130127500Y-94720000I147500J0D01*
G01*
G37*
%TD*%
%TO.C,C31*%
G36*
G01*
X128793750Y-95612500D02*
X129306250Y-95612500D01*
G75*
G02*
X129525000Y-95831250I0J-218750D01*
G01*
X129525000Y-96268750D01*
G75*
G02*
X129306250Y-96487500I-218750J0D01*
G01*
X128793750Y-96487500D01*
G75*
G02*
X128575000Y-96268750I0J218750D01*
G01*
X128575000Y-95831250D01*
G75*
G02*
X128793750Y-95612500I218750J0D01*
G01*
G37*
G36*
G01*
X128793750Y-94037500D02*
X129306250Y-94037500D01*
G75*
G02*
X129525000Y-94256250I0J-218750D01*
G01*
X129525000Y-94693750D01*
G75*
G02*
X129306250Y-94912500I-218750J0D01*
G01*
X128793750Y-94912500D01*
G75*
G02*
X128575000Y-94693750I0J218750D01*
G01*
X128575000Y-94256250D01*
G75*
G02*
X128793750Y-94037500I218750J0D01*
G01*
G37*
%TD*%
%TO.C,C32*%
G36*
G01*
X112905000Y-91295000D02*
X112905000Y-90045000D01*
G75*
G02*
X113155000Y-89795000I250000J0D01*
G01*
X113905000Y-89795000D01*
G75*
G02*
X114155000Y-90045000I0J-250000D01*
G01*
X114155000Y-91295000D01*
G75*
G02*
X113905000Y-91545000I-250000J0D01*
G01*
X113155000Y-91545000D01*
G75*
G02*
X112905000Y-91295000I0J250000D01*
G01*
G37*
G36*
G01*
X115705000Y-91295000D02*
X115705000Y-90045000D01*
G75*
G02*
X115955000Y-89795000I250000J0D01*
G01*
X116705000Y-89795000D01*
G75*
G02*
X116955000Y-90045000I0J-250000D01*
G01*
X116955000Y-91295000D01*
G75*
G02*
X116705000Y-91545000I-250000J0D01*
G01*
X115955000Y-91545000D01*
G75*
G02*
X115705000Y-91295000I0J250000D01*
G01*
G37*
%TD*%
%TO.C,C33*%
G36*
G01*
X132072500Y-93345000D02*
X131727500Y-93345000D01*
G75*
G02*
X131580000Y-93197500I0J147500D01*
G01*
X131580000Y-92902500D01*
G75*
G02*
X131727500Y-92755000I147500J0D01*
G01*
X132072500Y-92755000D01*
G75*
G02*
X132220000Y-92902500I0J-147500D01*
G01*
X132220000Y-93197500D01*
G75*
G02*
X132072500Y-93345000I-147500J0D01*
G01*
G37*
G36*
G01*
X132072500Y-94315000D02*
X131727500Y-94315000D01*
G75*
G02*
X131580000Y-94167500I0J147500D01*
G01*
X131580000Y-93872500D01*
G75*
G02*
X131727500Y-93725000I147500J0D01*
G01*
X132072500Y-93725000D01*
G75*
G02*
X132220000Y-93872500I0J-147500D01*
G01*
X132220000Y-94167500D01*
G75*
G02*
X132072500Y-94315000I-147500J0D01*
G01*
G37*
%TD*%
%TO.C,C35*%
G36*
G01*
X151406250Y-86825000D02*
X150893750Y-86825000D01*
G75*
G02*
X150675000Y-86606250I0J218750D01*
G01*
X150675000Y-86168750D01*
G75*
G02*
X150893750Y-85950000I218750J0D01*
G01*
X151406250Y-85950000D01*
G75*
G02*
X151625000Y-86168750I0J-218750D01*
G01*
X151625000Y-86606250D01*
G75*
G02*
X151406250Y-86825000I-218750J0D01*
G01*
G37*
G36*
G01*
X151406250Y-85250000D02*
X150893750Y-85250000D01*
G75*
G02*
X150675000Y-85031250I0J218750D01*
G01*
X150675000Y-84593750D01*
G75*
G02*
X150893750Y-84375000I218750J0D01*
G01*
X151406250Y-84375000D01*
G75*
G02*
X151625000Y-84593750I0J-218750D01*
G01*
X151625000Y-85031250D01*
G75*
G02*
X151406250Y-85250000I-218750J0D01*
G01*
G37*
%TD*%
%TO.C,C37*%
G36*
G01*
X144550000Y-88293750D02*
X144550000Y-88806250D01*
G75*
G02*
X144331250Y-89025000I-218750J0D01*
G01*
X143893750Y-89025000D01*
G75*
G02*
X143675000Y-88806250I0J218750D01*
G01*
X143675000Y-88293750D01*
G75*
G02*
X143893750Y-88075000I218750J0D01*
G01*
X144331250Y-88075000D01*
G75*
G02*
X144550000Y-88293750I0J-218750D01*
G01*
G37*
G36*
G01*
X146125000Y-88293750D02*
X146125000Y-88806250D01*
G75*
G02*
X145906250Y-89025000I-218750J0D01*
G01*
X145468750Y-89025000D01*
G75*
G02*
X145250000Y-88806250I0J218750D01*
G01*
X145250000Y-88293750D01*
G75*
G02*
X145468750Y-88075000I218750J0D01*
G01*
X145906250Y-88075000D01*
G75*
G02*
X146125000Y-88293750I0J-218750D01*
G01*
G37*
%TD*%
%TO.C,C38*%
G36*
G01*
X130125000Y-88293750D02*
X130125000Y-88806250D01*
G75*
G02*
X129906250Y-89025000I-218750J0D01*
G01*
X129468750Y-89025000D01*
G75*
G02*
X129250000Y-88806250I0J218750D01*
G01*
X129250000Y-88293750D01*
G75*
G02*
X129468750Y-88075000I218750J0D01*
G01*
X129906250Y-88075000D01*
G75*
G02*
X130125000Y-88293750I0J-218750D01*
G01*
G37*
G36*
G01*
X128550000Y-88293750D02*
X128550000Y-88806250D01*
G75*
G02*
X128331250Y-89025000I-218750J0D01*
G01*
X127893750Y-89025000D01*
G75*
G02*
X127675000Y-88806250I0J218750D01*
G01*
X127675000Y-88293750D01*
G75*
G02*
X127893750Y-88075000I218750J0D01*
G01*
X128331250Y-88075000D01*
G75*
G02*
X128550000Y-88293750I0J-218750D01*
G01*
G37*
%TD*%
%TO.C,C39*%
G36*
G01*
X164025000Y-89493750D02*
X164025000Y-90006250D01*
G75*
G02*
X163806250Y-90225000I-218750J0D01*
G01*
X163368750Y-90225000D01*
G75*
G02*
X163150000Y-90006250I0J218750D01*
G01*
X163150000Y-89493750D01*
G75*
G02*
X163368750Y-89275000I218750J0D01*
G01*
X163806250Y-89275000D01*
G75*
G02*
X164025000Y-89493750I0J-218750D01*
G01*
G37*
G36*
G01*
X162450000Y-89493750D02*
X162450000Y-90006250D01*
G75*
G02*
X162231250Y-90225000I-218750J0D01*
G01*
X161793750Y-90225000D01*
G75*
G02*
X161575000Y-90006250I0J218750D01*
G01*
X161575000Y-89493750D01*
G75*
G02*
X161793750Y-89275000I218750J0D01*
G01*
X162231250Y-89275000D01*
G75*
G02*
X162450000Y-89493750I0J-218750D01*
G01*
G37*
%TD*%
%TO.C,C40*%
G36*
G01*
X146125000Y-86543750D02*
X146125000Y-87056250D01*
G75*
G02*
X145906250Y-87275000I-218750J0D01*
G01*
X145468750Y-87275000D01*
G75*
G02*
X145250000Y-87056250I0J218750D01*
G01*
X145250000Y-86543750D01*
G75*
G02*
X145468750Y-86325000I218750J0D01*
G01*
X145906250Y-86325000D01*
G75*
G02*
X146125000Y-86543750I0J-218750D01*
G01*
G37*
G36*
G01*
X144550000Y-86543750D02*
X144550000Y-87056250D01*
G75*
G02*
X144331250Y-87275000I-218750J0D01*
G01*
X143893750Y-87275000D01*
G75*
G02*
X143675000Y-87056250I0J218750D01*
G01*
X143675000Y-86543750D01*
G75*
G02*
X143893750Y-86325000I218750J0D01*
G01*
X144331250Y-86325000D01*
G75*
G02*
X144550000Y-86543750I0J-218750D01*
G01*
G37*
%TD*%
%TO.C,C41*%
G36*
G01*
X128550000Y-86543750D02*
X128550000Y-87056250D01*
G75*
G02*
X128331250Y-87275000I-218750J0D01*
G01*
X127893750Y-87275000D01*
G75*
G02*
X127675000Y-87056250I0J218750D01*
G01*
X127675000Y-86543750D01*
G75*
G02*
X127893750Y-86325000I218750J0D01*
G01*
X128331250Y-86325000D01*
G75*
G02*
X128550000Y-86543750I0J-218750D01*
G01*
G37*
G36*
G01*
X130125000Y-86543750D02*
X130125000Y-87056250D01*
G75*
G02*
X129906250Y-87275000I-218750J0D01*
G01*
X129468750Y-87275000D01*
G75*
G02*
X129250000Y-87056250I0J218750D01*
G01*
X129250000Y-86543750D01*
G75*
G02*
X129468750Y-86325000I218750J0D01*
G01*
X129906250Y-86325000D01*
G75*
G02*
X130125000Y-86543750I0J-218750D01*
G01*
G37*
%TD*%
%TO.C,C42*%
G36*
G01*
X123856361Y-105287094D02*
X124218754Y-105649486D01*
G75*
G02*
X124218754Y-105958846I-154680J-154680D01*
G01*
X123909395Y-106268205D01*
G75*
G02*
X123600035Y-106268205I-154680J154680D01*
G01*
X123237642Y-105905812D01*
G75*
G02*
X123237642Y-105596452I154680J154680D01*
G01*
X123547001Y-105287093D01*
G75*
G02*
X123856361Y-105287093I154680J-154680D01*
G01*
G37*
G36*
G01*
X122742667Y-106400788D02*
X123105060Y-106763180D01*
G75*
G02*
X123105060Y-107072540I-154680J-154680D01*
G01*
X122795701Y-107381899D01*
G75*
G02*
X122486341Y-107381899I-154680J154680D01*
G01*
X122123948Y-107019506D01*
G75*
G02*
X122123948Y-106710146I154680J154680D01*
G01*
X122433307Y-106400787D01*
G75*
G02*
X122742667Y-106400787I154680J-154680D01*
G01*
G37*
%TD*%
%TO.C,C43*%
G36*
G01*
X121381487Y-102812220D02*
X121743880Y-103174612D01*
G75*
G02*
X121743880Y-103483972I-154680J-154680D01*
G01*
X121434521Y-103793331D01*
G75*
G02*
X121125161Y-103793331I-154680J154680D01*
G01*
X120762768Y-103430938D01*
G75*
G02*
X120762768Y-103121578I154680J154680D01*
G01*
X121072127Y-102812219D01*
G75*
G02*
X121381487Y-102812219I154680J-154680D01*
G01*
G37*
G36*
G01*
X120267793Y-103925914D02*
X120630186Y-104288306D01*
G75*
G02*
X120630186Y-104597666I-154680J-154680D01*
G01*
X120320827Y-104907025D01*
G75*
G02*
X120011467Y-104907025I-154680J154680D01*
G01*
X119649074Y-104544632D01*
G75*
G02*
X119649074Y-104235272I154680J154680D01*
G01*
X119958433Y-103925913D01*
G75*
G02*
X120267793Y-103925913I154680J-154680D01*
G01*
G37*
%TD*%
%TO.C,C44*%
G36*
G01*
X122618924Y-104049657D02*
X122981317Y-104412049D01*
G75*
G02*
X122981317Y-104721409I-154680J-154680D01*
G01*
X122671958Y-105030768D01*
G75*
G02*
X122362598Y-105030768I-154680J154680D01*
G01*
X122000205Y-104668375D01*
G75*
G02*
X122000205Y-104359015I154680J154680D01*
G01*
X122309564Y-104049656D01*
G75*
G02*
X122618924Y-104049656I154680J-154680D01*
G01*
G37*
G36*
G01*
X121505230Y-105163351D02*
X121867623Y-105525743D01*
G75*
G02*
X121867623Y-105835103I-154680J-154680D01*
G01*
X121558264Y-106144462D01*
G75*
G02*
X121248904Y-106144462I-154680J154680D01*
G01*
X120886511Y-105782069D01*
G75*
G02*
X120886511Y-105472709I154680J154680D01*
G01*
X121195870Y-105163350D01*
G75*
G02*
X121505230Y-105163350I154680J-154680D01*
G01*
G37*
%TD*%
D19*
%TO.C,D1*%
X123650000Y-83200000D03*
X123650000Y-79900000D03*
%TD*%
D13*
%TO.C,D2*%
X152650000Y-85550000D03*
X155950000Y-85550000D03*
%TD*%
%TO.C,L1*%
G36*
G01*
X138712500Y-105543750D02*
X138712500Y-106056250D01*
G75*
G02*
X138493750Y-106275000I-218750J0D01*
G01*
X138056250Y-106275000D01*
G75*
G02*
X137837500Y-106056250I0J218750D01*
G01*
X137837500Y-105543750D01*
G75*
G02*
X138056250Y-105325000I218750J0D01*
G01*
X138493750Y-105325000D01*
G75*
G02*
X138712500Y-105543750I0J-218750D01*
G01*
G37*
G36*
G01*
X137137500Y-105543750D02*
X137137500Y-106056250D01*
G75*
G02*
X136918750Y-106275000I-218750J0D01*
G01*
X136481250Y-106275000D01*
G75*
G02*
X136262500Y-106056250I0J218750D01*
G01*
X136262500Y-105543750D01*
G75*
G02*
X136481250Y-105325000I218750J0D01*
G01*
X136918750Y-105325000D01*
G75*
G02*
X137137500Y-105543750I0J-218750D01*
G01*
G37*
%TD*%
%TO.C,FLT_LED1*%
G36*
G01*
X168056250Y-101187500D02*
X167543750Y-101187500D01*
G75*
G02*
X167325000Y-100968750I0J218750D01*
G01*
X167325000Y-100531250D01*
G75*
G02*
X167543750Y-100312500I218750J0D01*
G01*
X168056250Y-100312500D01*
G75*
G02*
X168275000Y-100531250I0J-218750D01*
G01*
X168275000Y-100968750D01*
G75*
G02*
X168056250Y-101187500I-218750J0D01*
G01*
G37*
G36*
G01*
X168056250Y-99612500D02*
X167543750Y-99612500D01*
G75*
G02*
X167325000Y-99393750I0J218750D01*
G01*
X167325000Y-98956250D01*
G75*
G02*
X167543750Y-98737500I218750J0D01*
G01*
X168056250Y-98737500D01*
G75*
G02*
X168275000Y-98956250I0J-218750D01*
G01*
X168275000Y-99393750D01*
G75*
G02*
X168056250Y-99612500I-218750J0D01*
G01*
G37*
%TD*%
%TO.C,CHG_LED1*%
G36*
G01*
X167543750Y-95850000D02*
X168056250Y-95850000D01*
G75*
G02*
X168275000Y-96068750I0J-218750D01*
G01*
X168275000Y-96506250D01*
G75*
G02*
X168056250Y-96725000I-218750J0D01*
G01*
X167543750Y-96725000D01*
G75*
G02*
X167325000Y-96506250I0J218750D01*
G01*
X167325000Y-96068750D01*
G75*
G02*
X167543750Y-95850000I218750J0D01*
G01*
G37*
G36*
G01*
X167543750Y-94275000D02*
X168056250Y-94275000D01*
G75*
G02*
X168275000Y-94493750I0J-218750D01*
G01*
X168275000Y-94931250D01*
G75*
G02*
X168056250Y-95150000I-218750J0D01*
G01*
X167543750Y-95150000D01*
G75*
G02*
X167325000Y-94931250I0J218750D01*
G01*
X167325000Y-94493750D01*
G75*
G02*
X167543750Y-94275000I218750J0D01*
G01*
G37*
%TD*%
D20*
%TO.C,Q5*%
X155100000Y-89500000D03*
X155100000Y-87600000D03*
X153100000Y-88550000D03*
%TD*%
D21*
%TO.C,Q6*%
X137600000Y-88625000D03*
X137600000Y-90475000D03*
D22*
X137600000Y-89590000D03*
D23*
X138575000Y-89200000D03*
X138575000Y-89900000D03*
%TD*%
D20*
%TO.C,Q7*%
X156900000Y-88550000D03*
X158900000Y-87600000D03*
X158900000Y-89500000D03*
%TD*%
%TO.C,Q8*%
X155000000Y-103800000D03*
X155000000Y-101900000D03*
X153000000Y-102850000D03*
%TD*%
%TO.C,R1*%
G36*
G01*
X159322500Y-85445000D02*
X158977500Y-85445000D01*
G75*
G02*
X158830000Y-85297500I0J147500D01*
G01*
X158830000Y-85002500D01*
G75*
G02*
X158977500Y-84855000I147500J0D01*
G01*
X159322500Y-84855000D01*
G75*
G02*
X159470000Y-85002500I0J-147500D01*
G01*
X159470000Y-85297500D01*
G75*
G02*
X159322500Y-85445000I-147500J0D01*
G01*
G37*
G36*
G01*
X159322500Y-86415000D02*
X158977500Y-86415000D01*
G75*
G02*
X158830000Y-86267500I0J147500D01*
G01*
X158830000Y-85972500D01*
G75*
G02*
X158977500Y-85825000I147500J0D01*
G01*
X159322500Y-85825000D01*
G75*
G02*
X159470000Y-85972500I0J-147500D01*
G01*
X159470000Y-86267500D01*
G75*
G02*
X159322500Y-86415000I-147500J0D01*
G01*
G37*
%TD*%
%TO.C,R3*%
G36*
G01*
X166535000Y-102422500D02*
X166535000Y-102077500D01*
G75*
G02*
X166682500Y-101930000I147500J0D01*
G01*
X166977500Y-101930000D01*
G75*
G02*
X167125000Y-102077500I0J-147500D01*
G01*
X167125000Y-102422500D01*
G75*
G02*
X166977500Y-102570000I-147500J0D01*
G01*
X166682500Y-102570000D01*
G75*
G02*
X166535000Y-102422500I0J147500D01*
G01*
G37*
G36*
G01*
X167505000Y-102422500D02*
X167505000Y-102077500D01*
G75*
G02*
X167652500Y-101930000I147500J0D01*
G01*
X167947500Y-101930000D01*
G75*
G02*
X168095000Y-102077500I0J-147500D01*
G01*
X168095000Y-102422500D01*
G75*
G02*
X167947500Y-102570000I-147500J0D01*
G01*
X167652500Y-102570000D01*
G75*
G02*
X167505000Y-102422500I0J147500D01*
G01*
G37*
%TD*%
%TO.C,R4*%
G36*
G01*
X167505000Y-93422500D02*
X167505000Y-93077500D01*
G75*
G02*
X167652500Y-92930000I147500J0D01*
G01*
X167947500Y-92930000D01*
G75*
G02*
X168095000Y-93077500I0J-147500D01*
G01*
X168095000Y-93422500D01*
G75*
G02*
X167947500Y-93570000I-147500J0D01*
G01*
X167652500Y-93570000D01*
G75*
G02*
X167505000Y-93422500I0J147500D01*
G01*
G37*
G36*
G01*
X166535000Y-93422500D02*
X166535000Y-93077500D01*
G75*
G02*
X166682500Y-92930000I147500J0D01*
G01*
X166977500Y-92930000D01*
G75*
G02*
X167125000Y-93077500I0J-147500D01*
G01*
X167125000Y-93422500D01*
G75*
G02*
X166977500Y-93570000I-147500J0D01*
G01*
X166682500Y-93570000D01*
G75*
G02*
X166535000Y-93422500I0J147500D01*
G01*
G37*
%TD*%
%TO.C,R6*%
G36*
G01*
X129120000Y-103772500D02*
X129120000Y-103427500D01*
G75*
G02*
X129267500Y-103280000I147500J0D01*
G01*
X129562500Y-103280000D01*
G75*
G02*
X129710000Y-103427500I0J-147500D01*
G01*
X129710000Y-103772500D01*
G75*
G02*
X129562500Y-103920000I-147500J0D01*
G01*
X129267500Y-103920000D01*
G75*
G02*
X129120000Y-103772500I0J147500D01*
G01*
G37*
G36*
G01*
X130090000Y-103772500D02*
X130090000Y-103427500D01*
G75*
G02*
X130237500Y-103280000I147500J0D01*
G01*
X130532500Y-103280000D01*
G75*
G02*
X130680000Y-103427500I0J-147500D01*
G01*
X130680000Y-103772500D01*
G75*
G02*
X130532500Y-103920000I-147500J0D01*
G01*
X130237500Y-103920000D01*
G75*
G02*
X130090000Y-103772500I0J147500D01*
G01*
G37*
%TD*%
%TO.C,R7*%
G36*
G01*
X131127500Y-100585000D02*
X131472500Y-100585000D01*
G75*
G02*
X131620000Y-100732500I0J-147500D01*
G01*
X131620000Y-101027500D01*
G75*
G02*
X131472500Y-101175000I-147500J0D01*
G01*
X131127500Y-101175000D01*
G75*
G02*
X130980000Y-101027500I0J147500D01*
G01*
X130980000Y-100732500D01*
G75*
G02*
X131127500Y-100585000I147500J0D01*
G01*
G37*
G36*
G01*
X131127500Y-101555000D02*
X131472500Y-101555000D01*
G75*
G02*
X131620000Y-101702500I0J-147500D01*
G01*
X131620000Y-101997500D01*
G75*
G02*
X131472500Y-102145000I-147500J0D01*
G01*
X131127500Y-102145000D01*
G75*
G02*
X130980000Y-101997500I0J147500D01*
G01*
X130980000Y-101702500D01*
G75*
G02*
X131127500Y-101555000I147500J0D01*
G01*
G37*
%TD*%
%TO.C,R8*%
G36*
G01*
X162530000Y-97077500D02*
X162530000Y-97422500D01*
G75*
G02*
X162382500Y-97570000I-147500J0D01*
G01*
X162087500Y-97570000D01*
G75*
G02*
X161940000Y-97422500I0J147500D01*
G01*
X161940000Y-97077500D01*
G75*
G02*
X162087500Y-96930000I147500J0D01*
G01*
X162382500Y-96930000D01*
G75*
G02*
X162530000Y-97077500I0J-147500D01*
G01*
G37*
G36*
G01*
X161560000Y-97077500D02*
X161560000Y-97422500D01*
G75*
G02*
X161412500Y-97570000I-147500J0D01*
G01*
X161117500Y-97570000D01*
G75*
G02*
X160970000Y-97422500I0J147500D01*
G01*
X160970000Y-97077500D01*
G75*
G02*
X161117500Y-96930000I147500J0D01*
G01*
X161412500Y-96930000D01*
G75*
G02*
X161560000Y-97077500I0J-147500D01*
G01*
G37*
%TD*%
%TO.C,R10*%
G36*
G01*
X152725000Y-95843750D02*
X152725000Y-96356250D01*
G75*
G02*
X152506250Y-96575000I-218750J0D01*
G01*
X152068750Y-96575000D01*
G75*
G02*
X151850000Y-96356250I0J218750D01*
G01*
X151850000Y-95843750D01*
G75*
G02*
X152068750Y-95625000I218750J0D01*
G01*
X152506250Y-95625000D01*
G75*
G02*
X152725000Y-95843750I0J-218750D01*
G01*
G37*
G36*
G01*
X151150000Y-95843750D02*
X151150000Y-96356250D01*
G75*
G02*
X150931250Y-96575000I-218750J0D01*
G01*
X150493750Y-96575000D01*
G75*
G02*
X150275000Y-96356250I0J218750D01*
G01*
X150275000Y-95843750D01*
G75*
G02*
X150493750Y-95625000I218750J0D01*
G01*
X150931250Y-95625000D01*
G75*
G02*
X151150000Y-95843750I0J-218750D01*
G01*
G37*
%TD*%
%TO.C,R11*%
G36*
G01*
X124325000Y-93056250D02*
X124325000Y-92543750D01*
G75*
G02*
X124543750Y-92325000I218750J0D01*
G01*
X124981250Y-92325000D01*
G75*
G02*
X125200000Y-92543750I0J-218750D01*
G01*
X125200000Y-93056250D01*
G75*
G02*
X124981250Y-93275000I-218750J0D01*
G01*
X124543750Y-93275000D01*
G75*
G02*
X124325000Y-93056250I0J218750D01*
G01*
G37*
G36*
G01*
X125900000Y-93056250D02*
X125900000Y-92543750D01*
G75*
G02*
X126118750Y-92325000I218750J0D01*
G01*
X126556250Y-92325000D01*
G75*
G02*
X126775000Y-92543750I0J-218750D01*
G01*
X126775000Y-93056250D01*
G75*
G02*
X126556250Y-93275000I-218750J0D01*
G01*
X126118750Y-93275000D01*
G75*
G02*
X125900000Y-93056250I0J218750D01*
G01*
G37*
%TD*%
%TO.C,R12*%
G36*
G01*
X163150000Y-88406250D02*
X163150000Y-87893750D01*
G75*
G02*
X163368750Y-87675000I218750J0D01*
G01*
X163806250Y-87675000D01*
G75*
G02*
X164025000Y-87893750I0J-218750D01*
G01*
X164025000Y-88406250D01*
G75*
G02*
X163806250Y-88625000I-218750J0D01*
G01*
X163368750Y-88625000D01*
G75*
G02*
X163150000Y-88406250I0J218750D01*
G01*
G37*
G36*
G01*
X161575000Y-88406250D02*
X161575000Y-87893750D01*
G75*
G02*
X161793750Y-87675000I218750J0D01*
G01*
X162231250Y-87675000D01*
G75*
G02*
X162450000Y-87893750I0J-218750D01*
G01*
X162450000Y-88406250D01*
G75*
G02*
X162231250Y-88625000I-218750J0D01*
G01*
X161793750Y-88625000D01*
G75*
G02*
X161575000Y-88406250I0J218750D01*
G01*
G37*
%TD*%
%TO.C,R13*%
G36*
G01*
X125297500Y-97285000D02*
X124952500Y-97285000D01*
G75*
G02*
X124805000Y-97137500I0J147500D01*
G01*
X124805000Y-96842500D01*
G75*
G02*
X124952500Y-96695000I147500J0D01*
G01*
X125297500Y-96695000D01*
G75*
G02*
X125445000Y-96842500I0J-147500D01*
G01*
X125445000Y-97137500D01*
G75*
G02*
X125297500Y-97285000I-147500J0D01*
G01*
G37*
G36*
G01*
X125297500Y-98255000D02*
X124952500Y-98255000D01*
G75*
G02*
X124805000Y-98107500I0J147500D01*
G01*
X124805000Y-97812500D01*
G75*
G02*
X124952500Y-97665000I147500J0D01*
G01*
X125297500Y-97665000D01*
G75*
G02*
X125445000Y-97812500I0J-147500D01*
G01*
X125445000Y-98107500D01*
G75*
G02*
X125297500Y-98255000I-147500J0D01*
G01*
G37*
%TD*%
%TO.C,R14*%
G36*
G01*
X124722500Y-91845000D02*
X124377500Y-91845000D01*
G75*
G02*
X124230000Y-91697500I0J147500D01*
G01*
X124230000Y-91402500D01*
G75*
G02*
X124377500Y-91255000I147500J0D01*
G01*
X124722500Y-91255000D01*
G75*
G02*
X124870000Y-91402500I0J-147500D01*
G01*
X124870000Y-91697500D01*
G75*
G02*
X124722500Y-91845000I-147500J0D01*
G01*
G37*
G36*
G01*
X124722500Y-90875000D02*
X124377500Y-90875000D01*
G75*
G02*
X124230000Y-90727500I0J147500D01*
G01*
X124230000Y-90432500D01*
G75*
G02*
X124377500Y-90285000I147500J0D01*
G01*
X124722500Y-90285000D01*
G75*
G02*
X124870000Y-90432500I0J-147500D01*
G01*
X124870000Y-90727500D01*
G75*
G02*
X124722500Y-90875000I-147500J0D01*
G01*
G37*
%TD*%
%TO.C,R15*%
G36*
G01*
X119822500Y-91730000D02*
X119477500Y-91730000D01*
G75*
G02*
X119330000Y-91582500I0J147500D01*
G01*
X119330000Y-91287500D01*
G75*
G02*
X119477500Y-91140000I147500J0D01*
G01*
X119822500Y-91140000D01*
G75*
G02*
X119970000Y-91287500I0J-147500D01*
G01*
X119970000Y-91582500D01*
G75*
G02*
X119822500Y-91730000I-147500J0D01*
G01*
G37*
G36*
G01*
X119822500Y-90760000D02*
X119477500Y-90760000D01*
G75*
G02*
X119330000Y-90612500I0J147500D01*
G01*
X119330000Y-90317500D01*
G75*
G02*
X119477500Y-90170000I147500J0D01*
G01*
X119822500Y-90170000D01*
G75*
G02*
X119970000Y-90317500I0J-147500D01*
G01*
X119970000Y-90612500D01*
G75*
G02*
X119822500Y-90760000I-147500J0D01*
G01*
G37*
%TD*%
%TO.C,R16*%
G36*
G01*
X151922500Y-104480000D02*
X151577500Y-104480000D01*
G75*
G02*
X151430000Y-104332500I0J147500D01*
G01*
X151430000Y-104037500D01*
G75*
G02*
X151577500Y-103890000I147500J0D01*
G01*
X151922500Y-103890000D01*
G75*
G02*
X152070000Y-104037500I0J-147500D01*
G01*
X152070000Y-104332500D01*
G75*
G02*
X151922500Y-104480000I-147500J0D01*
G01*
G37*
G36*
G01*
X151922500Y-103510000D02*
X151577500Y-103510000D01*
G75*
G02*
X151430000Y-103362500I0J147500D01*
G01*
X151430000Y-103067500D01*
G75*
G02*
X151577500Y-102920000I147500J0D01*
G01*
X151922500Y-102920000D01*
G75*
G02*
X152070000Y-103067500I0J-147500D01*
G01*
X152070000Y-103362500D01*
G75*
G02*
X151922500Y-103510000I-147500J0D01*
G01*
G37*
%TD*%
%TO.C,R18*%
G36*
G01*
X121562500Y-87893750D02*
X121562500Y-88806250D01*
G75*
G02*
X121318750Y-89050000I-243750J0D01*
G01*
X120831250Y-89050000D01*
G75*
G02*
X120587500Y-88806250I0J243750D01*
G01*
X120587500Y-87893750D01*
G75*
G02*
X120831250Y-87650000I243750J0D01*
G01*
X121318750Y-87650000D01*
G75*
G02*
X121562500Y-87893750I0J-243750D01*
G01*
G37*
G36*
G01*
X119687500Y-87893750D02*
X119687500Y-88806250D01*
G75*
G02*
X119443750Y-89050000I-243750J0D01*
G01*
X118956250Y-89050000D01*
G75*
G02*
X118712500Y-88806250I0J243750D01*
G01*
X118712500Y-87893750D01*
G75*
G02*
X118956250Y-87650000I243750J0D01*
G01*
X119443750Y-87650000D01*
G75*
G02*
X119687500Y-87893750I0J-243750D01*
G01*
G37*
%TD*%
%TO.C,R20*%
G36*
G01*
X155277500Y-94255000D02*
X155622500Y-94255000D01*
G75*
G02*
X155770000Y-94402500I0J-147500D01*
G01*
X155770000Y-94697500D01*
G75*
G02*
X155622500Y-94845000I-147500J0D01*
G01*
X155277500Y-94845000D01*
G75*
G02*
X155130000Y-94697500I0J147500D01*
G01*
X155130000Y-94402500D01*
G75*
G02*
X155277500Y-94255000I147500J0D01*
G01*
G37*
G36*
G01*
X155277500Y-93285000D02*
X155622500Y-93285000D01*
G75*
G02*
X155770000Y-93432500I0J-147500D01*
G01*
X155770000Y-93727500D01*
G75*
G02*
X155622500Y-93875000I-147500J0D01*
G01*
X155277500Y-93875000D01*
G75*
G02*
X155130000Y-93727500I0J147500D01*
G01*
X155130000Y-93432500D01*
G75*
G02*
X155277500Y-93285000I147500J0D01*
G01*
G37*
%TD*%
%TO.C,R21*%
G36*
G01*
X120822500Y-91730000D02*
X120477500Y-91730000D01*
G75*
G02*
X120330000Y-91582500I0J147500D01*
G01*
X120330000Y-91287500D01*
G75*
G02*
X120477500Y-91140000I147500J0D01*
G01*
X120822500Y-91140000D01*
G75*
G02*
X120970000Y-91287500I0J-147500D01*
G01*
X120970000Y-91582500D01*
G75*
G02*
X120822500Y-91730000I-147500J0D01*
G01*
G37*
G36*
G01*
X120822500Y-90760000D02*
X120477500Y-90760000D01*
G75*
G02*
X120330000Y-90612500I0J147500D01*
G01*
X120330000Y-90317500D01*
G75*
G02*
X120477500Y-90170000I147500J0D01*
G01*
X120822500Y-90170000D01*
G75*
G02*
X120970000Y-90317500I0J-147500D01*
G01*
X120970000Y-90612500D01*
G75*
G02*
X120822500Y-90760000I-147500J0D01*
G01*
G37*
%TD*%
%TO.C,R23*%
G36*
G01*
X162890000Y-91522500D02*
X162890000Y-91177500D01*
G75*
G02*
X163037500Y-91030000I147500J0D01*
G01*
X163332500Y-91030000D01*
G75*
G02*
X163480000Y-91177500I0J-147500D01*
G01*
X163480000Y-91522500D01*
G75*
G02*
X163332500Y-91670000I-147500J0D01*
G01*
X163037500Y-91670000D01*
G75*
G02*
X162890000Y-91522500I0J147500D01*
G01*
G37*
G36*
G01*
X161920000Y-91522500D02*
X161920000Y-91177500D01*
G75*
G02*
X162067500Y-91030000I147500J0D01*
G01*
X162362500Y-91030000D01*
G75*
G02*
X162510000Y-91177500I0J-147500D01*
G01*
X162510000Y-91522500D01*
G75*
G02*
X162362500Y-91670000I-147500J0D01*
G01*
X162067500Y-91670000D01*
G75*
G02*
X161920000Y-91522500I0J147500D01*
G01*
G37*
%TD*%
%TO.C,R25*%
G36*
G01*
X130327500Y-93790000D02*
X130672500Y-93790000D01*
G75*
G02*
X130820000Y-93937500I0J-147500D01*
G01*
X130820000Y-94232500D01*
G75*
G02*
X130672500Y-94380000I-147500J0D01*
G01*
X130327500Y-94380000D01*
G75*
G02*
X130180000Y-94232500I0J147500D01*
G01*
X130180000Y-93937500D01*
G75*
G02*
X130327500Y-93790000I147500J0D01*
G01*
G37*
G36*
G01*
X130327500Y-92820000D02*
X130672500Y-92820000D01*
G75*
G02*
X130820000Y-92967500I0J-147500D01*
G01*
X130820000Y-93262500D01*
G75*
G02*
X130672500Y-93410000I-147500J0D01*
G01*
X130327500Y-93410000D01*
G75*
G02*
X130180000Y-93262500I0J147500D01*
G01*
X130180000Y-92967500D01*
G75*
G02*
X130327500Y-92820000I147500J0D01*
G01*
G37*
%TD*%
%TO.C,R26*%
G36*
G01*
X124165000Y-84227500D02*
X124165000Y-84572500D01*
G75*
G02*
X124017500Y-84720000I-147500J0D01*
G01*
X123722500Y-84720000D01*
G75*
G02*
X123575000Y-84572500I0J147500D01*
G01*
X123575000Y-84227500D01*
G75*
G02*
X123722500Y-84080000I147500J0D01*
G01*
X124017500Y-84080000D01*
G75*
G02*
X124165000Y-84227500I0J-147500D01*
G01*
G37*
G36*
G01*
X123195000Y-84227500D02*
X123195000Y-84572500D01*
G75*
G02*
X123047500Y-84720000I-147500J0D01*
G01*
X122752500Y-84720000D01*
G75*
G02*
X122605000Y-84572500I0J147500D01*
G01*
X122605000Y-84227500D01*
G75*
G02*
X122752500Y-84080000I147500J0D01*
G01*
X123047500Y-84080000D01*
G75*
G02*
X123195000Y-84227500I0J-147500D01*
G01*
G37*
%TD*%
%TO.C,R27*%
G36*
G01*
X133777500Y-93090000D02*
X134122500Y-93090000D01*
G75*
G02*
X134270000Y-93237500I0J-147500D01*
G01*
X134270000Y-93532500D01*
G75*
G02*
X134122500Y-93680000I-147500J0D01*
G01*
X133777500Y-93680000D01*
G75*
G02*
X133630000Y-93532500I0J147500D01*
G01*
X133630000Y-93237500D01*
G75*
G02*
X133777500Y-93090000I147500J0D01*
G01*
G37*
G36*
G01*
X133777500Y-92120000D02*
X134122500Y-92120000D01*
G75*
G02*
X134270000Y-92267500I0J-147500D01*
G01*
X134270000Y-92562500D01*
G75*
G02*
X134122500Y-92710000I-147500J0D01*
G01*
X133777500Y-92710000D01*
G75*
G02*
X133630000Y-92562500I0J147500D01*
G01*
X133630000Y-92267500D01*
G75*
G02*
X133777500Y-92120000I147500J0D01*
G01*
G37*
%TD*%
%TO.C,R28*%
G36*
G01*
X134777500Y-92120000D02*
X135122500Y-92120000D01*
G75*
G02*
X135270000Y-92267500I0J-147500D01*
G01*
X135270000Y-92562500D01*
G75*
G02*
X135122500Y-92710000I-147500J0D01*
G01*
X134777500Y-92710000D01*
G75*
G02*
X134630000Y-92562500I0J147500D01*
G01*
X134630000Y-92267500D01*
G75*
G02*
X134777500Y-92120000I147500J0D01*
G01*
G37*
G36*
G01*
X134777500Y-93090000D02*
X135122500Y-93090000D01*
G75*
G02*
X135270000Y-93237500I0J-147500D01*
G01*
X135270000Y-93532500D01*
G75*
G02*
X135122500Y-93680000I-147500J0D01*
G01*
X134777500Y-93680000D01*
G75*
G02*
X134630000Y-93532500I0J147500D01*
G01*
X134630000Y-93237500D01*
G75*
G02*
X134777500Y-93090000I147500J0D01*
G01*
G37*
%TD*%
%TO.C,R29*%
G36*
G01*
X137052500Y-92135000D02*
X137397500Y-92135000D01*
G75*
G02*
X137545000Y-92282500I0J-147500D01*
G01*
X137545000Y-92577500D01*
G75*
G02*
X137397500Y-92725000I-147500J0D01*
G01*
X137052500Y-92725000D01*
G75*
G02*
X136905000Y-92577500I0J147500D01*
G01*
X136905000Y-92282500D01*
G75*
G02*
X137052500Y-92135000I147500J0D01*
G01*
G37*
G36*
G01*
X137052500Y-93105000D02*
X137397500Y-93105000D01*
G75*
G02*
X137545000Y-93252500I0J-147500D01*
G01*
X137545000Y-93547500D01*
G75*
G02*
X137397500Y-93695000I-147500J0D01*
G01*
X137052500Y-93695000D01*
G75*
G02*
X136905000Y-93547500I0J147500D01*
G01*
X136905000Y-93252500D01*
G75*
G02*
X137052500Y-93105000I147500J0D01*
G01*
G37*
%TD*%
%TO.C,R30*%
G36*
G01*
X139072500Y-84360000D02*
X138727500Y-84360000D01*
G75*
G02*
X138580000Y-84212500I0J147500D01*
G01*
X138580000Y-83917500D01*
G75*
G02*
X138727500Y-83770000I147500J0D01*
G01*
X139072500Y-83770000D01*
G75*
G02*
X139220000Y-83917500I0J-147500D01*
G01*
X139220000Y-84212500D01*
G75*
G02*
X139072500Y-84360000I-147500J0D01*
G01*
G37*
G36*
G01*
X139072500Y-85330000D02*
X138727500Y-85330000D01*
G75*
G02*
X138580000Y-85182500I0J147500D01*
G01*
X138580000Y-84887500D01*
G75*
G02*
X138727500Y-84740000I147500J0D01*
G01*
X139072500Y-84740000D01*
G75*
G02*
X139220000Y-84887500I0J-147500D01*
G01*
X139220000Y-85182500D01*
G75*
G02*
X139072500Y-85330000I-147500J0D01*
G01*
G37*
%TD*%
%TO.C,R31*%
G36*
G01*
X150827500Y-90425000D02*
X151172500Y-90425000D01*
G75*
G02*
X151320000Y-90572500I0J-147500D01*
G01*
X151320000Y-90867500D01*
G75*
G02*
X151172500Y-91015000I-147500J0D01*
G01*
X150827500Y-91015000D01*
G75*
G02*
X150680000Y-90867500I0J147500D01*
G01*
X150680000Y-90572500D01*
G75*
G02*
X150827500Y-90425000I147500J0D01*
G01*
G37*
G36*
G01*
X150827500Y-89455000D02*
X151172500Y-89455000D01*
G75*
G02*
X151320000Y-89602500I0J-147500D01*
G01*
X151320000Y-89897500D01*
G75*
G02*
X151172500Y-90045000I-147500J0D01*
G01*
X150827500Y-90045000D01*
G75*
G02*
X150680000Y-89897500I0J147500D01*
G01*
X150680000Y-89602500D01*
G75*
G02*
X150827500Y-89455000I147500J0D01*
G01*
G37*
%TD*%
%TO.C,R32*%
G36*
G01*
X134627500Y-85985000D02*
X134972500Y-85985000D01*
G75*
G02*
X135120000Y-86132500I0J-147500D01*
G01*
X135120000Y-86427500D01*
G75*
G02*
X134972500Y-86575000I-147500J0D01*
G01*
X134627500Y-86575000D01*
G75*
G02*
X134480000Y-86427500I0J147500D01*
G01*
X134480000Y-86132500D01*
G75*
G02*
X134627500Y-85985000I147500J0D01*
G01*
G37*
G36*
G01*
X134627500Y-86955000D02*
X134972500Y-86955000D01*
G75*
G02*
X135120000Y-87102500I0J-147500D01*
G01*
X135120000Y-87397500D01*
G75*
G02*
X134972500Y-87545000I-147500J0D01*
G01*
X134627500Y-87545000D01*
G75*
G02*
X134480000Y-87397500I0J147500D01*
G01*
X134480000Y-87102500D01*
G75*
G02*
X134627500Y-86955000I147500J0D01*
G01*
G37*
%TD*%
%TO.C,R34*%
G36*
G01*
X161575000Y-85206250D02*
X161575000Y-84693750D01*
G75*
G02*
X161793750Y-84475000I218750J0D01*
G01*
X162231250Y-84475000D01*
G75*
G02*
X162450000Y-84693750I0J-218750D01*
G01*
X162450000Y-85206250D01*
G75*
G02*
X162231250Y-85425000I-218750J0D01*
G01*
X161793750Y-85425000D01*
G75*
G02*
X161575000Y-85206250I0J218750D01*
G01*
G37*
G36*
G01*
X163150000Y-85206250D02*
X163150000Y-84693750D01*
G75*
G02*
X163368750Y-84475000I218750J0D01*
G01*
X163806250Y-84475000D01*
G75*
G02*
X164025000Y-84693750I0J-218750D01*
G01*
X164025000Y-85206250D01*
G75*
G02*
X163806250Y-85425000I-218750J0D01*
G01*
X163368750Y-85425000D01*
G75*
G02*
X163150000Y-85206250I0J218750D01*
G01*
G37*
%TD*%
%TO.C,R35*%
G36*
G01*
X163150000Y-86806250D02*
X163150000Y-86293750D01*
G75*
G02*
X163368750Y-86075000I218750J0D01*
G01*
X163806250Y-86075000D01*
G75*
G02*
X164025000Y-86293750I0J-218750D01*
G01*
X164025000Y-86806250D01*
G75*
G02*
X163806250Y-87025000I-218750J0D01*
G01*
X163368750Y-87025000D01*
G75*
G02*
X163150000Y-86806250I0J218750D01*
G01*
G37*
G36*
G01*
X161575000Y-86806250D02*
X161575000Y-86293750D01*
G75*
G02*
X161793750Y-86075000I218750J0D01*
G01*
X162231250Y-86075000D01*
G75*
G02*
X162450000Y-86293750I0J-218750D01*
G01*
X162450000Y-86806250D01*
G75*
G02*
X162231250Y-87025000I-218750J0D01*
G01*
X161793750Y-87025000D01*
G75*
G02*
X161575000Y-86806250I0J218750D01*
G01*
G37*
%TD*%
%TO.C,R36*%
G36*
G01*
X149177500Y-79535000D02*
X149522500Y-79535000D01*
G75*
G02*
X149670000Y-79682500I0J-147500D01*
G01*
X149670000Y-79977500D01*
G75*
G02*
X149522500Y-80125000I-147500J0D01*
G01*
X149177500Y-80125000D01*
G75*
G02*
X149030000Y-79977500I0J147500D01*
G01*
X149030000Y-79682500D01*
G75*
G02*
X149177500Y-79535000I147500J0D01*
G01*
G37*
G36*
G01*
X149177500Y-80505000D02*
X149522500Y-80505000D01*
G75*
G02*
X149670000Y-80652500I0J-147500D01*
G01*
X149670000Y-80947500D01*
G75*
G02*
X149522500Y-81095000I-147500J0D01*
G01*
X149177500Y-81095000D01*
G75*
G02*
X149030000Y-80947500I0J147500D01*
G01*
X149030000Y-80652500D01*
G75*
G02*
X149177500Y-80505000I147500J0D01*
G01*
G37*
%TD*%
%TO.C,R37*%
G36*
G01*
X136227500Y-81505000D02*
X136572500Y-81505000D01*
G75*
G02*
X136720000Y-81652500I0J-147500D01*
G01*
X136720000Y-81947500D01*
G75*
G02*
X136572500Y-82095000I-147500J0D01*
G01*
X136227500Y-82095000D01*
G75*
G02*
X136080000Y-81947500I0J147500D01*
G01*
X136080000Y-81652500D01*
G75*
G02*
X136227500Y-81505000I147500J0D01*
G01*
G37*
G36*
G01*
X136227500Y-80535000D02*
X136572500Y-80535000D01*
G75*
G02*
X136720000Y-80682500I0J-147500D01*
G01*
X136720000Y-80977500D01*
G75*
G02*
X136572500Y-81125000I-147500J0D01*
G01*
X136227500Y-81125000D01*
G75*
G02*
X136080000Y-80977500I0J147500D01*
G01*
X136080000Y-80682500D01*
G75*
G02*
X136227500Y-80535000I147500J0D01*
G01*
G37*
%TD*%
%TO.C,R40*%
G36*
G01*
X158422500Y-100630000D02*
X158077500Y-100630000D01*
G75*
G02*
X157930000Y-100482500I0J147500D01*
G01*
X157930000Y-100187500D01*
G75*
G02*
X158077500Y-100040000I147500J0D01*
G01*
X158422500Y-100040000D01*
G75*
G02*
X158570000Y-100187500I0J-147500D01*
G01*
X158570000Y-100482500D01*
G75*
G02*
X158422500Y-100630000I-147500J0D01*
G01*
G37*
G36*
G01*
X158422500Y-99660000D02*
X158077500Y-99660000D01*
G75*
G02*
X157930000Y-99512500I0J147500D01*
G01*
X157930000Y-99217500D01*
G75*
G02*
X158077500Y-99070000I147500J0D01*
G01*
X158422500Y-99070000D01*
G75*
G02*
X158570000Y-99217500I0J-147500D01*
G01*
X158570000Y-99512500D01*
G75*
G02*
X158422500Y-99660000I-147500J0D01*
G01*
G37*
%TD*%
%TO.C,R41*%
G36*
G01*
X152027500Y-90805000D02*
X152372500Y-90805000D01*
G75*
G02*
X152520000Y-90952500I0J-147500D01*
G01*
X152520000Y-91247500D01*
G75*
G02*
X152372500Y-91395000I-147500J0D01*
G01*
X152027500Y-91395000D01*
G75*
G02*
X151880000Y-91247500I0J147500D01*
G01*
X151880000Y-90952500D01*
G75*
G02*
X152027500Y-90805000I147500J0D01*
G01*
G37*
G36*
G01*
X152027500Y-91775000D02*
X152372500Y-91775000D01*
G75*
G02*
X152520000Y-91922500I0J-147500D01*
G01*
X152520000Y-92217500D01*
G75*
G02*
X152372500Y-92365000I-147500J0D01*
G01*
X152027500Y-92365000D01*
G75*
G02*
X151880000Y-92217500I0J147500D01*
G01*
X151880000Y-91922500D01*
G75*
G02*
X152027500Y-91775000I147500J0D01*
G01*
G37*
%TD*%
%TO.C,R42*%
G36*
G01*
X135810000Y-88327500D02*
X135810000Y-88672500D01*
G75*
G02*
X135662500Y-88820000I-147500J0D01*
G01*
X135367500Y-88820000D01*
G75*
G02*
X135220000Y-88672500I0J147500D01*
G01*
X135220000Y-88327500D01*
G75*
G02*
X135367500Y-88180000I147500J0D01*
G01*
X135662500Y-88180000D01*
G75*
G02*
X135810000Y-88327500I0J-147500D01*
G01*
G37*
G36*
G01*
X136780000Y-88327500D02*
X136780000Y-88672500D01*
G75*
G02*
X136632500Y-88820000I-147500J0D01*
G01*
X136337500Y-88820000D01*
G75*
G02*
X136190000Y-88672500I0J147500D01*
G01*
X136190000Y-88327500D01*
G75*
G02*
X136337500Y-88180000I147500J0D01*
G01*
X136632500Y-88180000D01*
G75*
G02*
X136780000Y-88327500I0J-147500D01*
G01*
G37*
%TD*%
%TO.C,R43*%
G36*
G01*
X157022500Y-93875000D02*
X156677500Y-93875000D01*
G75*
G02*
X156530000Y-93727500I0J147500D01*
G01*
X156530000Y-93432500D01*
G75*
G02*
X156677500Y-93285000I147500J0D01*
G01*
X157022500Y-93285000D01*
G75*
G02*
X157170000Y-93432500I0J-147500D01*
G01*
X157170000Y-93727500D01*
G75*
G02*
X157022500Y-93875000I-147500J0D01*
G01*
G37*
G36*
G01*
X157022500Y-94845000D02*
X156677500Y-94845000D01*
G75*
G02*
X156530000Y-94697500I0J147500D01*
G01*
X156530000Y-94402500D01*
G75*
G02*
X156677500Y-94255000I147500J0D01*
G01*
X157022500Y-94255000D01*
G75*
G02*
X157170000Y-94402500I0J-147500D01*
G01*
X157170000Y-94697500D01*
G75*
G02*
X157022500Y-94845000I-147500J0D01*
G01*
G37*
%TD*%
%TO.C,R44*%
G36*
G01*
X157022500Y-99660000D02*
X156677500Y-99660000D01*
G75*
G02*
X156530000Y-99512500I0J147500D01*
G01*
X156530000Y-99217500D01*
G75*
G02*
X156677500Y-99070000I147500J0D01*
G01*
X157022500Y-99070000D01*
G75*
G02*
X157170000Y-99217500I0J-147500D01*
G01*
X157170000Y-99512500D01*
G75*
G02*
X157022500Y-99660000I-147500J0D01*
G01*
G37*
G36*
G01*
X157022500Y-100630000D02*
X156677500Y-100630000D01*
G75*
G02*
X156530000Y-100482500I0J147500D01*
G01*
X156530000Y-100187500D01*
G75*
G02*
X156677500Y-100040000I147500J0D01*
G01*
X157022500Y-100040000D01*
G75*
G02*
X157170000Y-100187500I0J-147500D01*
G01*
X157170000Y-100482500D01*
G75*
G02*
X157022500Y-100630000I-147500J0D01*
G01*
G37*
%TD*%
%TO.C,R45*%
G36*
G01*
X137400000Y-86093750D02*
X137400000Y-87006250D01*
G75*
G02*
X137156250Y-87250000I-243750J0D01*
G01*
X136668750Y-87250000D01*
G75*
G02*
X136425000Y-87006250I0J243750D01*
G01*
X136425000Y-86093750D01*
G75*
G02*
X136668750Y-85850000I243750J0D01*
G01*
X137156250Y-85850000D01*
G75*
G02*
X137400000Y-86093750I0J-243750D01*
G01*
G37*
G36*
G01*
X139275000Y-86093750D02*
X139275000Y-87006250D01*
G75*
G02*
X139031250Y-87250000I-243750J0D01*
G01*
X138543750Y-87250000D01*
G75*
G02*
X138300000Y-87006250I0J243750D01*
G01*
X138300000Y-86093750D01*
G75*
G02*
X138543750Y-85850000I243750J0D01*
G01*
X139031250Y-85850000D01*
G75*
G02*
X139275000Y-86093750I0J-243750D01*
G01*
G37*
%TD*%
%TO.C,R48*%
G36*
G01*
X158422500Y-94830000D02*
X158077500Y-94830000D01*
G75*
G02*
X157930000Y-94682500I0J147500D01*
G01*
X157930000Y-94387500D01*
G75*
G02*
X158077500Y-94240000I147500J0D01*
G01*
X158422500Y-94240000D01*
G75*
G02*
X158570000Y-94387500I0J-147500D01*
G01*
X158570000Y-94682500D01*
G75*
G02*
X158422500Y-94830000I-147500J0D01*
G01*
G37*
G36*
G01*
X158422500Y-93860000D02*
X158077500Y-93860000D01*
G75*
G02*
X157930000Y-93712500I0J147500D01*
G01*
X157930000Y-93417500D01*
G75*
G02*
X158077500Y-93270000I147500J0D01*
G01*
X158422500Y-93270000D01*
G75*
G02*
X158570000Y-93417500I0J-147500D01*
G01*
X158570000Y-93712500D01*
G75*
G02*
X158422500Y-93860000I-147500J0D01*
G01*
G37*
%TD*%
%TO.C,C36*%
G36*
G01*
X116290000Y-72657500D02*
X116290000Y-72182500D01*
G75*
G02*
X116527500Y-71945000I237500J0D01*
G01*
X117102500Y-71945000D01*
G75*
G02*
X117340000Y-72182500I0J-237500D01*
G01*
X117340000Y-72657500D01*
G75*
G02*
X117102500Y-72895000I-237500J0D01*
G01*
X116527500Y-72895000D01*
G75*
G02*
X116290000Y-72657500I0J237500D01*
G01*
G37*
G36*
G01*
X114540000Y-72657500D02*
X114540000Y-72182500D01*
G75*
G02*
X114777500Y-71945000I237500J0D01*
G01*
X115352500Y-71945000D01*
G75*
G02*
X115590000Y-72182500I0J-237500D01*
G01*
X115590000Y-72657500D01*
G75*
G02*
X115352500Y-72895000I-237500J0D01*
G01*
X114777500Y-72895000D01*
G75*
G02*
X114540000Y-72657500I0J237500D01*
G01*
G37*
%TD*%
%TO.C,C45*%
G36*
G01*
X111615000Y-78457500D02*
X111615000Y-77982500D01*
G75*
G02*
X111852500Y-77745000I237500J0D01*
G01*
X112427500Y-77745000D01*
G75*
G02*
X112665000Y-77982500I0J-237500D01*
G01*
X112665000Y-78457500D01*
G75*
G02*
X112427500Y-78695000I-237500J0D01*
G01*
X111852500Y-78695000D01*
G75*
G02*
X111615000Y-78457500I0J237500D01*
G01*
G37*
G36*
G01*
X113365000Y-78457500D02*
X113365000Y-77982500D01*
G75*
G02*
X113602500Y-77745000I237500J0D01*
G01*
X114177500Y-77745000D01*
G75*
G02*
X114415000Y-77982500I0J-237500D01*
G01*
X114415000Y-78457500D01*
G75*
G02*
X114177500Y-78695000I-237500J0D01*
G01*
X113602500Y-78695000D01*
G75*
G02*
X113365000Y-78457500I0J237500D01*
G01*
G37*
%TD*%
%TO.C,C46*%
G36*
G01*
X110690000Y-73382500D02*
X110690000Y-73857500D01*
G75*
G02*
X110452500Y-74095000I-237500J0D01*
G01*
X109877500Y-74095000D01*
G75*
G02*
X109640000Y-73857500I0J237500D01*
G01*
X109640000Y-73382500D01*
G75*
G02*
X109877500Y-73145000I237500J0D01*
G01*
X110452500Y-73145000D01*
G75*
G02*
X110690000Y-73382500I0J-237500D01*
G01*
G37*
G36*
G01*
X112440000Y-73382500D02*
X112440000Y-73857500D01*
G75*
G02*
X112202500Y-74095000I-237500J0D01*
G01*
X111627500Y-74095000D01*
G75*
G02*
X111390000Y-73857500I0J237500D01*
G01*
X111390000Y-73382500D01*
G75*
G02*
X111627500Y-73145000I237500J0D01*
G01*
X112202500Y-73145000D01*
G75*
G02*
X112440000Y-73382500I0J-237500D01*
G01*
G37*
%TD*%
%TO.C,C47*%
G36*
G01*
X112440000Y-71882500D02*
X112440000Y-72357500D01*
G75*
G02*
X112202500Y-72595000I-237500J0D01*
G01*
X111627500Y-72595000D01*
G75*
G02*
X111390000Y-72357500I0J237500D01*
G01*
X111390000Y-71882500D01*
G75*
G02*
X111627500Y-71645000I237500J0D01*
G01*
X112202500Y-71645000D01*
G75*
G02*
X112440000Y-71882500I0J-237500D01*
G01*
G37*
G36*
G01*
X110690000Y-71882500D02*
X110690000Y-72357500D01*
G75*
G02*
X110452500Y-72595000I-237500J0D01*
G01*
X109877500Y-72595000D01*
G75*
G02*
X109640000Y-72357500I0J237500D01*
G01*
X109640000Y-71882500D01*
G75*
G02*
X109877500Y-71645000I237500J0D01*
G01*
X110452500Y-71645000D01*
G75*
G02*
X110690000Y-71882500I0J-237500D01*
G01*
G37*
%TD*%
%TO.C,L2*%
G36*
G01*
X112700000Y-74870000D02*
X112700000Y-76570000D01*
G75*
G02*
X112450000Y-76820000I-250000J0D01*
G01*
X111700000Y-76820000D01*
G75*
G02*
X111450000Y-76570000I0J250000D01*
G01*
X111450000Y-74870000D01*
G75*
G02*
X111700000Y-74620000I250000J0D01*
G01*
X112450000Y-74620000D01*
G75*
G02*
X112700000Y-74870000I0J-250000D01*
G01*
G37*
G36*
G01*
X110550000Y-74870000D02*
X110550000Y-76570000D01*
G75*
G02*
X110300000Y-76820000I-250000J0D01*
G01*
X109550000Y-76820000D01*
G75*
G02*
X109300000Y-76570000I0J250000D01*
G01*
X109300000Y-74870000D01*
G75*
G02*
X109550000Y-74620000I250000J0D01*
G01*
X110300000Y-74620000D01*
G75*
G02*
X110550000Y-74870000I0J-250000D01*
G01*
G37*
%TD*%
D24*
%TO.C,U2*%
X116760000Y-76270000D03*
X116760000Y-75320000D03*
X116760000Y-74370000D03*
X114140000Y-74370000D03*
X114140000Y-75320000D03*
X114140000Y-76270000D03*
%TD*%
%TO.C,C48*%
G36*
G01*
X118045000Y-68327500D02*
X118045000Y-68672500D01*
G75*
G02*
X117897500Y-68820000I-147500J0D01*
G01*
X117602500Y-68820000D01*
G75*
G02*
X117455000Y-68672500I0J147500D01*
G01*
X117455000Y-68327500D01*
G75*
G02*
X117602500Y-68180000I147500J0D01*
G01*
X117897500Y-68180000D01*
G75*
G02*
X118045000Y-68327500I0J-147500D01*
G01*
G37*
G36*
G01*
X117075000Y-68327500D02*
X117075000Y-68672500D01*
G75*
G02*
X116927500Y-68820000I-147500J0D01*
G01*
X116632500Y-68820000D01*
G75*
G02*
X116485000Y-68672500I0J147500D01*
G01*
X116485000Y-68327500D01*
G75*
G02*
X116632500Y-68180000I147500J0D01*
G01*
X116927500Y-68180000D01*
G75*
G02*
X117075000Y-68327500I0J-147500D01*
G01*
G37*
%TD*%
%TO.C,R17*%
G36*
G01*
X112955000Y-68672500D02*
X112955000Y-68327500D01*
G75*
G02*
X113102500Y-68180000I147500J0D01*
G01*
X113397500Y-68180000D01*
G75*
G02*
X113545000Y-68327500I0J-147500D01*
G01*
X113545000Y-68672500D01*
G75*
G02*
X113397500Y-68820000I-147500J0D01*
G01*
X113102500Y-68820000D01*
G75*
G02*
X112955000Y-68672500I0J147500D01*
G01*
G37*
G36*
G01*
X111985000Y-68672500D02*
X111985000Y-68327500D01*
G75*
G02*
X112132500Y-68180000I147500J0D01*
G01*
X112427500Y-68180000D01*
G75*
G02*
X112575000Y-68327500I0J-147500D01*
G01*
X112575000Y-68672500D01*
G75*
G02*
X112427500Y-68820000I-147500J0D01*
G01*
X112132500Y-68820000D01*
G75*
G02*
X111985000Y-68672500I0J147500D01*
G01*
G37*
%TD*%
%TO.C,R19*%
G36*
G01*
X111077500Y-67235000D02*
X111422500Y-67235000D01*
G75*
G02*
X111570000Y-67382500I0J-147500D01*
G01*
X111570000Y-67677500D01*
G75*
G02*
X111422500Y-67825000I-147500J0D01*
G01*
X111077500Y-67825000D01*
G75*
G02*
X110930000Y-67677500I0J147500D01*
G01*
X110930000Y-67382500D01*
G75*
G02*
X111077500Y-67235000I147500J0D01*
G01*
G37*
G36*
G01*
X111077500Y-68205000D02*
X111422500Y-68205000D01*
G75*
G02*
X111570000Y-68352500I0J-147500D01*
G01*
X111570000Y-68647500D01*
G75*
G02*
X111422500Y-68795000I-147500J0D01*
G01*
X111077500Y-68795000D01*
G75*
G02*
X110930000Y-68647500I0J147500D01*
G01*
X110930000Y-68352500D01*
G75*
G02*
X111077500Y-68205000I147500J0D01*
G01*
G37*
%TD*%
%TO.C,R22*%
G36*
G01*
X114455000Y-68672500D02*
X114455000Y-68327500D01*
G75*
G02*
X114602500Y-68180000I147500J0D01*
G01*
X114897500Y-68180000D01*
G75*
G02*
X115045000Y-68327500I0J-147500D01*
G01*
X115045000Y-68672500D01*
G75*
G02*
X114897500Y-68820000I-147500J0D01*
G01*
X114602500Y-68820000D01*
G75*
G02*
X114455000Y-68672500I0J147500D01*
G01*
G37*
G36*
G01*
X115425000Y-68672500D02*
X115425000Y-68327500D01*
G75*
G02*
X115572500Y-68180000I147500J0D01*
G01*
X115867500Y-68180000D01*
G75*
G02*
X116015000Y-68327500I0J-147500D01*
G01*
X116015000Y-68672500D01*
G75*
G02*
X115867500Y-68820000I-147500J0D01*
G01*
X115572500Y-68820000D01*
G75*
G02*
X115425000Y-68672500I0J147500D01*
G01*
G37*
%TD*%
M02*
