%TF.GenerationSoftware,KiCad,Pcbnew,(5.1.6)-1*%
%TF.CreationDate,2020-09-22T17:38:13-04:00*%
%TF.ProjectId,wireless_charger,77697265-6c65-4737-935f-636861726765,rev?*%
%TF.SameCoordinates,Original*%
%TF.FileFunction,Soldermask,Top*%
%TF.FilePolarity,Negative*%
%FSLAX46Y46*%
G04 Gerber Fmt 4.6, Leading zero omitted, Abs format (unit mm)*
G04 Created by KiCad (PCBNEW (5.1.6)-1) date 2020-09-22 17:38:13*
%MOMM*%
%LPD*%
G01*
G04 APERTURE LIST*
%ADD10C,0.010000*%
%ADD11R,1.160000X0.750000*%
%ADD12R,0.900000X1.000000*%
%ADD13O,1.800000X1.800000*%
%ADD14R,1.800000X1.800000*%
%ADD15R,1.000000X1.300000*%
%ADD16R,2.475000X1.800000*%
%ADD17R,0.520000X0.800000*%
%ADD18R,0.520000X0.640000*%
%ADD19R,0.910000X0.320000*%
%ADD20R,0.320000X0.910000*%
%ADD21R,4.300000X4.300000*%
%ADD22R,1.300000X1.000000*%
%ADD23O,2.600000X5.100000*%
%ADD24O,2.350000X4.600000*%
%ADD25O,4.600000X2.350000*%
%ADD26C,1.600000*%
%ADD27R,1.000000X0.900000*%
%ADD28R,0.400000X0.450000*%
%ADD29R,0.335000X0.970000*%
%ADD30C,0.100000*%
%ADD31R,1.320000X0.750000*%
G04 APERTURE END LIST*
D10*
%TO.C,Q4*%
G36*
X131065000Y-87600000D02*
G01*
X131065000Y-85690000D01*
X133635000Y-85690000D01*
X133635000Y-87600000D01*
X131065000Y-87600000D01*
G37*
X131065000Y-87600000D02*
X131065000Y-85690000D01*
X133635000Y-85690000D01*
X133635000Y-87600000D01*
X131065000Y-87600000D01*
%TO.C,Q3*%
G36*
X147115000Y-87600000D02*
G01*
X147115000Y-85690000D01*
X149685000Y-85690000D01*
X149685000Y-87600000D01*
X147115000Y-87600000D01*
G37*
X147115000Y-87600000D02*
X147115000Y-85690000D01*
X149685000Y-85690000D01*
X149685000Y-87600000D01*
X147115000Y-87600000D01*
%TO.C,Q2*%
G36*
X142735000Y-86600000D02*
G01*
X142735000Y-88510000D01*
X140165000Y-88510000D01*
X140165000Y-86600000D01*
X142735000Y-86600000D01*
G37*
X142735000Y-86600000D02*
X142735000Y-88510000D01*
X140165000Y-88510000D01*
X140165000Y-86600000D01*
X142735000Y-86600000D01*
%TO.C,Q1*%
G36*
X126685000Y-86550000D02*
G01*
X126685000Y-88460000D01*
X124115000Y-88460000D01*
X124115000Y-86550000D01*
X126685000Y-86550000D01*
G37*
X126685000Y-86550000D02*
X126685000Y-88460000D01*
X124115000Y-88460000D01*
X124115000Y-86550000D01*
X126685000Y-86550000D01*
%TD*%
%TO.C,TH1*%
G36*
G01*
X149212500Y-77981250D02*
X149212500Y-77018750D01*
G75*
G02*
X149481250Y-76750000I268750J0D01*
G01*
X150018750Y-76750000D01*
G75*
G02*
X150287500Y-77018750I0J-268750D01*
G01*
X150287500Y-77981250D01*
G75*
G02*
X150018750Y-78250000I-268750J0D01*
G01*
X149481250Y-78250000D01*
G75*
G02*
X149212500Y-77981250I0J268750D01*
G01*
G37*
G36*
G01*
X147337500Y-77981250D02*
X147337500Y-77018750D01*
G75*
G02*
X147606250Y-76750000I268750J0D01*
G01*
X148143750Y-76750000D01*
G75*
G02*
X148412500Y-77018750I0J-268750D01*
G01*
X148412500Y-77981250D01*
G75*
G02*
X148143750Y-78250000I-268750J0D01*
G01*
X147606250Y-78250000D01*
G75*
G02*
X147337500Y-77981250I0J268750D01*
G01*
G37*
%TD*%
D11*
%TO.C,U3*%
X115200000Y-65100000D03*
X115200000Y-67000000D03*
X113000000Y-67000000D03*
X113000000Y-66050000D03*
X113000000Y-65100000D03*
%TD*%
%TO.C,R9*%
G36*
G01*
X117397500Y-66360000D02*
X117002500Y-66360000D01*
G75*
G02*
X116830000Y-66187500I0J172500D01*
G01*
X116830000Y-65842500D01*
G75*
G02*
X117002500Y-65670000I172500J0D01*
G01*
X117397500Y-65670000D01*
G75*
G02*
X117570000Y-65842500I0J-172500D01*
G01*
X117570000Y-66187500D01*
G75*
G02*
X117397500Y-66360000I-172500J0D01*
G01*
G37*
G36*
G01*
X117397500Y-67330000D02*
X117002500Y-67330000D01*
G75*
G02*
X116830000Y-67157500I0J172500D01*
G01*
X116830000Y-66812500D01*
G75*
G02*
X117002500Y-66640000I172500J0D01*
G01*
X117397500Y-66640000D01*
G75*
G02*
X117570000Y-66812500I0J-172500D01*
G01*
X117570000Y-67157500D01*
G75*
G02*
X117397500Y-67330000I-172500J0D01*
G01*
G37*
%TD*%
D12*
%TO.C,Q9*%
X118200000Y-62000000D03*
X119150000Y-64000000D03*
X117250000Y-64000000D03*
%TD*%
D13*
%TO.C,Fan_12V1*%
X120740000Y-59350000D03*
D14*
X118200000Y-59350000D03*
%TD*%
D15*
%TO.C,D3*%
X117700000Y-56250000D03*
X121000000Y-56250000D03*
%TD*%
%TO.C,R5*%
G36*
G01*
X111330000Y-86002500D02*
X111330000Y-86397500D01*
G75*
G02*
X111157500Y-86570000I-172500J0D01*
G01*
X110812500Y-86570000D01*
G75*
G02*
X110640000Y-86397500I0J172500D01*
G01*
X110640000Y-86002500D01*
G75*
G02*
X110812500Y-85830000I172500J0D01*
G01*
X111157500Y-85830000D01*
G75*
G02*
X111330000Y-86002500I0J-172500D01*
G01*
G37*
G36*
G01*
X110360000Y-86002500D02*
X110360000Y-86397500D01*
G75*
G02*
X110187500Y-86570000I-172500J0D01*
G01*
X109842500Y-86570000D01*
G75*
G02*
X109670000Y-86397500I0J172500D01*
G01*
X109670000Y-86002500D01*
G75*
G02*
X109842500Y-85830000I172500J0D01*
G01*
X110187500Y-85830000D01*
G75*
G02*
X110360000Y-86002500I0J-172500D01*
G01*
G37*
%TD*%
%TO.C,R2*%
G36*
G01*
X110360000Y-87002500D02*
X110360000Y-87397500D01*
G75*
G02*
X110187500Y-87570000I-172500J0D01*
G01*
X109842500Y-87570000D01*
G75*
G02*
X109670000Y-87397500I0J172500D01*
G01*
X109670000Y-87002500D01*
G75*
G02*
X109842500Y-86830000I172500J0D01*
G01*
X110187500Y-86830000D01*
G75*
G02*
X110360000Y-87002500I0J-172500D01*
G01*
G37*
G36*
G01*
X111330000Y-87002500D02*
X111330000Y-87397500D01*
G75*
G02*
X111157500Y-87570000I-172500J0D01*
G01*
X110812500Y-87570000D01*
G75*
G02*
X110640000Y-87397500I0J172500D01*
G01*
X110640000Y-87002500D01*
G75*
G02*
X110812500Y-86830000I172500J0D01*
G01*
X111157500Y-86830000D01*
G75*
G02*
X111330000Y-87002500I0J-172500D01*
G01*
G37*
%TD*%
D16*
%TO.C,Q4*%
X132350000Y-86650000D03*
D17*
X133325000Y-88600000D03*
X132675000Y-88600000D03*
X132025000Y-88600000D03*
X131375000Y-88600000D03*
D18*
X131375000Y-85520000D03*
X132025000Y-85520000D03*
X132675000Y-85520000D03*
X133325000Y-85520000D03*
%TD*%
D16*
%TO.C,Q3*%
X148400000Y-86650000D03*
D17*
X149375000Y-88600000D03*
X148725000Y-88600000D03*
X148075000Y-88600000D03*
X147425000Y-88600000D03*
D18*
X147425000Y-85520000D03*
X148075000Y-85520000D03*
X148725000Y-85520000D03*
X149375000Y-85520000D03*
%TD*%
D16*
%TO.C,Q2*%
X141450000Y-87550000D03*
D17*
X140475000Y-85600000D03*
X141125000Y-85600000D03*
X141775000Y-85600000D03*
X142425000Y-85600000D03*
D18*
X142425000Y-88680000D03*
X141775000Y-88680000D03*
X141125000Y-88680000D03*
X140475000Y-88680000D03*
%TD*%
D16*
%TO.C,Q1*%
X125400000Y-87500000D03*
D17*
X124425000Y-85550000D03*
X125075000Y-85550000D03*
X125725000Y-85550000D03*
X126375000Y-85550000D03*
D18*
X126375000Y-88630000D03*
X125725000Y-88630000D03*
X125075000Y-88630000D03*
X124425000Y-88630000D03*
%TD*%
%TO.C,C34*%
G36*
G01*
X136447500Y-92775000D02*
X136052500Y-92775000D01*
G75*
G02*
X135880000Y-92602500I0J172500D01*
G01*
X135880000Y-92257500D01*
G75*
G02*
X136052500Y-92085000I172500J0D01*
G01*
X136447500Y-92085000D01*
G75*
G02*
X136620000Y-92257500I0J-172500D01*
G01*
X136620000Y-92602500D01*
G75*
G02*
X136447500Y-92775000I-172500J0D01*
G01*
G37*
G36*
G01*
X136447500Y-93745000D02*
X136052500Y-93745000D01*
G75*
G02*
X135880000Y-93572500I0J172500D01*
G01*
X135880000Y-93227500D01*
G75*
G02*
X136052500Y-93055000I172500J0D01*
G01*
X136447500Y-93055000D01*
G75*
G02*
X136620000Y-93227500I0J-172500D01*
G01*
X136620000Y-93572500D01*
G75*
G02*
X136447500Y-93745000I-172500J0D01*
G01*
G37*
%TD*%
%TO.C,C6*%
G36*
G01*
X141547500Y-102160000D02*
X141152500Y-102160000D01*
G75*
G02*
X140980000Y-101987500I0J172500D01*
G01*
X140980000Y-101642500D01*
G75*
G02*
X141152500Y-101470000I172500J0D01*
G01*
X141547500Y-101470000D01*
G75*
G02*
X141720000Y-101642500I0J-172500D01*
G01*
X141720000Y-101987500D01*
G75*
G02*
X141547500Y-102160000I-172500J0D01*
G01*
G37*
G36*
G01*
X141547500Y-103130000D02*
X141152500Y-103130000D01*
G75*
G02*
X140980000Y-102957500I0J172500D01*
G01*
X140980000Y-102612500D01*
G75*
G02*
X141152500Y-102440000I172500J0D01*
G01*
X141547500Y-102440000D01*
G75*
G02*
X141720000Y-102612500I0J-172500D01*
G01*
X141720000Y-102957500D01*
G75*
G02*
X141547500Y-103130000I-172500J0D01*
G01*
G37*
%TD*%
%TO.C,C7*%
G36*
G01*
X128147500Y-102930000D02*
X127752500Y-102930000D01*
G75*
G02*
X127580000Y-102757500I0J172500D01*
G01*
X127580000Y-102412500D01*
G75*
G02*
X127752500Y-102240000I172500J0D01*
G01*
X128147500Y-102240000D01*
G75*
G02*
X128320000Y-102412500I0J-172500D01*
G01*
X128320000Y-102757500D01*
G75*
G02*
X128147500Y-102930000I-172500J0D01*
G01*
G37*
G36*
G01*
X128147500Y-101960000D02*
X127752500Y-101960000D01*
G75*
G02*
X127580000Y-101787500I0J172500D01*
G01*
X127580000Y-101442500D01*
G75*
G02*
X127752500Y-101270000I172500J0D01*
G01*
X128147500Y-101270000D01*
G75*
G02*
X128320000Y-101442500I0J-172500D01*
G01*
X128320000Y-101787500D01*
G75*
G02*
X128147500Y-101960000I-172500J0D01*
G01*
G37*
%TD*%
D19*
%TO.C,U1*%
X139150000Y-99850000D03*
X139150000Y-99450000D03*
X139150000Y-99050000D03*
X139150000Y-98650000D03*
X139150000Y-98250000D03*
X139150000Y-97850000D03*
X139150000Y-97450000D03*
X139150000Y-97050000D03*
X139150000Y-96650000D03*
X139150000Y-96250000D03*
X139150000Y-95850000D03*
X139150000Y-95450000D03*
X133250000Y-95450000D03*
X133250000Y-95850000D03*
X133250000Y-96250000D03*
X133250000Y-96650000D03*
X133250000Y-97050000D03*
X133250000Y-97450000D03*
X133250000Y-97850000D03*
X133250000Y-98250000D03*
X133250000Y-98650000D03*
X133250000Y-99050000D03*
X133250000Y-99450000D03*
X133250000Y-99850000D03*
D20*
X134000000Y-100600000D03*
X134400000Y-100600000D03*
X134800000Y-100600000D03*
X135200000Y-100600000D03*
X135600000Y-100600000D03*
X136000000Y-100600000D03*
X136400000Y-100600000D03*
X136800000Y-100600000D03*
X137200000Y-100600000D03*
X137600000Y-100600000D03*
X138000000Y-100600000D03*
X138400000Y-100600000D03*
X138400000Y-94700000D03*
X138000000Y-94700000D03*
X137600000Y-94700000D03*
X137200000Y-94700000D03*
X136800000Y-94700000D03*
X136400000Y-94700000D03*
X136000000Y-94700000D03*
X135600000Y-94700000D03*
X135200000Y-94700000D03*
X134800000Y-94700000D03*
X134400000Y-94700000D03*
X134000000Y-94700000D03*
D21*
X136200000Y-97650000D03*
%TD*%
%TO.C,C29*%
G36*
G01*
X127305000Y-95997500D02*
X127305000Y-95602500D01*
G75*
G02*
X127477500Y-95430000I172500J0D01*
G01*
X127822500Y-95430000D01*
G75*
G02*
X127995000Y-95602500I0J-172500D01*
G01*
X127995000Y-95997500D01*
G75*
G02*
X127822500Y-96170000I-172500J0D01*
G01*
X127477500Y-96170000D01*
G75*
G02*
X127305000Y-95997500I0J172500D01*
G01*
G37*
G36*
G01*
X126335000Y-95997500D02*
X126335000Y-95602500D01*
G75*
G02*
X126507500Y-95430000I172500J0D01*
G01*
X126852500Y-95430000D01*
G75*
G02*
X127025000Y-95602500I0J-172500D01*
G01*
X127025000Y-95997500D01*
G75*
G02*
X126852500Y-96170000I-172500J0D01*
G01*
X126507500Y-96170000D01*
G75*
G02*
X126335000Y-95997500I0J172500D01*
G01*
G37*
%TD*%
%TO.C,R33*%
G36*
G01*
X144512500Y-83068750D02*
X144512500Y-84031250D01*
G75*
G02*
X144243750Y-84300000I-268750J0D01*
G01*
X143706250Y-84300000D01*
G75*
G02*
X143437500Y-84031250I0J268750D01*
G01*
X143437500Y-83068750D01*
G75*
G02*
X143706250Y-82800000I268750J0D01*
G01*
X144243750Y-82800000D01*
G75*
G02*
X144512500Y-83068750I0J-268750D01*
G01*
G37*
G36*
G01*
X146387500Y-83068750D02*
X146387500Y-84031250D01*
G75*
G02*
X146118750Y-84300000I-268750J0D01*
G01*
X145581250Y-84300000D01*
G75*
G02*
X145312500Y-84031250I0J268750D01*
G01*
X145312500Y-83068750D01*
G75*
G02*
X145581250Y-82800000I268750J0D01*
G01*
X146118750Y-82800000D01*
G75*
G02*
X146387500Y-83068750I0J-268750D01*
G01*
G37*
%TD*%
%TO.C,C1*%
G36*
G01*
X145730000Y-85102500D02*
X145730000Y-85497500D01*
G75*
G02*
X145557500Y-85670000I-172500J0D01*
G01*
X145212500Y-85670000D01*
G75*
G02*
X145040000Y-85497500I0J172500D01*
G01*
X145040000Y-85102500D01*
G75*
G02*
X145212500Y-84930000I172500J0D01*
G01*
X145557500Y-84930000D01*
G75*
G02*
X145730000Y-85102500I0J-172500D01*
G01*
G37*
G36*
G01*
X144760000Y-85102500D02*
X144760000Y-85497500D01*
G75*
G02*
X144587500Y-85670000I-172500J0D01*
G01*
X144242500Y-85670000D01*
G75*
G02*
X144070000Y-85497500I0J172500D01*
G01*
X144070000Y-85102500D01*
G75*
G02*
X144242500Y-84930000I172500J0D01*
G01*
X144587500Y-84930000D01*
G75*
G02*
X144760000Y-85102500I0J-172500D01*
G01*
G37*
%TD*%
%TO.C,C2*%
G36*
G01*
X120083062Y-102072410D02*
X120362370Y-102351717D01*
G75*
G02*
X120362370Y-102595669I-121976J-121976D01*
G01*
X120118418Y-102839621D01*
G75*
G02*
X119874466Y-102839621I-121976J121976D01*
G01*
X119595158Y-102560313D01*
G75*
G02*
X119595158Y-102316361I121976J121976D01*
G01*
X119839110Y-102072409D01*
G75*
G02*
X120083062Y-102072409I121976J-121976D01*
G01*
G37*
G36*
G01*
X119397168Y-102758304D02*
X119676476Y-103037611D01*
G75*
G02*
X119676476Y-103281563I-121976J-121976D01*
G01*
X119432524Y-103525515D01*
G75*
G02*
X119188572Y-103525515I-121976J121976D01*
G01*
X118909264Y-103246207D01*
G75*
G02*
X118909264Y-103002255I121976J121976D01*
G01*
X119153216Y-102758303D01*
G75*
G02*
X119397168Y-102758303I121976J-121976D01*
G01*
G37*
%TD*%
%TO.C,C3*%
G36*
G01*
X128745000Y-85102500D02*
X128745000Y-85497500D01*
G75*
G02*
X128572500Y-85670000I-172500J0D01*
G01*
X128227500Y-85670000D01*
G75*
G02*
X128055000Y-85497500I0J172500D01*
G01*
X128055000Y-85102500D01*
G75*
G02*
X128227500Y-84930000I172500J0D01*
G01*
X128572500Y-84930000D01*
G75*
G02*
X128745000Y-85102500I0J-172500D01*
G01*
G37*
G36*
G01*
X129715000Y-85102500D02*
X129715000Y-85497500D01*
G75*
G02*
X129542500Y-85670000I-172500J0D01*
G01*
X129197500Y-85670000D01*
G75*
G02*
X129025000Y-85497500I0J172500D01*
G01*
X129025000Y-85102500D01*
G75*
G02*
X129197500Y-84930000I172500J0D01*
G01*
X129542500Y-84930000D01*
G75*
G02*
X129715000Y-85102500I0J-172500D01*
G01*
G37*
%TD*%
%TO.C,C4*%
G36*
G01*
X139352500Y-105240000D02*
X139747500Y-105240000D01*
G75*
G02*
X139920000Y-105412500I0J-172500D01*
G01*
X139920000Y-105757500D01*
G75*
G02*
X139747500Y-105930000I-172500J0D01*
G01*
X139352500Y-105930000D01*
G75*
G02*
X139180000Y-105757500I0J172500D01*
G01*
X139180000Y-105412500D01*
G75*
G02*
X139352500Y-105240000I172500J0D01*
G01*
G37*
G36*
G01*
X139352500Y-104270000D02*
X139747500Y-104270000D01*
G75*
G02*
X139920000Y-104442500I0J-172500D01*
G01*
X139920000Y-104787500D01*
G75*
G02*
X139747500Y-104960000I-172500J0D01*
G01*
X139352500Y-104960000D01*
G75*
G02*
X139180000Y-104787500I0J172500D01*
G01*
X139180000Y-104442500D01*
G75*
G02*
X139352500Y-104270000I172500J0D01*
G01*
G37*
%TD*%
%TO.C,C5*%
G36*
G01*
X140468750Y-103737500D02*
X141031250Y-103737500D01*
G75*
G02*
X141275000Y-103981250I0J-243750D01*
G01*
X141275000Y-104468750D01*
G75*
G02*
X141031250Y-104712500I-243750J0D01*
G01*
X140468750Y-104712500D01*
G75*
G02*
X140225000Y-104468750I0J243750D01*
G01*
X140225000Y-103981250D01*
G75*
G02*
X140468750Y-103737500I243750J0D01*
G01*
G37*
G36*
G01*
X140468750Y-105312500D02*
X141031250Y-105312500D01*
G75*
G02*
X141275000Y-105556250I0J-243750D01*
G01*
X141275000Y-106043750D01*
G75*
G02*
X141031250Y-106287500I-243750J0D01*
G01*
X140468750Y-106287500D01*
G75*
G02*
X140225000Y-106043750I0J243750D01*
G01*
X140225000Y-105556250D01*
G75*
G02*
X140468750Y-105312500I243750J0D01*
G01*
G37*
%TD*%
%TO.C,C8*%
G36*
G01*
X128780000Y-103402500D02*
X128780000Y-103797500D01*
G75*
G02*
X128607500Y-103970000I-172500J0D01*
G01*
X128262500Y-103970000D01*
G75*
G02*
X128090000Y-103797500I0J172500D01*
G01*
X128090000Y-103402500D01*
G75*
G02*
X128262500Y-103230000I172500J0D01*
G01*
X128607500Y-103230000D01*
G75*
G02*
X128780000Y-103402500I0J-172500D01*
G01*
G37*
G36*
G01*
X127810000Y-103402500D02*
X127810000Y-103797500D01*
G75*
G02*
X127637500Y-103970000I-172500J0D01*
G01*
X127292500Y-103970000D01*
G75*
G02*
X127120000Y-103797500I0J172500D01*
G01*
X127120000Y-103402500D01*
G75*
G02*
X127292500Y-103230000I172500J0D01*
G01*
X127637500Y-103230000D01*
G75*
G02*
X127810000Y-103402500I0J-172500D01*
G01*
G37*
%TD*%
%TO.C,C9*%
G36*
G01*
X130047500Y-102930000D02*
X129652500Y-102930000D01*
G75*
G02*
X129480000Y-102757500I0J172500D01*
G01*
X129480000Y-102412500D01*
G75*
G02*
X129652500Y-102240000I172500J0D01*
G01*
X130047500Y-102240000D01*
G75*
G02*
X130220000Y-102412500I0J-172500D01*
G01*
X130220000Y-102757500D01*
G75*
G02*
X130047500Y-102930000I-172500J0D01*
G01*
G37*
G36*
G01*
X130047500Y-101960000D02*
X129652500Y-101960000D01*
G75*
G02*
X129480000Y-101787500I0J172500D01*
G01*
X129480000Y-101442500D01*
G75*
G02*
X129652500Y-101270000I172500J0D01*
G01*
X130047500Y-101270000D01*
G75*
G02*
X130220000Y-101442500I0J-172500D01*
G01*
X130220000Y-101787500D01*
G75*
G02*
X130047500Y-101960000I-172500J0D01*
G01*
G37*
%TD*%
%TO.C,C10*%
G36*
G01*
X136118750Y-84300000D02*
X136681250Y-84300000D01*
G75*
G02*
X136925000Y-84543750I0J-243750D01*
G01*
X136925000Y-85031250D01*
G75*
G02*
X136681250Y-85275000I-243750J0D01*
G01*
X136118750Y-85275000D01*
G75*
G02*
X135875000Y-85031250I0J243750D01*
G01*
X135875000Y-84543750D01*
G75*
G02*
X136118750Y-84300000I243750J0D01*
G01*
G37*
G36*
G01*
X136118750Y-82725000D02*
X136681250Y-82725000D01*
G75*
G02*
X136925000Y-82968750I0J-243750D01*
G01*
X136925000Y-83456250D01*
G75*
G02*
X136681250Y-83700000I-243750J0D01*
G01*
X136118750Y-83700000D01*
G75*
G02*
X135875000Y-83456250I0J243750D01*
G01*
X135875000Y-82968750D01*
G75*
G02*
X136118750Y-82725000I243750J0D01*
G01*
G37*
%TD*%
%TO.C,C11*%
G36*
G01*
X149118750Y-83350000D02*
X149681250Y-83350000D01*
G75*
G02*
X149925000Y-83593750I0J-243750D01*
G01*
X149925000Y-84081250D01*
G75*
G02*
X149681250Y-84325000I-243750J0D01*
G01*
X149118750Y-84325000D01*
G75*
G02*
X148875000Y-84081250I0J243750D01*
G01*
X148875000Y-83593750D01*
G75*
G02*
X149118750Y-83350000I243750J0D01*
G01*
G37*
G36*
G01*
X149118750Y-81775000D02*
X149681250Y-81775000D01*
G75*
G02*
X149925000Y-82018750I0J-243750D01*
G01*
X149925000Y-82506250D01*
G75*
G02*
X149681250Y-82750000I-243750J0D01*
G01*
X149118750Y-82750000D01*
G75*
G02*
X148875000Y-82506250I0J243750D01*
G01*
X148875000Y-82018750D01*
G75*
G02*
X149118750Y-81775000I243750J0D01*
G01*
G37*
%TD*%
%TO.C,C12*%
G36*
G01*
X132645000Y-101652500D02*
X132645000Y-102047500D01*
G75*
G02*
X132472500Y-102220000I-172500J0D01*
G01*
X132127500Y-102220000D01*
G75*
G02*
X131955000Y-102047500I0J172500D01*
G01*
X131955000Y-101652500D01*
G75*
G02*
X132127500Y-101480000I172500J0D01*
G01*
X132472500Y-101480000D01*
G75*
G02*
X132645000Y-101652500I0J-172500D01*
G01*
G37*
G36*
G01*
X133615000Y-101652500D02*
X133615000Y-102047500D01*
G75*
G02*
X133442500Y-102220000I-172500J0D01*
G01*
X133097500Y-102220000D01*
G75*
G02*
X132925000Y-102047500I0J172500D01*
G01*
X132925000Y-101652500D01*
G75*
G02*
X133097500Y-101480000I172500J0D01*
G01*
X133442500Y-101480000D01*
G75*
G02*
X133615000Y-101652500I0J-172500D01*
G01*
G37*
%TD*%
%TO.C,C13*%
G36*
G01*
X142547500Y-103130000D02*
X142152500Y-103130000D01*
G75*
G02*
X141980000Y-102957500I0J172500D01*
G01*
X141980000Y-102612500D01*
G75*
G02*
X142152500Y-102440000I172500J0D01*
G01*
X142547500Y-102440000D01*
G75*
G02*
X142720000Y-102612500I0J-172500D01*
G01*
X142720000Y-102957500D01*
G75*
G02*
X142547500Y-103130000I-172500J0D01*
G01*
G37*
G36*
G01*
X142547500Y-102160000D02*
X142152500Y-102160000D01*
G75*
G02*
X141980000Y-101987500I0J172500D01*
G01*
X141980000Y-101642500D01*
G75*
G02*
X142152500Y-101470000I172500J0D01*
G01*
X142547500Y-101470000D01*
G75*
G02*
X142720000Y-101642500I0J-172500D01*
G01*
X142720000Y-101987500D01*
G75*
G02*
X142547500Y-102160000I-172500J0D01*
G01*
G37*
%TD*%
%TO.C,C14*%
G36*
G01*
X134112500Y-105418750D02*
X134112500Y-105981250D01*
G75*
G02*
X133868750Y-106225000I-243750J0D01*
G01*
X133381250Y-106225000D01*
G75*
G02*
X133137500Y-105981250I0J243750D01*
G01*
X133137500Y-105418750D01*
G75*
G02*
X133381250Y-105175000I243750J0D01*
G01*
X133868750Y-105175000D01*
G75*
G02*
X134112500Y-105418750I0J-243750D01*
G01*
G37*
G36*
G01*
X135687500Y-105418750D02*
X135687500Y-105981250D01*
G75*
G02*
X135443750Y-106225000I-243750J0D01*
G01*
X134956250Y-106225000D01*
G75*
G02*
X134712500Y-105981250I0J243750D01*
G01*
X134712500Y-105418750D01*
G75*
G02*
X134956250Y-105175000I243750J0D01*
G01*
X135443750Y-105175000D01*
G75*
G02*
X135687500Y-105418750I0J-243750D01*
G01*
G37*
%TD*%
%TO.C,C15*%
G36*
G01*
X135295000Y-104302500D02*
X135295000Y-104697500D01*
G75*
G02*
X135122500Y-104870000I-172500J0D01*
G01*
X134777500Y-104870000D01*
G75*
G02*
X134605000Y-104697500I0J172500D01*
G01*
X134605000Y-104302500D01*
G75*
G02*
X134777500Y-104130000I172500J0D01*
G01*
X135122500Y-104130000D01*
G75*
G02*
X135295000Y-104302500I0J-172500D01*
G01*
G37*
G36*
G01*
X134325000Y-104302500D02*
X134325000Y-104697500D01*
G75*
G02*
X134152500Y-104870000I-172500J0D01*
G01*
X133807500Y-104870000D01*
G75*
G02*
X133635000Y-104697500I0J172500D01*
G01*
X133635000Y-104302500D01*
G75*
G02*
X133807500Y-104130000I172500J0D01*
G01*
X134152500Y-104130000D01*
G75*
G02*
X134325000Y-104302500I0J-172500D01*
G01*
G37*
%TD*%
%TO.C,C16*%
G36*
G01*
X136555000Y-104697500D02*
X136555000Y-104302500D01*
G75*
G02*
X136727500Y-104130000I172500J0D01*
G01*
X137072500Y-104130000D01*
G75*
G02*
X137245000Y-104302500I0J-172500D01*
G01*
X137245000Y-104697500D01*
G75*
G02*
X137072500Y-104870000I-172500J0D01*
G01*
X136727500Y-104870000D01*
G75*
G02*
X136555000Y-104697500I0J172500D01*
G01*
G37*
G36*
G01*
X135585000Y-104697500D02*
X135585000Y-104302500D01*
G75*
G02*
X135757500Y-104130000I172500J0D01*
G01*
X136102500Y-104130000D01*
G75*
G02*
X136275000Y-104302500I0J-172500D01*
G01*
X136275000Y-104697500D01*
G75*
G02*
X136102500Y-104870000I-172500J0D01*
G01*
X135757500Y-104870000D01*
G75*
G02*
X135585000Y-104697500I0J172500D01*
G01*
G37*
%TD*%
%TO.C,C17*%
G36*
G01*
X125927500Y-97615000D02*
X126322500Y-97615000D01*
G75*
G02*
X126495000Y-97787500I0J-172500D01*
G01*
X126495000Y-98132500D01*
G75*
G02*
X126322500Y-98305000I-172500J0D01*
G01*
X125927500Y-98305000D01*
G75*
G02*
X125755000Y-98132500I0J172500D01*
G01*
X125755000Y-97787500D01*
G75*
G02*
X125927500Y-97615000I172500J0D01*
G01*
G37*
G36*
G01*
X125927500Y-96645000D02*
X126322500Y-96645000D01*
G75*
G02*
X126495000Y-96817500I0J-172500D01*
G01*
X126495000Y-97162500D01*
G75*
G02*
X126322500Y-97335000I-172500J0D01*
G01*
X125927500Y-97335000D01*
G75*
G02*
X125755000Y-97162500I0J172500D01*
G01*
X125755000Y-96817500D01*
G75*
G02*
X125927500Y-96645000I172500J0D01*
G01*
G37*
%TD*%
%TO.C,C18*%
G36*
G01*
X148162500Y-100118750D02*
X148162500Y-100681250D01*
G75*
G02*
X147918750Y-100925000I-243750J0D01*
G01*
X147431250Y-100925000D01*
G75*
G02*
X147187500Y-100681250I0J243750D01*
G01*
X147187500Y-100118750D01*
G75*
G02*
X147431250Y-99875000I243750J0D01*
G01*
X147918750Y-99875000D01*
G75*
G02*
X148162500Y-100118750I0J-243750D01*
G01*
G37*
G36*
G01*
X149737500Y-100118750D02*
X149737500Y-100681250D01*
G75*
G02*
X149493750Y-100925000I-243750J0D01*
G01*
X149006250Y-100925000D01*
G75*
G02*
X148762500Y-100681250I0J243750D01*
G01*
X148762500Y-100118750D01*
G75*
G02*
X149006250Y-99875000I243750J0D01*
G01*
X149493750Y-99875000D01*
G75*
G02*
X149737500Y-100118750I0J-243750D01*
G01*
G37*
%TD*%
%TO.C,C19*%
G36*
G01*
X125250000Y-94018750D02*
X125250000Y-94581250D01*
G75*
G02*
X125006250Y-94825000I-243750J0D01*
G01*
X124518750Y-94825000D01*
G75*
G02*
X124275000Y-94581250I0J243750D01*
G01*
X124275000Y-94018750D01*
G75*
G02*
X124518750Y-93775000I243750J0D01*
G01*
X125006250Y-93775000D01*
G75*
G02*
X125250000Y-94018750I0J-243750D01*
G01*
G37*
G36*
G01*
X126825000Y-94018750D02*
X126825000Y-94581250D01*
G75*
G02*
X126581250Y-94825000I-243750J0D01*
G01*
X126093750Y-94825000D01*
G75*
G02*
X125850000Y-94581250I0J243750D01*
G01*
X125850000Y-94018750D01*
G75*
G02*
X126093750Y-93775000I243750J0D01*
G01*
X126581250Y-93775000D01*
G75*
G02*
X126825000Y-94018750I0J-243750D01*
G01*
G37*
%TD*%
%TO.C,C20*%
G36*
G01*
X131305000Y-83725000D02*
X129995000Y-83725000D01*
G75*
G02*
X129725000Y-83455000I0J270000D01*
G01*
X129725000Y-82645000D01*
G75*
G02*
X129995000Y-82375000I270000J0D01*
G01*
X131305000Y-82375000D01*
G75*
G02*
X131575000Y-82645000I0J-270000D01*
G01*
X131575000Y-83455000D01*
G75*
G02*
X131305000Y-83725000I-270000J0D01*
G01*
G37*
G36*
G01*
X131305000Y-80925000D02*
X129995000Y-80925000D01*
G75*
G02*
X129725000Y-80655000I0J270000D01*
G01*
X129725000Y-79845000D01*
G75*
G02*
X129995000Y-79575000I270000J0D01*
G01*
X131305000Y-79575000D01*
G75*
G02*
X131575000Y-79845000I0J-270000D01*
G01*
X131575000Y-80655000D01*
G75*
G02*
X131305000Y-80925000I-270000J0D01*
G01*
G37*
%TD*%
%TO.C,C21*%
G36*
G01*
X135585000Y-103697500D02*
X135585000Y-103302500D01*
G75*
G02*
X135757500Y-103130000I172500J0D01*
G01*
X136102500Y-103130000D01*
G75*
G02*
X136275000Y-103302500I0J-172500D01*
G01*
X136275000Y-103697500D01*
G75*
G02*
X136102500Y-103870000I-172500J0D01*
G01*
X135757500Y-103870000D01*
G75*
G02*
X135585000Y-103697500I0J172500D01*
G01*
G37*
G36*
G01*
X136555000Y-103697500D02*
X136555000Y-103302500D01*
G75*
G02*
X136727500Y-103130000I172500J0D01*
G01*
X137072500Y-103130000D01*
G75*
G02*
X137245000Y-103302500I0J-172500D01*
G01*
X137245000Y-103697500D01*
G75*
G02*
X137072500Y-103870000I-172500J0D01*
G01*
X136727500Y-103870000D01*
G75*
G02*
X136555000Y-103697500I0J172500D01*
G01*
G37*
%TD*%
%TO.C,C22*%
G36*
G01*
X126455000Y-98777500D02*
X126455000Y-99172500D01*
G75*
G02*
X126282500Y-99345000I-172500J0D01*
G01*
X125937500Y-99345000D01*
G75*
G02*
X125765000Y-99172500I0J172500D01*
G01*
X125765000Y-98777500D01*
G75*
G02*
X125937500Y-98605000I172500J0D01*
G01*
X126282500Y-98605000D01*
G75*
G02*
X126455000Y-98777500I0J-172500D01*
G01*
G37*
G36*
G01*
X125485000Y-98777500D02*
X125485000Y-99172500D01*
G75*
G02*
X125312500Y-99345000I-172500J0D01*
G01*
X124967500Y-99345000D01*
G75*
G02*
X124795000Y-99172500I0J172500D01*
G01*
X124795000Y-98777500D01*
G75*
G02*
X124967500Y-98605000I172500J0D01*
G01*
X125312500Y-98605000D01*
G75*
G02*
X125485000Y-98777500I0J-172500D01*
G01*
G37*
%TD*%
%TO.C,C23*%
G36*
G01*
X126805000Y-80925000D02*
X125495000Y-80925000D01*
G75*
G02*
X125225000Y-80655000I0J270000D01*
G01*
X125225000Y-79845000D01*
G75*
G02*
X125495000Y-79575000I270000J0D01*
G01*
X126805000Y-79575000D01*
G75*
G02*
X127075000Y-79845000I0J-270000D01*
G01*
X127075000Y-80655000D01*
G75*
G02*
X126805000Y-80925000I-270000J0D01*
G01*
G37*
G36*
G01*
X126805000Y-83725000D02*
X125495000Y-83725000D01*
G75*
G02*
X125225000Y-83455000I0J270000D01*
G01*
X125225000Y-82645000D01*
G75*
G02*
X125495000Y-82375000I270000J0D01*
G01*
X126805000Y-82375000D01*
G75*
G02*
X127075000Y-82645000I0J-270000D01*
G01*
X127075000Y-83455000D01*
G75*
G02*
X126805000Y-83725000I-270000J0D01*
G01*
G37*
%TD*%
%TO.C,C24*%
G36*
G01*
X133555000Y-83725000D02*
X132245000Y-83725000D01*
G75*
G02*
X131975000Y-83455000I0J270000D01*
G01*
X131975000Y-82645000D01*
G75*
G02*
X132245000Y-82375000I270000J0D01*
G01*
X133555000Y-82375000D01*
G75*
G02*
X133825000Y-82645000I0J-270000D01*
G01*
X133825000Y-83455000D01*
G75*
G02*
X133555000Y-83725000I-270000J0D01*
G01*
G37*
G36*
G01*
X133555000Y-80925000D02*
X132245000Y-80925000D01*
G75*
G02*
X131975000Y-80655000I0J270000D01*
G01*
X131975000Y-79845000D01*
G75*
G02*
X132245000Y-79575000I270000J0D01*
G01*
X133555000Y-79575000D01*
G75*
G02*
X133825000Y-79845000I0J-270000D01*
G01*
X133825000Y-80655000D01*
G75*
G02*
X133555000Y-80925000I-270000J0D01*
G01*
G37*
%TD*%
%TO.C,C25*%
G36*
G01*
X129055000Y-80925000D02*
X127745000Y-80925000D01*
G75*
G02*
X127475000Y-80655000I0J270000D01*
G01*
X127475000Y-79845000D01*
G75*
G02*
X127745000Y-79575000I270000J0D01*
G01*
X129055000Y-79575000D01*
G75*
G02*
X129325000Y-79845000I0J-270000D01*
G01*
X129325000Y-80655000D01*
G75*
G02*
X129055000Y-80925000I-270000J0D01*
G01*
G37*
G36*
G01*
X129055000Y-83725000D02*
X127745000Y-83725000D01*
G75*
G02*
X127475000Y-83455000I0J270000D01*
G01*
X127475000Y-82645000D01*
G75*
G02*
X127745000Y-82375000I270000J0D01*
G01*
X129055000Y-82375000D01*
G75*
G02*
X129325000Y-82645000I0J-270000D01*
G01*
X129325000Y-83455000D01*
G75*
G02*
X129055000Y-83725000I-270000J0D01*
G01*
G37*
%TD*%
%TO.C,C26*%
G36*
G01*
X142410000Y-96802500D02*
X142410000Y-97197500D01*
G75*
G02*
X142237500Y-97370000I-172500J0D01*
G01*
X141892500Y-97370000D01*
G75*
G02*
X141720000Y-97197500I0J172500D01*
G01*
X141720000Y-96802500D01*
G75*
G02*
X141892500Y-96630000I172500J0D01*
G01*
X142237500Y-96630000D01*
G75*
G02*
X142410000Y-96802500I0J-172500D01*
G01*
G37*
G36*
G01*
X143380000Y-96802500D02*
X143380000Y-97197500D01*
G75*
G02*
X143207500Y-97370000I-172500J0D01*
G01*
X142862500Y-97370000D01*
G75*
G02*
X142690000Y-97197500I0J172500D01*
G01*
X142690000Y-96802500D01*
G75*
G02*
X142862500Y-96630000I172500J0D01*
G01*
X143207500Y-96630000D01*
G75*
G02*
X143380000Y-96802500I0J-172500D01*
G01*
G37*
%TD*%
%TO.C,C27*%
G36*
G01*
X119320000Y-92647500D02*
X119320000Y-92252500D01*
G75*
G02*
X119492500Y-92080000I172500J0D01*
G01*
X119837500Y-92080000D01*
G75*
G02*
X120010000Y-92252500I0J-172500D01*
G01*
X120010000Y-92647500D01*
G75*
G02*
X119837500Y-92820000I-172500J0D01*
G01*
X119492500Y-92820000D01*
G75*
G02*
X119320000Y-92647500I0J172500D01*
G01*
G37*
G36*
G01*
X120290000Y-92647500D02*
X120290000Y-92252500D01*
G75*
G02*
X120462500Y-92080000I172500J0D01*
G01*
X120807500Y-92080000D01*
G75*
G02*
X120980000Y-92252500I0J-172500D01*
G01*
X120980000Y-92647500D01*
G75*
G02*
X120807500Y-92820000I-172500J0D01*
G01*
X120462500Y-92820000D01*
G75*
G02*
X120290000Y-92647500I0J172500D01*
G01*
G37*
%TD*%
%TO.C,C28*%
G36*
G01*
X115655000Y-89025000D02*
X115655000Y-87715000D01*
G75*
G02*
X115925000Y-87445000I270000J0D01*
G01*
X116735000Y-87445000D01*
G75*
G02*
X117005000Y-87715000I0J-270000D01*
G01*
X117005000Y-89025000D01*
G75*
G02*
X116735000Y-89295000I-270000J0D01*
G01*
X115925000Y-89295000D01*
G75*
G02*
X115655000Y-89025000I0J270000D01*
G01*
G37*
G36*
G01*
X112855000Y-89025000D02*
X112855000Y-87715000D01*
G75*
G02*
X113125000Y-87445000I270000J0D01*
G01*
X113935000Y-87445000D01*
G75*
G02*
X114205000Y-87715000I0J-270000D01*
G01*
X114205000Y-89025000D01*
G75*
G02*
X113935000Y-89295000I-270000J0D01*
G01*
X113125000Y-89295000D01*
G75*
G02*
X112855000Y-89025000I0J270000D01*
G01*
G37*
%TD*%
%TO.C,C30*%
G36*
G01*
X130102500Y-95640000D02*
X130497500Y-95640000D01*
G75*
G02*
X130670000Y-95812500I0J-172500D01*
G01*
X130670000Y-96157500D01*
G75*
G02*
X130497500Y-96330000I-172500J0D01*
G01*
X130102500Y-96330000D01*
G75*
G02*
X129930000Y-96157500I0J172500D01*
G01*
X129930000Y-95812500D01*
G75*
G02*
X130102500Y-95640000I172500J0D01*
G01*
G37*
G36*
G01*
X130102500Y-94670000D02*
X130497500Y-94670000D01*
G75*
G02*
X130670000Y-94842500I0J-172500D01*
G01*
X130670000Y-95187500D01*
G75*
G02*
X130497500Y-95360000I-172500J0D01*
G01*
X130102500Y-95360000D01*
G75*
G02*
X129930000Y-95187500I0J172500D01*
G01*
X129930000Y-94842500D01*
G75*
G02*
X130102500Y-94670000I172500J0D01*
G01*
G37*
%TD*%
%TO.C,C31*%
G36*
G01*
X128768750Y-95562500D02*
X129331250Y-95562500D01*
G75*
G02*
X129575000Y-95806250I0J-243750D01*
G01*
X129575000Y-96293750D01*
G75*
G02*
X129331250Y-96537500I-243750J0D01*
G01*
X128768750Y-96537500D01*
G75*
G02*
X128525000Y-96293750I0J243750D01*
G01*
X128525000Y-95806250D01*
G75*
G02*
X128768750Y-95562500I243750J0D01*
G01*
G37*
G36*
G01*
X128768750Y-93987500D02*
X129331250Y-93987500D01*
G75*
G02*
X129575000Y-94231250I0J-243750D01*
G01*
X129575000Y-94718750D01*
G75*
G02*
X129331250Y-94962500I-243750J0D01*
G01*
X128768750Y-94962500D01*
G75*
G02*
X128525000Y-94718750I0J243750D01*
G01*
X128525000Y-94231250D01*
G75*
G02*
X128768750Y-93987500I243750J0D01*
G01*
G37*
%TD*%
%TO.C,C32*%
G36*
G01*
X112855000Y-91325000D02*
X112855000Y-90015000D01*
G75*
G02*
X113125000Y-89745000I270000J0D01*
G01*
X113935000Y-89745000D01*
G75*
G02*
X114205000Y-90015000I0J-270000D01*
G01*
X114205000Y-91325000D01*
G75*
G02*
X113935000Y-91595000I-270000J0D01*
G01*
X113125000Y-91595000D01*
G75*
G02*
X112855000Y-91325000I0J270000D01*
G01*
G37*
G36*
G01*
X115655000Y-91325000D02*
X115655000Y-90015000D01*
G75*
G02*
X115925000Y-89745000I270000J0D01*
G01*
X116735000Y-89745000D01*
G75*
G02*
X117005000Y-90015000I0J-270000D01*
G01*
X117005000Y-91325000D01*
G75*
G02*
X116735000Y-91595000I-270000J0D01*
G01*
X115925000Y-91595000D01*
G75*
G02*
X115655000Y-91325000I0J270000D01*
G01*
G37*
%TD*%
%TO.C,C33*%
G36*
G01*
X132097500Y-93395000D02*
X131702500Y-93395000D01*
G75*
G02*
X131530000Y-93222500I0J172500D01*
G01*
X131530000Y-92877500D01*
G75*
G02*
X131702500Y-92705000I172500J0D01*
G01*
X132097500Y-92705000D01*
G75*
G02*
X132270000Y-92877500I0J-172500D01*
G01*
X132270000Y-93222500D01*
G75*
G02*
X132097500Y-93395000I-172500J0D01*
G01*
G37*
G36*
G01*
X132097500Y-94365000D02*
X131702500Y-94365000D01*
G75*
G02*
X131530000Y-94192500I0J172500D01*
G01*
X131530000Y-93847500D01*
G75*
G02*
X131702500Y-93675000I172500J0D01*
G01*
X132097500Y-93675000D01*
G75*
G02*
X132270000Y-93847500I0J-172500D01*
G01*
X132270000Y-94192500D01*
G75*
G02*
X132097500Y-94365000I-172500J0D01*
G01*
G37*
%TD*%
%TO.C,C35*%
G36*
G01*
X151431250Y-86875000D02*
X150868750Y-86875000D01*
G75*
G02*
X150625000Y-86631250I0J243750D01*
G01*
X150625000Y-86143750D01*
G75*
G02*
X150868750Y-85900000I243750J0D01*
G01*
X151431250Y-85900000D01*
G75*
G02*
X151675000Y-86143750I0J-243750D01*
G01*
X151675000Y-86631250D01*
G75*
G02*
X151431250Y-86875000I-243750J0D01*
G01*
G37*
G36*
G01*
X151431250Y-85300000D02*
X150868750Y-85300000D01*
G75*
G02*
X150625000Y-85056250I0J243750D01*
G01*
X150625000Y-84568750D01*
G75*
G02*
X150868750Y-84325000I243750J0D01*
G01*
X151431250Y-84325000D01*
G75*
G02*
X151675000Y-84568750I0J-243750D01*
G01*
X151675000Y-85056250D01*
G75*
G02*
X151431250Y-85300000I-243750J0D01*
G01*
G37*
%TD*%
%TO.C,C37*%
G36*
G01*
X144600000Y-88268750D02*
X144600000Y-88831250D01*
G75*
G02*
X144356250Y-89075000I-243750J0D01*
G01*
X143868750Y-89075000D01*
G75*
G02*
X143625000Y-88831250I0J243750D01*
G01*
X143625000Y-88268750D01*
G75*
G02*
X143868750Y-88025000I243750J0D01*
G01*
X144356250Y-88025000D01*
G75*
G02*
X144600000Y-88268750I0J-243750D01*
G01*
G37*
G36*
G01*
X146175000Y-88268750D02*
X146175000Y-88831250D01*
G75*
G02*
X145931250Y-89075000I-243750J0D01*
G01*
X145443750Y-89075000D01*
G75*
G02*
X145200000Y-88831250I0J243750D01*
G01*
X145200000Y-88268750D01*
G75*
G02*
X145443750Y-88025000I243750J0D01*
G01*
X145931250Y-88025000D01*
G75*
G02*
X146175000Y-88268750I0J-243750D01*
G01*
G37*
%TD*%
%TO.C,C38*%
G36*
G01*
X130175000Y-88268750D02*
X130175000Y-88831250D01*
G75*
G02*
X129931250Y-89075000I-243750J0D01*
G01*
X129443750Y-89075000D01*
G75*
G02*
X129200000Y-88831250I0J243750D01*
G01*
X129200000Y-88268750D01*
G75*
G02*
X129443750Y-88025000I243750J0D01*
G01*
X129931250Y-88025000D01*
G75*
G02*
X130175000Y-88268750I0J-243750D01*
G01*
G37*
G36*
G01*
X128600000Y-88268750D02*
X128600000Y-88831250D01*
G75*
G02*
X128356250Y-89075000I-243750J0D01*
G01*
X127868750Y-89075000D01*
G75*
G02*
X127625000Y-88831250I0J243750D01*
G01*
X127625000Y-88268750D01*
G75*
G02*
X127868750Y-88025000I243750J0D01*
G01*
X128356250Y-88025000D01*
G75*
G02*
X128600000Y-88268750I0J-243750D01*
G01*
G37*
%TD*%
%TO.C,C39*%
G36*
G01*
X164075000Y-89468750D02*
X164075000Y-90031250D01*
G75*
G02*
X163831250Y-90275000I-243750J0D01*
G01*
X163343750Y-90275000D01*
G75*
G02*
X163100000Y-90031250I0J243750D01*
G01*
X163100000Y-89468750D01*
G75*
G02*
X163343750Y-89225000I243750J0D01*
G01*
X163831250Y-89225000D01*
G75*
G02*
X164075000Y-89468750I0J-243750D01*
G01*
G37*
G36*
G01*
X162500000Y-89468750D02*
X162500000Y-90031250D01*
G75*
G02*
X162256250Y-90275000I-243750J0D01*
G01*
X161768750Y-90275000D01*
G75*
G02*
X161525000Y-90031250I0J243750D01*
G01*
X161525000Y-89468750D01*
G75*
G02*
X161768750Y-89225000I243750J0D01*
G01*
X162256250Y-89225000D01*
G75*
G02*
X162500000Y-89468750I0J-243750D01*
G01*
G37*
%TD*%
%TO.C,C40*%
G36*
G01*
X146175000Y-86518750D02*
X146175000Y-87081250D01*
G75*
G02*
X145931250Y-87325000I-243750J0D01*
G01*
X145443750Y-87325000D01*
G75*
G02*
X145200000Y-87081250I0J243750D01*
G01*
X145200000Y-86518750D01*
G75*
G02*
X145443750Y-86275000I243750J0D01*
G01*
X145931250Y-86275000D01*
G75*
G02*
X146175000Y-86518750I0J-243750D01*
G01*
G37*
G36*
G01*
X144600000Y-86518750D02*
X144600000Y-87081250D01*
G75*
G02*
X144356250Y-87325000I-243750J0D01*
G01*
X143868750Y-87325000D01*
G75*
G02*
X143625000Y-87081250I0J243750D01*
G01*
X143625000Y-86518750D01*
G75*
G02*
X143868750Y-86275000I243750J0D01*
G01*
X144356250Y-86275000D01*
G75*
G02*
X144600000Y-86518750I0J-243750D01*
G01*
G37*
%TD*%
%TO.C,C41*%
G36*
G01*
X128600000Y-86518750D02*
X128600000Y-87081250D01*
G75*
G02*
X128356250Y-87325000I-243750J0D01*
G01*
X127868750Y-87325000D01*
G75*
G02*
X127625000Y-87081250I0J243750D01*
G01*
X127625000Y-86518750D01*
G75*
G02*
X127868750Y-86275000I243750J0D01*
G01*
X128356250Y-86275000D01*
G75*
G02*
X128600000Y-86518750I0J-243750D01*
G01*
G37*
G36*
G01*
X130175000Y-86518750D02*
X130175000Y-87081250D01*
G75*
G02*
X129931250Y-87325000I-243750J0D01*
G01*
X129443750Y-87325000D01*
G75*
G02*
X129200000Y-87081250I0J243750D01*
G01*
X129200000Y-86518750D01*
G75*
G02*
X129443750Y-86275000I243750J0D01*
G01*
X129931250Y-86275000D01*
G75*
G02*
X130175000Y-86518750I0J-243750D01*
G01*
G37*
%TD*%
%TO.C,C42*%
G36*
G01*
X123874039Y-105234061D02*
X124271786Y-105631809D01*
G75*
G02*
X124271786Y-105976523I-172357J-172357D01*
G01*
X123927072Y-106321237D01*
G75*
G02*
X123582358Y-106321237I-172357J172357D01*
G01*
X123184610Y-105923489D01*
G75*
G02*
X123184610Y-105578775I172357J172357D01*
G01*
X123529324Y-105234061D01*
G75*
G02*
X123874038Y-105234061I172357J-172357D01*
G01*
G37*
G36*
G01*
X122760345Y-106347755D02*
X123158092Y-106745503D01*
G75*
G02*
X123158092Y-107090217I-172357J-172357D01*
G01*
X122813378Y-107434931D01*
G75*
G02*
X122468664Y-107434931I-172357J172357D01*
G01*
X122070916Y-107037183D01*
G75*
G02*
X122070916Y-106692469I172357J172357D01*
G01*
X122415630Y-106347755D01*
G75*
G02*
X122760344Y-106347755I172357J-172357D01*
G01*
G37*
%TD*%
%TO.C,C43*%
G36*
G01*
X121399165Y-102759187D02*
X121796912Y-103156935D01*
G75*
G02*
X121796912Y-103501649I-172357J-172357D01*
G01*
X121452198Y-103846363D01*
G75*
G02*
X121107484Y-103846363I-172357J172357D01*
G01*
X120709736Y-103448615D01*
G75*
G02*
X120709736Y-103103901I172357J172357D01*
G01*
X121054450Y-102759187D01*
G75*
G02*
X121399164Y-102759187I172357J-172357D01*
G01*
G37*
G36*
G01*
X120285471Y-103872881D02*
X120683218Y-104270629D01*
G75*
G02*
X120683218Y-104615343I-172357J-172357D01*
G01*
X120338504Y-104960057D01*
G75*
G02*
X119993790Y-104960057I-172357J172357D01*
G01*
X119596042Y-104562309D01*
G75*
G02*
X119596042Y-104217595I172357J172357D01*
G01*
X119940756Y-103872881D01*
G75*
G02*
X120285470Y-103872881I172357J-172357D01*
G01*
G37*
%TD*%
%TO.C,C44*%
G36*
G01*
X122636602Y-103996624D02*
X123034349Y-104394372D01*
G75*
G02*
X123034349Y-104739086I-172357J-172357D01*
G01*
X122689635Y-105083800D01*
G75*
G02*
X122344921Y-105083800I-172357J172357D01*
G01*
X121947173Y-104686052D01*
G75*
G02*
X121947173Y-104341338I172357J172357D01*
G01*
X122291887Y-103996624D01*
G75*
G02*
X122636601Y-103996624I172357J-172357D01*
G01*
G37*
G36*
G01*
X121522908Y-105110318D02*
X121920655Y-105508066D01*
G75*
G02*
X121920655Y-105852780I-172357J-172357D01*
G01*
X121575941Y-106197494D01*
G75*
G02*
X121231227Y-106197494I-172357J172357D01*
G01*
X120833479Y-105799746D01*
G75*
G02*
X120833479Y-105455032I172357J172357D01*
G01*
X121178193Y-105110318D01*
G75*
G02*
X121522907Y-105110318I172357J-172357D01*
G01*
G37*
%TD*%
D22*
%TO.C,D1*%
X123650000Y-83200000D03*
X123650000Y-79900000D03*
%TD*%
D15*
%TO.C,D2*%
X152650000Y-85550000D03*
X155950000Y-85550000D03*
%TD*%
D23*
%TO.C,J1*%
X117740000Y-96840000D03*
D24*
X111740000Y-96840000D03*
D25*
X114740000Y-101540000D03*
%TD*%
%TO.C,L1*%
G36*
G01*
X138762500Y-105518750D02*
X138762500Y-106081250D01*
G75*
G02*
X138518750Y-106325000I-243750J0D01*
G01*
X138031250Y-106325000D01*
G75*
G02*
X137787500Y-106081250I0J243750D01*
G01*
X137787500Y-105518750D01*
G75*
G02*
X138031250Y-105275000I243750J0D01*
G01*
X138518750Y-105275000D01*
G75*
G02*
X138762500Y-105518750I0J-243750D01*
G01*
G37*
G36*
G01*
X137187500Y-105518750D02*
X137187500Y-106081250D01*
G75*
G02*
X136943750Y-106325000I-243750J0D01*
G01*
X136456250Y-106325000D01*
G75*
G02*
X136212500Y-106081250I0J243750D01*
G01*
X136212500Y-105518750D01*
G75*
G02*
X136456250Y-105275000I243750J0D01*
G01*
X136943750Y-105275000D01*
G75*
G02*
X137187500Y-105518750I0J-243750D01*
G01*
G37*
%TD*%
%TO.C,FLT_LED1*%
G36*
G01*
X168081250Y-101237500D02*
X167518750Y-101237500D01*
G75*
G02*
X167275000Y-100993750I0J243750D01*
G01*
X167275000Y-100506250D01*
G75*
G02*
X167518750Y-100262500I243750J0D01*
G01*
X168081250Y-100262500D01*
G75*
G02*
X168325000Y-100506250I0J-243750D01*
G01*
X168325000Y-100993750D01*
G75*
G02*
X168081250Y-101237500I-243750J0D01*
G01*
G37*
G36*
G01*
X168081250Y-99662500D02*
X167518750Y-99662500D01*
G75*
G02*
X167275000Y-99418750I0J243750D01*
G01*
X167275000Y-98931250D01*
G75*
G02*
X167518750Y-98687500I243750J0D01*
G01*
X168081250Y-98687500D01*
G75*
G02*
X168325000Y-98931250I0J-243750D01*
G01*
X168325000Y-99418750D01*
G75*
G02*
X168081250Y-99662500I-243750J0D01*
G01*
G37*
%TD*%
%TO.C,CHG_LED1*%
G36*
G01*
X167518750Y-95800000D02*
X168081250Y-95800000D01*
G75*
G02*
X168325000Y-96043750I0J-243750D01*
G01*
X168325000Y-96531250D01*
G75*
G02*
X168081250Y-96775000I-243750J0D01*
G01*
X167518750Y-96775000D01*
G75*
G02*
X167275000Y-96531250I0J243750D01*
G01*
X167275000Y-96043750D01*
G75*
G02*
X167518750Y-95800000I243750J0D01*
G01*
G37*
G36*
G01*
X167518750Y-94225000D02*
X168081250Y-94225000D01*
G75*
G02*
X168325000Y-94468750I0J-243750D01*
G01*
X168325000Y-94956250D01*
G75*
G02*
X168081250Y-95200000I-243750J0D01*
G01*
X167518750Y-95200000D01*
G75*
G02*
X167275000Y-94956250I0J243750D01*
G01*
X167275000Y-94468750D01*
G75*
G02*
X167518750Y-94225000I243750J0D01*
G01*
G37*
%TD*%
D26*
%TO.C,LX1*%
X139750000Y-77750000D03*
%TD*%
%TO.C,LX2*%
X132000000Y-77750000D03*
%TD*%
D27*
%TO.C,Q5*%
X155100000Y-89500000D03*
X155100000Y-87600000D03*
X153100000Y-88550000D03*
%TD*%
D28*
%TO.C,Q6*%
X137600000Y-88625000D03*
X137600000Y-90475000D03*
D29*
X137600000Y-89590000D03*
D30*
G36*
X139099039Y-90659755D02*
G01*
X139096194Y-90669134D01*
X139091573Y-90677779D01*
X139085355Y-90685355D01*
X139077779Y-90691573D01*
X139069134Y-90696194D01*
X139059755Y-90699039D01*
X139050000Y-90700000D01*
X138750000Y-90700000D01*
X138740245Y-90699039D01*
X138730866Y-90696194D01*
X138722221Y-90691573D01*
X138714645Y-90685355D01*
X138708427Y-90677779D01*
X138703806Y-90669134D01*
X138700961Y-90659755D01*
X138700000Y-90650000D01*
X138700000Y-90350000D01*
X138450000Y-90350000D01*
X138450000Y-90650000D01*
X138449039Y-90659755D01*
X138446194Y-90669134D01*
X138441573Y-90677779D01*
X138435355Y-90685355D01*
X138427779Y-90691573D01*
X138419134Y-90696194D01*
X138409755Y-90699039D01*
X138400000Y-90700000D01*
X138100000Y-90700000D01*
X138090245Y-90699039D01*
X138080866Y-90696194D01*
X138072221Y-90691573D01*
X138064645Y-90685355D01*
X138058427Y-90677779D01*
X138053806Y-90669134D01*
X138050961Y-90659755D01*
X138050000Y-90650000D01*
X138050000Y-88450000D01*
X138050961Y-88440245D01*
X138053806Y-88430866D01*
X138058427Y-88422221D01*
X138064645Y-88414645D01*
X138072221Y-88408427D01*
X138080866Y-88403806D01*
X138090245Y-88400961D01*
X138100000Y-88400000D01*
X138400000Y-88400000D01*
X138409755Y-88400961D01*
X138419134Y-88403806D01*
X138427779Y-88408427D01*
X138435355Y-88414645D01*
X138441573Y-88422221D01*
X138446194Y-88430866D01*
X138449039Y-88440245D01*
X138450000Y-88450000D01*
X138450000Y-88750000D01*
X138700000Y-88750000D01*
X138700000Y-88450000D01*
X138700961Y-88440245D01*
X138703806Y-88430866D01*
X138708427Y-88422221D01*
X138714645Y-88414645D01*
X138722221Y-88408427D01*
X138730866Y-88403806D01*
X138740245Y-88400961D01*
X138750000Y-88400000D01*
X139050000Y-88400000D01*
X139059755Y-88400961D01*
X139069134Y-88403806D01*
X139077779Y-88408427D01*
X139085355Y-88414645D01*
X139091573Y-88422221D01*
X139096194Y-88430866D01*
X139099039Y-88440245D01*
X139100000Y-88450000D01*
X139100000Y-90650000D01*
X139099039Y-90659755D01*
G37*
%TD*%
D27*
%TO.C,Q7*%
X156900000Y-88550000D03*
X158900000Y-87600000D03*
X158900000Y-89500000D03*
%TD*%
%TO.C,Q8*%
X155000000Y-103800000D03*
X155000000Y-101900000D03*
X153000000Y-102850000D03*
%TD*%
%TO.C,R1*%
G36*
G01*
X159347500Y-85495000D02*
X158952500Y-85495000D01*
G75*
G02*
X158780000Y-85322500I0J172500D01*
G01*
X158780000Y-84977500D01*
G75*
G02*
X158952500Y-84805000I172500J0D01*
G01*
X159347500Y-84805000D01*
G75*
G02*
X159520000Y-84977500I0J-172500D01*
G01*
X159520000Y-85322500D01*
G75*
G02*
X159347500Y-85495000I-172500J0D01*
G01*
G37*
G36*
G01*
X159347500Y-86465000D02*
X158952500Y-86465000D01*
G75*
G02*
X158780000Y-86292500I0J172500D01*
G01*
X158780000Y-85947500D01*
G75*
G02*
X158952500Y-85775000I172500J0D01*
G01*
X159347500Y-85775000D01*
G75*
G02*
X159520000Y-85947500I0J-172500D01*
G01*
X159520000Y-86292500D01*
G75*
G02*
X159347500Y-86465000I-172500J0D01*
G01*
G37*
%TD*%
%TO.C,R3*%
G36*
G01*
X166485000Y-102447500D02*
X166485000Y-102052500D01*
G75*
G02*
X166657500Y-101880000I172500J0D01*
G01*
X167002500Y-101880000D01*
G75*
G02*
X167175000Y-102052500I0J-172500D01*
G01*
X167175000Y-102447500D01*
G75*
G02*
X167002500Y-102620000I-172500J0D01*
G01*
X166657500Y-102620000D01*
G75*
G02*
X166485000Y-102447500I0J172500D01*
G01*
G37*
G36*
G01*
X167455000Y-102447500D02*
X167455000Y-102052500D01*
G75*
G02*
X167627500Y-101880000I172500J0D01*
G01*
X167972500Y-101880000D01*
G75*
G02*
X168145000Y-102052500I0J-172500D01*
G01*
X168145000Y-102447500D01*
G75*
G02*
X167972500Y-102620000I-172500J0D01*
G01*
X167627500Y-102620000D01*
G75*
G02*
X167455000Y-102447500I0J172500D01*
G01*
G37*
%TD*%
%TO.C,R4*%
G36*
G01*
X167455000Y-93447500D02*
X167455000Y-93052500D01*
G75*
G02*
X167627500Y-92880000I172500J0D01*
G01*
X167972500Y-92880000D01*
G75*
G02*
X168145000Y-93052500I0J-172500D01*
G01*
X168145000Y-93447500D01*
G75*
G02*
X167972500Y-93620000I-172500J0D01*
G01*
X167627500Y-93620000D01*
G75*
G02*
X167455000Y-93447500I0J172500D01*
G01*
G37*
G36*
G01*
X166485000Y-93447500D02*
X166485000Y-93052500D01*
G75*
G02*
X166657500Y-92880000I172500J0D01*
G01*
X167002500Y-92880000D01*
G75*
G02*
X167175000Y-93052500I0J-172500D01*
G01*
X167175000Y-93447500D01*
G75*
G02*
X167002500Y-93620000I-172500J0D01*
G01*
X166657500Y-93620000D01*
G75*
G02*
X166485000Y-93447500I0J172500D01*
G01*
G37*
%TD*%
%TO.C,R6*%
G36*
G01*
X129070000Y-103797500D02*
X129070000Y-103402500D01*
G75*
G02*
X129242500Y-103230000I172500J0D01*
G01*
X129587500Y-103230000D01*
G75*
G02*
X129760000Y-103402500I0J-172500D01*
G01*
X129760000Y-103797500D01*
G75*
G02*
X129587500Y-103970000I-172500J0D01*
G01*
X129242500Y-103970000D01*
G75*
G02*
X129070000Y-103797500I0J172500D01*
G01*
G37*
G36*
G01*
X130040000Y-103797500D02*
X130040000Y-103402500D01*
G75*
G02*
X130212500Y-103230000I172500J0D01*
G01*
X130557500Y-103230000D01*
G75*
G02*
X130730000Y-103402500I0J-172500D01*
G01*
X130730000Y-103797500D01*
G75*
G02*
X130557500Y-103970000I-172500J0D01*
G01*
X130212500Y-103970000D01*
G75*
G02*
X130040000Y-103797500I0J172500D01*
G01*
G37*
%TD*%
%TO.C,R7*%
G36*
G01*
X131102500Y-100535000D02*
X131497500Y-100535000D01*
G75*
G02*
X131670000Y-100707500I0J-172500D01*
G01*
X131670000Y-101052500D01*
G75*
G02*
X131497500Y-101225000I-172500J0D01*
G01*
X131102500Y-101225000D01*
G75*
G02*
X130930000Y-101052500I0J172500D01*
G01*
X130930000Y-100707500D01*
G75*
G02*
X131102500Y-100535000I172500J0D01*
G01*
G37*
G36*
G01*
X131102500Y-101505000D02*
X131497500Y-101505000D01*
G75*
G02*
X131670000Y-101677500I0J-172500D01*
G01*
X131670000Y-102022500D01*
G75*
G02*
X131497500Y-102195000I-172500J0D01*
G01*
X131102500Y-102195000D01*
G75*
G02*
X130930000Y-102022500I0J172500D01*
G01*
X130930000Y-101677500D01*
G75*
G02*
X131102500Y-101505000I172500J0D01*
G01*
G37*
%TD*%
%TO.C,R8*%
G36*
G01*
X162580000Y-97052500D02*
X162580000Y-97447500D01*
G75*
G02*
X162407500Y-97620000I-172500J0D01*
G01*
X162062500Y-97620000D01*
G75*
G02*
X161890000Y-97447500I0J172500D01*
G01*
X161890000Y-97052500D01*
G75*
G02*
X162062500Y-96880000I172500J0D01*
G01*
X162407500Y-96880000D01*
G75*
G02*
X162580000Y-97052500I0J-172500D01*
G01*
G37*
G36*
G01*
X161610000Y-97052500D02*
X161610000Y-97447500D01*
G75*
G02*
X161437500Y-97620000I-172500J0D01*
G01*
X161092500Y-97620000D01*
G75*
G02*
X160920000Y-97447500I0J172500D01*
G01*
X160920000Y-97052500D01*
G75*
G02*
X161092500Y-96880000I172500J0D01*
G01*
X161437500Y-96880000D01*
G75*
G02*
X161610000Y-97052500I0J-172500D01*
G01*
G37*
%TD*%
%TO.C,R10*%
G36*
G01*
X152775000Y-95818750D02*
X152775000Y-96381250D01*
G75*
G02*
X152531250Y-96625000I-243750J0D01*
G01*
X152043750Y-96625000D01*
G75*
G02*
X151800000Y-96381250I0J243750D01*
G01*
X151800000Y-95818750D01*
G75*
G02*
X152043750Y-95575000I243750J0D01*
G01*
X152531250Y-95575000D01*
G75*
G02*
X152775000Y-95818750I0J-243750D01*
G01*
G37*
G36*
G01*
X151200000Y-95818750D02*
X151200000Y-96381250D01*
G75*
G02*
X150956250Y-96625000I-243750J0D01*
G01*
X150468750Y-96625000D01*
G75*
G02*
X150225000Y-96381250I0J243750D01*
G01*
X150225000Y-95818750D01*
G75*
G02*
X150468750Y-95575000I243750J0D01*
G01*
X150956250Y-95575000D01*
G75*
G02*
X151200000Y-95818750I0J-243750D01*
G01*
G37*
%TD*%
%TO.C,R11*%
G36*
G01*
X124275000Y-93081250D02*
X124275000Y-92518750D01*
G75*
G02*
X124518750Y-92275000I243750J0D01*
G01*
X125006250Y-92275000D01*
G75*
G02*
X125250000Y-92518750I0J-243750D01*
G01*
X125250000Y-93081250D01*
G75*
G02*
X125006250Y-93325000I-243750J0D01*
G01*
X124518750Y-93325000D01*
G75*
G02*
X124275000Y-93081250I0J243750D01*
G01*
G37*
G36*
G01*
X125850000Y-93081250D02*
X125850000Y-92518750D01*
G75*
G02*
X126093750Y-92275000I243750J0D01*
G01*
X126581250Y-92275000D01*
G75*
G02*
X126825000Y-92518750I0J-243750D01*
G01*
X126825000Y-93081250D01*
G75*
G02*
X126581250Y-93325000I-243750J0D01*
G01*
X126093750Y-93325000D01*
G75*
G02*
X125850000Y-93081250I0J243750D01*
G01*
G37*
%TD*%
%TO.C,R12*%
G36*
G01*
X163100000Y-88431250D02*
X163100000Y-87868750D01*
G75*
G02*
X163343750Y-87625000I243750J0D01*
G01*
X163831250Y-87625000D01*
G75*
G02*
X164075000Y-87868750I0J-243750D01*
G01*
X164075000Y-88431250D01*
G75*
G02*
X163831250Y-88675000I-243750J0D01*
G01*
X163343750Y-88675000D01*
G75*
G02*
X163100000Y-88431250I0J243750D01*
G01*
G37*
G36*
G01*
X161525000Y-88431250D02*
X161525000Y-87868750D01*
G75*
G02*
X161768750Y-87625000I243750J0D01*
G01*
X162256250Y-87625000D01*
G75*
G02*
X162500000Y-87868750I0J-243750D01*
G01*
X162500000Y-88431250D01*
G75*
G02*
X162256250Y-88675000I-243750J0D01*
G01*
X161768750Y-88675000D01*
G75*
G02*
X161525000Y-88431250I0J243750D01*
G01*
G37*
%TD*%
%TO.C,R13*%
G36*
G01*
X125322500Y-97335000D02*
X124927500Y-97335000D01*
G75*
G02*
X124755000Y-97162500I0J172500D01*
G01*
X124755000Y-96817500D01*
G75*
G02*
X124927500Y-96645000I172500J0D01*
G01*
X125322500Y-96645000D01*
G75*
G02*
X125495000Y-96817500I0J-172500D01*
G01*
X125495000Y-97162500D01*
G75*
G02*
X125322500Y-97335000I-172500J0D01*
G01*
G37*
G36*
G01*
X125322500Y-98305000D02*
X124927500Y-98305000D01*
G75*
G02*
X124755000Y-98132500I0J172500D01*
G01*
X124755000Y-97787500D01*
G75*
G02*
X124927500Y-97615000I172500J0D01*
G01*
X125322500Y-97615000D01*
G75*
G02*
X125495000Y-97787500I0J-172500D01*
G01*
X125495000Y-98132500D01*
G75*
G02*
X125322500Y-98305000I-172500J0D01*
G01*
G37*
%TD*%
%TO.C,R14*%
G36*
G01*
X124747500Y-91895000D02*
X124352500Y-91895000D01*
G75*
G02*
X124180000Y-91722500I0J172500D01*
G01*
X124180000Y-91377500D01*
G75*
G02*
X124352500Y-91205000I172500J0D01*
G01*
X124747500Y-91205000D01*
G75*
G02*
X124920000Y-91377500I0J-172500D01*
G01*
X124920000Y-91722500D01*
G75*
G02*
X124747500Y-91895000I-172500J0D01*
G01*
G37*
G36*
G01*
X124747500Y-90925000D02*
X124352500Y-90925000D01*
G75*
G02*
X124180000Y-90752500I0J172500D01*
G01*
X124180000Y-90407500D01*
G75*
G02*
X124352500Y-90235000I172500J0D01*
G01*
X124747500Y-90235000D01*
G75*
G02*
X124920000Y-90407500I0J-172500D01*
G01*
X124920000Y-90752500D01*
G75*
G02*
X124747500Y-90925000I-172500J0D01*
G01*
G37*
%TD*%
%TO.C,R15*%
G36*
G01*
X119847500Y-91780000D02*
X119452500Y-91780000D01*
G75*
G02*
X119280000Y-91607500I0J172500D01*
G01*
X119280000Y-91262500D01*
G75*
G02*
X119452500Y-91090000I172500J0D01*
G01*
X119847500Y-91090000D01*
G75*
G02*
X120020000Y-91262500I0J-172500D01*
G01*
X120020000Y-91607500D01*
G75*
G02*
X119847500Y-91780000I-172500J0D01*
G01*
G37*
G36*
G01*
X119847500Y-90810000D02*
X119452500Y-90810000D01*
G75*
G02*
X119280000Y-90637500I0J172500D01*
G01*
X119280000Y-90292500D01*
G75*
G02*
X119452500Y-90120000I172500J0D01*
G01*
X119847500Y-90120000D01*
G75*
G02*
X120020000Y-90292500I0J-172500D01*
G01*
X120020000Y-90637500D01*
G75*
G02*
X119847500Y-90810000I-172500J0D01*
G01*
G37*
%TD*%
%TO.C,R16*%
G36*
G01*
X151947500Y-104530000D02*
X151552500Y-104530000D01*
G75*
G02*
X151380000Y-104357500I0J172500D01*
G01*
X151380000Y-104012500D01*
G75*
G02*
X151552500Y-103840000I172500J0D01*
G01*
X151947500Y-103840000D01*
G75*
G02*
X152120000Y-104012500I0J-172500D01*
G01*
X152120000Y-104357500D01*
G75*
G02*
X151947500Y-104530000I-172500J0D01*
G01*
G37*
G36*
G01*
X151947500Y-103560000D02*
X151552500Y-103560000D01*
G75*
G02*
X151380000Y-103387500I0J172500D01*
G01*
X151380000Y-103042500D01*
G75*
G02*
X151552500Y-102870000I172500J0D01*
G01*
X151947500Y-102870000D01*
G75*
G02*
X152120000Y-103042500I0J-172500D01*
G01*
X152120000Y-103387500D01*
G75*
G02*
X151947500Y-103560000I-172500J0D01*
G01*
G37*
%TD*%
%TO.C,R18*%
G36*
G01*
X121612500Y-87868750D02*
X121612500Y-88831250D01*
G75*
G02*
X121343750Y-89100000I-268750J0D01*
G01*
X120806250Y-89100000D01*
G75*
G02*
X120537500Y-88831250I0J268750D01*
G01*
X120537500Y-87868750D01*
G75*
G02*
X120806250Y-87600000I268750J0D01*
G01*
X121343750Y-87600000D01*
G75*
G02*
X121612500Y-87868750I0J-268750D01*
G01*
G37*
G36*
G01*
X119737500Y-87868750D02*
X119737500Y-88831250D01*
G75*
G02*
X119468750Y-89100000I-268750J0D01*
G01*
X118931250Y-89100000D01*
G75*
G02*
X118662500Y-88831250I0J268750D01*
G01*
X118662500Y-87868750D01*
G75*
G02*
X118931250Y-87600000I268750J0D01*
G01*
X119468750Y-87600000D01*
G75*
G02*
X119737500Y-87868750I0J-268750D01*
G01*
G37*
%TD*%
%TO.C,R20*%
G36*
G01*
X155252500Y-94205000D02*
X155647500Y-94205000D01*
G75*
G02*
X155820000Y-94377500I0J-172500D01*
G01*
X155820000Y-94722500D01*
G75*
G02*
X155647500Y-94895000I-172500J0D01*
G01*
X155252500Y-94895000D01*
G75*
G02*
X155080000Y-94722500I0J172500D01*
G01*
X155080000Y-94377500D01*
G75*
G02*
X155252500Y-94205000I172500J0D01*
G01*
G37*
G36*
G01*
X155252500Y-93235000D02*
X155647500Y-93235000D01*
G75*
G02*
X155820000Y-93407500I0J-172500D01*
G01*
X155820000Y-93752500D01*
G75*
G02*
X155647500Y-93925000I-172500J0D01*
G01*
X155252500Y-93925000D01*
G75*
G02*
X155080000Y-93752500I0J172500D01*
G01*
X155080000Y-93407500D01*
G75*
G02*
X155252500Y-93235000I172500J0D01*
G01*
G37*
%TD*%
%TO.C,R21*%
G36*
G01*
X120847500Y-91780000D02*
X120452500Y-91780000D01*
G75*
G02*
X120280000Y-91607500I0J172500D01*
G01*
X120280000Y-91262500D01*
G75*
G02*
X120452500Y-91090000I172500J0D01*
G01*
X120847500Y-91090000D01*
G75*
G02*
X121020000Y-91262500I0J-172500D01*
G01*
X121020000Y-91607500D01*
G75*
G02*
X120847500Y-91780000I-172500J0D01*
G01*
G37*
G36*
G01*
X120847500Y-90810000D02*
X120452500Y-90810000D01*
G75*
G02*
X120280000Y-90637500I0J172500D01*
G01*
X120280000Y-90292500D01*
G75*
G02*
X120452500Y-90120000I172500J0D01*
G01*
X120847500Y-90120000D01*
G75*
G02*
X121020000Y-90292500I0J-172500D01*
G01*
X121020000Y-90637500D01*
G75*
G02*
X120847500Y-90810000I-172500J0D01*
G01*
G37*
%TD*%
%TO.C,R23*%
G36*
G01*
X162840000Y-91547500D02*
X162840000Y-91152500D01*
G75*
G02*
X163012500Y-90980000I172500J0D01*
G01*
X163357500Y-90980000D01*
G75*
G02*
X163530000Y-91152500I0J-172500D01*
G01*
X163530000Y-91547500D01*
G75*
G02*
X163357500Y-91720000I-172500J0D01*
G01*
X163012500Y-91720000D01*
G75*
G02*
X162840000Y-91547500I0J172500D01*
G01*
G37*
G36*
G01*
X161870000Y-91547500D02*
X161870000Y-91152500D01*
G75*
G02*
X162042500Y-90980000I172500J0D01*
G01*
X162387500Y-90980000D01*
G75*
G02*
X162560000Y-91152500I0J-172500D01*
G01*
X162560000Y-91547500D01*
G75*
G02*
X162387500Y-91720000I-172500J0D01*
G01*
X162042500Y-91720000D01*
G75*
G02*
X161870000Y-91547500I0J172500D01*
G01*
G37*
%TD*%
%TO.C,R25*%
G36*
G01*
X130302500Y-93740000D02*
X130697500Y-93740000D01*
G75*
G02*
X130870000Y-93912500I0J-172500D01*
G01*
X130870000Y-94257500D01*
G75*
G02*
X130697500Y-94430000I-172500J0D01*
G01*
X130302500Y-94430000D01*
G75*
G02*
X130130000Y-94257500I0J172500D01*
G01*
X130130000Y-93912500D01*
G75*
G02*
X130302500Y-93740000I172500J0D01*
G01*
G37*
G36*
G01*
X130302500Y-92770000D02*
X130697500Y-92770000D01*
G75*
G02*
X130870000Y-92942500I0J-172500D01*
G01*
X130870000Y-93287500D01*
G75*
G02*
X130697500Y-93460000I-172500J0D01*
G01*
X130302500Y-93460000D01*
G75*
G02*
X130130000Y-93287500I0J172500D01*
G01*
X130130000Y-92942500D01*
G75*
G02*
X130302500Y-92770000I172500J0D01*
G01*
G37*
%TD*%
%TO.C,R26*%
G36*
G01*
X124215000Y-84202500D02*
X124215000Y-84597500D01*
G75*
G02*
X124042500Y-84770000I-172500J0D01*
G01*
X123697500Y-84770000D01*
G75*
G02*
X123525000Y-84597500I0J172500D01*
G01*
X123525000Y-84202500D01*
G75*
G02*
X123697500Y-84030000I172500J0D01*
G01*
X124042500Y-84030000D01*
G75*
G02*
X124215000Y-84202500I0J-172500D01*
G01*
G37*
G36*
G01*
X123245000Y-84202500D02*
X123245000Y-84597500D01*
G75*
G02*
X123072500Y-84770000I-172500J0D01*
G01*
X122727500Y-84770000D01*
G75*
G02*
X122555000Y-84597500I0J172500D01*
G01*
X122555000Y-84202500D01*
G75*
G02*
X122727500Y-84030000I172500J0D01*
G01*
X123072500Y-84030000D01*
G75*
G02*
X123245000Y-84202500I0J-172500D01*
G01*
G37*
%TD*%
%TO.C,R27*%
G36*
G01*
X133752500Y-93040000D02*
X134147500Y-93040000D01*
G75*
G02*
X134320000Y-93212500I0J-172500D01*
G01*
X134320000Y-93557500D01*
G75*
G02*
X134147500Y-93730000I-172500J0D01*
G01*
X133752500Y-93730000D01*
G75*
G02*
X133580000Y-93557500I0J172500D01*
G01*
X133580000Y-93212500D01*
G75*
G02*
X133752500Y-93040000I172500J0D01*
G01*
G37*
G36*
G01*
X133752500Y-92070000D02*
X134147500Y-92070000D01*
G75*
G02*
X134320000Y-92242500I0J-172500D01*
G01*
X134320000Y-92587500D01*
G75*
G02*
X134147500Y-92760000I-172500J0D01*
G01*
X133752500Y-92760000D01*
G75*
G02*
X133580000Y-92587500I0J172500D01*
G01*
X133580000Y-92242500D01*
G75*
G02*
X133752500Y-92070000I172500J0D01*
G01*
G37*
%TD*%
%TO.C,R28*%
G36*
G01*
X134752500Y-92070000D02*
X135147500Y-92070000D01*
G75*
G02*
X135320000Y-92242500I0J-172500D01*
G01*
X135320000Y-92587500D01*
G75*
G02*
X135147500Y-92760000I-172500J0D01*
G01*
X134752500Y-92760000D01*
G75*
G02*
X134580000Y-92587500I0J172500D01*
G01*
X134580000Y-92242500D01*
G75*
G02*
X134752500Y-92070000I172500J0D01*
G01*
G37*
G36*
G01*
X134752500Y-93040000D02*
X135147500Y-93040000D01*
G75*
G02*
X135320000Y-93212500I0J-172500D01*
G01*
X135320000Y-93557500D01*
G75*
G02*
X135147500Y-93730000I-172500J0D01*
G01*
X134752500Y-93730000D01*
G75*
G02*
X134580000Y-93557500I0J172500D01*
G01*
X134580000Y-93212500D01*
G75*
G02*
X134752500Y-93040000I172500J0D01*
G01*
G37*
%TD*%
%TO.C,R29*%
G36*
G01*
X137027500Y-92085000D02*
X137422500Y-92085000D01*
G75*
G02*
X137595000Y-92257500I0J-172500D01*
G01*
X137595000Y-92602500D01*
G75*
G02*
X137422500Y-92775000I-172500J0D01*
G01*
X137027500Y-92775000D01*
G75*
G02*
X136855000Y-92602500I0J172500D01*
G01*
X136855000Y-92257500D01*
G75*
G02*
X137027500Y-92085000I172500J0D01*
G01*
G37*
G36*
G01*
X137027500Y-93055000D02*
X137422500Y-93055000D01*
G75*
G02*
X137595000Y-93227500I0J-172500D01*
G01*
X137595000Y-93572500D01*
G75*
G02*
X137422500Y-93745000I-172500J0D01*
G01*
X137027500Y-93745000D01*
G75*
G02*
X136855000Y-93572500I0J172500D01*
G01*
X136855000Y-93227500D01*
G75*
G02*
X137027500Y-93055000I172500J0D01*
G01*
G37*
%TD*%
%TO.C,R30*%
G36*
G01*
X139097500Y-84410000D02*
X138702500Y-84410000D01*
G75*
G02*
X138530000Y-84237500I0J172500D01*
G01*
X138530000Y-83892500D01*
G75*
G02*
X138702500Y-83720000I172500J0D01*
G01*
X139097500Y-83720000D01*
G75*
G02*
X139270000Y-83892500I0J-172500D01*
G01*
X139270000Y-84237500D01*
G75*
G02*
X139097500Y-84410000I-172500J0D01*
G01*
G37*
G36*
G01*
X139097500Y-85380000D02*
X138702500Y-85380000D01*
G75*
G02*
X138530000Y-85207500I0J172500D01*
G01*
X138530000Y-84862500D01*
G75*
G02*
X138702500Y-84690000I172500J0D01*
G01*
X139097500Y-84690000D01*
G75*
G02*
X139270000Y-84862500I0J-172500D01*
G01*
X139270000Y-85207500D01*
G75*
G02*
X139097500Y-85380000I-172500J0D01*
G01*
G37*
%TD*%
%TO.C,R31*%
G36*
G01*
X150802500Y-90375000D02*
X151197500Y-90375000D01*
G75*
G02*
X151370000Y-90547500I0J-172500D01*
G01*
X151370000Y-90892500D01*
G75*
G02*
X151197500Y-91065000I-172500J0D01*
G01*
X150802500Y-91065000D01*
G75*
G02*
X150630000Y-90892500I0J172500D01*
G01*
X150630000Y-90547500D01*
G75*
G02*
X150802500Y-90375000I172500J0D01*
G01*
G37*
G36*
G01*
X150802500Y-89405000D02*
X151197500Y-89405000D01*
G75*
G02*
X151370000Y-89577500I0J-172500D01*
G01*
X151370000Y-89922500D01*
G75*
G02*
X151197500Y-90095000I-172500J0D01*
G01*
X150802500Y-90095000D01*
G75*
G02*
X150630000Y-89922500I0J172500D01*
G01*
X150630000Y-89577500D01*
G75*
G02*
X150802500Y-89405000I172500J0D01*
G01*
G37*
%TD*%
%TO.C,R32*%
G36*
G01*
X134602500Y-85935000D02*
X134997500Y-85935000D01*
G75*
G02*
X135170000Y-86107500I0J-172500D01*
G01*
X135170000Y-86452500D01*
G75*
G02*
X134997500Y-86625000I-172500J0D01*
G01*
X134602500Y-86625000D01*
G75*
G02*
X134430000Y-86452500I0J172500D01*
G01*
X134430000Y-86107500D01*
G75*
G02*
X134602500Y-85935000I172500J0D01*
G01*
G37*
G36*
G01*
X134602500Y-86905000D02*
X134997500Y-86905000D01*
G75*
G02*
X135170000Y-87077500I0J-172500D01*
G01*
X135170000Y-87422500D01*
G75*
G02*
X134997500Y-87595000I-172500J0D01*
G01*
X134602500Y-87595000D01*
G75*
G02*
X134430000Y-87422500I0J172500D01*
G01*
X134430000Y-87077500D01*
G75*
G02*
X134602500Y-86905000I172500J0D01*
G01*
G37*
%TD*%
%TO.C,R34*%
G36*
G01*
X161525000Y-85231250D02*
X161525000Y-84668750D01*
G75*
G02*
X161768750Y-84425000I243750J0D01*
G01*
X162256250Y-84425000D01*
G75*
G02*
X162500000Y-84668750I0J-243750D01*
G01*
X162500000Y-85231250D01*
G75*
G02*
X162256250Y-85475000I-243750J0D01*
G01*
X161768750Y-85475000D01*
G75*
G02*
X161525000Y-85231250I0J243750D01*
G01*
G37*
G36*
G01*
X163100000Y-85231250D02*
X163100000Y-84668750D01*
G75*
G02*
X163343750Y-84425000I243750J0D01*
G01*
X163831250Y-84425000D01*
G75*
G02*
X164075000Y-84668750I0J-243750D01*
G01*
X164075000Y-85231250D01*
G75*
G02*
X163831250Y-85475000I-243750J0D01*
G01*
X163343750Y-85475000D01*
G75*
G02*
X163100000Y-85231250I0J243750D01*
G01*
G37*
%TD*%
%TO.C,R35*%
G36*
G01*
X163100000Y-86831250D02*
X163100000Y-86268750D01*
G75*
G02*
X163343750Y-86025000I243750J0D01*
G01*
X163831250Y-86025000D01*
G75*
G02*
X164075000Y-86268750I0J-243750D01*
G01*
X164075000Y-86831250D01*
G75*
G02*
X163831250Y-87075000I-243750J0D01*
G01*
X163343750Y-87075000D01*
G75*
G02*
X163100000Y-86831250I0J243750D01*
G01*
G37*
G36*
G01*
X161525000Y-86831250D02*
X161525000Y-86268750D01*
G75*
G02*
X161768750Y-86025000I243750J0D01*
G01*
X162256250Y-86025000D01*
G75*
G02*
X162500000Y-86268750I0J-243750D01*
G01*
X162500000Y-86831250D01*
G75*
G02*
X162256250Y-87075000I-243750J0D01*
G01*
X161768750Y-87075000D01*
G75*
G02*
X161525000Y-86831250I0J243750D01*
G01*
G37*
%TD*%
%TO.C,R36*%
G36*
G01*
X149152500Y-79485000D02*
X149547500Y-79485000D01*
G75*
G02*
X149720000Y-79657500I0J-172500D01*
G01*
X149720000Y-80002500D01*
G75*
G02*
X149547500Y-80175000I-172500J0D01*
G01*
X149152500Y-80175000D01*
G75*
G02*
X148980000Y-80002500I0J172500D01*
G01*
X148980000Y-79657500D01*
G75*
G02*
X149152500Y-79485000I172500J0D01*
G01*
G37*
G36*
G01*
X149152500Y-80455000D02*
X149547500Y-80455000D01*
G75*
G02*
X149720000Y-80627500I0J-172500D01*
G01*
X149720000Y-80972500D01*
G75*
G02*
X149547500Y-81145000I-172500J0D01*
G01*
X149152500Y-81145000D01*
G75*
G02*
X148980000Y-80972500I0J172500D01*
G01*
X148980000Y-80627500D01*
G75*
G02*
X149152500Y-80455000I172500J0D01*
G01*
G37*
%TD*%
%TO.C,R37*%
G36*
G01*
X136202500Y-81455000D02*
X136597500Y-81455000D01*
G75*
G02*
X136770000Y-81627500I0J-172500D01*
G01*
X136770000Y-81972500D01*
G75*
G02*
X136597500Y-82145000I-172500J0D01*
G01*
X136202500Y-82145000D01*
G75*
G02*
X136030000Y-81972500I0J172500D01*
G01*
X136030000Y-81627500D01*
G75*
G02*
X136202500Y-81455000I172500J0D01*
G01*
G37*
G36*
G01*
X136202500Y-80485000D02*
X136597500Y-80485000D01*
G75*
G02*
X136770000Y-80657500I0J-172500D01*
G01*
X136770000Y-81002500D01*
G75*
G02*
X136597500Y-81175000I-172500J0D01*
G01*
X136202500Y-81175000D01*
G75*
G02*
X136030000Y-81002500I0J172500D01*
G01*
X136030000Y-80657500D01*
G75*
G02*
X136202500Y-80485000I172500J0D01*
G01*
G37*
%TD*%
%TO.C,R40*%
G36*
G01*
X158447500Y-100680000D02*
X158052500Y-100680000D01*
G75*
G02*
X157880000Y-100507500I0J172500D01*
G01*
X157880000Y-100162500D01*
G75*
G02*
X158052500Y-99990000I172500J0D01*
G01*
X158447500Y-99990000D01*
G75*
G02*
X158620000Y-100162500I0J-172500D01*
G01*
X158620000Y-100507500D01*
G75*
G02*
X158447500Y-100680000I-172500J0D01*
G01*
G37*
G36*
G01*
X158447500Y-99710000D02*
X158052500Y-99710000D01*
G75*
G02*
X157880000Y-99537500I0J172500D01*
G01*
X157880000Y-99192500D01*
G75*
G02*
X158052500Y-99020000I172500J0D01*
G01*
X158447500Y-99020000D01*
G75*
G02*
X158620000Y-99192500I0J-172500D01*
G01*
X158620000Y-99537500D01*
G75*
G02*
X158447500Y-99710000I-172500J0D01*
G01*
G37*
%TD*%
%TO.C,R41*%
G36*
G01*
X152002500Y-90755000D02*
X152397500Y-90755000D01*
G75*
G02*
X152570000Y-90927500I0J-172500D01*
G01*
X152570000Y-91272500D01*
G75*
G02*
X152397500Y-91445000I-172500J0D01*
G01*
X152002500Y-91445000D01*
G75*
G02*
X151830000Y-91272500I0J172500D01*
G01*
X151830000Y-90927500D01*
G75*
G02*
X152002500Y-90755000I172500J0D01*
G01*
G37*
G36*
G01*
X152002500Y-91725000D02*
X152397500Y-91725000D01*
G75*
G02*
X152570000Y-91897500I0J-172500D01*
G01*
X152570000Y-92242500D01*
G75*
G02*
X152397500Y-92415000I-172500J0D01*
G01*
X152002500Y-92415000D01*
G75*
G02*
X151830000Y-92242500I0J172500D01*
G01*
X151830000Y-91897500D01*
G75*
G02*
X152002500Y-91725000I172500J0D01*
G01*
G37*
%TD*%
%TO.C,R42*%
G36*
G01*
X135860000Y-88302500D02*
X135860000Y-88697500D01*
G75*
G02*
X135687500Y-88870000I-172500J0D01*
G01*
X135342500Y-88870000D01*
G75*
G02*
X135170000Y-88697500I0J172500D01*
G01*
X135170000Y-88302500D01*
G75*
G02*
X135342500Y-88130000I172500J0D01*
G01*
X135687500Y-88130000D01*
G75*
G02*
X135860000Y-88302500I0J-172500D01*
G01*
G37*
G36*
G01*
X136830000Y-88302500D02*
X136830000Y-88697500D01*
G75*
G02*
X136657500Y-88870000I-172500J0D01*
G01*
X136312500Y-88870000D01*
G75*
G02*
X136140000Y-88697500I0J172500D01*
G01*
X136140000Y-88302500D01*
G75*
G02*
X136312500Y-88130000I172500J0D01*
G01*
X136657500Y-88130000D01*
G75*
G02*
X136830000Y-88302500I0J-172500D01*
G01*
G37*
%TD*%
%TO.C,R43*%
G36*
G01*
X157047500Y-93925000D02*
X156652500Y-93925000D01*
G75*
G02*
X156480000Y-93752500I0J172500D01*
G01*
X156480000Y-93407500D01*
G75*
G02*
X156652500Y-93235000I172500J0D01*
G01*
X157047500Y-93235000D01*
G75*
G02*
X157220000Y-93407500I0J-172500D01*
G01*
X157220000Y-93752500D01*
G75*
G02*
X157047500Y-93925000I-172500J0D01*
G01*
G37*
G36*
G01*
X157047500Y-94895000D02*
X156652500Y-94895000D01*
G75*
G02*
X156480000Y-94722500I0J172500D01*
G01*
X156480000Y-94377500D01*
G75*
G02*
X156652500Y-94205000I172500J0D01*
G01*
X157047500Y-94205000D01*
G75*
G02*
X157220000Y-94377500I0J-172500D01*
G01*
X157220000Y-94722500D01*
G75*
G02*
X157047500Y-94895000I-172500J0D01*
G01*
G37*
%TD*%
%TO.C,R44*%
G36*
G01*
X157047500Y-99710000D02*
X156652500Y-99710000D01*
G75*
G02*
X156480000Y-99537500I0J172500D01*
G01*
X156480000Y-99192500D01*
G75*
G02*
X156652500Y-99020000I172500J0D01*
G01*
X157047500Y-99020000D01*
G75*
G02*
X157220000Y-99192500I0J-172500D01*
G01*
X157220000Y-99537500D01*
G75*
G02*
X157047500Y-99710000I-172500J0D01*
G01*
G37*
G36*
G01*
X157047500Y-100680000D02*
X156652500Y-100680000D01*
G75*
G02*
X156480000Y-100507500I0J172500D01*
G01*
X156480000Y-100162500D01*
G75*
G02*
X156652500Y-99990000I172500J0D01*
G01*
X157047500Y-99990000D01*
G75*
G02*
X157220000Y-100162500I0J-172500D01*
G01*
X157220000Y-100507500D01*
G75*
G02*
X157047500Y-100680000I-172500J0D01*
G01*
G37*
%TD*%
%TO.C,R45*%
G36*
G01*
X137450000Y-86068750D02*
X137450000Y-87031250D01*
G75*
G02*
X137181250Y-87300000I-268750J0D01*
G01*
X136643750Y-87300000D01*
G75*
G02*
X136375000Y-87031250I0J268750D01*
G01*
X136375000Y-86068750D01*
G75*
G02*
X136643750Y-85800000I268750J0D01*
G01*
X137181250Y-85800000D01*
G75*
G02*
X137450000Y-86068750I0J-268750D01*
G01*
G37*
G36*
G01*
X139325000Y-86068750D02*
X139325000Y-87031250D01*
G75*
G02*
X139056250Y-87300000I-268750J0D01*
G01*
X138518750Y-87300000D01*
G75*
G02*
X138250000Y-87031250I0J268750D01*
G01*
X138250000Y-86068750D01*
G75*
G02*
X138518750Y-85800000I268750J0D01*
G01*
X139056250Y-85800000D01*
G75*
G02*
X139325000Y-86068750I0J-268750D01*
G01*
G37*
%TD*%
%TO.C,R48*%
G36*
G01*
X158447500Y-94880000D02*
X158052500Y-94880000D01*
G75*
G02*
X157880000Y-94707500I0J172500D01*
G01*
X157880000Y-94362500D01*
G75*
G02*
X158052500Y-94190000I172500J0D01*
G01*
X158447500Y-94190000D01*
G75*
G02*
X158620000Y-94362500I0J-172500D01*
G01*
X158620000Y-94707500D01*
G75*
G02*
X158447500Y-94880000I-172500J0D01*
G01*
G37*
G36*
G01*
X158447500Y-93910000D02*
X158052500Y-93910000D01*
G75*
G02*
X157880000Y-93737500I0J172500D01*
G01*
X157880000Y-93392500D01*
G75*
G02*
X158052500Y-93220000I172500J0D01*
G01*
X158447500Y-93220000D01*
G75*
G02*
X158620000Y-93392500I0J-172500D01*
G01*
X158620000Y-93737500D01*
G75*
G02*
X158447500Y-93910000I-172500J0D01*
G01*
G37*
%TD*%
%TO.C,C36*%
G36*
G01*
X116240000Y-72682500D02*
X116240000Y-72157500D01*
G75*
G02*
X116502500Y-71895000I262500J0D01*
G01*
X117127500Y-71895000D01*
G75*
G02*
X117390000Y-72157500I0J-262500D01*
G01*
X117390000Y-72682500D01*
G75*
G02*
X117127500Y-72945000I-262500J0D01*
G01*
X116502500Y-72945000D01*
G75*
G02*
X116240000Y-72682500I0J262500D01*
G01*
G37*
G36*
G01*
X114490000Y-72682500D02*
X114490000Y-72157500D01*
G75*
G02*
X114752500Y-71895000I262500J0D01*
G01*
X115377500Y-71895000D01*
G75*
G02*
X115640000Y-72157500I0J-262500D01*
G01*
X115640000Y-72682500D01*
G75*
G02*
X115377500Y-72945000I-262500J0D01*
G01*
X114752500Y-72945000D01*
G75*
G02*
X114490000Y-72682500I0J262500D01*
G01*
G37*
%TD*%
%TO.C,C45*%
G36*
G01*
X111565000Y-78482500D02*
X111565000Y-77957500D01*
G75*
G02*
X111827500Y-77695000I262500J0D01*
G01*
X112452500Y-77695000D01*
G75*
G02*
X112715000Y-77957500I0J-262500D01*
G01*
X112715000Y-78482500D01*
G75*
G02*
X112452500Y-78745000I-262500J0D01*
G01*
X111827500Y-78745000D01*
G75*
G02*
X111565000Y-78482500I0J262500D01*
G01*
G37*
G36*
G01*
X113315000Y-78482500D02*
X113315000Y-77957500D01*
G75*
G02*
X113577500Y-77695000I262500J0D01*
G01*
X114202500Y-77695000D01*
G75*
G02*
X114465000Y-77957500I0J-262500D01*
G01*
X114465000Y-78482500D01*
G75*
G02*
X114202500Y-78745000I-262500J0D01*
G01*
X113577500Y-78745000D01*
G75*
G02*
X113315000Y-78482500I0J262500D01*
G01*
G37*
%TD*%
%TO.C,C46*%
G36*
G01*
X110740000Y-73357500D02*
X110740000Y-73882500D01*
G75*
G02*
X110477500Y-74145000I-262500J0D01*
G01*
X109852500Y-74145000D01*
G75*
G02*
X109590000Y-73882500I0J262500D01*
G01*
X109590000Y-73357500D01*
G75*
G02*
X109852500Y-73095000I262500J0D01*
G01*
X110477500Y-73095000D01*
G75*
G02*
X110740000Y-73357500I0J-262500D01*
G01*
G37*
G36*
G01*
X112490000Y-73357500D02*
X112490000Y-73882500D01*
G75*
G02*
X112227500Y-74145000I-262500J0D01*
G01*
X111602500Y-74145000D01*
G75*
G02*
X111340000Y-73882500I0J262500D01*
G01*
X111340000Y-73357500D01*
G75*
G02*
X111602500Y-73095000I262500J0D01*
G01*
X112227500Y-73095000D01*
G75*
G02*
X112490000Y-73357500I0J-262500D01*
G01*
G37*
%TD*%
%TO.C,C47*%
G36*
G01*
X112490000Y-71857500D02*
X112490000Y-72382500D01*
G75*
G02*
X112227500Y-72645000I-262500J0D01*
G01*
X111602500Y-72645000D01*
G75*
G02*
X111340000Y-72382500I0J262500D01*
G01*
X111340000Y-71857500D01*
G75*
G02*
X111602500Y-71595000I262500J0D01*
G01*
X112227500Y-71595000D01*
G75*
G02*
X112490000Y-71857500I0J-262500D01*
G01*
G37*
G36*
G01*
X110740000Y-71857500D02*
X110740000Y-72382500D01*
G75*
G02*
X110477500Y-72645000I-262500J0D01*
G01*
X109852500Y-72645000D01*
G75*
G02*
X109590000Y-72382500I0J262500D01*
G01*
X109590000Y-71857500D01*
G75*
G02*
X109852500Y-71595000I262500J0D01*
G01*
X110477500Y-71595000D01*
G75*
G02*
X110740000Y-71857500I0J-262500D01*
G01*
G37*
%TD*%
D13*
%TO.C,J2*%
X117180000Y-83880000D03*
X117180000Y-81340000D03*
X114640000Y-83880000D03*
X114640000Y-81340000D03*
X112100000Y-83880000D03*
D14*
X112100000Y-81340000D03*
%TD*%
%TO.C,L2*%
G36*
G01*
X112750000Y-74840000D02*
X112750000Y-76600000D01*
G75*
G02*
X112480000Y-76870000I-270000J0D01*
G01*
X111670000Y-76870000D01*
G75*
G02*
X111400000Y-76600000I0J270000D01*
G01*
X111400000Y-74840000D01*
G75*
G02*
X111670000Y-74570000I270000J0D01*
G01*
X112480000Y-74570000D01*
G75*
G02*
X112750000Y-74840000I0J-270000D01*
G01*
G37*
G36*
G01*
X110600000Y-74840000D02*
X110600000Y-76600000D01*
G75*
G02*
X110330000Y-76870000I-270000J0D01*
G01*
X109520000Y-76870000D01*
G75*
G02*
X109250000Y-76600000I0J270000D01*
G01*
X109250000Y-74840000D01*
G75*
G02*
X109520000Y-74570000I270000J0D01*
G01*
X110330000Y-74570000D01*
G75*
G02*
X110600000Y-74840000I0J-270000D01*
G01*
G37*
%TD*%
D31*
%TO.C,U2*%
X116760000Y-76270000D03*
X116760000Y-75320000D03*
X116760000Y-74370000D03*
X114140000Y-74370000D03*
X114140000Y-75320000D03*
X114140000Y-76270000D03*
%TD*%
%TO.C,C48*%
G36*
G01*
X118095000Y-68302500D02*
X118095000Y-68697500D01*
G75*
G02*
X117922500Y-68870000I-172500J0D01*
G01*
X117577500Y-68870000D01*
G75*
G02*
X117405000Y-68697500I0J172500D01*
G01*
X117405000Y-68302500D01*
G75*
G02*
X117577500Y-68130000I172500J0D01*
G01*
X117922500Y-68130000D01*
G75*
G02*
X118095000Y-68302500I0J-172500D01*
G01*
G37*
G36*
G01*
X117125000Y-68302500D02*
X117125000Y-68697500D01*
G75*
G02*
X116952500Y-68870000I-172500J0D01*
G01*
X116607500Y-68870000D01*
G75*
G02*
X116435000Y-68697500I0J172500D01*
G01*
X116435000Y-68302500D01*
G75*
G02*
X116607500Y-68130000I172500J0D01*
G01*
X116952500Y-68130000D01*
G75*
G02*
X117125000Y-68302500I0J-172500D01*
G01*
G37*
%TD*%
%TO.C,R17*%
G36*
G01*
X112905000Y-68697500D02*
X112905000Y-68302500D01*
G75*
G02*
X113077500Y-68130000I172500J0D01*
G01*
X113422500Y-68130000D01*
G75*
G02*
X113595000Y-68302500I0J-172500D01*
G01*
X113595000Y-68697500D01*
G75*
G02*
X113422500Y-68870000I-172500J0D01*
G01*
X113077500Y-68870000D01*
G75*
G02*
X112905000Y-68697500I0J172500D01*
G01*
G37*
G36*
G01*
X111935000Y-68697500D02*
X111935000Y-68302500D01*
G75*
G02*
X112107500Y-68130000I172500J0D01*
G01*
X112452500Y-68130000D01*
G75*
G02*
X112625000Y-68302500I0J-172500D01*
G01*
X112625000Y-68697500D01*
G75*
G02*
X112452500Y-68870000I-172500J0D01*
G01*
X112107500Y-68870000D01*
G75*
G02*
X111935000Y-68697500I0J172500D01*
G01*
G37*
%TD*%
%TO.C,R19*%
G36*
G01*
X111052500Y-67185000D02*
X111447500Y-67185000D01*
G75*
G02*
X111620000Y-67357500I0J-172500D01*
G01*
X111620000Y-67702500D01*
G75*
G02*
X111447500Y-67875000I-172500J0D01*
G01*
X111052500Y-67875000D01*
G75*
G02*
X110880000Y-67702500I0J172500D01*
G01*
X110880000Y-67357500D01*
G75*
G02*
X111052500Y-67185000I172500J0D01*
G01*
G37*
G36*
G01*
X111052500Y-68155000D02*
X111447500Y-68155000D01*
G75*
G02*
X111620000Y-68327500I0J-172500D01*
G01*
X111620000Y-68672500D01*
G75*
G02*
X111447500Y-68845000I-172500J0D01*
G01*
X111052500Y-68845000D01*
G75*
G02*
X110880000Y-68672500I0J172500D01*
G01*
X110880000Y-68327500D01*
G75*
G02*
X111052500Y-68155000I172500J0D01*
G01*
G37*
%TD*%
%TO.C,R22*%
G36*
G01*
X114405000Y-68697500D02*
X114405000Y-68302500D01*
G75*
G02*
X114577500Y-68130000I172500J0D01*
G01*
X114922500Y-68130000D01*
G75*
G02*
X115095000Y-68302500I0J-172500D01*
G01*
X115095000Y-68697500D01*
G75*
G02*
X114922500Y-68870000I-172500J0D01*
G01*
X114577500Y-68870000D01*
G75*
G02*
X114405000Y-68697500I0J172500D01*
G01*
G37*
G36*
G01*
X115375000Y-68697500D02*
X115375000Y-68302500D01*
G75*
G02*
X115547500Y-68130000I172500J0D01*
G01*
X115892500Y-68130000D01*
G75*
G02*
X116065000Y-68302500I0J-172500D01*
G01*
X116065000Y-68697500D01*
G75*
G02*
X115892500Y-68870000I-172500J0D01*
G01*
X115547500Y-68870000D01*
G75*
G02*
X115375000Y-68697500I0J172500D01*
G01*
G37*
%TD*%
M02*
