%TF.GenerationSoftware,KiCad,Pcbnew,(5.1.6)-1*%
%TF.CreationDate,2020-09-22T17:38:13-04:00*%
%TF.ProjectId,wireless_charger,77697265-6c65-4737-935f-636861726765,rev?*%
%TF.SameCoordinates,Original*%
%TF.FileFunction,Legend,Top*%
%TF.FilePolarity,Positive*%
%FSLAX46Y46*%
G04 Gerber Fmt 4.6, Leading zero omitted, Abs format (unit mm)*
G04 Created by KiCad (PCBNEW (5.1.6)-1) date 2020-09-22 17:38:13*
%MOMM*%
%LPD*%
G01*
G04 APERTURE LIST*
%ADD10C,0.120000*%
%ADD11C,0.127000*%
%ADD12C,0.200000*%
%ADD13C,0.400000*%
%ADD14C,0.150000*%
%ADD15C,0.015000*%
G04 APERTURE END LIST*
D10*
%TO.C,TH1*%
X148553922Y-78210000D02*
X149071078Y-78210000D01*
X148553922Y-76790000D02*
X149071078Y-76790000D01*
%TO.C,U3*%
X115000000Y-64440000D02*
X112550000Y-64440000D01*
X113200000Y-67660000D02*
X115000000Y-67660000D01*
%TO.C,Q9*%
X119780000Y-62240000D02*
X119780000Y-63700000D01*
X116620000Y-62240000D02*
X116620000Y-64400000D01*
X116620000Y-62240000D02*
X117550000Y-62240000D01*
X119780000Y-62240000D02*
X118850000Y-62240000D01*
%TO.C,D3*%
X121600000Y-57250000D02*
X117700000Y-57250000D01*
X121600000Y-55250000D02*
X117700000Y-55250000D01*
X121600000Y-57250000D02*
X121600000Y-55250000D01*
D11*
%TO.C,Q4*%
X134000000Y-88750000D02*
X133848500Y-88750000D01*
X134000000Y-85450000D02*
X133848500Y-85450000D01*
X130700000Y-85450000D02*
X130851500Y-85450000D01*
X130700000Y-88750000D02*
X130851500Y-88750000D01*
X134000000Y-88750000D02*
X134000000Y-85450000D01*
X130700000Y-85450000D02*
X130700000Y-88750000D01*
D12*
X131475000Y-89500000D02*
G75*
G03*
X131475000Y-89500000I-100000J0D01*
G01*
D11*
%TO.C,Q3*%
X150050000Y-88750000D02*
X149898500Y-88750000D01*
X150050000Y-85450000D02*
X149898500Y-85450000D01*
X146750000Y-85450000D02*
X146901500Y-85450000D01*
X146750000Y-88750000D02*
X146901500Y-88750000D01*
X150050000Y-88750000D02*
X150050000Y-85450000D01*
X146750000Y-85450000D02*
X146750000Y-88750000D01*
D12*
X147525000Y-89500000D02*
G75*
G03*
X147525000Y-89500000I-100000J0D01*
G01*
D11*
%TO.C,Q2*%
X139800000Y-85450000D02*
X139951500Y-85450000D01*
X139800000Y-88750000D02*
X139951500Y-88750000D01*
X143100000Y-88750000D02*
X142948500Y-88750000D01*
X143100000Y-85450000D02*
X142948500Y-85450000D01*
X139800000Y-85450000D02*
X139800000Y-88750000D01*
X143100000Y-88750000D02*
X143100000Y-85450000D01*
D12*
X142525000Y-84700000D02*
G75*
G03*
X142525000Y-84700000I-100000J0D01*
G01*
D11*
%TO.C,Q1*%
X123750000Y-85400000D02*
X123901500Y-85400000D01*
X123750000Y-88700000D02*
X123901500Y-88700000D01*
X127050000Y-88700000D02*
X126898500Y-88700000D01*
X127050000Y-85400000D02*
X126898500Y-85400000D01*
X123750000Y-85400000D02*
X123750000Y-88700000D01*
X127050000Y-88700000D02*
X127050000Y-85400000D01*
D12*
X126475000Y-84650000D02*
G75*
G03*
X126475000Y-84650000I-100000J0D01*
G01*
%TO.C,U1*%
X134100000Y-101610000D02*
G75*
G03*
X134100000Y-101610000I-100000J0D01*
G01*
D11*
X139200000Y-94650000D02*
X139200000Y-95020000D01*
X133200000Y-94650000D02*
X133200000Y-95020000D01*
X139200000Y-100650000D02*
X139200000Y-100280000D01*
X133200000Y-100650000D02*
X133200000Y-100280000D01*
X139200000Y-94650000D02*
X138830000Y-94650000D01*
X133200000Y-94650000D02*
X133570000Y-94650000D01*
X139200000Y-100650000D02*
X138830000Y-100650000D01*
X133200000Y-100650000D02*
X133570000Y-100650000D01*
D10*
%TO.C,R33*%
X145171078Y-82840000D02*
X144653922Y-82840000D01*
X145171078Y-84260000D02*
X144653922Y-84260000D01*
%TO.C,C5*%
X140240000Y-104849721D02*
X140240000Y-105175279D01*
X141260000Y-104849721D02*
X141260000Y-105175279D01*
%TO.C,C10*%
X136910000Y-83837221D02*
X136910000Y-84162779D01*
X135890000Y-83837221D02*
X135890000Y-84162779D01*
%TO.C,C11*%
X149910000Y-82887221D02*
X149910000Y-83212779D01*
X148890000Y-82887221D02*
X148890000Y-83212779D01*
%TO.C,C14*%
X134575279Y-106210000D02*
X134249721Y-106210000D01*
X134575279Y-105190000D02*
X134249721Y-105190000D01*
%TO.C,C18*%
X148625279Y-100910000D02*
X148299721Y-100910000D01*
X148625279Y-99890000D02*
X148299721Y-99890000D01*
%TO.C,C19*%
X125712779Y-94810000D02*
X125387221Y-94810000D01*
X125712779Y-93790000D02*
X125387221Y-93790000D01*
%TO.C,C20*%
X131560000Y-82252064D02*
X131560000Y-81047936D01*
X129740000Y-82252064D02*
X129740000Y-81047936D01*
%TO.C,C23*%
X125240000Y-82252064D02*
X125240000Y-81047936D01*
X127060000Y-82252064D02*
X127060000Y-81047936D01*
%TO.C,C24*%
X133810000Y-82252064D02*
X133810000Y-81047936D01*
X131990000Y-82252064D02*
X131990000Y-81047936D01*
%TO.C,C25*%
X127490000Y-82252064D02*
X127490000Y-81047936D01*
X129310000Y-82252064D02*
X129310000Y-81047936D01*
%TO.C,C28*%
X114327936Y-87460000D02*
X115532064Y-87460000D01*
X114327936Y-89280000D02*
X115532064Y-89280000D01*
%TO.C,C31*%
X129560000Y-95099721D02*
X129560000Y-95425279D01*
X128540000Y-95099721D02*
X128540000Y-95425279D01*
%TO.C,C32*%
X114327936Y-91580000D02*
X115532064Y-91580000D01*
X114327936Y-89760000D02*
X115532064Y-89760000D01*
%TO.C,C35*%
X151660000Y-85762779D02*
X151660000Y-85437221D01*
X150640000Y-85762779D02*
X150640000Y-85437221D01*
%TO.C,C37*%
X145062779Y-89060000D02*
X144737221Y-89060000D01*
X145062779Y-88040000D02*
X144737221Y-88040000D01*
%TO.C,C38*%
X129062779Y-88040000D02*
X128737221Y-88040000D01*
X129062779Y-89060000D02*
X128737221Y-89060000D01*
%TO.C,C39*%
X162962779Y-89240000D02*
X162637221Y-89240000D01*
X162962779Y-90260000D02*
X162637221Y-90260000D01*
%TO.C,C40*%
X145062779Y-86290000D02*
X144737221Y-86290000D01*
X145062779Y-87310000D02*
X144737221Y-87310000D01*
%TO.C,C41*%
X129062779Y-87310000D02*
X128737221Y-87310000D01*
X129062779Y-86290000D02*
X128737221Y-86290000D01*
%TO.C,C42*%
X122925829Y-105858769D02*
X122695624Y-106088974D01*
X123647078Y-106580018D02*
X123416873Y-106810223D01*
%TO.C,C43*%
X120450955Y-103383895D02*
X120220750Y-103614100D01*
X121172204Y-104105144D02*
X120941999Y-104335349D01*
%TO.C,C44*%
X121688392Y-104621332D02*
X121458187Y-104851537D01*
X122409641Y-105342581D02*
X122179436Y-105572786D01*
%TO.C,D1*%
X122650000Y-83800000D02*
X122650000Y-79900000D01*
X124650000Y-83800000D02*
X124650000Y-79900000D01*
X122650000Y-83800000D02*
X124650000Y-83800000D01*
%TO.C,D2*%
X156550000Y-86550000D02*
X156550000Y-84550000D01*
X156550000Y-84550000D02*
X152650000Y-84550000D01*
X156550000Y-86550000D02*
X152650000Y-86550000D01*
D13*
%TO.C,J1*%
X119940000Y-96840000D02*
G75*
G03*
X119940000Y-96840000I-200000J0D01*
G01*
D11*
X118440000Y-99390000D02*
X118440000Y-101340000D01*
X112190000Y-101340000D02*
X104040000Y-101340000D01*
X118440000Y-92340000D02*
X118440000Y-94190000D01*
X118440000Y-101340000D02*
X117290000Y-101340000D01*
X104040000Y-92340000D02*
X118440000Y-92340000D01*
X104040000Y-101340000D02*
X104040000Y-92340000D01*
D10*
%TO.C,L1*%
X137650279Y-105290000D02*
X137324721Y-105290000D01*
X137650279Y-106310000D02*
X137324721Y-106310000D01*
%TO.C,FLT_LED1*%
X168535000Y-101447500D02*
X168535000Y-99162500D01*
X167065000Y-101447500D02*
X168535000Y-101447500D01*
X167065000Y-99162500D02*
X167065000Y-101447500D01*
%TO.C,CHG_LED1*%
X168535000Y-96300000D02*
X168535000Y-94015000D01*
X168535000Y-94015000D02*
X167065000Y-94015000D01*
X167065000Y-94015000D02*
X167065000Y-96300000D01*
%TO.C,Q5*%
X153340000Y-86970000D02*
X154800000Y-86970000D01*
X153340000Y-90130000D02*
X155500000Y-90130000D01*
X153340000Y-90130000D02*
X153340000Y-89200000D01*
X153340000Y-86970000D02*
X153340000Y-87900000D01*
%TO.C,Q6*%
X139400000Y-88350000D02*
X139400000Y-90300000D01*
X137100000Y-90300000D02*
X137100000Y-88800000D01*
X139400000Y-88350000D02*
X139300000Y-88350000D01*
%TO.C,Q7*%
X157140000Y-86970000D02*
X157140000Y-87900000D01*
X157140000Y-90130000D02*
X157140000Y-89200000D01*
X157140000Y-90130000D02*
X159300000Y-90130000D01*
X157140000Y-86970000D02*
X158600000Y-86970000D01*
%TO.C,Q8*%
X153240000Y-101270000D02*
X154700000Y-101270000D01*
X153240000Y-104430000D02*
X155400000Y-104430000D01*
X153240000Y-104430000D02*
X153240000Y-103500000D01*
X153240000Y-101270000D02*
X153240000Y-102200000D01*
%TO.C,R10*%
X151662779Y-95590000D02*
X151337221Y-95590000D01*
X151662779Y-96610000D02*
X151337221Y-96610000D01*
%TO.C,R11*%
X125387221Y-93310000D02*
X125712779Y-93310000D01*
X125387221Y-92290000D02*
X125712779Y-92290000D01*
%TO.C,R12*%
X162637221Y-87640000D02*
X162962779Y-87640000D01*
X162637221Y-88660000D02*
X162962779Y-88660000D01*
%TO.C,R18*%
X120396078Y-87640000D02*
X119878922Y-87640000D01*
X120396078Y-89060000D02*
X119878922Y-89060000D01*
%TO.C,R34*%
X162637221Y-85460000D02*
X162962779Y-85460000D01*
X162637221Y-84440000D02*
X162962779Y-84440000D01*
%TO.C,R35*%
X162637221Y-86040000D02*
X162962779Y-86040000D01*
X162637221Y-87060000D02*
X162962779Y-87060000D01*
%TO.C,R45*%
X138108578Y-87260000D02*
X137591422Y-87260000D01*
X138108578Y-85840000D02*
X137591422Y-85840000D01*
%TO.C,C36*%
X115768733Y-72930000D02*
X116111267Y-72930000D01*
X115768733Y-71910000D02*
X116111267Y-71910000D01*
%TO.C,C45*%
X112843733Y-77710000D02*
X113186267Y-77710000D01*
X112843733Y-78730000D02*
X113186267Y-78730000D01*
%TO.C,C46*%
X111211267Y-73110000D02*
X110868733Y-73110000D01*
X111211267Y-74130000D02*
X110868733Y-74130000D01*
%TO.C,C47*%
X111211267Y-72630000D02*
X110868733Y-72630000D01*
X111211267Y-71610000D02*
X110868733Y-71610000D01*
%TO.C,L2*%
X111261252Y-76830000D02*
X110738748Y-76830000D01*
X111261252Y-74610000D02*
X110738748Y-74610000D01*
%TO.C,U2*%
X116330000Y-73760000D02*
X114570000Y-73760000D01*
X114570000Y-76830000D02*
X117000000Y-76830000D01*
%TO.C,TH1*%
D14*
X147526785Y-75302380D02*
X148098214Y-75302380D01*
X147812500Y-76302380D02*
X147812500Y-75302380D01*
X148431547Y-76302380D02*
X148431547Y-75302380D01*
X148431547Y-75778571D02*
X149002976Y-75778571D01*
X149002976Y-76302380D02*
X149002976Y-75302380D01*
X150002976Y-76302380D02*
X149431547Y-76302380D01*
X149717261Y-76302380D02*
X149717261Y-75302380D01*
X149622023Y-75445238D01*
X149526785Y-75540476D01*
X149431547Y-75588095D01*
%TO.C,U3*%
X110488095Y-65702380D02*
X110488095Y-66511904D01*
X110535714Y-66607142D01*
X110583333Y-66654761D01*
X110678571Y-66702380D01*
X110869047Y-66702380D01*
X110964285Y-66654761D01*
X111011904Y-66607142D01*
X111059523Y-66511904D01*
X111059523Y-65702380D01*
X111440476Y-65702380D02*
X112059523Y-65702380D01*
X111726190Y-66083333D01*
X111869047Y-66083333D01*
X111964285Y-66130952D01*
X112011904Y-66178571D01*
X112059523Y-66273809D01*
X112059523Y-66511904D01*
X112011904Y-66607142D01*
X111964285Y-66654761D01*
X111869047Y-66702380D01*
X111583333Y-66702380D01*
X111488095Y-66654761D01*
X111440476Y-66607142D01*
%TO.C,R9*%
X117083333Y-68702380D02*
X116750000Y-68226190D01*
X116511904Y-68702380D02*
X116511904Y-67702380D01*
X116892857Y-67702380D01*
X116988095Y-67750000D01*
X117035714Y-67797619D01*
X117083333Y-67892857D01*
X117083333Y-68035714D01*
X117035714Y-68130952D01*
X116988095Y-68178571D01*
X116892857Y-68226190D01*
X116511904Y-68226190D01*
X117559523Y-68702380D02*
X117750000Y-68702380D01*
X117845238Y-68654761D01*
X117892857Y-68607142D01*
X117988095Y-68464285D01*
X118035714Y-68273809D01*
X118035714Y-67892857D01*
X117988095Y-67797619D01*
X117940476Y-67750000D01*
X117845238Y-67702380D01*
X117654761Y-67702380D01*
X117559523Y-67750000D01*
X117511904Y-67797619D01*
X117464285Y-67892857D01*
X117464285Y-68130952D01*
X117511904Y-68226190D01*
X117559523Y-68273809D01*
X117654761Y-68321428D01*
X117845238Y-68321428D01*
X117940476Y-68273809D01*
X117988095Y-68226190D01*
X118035714Y-68130952D01*
%TO.C,Q9*%
X121154761Y-63697619D02*
X121059523Y-63650000D01*
X120964285Y-63554761D01*
X120821428Y-63411904D01*
X120726190Y-63364285D01*
X120630952Y-63364285D01*
X120678571Y-63602380D02*
X120583333Y-63554761D01*
X120488095Y-63459523D01*
X120440476Y-63269047D01*
X120440476Y-62935714D01*
X120488095Y-62745238D01*
X120583333Y-62650000D01*
X120678571Y-62602380D01*
X120869047Y-62602380D01*
X120964285Y-62650000D01*
X121059523Y-62745238D01*
X121107142Y-62935714D01*
X121107142Y-63269047D01*
X121059523Y-63459523D01*
X120964285Y-63554761D01*
X120869047Y-63602380D01*
X120678571Y-63602380D01*
X121583333Y-63602380D02*
X121773809Y-63602380D01*
X121869047Y-63554761D01*
X121916666Y-63507142D01*
X122011904Y-63364285D01*
X122059523Y-63173809D01*
X122059523Y-62792857D01*
X122011904Y-62697619D01*
X121964285Y-62650000D01*
X121869047Y-62602380D01*
X121678571Y-62602380D01*
X121583333Y-62650000D01*
X121535714Y-62697619D01*
X121488095Y-62792857D01*
X121488095Y-63030952D01*
X121535714Y-63126190D01*
X121583333Y-63173809D01*
X121678571Y-63221428D01*
X121869047Y-63221428D01*
X121964285Y-63173809D01*
X122011904Y-63126190D01*
X122059523Y-63030952D01*
%TO.C,D3*%
X114761904Y-56852380D02*
X114761904Y-55852380D01*
X115000000Y-55852380D01*
X115142857Y-55900000D01*
X115238095Y-55995238D01*
X115285714Y-56090476D01*
X115333333Y-56280952D01*
X115333333Y-56423809D01*
X115285714Y-56614285D01*
X115238095Y-56709523D01*
X115142857Y-56804761D01*
X115000000Y-56852380D01*
X114761904Y-56852380D01*
X115666666Y-55852380D02*
X116285714Y-55852380D01*
X115952380Y-56233333D01*
X116095238Y-56233333D01*
X116190476Y-56280952D01*
X116238095Y-56328571D01*
X116285714Y-56423809D01*
X116285714Y-56661904D01*
X116238095Y-56757142D01*
X116190476Y-56804761D01*
X116095238Y-56852380D01*
X115809523Y-56852380D01*
X115714285Y-56804761D01*
X115666666Y-56757142D01*
%TO.C,R5*%
X108333333Y-86452380D02*
X108000000Y-85976190D01*
X107761904Y-86452380D02*
X107761904Y-85452380D01*
X108142857Y-85452380D01*
X108238095Y-85500000D01*
X108285714Y-85547619D01*
X108333333Y-85642857D01*
X108333333Y-85785714D01*
X108285714Y-85880952D01*
X108238095Y-85928571D01*
X108142857Y-85976190D01*
X107761904Y-85976190D01*
X109238095Y-85452380D02*
X108761904Y-85452380D01*
X108714285Y-85928571D01*
X108761904Y-85880952D01*
X108857142Y-85833333D01*
X109095238Y-85833333D01*
X109190476Y-85880952D01*
X109238095Y-85928571D01*
X109285714Y-86023809D01*
X109285714Y-86261904D01*
X109238095Y-86357142D01*
X109190476Y-86404761D01*
X109095238Y-86452380D01*
X108857142Y-86452380D01*
X108761904Y-86404761D01*
X108714285Y-86357142D01*
%TO.C,R2*%
X108333333Y-87952380D02*
X108000000Y-87476190D01*
X107761904Y-87952380D02*
X107761904Y-86952380D01*
X108142857Y-86952380D01*
X108238095Y-87000000D01*
X108285714Y-87047619D01*
X108333333Y-87142857D01*
X108333333Y-87285714D01*
X108285714Y-87380952D01*
X108238095Y-87428571D01*
X108142857Y-87476190D01*
X107761904Y-87476190D01*
X108714285Y-87047619D02*
X108761904Y-87000000D01*
X108857142Y-86952380D01*
X109095238Y-86952380D01*
X109190476Y-87000000D01*
X109238095Y-87047619D01*
X109285714Y-87142857D01*
X109285714Y-87238095D01*
X109238095Y-87380952D01*
X108666666Y-87952380D01*
X109285714Y-87952380D01*
%TO.C,Q4*%
D15*
X132289047Y-84850476D02*
X132228095Y-84820000D01*
X132167142Y-84759047D01*
X132075714Y-84667619D01*
X132014761Y-84637142D01*
X131953809Y-84637142D01*
X131984285Y-84789523D02*
X131923333Y-84759047D01*
X131862380Y-84698095D01*
X131831904Y-84576190D01*
X131831904Y-84362857D01*
X131862380Y-84240952D01*
X131923333Y-84180000D01*
X131984285Y-84149523D01*
X132106190Y-84149523D01*
X132167142Y-84180000D01*
X132228095Y-84240952D01*
X132258571Y-84362857D01*
X132258571Y-84576190D01*
X132228095Y-84698095D01*
X132167142Y-84759047D01*
X132106190Y-84789523D01*
X131984285Y-84789523D01*
X132807142Y-84362857D02*
X132807142Y-84789523D01*
X132654761Y-84119047D02*
X132502380Y-84576190D01*
X132898571Y-84576190D01*
%TO.C,Q3*%
X148289047Y-90250476D02*
X148228095Y-90220000D01*
X148167142Y-90159047D01*
X148075714Y-90067619D01*
X148014761Y-90037142D01*
X147953809Y-90037142D01*
X147984285Y-90189523D02*
X147923333Y-90159047D01*
X147862380Y-90098095D01*
X147831904Y-89976190D01*
X147831904Y-89762857D01*
X147862380Y-89640952D01*
X147923333Y-89580000D01*
X147984285Y-89549523D01*
X148106190Y-89549523D01*
X148167142Y-89580000D01*
X148228095Y-89640952D01*
X148258571Y-89762857D01*
X148258571Y-89976190D01*
X148228095Y-90098095D01*
X148167142Y-90159047D01*
X148106190Y-90189523D01*
X147984285Y-90189523D01*
X148471904Y-89549523D02*
X148868095Y-89549523D01*
X148654761Y-89793333D01*
X148746190Y-89793333D01*
X148807142Y-89823809D01*
X148837619Y-89854285D01*
X148868095Y-89915238D01*
X148868095Y-90067619D01*
X148837619Y-90128571D01*
X148807142Y-90159047D01*
X148746190Y-90189523D01*
X148563333Y-90189523D01*
X148502380Y-90159047D01*
X148471904Y-90128571D01*
%TO.C,Q2*%
X141189047Y-84850476D02*
X141128095Y-84820000D01*
X141067142Y-84759047D01*
X140975714Y-84667619D01*
X140914761Y-84637142D01*
X140853809Y-84637142D01*
X140884285Y-84789523D02*
X140823333Y-84759047D01*
X140762380Y-84698095D01*
X140731904Y-84576190D01*
X140731904Y-84362857D01*
X140762380Y-84240952D01*
X140823333Y-84180000D01*
X140884285Y-84149523D01*
X141006190Y-84149523D01*
X141067142Y-84180000D01*
X141128095Y-84240952D01*
X141158571Y-84362857D01*
X141158571Y-84576190D01*
X141128095Y-84698095D01*
X141067142Y-84759047D01*
X141006190Y-84789523D01*
X140884285Y-84789523D01*
X141402380Y-84210476D02*
X141432857Y-84180000D01*
X141493809Y-84149523D01*
X141646190Y-84149523D01*
X141707142Y-84180000D01*
X141737619Y-84210476D01*
X141768095Y-84271428D01*
X141768095Y-84332380D01*
X141737619Y-84423809D01*
X141371904Y-84789523D01*
X141768095Y-84789523D01*
%TO.C,Q1*%
X125789047Y-90050476D02*
X125728095Y-90020000D01*
X125667142Y-89959047D01*
X125575714Y-89867619D01*
X125514761Y-89837142D01*
X125453809Y-89837142D01*
X125484285Y-89989523D02*
X125423333Y-89959047D01*
X125362380Y-89898095D01*
X125331904Y-89776190D01*
X125331904Y-89562857D01*
X125362380Y-89440952D01*
X125423333Y-89380000D01*
X125484285Y-89349523D01*
X125606190Y-89349523D01*
X125667142Y-89380000D01*
X125728095Y-89440952D01*
X125758571Y-89562857D01*
X125758571Y-89776190D01*
X125728095Y-89898095D01*
X125667142Y-89959047D01*
X125606190Y-89989523D01*
X125484285Y-89989523D01*
X126368095Y-89989523D02*
X126002380Y-89989523D01*
X126185238Y-89989523D02*
X126185238Y-89349523D01*
X126124285Y-89440952D01*
X126063333Y-89501904D01*
X126002380Y-89532380D01*
%TO.C,C34*%
D14*
X141607142Y-93242857D02*
X141654761Y-93290476D01*
X141702380Y-93433333D01*
X141702380Y-93528571D01*
X141654761Y-93671428D01*
X141559523Y-93766666D01*
X141464285Y-93814285D01*
X141273809Y-93861904D01*
X141130952Y-93861904D01*
X140940476Y-93814285D01*
X140845238Y-93766666D01*
X140750000Y-93671428D01*
X140702380Y-93528571D01*
X140702380Y-93433333D01*
X140750000Y-93290476D01*
X140797619Y-93242857D01*
X140702380Y-92909523D02*
X140702380Y-92290476D01*
X141083333Y-92623809D01*
X141083333Y-92480952D01*
X141130952Y-92385714D01*
X141178571Y-92338095D01*
X141273809Y-92290476D01*
X141511904Y-92290476D01*
X141607142Y-92338095D01*
X141654761Y-92385714D01*
X141702380Y-92480952D01*
X141702380Y-92766666D01*
X141654761Y-92861904D01*
X141607142Y-92909523D01*
X141035714Y-91433333D02*
X141702380Y-91433333D01*
X140654761Y-91671428D02*
X141369047Y-91909523D01*
X141369047Y-91290476D01*
%TO.C,C6*%
X141607142Y-100416666D02*
X141654761Y-100464285D01*
X141702380Y-100607142D01*
X141702380Y-100702380D01*
X141654761Y-100845238D01*
X141559523Y-100940476D01*
X141464285Y-100988095D01*
X141273809Y-101035714D01*
X141130952Y-101035714D01*
X140940476Y-100988095D01*
X140845238Y-100940476D01*
X140750000Y-100845238D01*
X140702380Y-100702380D01*
X140702380Y-100607142D01*
X140750000Y-100464285D01*
X140797619Y-100416666D01*
X140702380Y-99559523D02*
X140702380Y-99750000D01*
X140750000Y-99845238D01*
X140797619Y-99892857D01*
X140940476Y-99988095D01*
X141130952Y-100035714D01*
X141511904Y-100035714D01*
X141607142Y-99988095D01*
X141654761Y-99940476D01*
X141702380Y-99845238D01*
X141702380Y-99654761D01*
X141654761Y-99559523D01*
X141607142Y-99511904D01*
X141511904Y-99464285D01*
X141273809Y-99464285D01*
X141178571Y-99511904D01*
X141130952Y-99559523D01*
X141083333Y-99654761D01*
X141083333Y-99845238D01*
X141130952Y-99940476D01*
X141178571Y-99988095D01*
X141273809Y-100035714D01*
%TO.C,C7*%
X127107142Y-102166666D02*
X127154761Y-102214285D01*
X127202380Y-102357142D01*
X127202380Y-102452380D01*
X127154761Y-102595238D01*
X127059523Y-102690476D01*
X126964285Y-102738095D01*
X126773809Y-102785714D01*
X126630952Y-102785714D01*
X126440476Y-102738095D01*
X126345238Y-102690476D01*
X126250000Y-102595238D01*
X126202380Y-102452380D01*
X126202380Y-102357142D01*
X126250000Y-102214285D01*
X126297619Y-102166666D01*
X126202380Y-101833333D02*
X126202380Y-101166666D01*
X127202380Y-101595238D01*
%TO.C,U1*%
D15*
X131402380Y-98611904D02*
X132211904Y-98611904D01*
X132307142Y-98564285D01*
X132354761Y-98516666D01*
X132402380Y-98421428D01*
X132402380Y-98230952D01*
X132354761Y-98135714D01*
X132307142Y-98088095D01*
X132211904Y-98040476D01*
X131402380Y-98040476D01*
X132402380Y-97040476D02*
X132402380Y-97611904D01*
X132402380Y-97326190D02*
X131402380Y-97326190D01*
X131545238Y-97421428D01*
X131640476Y-97516666D01*
X131688095Y-97611904D01*
%TO.C,C29*%
D14*
X124107142Y-96157142D02*
X124059523Y-96204761D01*
X123916666Y-96252380D01*
X123821428Y-96252380D01*
X123678571Y-96204761D01*
X123583333Y-96109523D01*
X123535714Y-96014285D01*
X123488095Y-95823809D01*
X123488095Y-95680952D01*
X123535714Y-95490476D01*
X123583333Y-95395238D01*
X123678571Y-95300000D01*
X123821428Y-95252380D01*
X123916666Y-95252380D01*
X124059523Y-95300000D01*
X124107142Y-95347619D01*
X124488095Y-95347619D02*
X124535714Y-95300000D01*
X124630952Y-95252380D01*
X124869047Y-95252380D01*
X124964285Y-95300000D01*
X125011904Y-95347619D01*
X125059523Y-95442857D01*
X125059523Y-95538095D01*
X125011904Y-95680952D01*
X124440476Y-96252380D01*
X125059523Y-96252380D01*
X125535714Y-96252380D02*
X125726190Y-96252380D01*
X125821428Y-96204761D01*
X125869047Y-96157142D01*
X125964285Y-96014285D01*
X126011904Y-95823809D01*
X126011904Y-95442857D01*
X125964285Y-95347619D01*
X125916666Y-95300000D01*
X125821428Y-95252380D01*
X125630952Y-95252380D01*
X125535714Y-95300000D01*
X125488095Y-95347619D01*
X125440476Y-95442857D01*
X125440476Y-95680952D01*
X125488095Y-95776190D01*
X125535714Y-95823809D01*
X125630952Y-95871428D01*
X125821428Y-95871428D01*
X125916666Y-95823809D01*
X125964285Y-95776190D01*
X126011904Y-95680952D01*
%TO.C,R33*%
X144257142Y-77752380D02*
X143923809Y-77276190D01*
X143685714Y-77752380D02*
X143685714Y-76752380D01*
X144066666Y-76752380D01*
X144161904Y-76800000D01*
X144209523Y-76847619D01*
X144257142Y-76942857D01*
X144257142Y-77085714D01*
X144209523Y-77180952D01*
X144161904Y-77228571D01*
X144066666Y-77276190D01*
X143685714Y-77276190D01*
X144590476Y-76752380D02*
X145209523Y-76752380D01*
X144876190Y-77133333D01*
X145019047Y-77133333D01*
X145114285Y-77180952D01*
X145161904Y-77228571D01*
X145209523Y-77323809D01*
X145209523Y-77561904D01*
X145161904Y-77657142D01*
X145114285Y-77704761D01*
X145019047Y-77752380D01*
X144733333Y-77752380D01*
X144638095Y-77704761D01*
X144590476Y-77657142D01*
X145542857Y-76752380D02*
X146161904Y-76752380D01*
X145828571Y-77133333D01*
X145971428Y-77133333D01*
X146066666Y-77180952D01*
X146114285Y-77228571D01*
X146161904Y-77323809D01*
X146161904Y-77561904D01*
X146114285Y-77657142D01*
X146066666Y-77704761D01*
X145971428Y-77752380D01*
X145685714Y-77752380D01*
X145590476Y-77704761D01*
X145542857Y-77657142D01*
%TO.C,C1*%
X144733333Y-79157142D02*
X144685714Y-79204761D01*
X144542857Y-79252380D01*
X144447619Y-79252380D01*
X144304761Y-79204761D01*
X144209523Y-79109523D01*
X144161904Y-79014285D01*
X144114285Y-78823809D01*
X144114285Y-78680952D01*
X144161904Y-78490476D01*
X144209523Y-78395238D01*
X144304761Y-78300000D01*
X144447619Y-78252380D01*
X144542857Y-78252380D01*
X144685714Y-78300000D01*
X144733333Y-78347619D01*
X145685714Y-79252380D02*
X145114285Y-79252380D01*
X145400000Y-79252380D02*
X145400000Y-78252380D01*
X145304761Y-78395238D01*
X145209523Y-78490476D01*
X145114285Y-78538095D01*
%TO.C,C2*%
X117583333Y-104357142D02*
X117535714Y-104404761D01*
X117392857Y-104452380D01*
X117297619Y-104452380D01*
X117154761Y-104404761D01*
X117059523Y-104309523D01*
X117011904Y-104214285D01*
X116964285Y-104023809D01*
X116964285Y-103880952D01*
X117011904Y-103690476D01*
X117059523Y-103595238D01*
X117154761Y-103500000D01*
X117297619Y-103452380D01*
X117392857Y-103452380D01*
X117535714Y-103500000D01*
X117583333Y-103547619D01*
X117964285Y-103547619D02*
X118011904Y-103500000D01*
X118107142Y-103452380D01*
X118345238Y-103452380D01*
X118440476Y-103500000D01*
X118488095Y-103547619D01*
X118535714Y-103642857D01*
X118535714Y-103738095D01*
X118488095Y-103880952D01*
X117916666Y-104452380D01*
X118535714Y-104452380D01*
%TO.C,C3*%
X128283333Y-90357142D02*
X128235714Y-90404761D01*
X128092857Y-90452380D01*
X127997619Y-90452380D01*
X127854761Y-90404761D01*
X127759523Y-90309523D01*
X127711904Y-90214285D01*
X127664285Y-90023809D01*
X127664285Y-89880952D01*
X127711904Y-89690476D01*
X127759523Y-89595238D01*
X127854761Y-89500000D01*
X127997619Y-89452380D01*
X128092857Y-89452380D01*
X128235714Y-89500000D01*
X128283333Y-89547619D01*
X128616666Y-89452380D02*
X129235714Y-89452380D01*
X128902380Y-89833333D01*
X129045238Y-89833333D01*
X129140476Y-89880952D01*
X129188095Y-89928571D01*
X129235714Y-90023809D01*
X129235714Y-90261904D01*
X129188095Y-90357142D01*
X129140476Y-90404761D01*
X129045238Y-90452380D01*
X128759523Y-90452380D01*
X128664285Y-90404761D01*
X128616666Y-90357142D01*
%TO.C,C4*%
X139807142Y-107516666D02*
X139854761Y-107564285D01*
X139902380Y-107707142D01*
X139902380Y-107802380D01*
X139854761Y-107945238D01*
X139759523Y-108040476D01*
X139664285Y-108088095D01*
X139473809Y-108135714D01*
X139330952Y-108135714D01*
X139140476Y-108088095D01*
X139045238Y-108040476D01*
X138950000Y-107945238D01*
X138902380Y-107802380D01*
X138902380Y-107707142D01*
X138950000Y-107564285D01*
X138997619Y-107516666D01*
X139235714Y-106659523D02*
X139902380Y-106659523D01*
X138854761Y-106897619D02*
X139569047Y-107135714D01*
X139569047Y-106516666D01*
%TO.C,C5*%
X141307142Y-107766666D02*
X141354761Y-107814285D01*
X141402380Y-107957142D01*
X141402380Y-108052380D01*
X141354761Y-108195238D01*
X141259523Y-108290476D01*
X141164285Y-108338095D01*
X140973809Y-108385714D01*
X140830952Y-108385714D01*
X140640476Y-108338095D01*
X140545238Y-108290476D01*
X140450000Y-108195238D01*
X140402380Y-108052380D01*
X140402380Y-107957142D01*
X140450000Y-107814285D01*
X140497619Y-107766666D01*
X140402380Y-106861904D02*
X140402380Y-107338095D01*
X140878571Y-107385714D01*
X140830952Y-107338095D01*
X140783333Y-107242857D01*
X140783333Y-107004761D01*
X140830952Y-106909523D01*
X140878571Y-106861904D01*
X140973809Y-106814285D01*
X141211904Y-106814285D01*
X141307142Y-106861904D01*
X141354761Y-106909523D01*
X141402380Y-107004761D01*
X141402380Y-107242857D01*
X141354761Y-107338095D01*
X141307142Y-107385714D01*
%TO.C,C8*%
X125783333Y-104057142D02*
X125735714Y-104104761D01*
X125592857Y-104152380D01*
X125497619Y-104152380D01*
X125354761Y-104104761D01*
X125259523Y-104009523D01*
X125211904Y-103914285D01*
X125164285Y-103723809D01*
X125164285Y-103580952D01*
X125211904Y-103390476D01*
X125259523Y-103295238D01*
X125354761Y-103200000D01*
X125497619Y-103152380D01*
X125592857Y-103152380D01*
X125735714Y-103200000D01*
X125783333Y-103247619D01*
X126354761Y-103580952D02*
X126259523Y-103533333D01*
X126211904Y-103485714D01*
X126164285Y-103390476D01*
X126164285Y-103342857D01*
X126211904Y-103247619D01*
X126259523Y-103200000D01*
X126354761Y-103152380D01*
X126545238Y-103152380D01*
X126640476Y-103200000D01*
X126688095Y-103247619D01*
X126735714Y-103342857D01*
X126735714Y-103390476D01*
X126688095Y-103485714D01*
X126640476Y-103533333D01*
X126545238Y-103580952D01*
X126354761Y-103580952D01*
X126259523Y-103628571D01*
X126211904Y-103676190D01*
X126164285Y-103771428D01*
X126164285Y-103961904D01*
X126211904Y-104057142D01*
X126259523Y-104104761D01*
X126354761Y-104152380D01*
X126545238Y-104152380D01*
X126640476Y-104104761D01*
X126688095Y-104057142D01*
X126735714Y-103961904D01*
X126735714Y-103771428D01*
X126688095Y-103676190D01*
X126640476Y-103628571D01*
X126545238Y-103580952D01*
%TO.C,C9*%
X130207142Y-100416666D02*
X130254761Y-100464285D01*
X130302380Y-100607142D01*
X130302380Y-100702380D01*
X130254761Y-100845238D01*
X130159523Y-100940476D01*
X130064285Y-100988095D01*
X129873809Y-101035714D01*
X129730952Y-101035714D01*
X129540476Y-100988095D01*
X129445238Y-100940476D01*
X129350000Y-100845238D01*
X129302380Y-100702380D01*
X129302380Y-100607142D01*
X129350000Y-100464285D01*
X129397619Y-100416666D01*
X130302380Y-99940476D02*
X130302380Y-99750000D01*
X130254761Y-99654761D01*
X130207142Y-99607142D01*
X130064285Y-99511904D01*
X129873809Y-99464285D01*
X129492857Y-99464285D01*
X129397619Y-99511904D01*
X129350000Y-99559523D01*
X129302380Y-99654761D01*
X129302380Y-99845238D01*
X129350000Y-99940476D01*
X129397619Y-99988095D01*
X129492857Y-100035714D01*
X129730952Y-100035714D01*
X129826190Y-99988095D01*
X129873809Y-99940476D01*
X129921428Y-99845238D01*
X129921428Y-99654761D01*
X129873809Y-99559523D01*
X129826190Y-99511904D01*
X129730952Y-99464285D01*
%TO.C,C10*%
X137857142Y-81142857D02*
X137904761Y-81190476D01*
X137952380Y-81333333D01*
X137952380Y-81428571D01*
X137904761Y-81571428D01*
X137809523Y-81666666D01*
X137714285Y-81714285D01*
X137523809Y-81761904D01*
X137380952Y-81761904D01*
X137190476Y-81714285D01*
X137095238Y-81666666D01*
X137000000Y-81571428D01*
X136952380Y-81428571D01*
X136952380Y-81333333D01*
X137000000Y-81190476D01*
X137047619Y-81142857D01*
X137952380Y-80190476D02*
X137952380Y-80761904D01*
X137952380Y-80476190D02*
X136952380Y-80476190D01*
X137095238Y-80571428D01*
X137190476Y-80666666D01*
X137238095Y-80761904D01*
X136952380Y-79571428D02*
X136952380Y-79476190D01*
X137000000Y-79380952D01*
X137047619Y-79333333D01*
X137142857Y-79285714D01*
X137333333Y-79238095D01*
X137571428Y-79238095D01*
X137761904Y-79285714D01*
X137857142Y-79333333D01*
X137904761Y-79380952D01*
X137952380Y-79476190D01*
X137952380Y-79571428D01*
X137904761Y-79666666D01*
X137857142Y-79714285D01*
X137761904Y-79761904D01*
X137571428Y-79809523D01*
X137333333Y-79809523D01*
X137142857Y-79761904D01*
X137047619Y-79714285D01*
X137000000Y-79666666D01*
X136952380Y-79571428D01*
%TO.C,C11*%
X148257142Y-83692857D02*
X148304761Y-83740476D01*
X148352380Y-83883333D01*
X148352380Y-83978571D01*
X148304761Y-84121428D01*
X148209523Y-84216666D01*
X148114285Y-84264285D01*
X147923809Y-84311904D01*
X147780952Y-84311904D01*
X147590476Y-84264285D01*
X147495238Y-84216666D01*
X147400000Y-84121428D01*
X147352380Y-83978571D01*
X147352380Y-83883333D01*
X147400000Y-83740476D01*
X147447619Y-83692857D01*
X148352380Y-82740476D02*
X148352380Y-83311904D01*
X148352380Y-83026190D02*
X147352380Y-83026190D01*
X147495238Y-83121428D01*
X147590476Y-83216666D01*
X147638095Y-83311904D01*
X148352380Y-81788095D02*
X148352380Y-82359523D01*
X148352380Y-82073809D02*
X147352380Y-82073809D01*
X147495238Y-82169047D01*
X147590476Y-82264285D01*
X147638095Y-82359523D01*
%TO.C,C12*%
X134607142Y-102357142D02*
X134559523Y-102404761D01*
X134416666Y-102452380D01*
X134321428Y-102452380D01*
X134178571Y-102404761D01*
X134083333Y-102309523D01*
X134035714Y-102214285D01*
X133988095Y-102023809D01*
X133988095Y-101880952D01*
X134035714Y-101690476D01*
X134083333Y-101595238D01*
X134178571Y-101500000D01*
X134321428Y-101452380D01*
X134416666Y-101452380D01*
X134559523Y-101500000D01*
X134607142Y-101547619D01*
X135559523Y-102452380D02*
X134988095Y-102452380D01*
X135273809Y-102452380D02*
X135273809Y-101452380D01*
X135178571Y-101595238D01*
X135083333Y-101690476D01*
X134988095Y-101738095D01*
X135940476Y-101547619D02*
X135988095Y-101500000D01*
X136083333Y-101452380D01*
X136321428Y-101452380D01*
X136416666Y-101500000D01*
X136464285Y-101547619D01*
X136511904Y-101642857D01*
X136511904Y-101738095D01*
X136464285Y-101880952D01*
X135892857Y-102452380D01*
X136511904Y-102452380D01*
%TO.C,C13*%
X143107142Y-100642857D02*
X143154761Y-100690476D01*
X143202380Y-100833333D01*
X143202380Y-100928571D01*
X143154761Y-101071428D01*
X143059523Y-101166666D01*
X142964285Y-101214285D01*
X142773809Y-101261904D01*
X142630952Y-101261904D01*
X142440476Y-101214285D01*
X142345238Y-101166666D01*
X142250000Y-101071428D01*
X142202380Y-100928571D01*
X142202380Y-100833333D01*
X142250000Y-100690476D01*
X142297619Y-100642857D01*
X143202380Y-99690476D02*
X143202380Y-100261904D01*
X143202380Y-99976190D02*
X142202380Y-99976190D01*
X142345238Y-100071428D01*
X142440476Y-100166666D01*
X142488095Y-100261904D01*
X142202380Y-99357142D02*
X142202380Y-98738095D01*
X142583333Y-99071428D01*
X142583333Y-98928571D01*
X142630952Y-98833333D01*
X142678571Y-98785714D01*
X142773809Y-98738095D01*
X143011904Y-98738095D01*
X143107142Y-98785714D01*
X143154761Y-98833333D01*
X143202380Y-98928571D01*
X143202380Y-99214285D01*
X143154761Y-99309523D01*
X143107142Y-99357142D01*
%TO.C,C14*%
X133857142Y-107607142D02*
X133809523Y-107654761D01*
X133666666Y-107702380D01*
X133571428Y-107702380D01*
X133428571Y-107654761D01*
X133333333Y-107559523D01*
X133285714Y-107464285D01*
X133238095Y-107273809D01*
X133238095Y-107130952D01*
X133285714Y-106940476D01*
X133333333Y-106845238D01*
X133428571Y-106750000D01*
X133571428Y-106702380D01*
X133666666Y-106702380D01*
X133809523Y-106750000D01*
X133857142Y-106797619D01*
X134809523Y-107702380D02*
X134238095Y-107702380D01*
X134523809Y-107702380D02*
X134523809Y-106702380D01*
X134428571Y-106845238D01*
X134333333Y-106940476D01*
X134238095Y-106988095D01*
X135666666Y-107035714D02*
X135666666Y-107702380D01*
X135428571Y-106654761D02*
X135190476Y-107369047D01*
X135809523Y-107369047D01*
%TO.C,C15*%
X131507142Y-104757142D02*
X131459523Y-104804761D01*
X131316666Y-104852380D01*
X131221428Y-104852380D01*
X131078571Y-104804761D01*
X130983333Y-104709523D01*
X130935714Y-104614285D01*
X130888095Y-104423809D01*
X130888095Y-104280952D01*
X130935714Y-104090476D01*
X130983333Y-103995238D01*
X131078571Y-103900000D01*
X131221428Y-103852380D01*
X131316666Y-103852380D01*
X131459523Y-103900000D01*
X131507142Y-103947619D01*
X132459523Y-104852380D02*
X131888095Y-104852380D01*
X132173809Y-104852380D02*
X132173809Y-103852380D01*
X132078571Y-103995238D01*
X131983333Y-104090476D01*
X131888095Y-104138095D01*
X133364285Y-103852380D02*
X132888095Y-103852380D01*
X132840476Y-104328571D01*
X132888095Y-104280952D01*
X132983333Y-104233333D01*
X133221428Y-104233333D01*
X133316666Y-104280952D01*
X133364285Y-104328571D01*
X133411904Y-104423809D01*
X133411904Y-104661904D01*
X133364285Y-104757142D01*
X133316666Y-104804761D01*
X133221428Y-104852380D01*
X132983333Y-104852380D01*
X132888095Y-104804761D01*
X132840476Y-104757142D01*
%TO.C,C16*%
X138157142Y-105057142D02*
X138109523Y-105104761D01*
X137966666Y-105152380D01*
X137871428Y-105152380D01*
X137728571Y-105104761D01*
X137633333Y-105009523D01*
X137585714Y-104914285D01*
X137538095Y-104723809D01*
X137538095Y-104580952D01*
X137585714Y-104390476D01*
X137633333Y-104295238D01*
X137728571Y-104200000D01*
X137871428Y-104152380D01*
X137966666Y-104152380D01*
X138109523Y-104200000D01*
X138157142Y-104247619D01*
X139109523Y-105152380D02*
X138538095Y-105152380D01*
X138823809Y-105152380D02*
X138823809Y-104152380D01*
X138728571Y-104295238D01*
X138633333Y-104390476D01*
X138538095Y-104438095D01*
X139966666Y-104152380D02*
X139776190Y-104152380D01*
X139680952Y-104200000D01*
X139633333Y-104247619D01*
X139538095Y-104390476D01*
X139490476Y-104580952D01*
X139490476Y-104961904D01*
X139538095Y-105057142D01*
X139585714Y-105104761D01*
X139680952Y-105152380D01*
X139871428Y-105152380D01*
X139966666Y-105104761D01*
X140014285Y-105057142D01*
X140061904Y-104961904D01*
X140061904Y-104723809D01*
X140014285Y-104628571D01*
X139966666Y-104580952D01*
X139871428Y-104533333D01*
X139680952Y-104533333D01*
X139585714Y-104580952D01*
X139538095Y-104628571D01*
X139490476Y-104723809D01*
%TO.C,C17*%
X127732142Y-98392857D02*
X127779761Y-98440476D01*
X127827380Y-98583333D01*
X127827380Y-98678571D01*
X127779761Y-98821428D01*
X127684523Y-98916666D01*
X127589285Y-98964285D01*
X127398809Y-99011904D01*
X127255952Y-99011904D01*
X127065476Y-98964285D01*
X126970238Y-98916666D01*
X126875000Y-98821428D01*
X126827380Y-98678571D01*
X126827380Y-98583333D01*
X126875000Y-98440476D01*
X126922619Y-98392857D01*
X127827380Y-97440476D02*
X127827380Y-98011904D01*
X127827380Y-97726190D02*
X126827380Y-97726190D01*
X126970238Y-97821428D01*
X127065476Y-97916666D01*
X127113095Y-98011904D01*
X126827380Y-97107142D02*
X126827380Y-96440476D01*
X127827380Y-96869047D01*
%TO.C,C18*%
X147819642Y-99257142D02*
X147772023Y-99304761D01*
X147629166Y-99352380D01*
X147533928Y-99352380D01*
X147391071Y-99304761D01*
X147295833Y-99209523D01*
X147248214Y-99114285D01*
X147200595Y-98923809D01*
X147200595Y-98780952D01*
X147248214Y-98590476D01*
X147295833Y-98495238D01*
X147391071Y-98400000D01*
X147533928Y-98352380D01*
X147629166Y-98352380D01*
X147772023Y-98400000D01*
X147819642Y-98447619D01*
X148772023Y-99352380D02*
X148200595Y-99352380D01*
X148486309Y-99352380D02*
X148486309Y-98352380D01*
X148391071Y-98495238D01*
X148295833Y-98590476D01*
X148200595Y-98638095D01*
X149343452Y-98780952D02*
X149248214Y-98733333D01*
X149200595Y-98685714D01*
X149152976Y-98590476D01*
X149152976Y-98542857D01*
X149200595Y-98447619D01*
X149248214Y-98400000D01*
X149343452Y-98352380D01*
X149533928Y-98352380D01*
X149629166Y-98400000D01*
X149676785Y-98447619D01*
X149724404Y-98542857D01*
X149724404Y-98590476D01*
X149676785Y-98685714D01*
X149629166Y-98733333D01*
X149533928Y-98780952D01*
X149343452Y-98780952D01*
X149248214Y-98828571D01*
X149200595Y-98876190D01*
X149152976Y-98971428D01*
X149152976Y-99161904D01*
X149200595Y-99257142D01*
X149248214Y-99304761D01*
X149343452Y-99352380D01*
X149533928Y-99352380D01*
X149629166Y-99304761D01*
X149676785Y-99257142D01*
X149724404Y-99161904D01*
X149724404Y-98971428D01*
X149676785Y-98876190D01*
X149629166Y-98828571D01*
X149533928Y-98780952D01*
%TO.C,C19*%
X121907142Y-94657142D02*
X121859523Y-94704761D01*
X121716666Y-94752380D01*
X121621428Y-94752380D01*
X121478571Y-94704761D01*
X121383333Y-94609523D01*
X121335714Y-94514285D01*
X121288095Y-94323809D01*
X121288095Y-94180952D01*
X121335714Y-93990476D01*
X121383333Y-93895238D01*
X121478571Y-93800000D01*
X121621428Y-93752380D01*
X121716666Y-93752380D01*
X121859523Y-93800000D01*
X121907142Y-93847619D01*
X122859523Y-94752380D02*
X122288095Y-94752380D01*
X122573809Y-94752380D02*
X122573809Y-93752380D01*
X122478571Y-93895238D01*
X122383333Y-93990476D01*
X122288095Y-94038095D01*
X123335714Y-94752380D02*
X123526190Y-94752380D01*
X123621428Y-94704761D01*
X123669047Y-94657142D01*
X123764285Y-94514285D01*
X123811904Y-94323809D01*
X123811904Y-93942857D01*
X123764285Y-93847619D01*
X123716666Y-93800000D01*
X123621428Y-93752380D01*
X123430952Y-93752380D01*
X123335714Y-93800000D01*
X123288095Y-93847619D01*
X123240476Y-93942857D01*
X123240476Y-94180952D01*
X123288095Y-94276190D01*
X123335714Y-94323809D01*
X123430952Y-94371428D01*
X123621428Y-94371428D01*
X123716666Y-94323809D01*
X123764285Y-94276190D01*
X123811904Y-94180952D01*
%TO.C,C20*%
X128607142Y-78442857D02*
X128654761Y-78490476D01*
X128702380Y-78633333D01*
X128702380Y-78728571D01*
X128654761Y-78871428D01*
X128559523Y-78966666D01*
X128464285Y-79014285D01*
X128273809Y-79061904D01*
X128130952Y-79061904D01*
X127940476Y-79014285D01*
X127845238Y-78966666D01*
X127750000Y-78871428D01*
X127702380Y-78728571D01*
X127702380Y-78633333D01*
X127750000Y-78490476D01*
X127797619Y-78442857D01*
X127797619Y-78061904D02*
X127750000Y-78014285D01*
X127702380Y-77919047D01*
X127702380Y-77680952D01*
X127750000Y-77585714D01*
X127797619Y-77538095D01*
X127892857Y-77490476D01*
X127988095Y-77490476D01*
X128130952Y-77538095D01*
X128702380Y-78109523D01*
X128702380Y-77490476D01*
X127702380Y-76871428D02*
X127702380Y-76776190D01*
X127750000Y-76680952D01*
X127797619Y-76633333D01*
X127892857Y-76585714D01*
X128083333Y-76538095D01*
X128321428Y-76538095D01*
X128511904Y-76585714D01*
X128607142Y-76633333D01*
X128654761Y-76680952D01*
X128702380Y-76776190D01*
X128702380Y-76871428D01*
X128654761Y-76966666D01*
X128607142Y-77014285D01*
X128511904Y-77061904D01*
X128321428Y-77109523D01*
X128083333Y-77109523D01*
X127892857Y-77061904D01*
X127797619Y-77014285D01*
X127750000Y-76966666D01*
X127702380Y-76871428D01*
%TO.C,C21*%
X138157142Y-103757142D02*
X138109523Y-103804761D01*
X137966666Y-103852380D01*
X137871428Y-103852380D01*
X137728571Y-103804761D01*
X137633333Y-103709523D01*
X137585714Y-103614285D01*
X137538095Y-103423809D01*
X137538095Y-103280952D01*
X137585714Y-103090476D01*
X137633333Y-102995238D01*
X137728571Y-102900000D01*
X137871428Y-102852380D01*
X137966666Y-102852380D01*
X138109523Y-102900000D01*
X138157142Y-102947619D01*
X138538095Y-102947619D02*
X138585714Y-102900000D01*
X138680952Y-102852380D01*
X138919047Y-102852380D01*
X139014285Y-102900000D01*
X139061904Y-102947619D01*
X139109523Y-103042857D01*
X139109523Y-103138095D01*
X139061904Y-103280952D01*
X138490476Y-103852380D01*
X139109523Y-103852380D01*
X140061904Y-103852380D02*
X139490476Y-103852380D01*
X139776190Y-103852380D02*
X139776190Y-102852380D01*
X139680952Y-102995238D01*
X139585714Y-103090476D01*
X139490476Y-103138095D01*
%TO.C,C22*%
X124982142Y-100582142D02*
X124934523Y-100629761D01*
X124791666Y-100677380D01*
X124696428Y-100677380D01*
X124553571Y-100629761D01*
X124458333Y-100534523D01*
X124410714Y-100439285D01*
X124363095Y-100248809D01*
X124363095Y-100105952D01*
X124410714Y-99915476D01*
X124458333Y-99820238D01*
X124553571Y-99725000D01*
X124696428Y-99677380D01*
X124791666Y-99677380D01*
X124934523Y-99725000D01*
X124982142Y-99772619D01*
X125363095Y-99772619D02*
X125410714Y-99725000D01*
X125505952Y-99677380D01*
X125744047Y-99677380D01*
X125839285Y-99725000D01*
X125886904Y-99772619D01*
X125934523Y-99867857D01*
X125934523Y-99963095D01*
X125886904Y-100105952D01*
X125315476Y-100677380D01*
X125934523Y-100677380D01*
X126315476Y-99772619D02*
X126363095Y-99725000D01*
X126458333Y-99677380D01*
X126696428Y-99677380D01*
X126791666Y-99725000D01*
X126839285Y-99772619D01*
X126886904Y-99867857D01*
X126886904Y-99963095D01*
X126839285Y-100105952D01*
X126267857Y-100677380D01*
X126886904Y-100677380D01*
%TO.C,C23*%
X125607142Y-78442857D02*
X125654761Y-78490476D01*
X125702380Y-78633333D01*
X125702380Y-78728571D01*
X125654761Y-78871428D01*
X125559523Y-78966666D01*
X125464285Y-79014285D01*
X125273809Y-79061904D01*
X125130952Y-79061904D01*
X124940476Y-79014285D01*
X124845238Y-78966666D01*
X124750000Y-78871428D01*
X124702380Y-78728571D01*
X124702380Y-78633333D01*
X124750000Y-78490476D01*
X124797619Y-78442857D01*
X124797619Y-78061904D02*
X124750000Y-78014285D01*
X124702380Y-77919047D01*
X124702380Y-77680952D01*
X124750000Y-77585714D01*
X124797619Y-77538095D01*
X124892857Y-77490476D01*
X124988095Y-77490476D01*
X125130952Y-77538095D01*
X125702380Y-78109523D01*
X125702380Y-77490476D01*
X124702380Y-77157142D02*
X124702380Y-76538095D01*
X125083333Y-76871428D01*
X125083333Y-76728571D01*
X125130952Y-76633333D01*
X125178571Y-76585714D01*
X125273809Y-76538095D01*
X125511904Y-76538095D01*
X125607142Y-76585714D01*
X125654761Y-76633333D01*
X125702380Y-76728571D01*
X125702380Y-77014285D01*
X125654761Y-77109523D01*
X125607142Y-77157142D01*
%TO.C,C24*%
X130107142Y-78442857D02*
X130154761Y-78490476D01*
X130202380Y-78633333D01*
X130202380Y-78728571D01*
X130154761Y-78871428D01*
X130059523Y-78966666D01*
X129964285Y-79014285D01*
X129773809Y-79061904D01*
X129630952Y-79061904D01*
X129440476Y-79014285D01*
X129345238Y-78966666D01*
X129250000Y-78871428D01*
X129202380Y-78728571D01*
X129202380Y-78633333D01*
X129250000Y-78490476D01*
X129297619Y-78442857D01*
X129297619Y-78061904D02*
X129250000Y-78014285D01*
X129202380Y-77919047D01*
X129202380Y-77680952D01*
X129250000Y-77585714D01*
X129297619Y-77538095D01*
X129392857Y-77490476D01*
X129488095Y-77490476D01*
X129630952Y-77538095D01*
X130202380Y-78109523D01*
X130202380Y-77490476D01*
X129535714Y-76633333D02*
X130202380Y-76633333D01*
X129154761Y-76871428D02*
X129869047Y-77109523D01*
X129869047Y-76490476D01*
%TO.C,C25*%
X127107142Y-78442857D02*
X127154761Y-78490476D01*
X127202380Y-78633333D01*
X127202380Y-78728571D01*
X127154761Y-78871428D01*
X127059523Y-78966666D01*
X126964285Y-79014285D01*
X126773809Y-79061904D01*
X126630952Y-79061904D01*
X126440476Y-79014285D01*
X126345238Y-78966666D01*
X126250000Y-78871428D01*
X126202380Y-78728571D01*
X126202380Y-78633333D01*
X126250000Y-78490476D01*
X126297619Y-78442857D01*
X126297619Y-78061904D02*
X126250000Y-78014285D01*
X126202380Y-77919047D01*
X126202380Y-77680952D01*
X126250000Y-77585714D01*
X126297619Y-77538095D01*
X126392857Y-77490476D01*
X126488095Y-77490476D01*
X126630952Y-77538095D01*
X127202380Y-78109523D01*
X127202380Y-77490476D01*
X126202380Y-76585714D02*
X126202380Y-77061904D01*
X126678571Y-77109523D01*
X126630952Y-77061904D01*
X126583333Y-76966666D01*
X126583333Y-76728571D01*
X126630952Y-76633333D01*
X126678571Y-76585714D01*
X126773809Y-76538095D01*
X127011904Y-76538095D01*
X127107142Y-76585714D01*
X127154761Y-76633333D01*
X127202380Y-76728571D01*
X127202380Y-76966666D01*
X127154761Y-77061904D01*
X127107142Y-77109523D01*
%TO.C,C26*%
X141907142Y-96257142D02*
X141859523Y-96304761D01*
X141716666Y-96352380D01*
X141621428Y-96352380D01*
X141478571Y-96304761D01*
X141383333Y-96209523D01*
X141335714Y-96114285D01*
X141288095Y-95923809D01*
X141288095Y-95780952D01*
X141335714Y-95590476D01*
X141383333Y-95495238D01*
X141478571Y-95400000D01*
X141621428Y-95352380D01*
X141716666Y-95352380D01*
X141859523Y-95400000D01*
X141907142Y-95447619D01*
X142288095Y-95447619D02*
X142335714Y-95400000D01*
X142430952Y-95352380D01*
X142669047Y-95352380D01*
X142764285Y-95400000D01*
X142811904Y-95447619D01*
X142859523Y-95542857D01*
X142859523Y-95638095D01*
X142811904Y-95780952D01*
X142240476Y-96352380D01*
X142859523Y-96352380D01*
X143716666Y-95352380D02*
X143526190Y-95352380D01*
X143430952Y-95400000D01*
X143383333Y-95447619D01*
X143288095Y-95590476D01*
X143240476Y-95780952D01*
X143240476Y-96161904D01*
X143288095Y-96257142D01*
X143335714Y-96304761D01*
X143430952Y-96352380D01*
X143621428Y-96352380D01*
X143716666Y-96304761D01*
X143764285Y-96257142D01*
X143811904Y-96161904D01*
X143811904Y-95923809D01*
X143764285Y-95828571D01*
X143716666Y-95780952D01*
X143621428Y-95733333D01*
X143430952Y-95733333D01*
X143335714Y-95780952D01*
X143288095Y-95828571D01*
X143240476Y-95923809D01*
%TO.C,C27*%
X119522142Y-94057142D02*
X119474523Y-94104761D01*
X119331666Y-94152380D01*
X119236428Y-94152380D01*
X119093571Y-94104761D01*
X118998333Y-94009523D01*
X118950714Y-93914285D01*
X118903095Y-93723809D01*
X118903095Y-93580952D01*
X118950714Y-93390476D01*
X118998333Y-93295238D01*
X119093571Y-93200000D01*
X119236428Y-93152380D01*
X119331666Y-93152380D01*
X119474523Y-93200000D01*
X119522142Y-93247619D01*
X119903095Y-93247619D02*
X119950714Y-93200000D01*
X120045952Y-93152380D01*
X120284047Y-93152380D01*
X120379285Y-93200000D01*
X120426904Y-93247619D01*
X120474523Y-93342857D01*
X120474523Y-93438095D01*
X120426904Y-93580952D01*
X119855476Y-94152380D01*
X120474523Y-94152380D01*
X120807857Y-93152380D02*
X121474523Y-93152380D01*
X121045952Y-94152380D01*
%TO.C,C28*%
X110337142Y-88677142D02*
X110289523Y-88724761D01*
X110146666Y-88772380D01*
X110051428Y-88772380D01*
X109908571Y-88724761D01*
X109813333Y-88629523D01*
X109765714Y-88534285D01*
X109718095Y-88343809D01*
X109718095Y-88200952D01*
X109765714Y-88010476D01*
X109813333Y-87915238D01*
X109908571Y-87820000D01*
X110051428Y-87772380D01*
X110146666Y-87772380D01*
X110289523Y-87820000D01*
X110337142Y-87867619D01*
X110718095Y-87867619D02*
X110765714Y-87820000D01*
X110860952Y-87772380D01*
X111099047Y-87772380D01*
X111194285Y-87820000D01*
X111241904Y-87867619D01*
X111289523Y-87962857D01*
X111289523Y-88058095D01*
X111241904Y-88200952D01*
X110670476Y-88772380D01*
X111289523Y-88772380D01*
X111860952Y-88200952D02*
X111765714Y-88153333D01*
X111718095Y-88105714D01*
X111670476Y-88010476D01*
X111670476Y-87962857D01*
X111718095Y-87867619D01*
X111765714Y-87820000D01*
X111860952Y-87772380D01*
X112051428Y-87772380D01*
X112146666Y-87820000D01*
X112194285Y-87867619D01*
X112241904Y-87962857D01*
X112241904Y-88010476D01*
X112194285Y-88105714D01*
X112146666Y-88153333D01*
X112051428Y-88200952D01*
X111860952Y-88200952D01*
X111765714Y-88248571D01*
X111718095Y-88296190D01*
X111670476Y-88391428D01*
X111670476Y-88581904D01*
X111718095Y-88677142D01*
X111765714Y-88724761D01*
X111860952Y-88772380D01*
X112051428Y-88772380D01*
X112146666Y-88724761D01*
X112194285Y-88677142D01*
X112241904Y-88581904D01*
X112241904Y-88391428D01*
X112194285Y-88296190D01*
X112146666Y-88248571D01*
X112051428Y-88200952D01*
%TO.C,C30*%
X130857142Y-98642857D02*
X130904761Y-98690476D01*
X130952380Y-98833333D01*
X130952380Y-98928571D01*
X130904761Y-99071428D01*
X130809523Y-99166666D01*
X130714285Y-99214285D01*
X130523809Y-99261904D01*
X130380952Y-99261904D01*
X130190476Y-99214285D01*
X130095238Y-99166666D01*
X130000000Y-99071428D01*
X129952380Y-98928571D01*
X129952380Y-98833333D01*
X130000000Y-98690476D01*
X130047619Y-98642857D01*
X129952380Y-98309523D02*
X129952380Y-97690476D01*
X130333333Y-98023809D01*
X130333333Y-97880952D01*
X130380952Y-97785714D01*
X130428571Y-97738095D01*
X130523809Y-97690476D01*
X130761904Y-97690476D01*
X130857142Y-97738095D01*
X130904761Y-97785714D01*
X130952380Y-97880952D01*
X130952380Y-98166666D01*
X130904761Y-98261904D01*
X130857142Y-98309523D01*
X129952380Y-97071428D02*
X129952380Y-96976190D01*
X130000000Y-96880952D01*
X130047619Y-96833333D01*
X130142857Y-96785714D01*
X130333333Y-96738095D01*
X130571428Y-96738095D01*
X130761904Y-96785714D01*
X130857142Y-96833333D01*
X130904761Y-96880952D01*
X130952380Y-96976190D01*
X130952380Y-97071428D01*
X130904761Y-97166666D01*
X130857142Y-97214285D01*
X130761904Y-97261904D01*
X130571428Y-97309523D01*
X130333333Y-97309523D01*
X130142857Y-97261904D01*
X130047619Y-97214285D01*
X130000000Y-97166666D01*
X129952380Y-97071428D01*
%TO.C,C31*%
X129407142Y-98642857D02*
X129454761Y-98690476D01*
X129502380Y-98833333D01*
X129502380Y-98928571D01*
X129454761Y-99071428D01*
X129359523Y-99166666D01*
X129264285Y-99214285D01*
X129073809Y-99261904D01*
X128930952Y-99261904D01*
X128740476Y-99214285D01*
X128645238Y-99166666D01*
X128550000Y-99071428D01*
X128502380Y-98928571D01*
X128502380Y-98833333D01*
X128550000Y-98690476D01*
X128597619Y-98642857D01*
X128502380Y-98309523D02*
X128502380Y-97690476D01*
X128883333Y-98023809D01*
X128883333Y-97880952D01*
X128930952Y-97785714D01*
X128978571Y-97738095D01*
X129073809Y-97690476D01*
X129311904Y-97690476D01*
X129407142Y-97738095D01*
X129454761Y-97785714D01*
X129502380Y-97880952D01*
X129502380Y-98166666D01*
X129454761Y-98261904D01*
X129407142Y-98309523D01*
X129502380Y-96738095D02*
X129502380Y-97309523D01*
X129502380Y-97023809D02*
X128502380Y-97023809D01*
X128645238Y-97119047D01*
X128740476Y-97214285D01*
X128788095Y-97309523D01*
%TO.C,C32*%
X110337142Y-91027142D02*
X110289523Y-91074761D01*
X110146666Y-91122380D01*
X110051428Y-91122380D01*
X109908571Y-91074761D01*
X109813333Y-90979523D01*
X109765714Y-90884285D01*
X109718095Y-90693809D01*
X109718095Y-90550952D01*
X109765714Y-90360476D01*
X109813333Y-90265238D01*
X109908571Y-90170000D01*
X110051428Y-90122380D01*
X110146666Y-90122380D01*
X110289523Y-90170000D01*
X110337142Y-90217619D01*
X110670476Y-90122380D02*
X111289523Y-90122380D01*
X110956190Y-90503333D01*
X111099047Y-90503333D01*
X111194285Y-90550952D01*
X111241904Y-90598571D01*
X111289523Y-90693809D01*
X111289523Y-90931904D01*
X111241904Y-91027142D01*
X111194285Y-91074761D01*
X111099047Y-91122380D01*
X110813333Y-91122380D01*
X110718095Y-91074761D01*
X110670476Y-91027142D01*
X111670476Y-90217619D02*
X111718095Y-90170000D01*
X111813333Y-90122380D01*
X112051428Y-90122380D01*
X112146666Y-90170000D01*
X112194285Y-90217619D01*
X112241904Y-90312857D01*
X112241904Y-90408095D01*
X112194285Y-90550952D01*
X111622857Y-91122380D01*
X112241904Y-91122380D01*
%TO.C,C33*%
X132257142Y-91927857D02*
X132304761Y-91975476D01*
X132352380Y-92118333D01*
X132352380Y-92213571D01*
X132304761Y-92356428D01*
X132209523Y-92451666D01*
X132114285Y-92499285D01*
X131923809Y-92546904D01*
X131780952Y-92546904D01*
X131590476Y-92499285D01*
X131495238Y-92451666D01*
X131400000Y-92356428D01*
X131352380Y-92213571D01*
X131352380Y-92118333D01*
X131400000Y-91975476D01*
X131447619Y-91927857D01*
X131352380Y-91594523D02*
X131352380Y-90975476D01*
X131733333Y-91308809D01*
X131733333Y-91165952D01*
X131780952Y-91070714D01*
X131828571Y-91023095D01*
X131923809Y-90975476D01*
X132161904Y-90975476D01*
X132257142Y-91023095D01*
X132304761Y-91070714D01*
X132352380Y-91165952D01*
X132352380Y-91451666D01*
X132304761Y-91546904D01*
X132257142Y-91594523D01*
X131352380Y-90642142D02*
X131352380Y-90023095D01*
X131733333Y-90356428D01*
X131733333Y-90213571D01*
X131780952Y-90118333D01*
X131828571Y-90070714D01*
X131923809Y-90023095D01*
X132161904Y-90023095D01*
X132257142Y-90070714D01*
X132304761Y-90118333D01*
X132352380Y-90213571D01*
X132352380Y-90499285D01*
X132304761Y-90594523D01*
X132257142Y-90642142D01*
%TO.C,C35*%
X151107142Y-83607142D02*
X151059523Y-83654761D01*
X150916666Y-83702380D01*
X150821428Y-83702380D01*
X150678571Y-83654761D01*
X150583333Y-83559523D01*
X150535714Y-83464285D01*
X150488095Y-83273809D01*
X150488095Y-83130952D01*
X150535714Y-82940476D01*
X150583333Y-82845238D01*
X150678571Y-82750000D01*
X150821428Y-82702380D01*
X150916666Y-82702380D01*
X151059523Y-82750000D01*
X151107142Y-82797619D01*
X151440476Y-82702380D02*
X152059523Y-82702380D01*
X151726190Y-83083333D01*
X151869047Y-83083333D01*
X151964285Y-83130952D01*
X152011904Y-83178571D01*
X152059523Y-83273809D01*
X152059523Y-83511904D01*
X152011904Y-83607142D01*
X151964285Y-83654761D01*
X151869047Y-83702380D01*
X151583333Y-83702380D01*
X151488095Y-83654761D01*
X151440476Y-83607142D01*
X152964285Y-82702380D02*
X152488095Y-82702380D01*
X152440476Y-83178571D01*
X152488095Y-83130952D01*
X152583333Y-83083333D01*
X152821428Y-83083333D01*
X152916666Y-83130952D01*
X152964285Y-83178571D01*
X153011904Y-83273809D01*
X153011904Y-83511904D01*
X152964285Y-83607142D01*
X152916666Y-83654761D01*
X152821428Y-83702380D01*
X152583333Y-83702380D01*
X152488095Y-83654761D01*
X152440476Y-83607142D01*
%TO.C,C37*%
X144207142Y-82057142D02*
X144159523Y-82104761D01*
X144016666Y-82152380D01*
X143921428Y-82152380D01*
X143778571Y-82104761D01*
X143683333Y-82009523D01*
X143635714Y-81914285D01*
X143588095Y-81723809D01*
X143588095Y-81580952D01*
X143635714Y-81390476D01*
X143683333Y-81295238D01*
X143778571Y-81200000D01*
X143921428Y-81152380D01*
X144016666Y-81152380D01*
X144159523Y-81200000D01*
X144207142Y-81247619D01*
X144540476Y-81152380D02*
X145159523Y-81152380D01*
X144826190Y-81533333D01*
X144969047Y-81533333D01*
X145064285Y-81580952D01*
X145111904Y-81628571D01*
X145159523Y-81723809D01*
X145159523Y-81961904D01*
X145111904Y-82057142D01*
X145064285Y-82104761D01*
X144969047Y-82152380D01*
X144683333Y-82152380D01*
X144588095Y-82104761D01*
X144540476Y-82057142D01*
X145492857Y-81152380D02*
X146159523Y-81152380D01*
X145730952Y-82152380D01*
%TO.C,C38*%
X127807142Y-92757142D02*
X127759523Y-92804761D01*
X127616666Y-92852380D01*
X127521428Y-92852380D01*
X127378571Y-92804761D01*
X127283333Y-92709523D01*
X127235714Y-92614285D01*
X127188095Y-92423809D01*
X127188095Y-92280952D01*
X127235714Y-92090476D01*
X127283333Y-91995238D01*
X127378571Y-91900000D01*
X127521428Y-91852380D01*
X127616666Y-91852380D01*
X127759523Y-91900000D01*
X127807142Y-91947619D01*
X128140476Y-91852380D02*
X128759523Y-91852380D01*
X128426190Y-92233333D01*
X128569047Y-92233333D01*
X128664285Y-92280952D01*
X128711904Y-92328571D01*
X128759523Y-92423809D01*
X128759523Y-92661904D01*
X128711904Y-92757142D01*
X128664285Y-92804761D01*
X128569047Y-92852380D01*
X128283333Y-92852380D01*
X128188095Y-92804761D01*
X128140476Y-92757142D01*
X129330952Y-92280952D02*
X129235714Y-92233333D01*
X129188095Y-92185714D01*
X129140476Y-92090476D01*
X129140476Y-92042857D01*
X129188095Y-91947619D01*
X129235714Y-91900000D01*
X129330952Y-91852380D01*
X129521428Y-91852380D01*
X129616666Y-91900000D01*
X129664285Y-91947619D01*
X129711904Y-92042857D01*
X129711904Y-92090476D01*
X129664285Y-92185714D01*
X129616666Y-92233333D01*
X129521428Y-92280952D01*
X129330952Y-92280952D01*
X129235714Y-92328571D01*
X129188095Y-92376190D01*
X129140476Y-92471428D01*
X129140476Y-92661904D01*
X129188095Y-92757142D01*
X129235714Y-92804761D01*
X129330952Y-92852380D01*
X129521428Y-92852380D01*
X129616666Y-92804761D01*
X129664285Y-92757142D01*
X129711904Y-92661904D01*
X129711904Y-92471428D01*
X129664285Y-92376190D01*
X129616666Y-92328571D01*
X129521428Y-92280952D01*
%TO.C,C39*%
X165307142Y-90157142D02*
X165259523Y-90204761D01*
X165116666Y-90252380D01*
X165021428Y-90252380D01*
X164878571Y-90204761D01*
X164783333Y-90109523D01*
X164735714Y-90014285D01*
X164688095Y-89823809D01*
X164688095Y-89680952D01*
X164735714Y-89490476D01*
X164783333Y-89395238D01*
X164878571Y-89300000D01*
X165021428Y-89252380D01*
X165116666Y-89252380D01*
X165259523Y-89300000D01*
X165307142Y-89347619D01*
X165640476Y-89252380D02*
X166259523Y-89252380D01*
X165926190Y-89633333D01*
X166069047Y-89633333D01*
X166164285Y-89680952D01*
X166211904Y-89728571D01*
X166259523Y-89823809D01*
X166259523Y-90061904D01*
X166211904Y-90157142D01*
X166164285Y-90204761D01*
X166069047Y-90252380D01*
X165783333Y-90252380D01*
X165688095Y-90204761D01*
X165640476Y-90157142D01*
X166735714Y-90252380D02*
X166926190Y-90252380D01*
X167021428Y-90204761D01*
X167069047Y-90157142D01*
X167164285Y-90014285D01*
X167211904Y-89823809D01*
X167211904Y-89442857D01*
X167164285Y-89347619D01*
X167116666Y-89300000D01*
X167021428Y-89252380D01*
X166830952Y-89252380D01*
X166735714Y-89300000D01*
X166688095Y-89347619D01*
X166640476Y-89442857D01*
X166640476Y-89680952D01*
X166688095Y-89776190D01*
X166735714Y-89823809D01*
X166830952Y-89871428D01*
X167021428Y-89871428D01*
X167116666Y-89823809D01*
X167164285Y-89776190D01*
X167211904Y-89680952D01*
%TO.C,C40*%
X144257142Y-80657142D02*
X144209523Y-80704761D01*
X144066666Y-80752380D01*
X143971428Y-80752380D01*
X143828571Y-80704761D01*
X143733333Y-80609523D01*
X143685714Y-80514285D01*
X143638095Y-80323809D01*
X143638095Y-80180952D01*
X143685714Y-79990476D01*
X143733333Y-79895238D01*
X143828571Y-79800000D01*
X143971428Y-79752380D01*
X144066666Y-79752380D01*
X144209523Y-79800000D01*
X144257142Y-79847619D01*
X145114285Y-80085714D02*
X145114285Y-80752380D01*
X144876190Y-79704761D02*
X144638095Y-80419047D01*
X145257142Y-80419047D01*
X145828571Y-79752380D02*
X145923809Y-79752380D01*
X146019047Y-79800000D01*
X146066666Y-79847619D01*
X146114285Y-79942857D01*
X146161904Y-80133333D01*
X146161904Y-80371428D01*
X146114285Y-80561904D01*
X146066666Y-80657142D01*
X146019047Y-80704761D01*
X145923809Y-80752380D01*
X145828571Y-80752380D01*
X145733333Y-80704761D01*
X145685714Y-80657142D01*
X145638095Y-80561904D01*
X145590476Y-80371428D01*
X145590476Y-80133333D01*
X145638095Y-79942857D01*
X145685714Y-79847619D01*
X145733333Y-79800000D01*
X145828571Y-79752380D01*
%TO.C,C41*%
X127807142Y-91557142D02*
X127759523Y-91604761D01*
X127616666Y-91652380D01*
X127521428Y-91652380D01*
X127378571Y-91604761D01*
X127283333Y-91509523D01*
X127235714Y-91414285D01*
X127188095Y-91223809D01*
X127188095Y-91080952D01*
X127235714Y-90890476D01*
X127283333Y-90795238D01*
X127378571Y-90700000D01*
X127521428Y-90652380D01*
X127616666Y-90652380D01*
X127759523Y-90700000D01*
X127807142Y-90747619D01*
X128664285Y-90985714D02*
X128664285Y-91652380D01*
X128426190Y-90604761D02*
X128188095Y-91319047D01*
X128807142Y-91319047D01*
X129711904Y-91652380D02*
X129140476Y-91652380D01*
X129426190Y-91652380D02*
X129426190Y-90652380D01*
X129330952Y-90795238D01*
X129235714Y-90890476D01*
X129140476Y-90938095D01*
%TO.C,C42*%
X120107142Y-108357142D02*
X120059523Y-108404761D01*
X119916666Y-108452380D01*
X119821428Y-108452380D01*
X119678571Y-108404761D01*
X119583333Y-108309523D01*
X119535714Y-108214285D01*
X119488095Y-108023809D01*
X119488095Y-107880952D01*
X119535714Y-107690476D01*
X119583333Y-107595238D01*
X119678571Y-107500000D01*
X119821428Y-107452380D01*
X119916666Y-107452380D01*
X120059523Y-107500000D01*
X120107142Y-107547619D01*
X120964285Y-107785714D02*
X120964285Y-108452380D01*
X120726190Y-107404761D02*
X120488095Y-108119047D01*
X121107142Y-108119047D01*
X121440476Y-107547619D02*
X121488095Y-107500000D01*
X121583333Y-107452380D01*
X121821428Y-107452380D01*
X121916666Y-107500000D01*
X121964285Y-107547619D01*
X122011904Y-107642857D01*
X122011904Y-107738095D01*
X121964285Y-107880952D01*
X121392857Y-108452380D01*
X122011904Y-108452380D01*
%TO.C,C43*%
X117607142Y-105857142D02*
X117559523Y-105904761D01*
X117416666Y-105952380D01*
X117321428Y-105952380D01*
X117178571Y-105904761D01*
X117083333Y-105809523D01*
X117035714Y-105714285D01*
X116988095Y-105523809D01*
X116988095Y-105380952D01*
X117035714Y-105190476D01*
X117083333Y-105095238D01*
X117178571Y-105000000D01*
X117321428Y-104952380D01*
X117416666Y-104952380D01*
X117559523Y-105000000D01*
X117607142Y-105047619D01*
X118464285Y-105285714D02*
X118464285Y-105952380D01*
X118226190Y-104904761D02*
X117988095Y-105619047D01*
X118607142Y-105619047D01*
X118892857Y-104952380D02*
X119511904Y-104952380D01*
X119178571Y-105333333D01*
X119321428Y-105333333D01*
X119416666Y-105380952D01*
X119464285Y-105428571D01*
X119511904Y-105523809D01*
X119511904Y-105761904D01*
X119464285Y-105857142D01*
X119416666Y-105904761D01*
X119321428Y-105952380D01*
X119035714Y-105952380D01*
X118940476Y-105904761D01*
X118892857Y-105857142D01*
%TO.C,C44*%
X118857142Y-107107142D02*
X118809523Y-107154761D01*
X118666666Y-107202380D01*
X118571428Y-107202380D01*
X118428571Y-107154761D01*
X118333333Y-107059523D01*
X118285714Y-106964285D01*
X118238095Y-106773809D01*
X118238095Y-106630952D01*
X118285714Y-106440476D01*
X118333333Y-106345238D01*
X118428571Y-106250000D01*
X118571428Y-106202380D01*
X118666666Y-106202380D01*
X118809523Y-106250000D01*
X118857142Y-106297619D01*
X119714285Y-106535714D02*
X119714285Y-107202380D01*
X119476190Y-106154761D02*
X119238095Y-106869047D01*
X119857142Y-106869047D01*
X120666666Y-106535714D02*
X120666666Y-107202380D01*
X120428571Y-106154761D02*
X120190476Y-106869047D01*
X120809523Y-106869047D01*
%TO.C,D1*%
X123952380Y-78488095D02*
X122952380Y-78488095D01*
X122952380Y-78250000D01*
X123000000Y-78107142D01*
X123095238Y-78011904D01*
X123190476Y-77964285D01*
X123380952Y-77916666D01*
X123523809Y-77916666D01*
X123714285Y-77964285D01*
X123809523Y-78011904D01*
X123904761Y-78107142D01*
X123952380Y-78250000D01*
X123952380Y-78488095D01*
X123952380Y-76964285D02*
X123952380Y-77535714D01*
X123952380Y-77250000D02*
X122952380Y-77250000D01*
X123095238Y-77345238D01*
X123190476Y-77440476D01*
X123238095Y-77535714D01*
%TO.C,D2*%
X154511904Y-84052380D02*
X154511904Y-83052380D01*
X154750000Y-83052380D01*
X154892857Y-83100000D01*
X154988095Y-83195238D01*
X155035714Y-83290476D01*
X155083333Y-83480952D01*
X155083333Y-83623809D01*
X155035714Y-83814285D01*
X154988095Y-83909523D01*
X154892857Y-84004761D01*
X154750000Y-84052380D01*
X154511904Y-84052380D01*
X155464285Y-83147619D02*
X155511904Y-83100000D01*
X155607142Y-83052380D01*
X155845238Y-83052380D01*
X155940476Y-83100000D01*
X155988095Y-83147619D01*
X156035714Y-83242857D01*
X156035714Y-83338095D01*
X155988095Y-83480952D01*
X155416666Y-84052380D01*
X156035714Y-84052380D01*
%TO.C,J1*%
D15*
X114921533Y-103057675D02*
X114921533Y-103771994D01*
X114873911Y-103914858D01*
X114778669Y-104010100D01*
X114635805Y-104057722D01*
X114540562Y-104057722D01*
X115921580Y-104057722D02*
X115350124Y-104057722D01*
X115635852Y-104057722D02*
X115635852Y-103057675D01*
X115540609Y-103200539D01*
X115445367Y-103295781D01*
X115350124Y-103343402D01*
%TO.C,L1*%
D14*
X137408333Y-108052380D02*
X136932142Y-108052380D01*
X136932142Y-107052380D01*
X138265476Y-108052380D02*
X137694047Y-108052380D01*
X137979761Y-108052380D02*
X137979761Y-107052380D01*
X137884523Y-107195238D01*
X137789285Y-107290476D01*
X137694047Y-107338095D01*
%TO.C,FLT_LED1*%
X161642857Y-99928571D02*
X161309523Y-99928571D01*
X161309523Y-100452380D02*
X161309523Y-99452380D01*
X161785714Y-99452380D01*
X162642857Y-100452380D02*
X162166666Y-100452380D01*
X162166666Y-99452380D01*
X162833333Y-99452380D02*
X163404761Y-99452380D01*
X163119047Y-100452380D02*
X163119047Y-99452380D01*
X163500000Y-100547619D02*
X164261904Y-100547619D01*
X164976190Y-100452380D02*
X164500000Y-100452380D01*
X164500000Y-99452380D01*
X165309523Y-99928571D02*
X165642857Y-99928571D01*
X165785714Y-100452380D02*
X165309523Y-100452380D01*
X165309523Y-99452380D01*
X165785714Y-99452380D01*
X166214285Y-100452380D02*
X166214285Y-99452380D01*
X166452380Y-99452380D01*
X166595238Y-99500000D01*
X166690476Y-99595238D01*
X166738095Y-99690476D01*
X166785714Y-99880952D01*
X166785714Y-100023809D01*
X166738095Y-100214285D01*
X166690476Y-100309523D01*
X166595238Y-100404761D01*
X166452380Y-100452380D01*
X166214285Y-100452380D01*
X167738095Y-100452380D02*
X167166666Y-100452380D01*
X167452380Y-100452380D02*
X167452380Y-99452380D01*
X167357142Y-99595238D01*
X167261904Y-99690476D01*
X167166666Y-99738095D01*
%TO.C,CHG_LED1*%
X161321428Y-95857142D02*
X161273809Y-95904761D01*
X161130952Y-95952380D01*
X161035714Y-95952380D01*
X160892857Y-95904761D01*
X160797619Y-95809523D01*
X160750000Y-95714285D01*
X160702380Y-95523809D01*
X160702380Y-95380952D01*
X160750000Y-95190476D01*
X160797619Y-95095238D01*
X160892857Y-95000000D01*
X161035714Y-94952380D01*
X161130952Y-94952380D01*
X161273809Y-95000000D01*
X161321428Y-95047619D01*
X161750000Y-95952380D02*
X161750000Y-94952380D01*
X161750000Y-95428571D02*
X162321428Y-95428571D01*
X162321428Y-95952380D02*
X162321428Y-94952380D01*
X163321428Y-95000000D02*
X163226190Y-94952380D01*
X163083333Y-94952380D01*
X162940476Y-95000000D01*
X162845238Y-95095238D01*
X162797619Y-95190476D01*
X162750000Y-95380952D01*
X162750000Y-95523809D01*
X162797619Y-95714285D01*
X162845238Y-95809523D01*
X162940476Y-95904761D01*
X163083333Y-95952380D01*
X163178571Y-95952380D01*
X163321428Y-95904761D01*
X163369047Y-95857142D01*
X163369047Y-95523809D01*
X163178571Y-95523809D01*
X163559523Y-96047619D02*
X164321428Y-96047619D01*
X165035714Y-95952380D02*
X164559523Y-95952380D01*
X164559523Y-94952380D01*
X165369047Y-95428571D02*
X165702380Y-95428571D01*
X165845238Y-95952380D02*
X165369047Y-95952380D01*
X165369047Y-94952380D01*
X165845238Y-94952380D01*
X166273809Y-95952380D02*
X166273809Y-94952380D01*
X166511904Y-94952380D01*
X166654761Y-95000000D01*
X166750000Y-95095238D01*
X166797619Y-95190476D01*
X166845238Y-95380952D01*
X166845238Y-95523809D01*
X166797619Y-95714285D01*
X166750000Y-95809523D01*
X166654761Y-95904761D01*
X166511904Y-95952380D01*
X166273809Y-95952380D01*
X167797619Y-95952380D02*
X167226190Y-95952380D01*
X167511904Y-95952380D02*
X167511904Y-94952380D01*
X167416666Y-95095238D01*
X167321428Y-95190476D01*
X167226190Y-95238095D01*
%TO.C,Q5*%
X155304761Y-91597619D02*
X155209523Y-91550000D01*
X155114285Y-91454761D01*
X154971428Y-91311904D01*
X154876190Y-91264285D01*
X154780952Y-91264285D01*
X154828571Y-91502380D02*
X154733333Y-91454761D01*
X154638095Y-91359523D01*
X154590476Y-91169047D01*
X154590476Y-90835714D01*
X154638095Y-90645238D01*
X154733333Y-90550000D01*
X154828571Y-90502380D01*
X155019047Y-90502380D01*
X155114285Y-90550000D01*
X155209523Y-90645238D01*
X155257142Y-90835714D01*
X155257142Y-91169047D01*
X155209523Y-91359523D01*
X155114285Y-91454761D01*
X155019047Y-91502380D01*
X154828571Y-91502380D01*
X156161904Y-90502380D02*
X155685714Y-90502380D01*
X155638095Y-90978571D01*
X155685714Y-90930952D01*
X155780952Y-90883333D01*
X156019047Y-90883333D01*
X156114285Y-90930952D01*
X156161904Y-90978571D01*
X156209523Y-91073809D01*
X156209523Y-91311904D01*
X156161904Y-91407142D01*
X156114285Y-91454761D01*
X156019047Y-91502380D01*
X155780952Y-91502380D01*
X155685714Y-91454761D01*
X155638095Y-91407142D01*
%TO.C,Q6*%
X140654761Y-90647619D02*
X140559523Y-90600000D01*
X140464285Y-90504761D01*
X140321428Y-90361904D01*
X140226190Y-90314285D01*
X140130952Y-90314285D01*
X140178571Y-90552380D02*
X140083333Y-90504761D01*
X139988095Y-90409523D01*
X139940476Y-90219047D01*
X139940476Y-89885714D01*
X139988095Y-89695238D01*
X140083333Y-89600000D01*
X140178571Y-89552380D01*
X140369047Y-89552380D01*
X140464285Y-89600000D01*
X140559523Y-89695238D01*
X140607142Y-89885714D01*
X140607142Y-90219047D01*
X140559523Y-90409523D01*
X140464285Y-90504761D01*
X140369047Y-90552380D01*
X140178571Y-90552380D01*
X141464285Y-89552380D02*
X141273809Y-89552380D01*
X141178571Y-89600000D01*
X141130952Y-89647619D01*
X141035714Y-89790476D01*
X140988095Y-89980952D01*
X140988095Y-90361904D01*
X141035714Y-90457142D01*
X141083333Y-90504761D01*
X141178571Y-90552380D01*
X141369047Y-90552380D01*
X141464285Y-90504761D01*
X141511904Y-90457142D01*
X141559523Y-90361904D01*
X141559523Y-90123809D01*
X141511904Y-90028571D01*
X141464285Y-89980952D01*
X141369047Y-89933333D01*
X141178571Y-89933333D01*
X141083333Y-89980952D01*
X141035714Y-90028571D01*
X140988095Y-90123809D01*
%TO.C,Q7*%
X158604761Y-91597619D02*
X158509523Y-91550000D01*
X158414285Y-91454761D01*
X158271428Y-91311904D01*
X158176190Y-91264285D01*
X158080952Y-91264285D01*
X158128571Y-91502380D02*
X158033333Y-91454761D01*
X157938095Y-91359523D01*
X157890476Y-91169047D01*
X157890476Y-90835714D01*
X157938095Y-90645238D01*
X158033333Y-90550000D01*
X158128571Y-90502380D01*
X158319047Y-90502380D01*
X158414285Y-90550000D01*
X158509523Y-90645238D01*
X158557142Y-90835714D01*
X158557142Y-91169047D01*
X158509523Y-91359523D01*
X158414285Y-91454761D01*
X158319047Y-91502380D01*
X158128571Y-91502380D01*
X158890476Y-90502380D02*
X159557142Y-90502380D01*
X159128571Y-91502380D01*
%TO.C,Q8*%
X154404761Y-100897619D02*
X154309523Y-100850000D01*
X154214285Y-100754761D01*
X154071428Y-100611904D01*
X153976190Y-100564285D01*
X153880952Y-100564285D01*
X153928571Y-100802380D02*
X153833333Y-100754761D01*
X153738095Y-100659523D01*
X153690476Y-100469047D01*
X153690476Y-100135714D01*
X153738095Y-99945238D01*
X153833333Y-99850000D01*
X153928571Y-99802380D01*
X154119047Y-99802380D01*
X154214285Y-99850000D01*
X154309523Y-99945238D01*
X154357142Y-100135714D01*
X154357142Y-100469047D01*
X154309523Y-100659523D01*
X154214285Y-100754761D01*
X154119047Y-100802380D01*
X153928571Y-100802380D01*
X154928571Y-100230952D02*
X154833333Y-100183333D01*
X154785714Y-100135714D01*
X154738095Y-100040476D01*
X154738095Y-99992857D01*
X154785714Y-99897619D01*
X154833333Y-99850000D01*
X154928571Y-99802380D01*
X155119047Y-99802380D01*
X155214285Y-99850000D01*
X155261904Y-99897619D01*
X155309523Y-99992857D01*
X155309523Y-100040476D01*
X155261904Y-100135714D01*
X155214285Y-100183333D01*
X155119047Y-100230952D01*
X154928571Y-100230952D01*
X154833333Y-100278571D01*
X154785714Y-100326190D01*
X154738095Y-100421428D01*
X154738095Y-100611904D01*
X154785714Y-100707142D01*
X154833333Y-100754761D01*
X154928571Y-100802380D01*
X155119047Y-100802380D01*
X155214285Y-100754761D01*
X155261904Y-100707142D01*
X155309523Y-100611904D01*
X155309523Y-100421428D01*
X155261904Y-100326190D01*
X155214285Y-100278571D01*
X155119047Y-100230952D01*
%TO.C,R1*%
X159602380Y-83916666D02*
X159126190Y-84250000D01*
X159602380Y-84488095D02*
X158602380Y-84488095D01*
X158602380Y-84107142D01*
X158650000Y-84011904D01*
X158697619Y-83964285D01*
X158792857Y-83916666D01*
X158935714Y-83916666D01*
X159030952Y-83964285D01*
X159078571Y-84011904D01*
X159126190Y-84107142D01*
X159126190Y-84488095D01*
X159602380Y-82964285D02*
X159602380Y-83535714D01*
X159602380Y-83250000D02*
X158602380Y-83250000D01*
X158745238Y-83345238D01*
X158840476Y-83440476D01*
X158888095Y-83535714D01*
%TO.C,R3*%
X165133333Y-102802380D02*
X164800000Y-102326190D01*
X164561904Y-102802380D02*
X164561904Y-101802380D01*
X164942857Y-101802380D01*
X165038095Y-101850000D01*
X165085714Y-101897619D01*
X165133333Y-101992857D01*
X165133333Y-102135714D01*
X165085714Y-102230952D01*
X165038095Y-102278571D01*
X164942857Y-102326190D01*
X164561904Y-102326190D01*
X165466666Y-101802380D02*
X166085714Y-101802380D01*
X165752380Y-102183333D01*
X165895238Y-102183333D01*
X165990476Y-102230952D01*
X166038095Y-102278571D01*
X166085714Y-102373809D01*
X166085714Y-102611904D01*
X166038095Y-102707142D01*
X165990476Y-102754761D01*
X165895238Y-102802380D01*
X165609523Y-102802380D01*
X165514285Y-102754761D01*
X165466666Y-102707142D01*
%TO.C,R4*%
X165133333Y-93702380D02*
X164800000Y-93226190D01*
X164561904Y-93702380D02*
X164561904Y-92702380D01*
X164942857Y-92702380D01*
X165038095Y-92750000D01*
X165085714Y-92797619D01*
X165133333Y-92892857D01*
X165133333Y-93035714D01*
X165085714Y-93130952D01*
X165038095Y-93178571D01*
X164942857Y-93226190D01*
X164561904Y-93226190D01*
X165990476Y-93035714D02*
X165990476Y-93702380D01*
X165752380Y-92654761D02*
X165514285Y-93369047D01*
X166133333Y-93369047D01*
%TO.C,R6*%
X129833333Y-105252380D02*
X129500000Y-104776190D01*
X129261904Y-105252380D02*
X129261904Y-104252380D01*
X129642857Y-104252380D01*
X129738095Y-104300000D01*
X129785714Y-104347619D01*
X129833333Y-104442857D01*
X129833333Y-104585714D01*
X129785714Y-104680952D01*
X129738095Y-104728571D01*
X129642857Y-104776190D01*
X129261904Y-104776190D01*
X130690476Y-104252380D02*
X130500000Y-104252380D01*
X130404761Y-104300000D01*
X130357142Y-104347619D01*
X130261904Y-104490476D01*
X130214285Y-104680952D01*
X130214285Y-105061904D01*
X130261904Y-105157142D01*
X130309523Y-105204761D01*
X130404761Y-105252380D01*
X130595238Y-105252380D01*
X130690476Y-105204761D01*
X130738095Y-105157142D01*
X130785714Y-105061904D01*
X130785714Y-104823809D01*
X130738095Y-104728571D01*
X130690476Y-104680952D01*
X130595238Y-104633333D01*
X130404761Y-104633333D01*
X130309523Y-104680952D01*
X130261904Y-104728571D01*
X130214285Y-104823809D01*
%TO.C,R7*%
X132202380Y-99666666D02*
X131726190Y-100000000D01*
X132202380Y-100238095D02*
X131202380Y-100238095D01*
X131202380Y-99857142D01*
X131250000Y-99761904D01*
X131297619Y-99714285D01*
X131392857Y-99666666D01*
X131535714Y-99666666D01*
X131630952Y-99714285D01*
X131678571Y-99761904D01*
X131726190Y-99857142D01*
X131726190Y-100238095D01*
X131202380Y-99333333D02*
X131202380Y-98666666D01*
X132202380Y-99095238D01*
%TO.C,R8*%
X163483333Y-97652380D02*
X163150000Y-97176190D01*
X162911904Y-97652380D02*
X162911904Y-96652380D01*
X163292857Y-96652380D01*
X163388095Y-96700000D01*
X163435714Y-96747619D01*
X163483333Y-96842857D01*
X163483333Y-96985714D01*
X163435714Y-97080952D01*
X163388095Y-97128571D01*
X163292857Y-97176190D01*
X162911904Y-97176190D01*
X164054761Y-97080952D02*
X163959523Y-97033333D01*
X163911904Y-96985714D01*
X163864285Y-96890476D01*
X163864285Y-96842857D01*
X163911904Y-96747619D01*
X163959523Y-96700000D01*
X164054761Y-96652380D01*
X164245238Y-96652380D01*
X164340476Y-96700000D01*
X164388095Y-96747619D01*
X164435714Y-96842857D01*
X164435714Y-96890476D01*
X164388095Y-96985714D01*
X164340476Y-97033333D01*
X164245238Y-97080952D01*
X164054761Y-97080952D01*
X163959523Y-97128571D01*
X163911904Y-97176190D01*
X163864285Y-97271428D01*
X163864285Y-97461904D01*
X163911904Y-97557142D01*
X163959523Y-97604761D01*
X164054761Y-97652380D01*
X164245238Y-97652380D01*
X164340476Y-97604761D01*
X164388095Y-97557142D01*
X164435714Y-97461904D01*
X164435714Y-97271428D01*
X164388095Y-97176190D01*
X164340476Y-97128571D01*
X164245238Y-97080952D01*
%TO.C,R10*%
X147857142Y-96702380D02*
X147523809Y-96226190D01*
X147285714Y-96702380D02*
X147285714Y-95702380D01*
X147666666Y-95702380D01*
X147761904Y-95750000D01*
X147809523Y-95797619D01*
X147857142Y-95892857D01*
X147857142Y-96035714D01*
X147809523Y-96130952D01*
X147761904Y-96178571D01*
X147666666Y-96226190D01*
X147285714Y-96226190D01*
X148809523Y-96702380D02*
X148238095Y-96702380D01*
X148523809Y-96702380D02*
X148523809Y-95702380D01*
X148428571Y-95845238D01*
X148333333Y-95940476D01*
X148238095Y-95988095D01*
X149428571Y-95702380D02*
X149523809Y-95702380D01*
X149619047Y-95750000D01*
X149666666Y-95797619D01*
X149714285Y-95892857D01*
X149761904Y-96083333D01*
X149761904Y-96321428D01*
X149714285Y-96511904D01*
X149666666Y-96607142D01*
X149619047Y-96654761D01*
X149523809Y-96702380D01*
X149428571Y-96702380D01*
X149333333Y-96654761D01*
X149285714Y-96607142D01*
X149238095Y-96511904D01*
X149190476Y-96321428D01*
X149190476Y-96083333D01*
X149238095Y-95892857D01*
X149285714Y-95797619D01*
X149333333Y-95750000D01*
X149428571Y-95702380D01*
%TO.C,R11*%
X121907142Y-93502380D02*
X121573809Y-93026190D01*
X121335714Y-93502380D02*
X121335714Y-92502380D01*
X121716666Y-92502380D01*
X121811904Y-92550000D01*
X121859523Y-92597619D01*
X121907142Y-92692857D01*
X121907142Y-92835714D01*
X121859523Y-92930952D01*
X121811904Y-92978571D01*
X121716666Y-93026190D01*
X121335714Y-93026190D01*
X122859523Y-93502380D02*
X122288095Y-93502380D01*
X122573809Y-93502380D02*
X122573809Y-92502380D01*
X122478571Y-92645238D01*
X122383333Y-92740476D01*
X122288095Y-92788095D01*
X123811904Y-93502380D02*
X123240476Y-93502380D01*
X123526190Y-93502380D02*
X123526190Y-92502380D01*
X123430952Y-92645238D01*
X123335714Y-92740476D01*
X123240476Y-92788095D01*
%TO.C,R12*%
X165357142Y-88602380D02*
X165023809Y-88126190D01*
X164785714Y-88602380D02*
X164785714Y-87602380D01*
X165166666Y-87602380D01*
X165261904Y-87650000D01*
X165309523Y-87697619D01*
X165357142Y-87792857D01*
X165357142Y-87935714D01*
X165309523Y-88030952D01*
X165261904Y-88078571D01*
X165166666Y-88126190D01*
X164785714Y-88126190D01*
X166309523Y-88602380D02*
X165738095Y-88602380D01*
X166023809Y-88602380D02*
X166023809Y-87602380D01*
X165928571Y-87745238D01*
X165833333Y-87840476D01*
X165738095Y-87888095D01*
X166690476Y-87697619D02*
X166738095Y-87650000D01*
X166833333Y-87602380D01*
X167071428Y-87602380D01*
X167166666Y-87650000D01*
X167214285Y-87697619D01*
X167261904Y-87792857D01*
X167261904Y-87888095D01*
X167214285Y-88030952D01*
X166642857Y-88602380D01*
X167261904Y-88602380D01*
%TO.C,R13*%
X124327380Y-98617857D02*
X123851190Y-98951190D01*
X124327380Y-99189285D02*
X123327380Y-99189285D01*
X123327380Y-98808333D01*
X123375000Y-98713095D01*
X123422619Y-98665476D01*
X123517857Y-98617857D01*
X123660714Y-98617857D01*
X123755952Y-98665476D01*
X123803571Y-98713095D01*
X123851190Y-98808333D01*
X123851190Y-99189285D01*
X124327380Y-97665476D02*
X124327380Y-98236904D01*
X124327380Y-97951190D02*
X123327380Y-97951190D01*
X123470238Y-98046428D01*
X123565476Y-98141666D01*
X123613095Y-98236904D01*
X123327380Y-97332142D02*
X123327380Y-96713095D01*
X123708333Y-97046428D01*
X123708333Y-96903571D01*
X123755952Y-96808333D01*
X123803571Y-96760714D01*
X123898809Y-96713095D01*
X124136904Y-96713095D01*
X124232142Y-96760714D01*
X124279761Y-96808333D01*
X124327380Y-96903571D01*
X124327380Y-97189285D01*
X124279761Y-97284523D01*
X124232142Y-97332142D01*
%TO.C,R14*%
X123832380Y-91707857D02*
X123356190Y-92041190D01*
X123832380Y-92279285D02*
X122832380Y-92279285D01*
X122832380Y-91898333D01*
X122880000Y-91803095D01*
X122927619Y-91755476D01*
X123022857Y-91707857D01*
X123165714Y-91707857D01*
X123260952Y-91755476D01*
X123308571Y-91803095D01*
X123356190Y-91898333D01*
X123356190Y-92279285D01*
X123832380Y-90755476D02*
X123832380Y-91326904D01*
X123832380Y-91041190D02*
X122832380Y-91041190D01*
X122975238Y-91136428D01*
X123070476Y-91231666D01*
X123118095Y-91326904D01*
X123165714Y-89898333D02*
X123832380Y-89898333D01*
X122784761Y-90136428D02*
X123499047Y-90374523D01*
X123499047Y-89755476D01*
%TO.C,R15*%
X118852380Y-91592857D02*
X118376190Y-91926190D01*
X118852380Y-92164285D02*
X117852380Y-92164285D01*
X117852380Y-91783333D01*
X117900000Y-91688095D01*
X117947619Y-91640476D01*
X118042857Y-91592857D01*
X118185714Y-91592857D01*
X118280952Y-91640476D01*
X118328571Y-91688095D01*
X118376190Y-91783333D01*
X118376190Y-92164285D01*
X118852380Y-90640476D02*
X118852380Y-91211904D01*
X118852380Y-90926190D02*
X117852380Y-90926190D01*
X117995238Y-91021428D01*
X118090476Y-91116666D01*
X118138095Y-91211904D01*
X117852380Y-89735714D02*
X117852380Y-90211904D01*
X118328571Y-90259523D01*
X118280952Y-90211904D01*
X118233333Y-90116666D01*
X118233333Y-89878571D01*
X118280952Y-89783333D01*
X118328571Y-89735714D01*
X118423809Y-89688095D01*
X118661904Y-89688095D01*
X118757142Y-89735714D01*
X118804761Y-89783333D01*
X118852380Y-89878571D01*
X118852380Y-90116666D01*
X118804761Y-90211904D01*
X118757142Y-90259523D01*
%TO.C,R16*%
X150902380Y-104342857D02*
X150426190Y-104676190D01*
X150902380Y-104914285D02*
X149902380Y-104914285D01*
X149902380Y-104533333D01*
X149950000Y-104438095D01*
X149997619Y-104390476D01*
X150092857Y-104342857D01*
X150235714Y-104342857D01*
X150330952Y-104390476D01*
X150378571Y-104438095D01*
X150426190Y-104533333D01*
X150426190Y-104914285D01*
X150902380Y-103390476D02*
X150902380Y-103961904D01*
X150902380Y-103676190D02*
X149902380Y-103676190D01*
X150045238Y-103771428D01*
X150140476Y-103866666D01*
X150188095Y-103961904D01*
X149902380Y-102533333D02*
X149902380Y-102723809D01*
X149950000Y-102819047D01*
X149997619Y-102866666D01*
X150140476Y-102961904D01*
X150330952Y-103009523D01*
X150711904Y-103009523D01*
X150807142Y-102961904D01*
X150854761Y-102914285D01*
X150902380Y-102819047D01*
X150902380Y-102628571D01*
X150854761Y-102533333D01*
X150807142Y-102485714D01*
X150711904Y-102438095D01*
X150473809Y-102438095D01*
X150378571Y-102485714D01*
X150330952Y-102533333D01*
X150283333Y-102628571D01*
X150283333Y-102819047D01*
X150330952Y-102914285D01*
X150378571Y-102961904D01*
X150473809Y-103009523D01*
%TO.C,R18*%
X119044642Y-87102380D02*
X118711309Y-86626190D01*
X118473214Y-87102380D02*
X118473214Y-86102380D01*
X118854166Y-86102380D01*
X118949404Y-86150000D01*
X118997023Y-86197619D01*
X119044642Y-86292857D01*
X119044642Y-86435714D01*
X118997023Y-86530952D01*
X118949404Y-86578571D01*
X118854166Y-86626190D01*
X118473214Y-86626190D01*
X119997023Y-87102380D02*
X119425595Y-87102380D01*
X119711309Y-87102380D02*
X119711309Y-86102380D01*
X119616071Y-86245238D01*
X119520833Y-86340476D01*
X119425595Y-86388095D01*
X120568452Y-86530952D02*
X120473214Y-86483333D01*
X120425595Y-86435714D01*
X120377976Y-86340476D01*
X120377976Y-86292857D01*
X120425595Y-86197619D01*
X120473214Y-86150000D01*
X120568452Y-86102380D01*
X120758928Y-86102380D01*
X120854166Y-86150000D01*
X120901785Y-86197619D01*
X120949404Y-86292857D01*
X120949404Y-86340476D01*
X120901785Y-86435714D01*
X120854166Y-86483333D01*
X120758928Y-86530952D01*
X120568452Y-86530952D01*
X120473214Y-86578571D01*
X120425595Y-86626190D01*
X120377976Y-86721428D01*
X120377976Y-86911904D01*
X120425595Y-87007142D01*
X120473214Y-87054761D01*
X120568452Y-87102380D01*
X120758928Y-87102380D01*
X120854166Y-87054761D01*
X120901785Y-87007142D01*
X120949404Y-86911904D01*
X120949404Y-86721428D01*
X120901785Y-86626190D01*
X120854166Y-86578571D01*
X120758928Y-86530952D01*
%TO.C,R20*%
X155802380Y-97042857D02*
X155326190Y-97376190D01*
X155802380Y-97614285D02*
X154802380Y-97614285D01*
X154802380Y-97233333D01*
X154850000Y-97138095D01*
X154897619Y-97090476D01*
X154992857Y-97042857D01*
X155135714Y-97042857D01*
X155230952Y-97090476D01*
X155278571Y-97138095D01*
X155326190Y-97233333D01*
X155326190Y-97614285D01*
X154897619Y-96661904D02*
X154850000Y-96614285D01*
X154802380Y-96519047D01*
X154802380Y-96280952D01*
X154850000Y-96185714D01*
X154897619Y-96138095D01*
X154992857Y-96090476D01*
X155088095Y-96090476D01*
X155230952Y-96138095D01*
X155802380Y-96709523D01*
X155802380Y-96090476D01*
X154802380Y-95471428D02*
X154802380Y-95376190D01*
X154850000Y-95280952D01*
X154897619Y-95233333D01*
X154992857Y-95185714D01*
X155183333Y-95138095D01*
X155421428Y-95138095D01*
X155611904Y-95185714D01*
X155707142Y-95233333D01*
X155754761Y-95280952D01*
X155802380Y-95376190D01*
X155802380Y-95471428D01*
X155754761Y-95566666D01*
X155707142Y-95614285D01*
X155611904Y-95661904D01*
X155421428Y-95709523D01*
X155183333Y-95709523D01*
X154992857Y-95661904D01*
X154897619Y-95614285D01*
X154850000Y-95566666D01*
X154802380Y-95471428D01*
%TO.C,R21*%
X122352380Y-91342857D02*
X121876190Y-91676190D01*
X122352380Y-91914285D02*
X121352380Y-91914285D01*
X121352380Y-91533333D01*
X121400000Y-91438095D01*
X121447619Y-91390476D01*
X121542857Y-91342857D01*
X121685714Y-91342857D01*
X121780952Y-91390476D01*
X121828571Y-91438095D01*
X121876190Y-91533333D01*
X121876190Y-91914285D01*
X121447619Y-90961904D02*
X121400000Y-90914285D01*
X121352380Y-90819047D01*
X121352380Y-90580952D01*
X121400000Y-90485714D01*
X121447619Y-90438095D01*
X121542857Y-90390476D01*
X121638095Y-90390476D01*
X121780952Y-90438095D01*
X122352380Y-91009523D01*
X122352380Y-90390476D01*
X122352380Y-89438095D02*
X122352380Y-90009523D01*
X122352380Y-89723809D02*
X121352380Y-89723809D01*
X121495238Y-89819047D01*
X121590476Y-89914285D01*
X121638095Y-90009523D01*
%TO.C,R23*%
X164557142Y-91802380D02*
X164223809Y-91326190D01*
X163985714Y-91802380D02*
X163985714Y-90802380D01*
X164366666Y-90802380D01*
X164461904Y-90850000D01*
X164509523Y-90897619D01*
X164557142Y-90992857D01*
X164557142Y-91135714D01*
X164509523Y-91230952D01*
X164461904Y-91278571D01*
X164366666Y-91326190D01*
X163985714Y-91326190D01*
X164938095Y-90897619D02*
X164985714Y-90850000D01*
X165080952Y-90802380D01*
X165319047Y-90802380D01*
X165414285Y-90850000D01*
X165461904Y-90897619D01*
X165509523Y-90992857D01*
X165509523Y-91088095D01*
X165461904Y-91230952D01*
X164890476Y-91802380D01*
X165509523Y-91802380D01*
X165842857Y-90802380D02*
X166461904Y-90802380D01*
X166128571Y-91183333D01*
X166271428Y-91183333D01*
X166366666Y-91230952D01*
X166414285Y-91278571D01*
X166461904Y-91373809D01*
X166461904Y-91611904D01*
X166414285Y-91707142D01*
X166366666Y-91754761D01*
X166271428Y-91802380D01*
X165985714Y-91802380D01*
X165890476Y-91754761D01*
X165842857Y-91707142D01*
%TO.C,R25*%
X131002380Y-91842857D02*
X130526190Y-92176190D01*
X131002380Y-92414285D02*
X130002380Y-92414285D01*
X130002380Y-92033333D01*
X130050000Y-91938095D01*
X130097619Y-91890476D01*
X130192857Y-91842857D01*
X130335714Y-91842857D01*
X130430952Y-91890476D01*
X130478571Y-91938095D01*
X130526190Y-92033333D01*
X130526190Y-92414285D01*
X130097619Y-91461904D02*
X130050000Y-91414285D01*
X130002380Y-91319047D01*
X130002380Y-91080952D01*
X130050000Y-90985714D01*
X130097619Y-90938095D01*
X130192857Y-90890476D01*
X130288095Y-90890476D01*
X130430952Y-90938095D01*
X131002380Y-91509523D01*
X131002380Y-90890476D01*
X130002380Y-89985714D02*
X130002380Y-90461904D01*
X130478571Y-90509523D01*
X130430952Y-90461904D01*
X130383333Y-90366666D01*
X130383333Y-90128571D01*
X130430952Y-90033333D01*
X130478571Y-89985714D01*
X130573809Y-89938095D01*
X130811904Y-89938095D01*
X130907142Y-89985714D01*
X130954761Y-90033333D01*
X131002380Y-90128571D01*
X131002380Y-90366666D01*
X130954761Y-90461904D01*
X130907142Y-90509523D01*
%TO.C,R26*%
X122927142Y-83652380D02*
X122593809Y-83176190D01*
X122355714Y-83652380D02*
X122355714Y-82652380D01*
X122736666Y-82652380D01*
X122831904Y-82700000D01*
X122879523Y-82747619D01*
X122927142Y-82842857D01*
X122927142Y-82985714D01*
X122879523Y-83080952D01*
X122831904Y-83128571D01*
X122736666Y-83176190D01*
X122355714Y-83176190D01*
X123308095Y-82747619D02*
X123355714Y-82700000D01*
X123450952Y-82652380D01*
X123689047Y-82652380D01*
X123784285Y-82700000D01*
X123831904Y-82747619D01*
X123879523Y-82842857D01*
X123879523Y-82938095D01*
X123831904Y-83080952D01*
X123260476Y-83652380D01*
X123879523Y-83652380D01*
X124736666Y-82652380D02*
X124546190Y-82652380D01*
X124450952Y-82700000D01*
X124403333Y-82747619D01*
X124308095Y-82890476D01*
X124260476Y-83080952D01*
X124260476Y-83461904D01*
X124308095Y-83557142D01*
X124355714Y-83604761D01*
X124450952Y-83652380D01*
X124641428Y-83652380D01*
X124736666Y-83604761D01*
X124784285Y-83557142D01*
X124831904Y-83461904D01*
X124831904Y-83223809D01*
X124784285Y-83128571D01*
X124736666Y-83080952D01*
X124641428Y-83033333D01*
X124450952Y-83033333D01*
X124355714Y-83080952D01*
X124308095Y-83128571D01*
X124260476Y-83223809D01*
%TO.C,R27*%
X139002380Y-93242857D02*
X138526190Y-93576190D01*
X139002380Y-93814285D02*
X138002380Y-93814285D01*
X138002380Y-93433333D01*
X138050000Y-93338095D01*
X138097619Y-93290476D01*
X138192857Y-93242857D01*
X138335714Y-93242857D01*
X138430952Y-93290476D01*
X138478571Y-93338095D01*
X138526190Y-93433333D01*
X138526190Y-93814285D01*
X138097619Y-92861904D02*
X138050000Y-92814285D01*
X138002380Y-92719047D01*
X138002380Y-92480952D01*
X138050000Y-92385714D01*
X138097619Y-92338095D01*
X138192857Y-92290476D01*
X138288095Y-92290476D01*
X138430952Y-92338095D01*
X139002380Y-92909523D01*
X139002380Y-92290476D01*
X138002380Y-91957142D02*
X138002380Y-91290476D01*
X139002380Y-91719047D01*
%TO.C,R28*%
X140302380Y-93242857D02*
X139826190Y-93576190D01*
X140302380Y-93814285D02*
X139302380Y-93814285D01*
X139302380Y-93433333D01*
X139350000Y-93338095D01*
X139397619Y-93290476D01*
X139492857Y-93242857D01*
X139635714Y-93242857D01*
X139730952Y-93290476D01*
X139778571Y-93338095D01*
X139826190Y-93433333D01*
X139826190Y-93814285D01*
X139397619Y-92861904D02*
X139350000Y-92814285D01*
X139302380Y-92719047D01*
X139302380Y-92480952D01*
X139350000Y-92385714D01*
X139397619Y-92338095D01*
X139492857Y-92290476D01*
X139588095Y-92290476D01*
X139730952Y-92338095D01*
X140302380Y-92909523D01*
X140302380Y-92290476D01*
X139730952Y-91719047D02*
X139683333Y-91814285D01*
X139635714Y-91861904D01*
X139540476Y-91909523D01*
X139492857Y-91909523D01*
X139397619Y-91861904D01*
X139350000Y-91814285D01*
X139302380Y-91719047D01*
X139302380Y-91528571D01*
X139350000Y-91433333D01*
X139397619Y-91385714D01*
X139492857Y-91338095D01*
X139540476Y-91338095D01*
X139635714Y-91385714D01*
X139683333Y-91433333D01*
X139730952Y-91528571D01*
X139730952Y-91719047D01*
X139778571Y-91814285D01*
X139826190Y-91861904D01*
X139921428Y-91909523D01*
X140111904Y-91909523D01*
X140207142Y-91861904D01*
X140254761Y-91814285D01*
X140302380Y-91719047D01*
X140302380Y-91528571D01*
X140254761Y-91433333D01*
X140207142Y-91385714D01*
X140111904Y-91338095D01*
X139921428Y-91338095D01*
X139826190Y-91385714D01*
X139778571Y-91433333D01*
X139730952Y-91528571D01*
%TO.C,R29*%
X143002380Y-93242857D02*
X142526190Y-93576190D01*
X143002380Y-93814285D02*
X142002380Y-93814285D01*
X142002380Y-93433333D01*
X142050000Y-93338095D01*
X142097619Y-93290476D01*
X142192857Y-93242857D01*
X142335714Y-93242857D01*
X142430952Y-93290476D01*
X142478571Y-93338095D01*
X142526190Y-93433333D01*
X142526190Y-93814285D01*
X142097619Y-92861904D02*
X142050000Y-92814285D01*
X142002380Y-92719047D01*
X142002380Y-92480952D01*
X142050000Y-92385714D01*
X142097619Y-92338095D01*
X142192857Y-92290476D01*
X142288095Y-92290476D01*
X142430952Y-92338095D01*
X143002380Y-92909523D01*
X143002380Y-92290476D01*
X143002380Y-91814285D02*
X143002380Y-91623809D01*
X142954761Y-91528571D01*
X142907142Y-91480952D01*
X142764285Y-91385714D01*
X142573809Y-91338095D01*
X142192857Y-91338095D01*
X142097619Y-91385714D01*
X142050000Y-91433333D01*
X142002380Y-91528571D01*
X142002380Y-91719047D01*
X142050000Y-91814285D01*
X142097619Y-91861904D01*
X142192857Y-91909523D01*
X142430952Y-91909523D01*
X142526190Y-91861904D01*
X142573809Y-91814285D01*
X142621428Y-91719047D01*
X142621428Y-91528571D01*
X142573809Y-91433333D01*
X142526190Y-91385714D01*
X142430952Y-91338095D01*
%TO.C,R30*%
X139702380Y-81642857D02*
X139226190Y-81976190D01*
X139702380Y-82214285D02*
X138702380Y-82214285D01*
X138702380Y-81833333D01*
X138750000Y-81738095D01*
X138797619Y-81690476D01*
X138892857Y-81642857D01*
X139035714Y-81642857D01*
X139130952Y-81690476D01*
X139178571Y-81738095D01*
X139226190Y-81833333D01*
X139226190Y-82214285D01*
X138702380Y-81309523D02*
X138702380Y-80690476D01*
X139083333Y-81023809D01*
X139083333Y-80880952D01*
X139130952Y-80785714D01*
X139178571Y-80738095D01*
X139273809Y-80690476D01*
X139511904Y-80690476D01*
X139607142Y-80738095D01*
X139654761Y-80785714D01*
X139702380Y-80880952D01*
X139702380Y-81166666D01*
X139654761Y-81261904D01*
X139607142Y-81309523D01*
X138702380Y-80071428D02*
X138702380Y-79976190D01*
X138750000Y-79880952D01*
X138797619Y-79833333D01*
X138892857Y-79785714D01*
X139083333Y-79738095D01*
X139321428Y-79738095D01*
X139511904Y-79785714D01*
X139607142Y-79833333D01*
X139654761Y-79880952D01*
X139702380Y-79976190D01*
X139702380Y-80071428D01*
X139654761Y-80166666D01*
X139607142Y-80214285D01*
X139511904Y-80261904D01*
X139321428Y-80309523D01*
X139083333Y-80309523D01*
X138892857Y-80261904D01*
X138797619Y-80214285D01*
X138750000Y-80166666D01*
X138702380Y-80071428D01*
%TO.C,R31*%
X148357142Y-91452380D02*
X148023809Y-90976190D01*
X147785714Y-91452380D02*
X147785714Y-90452380D01*
X148166666Y-90452380D01*
X148261904Y-90500000D01*
X148309523Y-90547619D01*
X148357142Y-90642857D01*
X148357142Y-90785714D01*
X148309523Y-90880952D01*
X148261904Y-90928571D01*
X148166666Y-90976190D01*
X147785714Y-90976190D01*
X148690476Y-90452380D02*
X149309523Y-90452380D01*
X148976190Y-90833333D01*
X149119047Y-90833333D01*
X149214285Y-90880952D01*
X149261904Y-90928571D01*
X149309523Y-91023809D01*
X149309523Y-91261904D01*
X149261904Y-91357142D01*
X149214285Y-91404761D01*
X149119047Y-91452380D01*
X148833333Y-91452380D01*
X148738095Y-91404761D01*
X148690476Y-91357142D01*
X150261904Y-91452380D02*
X149690476Y-91452380D01*
X149976190Y-91452380D02*
X149976190Y-90452380D01*
X149880952Y-90595238D01*
X149785714Y-90690476D01*
X149690476Y-90738095D01*
%TO.C,R32*%
X135352380Y-84892857D02*
X134876190Y-85226190D01*
X135352380Y-85464285D02*
X134352380Y-85464285D01*
X134352380Y-85083333D01*
X134400000Y-84988095D01*
X134447619Y-84940476D01*
X134542857Y-84892857D01*
X134685714Y-84892857D01*
X134780952Y-84940476D01*
X134828571Y-84988095D01*
X134876190Y-85083333D01*
X134876190Y-85464285D01*
X134352380Y-84559523D02*
X134352380Y-83940476D01*
X134733333Y-84273809D01*
X134733333Y-84130952D01*
X134780952Y-84035714D01*
X134828571Y-83988095D01*
X134923809Y-83940476D01*
X135161904Y-83940476D01*
X135257142Y-83988095D01*
X135304761Y-84035714D01*
X135352380Y-84130952D01*
X135352380Y-84416666D01*
X135304761Y-84511904D01*
X135257142Y-84559523D01*
X134447619Y-83559523D02*
X134400000Y-83511904D01*
X134352380Y-83416666D01*
X134352380Y-83178571D01*
X134400000Y-83083333D01*
X134447619Y-83035714D01*
X134542857Y-82988095D01*
X134638095Y-82988095D01*
X134780952Y-83035714D01*
X135352380Y-83607142D01*
X135352380Y-82988095D01*
%TO.C,R34*%
X165357142Y-85402380D02*
X165023809Y-84926190D01*
X164785714Y-85402380D02*
X164785714Y-84402380D01*
X165166666Y-84402380D01*
X165261904Y-84450000D01*
X165309523Y-84497619D01*
X165357142Y-84592857D01*
X165357142Y-84735714D01*
X165309523Y-84830952D01*
X165261904Y-84878571D01*
X165166666Y-84926190D01*
X164785714Y-84926190D01*
X165690476Y-84402380D02*
X166309523Y-84402380D01*
X165976190Y-84783333D01*
X166119047Y-84783333D01*
X166214285Y-84830952D01*
X166261904Y-84878571D01*
X166309523Y-84973809D01*
X166309523Y-85211904D01*
X166261904Y-85307142D01*
X166214285Y-85354761D01*
X166119047Y-85402380D01*
X165833333Y-85402380D01*
X165738095Y-85354761D01*
X165690476Y-85307142D01*
X167166666Y-84735714D02*
X167166666Y-85402380D01*
X166928571Y-84354761D02*
X166690476Y-85069047D01*
X167309523Y-85069047D01*
%TO.C,R35*%
X165357142Y-87002380D02*
X165023809Y-86526190D01*
X164785714Y-87002380D02*
X164785714Y-86002380D01*
X165166666Y-86002380D01*
X165261904Y-86050000D01*
X165309523Y-86097619D01*
X165357142Y-86192857D01*
X165357142Y-86335714D01*
X165309523Y-86430952D01*
X165261904Y-86478571D01*
X165166666Y-86526190D01*
X164785714Y-86526190D01*
X165690476Y-86002380D02*
X166309523Y-86002380D01*
X165976190Y-86383333D01*
X166119047Y-86383333D01*
X166214285Y-86430952D01*
X166261904Y-86478571D01*
X166309523Y-86573809D01*
X166309523Y-86811904D01*
X166261904Y-86907142D01*
X166214285Y-86954761D01*
X166119047Y-87002380D01*
X165833333Y-87002380D01*
X165738095Y-86954761D01*
X165690476Y-86907142D01*
X167214285Y-86002380D02*
X166738095Y-86002380D01*
X166690476Y-86478571D01*
X166738095Y-86430952D01*
X166833333Y-86383333D01*
X167071428Y-86383333D01*
X167166666Y-86430952D01*
X167214285Y-86478571D01*
X167261904Y-86573809D01*
X167261904Y-86811904D01*
X167214285Y-86907142D01*
X167166666Y-86954761D01*
X167071428Y-87002380D01*
X166833333Y-87002380D01*
X166738095Y-86954761D01*
X166690476Y-86907142D01*
%TO.C,R36*%
X149952380Y-78642857D02*
X149476190Y-78976190D01*
X149952380Y-79214285D02*
X148952380Y-79214285D01*
X148952380Y-78833333D01*
X149000000Y-78738095D01*
X149047619Y-78690476D01*
X149142857Y-78642857D01*
X149285714Y-78642857D01*
X149380952Y-78690476D01*
X149428571Y-78738095D01*
X149476190Y-78833333D01*
X149476190Y-79214285D01*
X148952380Y-78309523D02*
X148952380Y-77690476D01*
X149333333Y-78023809D01*
X149333333Y-77880952D01*
X149380952Y-77785714D01*
X149428571Y-77738095D01*
X149523809Y-77690476D01*
X149761904Y-77690476D01*
X149857142Y-77738095D01*
X149904761Y-77785714D01*
X149952380Y-77880952D01*
X149952380Y-78166666D01*
X149904761Y-78261904D01*
X149857142Y-78309523D01*
X148952380Y-76833333D02*
X148952380Y-77023809D01*
X149000000Y-77119047D01*
X149047619Y-77166666D01*
X149190476Y-77261904D01*
X149380952Y-77309523D01*
X149761904Y-77309523D01*
X149857142Y-77261904D01*
X149904761Y-77214285D01*
X149952380Y-77119047D01*
X149952380Y-76928571D01*
X149904761Y-76833333D01*
X149857142Y-76785714D01*
X149761904Y-76738095D01*
X149523809Y-76738095D01*
X149428571Y-76785714D01*
X149380952Y-76833333D01*
X149333333Y-76928571D01*
X149333333Y-77119047D01*
X149380952Y-77214285D01*
X149428571Y-77261904D01*
X149523809Y-77309523D01*
%TO.C,R37*%
X138002380Y-78392857D02*
X137526190Y-78726190D01*
X138002380Y-78964285D02*
X137002380Y-78964285D01*
X137002380Y-78583333D01*
X137050000Y-78488095D01*
X137097619Y-78440476D01*
X137192857Y-78392857D01*
X137335714Y-78392857D01*
X137430952Y-78440476D01*
X137478571Y-78488095D01*
X137526190Y-78583333D01*
X137526190Y-78964285D01*
X137002380Y-78059523D02*
X137002380Y-77440476D01*
X137383333Y-77773809D01*
X137383333Y-77630952D01*
X137430952Y-77535714D01*
X137478571Y-77488095D01*
X137573809Y-77440476D01*
X137811904Y-77440476D01*
X137907142Y-77488095D01*
X137954761Y-77535714D01*
X138002380Y-77630952D01*
X138002380Y-77916666D01*
X137954761Y-78011904D01*
X137907142Y-78059523D01*
X137002380Y-77107142D02*
X137002380Y-76440476D01*
X138002380Y-76869047D01*
%TO.C,R40*%
X158702380Y-102992857D02*
X158226190Y-103326190D01*
X158702380Y-103564285D02*
X157702380Y-103564285D01*
X157702380Y-103183333D01*
X157750000Y-103088095D01*
X157797619Y-103040476D01*
X157892857Y-102992857D01*
X158035714Y-102992857D01*
X158130952Y-103040476D01*
X158178571Y-103088095D01*
X158226190Y-103183333D01*
X158226190Y-103564285D01*
X158035714Y-102135714D02*
X158702380Y-102135714D01*
X157654761Y-102373809D02*
X158369047Y-102611904D01*
X158369047Y-101992857D01*
X157702380Y-101421428D02*
X157702380Y-101326190D01*
X157750000Y-101230952D01*
X157797619Y-101183333D01*
X157892857Y-101135714D01*
X158083333Y-101088095D01*
X158321428Y-101088095D01*
X158511904Y-101135714D01*
X158607142Y-101183333D01*
X158654761Y-101230952D01*
X158702380Y-101326190D01*
X158702380Y-101421428D01*
X158654761Y-101516666D01*
X158607142Y-101564285D01*
X158511904Y-101611904D01*
X158321428Y-101659523D01*
X158083333Y-101659523D01*
X157892857Y-101611904D01*
X157797619Y-101564285D01*
X157750000Y-101516666D01*
X157702380Y-101421428D01*
%TO.C,R41*%
X149857142Y-92952380D02*
X149523809Y-92476190D01*
X149285714Y-92952380D02*
X149285714Y-91952380D01*
X149666666Y-91952380D01*
X149761904Y-92000000D01*
X149809523Y-92047619D01*
X149857142Y-92142857D01*
X149857142Y-92285714D01*
X149809523Y-92380952D01*
X149761904Y-92428571D01*
X149666666Y-92476190D01*
X149285714Y-92476190D01*
X150714285Y-92285714D02*
X150714285Y-92952380D01*
X150476190Y-91904761D02*
X150238095Y-92619047D01*
X150857142Y-92619047D01*
X151761904Y-92952380D02*
X151190476Y-92952380D01*
X151476190Y-92952380D02*
X151476190Y-91952380D01*
X151380952Y-92095238D01*
X151285714Y-92190476D01*
X151190476Y-92238095D01*
%TO.C,R42*%
X134807142Y-90252380D02*
X134473809Y-89776190D01*
X134235714Y-90252380D02*
X134235714Y-89252380D01*
X134616666Y-89252380D01*
X134711904Y-89300000D01*
X134759523Y-89347619D01*
X134807142Y-89442857D01*
X134807142Y-89585714D01*
X134759523Y-89680952D01*
X134711904Y-89728571D01*
X134616666Y-89776190D01*
X134235714Y-89776190D01*
X135664285Y-89585714D02*
X135664285Y-90252380D01*
X135426190Y-89204761D02*
X135188095Y-89919047D01*
X135807142Y-89919047D01*
X136140476Y-89347619D02*
X136188095Y-89300000D01*
X136283333Y-89252380D01*
X136521428Y-89252380D01*
X136616666Y-89300000D01*
X136664285Y-89347619D01*
X136711904Y-89442857D01*
X136711904Y-89538095D01*
X136664285Y-89680952D01*
X136092857Y-90252380D01*
X136711904Y-90252380D01*
%TO.C,R43*%
X157302380Y-97042857D02*
X156826190Y-97376190D01*
X157302380Y-97614285D02*
X156302380Y-97614285D01*
X156302380Y-97233333D01*
X156350000Y-97138095D01*
X156397619Y-97090476D01*
X156492857Y-97042857D01*
X156635714Y-97042857D01*
X156730952Y-97090476D01*
X156778571Y-97138095D01*
X156826190Y-97233333D01*
X156826190Y-97614285D01*
X156635714Y-96185714D02*
X157302380Y-96185714D01*
X156254761Y-96423809D02*
X156969047Y-96661904D01*
X156969047Y-96042857D01*
X156302380Y-95757142D02*
X156302380Y-95138095D01*
X156683333Y-95471428D01*
X156683333Y-95328571D01*
X156730952Y-95233333D01*
X156778571Y-95185714D01*
X156873809Y-95138095D01*
X157111904Y-95138095D01*
X157207142Y-95185714D01*
X157254761Y-95233333D01*
X157302380Y-95328571D01*
X157302380Y-95614285D01*
X157254761Y-95709523D01*
X157207142Y-95757142D01*
%TO.C,R44*%
X157287380Y-102992857D02*
X156811190Y-103326190D01*
X157287380Y-103564285D02*
X156287380Y-103564285D01*
X156287380Y-103183333D01*
X156335000Y-103088095D01*
X156382619Y-103040476D01*
X156477857Y-102992857D01*
X156620714Y-102992857D01*
X156715952Y-103040476D01*
X156763571Y-103088095D01*
X156811190Y-103183333D01*
X156811190Y-103564285D01*
X156620714Y-102135714D02*
X157287380Y-102135714D01*
X156239761Y-102373809D02*
X156954047Y-102611904D01*
X156954047Y-101992857D01*
X156620714Y-101183333D02*
X157287380Y-101183333D01*
X156239761Y-101421428D02*
X156954047Y-101659523D01*
X156954047Y-101040476D01*
%TO.C,R45*%
X137857142Y-83452380D02*
X137523809Y-82976190D01*
X137285714Y-83452380D02*
X137285714Y-82452380D01*
X137666666Y-82452380D01*
X137761904Y-82500000D01*
X137809523Y-82547619D01*
X137857142Y-82642857D01*
X137857142Y-82785714D01*
X137809523Y-82880952D01*
X137761904Y-82928571D01*
X137666666Y-82976190D01*
X137285714Y-82976190D01*
X138714285Y-82785714D02*
X138714285Y-83452380D01*
X138476190Y-82404761D02*
X138238095Y-83119047D01*
X138857142Y-83119047D01*
X139714285Y-82452380D02*
X139238095Y-82452380D01*
X139190476Y-82928571D01*
X139238095Y-82880952D01*
X139333333Y-82833333D01*
X139571428Y-82833333D01*
X139666666Y-82880952D01*
X139714285Y-82928571D01*
X139761904Y-83023809D01*
X139761904Y-83261904D01*
X139714285Y-83357142D01*
X139666666Y-83404761D01*
X139571428Y-83452380D01*
X139333333Y-83452380D01*
X139238095Y-83404761D01*
X139190476Y-83357142D01*
%TO.C,R48*%
X158802380Y-97042857D02*
X158326190Y-97376190D01*
X158802380Y-97614285D02*
X157802380Y-97614285D01*
X157802380Y-97233333D01*
X157850000Y-97138095D01*
X157897619Y-97090476D01*
X157992857Y-97042857D01*
X158135714Y-97042857D01*
X158230952Y-97090476D01*
X158278571Y-97138095D01*
X158326190Y-97233333D01*
X158326190Y-97614285D01*
X158135714Y-96185714D02*
X158802380Y-96185714D01*
X157754761Y-96423809D02*
X158469047Y-96661904D01*
X158469047Y-96042857D01*
X158230952Y-95519047D02*
X158183333Y-95614285D01*
X158135714Y-95661904D01*
X158040476Y-95709523D01*
X157992857Y-95709523D01*
X157897619Y-95661904D01*
X157850000Y-95614285D01*
X157802380Y-95519047D01*
X157802380Y-95328571D01*
X157850000Y-95233333D01*
X157897619Y-95185714D01*
X157992857Y-95138095D01*
X158040476Y-95138095D01*
X158135714Y-95185714D01*
X158183333Y-95233333D01*
X158230952Y-95328571D01*
X158230952Y-95519047D01*
X158278571Y-95614285D01*
X158326190Y-95661904D01*
X158421428Y-95709523D01*
X158611904Y-95709523D01*
X158707142Y-95661904D01*
X158754761Y-95614285D01*
X158802380Y-95519047D01*
X158802380Y-95328571D01*
X158754761Y-95233333D01*
X158707142Y-95185714D01*
X158611904Y-95138095D01*
X158421428Y-95138095D01*
X158326190Y-95185714D01*
X158278571Y-95233333D01*
X158230952Y-95328571D01*
%TO.C,C36*%
X118607142Y-72857142D02*
X118559523Y-72904761D01*
X118416666Y-72952380D01*
X118321428Y-72952380D01*
X118178571Y-72904761D01*
X118083333Y-72809523D01*
X118035714Y-72714285D01*
X117988095Y-72523809D01*
X117988095Y-72380952D01*
X118035714Y-72190476D01*
X118083333Y-72095238D01*
X118178571Y-72000000D01*
X118321428Y-71952380D01*
X118416666Y-71952380D01*
X118559523Y-72000000D01*
X118607142Y-72047619D01*
X118940476Y-71952380D02*
X119559523Y-71952380D01*
X119226190Y-72333333D01*
X119369047Y-72333333D01*
X119464285Y-72380952D01*
X119511904Y-72428571D01*
X119559523Y-72523809D01*
X119559523Y-72761904D01*
X119511904Y-72857142D01*
X119464285Y-72904761D01*
X119369047Y-72952380D01*
X119083333Y-72952380D01*
X118988095Y-72904761D01*
X118940476Y-72857142D01*
X120416666Y-71952380D02*
X120226190Y-71952380D01*
X120130952Y-72000000D01*
X120083333Y-72047619D01*
X119988095Y-72190476D01*
X119940476Y-72380952D01*
X119940476Y-72761904D01*
X119988095Y-72857142D01*
X120035714Y-72904761D01*
X120130952Y-72952380D01*
X120321428Y-72952380D01*
X120416666Y-72904761D01*
X120464285Y-72857142D01*
X120511904Y-72761904D01*
X120511904Y-72523809D01*
X120464285Y-72428571D01*
X120416666Y-72380952D01*
X120321428Y-72333333D01*
X120130952Y-72333333D01*
X120035714Y-72380952D01*
X119988095Y-72428571D01*
X119940476Y-72523809D01*
%TO.C,C45*%
X115357142Y-78607142D02*
X115309523Y-78654761D01*
X115166666Y-78702380D01*
X115071428Y-78702380D01*
X114928571Y-78654761D01*
X114833333Y-78559523D01*
X114785714Y-78464285D01*
X114738095Y-78273809D01*
X114738095Y-78130952D01*
X114785714Y-77940476D01*
X114833333Y-77845238D01*
X114928571Y-77750000D01*
X115071428Y-77702380D01*
X115166666Y-77702380D01*
X115309523Y-77750000D01*
X115357142Y-77797619D01*
X116214285Y-78035714D02*
X116214285Y-78702380D01*
X115976190Y-77654761D02*
X115738095Y-78369047D01*
X116357142Y-78369047D01*
X117214285Y-77702380D02*
X116738095Y-77702380D01*
X116690476Y-78178571D01*
X116738095Y-78130952D01*
X116833333Y-78083333D01*
X117071428Y-78083333D01*
X117166666Y-78130952D01*
X117214285Y-78178571D01*
X117261904Y-78273809D01*
X117261904Y-78511904D01*
X117214285Y-78607142D01*
X117166666Y-78654761D01*
X117071428Y-78702380D01*
X116833333Y-78702380D01*
X116738095Y-78654761D01*
X116690476Y-78607142D01*
%TO.C,C46*%
X107107142Y-73857142D02*
X107059523Y-73904761D01*
X106916666Y-73952380D01*
X106821428Y-73952380D01*
X106678571Y-73904761D01*
X106583333Y-73809523D01*
X106535714Y-73714285D01*
X106488095Y-73523809D01*
X106488095Y-73380952D01*
X106535714Y-73190476D01*
X106583333Y-73095238D01*
X106678571Y-73000000D01*
X106821428Y-72952380D01*
X106916666Y-72952380D01*
X107059523Y-73000000D01*
X107107142Y-73047619D01*
X107964285Y-73285714D02*
X107964285Y-73952380D01*
X107726190Y-72904761D02*
X107488095Y-73619047D01*
X108107142Y-73619047D01*
X108916666Y-72952380D02*
X108726190Y-72952380D01*
X108630952Y-73000000D01*
X108583333Y-73047619D01*
X108488095Y-73190476D01*
X108440476Y-73380952D01*
X108440476Y-73761904D01*
X108488095Y-73857142D01*
X108535714Y-73904761D01*
X108630952Y-73952380D01*
X108821428Y-73952380D01*
X108916666Y-73904761D01*
X108964285Y-73857142D01*
X109011904Y-73761904D01*
X109011904Y-73523809D01*
X108964285Y-73428571D01*
X108916666Y-73380952D01*
X108821428Y-73333333D01*
X108630952Y-73333333D01*
X108535714Y-73380952D01*
X108488095Y-73428571D01*
X108440476Y-73523809D01*
%TO.C,C47*%
X107107142Y-72357142D02*
X107059523Y-72404761D01*
X106916666Y-72452380D01*
X106821428Y-72452380D01*
X106678571Y-72404761D01*
X106583333Y-72309523D01*
X106535714Y-72214285D01*
X106488095Y-72023809D01*
X106488095Y-71880952D01*
X106535714Y-71690476D01*
X106583333Y-71595238D01*
X106678571Y-71500000D01*
X106821428Y-71452380D01*
X106916666Y-71452380D01*
X107059523Y-71500000D01*
X107107142Y-71547619D01*
X107964285Y-71785714D02*
X107964285Y-72452380D01*
X107726190Y-71404761D02*
X107488095Y-72119047D01*
X108107142Y-72119047D01*
X108392857Y-71452380D02*
X109059523Y-71452380D01*
X108630952Y-72452380D01*
%TO.C,L2*%
X107833333Y-76202380D02*
X107357142Y-76202380D01*
X107357142Y-75202380D01*
X108119047Y-75297619D02*
X108166666Y-75250000D01*
X108261904Y-75202380D01*
X108500000Y-75202380D01*
X108595238Y-75250000D01*
X108642857Y-75297619D01*
X108690476Y-75392857D01*
X108690476Y-75488095D01*
X108642857Y-75630952D01*
X108071428Y-76202380D01*
X108690476Y-76202380D01*
%TO.C,U2*%
X118238095Y-74702380D02*
X118238095Y-75511904D01*
X118285714Y-75607142D01*
X118333333Y-75654761D01*
X118428571Y-75702380D01*
X118619047Y-75702380D01*
X118714285Y-75654761D01*
X118761904Y-75607142D01*
X118809523Y-75511904D01*
X118809523Y-74702380D01*
X119238095Y-74797619D02*
X119285714Y-74750000D01*
X119380952Y-74702380D01*
X119619047Y-74702380D01*
X119714285Y-74750000D01*
X119761904Y-74797619D01*
X119809523Y-74892857D01*
X119809523Y-74988095D01*
X119761904Y-75130952D01*
X119190476Y-75702380D01*
X119809523Y-75702380D01*
%TO.C,C48*%
X117637142Y-71142857D02*
X117684761Y-71190476D01*
X117732380Y-71333333D01*
X117732380Y-71428571D01*
X117684761Y-71571428D01*
X117589523Y-71666666D01*
X117494285Y-71714285D01*
X117303809Y-71761904D01*
X117160952Y-71761904D01*
X116970476Y-71714285D01*
X116875238Y-71666666D01*
X116780000Y-71571428D01*
X116732380Y-71428571D01*
X116732380Y-71333333D01*
X116780000Y-71190476D01*
X116827619Y-71142857D01*
X117065714Y-70285714D02*
X117732380Y-70285714D01*
X116684761Y-70523809D02*
X117399047Y-70761904D01*
X117399047Y-70142857D01*
X117160952Y-69619047D02*
X117113333Y-69714285D01*
X117065714Y-69761904D01*
X116970476Y-69809523D01*
X116922857Y-69809523D01*
X116827619Y-69761904D01*
X116780000Y-69714285D01*
X116732380Y-69619047D01*
X116732380Y-69428571D01*
X116780000Y-69333333D01*
X116827619Y-69285714D01*
X116922857Y-69238095D01*
X116970476Y-69238095D01*
X117065714Y-69285714D01*
X117113333Y-69333333D01*
X117160952Y-69428571D01*
X117160952Y-69619047D01*
X117208571Y-69714285D01*
X117256190Y-69761904D01*
X117351428Y-69809523D01*
X117541904Y-69809523D01*
X117637142Y-69761904D01*
X117684761Y-69714285D01*
X117732380Y-69619047D01*
X117732380Y-69428571D01*
X117684761Y-69333333D01*
X117637142Y-69285714D01*
X117541904Y-69238095D01*
X117351428Y-69238095D01*
X117256190Y-69285714D01*
X117208571Y-69333333D01*
X117160952Y-69428571D01*
%TO.C,R17*%
X111857142Y-70452380D02*
X111523809Y-69976190D01*
X111285714Y-70452380D02*
X111285714Y-69452380D01*
X111666666Y-69452380D01*
X111761904Y-69500000D01*
X111809523Y-69547619D01*
X111857142Y-69642857D01*
X111857142Y-69785714D01*
X111809523Y-69880952D01*
X111761904Y-69928571D01*
X111666666Y-69976190D01*
X111285714Y-69976190D01*
X112809523Y-70452380D02*
X112238095Y-70452380D01*
X112523809Y-70452380D02*
X112523809Y-69452380D01*
X112428571Y-69595238D01*
X112333333Y-69690476D01*
X112238095Y-69738095D01*
X113142857Y-69452380D02*
X113809523Y-69452380D01*
X113380952Y-70452380D01*
%TO.C,R19*%
X108607142Y-68452380D02*
X108273809Y-67976190D01*
X108035714Y-68452380D02*
X108035714Y-67452380D01*
X108416666Y-67452380D01*
X108511904Y-67500000D01*
X108559523Y-67547619D01*
X108607142Y-67642857D01*
X108607142Y-67785714D01*
X108559523Y-67880952D01*
X108511904Y-67928571D01*
X108416666Y-67976190D01*
X108035714Y-67976190D01*
X109559523Y-68452380D02*
X108988095Y-68452380D01*
X109273809Y-68452380D02*
X109273809Y-67452380D01*
X109178571Y-67595238D01*
X109083333Y-67690476D01*
X108988095Y-67738095D01*
X110035714Y-68452380D02*
X110226190Y-68452380D01*
X110321428Y-68404761D01*
X110369047Y-68357142D01*
X110464285Y-68214285D01*
X110511904Y-68023809D01*
X110511904Y-67642857D01*
X110464285Y-67547619D01*
X110416666Y-67500000D01*
X110321428Y-67452380D01*
X110130952Y-67452380D01*
X110035714Y-67500000D01*
X109988095Y-67547619D01*
X109940476Y-67642857D01*
X109940476Y-67880952D01*
X109988095Y-67976190D01*
X110035714Y-68023809D01*
X110130952Y-68071428D01*
X110321428Y-68071428D01*
X110416666Y-68023809D01*
X110464285Y-67976190D01*
X110511904Y-67880952D01*
%TO.C,R22*%
X114857142Y-70452380D02*
X114523809Y-69976190D01*
X114285714Y-70452380D02*
X114285714Y-69452380D01*
X114666666Y-69452380D01*
X114761904Y-69500000D01*
X114809523Y-69547619D01*
X114857142Y-69642857D01*
X114857142Y-69785714D01*
X114809523Y-69880952D01*
X114761904Y-69928571D01*
X114666666Y-69976190D01*
X114285714Y-69976190D01*
X115238095Y-69547619D02*
X115285714Y-69500000D01*
X115380952Y-69452380D01*
X115619047Y-69452380D01*
X115714285Y-69500000D01*
X115761904Y-69547619D01*
X115809523Y-69642857D01*
X115809523Y-69738095D01*
X115761904Y-69880952D01*
X115190476Y-70452380D01*
X115809523Y-70452380D01*
X116190476Y-69547619D02*
X116238095Y-69500000D01*
X116333333Y-69452380D01*
X116571428Y-69452380D01*
X116666666Y-69500000D01*
X116714285Y-69547619D01*
X116761904Y-69642857D01*
X116761904Y-69738095D01*
X116714285Y-69880952D01*
X116142857Y-70452380D01*
X116761904Y-70452380D01*
%TD*%
M02*
