M48
; DRILL file {KiCad (5.1.6)-1} date 09/22/20 17:38:16
; FORMAT={-:-/ absolute / inch / decimal}
; #@! TF.CreationDate,2020-09-22T17:38:16-04:00
; #@! TF.GenerationSoftware,Kicad,Pcbnew,(5.1.6)-1
; #@! TF.FileFunction,Plated,1,4,PTH
FMAT,2
INCH
T1C0.0118
T2C0.0157
T3C0.0197
T4C0.0276
T5C0.0394
%
G90
G05
T1
X4.8976Y-3.4291
X4.8976Y-3.4587
X4.937Y-3.4291
X4.937Y-3.4587
X4.9764Y-3.4291
X4.9764Y-3.4587
X5.1693Y-3.4016
X5.1693Y-3.4311
X5.2087Y-3.4016
X5.2087Y-3.4311
X5.248Y-3.4016
X5.248Y-3.4311
X5.3031Y-3.7835
X5.3031Y-3.813
X5.3031Y-3.8425
X5.3031Y-3.872
X5.3041Y-3.9026
X5.3425Y-3.7835
X5.3425Y-3.813
X5.3425Y-3.8425
X5.3425Y-3.872
X5.3425Y-3.9016
X5.3819Y-3.7835
X5.3819Y-3.813
X5.3819Y-3.8425
X5.3819Y-3.872
X5.3819Y-3.9016
X5.4213Y-3.7835
X5.4213Y-3.813
X5.4213Y-3.8425
X5.4213Y-3.872
X5.4213Y-3.9016
X5.5295Y-3.4291
X5.5295Y-3.4587
X5.5689Y-3.4291
X5.5689Y-3.4587
X5.6083Y-3.4291
X5.6083Y-3.4587
X5.8031Y-3.3996
X5.8031Y-3.4291
X5.8425Y-3.3996
X5.8425Y-3.4291
X5.8819Y-3.3996
X5.8819Y-3.4291
T2
X4.2959Y-3.4128
X4.3898Y-2.5591
X4.3996Y-4.1339
X4.3996Y-4.1929
X4.4075Y-3.3937
X4.4094Y-2.4213
X4.4094Y-2.4803
X4.4096Y-3.438
X4.4587Y-4.1339
X4.4587Y-4.1929
X4.4685Y-2.4213
X4.4685Y-2.4803
X4.4882Y-2.7067
X4.8091Y-3.3661
X4.813Y-3.5236
X4.9941Y-3.9961
X5.0Y-3.7362
X5.0118Y-3.8228
X5.0197Y-1.7717
X5.0197Y-1.8307
X5.0276Y-3.8661
X5.0433Y-3.9252
X5.0768Y-3.9961
X5.0774Y-4.0388
X5.0787Y-1.7717
X5.0787Y-1.8307
X5.0787Y-3.7835
X5.0807Y-3.7195
X5.0931Y-3.9179
X5.1063Y-3.3622
X5.1063Y-3.4055
X5.1063Y-3.4488
X5.1063Y-3.4921
X5.1693Y-4.0531
X5.2323Y-3.6142
X5.2718Y-3.626
X5.2795Y-3.1043
X5.2992Y-3.5157
X5.3024Y-4.0709
X5.3189Y-3.3898
X5.3642Y-3.639
X5.3701Y-3.1831
X5.3793Y-4.0279
X5.3819Y-4.1654
X5.4173Y-3.4567
X5.4508Y-4.063
X5.4793Y-3.9606
X5.5354Y-3.9291
X5.5413Y-4.1654
X5.5787Y-3.9213
X5.6378Y-3.9252
X5.6693Y-1.7717
X5.6693Y-1.8307
X5.6791Y-3.8307
X5.6791Y-4.0276
X5.6867Y-3.7559
X5.7165Y-3.2894
X5.7283Y-1.7717
X5.7283Y-1.8307
X5.7323Y-3.5295
X5.7323Y-3.5689
X5.7382Y-3.9557
X5.7382Y-4.0118
X5.7545Y-3.8494
X5.7717Y-3.5295
X5.7717Y-3.5689
X5.8012Y-3.815
X5.811Y-3.5295
X5.811Y-3.5689
X5.8504Y-3.5295
X5.8504Y-3.5689
X5.8799Y-3.7982
X5.8799Y-3.1437
X5.8917Y-4.0984
X5.9705Y-3.2992
X5.9843Y-3.4862
X6.0217Y-3.4291
X6.0433Y-3.5728
X6.0571Y-3.7835
X6.0768Y-3.687
X6.0768Y-3.7461
X6.1466Y-4.0422
X6.1594Y-3.4291
X6.1732Y-3.7953
X6.1752Y-3.875
X6.187Y-3.5472
X6.2185Y-3.4094
X6.2303Y-2.4213
X6.2303Y-2.4803
X6.2303Y-2.9429
X6.2303Y-3.002
X6.2303Y-3.7953
X6.2307Y-3.875
X6.2697Y-4.124
X6.2697Y-4.1831
X6.2894Y-2.4213
X6.2894Y-2.4803
X6.2894Y-2.9429
X6.2894Y-3.002
X6.3051Y-3.6843
X6.3071Y-3.4882
X6.3287Y-4.124
X6.3287Y-4.1831
X6.3386Y-3.5335
X6.378Y-3.6417
X6.4764Y-3.75
X6.5256Y-4.0256
X6.5571Y-3.8465
T3
X4.8493Y-3.3684
X5.1535Y-3.6181
X5.2874Y-3.3268
X5.4528Y-3.248
X5.4567Y-3.6407
X5.5079Y-3.3307
X5.5856Y-3.6959
X5.8219Y-3.0512
T4
X5.1969Y-3.061
X5.502Y-3.061
T5
X4.6535Y-2.3366
X4.7535Y-2.3366
X4.4134Y-3.2024
X4.4134Y-3.3024
X4.5134Y-3.2024
X4.5134Y-3.3024
X4.6134Y-3.2024
X4.6134Y-3.3024
T5
G00X4.3992Y-3.852
M15
G01X4.3992Y-3.7732
M16
G05
G00X4.5567Y-3.9976
M15
G01X4.478Y-3.9976
M16
G05
G00X4.6354Y-3.8618
M15
G01X4.6354Y-3.7634
M16
G05
T0
M30
