%TF.GenerationSoftware,KiCad,Pcbnew,(6.0.5)*%
%TF.CreationDate,2022-06-17T18:07:44-04:00*%
%TF.ProjectId,Maka_BMS,4d616b61-5f42-44d5-932e-6b696361645f,rev?*%
%TF.SameCoordinates,Original*%
%TF.FileFunction,Copper,L4,Bot*%
%TF.FilePolarity,Positive*%
%FSLAX46Y46*%
G04 Gerber Fmt 4.6, Leading zero omitted, Abs format (unit mm)*
G04 Created by KiCad (PCBNEW (6.0.5)) date 2022-06-17 18:07:44*
%MOMM*%
%LPD*%
G01*
G04 APERTURE LIST*
G04 Aperture macros list*
%AMRoundRect*
0 Rectangle with rounded corners*
0 $1 Rounding radius*
0 $2 $3 $4 $5 $6 $7 $8 $9 X,Y pos of 4 corners*
0 Add a 4 corners polygon primitive as box body*
4,1,4,$2,$3,$4,$5,$6,$7,$8,$9,$2,$3,0*
0 Add four circle primitives for the rounded corners*
1,1,$1+$1,$2,$3*
1,1,$1+$1,$4,$5*
1,1,$1+$1,$6,$7*
1,1,$1+$1,$8,$9*
0 Add four rect primitives between the rounded corners*
20,1,$1+$1,$2,$3,$4,$5,0*
20,1,$1+$1,$4,$5,$6,$7,0*
20,1,$1+$1,$6,$7,$8,$9,0*
20,1,$1+$1,$8,$9,$2,$3,0*%
%AMRotRect*
0 Rectangle, with rotation*
0 The origin of the aperture is its center*
0 $1 length*
0 $2 width*
0 $3 Rotation angle, in degrees counterclockwise*
0 Add horizontal line*
21,1,$1,$2,0,0,$3*%
G04 Aperture macros list end*
%TA.AperFunction,SMDPad,CuDef*%
%ADD10RoundRect,0.147500X-0.147500X-0.172500X0.147500X-0.172500X0.147500X0.172500X-0.147500X0.172500X0*%
%TD*%
%TA.AperFunction,SMDPad,CuDef*%
%ADD11RoundRect,0.147500X0.147500X0.172500X-0.147500X0.172500X-0.147500X-0.172500X0.147500X-0.172500X0*%
%TD*%
%TA.AperFunction,SMDPad,CuDef*%
%ADD12RoundRect,0.147500X0.079606X0.212545X-0.197603X0.111649X-0.079606X-0.212545X0.197603X-0.111649X0*%
%TD*%
%TA.AperFunction,SMDPad,CuDef*%
%ADD13RoundRect,0.147500X-0.212545X0.079606X-0.111649X-0.197603X0.212545X-0.079606X0.111649X0.197603X0*%
%TD*%
%TA.AperFunction,SMDPad,CuDef*%
%ADD14RoundRect,0.147500X-0.079606X-0.212545X0.197603X-0.111649X0.079606X0.212545X-0.197603X0.111649X0*%
%TD*%
%TA.AperFunction,ComponentPad*%
%ADD15C,1.500000*%
%TD*%
%TA.AperFunction,SMDPad,CuDef*%
%ADD16RoundRect,0.147500X0.172500X-0.147500X0.172500X0.147500X-0.172500X0.147500X-0.172500X-0.147500X0*%
%TD*%
%TA.AperFunction,SMDPad,CuDef*%
%ADD17RoundRect,0.147500X-0.172500X0.147500X-0.172500X-0.147500X0.172500X-0.147500X0.172500X0.147500X0*%
%TD*%
%TA.AperFunction,SMDPad,CuDef*%
%ADD18RoundRect,0.250001X-0.462499X-0.624999X0.462499X-0.624999X0.462499X0.624999X-0.462499X0.624999X0*%
%TD*%
%TA.AperFunction,SMDPad,CuDef*%
%ADD19R,0.600000X1.550000*%
%TD*%
%TA.AperFunction,SMDPad,CuDef*%
%ADD20R,0.800000X1.800000*%
%TD*%
%TA.AperFunction,SMDPad,CuDef*%
%ADD21RoundRect,0.218750X-0.165979X0.293200X-0.315613X-0.117915X0.165979X-0.293200X0.315613X0.117915X0*%
%TD*%
%TA.AperFunction,SMDPad,CuDef*%
%ADD22RoundRect,0.218750X0.218750X0.256250X-0.218750X0.256250X-0.218750X-0.256250X0.218750X-0.256250X0*%
%TD*%
%TA.AperFunction,SMDPad,CuDef*%
%ADD23RoundRect,0.147500X0.212545X-0.079606X0.111649X0.197603X-0.212545X0.079606X-0.111649X-0.197603X0*%
%TD*%
%TA.AperFunction,SMDPad,CuDef*%
%ADD24RoundRect,0.218750X-0.218750X-0.256250X0.218750X-0.256250X0.218750X0.256250X-0.218750X0.256250X0*%
%TD*%
%TA.AperFunction,SMDPad,CuDef*%
%ADD25RoundRect,0.100000X-0.119793X-0.621510X0.307732X0.553106X0.119793X0.621510X-0.307732X-0.553106X0*%
%TD*%
%TA.AperFunction,SMDPad,CuDef*%
%ADD26RotRect,1.950000X2.150000X70.000000*%
%TD*%
%TA.AperFunction,SMDPad,CuDef*%
%ADD27RoundRect,0.147500X-0.111649X0.197603X-0.212545X-0.079606X0.111649X-0.197603X0.212545X0.079606X0*%
%TD*%
%TA.AperFunction,SMDPad,CuDef*%
%ADD28RoundRect,0.147500X-0.197603X-0.111649X0.079606X-0.212545X0.197603X0.111649X-0.079606X0.212545X0*%
%TD*%
%TA.AperFunction,SMDPad,CuDef*%
%ADD29RoundRect,0.147500X0.111649X-0.197603X0.212545X0.079606X-0.111649X0.197603X-0.212545X-0.079606X0*%
%TD*%
%TA.AperFunction,SMDPad,CuDef*%
%ADD30RoundRect,0.147500X0.197603X0.111649X-0.079606X0.212545X-0.197603X-0.111649X0.079606X-0.212545X0*%
%TD*%
%TA.AperFunction,SMDPad,CuDef*%
%ADD31R,0.650000X1.060000*%
%TD*%
%TA.AperFunction,ViaPad*%
%ADD32C,0.800000*%
%TD*%
%TA.AperFunction,ViaPad*%
%ADD33C,1.000000*%
%TD*%
%TA.AperFunction,Conductor*%
%ADD34C,0.250000*%
%TD*%
%TA.AperFunction,Conductor*%
%ADD35C,0.400000*%
%TD*%
%TA.AperFunction,Conductor*%
%ADD36C,0.590000*%
%TD*%
G04 APERTURE END LIST*
D10*
%TO.P,R14,2*%
%TO.N,Net-(R14-Pad2)*%
X146810000Y-112450000D03*
%TO.P,R14,1*%
%TO.N,Earth*%
X145840000Y-112450000D03*
%TD*%
D11*
%TO.P,R6,1*%
%TO.N,~{DELAYED_OFF}*%
X145080000Y-88750000D03*
%TO.P,R6,2*%
%TO.N,Net-(Q1-Pad2)*%
X144110000Y-88750000D03*
%TD*%
%TO.P,R20,2*%
%TO.N,+3V3*%
X146455000Y-113450000D03*
%TO.P,R20,1*%
%TO.N,Net-(R14-Pad2)*%
X147425000Y-113450000D03*
%TD*%
D12*
%TO.P,R12,1*%
%TO.N,Earth*%
X136411502Y-102668240D03*
%TO.P,R12,2*%
%TO.N,Net-(Q3-Pad2)*%
X135500000Y-103000000D03*
%TD*%
%TO.P,R13,1*%
%TO.N,Net-(Q3-Pad2)*%
X134605751Y-103334120D03*
%TO.P,R13,2*%
%TO.N,Net-(R13-Pad2)*%
X133694249Y-103665880D03*
%TD*%
D13*
%TO.P,R10,1*%
%TO.N,Net-(Q2-Pad2)*%
X139409120Y-100644249D03*
%TO.P,R10,2*%
%TO.N,Net-(R10-Pad2)*%
X139740880Y-101555751D03*
%TD*%
D12*
%TO.P,C9,2*%
%TO.N,-BATT*%
X139038498Y-111881760D03*
%TO.P,C9,1*%
%TO.N,Net-(C9-Pad1)*%
X139950000Y-111550000D03*
%TD*%
D14*
%TO.P,R18,2*%
%TO.N,Net-(R18-Pad2)*%
X138311502Y-101968240D03*
%TO.P,R18,1*%
%TO.N,Earth*%
X137400000Y-102300000D03*
%TD*%
D15*
%TO.P,11.1,1,Pin_1*%
%TO.N,+BATT*%
X140450000Y-93225000D03*
%TD*%
%TO.P,0.0,1,Pin_1*%
%TO.N,-BATT*%
X151450000Y-94050000D03*
%TD*%
D10*
%TO.P,R23,1*%
%TO.N,+3V3*%
X149815000Y-99325000D03*
%TO.P,R23,2*%
%TO.N,~{TS_EOC}*%
X150785000Y-99325000D03*
%TD*%
D16*
%TO.P,R24,1*%
%TO.N,Earth*%
X149750000Y-101300000D03*
%TO.P,R24,2*%
%TO.N,Net-(R24-Pad2)*%
X149750000Y-100330000D03*
%TD*%
D11*
%TO.P,C17,1*%
%TO.N,Net-(C17-Pad1)*%
X151185000Y-102250000D03*
%TO.P,C17,2*%
%TO.N,Earth*%
X150215000Y-102250000D03*
%TD*%
D17*
%TO.P,TH2,1*%
%TO.N,Earth*%
X150750000Y-100290000D03*
%TO.P,TH2,2*%
%TO.N,Net-(C17-Pad1)*%
X150750000Y-101260000D03*
%TD*%
D15*
%TO.P,12V_OUT1,1,Pin_1*%
%TO.N,/BATT_OUT*%
X162200000Y-90800000D03*
%TD*%
%TO.P,GND_OUT1,1,Pin_1*%
%TO.N,/GND_OUT*%
X164550000Y-93525000D03*
%TD*%
D13*
%TO.P,R2,2*%
%TO.N,Net-(7.4_1-Pad1)*%
X139881760Y-109561502D03*
%TO.P,R2,1*%
%TO.N,Net-(C2-Pad1)*%
X139550000Y-108650000D03*
%TD*%
D18*
%TO.P,R31,1*%
%TO.N,+BATT*%
X154675000Y-112800000D03*
%TO.P,R31,2*%
%TO.N,Net-(L2-Pad2)*%
X157650000Y-112800000D03*
%TD*%
D15*
%TO.P,3.4,1,Pin_1*%
%TO.N,Net-(3.4-Pad1)*%
X142250000Y-91100000D03*
%TD*%
D11*
%TO.P,R27,1*%
%TO.N,Net-(L2-Pad2)*%
X153070000Y-108750000D03*
%TO.P,R27,2*%
%TO.N,Net-(R27-Pad2)*%
X152100000Y-108750000D03*
%TD*%
D19*
%TO.P,J8,01,01*%
%TO.N,Earth*%
X147900000Y-119600000D03*
%TO.P,J8,02,02*%
%TO.N,+5V*%
X148900000Y-119600000D03*
%TO.P,J8,03,03*%
%TO.N,SCL*%
X149900000Y-119600000D03*
%TO.P,J8,04,04*%
%TO.N,SDA*%
X150900000Y-119600000D03*
%TO.P,J8,05,05*%
%TO.N,~{SHT_DWN_SIG}*%
X151900000Y-119600000D03*
%TO.P,J8,06,06*%
%TO.N,ENDCAP_EN*%
X152900000Y-119600000D03*
%TO.P,J8,07,07*%
%TO.N,GPS_INT*%
X153900000Y-119600000D03*
%TO.P,J8,08,08*%
%TO.N,IMU_INT*%
X154900000Y-119600000D03*
%TO.P,J8,09,09*%
%TO.N,+3V3*%
X155900000Y-119600000D03*
%TO.P,J8,10,10*%
%TO.N,~{SHT_DWN_SIG}*%
X156900000Y-119600000D03*
D20*
%TO.P,J8,S1*%
%TO.N,N/C*%
X146700000Y-115775000D03*
%TO.P,J8,S2*%
X158100000Y-115775000D03*
%TD*%
D10*
%TO.P,C6,1*%
%TO.N,Earth*%
X151465000Y-111750000D03*
%TO.P,C6,2*%
%TO.N,/BATT_OUT*%
X152435000Y-111750000D03*
%TD*%
D21*
%TO.P,C1,1*%
%TO.N,Earth*%
X165600000Y-110400000D03*
%TO.P,C1,2*%
%TO.N,/BATT_OUT*%
X165061318Y-111880016D03*
%TD*%
D16*
%TO.P,C19,1*%
%TO.N,Earth*%
X153400000Y-106825000D03*
%TO.P,C19,2*%
%TO.N,Net-(C19-Pad2)*%
X153400000Y-105855000D03*
%TD*%
D11*
%TO.P,C21,1*%
%TO.N,Earth*%
X152455000Y-106805800D03*
%TO.P,C21,2*%
%TO.N,Net-(C21-Pad2)*%
X151485000Y-106805800D03*
%TD*%
%TO.P,R30,1*%
%TO.N,Earth*%
X152455000Y-107790000D03*
%TO.P,R30,2*%
%TO.N,Net-(C21-Pad2)*%
X151485000Y-107790000D03*
%TD*%
%TO.P,R25,1*%
%TO.N,Net-(C19-Pad2)*%
X152455000Y-105850000D03*
%TO.P,R25,2*%
%TO.N,Net-(R25-Pad2)*%
X151485000Y-105850000D03*
%TD*%
D10*
%TO.P,R22,1*%
%TO.N,Net-(R22-Pad1)*%
X151485000Y-104900000D03*
%TO.P,R22,2*%
%TO.N,Net-(C17-Pad1)*%
X152455000Y-104900000D03*
%TD*%
D11*
%TO.P,R26,1*%
%TO.N,+BATT*%
X152885000Y-109800000D03*
%TO.P,R26,2*%
%TO.N,Net-(R26-Pad2)*%
X151915000Y-109800000D03*
%TD*%
D22*
%TO.P,C22,1*%
%TO.N,Earth*%
X161787500Y-96800000D03*
%TO.P,C22,2*%
%TO.N,Net-(C20-Pad1)*%
X160212500Y-96800000D03*
%TD*%
D15*
%TO.P,7.4_1,1,Pin_1*%
%TO.N,Net-(7.4_1-Pad1)*%
X145000000Y-105925000D03*
%TD*%
D23*
%TO.P,TH1,1*%
%TO.N,-BATT*%
X137300000Y-108450000D03*
%TO.P,TH1,2*%
%TO.N,Net-(R15-Pad1)*%
X136968240Y-107538498D03*
%TD*%
D12*
%TO.P,R17,2*%
%TO.N,Net-(R17-Pad2)*%
X136450000Y-104450000D03*
%TO.P,R17,1*%
%TO.N,-BATT*%
X137361502Y-104118240D03*
%TD*%
D11*
%TO.P,R11,1*%
%TO.N,Net-(Q2-Pad3)*%
X142635000Y-100825000D03*
%TO.P,R11,2*%
%TO.N,Net-(Q2-Pad2)*%
X141665000Y-100825000D03*
%TD*%
D14*
%TO.P,C8,1*%
%TO.N,-BATT*%
X137694249Y-109365880D03*
%TO.P,C8,2*%
%TO.N,Net-(C8-Pad2)*%
X138605751Y-109034120D03*
%TD*%
D23*
%TO.P,C5,1*%
%TO.N,Net-(C5-Pad1)*%
X137550000Y-106150000D03*
%TO.P,C5,2*%
%TO.N,-BATT*%
X137218240Y-105238498D03*
%TD*%
D13*
%TO.P,C3,1*%
%TO.N,Net-(C3-Pad1)*%
X138868240Y-106838498D03*
%TO.P,C3,2*%
%TO.N,Net-(C2-Pad1)*%
X139200000Y-107750000D03*
%TD*%
D24*
%TO.P,C7,1*%
%TO.N,+12V*%
X160200000Y-98300000D03*
%TO.P,C7,2*%
%TO.N,Earth*%
X161775000Y-98300000D03*
%TD*%
D13*
%TO.P,R16,1*%
%TO.N,-BATT*%
X136284120Y-105594249D03*
%TO.P,R16,2*%
%TO.N,Net-(R16-Pad2)*%
X136615880Y-106505751D03*
%TD*%
%TO.P,R15,1*%
%TO.N,Net-(R15-Pad1)*%
X137918240Y-107188498D03*
%TO.P,R15,2*%
%TO.N,Net-(R15-Pad2)*%
X138250000Y-108100000D03*
%TD*%
D23*
%TO.P,R4,1*%
%TO.N,Net-(C5-Pad1)*%
X138500000Y-105800000D03*
%TO.P,R4,2*%
%TO.N,-BATT*%
X138168240Y-104888498D03*
%TD*%
D16*
%TO.P,C18,1*%
%TO.N,Earth*%
X159375000Y-89310000D03*
%TO.P,C18,2*%
%TO.N,+15V*%
X159375000Y-88340000D03*
%TD*%
D11*
%TO.P,R28,1*%
%TO.N,Net-(Q4-Pad3)*%
X156295000Y-99250000D03*
%TO.P,R28,2*%
%TO.N,Net-(C20-Pad2)*%
X155325000Y-99250000D03*
%TD*%
%TO.P,C20,1*%
%TO.N,Net-(C20-Pad1)*%
X156185000Y-100225000D03*
%TO.P,C20,2*%
%TO.N,Net-(C20-Pad2)*%
X155215000Y-100225000D03*
%TD*%
D15*
%TO.P,7.4_2,1,Pin_1*%
%TO.N,Net-(7.4_1-Pad1)*%
X159800000Y-105875000D03*
%TD*%
D25*
%TO.P,U6,1,COMP*%
%TO.N,Net-(C10-Pad1)*%
X168380752Y-108496143D03*
%TO.P,U6,2,FB*%
%TO.N,Net-(R21-Pad2)*%
X167769952Y-108273830D03*
%TO.P,U6,3,EN*%
%TO.N,Net-(R7-Pad2)*%
X167159152Y-108051517D03*
%TO.P,U6,4,GND*%
%TO.N,Earth*%
X166548351Y-107829203D03*
%TO.P,U6,5,SW*%
%TO.N,Net-(D4-Pad2)*%
X168019038Y-103788525D03*
%TO.P,U6,6,IN*%
%TO.N,+12V*%
X168629838Y-104010838D03*
%TO.P,U6,7,FSEL*%
%TO.N,Earth*%
X169240638Y-104233151D03*
%TO.P,U6,8,SS*%
%TO.N,Net-(C12-Pad2)*%
X169851439Y-104455465D03*
D26*
%TO.P,U6,9,GND*%
%TO.N,Earth*%
X168199895Y-106142334D03*
%TD*%
D27*
%TO.P,C10,1*%
%TO.N,Net-(C10-Pad1)*%
X169700000Y-108750000D03*
%TO.P,C10,2*%
%TO.N,Net-(C10-Pad2)*%
X169368240Y-109661502D03*
%TD*%
D28*
%TO.P,R7,1*%
%TO.N,+12V*%
X165388498Y-109068240D03*
%TO.P,R7,2*%
%TO.N,Net-(R7-Pad2)*%
X166300000Y-109400000D03*
%TD*%
D29*
%TO.P,C12,1*%
%TO.N,Earth*%
X170598044Y-106248982D03*
%TO.P,C12,2*%
%TO.N,Net-(C12-Pad2)*%
X170929804Y-105337480D03*
%TD*%
D30*
%TO.P,R9,1*%
%TO.N,Net-(C10-Pad2)*%
X169000000Y-110550000D03*
%TO.P,R9,2*%
%TO.N,Earth*%
X168088498Y-110218240D03*
%TD*%
D16*
%TO.P,R33,1*%
%TO.N,/Batt_Analog*%
X142950000Y-93870000D03*
%TO.P,R33,2*%
%TO.N,+BATT*%
X142950000Y-92900000D03*
%TD*%
D17*
%TO.P,R34,1*%
%TO.N,Earth*%
X143950000Y-92900000D03*
%TO.P,R34,2*%
%TO.N,/Batt_Analog*%
X143950000Y-93870000D03*
%TD*%
D31*
%TO.P,U8,1,VDD*%
%TO.N,+3V3*%
X143550000Y-99250000D03*
%TO.P,U8,2,VSS*%
%TO.N,Earth*%
X142600000Y-99250000D03*
%TO.P,U8,3,AIN*%
%TO.N,/Batt_Analog*%
X141650000Y-99250000D03*
%TO.P,U8,4,SDA*%
%TO.N,SDA*%
X141650000Y-97050000D03*
%TO.P,U8,5,SCL*%
%TO.N,SCL*%
X143550000Y-97050000D03*
%TD*%
D17*
%TO.P,R35,1*%
%TO.N,SCL*%
X145000000Y-95550000D03*
%TO.P,R35,2*%
%TO.N,+3V3*%
X145000000Y-96520000D03*
%TD*%
D11*
%TO.P,R36,1*%
%TO.N,SDA*%
X144985000Y-91850000D03*
%TO.P,R36,2*%
%TO.N,+3V3*%
X144015000Y-91850000D03*
%TD*%
D32*
%TO.N,Net-(R13-Pad2)*%
X133694249Y-103634378D03*
%TO.N,Earth*%
X136937511Y-102362511D03*
%TO.N,+3V3*%
X147725000Y-115815000D03*
%TO.N,Net-(R19-Pad2)*%
X145700000Y-111475000D03*
%TO.N,Net-(R14-Pad2)*%
X148063670Y-114339071D03*
%TO.N,Net-(R19-Pad2)*%
X148700000Y-118225000D03*
%TO.N,Earth*%
X145827101Y-112466388D03*
%TO.N,~{DELAYED_OFF}*%
X150725000Y-115450000D03*
%TO.N,Earth*%
X147717165Y-118406768D03*
%TO.N,+BATT*%
X143950500Y-109194249D03*
%TO.N,-BATT*%
X139030000Y-111900000D03*
%TO.N,Net-(C9-Pad1)*%
X139970000Y-111530000D03*
%TO.N,Net-(R18-Pad2)*%
X138311502Y-101968240D03*
%TO.N,Net-(R10-Pad2)*%
X139750000Y-101575000D03*
%TO.N,Net-(Q2-Pad2)*%
X141150016Y-100800000D03*
%TO.N,Net-(Q1-Pad2)*%
X144100000Y-88780000D03*
%TO.N,Earth*%
X147409152Y-102782991D03*
X150249553Y-102219707D03*
X154990000Y-115350000D03*
X150798806Y-100364363D03*
X148800000Y-89400000D03*
X159500000Y-107500000D03*
X163950000Y-104850000D03*
X145165242Y-107986436D03*
X163750000Y-98550000D03*
X152399998Y-107175500D03*
X170605274Y-106235495D03*
X157700000Y-106975000D03*
X151474997Y-111740446D03*
X156384002Y-95200000D03*
X160170807Y-111500400D03*
X144250000Y-89899996D03*
X147859660Y-89276608D03*
X142149721Y-95175010D03*
X160949959Y-107499991D03*
X152944231Y-99217498D03*
%TO.N,Net-(C2-Pad1)*%
X139350000Y-107650000D03*
%TO.N,Net-(C3-Pad1)*%
X139200000Y-106650000D03*
%TO.N,-BATT*%
X137250000Y-105250000D03*
X137312500Y-108487500D03*
X137191316Y-111483684D03*
%TO.N,Net-(C5-Pad1)*%
X138500000Y-105800000D03*
%TO.N,Net-(C8-Pad2)*%
X142436371Y-110536371D03*
X138950000Y-109900000D03*
%TO.N,+3V3*%
X145824979Y-109000001D03*
X144006778Y-91943222D03*
X144475012Y-97575179D03*
X151004745Y-98325599D03*
X152736960Y-114128522D03*
X148481459Y-91306778D03*
%TO.N,+5V*%
X148950000Y-119800000D03*
X156012983Y-118136913D03*
X153300000Y-111200000D03*
D33*
X157834131Y-118500061D03*
D32*
%TO.N,Net-(C20-Pad2)*%
X154083402Y-104323727D03*
%TO.N,+12V*%
X159400000Y-100200000D03*
X158400000Y-91109800D03*
X158395100Y-96854900D03*
X158389645Y-92010355D03*
X159350000Y-103450000D03*
X158389645Y-96010355D03*
X159350000Y-101700000D03*
%TO.N,Net-(C21-Pad2)*%
X149567475Y-107247814D03*
%TO.N,+BATT*%
X155450000Y-109250000D03*
X148862299Y-109887701D03*
X154600000Y-108849001D03*
X154350000Y-110850000D03*
X156300000Y-109750000D03*
%TO.N,IMU_INT*%
X150399984Y-91109800D03*
%TO.N,GPS_INT*%
X150274011Y-94896001D03*
%TO.N,SDA*%
X149100000Y-93700000D03*
%TO.N,SCL*%
X148182448Y-94344614D03*
%TO.N,~{TS_EOC}*%
X150788502Y-99301951D03*
X156400000Y-91109810D03*
%TO.N,Net-(L2-Pad2)*%
X161675014Y-110974986D03*
%TO.N,Net-(Q2-Pad3)*%
X142597913Y-100825000D03*
%TO.N,Net-(Q3-Pad2)*%
X142000000Y-93350000D03*
%TO.N,Net-(Q4-Pad3)*%
X156150000Y-98450000D03*
%TO.N,Net-(Q4-Pad2)*%
X154650000Y-93250000D03*
X151736735Y-100017501D03*
%TO.N,Net-(Q5-Pad2)*%
X157700026Y-101150000D03*
X154364600Y-101422799D03*
%TO.N,Net-(Q6-Pad2)*%
X154300000Y-105300000D03*
X153829771Y-100577825D03*
%TO.N,Net-(R15-Pad2)*%
X138242857Y-108057143D03*
%TO.N,Net-(R15-Pad1)*%
X137959999Y-107040001D03*
%TO.N,Net-(R16-Pad2)*%
X136557548Y-106557548D03*
%TO.N,Net-(R17-Pad2)*%
X136500000Y-104400000D03*
%TO.N,Net-(R22-Pad1)*%
X149409995Y-105320273D03*
%TO.N,Net-(R24-Pad2)*%
X149325030Y-100350000D03*
%TO.N,Net-(R25-Pad2)*%
X149740782Y-106263451D03*
%TO.N,Net-(R26-Pad2)*%
X151800000Y-109700000D03*
%TO.N,Net-(R27-Pad2)*%
X152100000Y-108700000D03*
%TO.N,Net-(D4-Pad2)*%
X166800000Y-102950000D03*
%TO.N,+15V*%
X155800000Y-88350014D03*
X155800000Y-87400000D03*
X147119947Y-98441373D03*
X158000000Y-87400000D03*
X169250000Y-102200000D03*
X170200000Y-102800000D03*
X170999976Y-103150000D03*
X158000000Y-88350000D03*
%TO.N,~{SHT_DWN_SIG}*%
X157834806Y-119600072D03*
X151911226Y-120407964D03*
%TO.N,Net-(C20-Pad1)*%
X156250000Y-100200000D03*
X154327206Y-102422102D03*
X154300000Y-98450000D03*
%TO.N,Net-(R21-Pad2)*%
X167200000Y-109700000D03*
%TO.N,Net-(3.4-Pad1)*%
X143219095Y-104490584D03*
X144474990Y-98600508D03*
%TO.N,/GND_OUT*%
X146726400Y-87442000D03*
X148926400Y-87442000D03*
X146726400Y-88392000D03*
X148926400Y-88392000D03*
%TO.N,/BATT_OUT*%
X159450022Y-109250000D03*
X161300000Y-93900000D03*
X156920000Y-115400000D03*
X160300000Y-109627460D03*
X152645395Y-111955313D03*
X161300000Y-95000000D03*
X158600000Y-108750000D03*
%TO.N,+3.3VP*%
X157600000Y-108200000D03*
X149800000Y-104400000D03*
X157650000Y-111300000D03*
X152400000Y-96850000D03*
X150449671Y-107717641D03*
%TO.N,ENDCAP_EN*%
X149177123Y-110897876D03*
%TD*%
D34*
%TO.N,ENDCAP_EN*%
X150949021Y-113510491D02*
X149851464Y-112412934D01*
X149851464Y-112412934D02*
X149851464Y-111572217D01*
X151574500Y-115262070D02*
X150949022Y-114636592D01*
X151574500Y-117249500D02*
X151574500Y-115262070D01*
X152900000Y-119600000D02*
X152900000Y-118575000D01*
X149851464Y-111572217D02*
X149177123Y-110897876D01*
%TO.N,~{DELAYED_OFF}*%
X150499511Y-115224511D02*
X150725000Y-115450000D01*
X149401954Y-112599128D02*
X150499511Y-113696685D01*
X147719022Y-104165863D02*
X147719022Y-110464373D01*
X146684151Y-103130992D02*
X147719022Y-104165863D01*
X147844957Y-98847839D02*
X146684151Y-100008645D01*
X147719022Y-110464373D02*
X149401954Y-112147305D01*
X149549511Y-94275089D02*
X149549511Y-96693024D01*
X146684151Y-100008645D02*
X146684151Y-103130992D01*
X149824501Y-94000099D02*
X149549511Y-94275089D01*
X149824501Y-91624501D02*
X149824501Y-94000099D01*
X148249989Y-90049989D02*
X149824501Y-91624501D01*
X146379989Y-90049989D02*
X148249989Y-90049989D01*
%TO.N,SDA*%
X149099999Y-95388319D02*
X149100000Y-93700000D01*
X146234140Y-98254178D02*
X149099999Y-95388319D01*
X146234140Y-103338324D02*
X146234140Y-98254178D01*
X147269511Y-110650566D02*
X147269510Y-104373694D01*
X148952443Y-112333498D02*
X147269511Y-110650566D01*
X148952443Y-112785321D02*
X148952443Y-112333498D01*
%TO.N,~{DELAYED_OFF}*%
X150499511Y-113696685D02*
X150499511Y-115224511D01*
%TO.N,SDA*%
X150000499Y-115750099D02*
X150000499Y-113833377D01*
X150900000Y-119600000D02*
X150900000Y-116649600D01*
%TO.N,ENDCAP_EN*%
X152900000Y-118575000D02*
X151574500Y-117249500D01*
%TO.N,SCL*%
X149550989Y-119250989D02*
X149900000Y-119600000D01*
X149550989Y-114019577D02*
X149550989Y-119250989D01*
%TO.N,ENDCAP_EN*%
X150949022Y-114636592D02*
X150949021Y-113510491D01*
%TO.N,SCL*%
X148502931Y-112519690D02*
X148502931Y-112971519D01*
X148502931Y-112971519D02*
X149550989Y-114019577D01*
X146820000Y-110836759D02*
X148502931Y-112519690D01*
X146820000Y-104560595D02*
X146820000Y-110836759D01*
X145784129Y-103524724D02*
X146820000Y-104560595D01*
%TO.N,~{DELAYED_OFF}*%
X145080000Y-88750000D02*
X146379989Y-90049989D01*
%TO.N,SCL*%
X145784129Y-96742933D02*
X145784129Y-103524724D01*
%TO.N,~{DELAYED_OFF}*%
X147844957Y-98397578D02*
X147844957Y-98847839D01*
%TO.N,SCL*%
X147202066Y-95324996D02*
X145784129Y-96742933D01*
%TO.N,Net-(R19-Pad2)*%
X148044520Y-112696983D02*
X146822537Y-111475000D01*
%TO.N,SDA*%
X150900000Y-116649600D02*
X150000499Y-115750099D01*
%TO.N,Net-(R19-Pad2)*%
X148975000Y-114100000D02*
X148044520Y-113169520D01*
%TO.N,SDA*%
X147269510Y-104373694D02*
X146234140Y-103338324D01*
%TO.N,Net-(R19-Pad2)*%
X148044520Y-113169520D02*
X148044520Y-112696983D01*
X148975000Y-117950000D02*
X148975000Y-114100000D01*
X148700000Y-118225000D02*
X148975000Y-117950000D01*
%TO.N,SDA*%
X150000499Y-113833377D02*
X148952443Y-112785321D01*
%TO.N,Net-(R19-Pad2)*%
X146822537Y-111475000D02*
X145700000Y-111475000D01*
%TO.N,~{DELAYED_OFF}*%
X149549511Y-96693024D02*
X147844957Y-98397578D01*
X149401954Y-112147305D02*
X149401954Y-112599128D01*
%TO.N,GPS_INT*%
X147700008Y-99629198D02*
X148294968Y-99034239D01*
%TO.N,IMU_INT*%
X150750485Y-109455424D02*
X148641822Y-107346761D01*
%TO.N,GPS_INT*%
X150300979Y-111753612D02*
X150300979Y-111753604D01*
X147700007Y-101700007D02*
X147700008Y-99629198D01*
X152024012Y-116964012D02*
X152024012Y-115075878D01*
%TO.N,IMU_INT*%
X152545826Y-114961988D02*
X151885184Y-114301346D01*
X148641822Y-107346761D02*
X148641822Y-102005411D01*
X148744979Y-99220639D02*
X148744979Y-98770378D01*
X148641822Y-102005411D02*
X148150018Y-101513607D01*
X150750486Y-112040549D02*
X150750485Y-109455424D01*
X148150018Y-101513607D02*
X148150018Y-99815599D01*
%TO.N,GPS_INT*%
X153900000Y-119600000D02*
X153900000Y-118840000D01*
%TO.N,IMU_INT*%
X154900000Y-119600000D02*
X154900000Y-119000000D01*
%TO.N,GPS_INT*%
X148294968Y-98583978D02*
X150274011Y-96604935D01*
%TO.N,IMU_INT*%
X151885184Y-113175247D02*
X150750486Y-112040549D01*
%TO.N,GPS_INT*%
X153900000Y-118840000D02*
X152024012Y-116964012D01*
X150300979Y-111962094D02*
X150300985Y-111753618D01*
X152024012Y-115075878D02*
X151398533Y-114450399D01*
%TO.N,IMU_INT*%
X154900000Y-119000000D02*
X152545826Y-116645826D01*
%TO.N,GPS_INT*%
X151398533Y-114450399D02*
X151398531Y-113324297D01*
X151398531Y-113324297D02*
X150300975Y-112226740D01*
X150300975Y-112226740D02*
X150300975Y-112125996D01*
X148191811Y-107532454D02*
X148191811Y-102191811D01*
X150300975Y-112125996D02*
X150300979Y-112125992D01*
X148294968Y-99034239D02*
X148294968Y-98583978D01*
X150300979Y-112125992D02*
X150300979Y-111962094D01*
X150300985Y-111753618D02*
X150300979Y-111753612D01*
X150300979Y-111753604D02*
X150300975Y-111753600D01*
X150300975Y-111753600D02*
X150300975Y-109641618D01*
X150300975Y-109641618D02*
X148191811Y-107532454D01*
X150274011Y-96604935D02*
X150274011Y-94896001D01*
X148191811Y-102191811D02*
X147700007Y-101700007D01*
%TO.N,IMU_INT*%
X152545826Y-116645826D02*
X152545826Y-114961988D01*
X151885184Y-114301346D02*
X151885184Y-113175247D01*
X148150018Y-99815599D02*
X148744979Y-99220639D01*
X148744979Y-98770378D02*
X152600000Y-94915357D01*
X152600000Y-94915357D02*
X152600000Y-93309816D01*
X152600000Y-93309816D02*
X150399984Y-91109800D01*
%TO.N,Net-(Q3-Pad2)*%
X134939871Y-103000000D02*
X134605751Y-103334120D01*
X135500000Y-103000000D02*
X134939871Y-103000000D01*
%TO.N,Earth*%
X136937511Y-102362511D02*
X136900011Y-102400011D01*
X137000022Y-102300000D02*
X136937511Y-102362511D01*
X137400000Y-102300000D02*
X137000022Y-102300000D01*
X136631782Y-102668240D02*
X136900011Y-102400011D01*
X136411502Y-102668240D02*
X136631782Y-102668240D01*
%TO.N,Net-(Q2-Pad2)*%
X140994265Y-100644249D02*
X141150016Y-100800000D01*
X139409120Y-100644249D02*
X140994265Y-100644249D01*
%TO.N,+3V3*%
X146455000Y-113755000D02*
X147725000Y-115025000D01*
%TO.N,Net-(R14-Pad2)*%
X148063670Y-114088670D02*
X148063670Y-114339071D01*
%TO.N,+3V3*%
X146455000Y-113450000D02*
X146455000Y-113755000D01*
X147725000Y-115025000D02*
X147725000Y-115815000D01*
%TO.N,Net-(R14-Pad2)*%
X147425000Y-113450000D02*
X148063670Y-114088670D01*
%TO.N,Earth*%
X147900000Y-118589603D02*
X147717165Y-118406768D01*
X147900000Y-119600000D02*
X147900000Y-118589603D01*
%TO.N,+5V*%
X153599999Y-114355857D02*
X153599999Y-111499999D01*
X154149554Y-114905412D02*
X153599999Y-114355857D01*
X154149554Y-115688085D02*
X154149554Y-114905412D01*
X154948969Y-116487500D02*
X154149554Y-115688085D01*
X156212500Y-116487500D02*
X154948969Y-116487500D01*
%TO.N,+3V3*%
X153700044Y-115091606D02*
X152736960Y-114128522D01*
X153700044Y-116860044D02*
X153700044Y-115091606D01*
%TO.N,+5V*%
X153599999Y-111499999D02*
X153300000Y-111200000D01*
%TO.N,+3V3*%
X155900000Y-119060000D02*
X153700044Y-116860044D01*
X155900000Y-119600000D02*
X155900000Y-119060000D01*
%TO.N,Net-(R14-Pad2)*%
X147425000Y-113065000D02*
X146810000Y-112450000D01*
X147425000Y-113450000D02*
X147425000Y-113065000D01*
%TO.N,~{SHT_DWN_SIG}*%
X151900000Y-120396738D02*
X151911226Y-120407964D01*
D35*
%TO.N,Net-(7.4_1-Pad1)*%
X141244249Y-108855751D02*
X144175000Y-105925000D01*
X139900000Y-109550000D02*
X141244249Y-108855751D01*
X144175000Y-105925000D02*
X145000000Y-105925000D01*
D34*
%TO.N,Earth*%
X137470000Y-102970000D02*
X136900011Y-102400011D01*
X141880000Y-102970000D02*
X137470000Y-102970000D01*
X143550000Y-100600000D02*
X143550000Y-101300000D01*
X142600000Y-99650000D02*
X143550000Y-100600000D01*
X143550000Y-101300000D02*
X141880000Y-102970000D01*
X142600000Y-99250000D02*
X142600000Y-99650000D01*
%TO.N,Net-(Q3-Pad2)*%
X140500000Y-98592737D02*
X140500000Y-94850000D01*
X140500000Y-94850000D02*
X142000000Y-93350000D01*
X138041732Y-101051005D02*
X140500000Y-98592737D01*
X137905506Y-101051005D02*
X138041732Y-101051005D01*
X134885475Y-102214525D02*
X137905506Y-101051005D01*
X134605765Y-102494235D02*
X134885475Y-102214525D01*
X134605765Y-103334106D02*
X134605765Y-102494235D01*
%TO.N,/Batt_Analog*%
X141885704Y-94100000D02*
X142700000Y-94100000D01*
X141700000Y-99250000D02*
X141000000Y-98550000D01*
X141000000Y-98550000D02*
X141000000Y-94985704D01*
X142700000Y-94100000D02*
X142950000Y-93850000D01*
X141000000Y-94985704D02*
X141885704Y-94100000D01*
%TO.N,Net-(Q2-Pad2)*%
X141675000Y-100800000D02*
X141150016Y-100800000D01*
X141150016Y-100800000D02*
X141044265Y-100694249D01*
D35*
%TO.N,Earth*%
X170598044Y-106248982D02*
X169501018Y-106248982D01*
D34*
X143988232Y-92950000D02*
X143274999Y-92236767D01*
D35*
X159350000Y-89335000D02*
X159350000Y-92234002D01*
X152455000Y-107790000D02*
X152455000Y-106800000D01*
D34*
X166548351Y-106851649D02*
X167257666Y-106142334D01*
X166548351Y-107829203D02*
X166548351Y-106851649D01*
D35*
X153400000Y-106825000D02*
X153049500Y-107175500D01*
D34*
X149750000Y-101300000D02*
X149750000Y-101720154D01*
X143556767Y-91156823D02*
X143556767Y-90593229D01*
D35*
X165600000Y-110400000D02*
X162699991Y-107499991D01*
D34*
X167257666Y-106142334D02*
X168199895Y-106142334D01*
D35*
X159350000Y-92234002D02*
X156384002Y-95200000D01*
X161775000Y-98300000D02*
X161775000Y-96812500D01*
D34*
X143274999Y-91438591D02*
X143556767Y-91156823D01*
D35*
X168900000Y-105100000D02*
X169200000Y-104300000D01*
X161775000Y-98300000D02*
X163500000Y-98300000D01*
X152455000Y-106805800D02*
X153380800Y-106805800D01*
X153049500Y-107175500D02*
X152399998Y-107175500D01*
D34*
X143274999Y-92236767D02*
X143274999Y-91438591D01*
D35*
X163500000Y-98300000D02*
X163750000Y-98550000D01*
X169392334Y-106142334D02*
X168200000Y-106142334D01*
X169501018Y-106248982D02*
X169500000Y-106250000D01*
X167800001Y-110549999D02*
X168100000Y-110250000D01*
D34*
X143556767Y-90593229D02*
X144250000Y-89899996D01*
D35*
X168200000Y-106100000D02*
X168900000Y-105100000D01*
X169500000Y-106250000D02*
X169392334Y-106142334D01*
D34*
X149750000Y-101720154D02*
X150249553Y-102219707D01*
D35*
X167265999Y-110549999D02*
X167800001Y-110549999D01*
X165600000Y-110400000D02*
X165970395Y-110770395D01*
X162699991Y-107499991D02*
X160949959Y-107499991D01*
X165970395Y-110770395D02*
X167045603Y-110770395D01*
D36*
X168199895Y-106142334D02*
X170512113Y-106142334D01*
D35*
X153380800Y-106805800D02*
X153400000Y-106825000D01*
X167045603Y-110770395D02*
X167265999Y-110549999D01*
D36*
X170512113Y-106142334D02*
X170605274Y-106235495D01*
D34*
%TO.N,Net-(C2-Pad1)*%
X139200000Y-107750000D02*
X139550000Y-108650000D01*
X139350000Y-107650000D02*
X139200000Y-107750000D01*
%TO.N,Net-(C3-Pad1)*%
X138900000Y-106800000D02*
X139200000Y-106650000D01*
%TO.N,-BATT*%
X136250000Y-105600000D02*
X138150000Y-104900000D01*
X137312500Y-108487500D02*
X137700000Y-109350000D01*
X137250000Y-105250000D02*
X137400000Y-104100000D01*
%TO.N,Net-(C5-Pad1)*%
X137550000Y-106150000D02*
X138500000Y-105800000D01*
%TO.N,Net-(C8-Pad2)*%
X138950000Y-109900000D02*
X139936371Y-110536371D01*
X139936371Y-110536371D02*
X142436371Y-110536371D01*
X138950000Y-109900000D02*
X138600000Y-109050000D01*
%TO.N,+3V3*%
X146099978Y-105122800D02*
X145334118Y-104356940D01*
X147774681Y-90600000D02*
X144500000Y-90600000D01*
X146099978Y-108725002D02*
X146099978Y-105122800D01*
X144500000Y-90600000D02*
X144006778Y-91093222D01*
X143550000Y-98500191D02*
X144475012Y-97575179D01*
X145200000Y-101741672D02*
X145200000Y-98177018D01*
X148481459Y-91306778D02*
X147774681Y-90600000D01*
X145200000Y-98177018D02*
X144474990Y-97452008D01*
X144006778Y-91093222D02*
X144006778Y-91943222D01*
X150474401Y-98325599D02*
X151004745Y-98325599D01*
X145334118Y-104356940D02*
X145334118Y-101875790D01*
X143550000Y-99250000D02*
X143550000Y-98500191D01*
X149815000Y-99325000D02*
X149815000Y-98985000D01*
X145000000Y-96550000D02*
X145000000Y-97050191D01*
X149815000Y-98985000D02*
X150474401Y-98325599D01*
X145000000Y-97050191D02*
X144475012Y-97575179D01*
X145334118Y-101875790D02*
X145200000Y-101741672D01*
X145824979Y-109000001D02*
X146099978Y-108725002D01*
D35*
%TO.N,+5V*%
X156212500Y-116487500D02*
X157834131Y-118109131D01*
D36*
X157470983Y-118136913D02*
X156012983Y-118136913D01*
X157834131Y-118500061D02*
X157470983Y-118136913D01*
D35*
X157834131Y-118109131D02*
X157834131Y-118500061D01*
D34*
%TO.N,Net-(C17-Pad1)*%
X151150000Y-103450000D02*
X151150000Y-102250000D01*
X151185000Y-101695000D02*
X150750000Y-101260000D01*
X152450000Y-104895000D02*
X152450000Y-104750000D01*
X152450000Y-104750000D02*
X151150000Y-103450000D01*
X151185000Y-102250000D02*
X151185000Y-101695000D01*
X152455000Y-104900000D02*
X152450000Y-104895000D01*
%TO.N,Net-(C19-Pad2)*%
X153400000Y-105900000D02*
X153350000Y-105850000D01*
X153350000Y-105850000D02*
X152500000Y-105850000D01*
%TO.N,Net-(C20-Pad2)*%
X153517717Y-104323727D02*
X154083402Y-104323727D01*
X155315000Y-100225000D02*
X155315000Y-99260000D01*
X154927824Y-99852824D02*
X153489564Y-99852824D01*
X155300000Y-100225000D02*
X154927824Y-99852824D01*
X152485867Y-103291877D02*
X153517717Y-104323727D01*
X152485867Y-100856521D02*
X152485867Y-103291877D01*
X153489564Y-99852824D02*
X152485867Y-100856521D01*
D35*
%TO.N,+12V*%
X159700000Y-98700000D02*
X160200000Y-98200000D01*
X166107526Y-102050000D02*
X165800000Y-102357526D01*
X165344249Y-107387753D02*
X165750001Y-106982001D01*
X166750000Y-102050000D02*
X166107526Y-102050000D01*
X165344249Y-109034120D02*
X165344249Y-107387753D01*
X165750001Y-106982001D02*
X165750001Y-105337501D01*
X165800000Y-102357526D02*
X165800000Y-105287502D01*
X159400000Y-100200000D02*
X159700000Y-99900000D01*
X165750001Y-105337501D02*
X165750001Y-104984326D01*
X160965675Y-100200000D02*
X159400000Y-100200000D01*
X165800000Y-105287502D02*
X165750001Y-105337501D01*
X168650000Y-102750000D02*
X166750000Y-102050000D01*
X168900000Y-103200000D02*
X168650000Y-102750000D01*
X159700000Y-99900000D02*
X159700000Y-98700000D01*
X168629838Y-103870162D02*
X168900000Y-103200000D01*
X165750001Y-104984326D02*
X160965675Y-100200000D01*
D34*
%TO.N,Net-(C21-Pad2)*%
X151302848Y-106987952D02*
X149827337Y-106987952D01*
X151500000Y-107701126D02*
X150736449Y-106937575D01*
X150736449Y-106937575D02*
X150071262Y-106937575D01*
X151500000Y-107750000D02*
X151500000Y-107701126D01*
X151485000Y-106805800D02*
X151302848Y-106987952D01*
X149827337Y-106987952D02*
X149567475Y-107247814D01*
%TO.N,+BATT*%
X154699969Y-112699990D02*
X155400010Y-112699990D01*
X143000000Y-92950000D02*
X142457301Y-92407301D01*
X141267699Y-92407301D02*
X140450000Y-93225000D01*
D36*
X154675000Y-112800000D02*
X154675000Y-111175000D01*
D34*
X154374998Y-109774998D02*
X152925002Y-109774998D01*
X152925002Y-109774998D02*
X152900000Y-109800000D01*
D36*
X154675000Y-111175000D02*
X154350000Y-110850000D01*
D34*
X155800000Y-112300000D02*
X155800000Y-111200000D01*
X142457301Y-92407301D02*
X141267699Y-92407301D01*
X155800000Y-111200000D02*
X154374998Y-109774998D01*
X155400010Y-112699990D02*
X155800000Y-112300000D01*
%TO.N,SDA*%
X147718160Y-93481840D02*
X148881840Y-93481840D01*
X148881840Y-93481840D02*
X149100000Y-93700000D01*
X141650000Y-97050000D02*
X143825012Y-94874988D01*
X144950000Y-91900000D02*
X145000000Y-91900000D01*
X146751840Y-93481840D02*
X145170000Y-91900000D01*
X146325012Y-94874988D02*
X147718160Y-93481840D01*
X145170000Y-91900000D02*
X144950000Y-91900000D01*
X143825012Y-94874988D02*
X146325012Y-94874988D01*
X147718160Y-93481840D02*
X146751840Y-93481840D01*
%TO.N,SCL*%
X146977062Y-95550000D02*
X144650000Y-95550000D01*
X143901988Y-95550000D02*
X143600000Y-95851988D01*
X147202066Y-95324996D02*
X146977062Y-95550000D01*
X147202066Y-95324996D02*
X148182448Y-94344614D01*
X143600000Y-95851988D02*
X143600000Y-97050000D01*
X144650000Y-95550000D02*
X143901988Y-95550000D01*
%TO.N,~{TS_EOC}*%
X155717186Y-91109810D02*
X153924998Y-92901998D01*
X151198049Y-99301951D02*
X150788502Y-99301951D01*
X153924998Y-96575002D02*
X151198049Y-99301951D01*
X153924998Y-92901998D02*
X153924998Y-96575002D01*
X156400000Y-91109810D02*
X155717186Y-91109810D01*
%TO.N,Net-(L2-Pad2)*%
X155826996Y-108000000D02*
X157044337Y-109217341D01*
D36*
X157750000Y-112900000D02*
X157750000Y-112596603D01*
D34*
X156350000Y-112250000D02*
X156900000Y-112800000D01*
X156350000Y-111130930D02*
X156350000Y-112250000D01*
D36*
X159771616Y-110574987D02*
X161275015Y-110574987D01*
X161275015Y-110574987D02*
X161675014Y-110974986D01*
D34*
X156900000Y-112800000D02*
X157650000Y-112800000D01*
X157044337Y-109217341D02*
X157044337Y-110436593D01*
X157044337Y-110436593D02*
X156350000Y-111130930D01*
X153950000Y-108000000D02*
X155826996Y-108000000D01*
D36*
X157750000Y-112596603D02*
X159771616Y-110574987D01*
D34*
X153150000Y-108800000D02*
X153950000Y-108000000D01*
%TO.N,Net-(Q4-Pad3)*%
X156150000Y-98450000D02*
X156150000Y-99105000D01*
X156150000Y-99105000D02*
X156295000Y-99250000D01*
%TO.N,Net-(Q4-Pad2)*%
X151736735Y-99399675D02*
X151736735Y-100017501D01*
X154650000Y-93250000D02*
X154650000Y-96486410D01*
X154650000Y-96486410D02*
X151736735Y-99399675D01*
%TO.N,Net-(Q5-Pad2)*%
X153798915Y-101422799D02*
X153385889Y-101835825D01*
X154028498Y-103148714D02*
X155701312Y-103148714D01*
X153385889Y-101835825D02*
X153385889Y-102506105D01*
X153385889Y-102506105D02*
X154028498Y-103148714D01*
X155701312Y-103148714D02*
X157700026Y-101150000D01*
X154364600Y-101422799D02*
X153798915Y-101422799D01*
%TO.N,Net-(Q6-Pad2)*%
X154825001Y-104774999D02*
X154300000Y-105300000D01*
X153842099Y-103598725D02*
X154431404Y-103598725D01*
X154431404Y-103598725D02*
X154825001Y-103992322D01*
X153829771Y-100577825D02*
X152935878Y-101471718D01*
X152935878Y-102692504D02*
X153842099Y-103598725D01*
X152935878Y-101471718D02*
X152935878Y-102692504D01*
X154825001Y-103992322D02*
X154825001Y-104774999D01*
%TO.N,Net-(R15-Pad1)*%
X137000000Y-107550000D02*
X137959999Y-107040001D01*
%TO.N,Net-(R22-Pad1)*%
X151500000Y-104910000D02*
X151285499Y-105124501D01*
X149605767Y-105124501D02*
X149409995Y-105320273D01*
X151285499Y-105124501D02*
X149605767Y-105124501D01*
%TO.N,Net-(R24-Pad2)*%
X149750000Y-100330000D02*
X149345030Y-100330000D01*
X149345030Y-100330000D02*
X149325030Y-100350000D01*
%TO.N,Net-(R25-Pad2)*%
X151500000Y-105850000D02*
X150154233Y-105850000D01*
X150154233Y-105850000D02*
X149740782Y-106263451D01*
%TO.N,Net-(D4-Pad2)*%
X167180513Y-102950000D02*
X166800000Y-102950000D01*
X168019038Y-103788525D02*
X167180513Y-102950000D01*
%TO.N,+15V*%
X159375000Y-88340000D02*
X158010000Y-88340000D01*
%TO.N,~{SHT_DWN_SIG}*%
X157834734Y-119600000D02*
X157834806Y-119600072D01*
X156900000Y-119600000D02*
X157834734Y-119600000D01*
D36*
%TO.N,Net-(C20-Pad1)*%
X157349901Y-97749901D02*
X159250099Y-97749901D01*
X155200000Y-97550000D02*
X157150000Y-97550000D01*
X157150000Y-97550000D02*
X157349901Y-97749901D01*
X154300000Y-98450000D02*
X155200000Y-97550000D01*
D34*
X155093583Y-102422102D02*
X154327206Y-102422102D01*
X156250000Y-101265685D02*
X155093583Y-102422102D01*
D36*
X159250099Y-97749901D02*
X160200000Y-96800000D01*
D34*
X156250000Y-100200000D02*
X156250000Y-101265685D01*
D35*
%TO.N,Net-(C10-Pad2)*%
X169000000Y-110500000D02*
X169300000Y-109900000D01*
%TO.N,Net-(C10-Pad1)*%
X168380752Y-108496143D02*
X169650000Y-108950000D01*
%TO.N,Net-(R7-Pad2)*%
X166300000Y-109400000D02*
X166900000Y-108700000D01*
X166900000Y-108700000D02*
X167100000Y-108100000D01*
D34*
%TO.N,Net-(R21-Pad2)*%
X167769952Y-108273830D02*
X167200000Y-109700000D01*
%TO.N,Net-(3.4-Pad1)*%
X143219095Y-104490584D02*
X144474990Y-103234689D01*
X144474990Y-103234689D02*
X144474990Y-98600508D01*
D35*
%TO.N,Net-(C12-Pad2)*%
X169851439Y-104455465D02*
X170047789Y-104455465D01*
X170047789Y-104455465D02*
X170929804Y-105337480D01*
%TO.N,/BATT_OUT*%
X165061318Y-111880016D02*
X162431302Y-109250000D01*
X162431302Y-109250000D02*
X159450022Y-109250000D01*
D34*
%TO.N,+3.3VP*%
X149250042Y-103850042D02*
X149800000Y-104400000D01*
X152400000Y-96850000D02*
X151301768Y-96850000D01*
X148600029Y-100001999D02*
X148600029Y-101327207D01*
X149194990Y-99407039D02*
X148600029Y-100001999D01*
X157650000Y-108250000D02*
X157600000Y-108200000D01*
X149250042Y-101977220D02*
X149250042Y-103850042D01*
X157650000Y-111300000D02*
X157650000Y-108250000D01*
X151301768Y-96850000D02*
X149194990Y-98956778D01*
X148600029Y-101327207D02*
X149250042Y-101977220D01*
X149194990Y-98956778D02*
X149194990Y-99407039D01*
%TO.N,/Batt_Analog*%
X143000000Y-93900000D02*
X143030000Y-93870000D01*
X143030000Y-93870000D02*
X143950000Y-93870000D01*
%TD*%
M02*
