%TF.GenerationSoftware,KiCad,Pcbnew,(6.0.5)*%
%TF.CreationDate,2022-06-17T18:07:44-04:00*%
%TF.ProjectId,Maka_BMS,4d616b61-5f42-44d5-932e-6b696361645f,rev?*%
%TF.SameCoordinates,Original*%
%TF.FileFunction,Copper,L1,Top*%
%TF.FilePolarity,Positive*%
%FSLAX46Y46*%
G04 Gerber Fmt 4.6, Leading zero omitted, Abs format (unit mm)*
G04 Created by KiCad (PCBNEW (6.0.5)) date 2022-06-17 18:07:44*
%MOMM*%
%LPD*%
G01*
G04 APERTURE LIST*
G04 Aperture macros list*
%AMRoundRect*
0 Rectangle with rounded corners*
0 $1 Rounding radius*
0 $2 $3 $4 $5 $6 $7 $8 $9 X,Y pos of 4 corners*
0 Add a 4 corners polygon primitive as box body*
4,1,4,$2,$3,$4,$5,$6,$7,$8,$9,$2,$3,0*
0 Add four circle primitives for the rounded corners*
1,1,$1+$1,$2,$3*
1,1,$1+$1,$4,$5*
1,1,$1+$1,$6,$7*
1,1,$1+$1,$8,$9*
0 Add four rect primitives between the rounded corners*
20,1,$1+$1,$2,$3,$4,$5,0*
20,1,$1+$1,$4,$5,$6,$7,0*
20,1,$1+$1,$6,$7,$8,$9,0*
20,1,$1+$1,$8,$9,$2,$3,0*%
%AMRotRect*
0 Rectangle, with rotation*
0 The origin of the aperture is its center*
0 $1 length*
0 $2 width*
0 $3 Rotation angle, in degrees counterclockwise*
0 Add horizontal line*
21,1,$1,$2,0,0,$3*%
G04 Aperture macros list end*
%TA.AperFunction,SMDPad,CuDef*%
%ADD10RoundRect,0.250000X-0.375000X-0.850000X0.375000X-0.850000X0.375000X0.850000X-0.375000X0.850000X0*%
%TD*%
%TA.AperFunction,SMDPad,CuDef*%
%ADD11R,0.650000X1.220000*%
%TD*%
%TA.AperFunction,SMDPad,CuDef*%
%ADD12R,1.060000X0.650000*%
%TD*%
%TA.AperFunction,SMDPad,CuDef*%
%ADD13RoundRect,0.218750X-0.256250X0.218750X-0.256250X-0.218750X0.256250X-0.218750X0.256250X0.218750X0*%
%TD*%
%TA.AperFunction,SMDPad,CuDef*%
%ADD14RotRect,2.150000X4.500000X250.000000*%
%TD*%
%TA.AperFunction,SMDPad,CuDef*%
%ADD15R,1.000000X1.750000*%
%TD*%
%TA.AperFunction,SMDPad,CuDef*%
%ADD16RoundRect,0.250001X-0.462499X-0.624999X0.462499X-0.624999X0.462499X0.624999X-0.462499X0.624999X0*%
%TD*%
%TA.AperFunction,SMDPad,CuDef*%
%ADD17R,0.650000X1.060000*%
%TD*%
%TA.AperFunction,SMDPad,CuDef*%
%ADD18RoundRect,0.147500X-0.147500X-0.172500X0.147500X-0.172500X0.147500X0.172500X-0.147500X0.172500X0*%
%TD*%
%TA.AperFunction,SMDPad,CuDef*%
%ADD19R,1.200000X0.900000*%
%TD*%
%TA.AperFunction,SMDPad,CuDef*%
%ADD20RoundRect,0.250001X-0.624999X0.462499X-0.624999X-0.462499X0.624999X-0.462499X0.624999X0.462499X0*%
%TD*%
%TA.AperFunction,SMDPad,CuDef*%
%ADD21R,1.220000X0.650000*%
%TD*%
%TA.AperFunction,SMDPad,CuDef*%
%ADD22R,1.800000X2.500000*%
%TD*%
%TA.AperFunction,SMDPad,CuDef*%
%ADD23RoundRect,0.147500X-0.212545X0.079606X-0.111649X-0.197603X0.212545X-0.079606X0.111649X0.197603X0*%
%TD*%
%TA.AperFunction,SMDPad,CuDef*%
%ADD24RoundRect,0.147500X-0.079606X-0.212545X0.197603X-0.111649X0.079606X0.212545X-0.197603X0.111649X0*%
%TD*%
%TA.AperFunction,SMDPad,CuDef*%
%ADD25RoundRect,0.147500X0.079606X0.212545X-0.197603X0.111649X-0.079606X-0.212545X0.197603X-0.111649X0*%
%TD*%
%TA.AperFunction,SMDPad,CuDef*%
%ADD26R,2.500000X1.800000*%
%TD*%
%TA.AperFunction,SMDPad,CuDef*%
%ADD27R,2.150000X4.500000*%
%TD*%
%TA.AperFunction,SMDPad,CuDef*%
%ADD28RoundRect,0.218750X-0.293200X-0.165979X0.117915X-0.315613X0.293200X0.165979X-0.117915X0.315613X0*%
%TD*%
%TA.AperFunction,SMDPad,CuDef*%
%ADD29RoundRect,0.147500X0.197603X0.111649X-0.079606X0.212545X-0.197603X-0.111649X0.079606X-0.212545X0*%
%TD*%
%TA.AperFunction,SMDPad,CuDef*%
%ADD30RotRect,2.300000X1.400000X160.000000*%
%TD*%
%TA.AperFunction,SMDPad,CuDef*%
%ADD31RotRect,1.250000X1.400000X160.000000*%
%TD*%
%TA.AperFunction,SMDPad,CuDef*%
%ADD32RoundRect,0.147500X-0.197603X-0.111649X0.079606X-0.212545X0.197603X0.111649X-0.079606X0.212545X0*%
%TD*%
%TA.AperFunction,SMDPad,CuDef*%
%ADD33R,1.200000X0.400000*%
%TD*%
%TA.AperFunction,SMDPad,CuDef*%
%ADD34RoundRect,0.100000X0.564852X0.312007X-0.633256X-0.124069X-0.564852X-0.312007X0.633256X0.124069X0*%
%TD*%
%TA.AperFunction,SMDPad,CuDef*%
%ADD35RoundRect,0.147500X0.172500X-0.147500X0.172500X0.147500X-0.172500X0.147500X-0.172500X-0.147500X0*%
%TD*%
%TA.AperFunction,SMDPad,CuDef*%
%ADD36RoundRect,0.218750X0.256250X-0.218750X0.256250X0.218750X-0.256250X0.218750X-0.256250X-0.218750X0*%
%TD*%
%TA.AperFunction,ComponentPad*%
%ADD37C,1.500000*%
%TD*%
%TA.AperFunction,ViaPad*%
%ADD38C,0.800000*%
%TD*%
%TA.AperFunction,ViaPad*%
%ADD39C,1.000000*%
%TD*%
%TA.AperFunction,Conductor*%
%ADD40C,0.250000*%
%TD*%
%TA.AperFunction,Conductor*%
%ADD41C,0.400000*%
%TD*%
%TA.AperFunction,Conductor*%
%ADD42C,0.590000*%
%TD*%
%TA.AperFunction,Conductor*%
%ADD43C,2.000000*%
%TD*%
G04 APERTURE END LIST*
D10*
%TO.P,L1,1,1*%
%TO.N,Net-(C13-Pad1)*%
X150850000Y-117450000D03*
%TO.P,L1,2,2*%
%TO.N,+5V*%
X153000000Y-117450000D03*
%TD*%
D11*
%TO.P,U4,1,IN*%
%TO.N,~{SHT_DWN_SIG}*%
X146775000Y-118435000D03*
%TO.P,U4,2,GND*%
%TO.N,Earth*%
X147725000Y-118435000D03*
%TO.P,U4,3,SET*%
%TO.N,Net-(R19-Pad2)*%
X148675000Y-118435000D03*
%TO.P,U4,4,DIV*%
%TO.N,Net-(R14-Pad2)*%
X148675000Y-115815000D03*
%TO.P,U4,5,V+*%
%TO.N,+3V3*%
X147725000Y-115815000D03*
%TO.P,U4,6,OUT*%
%TO.N,~{DELAYED_OFF}*%
X146775000Y-115815000D03*
%TD*%
D12*
%TO.P,Q4,1,D*%
%TO.N,+15V*%
X155800000Y-88350000D03*
X158000000Y-88350000D03*
X155800000Y-87400000D03*
X158000000Y-87400000D03*
%TO.P,Q4,2,G*%
%TO.N,Net-(Q4-Pad2)*%
X155800000Y-89300000D03*
%TO.P,Q4,3,S*%
%TO.N,Net-(Q4-Pad3)*%
X158000000Y-89300000D03*
%TD*%
D13*
%TO.P,C16,1*%
%TO.N,Earth*%
X153200000Y-108712500D03*
%TO.P,C16,2*%
%TO.N,+5V*%
X153200000Y-110287500D03*
%TD*%
D14*
%TO.P,L2,1,1*%
%TO.N,Net-(D3-Pad1)*%
X167143894Y-107106169D03*
%TO.P,L2,2,2*%
%TO.N,Net-(L2-Pad2)*%
X165656106Y-111193831D03*
%TD*%
D15*
%TO.P,J9,1,Pin_1*%
%TO.N,+12V*%
X158400000Y-96859800D03*
%TO.P,J9,2,Pin_2*%
X158400000Y-91109800D03*
%TO.P,J9,3,Pin_3*%
%TO.N,unconnected-(J9-Pad3)*%
X156400000Y-96859800D03*
%TO.P,J9,4,Pin_4*%
%TO.N,~{TS_EOC}*%
X156400000Y-91109800D03*
%TO.P,J9,5,Pin_5*%
%TO.N,SCL*%
X154400000Y-96859800D03*
%TO.P,J9,6,Pin_6*%
%TO.N,SDA*%
X154400000Y-91109800D03*
%TO.P,J9,7,Pin_7*%
%TO.N,+3.3VP*%
X152400000Y-96859800D03*
%TO.P,J9,8,Pin_8*%
%TO.N,GPS_INT*%
X152400000Y-91109800D03*
%TO.P,J9,9,Pin_9*%
%TO.N,unconnected-(J9-Pad9)*%
X150400000Y-96859800D03*
%TO.P,J9,10,Pin_10*%
%TO.N,IMU_INT*%
X150400000Y-91109800D03*
%TO.P,J9,11,Pin_11*%
%TO.N,unconnected-(J9-Pad11)*%
X148400000Y-96859800D03*
%TO.P,J9,12,Pin_12*%
%TO.N,+3V3*%
X148400000Y-91109800D03*
%TO.P,J9,13,Pin_13*%
%TO.N,Earth*%
X146400000Y-96859800D03*
%TO.P,J9,14,Pin_14*%
X146400000Y-91109800D03*
%TD*%
D12*
%TO.P,Q5,1,D*%
%TO.N,Net-(D3-Pad1)*%
X157700000Y-103050000D03*
X155500000Y-102100000D03*
X157700000Y-102100000D03*
X155500000Y-103050000D03*
%TO.P,Q5,2,G*%
%TO.N,Net-(Q5-Pad2)*%
X157700000Y-101150000D03*
%TO.P,Q5,3,S*%
%TO.N,Net-(C20-Pad1)*%
X155500000Y-101150000D03*
%TD*%
%TO.P,Q3,1,D*%
%TO.N,Net-(Q2-Pad1)*%
X143300000Y-97100000D03*
X141100000Y-97100000D03*
X141100000Y-96150000D03*
X143300000Y-96150000D03*
%TO.P,Q3,2,G*%
%TO.N,Net-(Q3-Pad2)*%
X143300000Y-95200000D03*
%TO.P,Q3,3,S*%
%TO.N,Earth*%
X141100000Y-95200000D03*
%TD*%
%TO.P,Q2,1,D*%
%TO.N,Net-(Q2-Pad1)*%
X143300000Y-98850000D03*
X141100000Y-99800000D03*
X141100000Y-98850000D03*
X143300000Y-99800000D03*
%TO.P,Q2,2,G*%
%TO.N,Net-(Q2-Pad2)*%
X141100000Y-100750000D03*
%TO.P,Q2,3,S*%
%TO.N,Net-(Q2-Pad3)*%
X143300000Y-100750000D03*
%TD*%
D13*
%TO.P,C23,1*%
%TO.N,Earth*%
X148800000Y-108262500D03*
%TO.P,C23,2*%
%TO.N,+BATT*%
X148800000Y-109837500D03*
%TD*%
D16*
%TO.P,R29,1*%
%TO.N,Net-(C20-Pad1)*%
X154575000Y-99150000D03*
%TO.P,R29,2*%
%TO.N,Net-(Q4-Pad3)*%
X157550000Y-99150000D03*
%TD*%
D17*
%TO.P,U2,1,IN*%
%TO.N,/BATT_OUT*%
X152400000Y-112100000D03*
%TO.P,U2,2,GND*%
%TO.N,Earth*%
X151450000Y-112100000D03*
%TO.P,U2,3,EN*%
%TO.N,unconnected-(U2-Pad3)*%
X150500000Y-112100000D03*
%TO.P,U2,4*%
%TO.N,N/C*%
X150500000Y-114300000D03*
%TO.P,U2,5,OUT*%
%TO.N,+3V3*%
X152400000Y-114300000D03*
%TD*%
D18*
%TO.P,R19,1*%
%TO.N,Earth*%
X144750000Y-111500000D03*
%TO.P,R19,2*%
%TO.N,Net-(R19-Pad2)*%
X145720000Y-111500000D03*
%TD*%
D13*
%TO.P,C15,1*%
%TO.N,Earth*%
X150300000Y-108800000D03*
%TO.P,C15,2*%
%TO.N,+5V*%
X150300000Y-110375000D03*
%TD*%
D19*
%TO.P,D3,1,K*%
%TO.N,Net-(D3-Pad1)*%
X162150000Y-105400000D03*
%TO.P,D3,2,A*%
%TO.N,Earth*%
X162150000Y-108700000D03*
%TD*%
D12*
%TO.P,Q1,1,D*%
%TO.N,/GND_OUT*%
X146726400Y-88392000D03*
X148926400Y-88392000D03*
X146726400Y-87442000D03*
X148926400Y-87442000D03*
%TO.P,Q1,2,G*%
%TO.N,Net-(Q1-Pad2)*%
X146726400Y-89342000D03*
%TO.P,Q1,3,S*%
%TO.N,Earth*%
X148926400Y-89342000D03*
%TD*%
D13*
%TO.P,C14,1*%
%TO.N,Earth*%
X147300000Y-108262500D03*
%TO.P,C14,2*%
%TO.N,+3V3*%
X147300000Y-109837500D03*
%TD*%
D20*
%TO.P,R8,1*%
%TO.N,Net-(Q2-Pad3)*%
X145300000Y-100500000D03*
%TO.P,R8,2*%
%TO.N,-BATT*%
X145300000Y-103475000D03*
%TD*%
D21*
%TO.P,U1,1,FB*%
%TO.N,+5V*%
X157710000Y-117300000D03*
%TO.P,U1,2,EN*%
%TO.N,~{DELAYED_OFF}*%
X157710000Y-116350000D03*
%TO.P,U1,3,VIN*%
%TO.N,/BATT_OUT*%
X157710000Y-115400000D03*
%TO.P,U1,4,GND*%
%TO.N,Earth*%
X155090000Y-115400000D03*
%TO.P,U1,5,SW*%
%TO.N,Net-(C13-Pad1)*%
X155090000Y-116350000D03*
%TO.P,U1,6,BST*%
%TO.N,Net-(C13-Pad2)*%
X155090000Y-117300000D03*
%TD*%
D22*
%TO.P,D1,1,K*%
%TO.N,/BATT_OUT*%
X161425000Y-93550000D03*
%TO.P,D1,2,A*%
%TO.N,/GND_OUT*%
X161425000Y-97550000D03*
%TD*%
D23*
%TO.P,C2,1*%
%TO.N,Net-(C2-Pad1)*%
X142759120Y-105894249D03*
%TO.P,C2,2*%
%TO.N,Net-(C2-Pad2)*%
X143090880Y-106805751D03*
%TD*%
D24*
%TO.P,R3,1*%
%TO.N,Net-(C3-Pad1)*%
X142338498Y-104841760D03*
%TO.P,R3,2*%
%TO.N,Net-(3.4-Pad1)*%
X143250000Y-104510000D03*
%TD*%
D23*
%TO.P,R1,2*%
%TO.N,+BATT*%
X143815880Y-108605751D03*
%TO.P,R1,1*%
%TO.N,Net-(C2-Pad2)*%
X143484120Y-107694249D03*
%TD*%
D25*
%TO.P,C4,1*%
%TO.N,-BATT*%
X142895751Y-103514120D03*
%TO.P,C4,2*%
%TO.N,Net-(C3-Pad1)*%
X141984249Y-103845880D03*
%TD*%
D12*
%TO.P,Q6,1,D*%
%TO.N,Net-(D3-Pad1)*%
X155500000Y-105700000D03*
X155500000Y-104750000D03*
X157700000Y-105700000D03*
X157700000Y-104750000D03*
%TO.P,Q6,2,G*%
%TO.N,Net-(Q6-Pad2)*%
X155500000Y-106650000D03*
%TO.P,Q6,3,S*%
%TO.N,Earth*%
X157700000Y-106650000D03*
%TD*%
D26*
%TO.P,D2,1,K*%
%TO.N,/BATT_OUT*%
X159450000Y-109250000D03*
%TO.P,D2,2,A*%
%TO.N,+BATT*%
X155450000Y-109250000D03*
%TD*%
D27*
%TO.P,L3,1,1*%
%TO.N,+12V*%
X160000000Y-101875000D03*
%TO.P,L3,2,2*%
%TO.N,Net-(D4-Pad2)*%
X164350000Y-101875000D03*
%TD*%
D28*
%TO.P,C11,1*%
%TO.N,+15V*%
X169100000Y-104850000D03*
%TO.P,C11,2*%
%TO.N,Earth*%
X170580016Y-105388682D03*
%TD*%
D29*
%TO.P,R32,1*%
%TO.N,Net-(R21-Pad2)*%
X167655751Y-105165880D03*
%TO.P,R32,2*%
%TO.N,Earth*%
X166744249Y-104834120D03*
%TD*%
D30*
%TO.P,D4,1,K*%
%TO.N,+15V*%
X169500000Y-102900000D03*
D31*
%TO.P,D4,2,A*%
%TO.N,Net-(D4-Pad2)*%
X167338707Y-102113354D03*
%TD*%
D32*
%TO.P,R21,2*%
%TO.N,Net-(R21-Pad2)*%
X168000000Y-104231760D03*
%TO.P,R21,1*%
%TO.N,+15V*%
X167088498Y-103900000D03*
%TD*%
D24*
%TO.P,R5,1*%
%TO.N,Net-(C8-Pad2)*%
X143044249Y-110190880D03*
%TO.P,R5,2*%
%TO.N,+BATT*%
X143955751Y-109859120D03*
%TD*%
D33*
%TO.P,U5,1,DCIN*%
%TO.N,+15V*%
X147550000Y-99382500D03*
%TO.P,U5,2,~{CHG}*%
%TO.N,Earth*%
X147550000Y-100017500D03*
%TO.P,U5,3,ACP*%
%TO.N,unconnected-(U5-Pad3)*%
X147550000Y-100652500D03*
%TO.P,U5,4,RT*%
%TO.N,Net-(R24-Pad2)*%
X147550000Y-101287500D03*
%TO.P,U5,5,~{FAULT}*%
%TO.N,unconnected-(U5-Pad5)*%
X147550000Y-101922500D03*
%TO.P,U5,6,GND*%
%TO.N,Earth*%
X147550000Y-102557500D03*
%TO.P,U5,7,3C4C*%
X147550000Y-103192500D03*
%TO.P,U5,8,~{LOBAT}*%
%TO.N,unconnected-(U5-Pad8)*%
X147550000Y-103827500D03*
%TO.P,U5,9,NTC*%
%TO.N,Net-(R22-Pad1)*%
X147550000Y-104462500D03*
%TO.P,U5,10,ITH*%
%TO.N,Net-(R25-Pad2)*%
X147550000Y-105097500D03*
%TO.P,U5,11,PROG*%
%TO.N,Net-(C21-Pad2)*%
X147550000Y-105732500D03*
%TO.P,U5,12,NC*%
%TO.N,unconnected-(U5-Pad12)*%
X147550000Y-106367500D03*
%TO.P,U5,13,~{ICL}*%
%TO.N,unconnected-(U5-Pad13)*%
X152750000Y-106367500D03*
%TO.P,U5,14,CSP*%
%TO.N,Net-(R27-Pad2)*%
X152750000Y-105732500D03*
%TO.P,U5,15,BAT*%
%TO.N,Net-(R26-Pad2)*%
X152750000Y-105097500D03*
%TO.P,U5,16,CHEM*%
%TO.N,unconnected-(U5-Pad16)*%
X152750000Y-104462500D03*
%TO.P,U5,17,~{FLAG}*%
%TO.N,~{TS_EOC}*%
X152750000Y-103827500D03*
%TO.P,U5,18,CLP*%
%TO.N,Net-(C20-Pad2)*%
X152750000Y-103192500D03*
%TO.P,U5,19,CLN*%
%TO.N,Net-(C20-Pad1)*%
X152750000Y-102557500D03*
%TO.P,U5,20,TGATE*%
%TO.N,Net-(Q5-Pad2)*%
X152750000Y-101922500D03*
%TO.P,U5,21,PGND*%
%TO.N,Earth*%
X152750000Y-101287500D03*
%TO.P,U5,22,BGATE*%
%TO.N,Net-(Q6-Pad2)*%
X152750000Y-100652500D03*
%TO.P,U5,23,INFET*%
%TO.N,Net-(Q4-Pad2)*%
X152750000Y-100017500D03*
%TO.P,U5,24,SHDN*%
%TO.N,Earth*%
X152750000Y-99382500D03*
%TD*%
D34*
%TO.P,U3,1,VDD*%
%TO.N,Net-(C8-Pad2)*%
X142427053Y-109302734D03*
%TO.P,U3,2,AVDD*%
%TO.N,Net-(C9-Pad1)*%
X142204740Y-108691934D03*
%TO.P,U3,3,VC5*%
%TO.N,Net-(C2-Pad2)*%
X141982427Y-108081134D03*
%TO.P,U3,4,VC4*%
X141760114Y-107470334D03*
%TO.P,U3,5,VC3*%
X141537801Y-106859534D03*
%TO.P,U3,6,VC2*%
%TO.N,Net-(C2-Pad1)*%
X141315488Y-106248733D03*
%TO.P,U3,7,VC1*%
%TO.N,Net-(C3-Pad1)*%
X141093175Y-105637933D03*
%TO.P,U3,8,VC0*%
%TO.N,Net-(C5-Pad1)*%
X140870861Y-105027133D03*
%TO.P,U3,9,VSS*%
%TO.N,-BATT*%
X140648548Y-104416333D03*
%TO.P,U3,10,SRP*%
X140426235Y-103805533D03*
%TO.P,U3,11,SRN*%
%TO.N,Net-(Q2-Pad3)*%
X140203922Y-103194732D03*
%TO.P,U3,12,DSG*%
%TO.N,Net-(R10-Pad2)*%
X139981609Y-102583932D03*
%TO.P,U3,13,CHG*%
%TO.N,Net-(R13-Pad2)*%
X134601869Y-104541998D03*
%TO.P,U3,14,LD*%
%TO.N,Net-(R18-Pad2)*%
X134824182Y-105152798D03*
%TO.P,U3,15,LPWR*%
%TO.N,unconnected-(U3-Pad15)*%
X135046495Y-105763598D03*
%TO.P,U3,16,CBI*%
%TO.N,Net-(R17-Pad2)*%
X135268808Y-106374398D03*
%TO.P,U3,17,OCDP*%
%TO.N,Net-(R16-Pad2)*%
X135491121Y-106985198D03*
%TO.P,U3,18,TS*%
%TO.N,Net-(R15-Pad1)*%
X135713434Y-107595999D03*
%TO.P,U3,19,VTB*%
%TO.N,Net-(R15-Pad2)*%
X135935747Y-108206799D03*
%TO.P,U3,20,CCFG*%
%TO.N,-BATT*%
X136158061Y-108817599D03*
%TO.P,U3,21,CBO*%
%TO.N,unconnected-(U3-Pad21)*%
X136380374Y-109428399D03*
%TO.P,U3,22,PRES*%
%TO.N,Net-(C8-Pad2)*%
X136602687Y-110039199D03*
%TO.P,U3,23,CTRC*%
%TO.N,-BATT*%
X136825000Y-110650000D03*
%TO.P,U3,24,CTRD*%
X137047313Y-111260800D03*
%TD*%
D12*
%TO.P,U7,1,IN*%
%TO.N,+5V*%
X154050000Y-111850000D03*
%TO.P,U7,2,GND*%
%TO.N,Earth*%
X154050000Y-112800000D03*
%TO.P,U7,3,EN*%
%TO.N,ENDCAP_EN*%
X154050000Y-113750000D03*
%TO.P,U7,4*%
%TO.N,N/C*%
X156250000Y-113750000D03*
%TO.P,U7,5,OUT*%
%TO.N,+3.3VP*%
X156250000Y-111850000D03*
%TD*%
D35*
%TO.P,C24,1*%
%TO.N,Earth*%
X159100000Y-112470000D03*
%TO.P,C24,2*%
%TO.N,+5V*%
X159100000Y-111500000D03*
%TD*%
D36*
%TO.P,C25,2*%
%TO.N,+3.3VP*%
X157850000Y-112362500D03*
%TO.P,C25,1*%
%TO.N,Earth*%
X157850000Y-113937500D03*
%TD*%
D18*
%TO.P,C13,1*%
%TO.N,Net-(C13-Pad1)*%
X152815000Y-115600000D03*
%TO.P,C13,2*%
%TO.N,Net-(C13-Pad2)*%
X153785000Y-115600000D03*
%TD*%
D37*
%TO.P,11.1,1,Pin_1*%
%TO.N,+BATT*%
X140450000Y-93225000D03*
%TD*%
%TO.P,0.0,1,Pin_1*%
%TO.N,-BATT*%
X151450000Y-94050000D03*
%TD*%
%TO.P,12V_OUT1,1,Pin_1*%
%TO.N,/BATT_OUT*%
X162200000Y-90800000D03*
%TD*%
%TO.P,GND_OUT1,1,Pin_1*%
%TO.N,/GND_OUT*%
X164550000Y-93525000D03*
%TD*%
%TO.P,3.4,1,Pin_1*%
%TO.N,Net-(3.4-Pad1)*%
X142250000Y-91100000D03*
%TD*%
%TO.P,7.4_1,1,Pin_1*%
%TO.N,Net-(7.4_1-Pad1)*%
X145000000Y-105925000D03*
%TD*%
%TO.P,7.4_2,1,Pin_1*%
%TO.N,Net-(7.4_1-Pad1)*%
X159800000Y-105875000D03*
%TD*%
D38*
%TO.N,Net-(R13-Pad2)*%
X133694249Y-103634378D03*
%TO.N,Earth*%
X136937511Y-102362511D03*
%TO.N,+3V3*%
X147725000Y-115815000D03*
%TO.N,Net-(R19-Pad2)*%
X145700000Y-111475000D03*
%TO.N,Net-(R14-Pad2)*%
X148063670Y-114339071D03*
%TO.N,Net-(R19-Pad2)*%
X148700000Y-118225000D03*
%TO.N,Earth*%
X145827101Y-112466388D03*
%TO.N,~{DELAYED_OFF}*%
X150725000Y-115450000D03*
%TO.N,Earth*%
X147717165Y-118406768D03*
%TO.N,+BATT*%
X143950500Y-109194249D03*
%TO.N,-BATT*%
X139030000Y-111900000D03*
%TO.N,Net-(C9-Pad1)*%
X139970000Y-111530000D03*
%TO.N,Net-(R18-Pad2)*%
X138311502Y-101968240D03*
%TO.N,Net-(R10-Pad2)*%
X139750000Y-101575000D03*
%TO.N,Net-(Q2-Pad2)*%
X141150016Y-100800000D03*
%TO.N,Net-(Q1-Pad2)*%
X144100000Y-88780000D03*
%TO.N,Earth*%
X147409152Y-102782991D03*
X150249553Y-102219707D03*
X154990000Y-115350000D03*
X150798806Y-100364363D03*
X148800000Y-89400000D03*
X159500000Y-107500000D03*
X163950000Y-104850000D03*
X145165242Y-107986436D03*
X163750000Y-98550000D03*
X152399998Y-107175500D03*
X170605274Y-106235495D03*
X157700000Y-106975000D03*
X151474997Y-111740446D03*
X156384002Y-95200000D03*
X160170807Y-111500400D03*
X144250000Y-89899996D03*
X147859660Y-89276608D03*
X142149721Y-95175010D03*
X160949959Y-107499991D03*
X152944231Y-99217498D03*
%TO.N,Net-(C2-Pad1)*%
X139350000Y-107650000D03*
%TO.N,Net-(C3-Pad1)*%
X139200000Y-106650000D03*
%TO.N,-BATT*%
X137250000Y-105250000D03*
X137312500Y-108487500D03*
X137191316Y-111483684D03*
%TO.N,Net-(C5-Pad1)*%
X138500000Y-105800000D03*
%TO.N,Net-(C8-Pad2)*%
X142436371Y-110536371D03*
X138950000Y-109900000D03*
%TO.N,+3V3*%
X145824979Y-109000001D03*
X144006778Y-91943222D03*
X144475012Y-97575179D03*
X151004745Y-98325599D03*
X152736960Y-114128522D03*
X148481459Y-91306778D03*
%TO.N,+5V*%
X148950000Y-119800000D03*
X156012983Y-118136913D03*
X153300000Y-111200000D03*
D39*
X157834131Y-118500061D03*
D38*
%TO.N,Net-(C20-Pad2)*%
X154083402Y-104323727D03*
%TO.N,+12V*%
X159400000Y-100200000D03*
X158400000Y-91109800D03*
X158395100Y-96854900D03*
X158389645Y-92010355D03*
X159350000Y-103450000D03*
X158389645Y-96010355D03*
X159350000Y-101700000D03*
%TO.N,Net-(C21-Pad2)*%
X149567475Y-107247814D03*
%TO.N,+BATT*%
X155450000Y-109250000D03*
X148862299Y-109887701D03*
X154600000Y-108849001D03*
X154350000Y-110850000D03*
X156300000Y-109750000D03*
%TO.N,IMU_INT*%
X150399984Y-91109800D03*
%TO.N,GPS_INT*%
X150274011Y-94896001D03*
%TO.N,SDA*%
X149100000Y-93700000D03*
%TO.N,SCL*%
X148182448Y-94344614D03*
%TO.N,~{TS_EOC}*%
X150788502Y-99301951D03*
X156400000Y-91109810D03*
%TO.N,Net-(L2-Pad2)*%
X161675014Y-110974986D03*
%TO.N,Net-(Q2-Pad3)*%
X142597913Y-100825000D03*
%TO.N,Net-(Q3-Pad2)*%
X142000000Y-93350000D03*
%TO.N,Net-(Q4-Pad3)*%
X156150000Y-98450000D03*
%TO.N,Net-(Q4-Pad2)*%
X154650000Y-93250000D03*
X151736735Y-100017501D03*
%TO.N,Net-(Q5-Pad2)*%
X157700026Y-101150000D03*
X154364600Y-101422799D03*
%TO.N,Net-(Q6-Pad2)*%
X154300000Y-105300000D03*
X153829771Y-100577825D03*
%TO.N,Net-(R15-Pad2)*%
X138242857Y-108057143D03*
%TO.N,Net-(R15-Pad1)*%
X137959999Y-107040001D03*
%TO.N,Net-(R16-Pad2)*%
X136557548Y-106557548D03*
%TO.N,Net-(R17-Pad2)*%
X136500000Y-104400000D03*
%TO.N,Net-(R22-Pad1)*%
X149409995Y-105320273D03*
%TO.N,Net-(R24-Pad2)*%
X149325030Y-100350000D03*
%TO.N,Net-(R25-Pad2)*%
X149740782Y-106263451D03*
%TO.N,Net-(R26-Pad2)*%
X151800000Y-109700000D03*
%TO.N,Net-(R27-Pad2)*%
X152100000Y-108700000D03*
%TO.N,Net-(D4-Pad2)*%
X166800000Y-102950000D03*
%TO.N,+15V*%
X155800000Y-88350014D03*
X155800000Y-87400000D03*
X147119947Y-98441373D03*
X158000000Y-87400000D03*
X169250000Y-102200000D03*
X170200000Y-102800000D03*
X170999976Y-103150000D03*
X158000000Y-88350000D03*
%TO.N,~{SHT_DWN_SIG}*%
X157834806Y-119600072D03*
X151911226Y-120407964D03*
%TO.N,Net-(C20-Pad1)*%
X156250000Y-100200000D03*
X154327206Y-102422102D03*
X154300000Y-98450000D03*
%TO.N,Net-(R21-Pad2)*%
X167200000Y-109700000D03*
%TO.N,Net-(3.4-Pad1)*%
X143219095Y-104490584D03*
X144474990Y-98600508D03*
%TO.N,/GND_OUT*%
X146726400Y-87442000D03*
X148926400Y-87442000D03*
X146726400Y-88392000D03*
X148926400Y-88392000D03*
%TO.N,/BATT_OUT*%
X159450022Y-109250000D03*
X161300000Y-93900000D03*
X156920000Y-115400000D03*
X160300000Y-109627460D03*
X152645395Y-111955313D03*
X161300000Y-95000000D03*
X158600000Y-108750000D03*
%TO.N,+3.3VP*%
X157600000Y-108200000D03*
X149800000Y-104400000D03*
X157650000Y-111300000D03*
X152400000Y-96850000D03*
X150449671Y-107717641D03*
%TO.N,ENDCAP_EN*%
X149177123Y-110897876D03*
%TD*%
D40*
%TO.N,ENDCAP_EN*%
X149177123Y-112281145D02*
X149177123Y-110897876D01*
X151114785Y-112954511D02*
X149850489Y-112954511D01*
X151565286Y-113405012D02*
X151114785Y-112954511D01*
X153049229Y-113404022D02*
X152245141Y-113404022D01*
X153395207Y-113750000D02*
X153049229Y-113404022D01*
X154050000Y-113750000D02*
X153395207Y-113750000D01*
X152245141Y-113404022D02*
X152244151Y-113405012D01*
X149850489Y-112954511D02*
X149177123Y-112281145D01*
X152244151Y-113405012D02*
X151565286Y-113405012D01*
%TO.N,Earth*%
X153223251Y-112942340D02*
X153211081Y-112930170D01*
X153161082Y-112930171D02*
X153140699Y-112909788D01*
X153894999Y-112955001D02*
X153235915Y-112955001D01*
X152058947Y-112954512D02*
X152058458Y-112955001D01*
X152058458Y-112955001D02*
X151930431Y-112955001D01*
X153235915Y-112955001D02*
X153223254Y-112942340D01*
X153140699Y-112909788D02*
X153115700Y-112909789D01*
X153211081Y-112930170D02*
X153161082Y-112930171D01*
X153223254Y-112942340D02*
X153223251Y-112942340D01*
X153049511Y-112954511D02*
X152058947Y-112954512D01*
X154050000Y-112800000D02*
X153894999Y-112955001D01*
X151929941Y-112954511D02*
X151750489Y-112954511D01*
X151750489Y-112775059D02*
X151474997Y-112499567D01*
X151474997Y-112499567D02*
X151474997Y-111740446D01*
X153115700Y-112909789D02*
X153095977Y-112890066D01*
X153095977Y-112890066D02*
X153049511Y-112890066D01*
X153049511Y-112890066D02*
X153049511Y-112954511D01*
X151930431Y-112955001D02*
X151929941Y-112954511D01*
X151750489Y-112954511D02*
X151750489Y-112775059D01*
%TO.N,Net-(R10-Pad2)*%
X139981609Y-101806609D02*
X139750000Y-101575000D01*
X139981609Y-102583932D02*
X139981609Y-101806609D01*
%TO.N,~{SHT_DWN_SIG}*%
X148633554Y-120508154D02*
X148720213Y-120524501D01*
X148225499Y-120100099D02*
X148633554Y-120508154D01*
X146775000Y-119100000D02*
X147775099Y-120100099D01*
X147775099Y-120100099D02*
X148225499Y-120100099D01*
X146775000Y-118435000D02*
X146775000Y-119100000D01*
X148720213Y-120524501D02*
X151794689Y-120524501D01*
X151794689Y-120524501D02*
X151911226Y-120407964D01*
D41*
%TO.N,+5V*%
X151668170Y-119600002D02*
X151594141Y-119674031D01*
X157766750Y-118500061D02*
X156666809Y-119600002D01*
X157834131Y-118500061D02*
X157766750Y-118500061D01*
X156666809Y-119600002D02*
X151668170Y-119600002D01*
X151594141Y-119674031D02*
X149075969Y-119674031D01*
X149075969Y-119674031D02*
X148950000Y-119800000D01*
D40*
%TO.N,+3V3*%
X147300000Y-109837500D02*
X147300000Y-111850000D01*
X147300000Y-111850000D02*
X149400000Y-113950000D01*
%TO.N,Net-(R14-Pad2)*%
X148690000Y-115210000D02*
X148690000Y-114965401D01*
X148690000Y-114965401D02*
X148063670Y-114339071D01*
%TO.N,+3V3*%
X147725000Y-116675000D02*
X147725000Y-115815000D01*
X149175000Y-116900000D02*
X147950000Y-116900000D01*
X149400000Y-113950000D02*
X149400000Y-116675000D01*
X149400000Y-116675000D02*
X149175000Y-116900000D01*
X149924501Y-113425499D02*
X149400000Y-113950000D01*
X150950069Y-113425499D02*
X149924501Y-113425499D01*
X151653092Y-114128522D02*
X150950069Y-113425499D01*
X147950000Y-116900000D02*
X147725000Y-116675000D01*
X152736960Y-114128522D02*
X151653092Y-114128522D01*
%TO.N,~{DELAYED_OFF}*%
X149775000Y-117500000D02*
X149900000Y-117625000D01*
X147100000Y-117500000D02*
X149775000Y-117500000D01*
X146775000Y-117175000D02*
X147100000Y-117500000D01*
X149900000Y-117625000D02*
X149900000Y-116162507D01*
X149900000Y-119126402D02*
X149900000Y-117625000D01*
X146775000Y-115815000D02*
X146775000Y-117175000D01*
X150612507Y-115450000D02*
X150725000Y-115450000D01*
X149900000Y-116162507D02*
X150612507Y-115450000D01*
X149923118Y-119149520D02*
X149900000Y-119126402D01*
X151376882Y-119149520D02*
X149923118Y-119149520D01*
X156774999Y-118725001D02*
X156450000Y-119050000D01*
X151476402Y-119050000D02*
X151376882Y-119149520D01*
X156774999Y-116714999D02*
X156774999Y-118725001D01*
X157189998Y-116300000D02*
X156774999Y-116714999D01*
X157610000Y-116300000D02*
X157189998Y-116300000D01*
X156450000Y-119050000D02*
X151476402Y-119050000D01*
D42*
%TO.N,+5V*%
X153000000Y-117450000D02*
X153686913Y-118136913D01*
X153686913Y-118136913D02*
X156012983Y-118136913D01*
D40*
%TO.N,Net-(C13-Pad2)*%
X154100000Y-115915000D02*
X153785000Y-115600000D01*
X154100000Y-116880002D02*
X154100000Y-115915000D01*
X154519998Y-117300000D02*
X154100000Y-116880002D01*
X155090000Y-117300000D02*
X154519998Y-117300000D01*
%TO.N,Net-(C13-Pad1)*%
X152700000Y-115600000D02*
X150850000Y-117450000D01*
X152815000Y-115600000D02*
X152700000Y-115600000D01*
D41*
%TO.N,Earth*%
X145422337Y-112466388D02*
X145827101Y-112466388D01*
X144750000Y-111794051D02*
X145422337Y-112466388D01*
X144750000Y-111500000D02*
X144750000Y-111794051D01*
X144750000Y-108401678D02*
X145165242Y-107986436D01*
X144750000Y-111500000D02*
X144750000Y-108401678D01*
D40*
%TO.N,+BATT*%
X143955751Y-109199500D02*
X143950500Y-109194249D01*
X143955751Y-109859120D02*
X143955751Y-109199500D01*
X143950500Y-108740371D02*
X143950500Y-109194249D01*
X143815880Y-108605751D02*
X143950500Y-108740371D01*
%TO.N,~{SHT_DWN_SIG}*%
X152194179Y-120125011D02*
X151911226Y-120407964D01*
X156884277Y-120125011D02*
X152194179Y-120125011D01*
X157409216Y-119600072D02*
X156884277Y-120125011D01*
X157834806Y-119600072D02*
X157409216Y-119600072D01*
%TO.N,-BATT*%
X138613684Y-111483684D02*
X139030000Y-111900000D01*
X137191316Y-111483684D02*
X138613684Y-111483684D01*
%TO.N,Net-(C8-Pad2)*%
X142427053Y-109573684D02*
X143044249Y-110190880D01*
X143044249Y-110190880D02*
X142698758Y-110536371D01*
X142427053Y-109302734D02*
X142427053Y-109573684D01*
%TO.N,Net-(C2-Pad2)*%
X143090880Y-106805751D02*
X143484120Y-107694249D01*
%TO.N,Net-(C9-Pad1)*%
X139970000Y-111530000D02*
X141150000Y-110350000D01*
%TO.N,Net-(Q1-Pad2)*%
X145757000Y-89342000D02*
X146626400Y-89342000D01*
X145195000Y-88780000D02*
X145757000Y-89342000D01*
X144100000Y-88780000D02*
X145195000Y-88780000D01*
D42*
%TO.N,Earth*%
X159500000Y-107500000D02*
X160949950Y-107500000D01*
X148926400Y-89342000D02*
X147925052Y-89342000D01*
D40*
X152750000Y-101287500D02*
X151721943Y-101287500D01*
X147550000Y-102923839D02*
X147409152Y-102782991D01*
D42*
X160949991Y-107499991D02*
X160949959Y-107499991D01*
D40*
X156712500Y-112800000D02*
X154050000Y-112800000D01*
D42*
X147300000Y-108262500D02*
X148800000Y-108262500D01*
D40*
X157850000Y-113937500D02*
X156712500Y-112800000D01*
X147550000Y-100017500D02*
X146864899Y-100017500D01*
D41*
X166744249Y-104834120D02*
X163965880Y-104834120D01*
D40*
X152915002Y-99217498D02*
X152944231Y-99217498D01*
D42*
X146837427Y-91487427D02*
X145249996Y-89899996D01*
X158975000Y-106975000D02*
X159500000Y-107500000D01*
D40*
X146864899Y-100017500D02*
X146172318Y-99324919D01*
X159100000Y-112470000D02*
X159201207Y-112470000D01*
D42*
X146400000Y-96859800D02*
X146837427Y-96422373D01*
X147925052Y-89342000D02*
X147859660Y-89276608D01*
X149337500Y-108800000D02*
X150300000Y-108800000D01*
X148800000Y-108262500D02*
X149337500Y-108800000D01*
D40*
X153200000Y-108812500D02*
X153200000Y-107975502D01*
D42*
X157700000Y-106975000D02*
X158975000Y-106975000D01*
D40*
X157850000Y-113720000D02*
X159100000Y-112470000D01*
D42*
X162150000Y-108700000D02*
X160949991Y-107499991D01*
X145249996Y-89899996D02*
X144250000Y-89899996D01*
D40*
X153200000Y-107975502D02*
X152399998Y-107175500D01*
X170580016Y-105388682D02*
X170580016Y-106210237D01*
X152750000Y-99382500D02*
X152915002Y-99217498D01*
X147550000Y-102642143D02*
X147409152Y-102782991D01*
X147550000Y-102557500D02*
X147550000Y-102642143D01*
D42*
X147300000Y-108262500D02*
X147023936Y-107986436D01*
X146837427Y-96422373D02*
X146837427Y-91487427D01*
D40*
X147550000Y-103192500D02*
X147550000Y-102923839D01*
D41*
X163965880Y-104834120D02*
X163950000Y-104850000D01*
D40*
X142124731Y-95200000D02*
X142149721Y-95175010D01*
D42*
X160949950Y-107500000D02*
X160949959Y-107499991D01*
X147023936Y-107986436D02*
X145165242Y-107986436D01*
D40*
X159201207Y-112470000D02*
X160170807Y-111500400D01*
X151721943Y-101287500D02*
X150798806Y-100364363D01*
X170580016Y-106210237D02*
X170605274Y-106235495D01*
X157850000Y-113937500D02*
X157850000Y-113720000D01*
X146172318Y-99324919D02*
X146172318Y-97512594D01*
X141100000Y-95200000D02*
X142124731Y-95200000D01*
%TO.N,Net-(C2-Pad2)*%
X143090880Y-106805751D02*
X141760114Y-107470334D01*
X141982427Y-108081134D02*
X141537801Y-106859534D01*
%TO.N,Net-(C2-Pad1)*%
X142759120Y-105894249D02*
X142519249Y-105894249D01*
X139350000Y-107650000D02*
X140350000Y-106650000D01*
X142519249Y-105894249D02*
X142300000Y-105925000D01*
X142300000Y-105925000D02*
X141315488Y-106248733D01*
X140350000Y-106650000D02*
X141315488Y-106248733D01*
%TO.N,Net-(C3-Pad1)*%
X141093175Y-105637933D02*
X141950000Y-105310000D01*
X142338498Y-104841760D02*
X142010000Y-103940000D01*
X141950000Y-105310000D02*
X142338498Y-104841760D01*
X140150000Y-106050000D02*
X141093175Y-105637933D01*
X139200000Y-106650000D02*
X140150000Y-106050000D01*
%TO.N,-BATT*%
X137191316Y-111483684D02*
X136825000Y-110650000D01*
X137312500Y-108487500D02*
X137250000Y-108425000D01*
D41*
X142895751Y-103514120D02*
X145260880Y-103514120D01*
D40*
X145300000Y-102300000D02*
X145150000Y-102150000D01*
X138514523Y-104185477D02*
X140564523Y-104185477D01*
X140564523Y-104185477D02*
X140648548Y-104416333D01*
X137250000Y-105250000D02*
X138514523Y-104185477D01*
X144650000Y-102150000D02*
X141566819Y-103216819D01*
X137250000Y-108425000D02*
X136158061Y-108817599D01*
X141566819Y-103216819D02*
X140426235Y-103805533D01*
X145300000Y-103475000D02*
X145300000Y-102300000D01*
X145150000Y-102150000D02*
X144650000Y-102150000D01*
X140426235Y-103805533D02*
X140564523Y-104185477D01*
D41*
X145260880Y-103514120D02*
X145300000Y-103475000D01*
D40*
%TO.N,Net-(C5-Pad1)*%
X138500000Y-105800000D02*
X140075000Y-105325000D01*
X140075000Y-105325000D02*
X140870861Y-105027133D01*
%TO.N,Net-(C8-Pad2)*%
X137293170Y-109756830D02*
X136602687Y-110039199D01*
X138200000Y-110200000D02*
X137293170Y-109756830D01*
X138950000Y-109900000D02*
X138200000Y-110200000D01*
X142698758Y-110536371D02*
X142436371Y-110536371D01*
%TO.N,Net-(C9-Pad1)*%
X141150000Y-109150000D02*
X142204740Y-108691934D01*
X141150000Y-110350000D02*
X141150000Y-109150000D01*
%TO.N,Net-(C13-Pad1)*%
X156025001Y-115985001D02*
X156025001Y-114814999D01*
X152815000Y-115581768D02*
X152815000Y-115600000D01*
X155835001Y-114624999D02*
X153771769Y-114624999D01*
X156025001Y-114814999D02*
X155835001Y-114624999D01*
X155660002Y-116350000D02*
X156025001Y-115985001D01*
X155090000Y-116350000D02*
X155660002Y-116350000D01*
X153771769Y-114624999D02*
X152815000Y-115581768D01*
%TO.N,+3V3*%
X148400000Y-91109800D02*
X147457438Y-92052362D01*
X146662478Y-109837500D02*
X145824979Y-109000001D01*
X148698371Y-95246216D02*
X149574999Y-96122844D01*
X144475012Y-92411456D02*
X144475012Y-97575179D01*
X149574999Y-97994801D02*
X149905797Y-98325599D01*
X144006778Y-91943222D02*
X144475012Y-92411456D01*
X149574999Y-96122844D02*
X149574999Y-97994801D01*
X147457438Y-95246216D02*
X148698371Y-95246216D01*
X149905797Y-98325599D02*
X151004745Y-98325599D01*
X147457438Y-92052362D02*
X147457438Y-95246216D01*
X147300000Y-109837500D02*
X146662478Y-109837500D01*
D41*
%TO.N,+5V*%
X150525000Y-110600000D02*
X152887500Y-110600000D01*
X152887500Y-110600000D02*
X153200000Y-110287500D01*
X153200000Y-110287500D02*
X153200000Y-110837500D01*
X153200000Y-110387500D02*
X153200000Y-110651161D01*
D40*
X159100000Y-111500000D02*
X158150000Y-110550000D01*
X156130000Y-110550000D02*
X154830000Y-111850000D01*
X158150000Y-110550000D02*
X156130000Y-110550000D01*
D42*
X157610000Y-117300000D02*
X157610000Y-118275930D01*
D40*
X154830000Y-111850000D02*
X154050000Y-111850000D01*
D41*
X153200000Y-110934004D02*
X153200000Y-110287500D01*
X154115996Y-111850000D02*
X153200000Y-110934004D01*
D42*
X157610000Y-118275930D02*
X157834131Y-118500061D01*
D41*
X150300000Y-110375000D02*
X150525000Y-110600000D01*
D40*
%TO.N,Net-(C20-Pad2)*%
X152750000Y-103192500D02*
X153600000Y-103192500D01*
X154083402Y-103675902D02*
X154083402Y-104323727D01*
X153600000Y-103192500D02*
X154083402Y-103675902D01*
D42*
%TO.N,+12V*%
X158389645Y-92010355D02*
X158389645Y-96010355D01*
X158389645Y-96010355D02*
X158389645Y-96849445D01*
X159400000Y-98700000D02*
X158400000Y-97700000D01*
X159400000Y-100200000D02*
X159400000Y-98700000D01*
X159950000Y-98409800D02*
X159950000Y-101100000D01*
X158395100Y-96854900D02*
X159950000Y-98409800D01*
X158400000Y-97700000D02*
X158400000Y-96859800D01*
X158389645Y-91120155D02*
X158389645Y-92010355D01*
X159950000Y-101100000D02*
X159350000Y-101700000D01*
D40*
%TO.N,Net-(C21-Pad2)*%
X147800000Y-105682500D02*
X146785978Y-105682500D01*
X146981292Y-107247814D02*
X149567475Y-107247814D01*
X146785978Y-105682500D02*
X146625489Y-105842989D01*
X146625489Y-106892011D02*
X146981292Y-107247814D01*
X146625489Y-105842989D02*
X146625489Y-106892011D01*
D42*
%TO.N,+BATT*%
X155450000Y-109250000D02*
X155450000Y-109750000D01*
X155450000Y-109750000D02*
X154350000Y-110850000D01*
D40*
%TO.N,GPS_INT*%
X150274011Y-93610789D02*
X150274011Y-94896001D01*
X152400000Y-91109800D02*
X152400000Y-91484800D01*
X152400000Y-91484800D02*
X150274011Y-93610789D01*
%TO.N,SDA*%
X153190200Y-89900000D02*
X149701996Y-89900000D01*
X149701996Y-89900000D02*
X149468936Y-90133060D01*
X149468936Y-90133060D02*
X149468936Y-93331064D01*
X149468936Y-93331064D02*
X149100000Y-93700000D01*
X154400000Y-91109800D02*
X153190200Y-89900000D01*
%TO.N,SCL*%
X153199999Y-95659799D02*
X149784722Y-95659799D01*
X154400000Y-96859800D02*
X153199999Y-95659799D01*
X148469537Y-94344614D02*
X148182448Y-94344614D01*
X149784722Y-95659799D02*
X148469537Y-94344614D01*
%TO.N,~{TS_EOC}*%
X151824999Y-103752499D02*
X151824999Y-102474999D01*
X151824999Y-102474999D02*
X150073804Y-100723804D01*
X150073804Y-100723804D02*
X150073804Y-100016649D01*
X152750000Y-103827500D02*
X151900000Y-103827500D01*
X150073804Y-100016649D02*
X150788502Y-99301951D01*
X151900000Y-103827500D02*
X151824999Y-103752499D01*
D42*
%TO.N,Net-(L2-Pad2)*%
X165114910Y-110974986D02*
X161675014Y-110974986D01*
X165570088Y-111430164D02*
X165114910Y-110974986D01*
%TO.N,Net-(Q2-Pad1)*%
X141100000Y-99800000D02*
X141100000Y-99300000D01*
X143300000Y-99800000D02*
X143179995Y-99679995D01*
X143179995Y-99679995D02*
X143179995Y-96270005D01*
X141100000Y-99800000D02*
X143200000Y-99800000D01*
X141100000Y-99300000D02*
X141100000Y-96150000D01*
X141100000Y-96150000D02*
X143200000Y-96150000D01*
D40*
%TO.N,Net-(Q2-Pad3)*%
X145300000Y-101550000D02*
X145300000Y-100500000D01*
X143300000Y-100750000D02*
X142672913Y-100750000D01*
X140203922Y-103194732D02*
X141350000Y-102750000D01*
X145150000Y-101700000D02*
X145300000Y-101550000D01*
X144500000Y-101700000D02*
X145150000Y-101700000D01*
X141350000Y-102750000D02*
X144500000Y-101700000D01*
D42*
X145075000Y-100825000D02*
X145400000Y-100500000D01*
D40*
X143250000Y-100800000D02*
X143300000Y-100750000D01*
D42*
X142597913Y-100825000D02*
X145075000Y-100825000D01*
D40*
%TO.N,Net-(Q3-Pad2)*%
X143300000Y-95200000D02*
X143300000Y-94650000D01*
X143300000Y-94650000D02*
X142000000Y-93350000D01*
%TO.N,Net-(Q4-Pad3)*%
X156150000Y-98963589D02*
X156150000Y-98450000D01*
D42*
X158000000Y-89300000D02*
X157404999Y-89895001D01*
D40*
X157550000Y-99150000D02*
X156336410Y-99150000D01*
X156336410Y-99150000D02*
X156150000Y-98963589D01*
D42*
X157404999Y-89895001D02*
X157404999Y-99004999D01*
X157404999Y-99004999D02*
X157550000Y-99150000D01*
D40*
%TO.N,Net-(Q4-Pad2)*%
X155249999Y-92650001D02*
X154650000Y-93250000D01*
X151899999Y-100017501D02*
X151736735Y-100017501D01*
X152750000Y-100017500D02*
X151899999Y-100017501D01*
X155800000Y-89300000D02*
X155249999Y-89850001D01*
X155249999Y-89850001D02*
X155249999Y-92650001D01*
%TO.N,Net-(Q5-Pad2)*%
X154099701Y-101422799D02*
X154364600Y-101422799D01*
X153600000Y-101922500D02*
X154099701Y-101422799D01*
X152750000Y-101922500D02*
X153600000Y-101922500D01*
%TO.N,Net-(Q6-Pad2)*%
X155500000Y-106975000D02*
X155409315Y-106975000D01*
X155409315Y-106975000D02*
X154300000Y-105865685D01*
X152750000Y-100652500D02*
X153755096Y-100652500D01*
X154300000Y-105865685D02*
X154300000Y-105300000D01*
X153755096Y-100652500D02*
X153829771Y-100577825D01*
%TO.N,Net-(R13-Pad2)*%
X134601869Y-104541998D02*
X133694249Y-103634378D01*
%TO.N,Net-(R15-Pad2)*%
X138242857Y-108057143D02*
X137350000Y-107700000D01*
X137350000Y-107700000D02*
X135935747Y-108206799D01*
%TO.N,Net-(R15-Pad1)*%
X137959999Y-107040001D02*
X137586666Y-107013334D01*
X137586666Y-107013334D02*
X135713434Y-107595999D01*
%TO.N,Net-(R16-Pad2)*%
X136410000Y-106640000D02*
X135491121Y-106985198D01*
X136557548Y-106557548D02*
X136410000Y-106640000D01*
%TO.N,Net-(R17-Pad2)*%
X136300000Y-105850000D02*
X135268808Y-106374398D01*
X136500000Y-104400000D02*
X136300000Y-105850000D01*
%TO.N,Net-(R18-Pad2)*%
X135675000Y-104675000D02*
X135770454Y-104470454D01*
X135770454Y-104470454D02*
X135600000Y-103900000D01*
X138000000Y-103000000D02*
X138311502Y-101968240D01*
X135600000Y-103900000D02*
X138000000Y-103000000D01*
X134824182Y-105152798D02*
X135675000Y-104675000D01*
%TO.N,Net-(R22-Pad1)*%
X148502222Y-104412500D02*
X149409995Y-105320273D01*
X147800000Y-104412500D02*
X148502222Y-104412500D01*
%TO.N,Net-(R24-Pad2)*%
X148387530Y-101287500D02*
X149325030Y-100350000D01*
X147550000Y-101287500D02*
X148387530Y-101287500D01*
%TO.N,Net-(R25-Pad2)*%
X148149178Y-105047500D02*
X148685494Y-105583816D01*
X148685494Y-105583816D02*
X148685494Y-105620372D01*
X148685494Y-105620372D02*
X149328573Y-106263451D01*
X149328573Y-106263451D02*
X149740782Y-106263451D01*
X147800000Y-105047500D02*
X148149178Y-105047500D01*
%TO.N,Net-(R26-Pad2)*%
X152750000Y-105097500D02*
X151891090Y-105097500D01*
X151225987Y-109125987D02*
X151800000Y-109700000D01*
X151225987Y-105762603D02*
X151225987Y-109125987D01*
X151891090Y-105097500D02*
X151225987Y-105762603D01*
%TO.N,Net-(R27-Pad2)*%
X153000000Y-105682500D02*
X151942500Y-105682500D01*
X151675497Y-105949503D02*
X151675497Y-108275497D01*
X151675497Y-108275497D02*
X152100000Y-108700000D01*
X151942500Y-105682500D02*
X151675497Y-105949503D01*
D41*
%TO.N,Net-(D4-Pad2)*%
X166800000Y-102950000D02*
X166800000Y-102652061D01*
D43*
X166554466Y-101875000D02*
X166977995Y-102030589D01*
D41*
X166800000Y-102652061D02*
X167338707Y-102113354D01*
D43*
X164350000Y-101875000D02*
X166554466Y-101875000D01*
D42*
%TO.N,+15V*%
X158000000Y-87400000D02*
X158000000Y-88350000D01*
X170749976Y-102900000D02*
X170999976Y-103150000D01*
D41*
X167088498Y-103900000D02*
X167588498Y-103400000D01*
X147550000Y-98871426D02*
X147119947Y-98441373D01*
X169000000Y-103400000D02*
X169500000Y-102900000D01*
X169100000Y-104850000D02*
X169100000Y-103300000D01*
X167588498Y-103400000D02*
X169000000Y-103400000D01*
D42*
X155800000Y-87400000D02*
X158000000Y-87400000D01*
X169500000Y-102900000D02*
X170749976Y-102900000D01*
X158000000Y-88350000D02*
X155800000Y-88350000D01*
D41*
X147550000Y-99382500D02*
X147550000Y-98871426D01*
X169100000Y-103300000D02*
X169500000Y-102900000D01*
D42*
X155800000Y-88350000D02*
X155800000Y-87400000D01*
D40*
%TO.N,Net-(C20-Pad1)*%
X154191808Y-102557500D02*
X154327206Y-102422102D01*
X156250000Y-99700000D02*
X156250000Y-100200000D01*
D42*
X154300000Y-98450000D02*
X154300000Y-99300000D01*
D40*
X154575000Y-99150000D02*
X155700000Y-99150000D01*
D42*
X155500000Y-100500000D02*
X155500000Y-101150000D01*
D40*
X155700000Y-99150000D02*
X156250000Y-99700000D01*
D42*
X154300000Y-99300000D02*
X155500000Y-100500000D01*
D40*
X154300000Y-98450000D02*
X154700000Y-98450000D01*
X152750000Y-102557500D02*
X154191808Y-102557500D01*
D42*
%TO.N,Net-(D3-Pad1)*%
X155500000Y-105700000D02*
X155500000Y-102100000D01*
X166460076Y-106100000D02*
X167229912Y-106869836D01*
D41*
X155500000Y-102100000D02*
X157700000Y-102100000D01*
D42*
X157820001Y-104629999D02*
X161379999Y-104629999D01*
X157700000Y-102100000D02*
X157700000Y-105700000D01*
X161379999Y-104629999D02*
X162850000Y-106100000D01*
X157700000Y-104750000D02*
X157820001Y-104629999D01*
X157700000Y-105700000D02*
X155500000Y-105700000D01*
X162850000Y-106100000D02*
X166460076Y-106100000D01*
D40*
%TO.N,Net-(R21-Pad2)*%
X169500000Y-106203223D02*
X169500000Y-106000000D01*
D41*
X167655751Y-105165880D02*
X168000000Y-104231760D01*
D40*
X170257273Y-107978777D02*
X170257273Y-106960496D01*
X167200000Y-109700000D02*
X168536050Y-109700000D01*
X168536050Y-109700000D02*
X170257273Y-107978777D01*
X170257273Y-106960496D02*
X169500000Y-106203223D01*
X169500000Y-106000000D02*
X167655751Y-105165880D01*
%TO.N,Net-(3.4-Pad1)*%
X145250000Y-97825498D02*
X144474990Y-98600508D01*
X146217416Y-95159584D02*
X145250000Y-96127000D01*
X142250000Y-91100000D02*
X144430198Y-91100000D01*
X145250000Y-96127000D02*
X145250000Y-97825498D01*
X146217416Y-92887218D02*
X146217416Y-95159584D01*
X144430198Y-91100000D02*
X146217416Y-92887218D01*
D41*
%TO.N,/GND_OUT*%
X146726400Y-87442000D02*
X146726400Y-88392000D01*
X148926400Y-87442000D02*
X146726400Y-87442000D01*
X148926400Y-88392000D02*
X148926400Y-87442000D01*
D43*
X164550000Y-93525000D02*
X163525001Y-94549999D01*
X163450011Y-95967991D02*
X161868002Y-97550000D01*
X163450011Y-95834991D02*
X163450011Y-95967991D01*
X161868002Y-97650000D02*
X161425000Y-97650000D01*
X163525001Y-95760001D02*
X163450011Y-95834991D01*
X163525001Y-94549999D02*
X163525001Y-95760001D01*
D40*
%TO.N,/BATT_OUT*%
X152544687Y-111955313D02*
X152645395Y-111955313D01*
D43*
X161250000Y-91750000D02*
X162200000Y-90800000D01*
D40*
X157610000Y-115400000D02*
X156920000Y-115400000D01*
D42*
X161300000Y-94650000D02*
X161300000Y-93900000D01*
D40*
X152400000Y-112100000D02*
X152544687Y-111955313D01*
D43*
X161250000Y-94550000D02*
X161250000Y-91750000D01*
D40*
%TO.N,+3.3VP*%
X157850000Y-112362500D02*
X157850000Y-111500000D01*
X157850000Y-111500000D02*
X157650000Y-111300000D01*
X149800000Y-104400000D02*
X150776476Y-105376476D01*
X157100000Y-111850000D02*
X157650000Y-111300000D01*
X150776476Y-105376476D02*
X150776476Y-107390836D01*
X150776476Y-107390836D02*
X150449671Y-107717641D01*
X156250000Y-111850000D02*
X157100000Y-111850000D01*
%TD*%
M02*
