M48
; DRILL file {KiCad (6.0.5)} date Fri Jun 17 18:07:54 2022
; FORMAT={-:-/ absolute / metric / decimal}
; #@! TF.CreationDate,2022-06-17T18:07:54-04:00
; #@! TF.GenerationSoftware,Kicad,Pcbnew,(6.0.5)
; #@! TF.FileFunction,Plated,1,4,PTH
FMAT,2
METRIC
; #@! TA.AperFunction,Plated,PTH,ViaDrill
T1C0.400
; #@! TA.AperFunction,Plated,PTH,ViaDrill
T2C0.500
; #@! TA.AperFunction,Plated,PTH,ComponentDrill
T3C0.700
%
G90
G05
T1
X133.694Y-103.634
X136.5Y-104.4
X136.558Y-106.558
X136.938Y-102.363
X137.191Y-111.484
X137.25Y-105.25
X137.312Y-108.487
X137.96Y-107.04
X138.243Y-108.057
X138.312Y-101.968
X138.5Y-105.8
X138.95Y-109.9
X139.03Y-111.9
X139.2Y-106.65
X139.35Y-107.65
X139.75Y-101.575
X139.97Y-111.53
X141.15Y-100.8
X142.0Y-93.35
X142.15Y-95.175
X142.436Y-110.536
X142.598Y-100.825
X143.219Y-104.491
X143.951Y-109.194
X144.007Y-91.943
X144.1Y-88.78
X144.25Y-89.9
X144.475Y-98.601
X144.475Y-97.575
X145.165Y-107.986
X145.7Y-111.475
X145.825Y-109.0
X145.827Y-112.466
X146.726Y-87.442
X146.726Y-88.392
X147.12Y-98.441
X147.409Y-102.783
X147.717Y-118.407
X147.725Y-115.815
X147.86Y-89.277
X148.064Y-114.339
X148.182Y-94.345
X148.481Y-91.307
X148.7Y-118.225
X148.8Y-89.4
X148.862Y-109.888
X148.926Y-87.442
X148.926Y-88.392
X148.95Y-119.8
X149.1Y-93.7
X149.177Y-110.898
X149.325Y-100.35
X149.41Y-105.32
X149.567Y-107.248
X149.741Y-106.263
X149.8Y-104.4
X150.25Y-102.22
X150.274Y-94.896
X150.4Y-91.11
X150.45Y-107.718
X150.725Y-115.45
X150.789Y-99.302
X150.799Y-100.364
X151.005Y-98.326
X151.475Y-111.74
X151.737Y-100.018
X151.8Y-109.7
X151.911Y-120.408
X152.1Y-108.7
X152.4Y-107.175
X152.4Y-96.85
X152.645Y-111.955
X152.737Y-114.129
X152.944Y-99.217
X153.3Y-111.2
X153.83Y-100.578
X154.083Y-104.324
X154.3Y-98.45
X154.3Y-105.3
X154.327Y-102.422
X154.35Y-110.85
X154.365Y-101.423
X154.6Y-108.849
X154.65Y-93.25
X154.99Y-115.35
X155.45Y-109.25
X155.8Y-87.4
X155.8Y-88.35
X156.013Y-118.137
X156.15Y-98.45
X156.25Y-100.2
X156.3Y-109.75
X156.384Y-95.2
X156.4Y-91.11
X156.92Y-115.4
X157.6Y-108.2
X157.65Y-111.3
X157.7Y-106.975
X157.7Y-101.15
X157.835Y-119.6
X158.0Y-87.4
X158.0Y-88.35
X158.39Y-92.01
X158.39Y-96.01
X158.395Y-96.855
X158.4Y-91.11
X158.6Y-108.75
X159.35Y-101.7
X159.35Y-103.45
X159.4Y-100.2
X159.45Y-109.25
X159.5Y-107.5
X160.171Y-111.5
X160.3Y-109.627
X160.95Y-107.5
X161.3Y-93.9
X161.3Y-95.0
X161.675Y-110.975
X163.75Y-98.55
X163.95Y-104.85
X166.8Y-102.95
X167.2Y-109.7
X169.25Y-102.2
X170.2Y-102.8
X170.605Y-106.235
X171.0Y-103.15
T2
X157.834Y-118.5
T3
X140.45Y-93.225
X142.25Y-91.1
X145.0Y-105.925
X151.45Y-94.05
X159.8Y-105.875
X162.2Y-90.8
X164.55Y-93.525
T0
M30
