%FSLAX45Y45*%
G04 Gerber Fmt 4.5, Leading zero omitted, Abs format (unit mm)*
G04 Created by KiCad (PCBNEW (6.0.5)) date 2022-06-17 18:07:54*
%MOMM*%
%LPD*%
G01*
G04 APERTURE LIST*
%TA.AperFunction,Profile*%
%ADD10C,0.200000*%
%TD*%
%ADD11C,0.200000*%
G04 APERTURE END LIST*
D10*
X14498380Y-11265866D02*
X14525548Y-11293034D01*
X14923736Y-8592046D02*
G75*
G03*
X13843687Y-9376749I314684J-1568754D01*
G01*
X14613416Y-12007924D02*
G75*
G03*
X15863416Y-12007924I625000J1847125D01*
G01*
X14578416Y-9404247D02*
G75*
G03*
X14578416Y-9404247I-40000J0D01*
G01*
X15978416Y-9404247D02*
G75*
G03*
X15978416Y-9404247I-40000J0D01*
G01*
X14923736Y-8592048D02*
G75*
G03*
X15553096Y-8592048I314680J81250D01*
G01*
X16320331Y-11190609D02*
X16777271Y-11358472D01*
X16506323Y-9529167D02*
G75*
G03*
X16729694Y-10076280I361307J-171643D01*
G01*
X16633148Y-9376747D02*
G75*
G03*
X15553096Y-8592048I-1394728J-784053D01*
G01*
X16633144Y-9376749D02*
G75*
G03*
X16506326Y-9529169I174516J-274171D01*
G01*
X13970505Y-9529169D02*
G75*
G03*
X13843687Y-9376749I-301335J-121751D01*
G01*
X17186634Y-10244143D02*
X16729694Y-10076280D01*
X15951285Y-11293035D02*
G75*
G03*
X15863416Y-11505166I212135J-212135D01*
G01*
X16320330Y-11190612D02*
G75*
G03*
X15978452Y-11265866I-112070J-305068D01*
G01*
X14613420Y-11505166D02*
G75*
G03*
X14525548Y-11293034I-300000J-4D01*
G01*
X15863416Y-12007924D02*
X15863416Y-11505166D01*
X14498380Y-11265865D02*
G75*
G03*
X14156500Y-11190609I-229811J-229815D01*
G01*
X13747138Y-10076280D02*
G75*
G03*
X13970506Y-9529169I-137932J375466D01*
G01*
X14613416Y-11505166D02*
X14613416Y-12007924D01*
X15951284Y-11293034D02*
X15978452Y-11265866D01*
X13290200Y-10244143D02*
G75*
G03*
X13699560Y-11358472I1948220J83343D01*
G01*
X13699560Y-11358472D02*
X14156500Y-11190609D01*
X13747138Y-10076280D02*
X13290198Y-10244143D01*
X16777272Y-11358472D02*
G75*
G03*
X17186634Y-10244143I-1538852J1197672D01*
G01*
D11*
X13537817Y-12431274D02*
X13537817Y-12231274D01*
X13585436Y-12231274D01*
X13614007Y-12240798D01*
X13633055Y-12259845D01*
X13642579Y-12278893D01*
X13652103Y-12316988D01*
X13652103Y-12345559D01*
X13642579Y-12383655D01*
X13633055Y-12402702D01*
X13614007Y-12421750D01*
X13585436Y-12431274D01*
X13537817Y-12431274D01*
X13737817Y-12431274D02*
X13737817Y-12297940D01*
X13737817Y-12336036D02*
X13747341Y-12316988D01*
X13756864Y-12307464D01*
X13775912Y-12297940D01*
X13794960Y-12297940D01*
X13861626Y-12431274D02*
X13861626Y-12297940D01*
X13861626Y-12231274D02*
X13852103Y-12240798D01*
X13861626Y-12250321D01*
X13871150Y-12240798D01*
X13861626Y-12231274D01*
X13861626Y-12250321D01*
X13985436Y-12431274D02*
X13966388Y-12421750D01*
X13956864Y-12402702D01*
X13956864Y-12231274D01*
X14090198Y-12431274D02*
X14071150Y-12421750D01*
X14061626Y-12402702D01*
X14061626Y-12231274D01*
X14318769Y-12431274D02*
X14318769Y-12231274D01*
X14385436Y-12374131D01*
X14452103Y-12231274D01*
X14452103Y-12431274D01*
X14633055Y-12431274D02*
X14633055Y-12326512D01*
X14623531Y-12307464D01*
X14604484Y-12297940D01*
X14566388Y-12297940D01*
X14547341Y-12307464D01*
X14633055Y-12421750D02*
X14614007Y-12431274D01*
X14566388Y-12431274D01*
X14547341Y-12421750D01*
X14537817Y-12402702D01*
X14537817Y-12383655D01*
X14547341Y-12364607D01*
X14566388Y-12355083D01*
X14614007Y-12355083D01*
X14633055Y-12345559D01*
X14728293Y-12297940D02*
X14728293Y-12497940D01*
X14728293Y-12307464D02*
X14747341Y-12297940D01*
X14785436Y-12297940D01*
X14804484Y-12307464D01*
X14814007Y-12316988D01*
X14823531Y-12336036D01*
X14823531Y-12393178D01*
X14814007Y-12412226D01*
X14804484Y-12421750D01*
X14785436Y-12431274D01*
X14747341Y-12431274D01*
X14728293Y-12421750D01*
X14909245Y-12412226D02*
X14918769Y-12421750D01*
X14909245Y-12431274D01*
X14899722Y-12421750D01*
X14909245Y-12412226D01*
X14909245Y-12431274D01*
X14909245Y-12307464D02*
X14918769Y-12316988D01*
X14909245Y-12326512D01*
X14899722Y-12316988D01*
X14909245Y-12307464D01*
X14909245Y-12326512D01*
M02*
