%TF.GenerationSoftware,KiCad,Pcbnew,(6.0.5)*%
%TF.CreationDate,2022-06-17T18:07:44-04:00*%
%TF.ProjectId,Maka_BMS,4d616b61-5f42-44d5-932e-6b696361645f,rev?*%
%TF.SameCoordinates,Original*%
%TF.FileFunction,Copper,L3,Inr*%
%TF.FilePolarity,Positive*%
%FSLAX46Y46*%
G04 Gerber Fmt 4.6, Leading zero omitted, Abs format (unit mm)*
G04 Created by KiCad (PCBNEW (6.0.5)) date 2022-06-17 18:07:44*
%MOMM*%
%LPD*%
G01*
G04 APERTURE LIST*
%TA.AperFunction,ComponentPad*%
%ADD10C,1.500000*%
%TD*%
%TA.AperFunction,ViaPad*%
%ADD11C,0.800000*%
%TD*%
%TA.AperFunction,ViaPad*%
%ADD12C,1.000000*%
%TD*%
%TA.AperFunction,Conductor*%
%ADD13C,0.590000*%
%TD*%
%TA.AperFunction,Conductor*%
%ADD14C,2.000000*%
%TD*%
%TA.AperFunction,Conductor*%
%ADD15C,0.250000*%
%TD*%
G04 APERTURE END LIST*
D10*
%TO.N,+BATT*%
%TO.C,11.1*%
X140450000Y-93225000D03*
%TD*%
%TO.N,-BATT*%
%TO.C,0.0*%
X151450000Y-94050000D03*
%TD*%
%TO.N,/BATT_OUT*%
%TO.C,12V_OUT1*%
X162200000Y-90800000D03*
%TD*%
%TO.N,/GND_OUT*%
%TO.C,GND_OUT1*%
X164550000Y-93525000D03*
%TD*%
%TO.N,Net-(3.4-Pad1)*%
%TO.C,3.4*%
X142250000Y-91100000D03*
%TD*%
%TO.N,Net-(7.4_1-Pad1)*%
%TO.C,7.4_1*%
X145000000Y-105925000D03*
%TD*%
%TO.N,Net-(7.4_1-Pad1)*%
%TO.C,7.4_2*%
X159800000Y-105875000D03*
%TD*%
D11*
%TO.N,Net-(R13-Pad2)*%
X133694249Y-103634378D03*
%TO.N,Earth*%
X136937511Y-102362511D03*
%TO.N,+3V3*%
X147725000Y-115815000D03*
%TO.N,Net-(R19-Pad2)*%
X145700000Y-111475000D03*
%TO.N,Net-(R14-Pad2)*%
X148063670Y-114339071D03*
%TO.N,Net-(R19-Pad2)*%
X148700000Y-118225000D03*
%TO.N,Earth*%
X145827101Y-112466388D03*
%TO.N,~{DELAYED_OFF}*%
X150725000Y-115450000D03*
%TO.N,Earth*%
X147717165Y-118406768D03*
%TO.N,+BATT*%
X143950500Y-109194249D03*
%TO.N,-BATT*%
X139030000Y-111900000D03*
%TO.N,Net-(C9-Pad1)*%
X139970000Y-111530000D03*
%TO.N,Net-(R18-Pad2)*%
X138311502Y-101968240D03*
%TO.N,Net-(R10-Pad2)*%
X139750000Y-101575000D03*
%TO.N,Net-(Q2-Pad2)*%
X141150016Y-100800000D03*
%TO.N,Net-(Q1-Pad2)*%
X144100000Y-88780000D03*
%TO.N,Earth*%
X147409152Y-102782991D03*
X150249553Y-102219707D03*
X154990000Y-115350000D03*
X150798806Y-100364363D03*
X148800000Y-89400000D03*
X159500000Y-107500000D03*
X163950000Y-104850000D03*
X145165242Y-107986436D03*
X163750000Y-98550000D03*
X152399998Y-107175500D03*
X170605274Y-106235495D03*
X157700000Y-106975000D03*
X151474997Y-111740446D03*
X156384002Y-95200000D03*
X160170807Y-111500400D03*
X144250000Y-89899996D03*
X147859660Y-89276608D03*
X142149721Y-95175010D03*
X160949959Y-107499991D03*
X152944231Y-99217498D03*
%TO.N,Net-(C2-Pad1)*%
X139350000Y-107650000D03*
%TO.N,Net-(C3-Pad1)*%
X139200000Y-106650000D03*
%TO.N,-BATT*%
X137250000Y-105250000D03*
X137312500Y-108487500D03*
X137191316Y-111483684D03*
%TO.N,Net-(C5-Pad1)*%
X138500000Y-105800000D03*
%TO.N,Net-(C8-Pad2)*%
X142436371Y-110536371D03*
X138950000Y-109900000D03*
%TO.N,+3V3*%
X145824979Y-109000001D03*
X144006778Y-91943222D03*
X144475012Y-97575179D03*
X151004745Y-98325599D03*
X152736960Y-114128522D03*
X148481459Y-91306778D03*
%TO.N,+5V*%
X148950000Y-119800000D03*
X156012983Y-118136913D03*
X153300000Y-111200000D03*
D12*
X157834131Y-118500061D03*
D11*
%TO.N,Net-(C20-Pad2)*%
X154083402Y-104323727D03*
%TO.N,+12V*%
X159400000Y-100200000D03*
X158400000Y-91109800D03*
X158395100Y-96854900D03*
X158389645Y-92010355D03*
X159350000Y-103450000D03*
X158389645Y-96010355D03*
X159350000Y-101700000D03*
%TO.N,Net-(C21-Pad2)*%
X149567475Y-107247814D03*
%TO.N,+BATT*%
X155450000Y-109250000D03*
X148862299Y-109887701D03*
X154600000Y-108849001D03*
X154350000Y-110850000D03*
X156300000Y-109750000D03*
%TO.N,IMU_INT*%
X150399984Y-91109800D03*
%TO.N,GPS_INT*%
X150274011Y-94896001D03*
%TO.N,SDA*%
X149100000Y-93700000D03*
%TO.N,SCL*%
X148182448Y-94344614D03*
%TO.N,~{TS_EOC}*%
X150788502Y-99301951D03*
X156400000Y-91109810D03*
%TO.N,Net-(L2-Pad2)*%
X161675014Y-110974986D03*
%TO.N,Net-(Q2-Pad3)*%
X142597913Y-100825000D03*
%TO.N,Net-(Q3-Pad2)*%
X142000000Y-93350000D03*
%TO.N,Net-(Q4-Pad3)*%
X156150000Y-98450000D03*
%TO.N,Net-(Q4-Pad2)*%
X154650000Y-93250000D03*
X151736735Y-100017501D03*
%TO.N,Net-(Q5-Pad2)*%
X157700026Y-101150000D03*
X154364600Y-101422799D03*
%TO.N,Net-(Q6-Pad2)*%
X154300000Y-105300000D03*
X153829771Y-100577825D03*
%TO.N,Net-(R15-Pad2)*%
X138242857Y-108057143D03*
%TO.N,Net-(R15-Pad1)*%
X137959999Y-107040001D03*
%TO.N,Net-(R16-Pad2)*%
X136557548Y-106557548D03*
%TO.N,Net-(R17-Pad2)*%
X136500000Y-104400000D03*
%TO.N,Net-(R22-Pad1)*%
X149409995Y-105320273D03*
%TO.N,Net-(R24-Pad2)*%
X149325030Y-100350000D03*
%TO.N,Net-(R25-Pad2)*%
X149740782Y-106263451D03*
%TO.N,Net-(R26-Pad2)*%
X151800000Y-109700000D03*
%TO.N,Net-(R27-Pad2)*%
X152100000Y-108700000D03*
%TO.N,Net-(D4-Pad2)*%
X166800000Y-102950000D03*
%TO.N,+15V*%
X155800000Y-88350014D03*
X155800000Y-87400000D03*
X147119947Y-98441373D03*
X158000000Y-87400000D03*
X169250000Y-102200000D03*
X170200000Y-102800000D03*
X170999976Y-103150000D03*
X158000000Y-88350000D03*
%TO.N,~{SHT_DWN_SIG}*%
X157834806Y-119600072D03*
X151911226Y-120407964D03*
%TO.N,Net-(C20-Pad1)*%
X156250000Y-100200000D03*
X154327206Y-102422102D03*
X154300000Y-98450000D03*
%TO.N,Net-(R21-Pad2)*%
X167200000Y-109700000D03*
%TO.N,Net-(3.4-Pad1)*%
X143219095Y-104490584D03*
X144474990Y-98600508D03*
%TO.N,/GND_OUT*%
X146726400Y-87442000D03*
X148926400Y-87442000D03*
X146726400Y-88392000D03*
X148926400Y-88392000D03*
%TO.N,/BATT_OUT*%
X159450022Y-109250000D03*
X161300000Y-93900000D03*
X156920000Y-115400000D03*
X160300000Y-109627460D03*
X152645395Y-111955313D03*
X161300000Y-95000000D03*
X158600000Y-108750000D03*
%TO.N,+3.3VP*%
X157600000Y-108200000D03*
X149800000Y-104400000D03*
X157650000Y-111300000D03*
X152400000Y-96850000D03*
X150449671Y-107717641D03*
%TO.N,ENDCAP_EN*%
X149177123Y-110897876D03*
%TD*%
D13*
%TO.N,+15V*%
X155800000Y-88350014D02*
X153754999Y-90395015D01*
X155800000Y-87400000D02*
X155800000Y-88350014D01*
X148884025Y-98441373D02*
X147119947Y-98441373D01*
X153754999Y-93570399D02*
X148884025Y-98441373D01*
X153754999Y-90395015D02*
X153754999Y-93570399D01*
%TO.N,/BATT_OUT*%
X159450022Y-109250000D02*
X159450022Y-110923832D01*
X153614501Y-112094501D02*
X156920000Y-115400000D01*
D14*
X161643015Y-109374985D02*
X163750033Y-107267967D01*
D13*
X159450022Y-109250000D02*
X159827482Y-109627460D01*
D14*
X159750009Y-109374985D02*
X161643015Y-109374985D01*
D13*
X159827482Y-109627460D02*
X160300000Y-109627460D01*
X159450022Y-110923832D02*
X156920000Y-113453854D01*
D14*
X159656993Y-109468001D02*
X159750009Y-109374985D01*
X161300000Y-104488998D02*
X161300000Y-93900000D01*
D13*
X152645395Y-111955313D02*
X152784583Y-112094501D01*
D14*
X163750033Y-106939031D02*
X161300000Y-104488998D01*
X163750033Y-107267967D02*
X163750033Y-106939031D01*
D13*
X156920000Y-113453854D02*
X156920000Y-115400000D01*
X152784583Y-112094501D02*
X153614501Y-112094501D01*
D15*
%TO.N,+3.3VP*%
X150449671Y-107717641D02*
X150632030Y-107900000D01*
X157300000Y-107900000D02*
X157600000Y-108200000D01*
X150632030Y-107900000D02*
X157300000Y-107900000D01*
%TD*%
%TA.AperFunction,Conductor*%
%TO.N,+BATT*%
G36*
X141184638Y-91331927D02*
G01*
X141234842Y-91382127D01*
X141245375Y-91407786D01*
X141265099Y-91476571D01*
X141268544Y-91488586D01*
X141271359Y-91494063D01*
X141271360Y-91494066D01*
X141349816Y-91646725D01*
X141362712Y-91671818D01*
X141490677Y-91833270D01*
X141495370Y-91837264D01*
X141495371Y-91837265D01*
X141637235Y-91958000D01*
X141647564Y-91966791D01*
X141827398Y-92067297D01*
X141918223Y-92096808D01*
X142017471Y-92129056D01*
X142017475Y-92129057D01*
X142023329Y-92130959D01*
X142227894Y-92155351D01*
X142234029Y-92154879D01*
X142234031Y-92154879D01*
X142290039Y-92150569D01*
X142433300Y-92139546D01*
X142439230Y-92137890D01*
X142439232Y-92137890D01*
X142625797Y-92085800D01*
X142625796Y-92085800D01*
X142631725Y-92084145D01*
X142637214Y-92081372D01*
X142637220Y-92081370D01*
X142781364Y-92008557D01*
X142815610Y-91991258D01*
X142977951Y-91864424D01*
X143055224Y-91774902D01*
X143095138Y-91728661D01*
X143154791Y-91690163D01*
X143225787Y-91690027D01*
X143285587Y-91728297D01*
X143315203Y-91792821D01*
X143315442Y-91827437D01*
X143301172Y-91935833D01*
X143319777Y-92104357D01*
X143378044Y-92263578D01*
X143382280Y-92269881D01*
X143382280Y-92269882D01*
X143397395Y-92292375D01*
X143472608Y-92404305D01*
X143478220Y-92409412D01*
X143478223Y-92409415D01*
X143592390Y-92513299D01*
X143592394Y-92513302D01*
X143598011Y-92518413D01*
X143604684Y-92522036D01*
X143604688Y-92522039D01*
X143740336Y-92595689D01*
X143740338Y-92595690D01*
X143747013Y-92599314D01*
X143754362Y-92601242D01*
X143903661Y-92640410D01*
X143903663Y-92640410D01*
X143911011Y-92642338D01*
X143961909Y-92643138D01*
X144000749Y-92643748D01*
X144068547Y-92664817D01*
X144114191Y-92719197D01*
X144120222Y-92736191D01*
X145248660Y-96823125D01*
X145357531Y-97217430D01*
X145356381Y-97288417D01*
X145321374Y-97340997D01*
X145363992Y-97354554D01*
X145409273Y-97409236D01*
X145414970Y-97425460D01*
X146761188Y-102301140D01*
X146784851Y-102386843D01*
X146783701Y-102457830D01*
X146780789Y-102466147D01*
X146725676Y-102607504D01*
X146724684Y-102615037D01*
X146724684Y-102615038D01*
X146717797Y-102667356D01*
X146703546Y-102775602D01*
X146722151Y-102944126D01*
X146780418Y-103103347D01*
X146874982Y-103244074D01*
X146880594Y-103249181D01*
X146880597Y-103249184D01*
X146994764Y-103353068D01*
X146994768Y-103353071D01*
X147000385Y-103358182D01*
X147007063Y-103361808D01*
X147007066Y-103361810D01*
X147015258Y-103366258D01*
X147065579Y-103416341D01*
X147076590Y-103443453D01*
X147165170Y-103764268D01*
X147164020Y-103835253D01*
X147138242Y-103881111D01*
X147114903Y-103907591D01*
X146899658Y-104151811D01*
X146839611Y-104189691D01*
X146805132Y-104194500D01*
X144508258Y-104194500D01*
X144507291Y-104194532D01*
X144507269Y-104194532D01*
X144489273Y-104195121D01*
X144489251Y-104195122D01*
X144488276Y-104195154D01*
X144471830Y-104196232D01*
X144465414Y-104196864D01*
X144452987Y-104198088D01*
X144452960Y-104198091D01*
X144451936Y-104198192D01*
X144347161Y-104211986D01*
X144345134Y-104212389D01*
X144345129Y-104212390D01*
X144310009Y-104219375D01*
X144309996Y-104219378D01*
X144307970Y-104219781D01*
X144305971Y-104220317D01*
X144305965Y-104220318D01*
X144296056Y-104222973D01*
X144276198Y-104228294D01*
X144274244Y-104228957D01*
X144274245Y-104228957D01*
X144240324Y-104240471D01*
X144240307Y-104240477D01*
X144238355Y-104241140D01*
X144236446Y-104241931D01*
X144236440Y-104241933D01*
X144150330Y-104277601D01*
X144148416Y-104278394D01*
X144112572Y-104296071D01*
X144084086Y-104312518D01*
X144082368Y-104313666D01*
X144082347Y-104313679D01*
X144069484Y-104322274D01*
X144001732Y-104343489D01*
X143933265Y-104324706D01*
X143885822Y-104271888D01*
X143881617Y-104262047D01*
X143847124Y-104170764D01*
X143844440Y-104163661D01*
X143748407Y-104023933D01*
X143736609Y-104013421D01*
X143627487Y-103916196D01*
X143627483Y-103916194D01*
X143621816Y-103911144D01*
X143471976Y-103831808D01*
X143307536Y-103790503D01*
X143299938Y-103790463D01*
X143299936Y-103790463D01*
X143222763Y-103790059D01*
X143137990Y-103789615D01*
X143130603Y-103791389D01*
X143130599Y-103791389D01*
X142987257Y-103825804D01*
X142973127Y-103829196D01*
X142966383Y-103832677D01*
X142966380Y-103832678D01*
X142829212Y-103903476D01*
X142822464Y-103906959D01*
X142694699Y-104018415D01*
X142661316Y-104065914D01*
X142630284Y-104110069D01*
X142597208Y-104157131D01*
X142535619Y-104315097D01*
X142534627Y-104322630D01*
X142534627Y-104322631D01*
X142515159Y-104470512D01*
X142513489Y-104483195D01*
X142532094Y-104651719D01*
X142534704Y-104658850D01*
X142584119Y-104793882D01*
X142590361Y-104810940D01*
X142684925Y-104951667D01*
X142690537Y-104956774D01*
X142690540Y-104956777D01*
X142804707Y-105060661D01*
X142804711Y-105060664D01*
X142810328Y-105065775D01*
X142817001Y-105069398D01*
X142817005Y-105069401D01*
X142952653Y-105143051D01*
X142952655Y-105143052D01*
X142959330Y-105146676D01*
X142966679Y-105148604D01*
X143115978Y-105187772D01*
X143115980Y-105187772D01*
X143123328Y-105189700D01*
X143209704Y-105191057D01*
X143285256Y-105192244D01*
X143285259Y-105192244D01*
X143292855Y-105192363D01*
X143300260Y-105190667D01*
X143300261Y-105190667D01*
X143360681Y-105176829D01*
X143458124Y-105154512D01*
X143464907Y-105151100D01*
X143464911Y-105151099D01*
X143511887Y-105127473D01*
X143581731Y-105114735D01*
X143647375Y-105141779D01*
X143687976Y-105200021D01*
X143694500Y-105240038D01*
X143694500Y-106491742D01*
X143695154Y-106511724D01*
X143696232Y-106528170D01*
X143698192Y-106548064D01*
X143711986Y-106652839D01*
X143712389Y-106654866D01*
X143712390Y-106654871D01*
X143714767Y-106666819D01*
X143719781Y-106692030D01*
X143728294Y-106723802D01*
X143728957Y-106725755D01*
X143740471Y-106759676D01*
X143740477Y-106759693D01*
X143741140Y-106761645D01*
X143741931Y-106763554D01*
X143741933Y-106763560D01*
X143775193Y-106843857D01*
X143778394Y-106851584D01*
X143796071Y-106887428D01*
X143812518Y-106915914D01*
X143813662Y-106917626D01*
X143813670Y-106917639D01*
X143833568Y-106947418D01*
X143834717Y-106949137D01*
X143893980Y-107026370D01*
X143920328Y-107056414D01*
X143943586Y-107079672D01*
X143973630Y-107106020D01*
X144050863Y-107165283D01*
X144052574Y-107166426D01*
X144052582Y-107166432D01*
X144082361Y-107186330D01*
X144082374Y-107186338D01*
X144084086Y-107187482D01*
X144085881Y-107188518D01*
X144085882Y-107188519D01*
X144110785Y-107202897D01*
X144112572Y-107203929D01*
X144148416Y-107221606D01*
X144150325Y-107222397D01*
X144150330Y-107222399D01*
X144236440Y-107258067D01*
X144236446Y-107258069D01*
X144238355Y-107258860D01*
X144240307Y-107259523D01*
X144240324Y-107259529D01*
X144271965Y-107270269D01*
X144276198Y-107271706D01*
X144296056Y-107277027D01*
X144305965Y-107279682D01*
X144305971Y-107279683D01*
X144307970Y-107280219D01*
X144309996Y-107280622D01*
X144310009Y-107280625D01*
X144345129Y-107287610D01*
X144345134Y-107287611D01*
X144347161Y-107288014D01*
X144451936Y-107301808D01*
X144452960Y-107301909D01*
X144452987Y-107301912D01*
X144465414Y-107303136D01*
X144471830Y-107303768D01*
X144488276Y-107304846D01*
X144489251Y-107304878D01*
X144489273Y-107304879D01*
X144507269Y-107305468D01*
X144507291Y-107305468D01*
X144508258Y-107305500D01*
X144547048Y-107305500D01*
X144615169Y-107325502D01*
X144661662Y-107379158D01*
X144671766Y-107449432D01*
X144641793Y-107513441D01*
X144640846Y-107514267D01*
X144607976Y-107561036D01*
X144571068Y-107613552D01*
X144543355Y-107652983D01*
X144481766Y-107810949D01*
X144480774Y-107818482D01*
X144480774Y-107818483D01*
X144463514Y-107949593D01*
X144459636Y-107979047D01*
X144478241Y-108147571D01*
X144536508Y-108306792D01*
X144631072Y-108447519D01*
X144636684Y-108452626D01*
X144636687Y-108452629D01*
X144750854Y-108556513D01*
X144750858Y-108556516D01*
X144756475Y-108561627D01*
X144763148Y-108565250D01*
X144763152Y-108565253D01*
X144898800Y-108638903D01*
X144898802Y-108638904D01*
X144905477Y-108642528D01*
X145050029Y-108680450D01*
X145110844Y-108717084D01*
X145142199Y-108780781D01*
X145140467Y-108824378D01*
X145141503Y-108824514D01*
X145131682Y-108899116D01*
X145119373Y-108992612D01*
X145137978Y-109161136D01*
X145145820Y-109182564D01*
X145182587Y-109283034D01*
X145196245Y-109320357D01*
X145200481Y-109326660D01*
X145200481Y-109326661D01*
X145213553Y-109346114D01*
X145290809Y-109461084D01*
X145296421Y-109466191D01*
X145296424Y-109466194D01*
X145410591Y-109570078D01*
X145410595Y-109570081D01*
X145416212Y-109575192D01*
X145422885Y-109578815D01*
X145422889Y-109578818D01*
X145558537Y-109652468D01*
X145558539Y-109652469D01*
X145565214Y-109656093D01*
X145572563Y-109658021D01*
X145721862Y-109697189D01*
X145721864Y-109697189D01*
X145729212Y-109699117D01*
X145815588Y-109700474D01*
X145891140Y-109701661D01*
X145891143Y-109701661D01*
X145898739Y-109701780D01*
X145906144Y-109700084D01*
X145906145Y-109700084D01*
X145971656Y-109685080D01*
X146064008Y-109663929D01*
X146215477Y-109587748D01*
X146344402Y-109477635D01*
X146443340Y-109339948D01*
X146452816Y-109316375D01*
X146503745Y-109189688D01*
X146503746Y-109189686D01*
X146506580Y-109182635D01*
X146516010Y-109116375D01*
X146529888Y-109018863D01*
X146529888Y-109018860D01*
X146530469Y-109014779D01*
X146530624Y-109000001D01*
X146528819Y-108985081D01*
X146518738Y-108901779D01*
X146510255Y-108831681D01*
X146450324Y-108673078D01*
X146430653Y-108644456D01*
X146358593Y-108539609D01*
X146358592Y-108539608D01*
X146354291Y-108533350D01*
X146348620Y-108528297D01*
X146233371Y-108425613D01*
X146233367Y-108425611D01*
X146227700Y-108420561D01*
X146220741Y-108416876D01*
X146154057Y-108381569D01*
X146077860Y-108341225D01*
X145977009Y-108315893D01*
X145941193Y-108306896D01*
X145879998Y-108270901D01*
X145847977Y-108207535D01*
X145847146Y-108166939D01*
X145849903Y-108147571D01*
X145870732Y-108001214D01*
X145870887Y-107986436D01*
X145869082Y-107971516D01*
X145857169Y-107873077D01*
X145850518Y-107818116D01*
X145790587Y-107659513D01*
X145694554Y-107519785D01*
X145688948Y-107514790D01*
X145658920Y-107450499D01*
X145668421Y-107380141D01*
X145714453Y-107326089D01*
X145783479Y-107305500D01*
X147784635Y-107305500D01*
X147785602Y-107305468D01*
X147785624Y-107305468D01*
X147803620Y-107304879D01*
X147803642Y-107304878D01*
X147804617Y-107304846D01*
X147821063Y-107303768D01*
X147827479Y-107303136D01*
X147839906Y-107301912D01*
X147839933Y-107301909D01*
X147840957Y-107301808D01*
X147945732Y-107288014D01*
X147947759Y-107287611D01*
X147947764Y-107287610D01*
X147982884Y-107280625D01*
X147982897Y-107280622D01*
X147984923Y-107280219D01*
X147986922Y-107279683D01*
X147986928Y-107279682D01*
X147996837Y-107277027D01*
X148016695Y-107271706D01*
X148020928Y-107270269D01*
X148052569Y-107259529D01*
X148052586Y-107259523D01*
X148054538Y-107258860D01*
X148056447Y-107258069D01*
X148056453Y-107258067D01*
X148084578Y-107246417D01*
X148144479Y-107221605D01*
X148146319Y-107220698D01*
X148146327Y-107220694D01*
X148178465Y-107204845D01*
X148178471Y-107204842D01*
X148180314Y-107203933D01*
X148208797Y-107187489D01*
X148210532Y-107186330D01*
X148210534Y-107186329D01*
X148240294Y-107166445D01*
X148240297Y-107166443D01*
X148242030Y-107165285D01*
X148253305Y-107156633D01*
X148270464Y-107150000D01*
X148739031Y-107150000D01*
X148807152Y-107170002D01*
X148853645Y-107223658D01*
X148864270Y-107262174D01*
X148880474Y-107408949D01*
X148938741Y-107568170D01*
X149033305Y-107708897D01*
X149038917Y-107714004D01*
X149038920Y-107714007D01*
X149153087Y-107817891D01*
X149153091Y-107817894D01*
X149158708Y-107823005D01*
X149165381Y-107826628D01*
X149165385Y-107826631D01*
X149301033Y-107900281D01*
X149301035Y-107900282D01*
X149307710Y-107903906D01*
X149315059Y-107905834D01*
X149464358Y-107945002D01*
X149464360Y-107945002D01*
X149471708Y-107946930D01*
X149558084Y-107948287D01*
X149633636Y-107949474D01*
X149633639Y-107949474D01*
X149641235Y-107949593D01*
X149668913Y-107943254D01*
X149739780Y-107947545D01*
X149797077Y-107989468D01*
X149815365Y-108022773D01*
X149818324Y-108030858D01*
X149820937Y-108037997D01*
X149915501Y-108178724D01*
X149921113Y-108183831D01*
X149921116Y-108183834D01*
X150035283Y-108287718D01*
X150035287Y-108287721D01*
X150040904Y-108292832D01*
X150047577Y-108296455D01*
X150047581Y-108296458D01*
X150183229Y-108370108D01*
X150183231Y-108370109D01*
X150189906Y-108373733D01*
X150197255Y-108375661D01*
X150346554Y-108414829D01*
X150346556Y-108414829D01*
X150353904Y-108416757D01*
X150440280Y-108418114D01*
X150515832Y-108419301D01*
X150515835Y-108419301D01*
X150523431Y-108419420D01*
X150530836Y-108417724D01*
X150530837Y-108417724D01*
X150611901Y-108399158D01*
X150688700Y-108381569D01*
X150773469Y-108338935D01*
X150830082Y-108325500D01*
X151309753Y-108325500D01*
X151377874Y-108345502D01*
X151424367Y-108399158D01*
X151434471Y-108469432D01*
X151427147Y-108497266D01*
X151416524Y-108524513D01*
X151415532Y-108532046D01*
X151415532Y-108532047D01*
X151396366Y-108677634D01*
X151394394Y-108692611D01*
X151412999Y-108861135D01*
X151415609Y-108868267D01*
X151452436Y-108968902D01*
X151457062Y-109039748D01*
X151422652Y-109101848D01*
X151407703Y-109114138D01*
X151403369Y-109116375D01*
X151397648Y-109121365D01*
X151397646Y-109121367D01*
X151360712Y-109153587D01*
X151275604Y-109227831D01*
X151271237Y-109234045D01*
X151192474Y-109346114D01*
X151178113Y-109366547D01*
X151116524Y-109524513D01*
X151115532Y-109532046D01*
X151115532Y-109532047D01*
X151097947Y-109665624D01*
X151094394Y-109692611D01*
X151112999Y-109861135D01*
X151171266Y-110020356D01*
X151175502Y-110026659D01*
X151175502Y-110026660D01*
X151188574Y-110046113D01*
X151265830Y-110161083D01*
X151271442Y-110166190D01*
X151271445Y-110166193D01*
X151385612Y-110270077D01*
X151385616Y-110270080D01*
X151391233Y-110275191D01*
X151397906Y-110278814D01*
X151397910Y-110278817D01*
X151533558Y-110352467D01*
X151533560Y-110352468D01*
X151540235Y-110356092D01*
X151547584Y-110358020D01*
X151696883Y-110397188D01*
X151696885Y-110397188D01*
X151704233Y-110399116D01*
X151790609Y-110400473D01*
X151866161Y-110401660D01*
X151866164Y-110401660D01*
X151873760Y-110401779D01*
X151881165Y-110400083D01*
X151881166Y-110400083D01*
X151979184Y-110377634D01*
X152039029Y-110363928D01*
X152190498Y-110287747D01*
X152289501Y-110203190D01*
X152313651Y-110182564D01*
X152313652Y-110182563D01*
X152319423Y-110177634D01*
X152418361Y-110039947D01*
X152426237Y-110020356D01*
X152478766Y-109889687D01*
X152478767Y-109889685D01*
X152481601Y-109882634D01*
X152505490Y-109714778D01*
X152505645Y-109700000D01*
X152503840Y-109685080D01*
X152490980Y-109578818D01*
X152485276Y-109531680D01*
X152447806Y-109432518D01*
X152442438Y-109361726D01*
X152476196Y-109299268D01*
X152489758Y-109288119D01*
X152490498Y-109287747D01*
X152560650Y-109227831D01*
X152613651Y-109182564D01*
X152613652Y-109182563D01*
X152619423Y-109177634D01*
X152718361Y-109039947D01*
X152773905Y-108901779D01*
X152778766Y-108889687D01*
X152778767Y-108889685D01*
X152781601Y-108882634D01*
X152796892Y-108775191D01*
X152804909Y-108718862D01*
X152804909Y-108718859D01*
X152805490Y-108714778D01*
X152805645Y-108700000D01*
X152803840Y-108685080D01*
X152797456Y-108632334D01*
X152785276Y-108531680D01*
X152771808Y-108496038D01*
X152766440Y-108425244D01*
X152800198Y-108362787D01*
X152862364Y-108328495D01*
X152889674Y-108325500D01*
X156811896Y-108325500D01*
X156880017Y-108345502D01*
X156926510Y-108399158D01*
X156930222Y-108408199D01*
X156971266Y-108520356D01*
X157052406Y-108641107D01*
X157073808Y-108709456D01*
X157094499Y-110064667D01*
X157105939Y-110814018D01*
X157083041Y-110888391D01*
X157032484Y-110960326D01*
X157032480Y-110960333D01*
X157028113Y-110966547D01*
X156966524Y-111124513D01*
X156965532Y-111132046D01*
X156965532Y-111132047D01*
X156947598Y-111268277D01*
X156944394Y-111292611D01*
X156962999Y-111461135D01*
X156984255Y-111519218D01*
X157017798Y-111610878D01*
X157021266Y-111620356D01*
X157096998Y-111733057D01*
X157099672Y-111737037D01*
X157121075Y-111805390D01*
X157129362Y-112348200D01*
X157110402Y-112416618D01*
X157092472Y-112439218D01*
X156532366Y-112999324D01*
X156519976Y-113010191D01*
X156495284Y-113029138D01*
X156471316Y-113060374D01*
X156399831Y-113153534D01*
X156339827Y-113298397D01*
X156319361Y-113453854D01*
X156320439Y-113462042D01*
X156323422Y-113484701D01*
X156324500Y-113501147D01*
X156324500Y-113588852D01*
X156304498Y-113656973D01*
X156250842Y-113703466D01*
X156200469Y-113714837D01*
X156132240Y-113715903D01*
X156063815Y-113696967D01*
X156041177Y-113679013D01*
X154069027Y-111706863D01*
X154058159Y-111694471D01*
X154044243Y-111676335D01*
X154039217Y-111669785D01*
X153982836Y-111626522D01*
X153940971Y-111569187D01*
X153936749Y-111498316D01*
X153942635Y-111479566D01*
X153978765Y-111389691D01*
X153978767Y-111389684D01*
X153981601Y-111382634D01*
X154005490Y-111214778D01*
X154005645Y-111200000D01*
X154004366Y-111189426D01*
X153991755Y-111085222D01*
X153985276Y-111031680D01*
X153925345Y-110873077D01*
X153859155Y-110776770D01*
X153833614Y-110739608D01*
X153833613Y-110739607D01*
X153829312Y-110733349D01*
X153725914Y-110641224D01*
X153708392Y-110625612D01*
X153708388Y-110625610D01*
X153702721Y-110620560D01*
X153552881Y-110541224D01*
X153388441Y-110499919D01*
X153380843Y-110499879D01*
X153380841Y-110499879D01*
X153303668Y-110499475D01*
X153218895Y-110499031D01*
X153211508Y-110500805D01*
X153211504Y-110500805D01*
X153094143Y-110528982D01*
X153054032Y-110538612D01*
X153047288Y-110542093D01*
X153047285Y-110542094D01*
X152935252Y-110599919D01*
X152903369Y-110616375D01*
X152897647Y-110621367D01*
X152897645Y-110621368D01*
X152892780Y-110625612D01*
X152775604Y-110727831D01*
X152767327Y-110739608D01*
X152685015Y-110856727D01*
X152678113Y-110866547D01*
X152616524Y-111024513D01*
X152615532Y-111032046D01*
X152615532Y-111032047D01*
X152598287Y-111163040D01*
X152569565Y-111227967D01*
X152510300Y-111267059D01*
X152502815Y-111269103D01*
X152399427Y-111293925D01*
X152392683Y-111297406D01*
X152392680Y-111297407D01*
X152305272Y-111342522D01*
X152248764Y-111371688D01*
X152243040Y-111376681D01*
X152236759Y-111380950D01*
X152235723Y-111379425D01*
X152180080Y-111405058D01*
X152109774Y-111395185D01*
X152057898Y-111351767D01*
X152008611Y-111280054D01*
X152008610Y-111280053D01*
X152004309Y-111273795D01*
X151996749Y-111267059D01*
X151883389Y-111166058D01*
X151883385Y-111166056D01*
X151877718Y-111161006D01*
X151853300Y-111148077D01*
X151808049Y-111124118D01*
X151727878Y-111081670D01*
X151563438Y-111040365D01*
X151555840Y-111040325D01*
X151555838Y-111040325D01*
X151478665Y-111039921D01*
X151393892Y-111039477D01*
X151386505Y-111041251D01*
X151386501Y-111041251D01*
X151254328Y-111072984D01*
X151229029Y-111079058D01*
X151222285Y-111082539D01*
X151222282Y-111082540D01*
X151085114Y-111153338D01*
X151078366Y-111156821D01*
X151072644Y-111161813D01*
X151072642Y-111161814D01*
X150965319Y-111255438D01*
X150950601Y-111268277D01*
X150949294Y-111266779D01*
X150897570Y-111298644D01*
X150865111Y-111303092D01*
X149954306Y-111308356D01*
X149886073Y-111288749D01*
X149839271Y-111235363D01*
X149828761Y-111165149D01*
X149836671Y-111135367D01*
X149858724Y-111080510D01*
X149870544Y-110997454D01*
X149882032Y-110916738D01*
X149882032Y-110916735D01*
X149882613Y-110912654D01*
X149882768Y-110897876D01*
X149880963Y-110882956D01*
X149874437Y-110829031D01*
X149862399Y-110729556D01*
X149802468Y-110570953D01*
X149754256Y-110500805D01*
X149710737Y-110437484D01*
X149710736Y-110437483D01*
X149706435Y-110431225D01*
X149694637Y-110420713D01*
X149585515Y-110323488D01*
X149585511Y-110323486D01*
X149579844Y-110318436D01*
X149430004Y-110239100D01*
X149265564Y-110197795D01*
X149257966Y-110197755D01*
X149257964Y-110197755D01*
X149180791Y-110197351D01*
X149096018Y-110196907D01*
X149088631Y-110198681D01*
X149088627Y-110198681D01*
X148945285Y-110233096D01*
X148931155Y-110236488D01*
X148924411Y-110239969D01*
X148924408Y-110239970D01*
X148825232Y-110291159D01*
X148780492Y-110314251D01*
X148774770Y-110319243D01*
X148774768Y-110319244D01*
X148730318Y-110358020D01*
X148652727Y-110425707D01*
X148648360Y-110431921D01*
X148561695Y-110555233D01*
X148555236Y-110564423D01*
X148493647Y-110722389D01*
X148492655Y-110729922D01*
X148492655Y-110729923D01*
X148472571Y-110882484D01*
X148471517Y-110890487D01*
X148490122Y-111059011D01*
X148514893Y-111126701D01*
X148522692Y-111148012D01*
X148527318Y-111218857D01*
X148492909Y-111280958D01*
X148430387Y-111314597D01*
X148405094Y-111317311D01*
X147453576Y-111322812D01*
X146481306Y-111328432D01*
X146413073Y-111308824D01*
X146366271Y-111255438D01*
X146362714Y-111246972D01*
X146359381Y-111238150D01*
X146325345Y-111148077D01*
X146320857Y-111141547D01*
X146233614Y-111014608D01*
X146233613Y-111014607D01*
X146229312Y-111008349D01*
X146217084Y-110997454D01*
X146108392Y-110900612D01*
X146108388Y-110900610D01*
X146102721Y-110895560D01*
X145952881Y-110816224D01*
X145788441Y-110774919D01*
X145780843Y-110774879D01*
X145780841Y-110774879D01*
X145703668Y-110774475D01*
X145618895Y-110774031D01*
X145611508Y-110775805D01*
X145611504Y-110775805D01*
X145468162Y-110810220D01*
X145454032Y-110813612D01*
X145447288Y-110817093D01*
X145447285Y-110817094D01*
X145310117Y-110887892D01*
X145303369Y-110891375D01*
X145297647Y-110896367D01*
X145297645Y-110896368D01*
X145240321Y-110946375D01*
X145175604Y-111002831D01*
X145149849Y-111039477D01*
X145084790Y-111132047D01*
X145078113Y-111141547D01*
X145041487Y-111235487D01*
X145033002Y-111257250D01*
X144989621Y-111313452D01*
X144916338Y-111337478D01*
X143080583Y-111348089D01*
X143062639Y-111346909D01*
X143030840Y-111342522D01*
X142948461Y-111331156D01*
X142913975Y-111321240D01*
X142887078Y-111309136D01*
X142833166Y-111262940D01*
X142812787Y-111194931D01*
X142832412Y-111126701D01*
X142856954Y-111098423D01*
X142950022Y-111018935D01*
X142950023Y-111018934D01*
X142955794Y-111014005D01*
X143054732Y-110876318D01*
X143072006Y-110833349D01*
X143115137Y-110726058D01*
X143115138Y-110726056D01*
X143117972Y-110719005D01*
X143133074Y-110612892D01*
X143141280Y-110555233D01*
X143141280Y-110555230D01*
X143141861Y-110551149D01*
X143142016Y-110536371D01*
X143121647Y-110368051D01*
X143061716Y-110209448D01*
X143035614Y-110171470D01*
X142969985Y-110075979D01*
X142969984Y-110075978D01*
X142965683Y-110069720D01*
X142959490Y-110064202D01*
X142844763Y-109961983D01*
X142844759Y-109961981D01*
X142839092Y-109956931D01*
X142689252Y-109877595D01*
X142524812Y-109836290D01*
X142517214Y-109836250D01*
X142517212Y-109836250D01*
X142440039Y-109835846D01*
X142355266Y-109835402D01*
X142347879Y-109837176D01*
X142347875Y-109837176D01*
X142279526Y-109853586D01*
X142192890Y-109874386D01*
X142192888Y-109874386D01*
X142190403Y-109874983D01*
X142190304Y-109874569D01*
X142124213Y-109879233D01*
X142061933Y-109845150D01*
X142036767Y-109809064D01*
X141449011Y-108539220D01*
X141033896Y-107642367D01*
X138749119Y-102706122D01*
X138744065Y-102693443D01*
X138725898Y-102639548D01*
X138723093Y-102568607D01*
X138763466Y-102503490D01*
X138825153Y-102450804D01*
X138825154Y-102450803D01*
X138830925Y-102445874D01*
X138929863Y-102308187D01*
X138973609Y-102199366D01*
X138990268Y-102157927D01*
X138990269Y-102157925D01*
X138993103Y-102150874D01*
X138999777Y-102103980D01*
X139029178Y-102039357D01*
X139088849Y-102000889D01*
X139159846Y-102000787D01*
X139215427Y-102036526D01*
X139215830Y-102036083D01*
X139221448Y-102041195D01*
X139335612Y-102145077D01*
X139335616Y-102145080D01*
X139341233Y-102150191D01*
X139347906Y-102153814D01*
X139347910Y-102153817D01*
X139483558Y-102227467D01*
X139483560Y-102227468D01*
X139490235Y-102231092D01*
X139497584Y-102233020D01*
X139646883Y-102272188D01*
X139646885Y-102272188D01*
X139654233Y-102274116D01*
X139740609Y-102275473D01*
X139816161Y-102276660D01*
X139816164Y-102276660D01*
X139823760Y-102276779D01*
X139831165Y-102275083D01*
X139831166Y-102275083D01*
X139924172Y-102253782D01*
X139989029Y-102238928D01*
X140140498Y-102162747D01*
X140269423Y-102052634D01*
X140368361Y-101914947D01*
X140431601Y-101757634D01*
X140448155Y-101641317D01*
X140454909Y-101593862D01*
X140454909Y-101593859D01*
X140455490Y-101589778D01*
X140455645Y-101575000D01*
X140446832Y-101502169D01*
X140439009Y-101437530D01*
X140435276Y-101406680D01*
X140434768Y-101405334D01*
X140437826Y-101337033D01*
X140478843Y-101279084D01*
X140544678Y-101252509D01*
X140614430Y-101265747D01*
X140641812Y-101284710D01*
X140649986Y-101292148D01*
X140735628Y-101370077D01*
X140735632Y-101370080D01*
X140741249Y-101375191D01*
X140747922Y-101378814D01*
X140747926Y-101378817D01*
X140883574Y-101452467D01*
X140883576Y-101452468D01*
X140890251Y-101456092D01*
X140897600Y-101458020D01*
X141046899Y-101497188D01*
X141046901Y-101497188D01*
X141054249Y-101499116D01*
X141140625Y-101500473D01*
X141216177Y-101501660D01*
X141216180Y-101501660D01*
X141223776Y-101501779D01*
X141231181Y-101500083D01*
X141231182Y-101500083D01*
X141294785Y-101485516D01*
X141389045Y-101463928D01*
X141540514Y-101387747D01*
X141647385Y-101296470D01*
X141663667Y-101282564D01*
X141663668Y-101282563D01*
X141669439Y-101277634D01*
X141673868Y-101271471D01*
X141673873Y-101271465D01*
X141764475Y-101145379D01*
X141820469Y-101101731D01*
X141891173Y-101095285D01*
X141954137Y-101128088D01*
X141971379Y-101148630D01*
X142059507Y-101279780D01*
X142059510Y-101279783D01*
X142063743Y-101286083D01*
X142069355Y-101291190D01*
X142069358Y-101291193D01*
X142183525Y-101395077D01*
X142183529Y-101395080D01*
X142189146Y-101400191D01*
X142195819Y-101403814D01*
X142195823Y-101403817D01*
X142331471Y-101477467D01*
X142331473Y-101477468D01*
X142338148Y-101481092D01*
X142345497Y-101483020D01*
X142494796Y-101522188D01*
X142494798Y-101522188D01*
X142502146Y-101524116D01*
X142588522Y-101525473D01*
X142664074Y-101526660D01*
X142664077Y-101526660D01*
X142671673Y-101526779D01*
X142679078Y-101525083D01*
X142679079Y-101525083D01*
X142739499Y-101511245D01*
X142836942Y-101488928D01*
X142988411Y-101412747D01*
X143117336Y-101302634D01*
X143216274Y-101164947D01*
X143221070Y-101153016D01*
X143276679Y-101014687D01*
X143276680Y-101014685D01*
X143279514Y-101007634D01*
X143292533Y-100916158D01*
X143302822Y-100843862D01*
X143302822Y-100843859D01*
X143303403Y-100839778D01*
X143303558Y-100825000D01*
X143299639Y-100792611D01*
X143287445Y-100691850D01*
X143283189Y-100656680D01*
X143223258Y-100498077D01*
X143143916Y-100382634D01*
X143131527Y-100364608D01*
X143131526Y-100364607D01*
X143127225Y-100358349D01*
X143121032Y-100352831D01*
X143006305Y-100250612D01*
X143006301Y-100250610D01*
X143000634Y-100245560D01*
X142850794Y-100166224D01*
X142686354Y-100124919D01*
X142678756Y-100124879D01*
X142678754Y-100124879D01*
X142601581Y-100124475D01*
X142516808Y-100124031D01*
X142509421Y-100125805D01*
X142509417Y-100125805D01*
X142366075Y-100160220D01*
X142351945Y-100163612D01*
X142345201Y-100167093D01*
X142345198Y-100167094D01*
X142248494Y-100217007D01*
X142201282Y-100241375D01*
X142073517Y-100352831D01*
X142069147Y-100359049D01*
X141984829Y-100479021D01*
X141929295Y-100523253D01*
X141858663Y-100530439D01*
X141795358Y-100498298D01*
X141775942Y-100472678D01*
X141775361Y-100473077D01*
X141683630Y-100339608D01*
X141683626Y-100339603D01*
X141679328Y-100333349D01*
X141667530Y-100322837D01*
X141558408Y-100225612D01*
X141558404Y-100225610D01*
X141552737Y-100220560D01*
X141499951Y-100192611D01*
X141450114Y-100166224D01*
X141402897Y-100141224D01*
X141238457Y-100099919D01*
X141230859Y-100099879D01*
X141230857Y-100099879D01*
X141153684Y-100099475D01*
X141068911Y-100099031D01*
X141061524Y-100100805D01*
X141061520Y-100100805D01*
X140953372Y-100126770D01*
X140904048Y-100138612D01*
X140897304Y-100142093D01*
X140897301Y-100142094D01*
X140834491Y-100174513D01*
X140753385Y-100216375D01*
X140747663Y-100221367D01*
X140747661Y-100221368D01*
X140721291Y-100244372D01*
X140625620Y-100327831D01*
X140528129Y-100466547D01*
X140466540Y-100624513D01*
X140465548Y-100632046D01*
X140465548Y-100632047D01*
X140448174Y-100764023D01*
X140444410Y-100792611D01*
X140453399Y-100874031D01*
X140462019Y-100952110D01*
X140463015Y-100961135D01*
X140465389Y-100967622D01*
X140461487Y-101038217D01*
X140419865Y-101095733D01*
X140353755Y-101121617D01*
X140284146Y-101107650D01*
X140258915Y-101090176D01*
X140158392Y-101000612D01*
X140158388Y-101000610D01*
X140152721Y-100995560D01*
X140134921Y-100986135D01*
X140085080Y-100959746D01*
X140002881Y-100916224D01*
X139838441Y-100874919D01*
X139830843Y-100874879D01*
X139830841Y-100874879D01*
X139753668Y-100874475D01*
X139668895Y-100874031D01*
X139661508Y-100875805D01*
X139661504Y-100875805D01*
X139518162Y-100910220D01*
X139504032Y-100913612D01*
X139497288Y-100917093D01*
X139497285Y-100917094D01*
X139370304Y-100982634D01*
X139353369Y-100991375D01*
X139347647Y-100996367D01*
X139347645Y-100996368D01*
X139334731Y-101007634D01*
X139225604Y-101102831D01*
X139128113Y-101241547D01*
X139066524Y-101399513D01*
X139065533Y-101407044D01*
X139065532Y-101407046D01*
X139061519Y-101437530D01*
X139032796Y-101502457D01*
X138973531Y-101541548D01*
X138902540Y-101542393D01*
X138843260Y-101505148D01*
X138840814Y-101501589D01*
X138813587Y-101477330D01*
X138768916Y-101437530D01*
X138742181Y-101413710D01*
X138704625Y-101353460D01*
X138700000Y-101319634D01*
X138700000Y-100489704D01*
X138720002Y-100421583D01*
X138747236Y-100391356D01*
X138780423Y-100364778D01*
X138935448Y-100240622D01*
X139221420Y-99964643D01*
X139223319Y-99962437D01*
X139223325Y-99962431D01*
X139478820Y-99665678D01*
X139480723Y-99663468D01*
X139711147Y-99339664D01*
X139761491Y-99252975D01*
X139909272Y-98998505D01*
X139909275Y-98998498D01*
X139910731Y-98995992D01*
X140077771Y-98635379D01*
X140078747Y-98632634D01*
X140092789Y-98593119D01*
X143769384Y-98593119D01*
X143787989Y-98761643D01*
X143814780Y-98834851D01*
X143843505Y-98913346D01*
X143846256Y-98920864D01*
X143850492Y-98927167D01*
X143850492Y-98927168D01*
X143863564Y-98946621D01*
X143940820Y-99061591D01*
X143946432Y-99066698D01*
X143946435Y-99066701D01*
X144060602Y-99170585D01*
X144060606Y-99170588D01*
X144066223Y-99175699D01*
X144072896Y-99179322D01*
X144072900Y-99179325D01*
X144208548Y-99252975D01*
X144208550Y-99252976D01*
X144215225Y-99256600D01*
X144222574Y-99258528D01*
X144371873Y-99297696D01*
X144371875Y-99297696D01*
X144379223Y-99299624D01*
X144465599Y-99300981D01*
X144541151Y-99302168D01*
X144541154Y-99302168D01*
X144548750Y-99302287D01*
X144556155Y-99300591D01*
X144556156Y-99300591D01*
X144616576Y-99286753D01*
X144714019Y-99264436D01*
X144865488Y-99188255D01*
X144994413Y-99078142D01*
X145093351Y-98940455D01*
X145101227Y-98920864D01*
X145153756Y-98790195D01*
X145153757Y-98790193D01*
X145156591Y-98783142D01*
X145177246Y-98638010D01*
X145179899Y-98619370D01*
X145179899Y-98619367D01*
X145180480Y-98615286D01*
X145180635Y-98600508D01*
X145178830Y-98585588D01*
X145166867Y-98486734D01*
X145160266Y-98432188D01*
X145100335Y-98273585D01*
X145021166Y-98158394D01*
X144999066Y-98090925D01*
X145016951Y-98022218D01*
X145022684Y-98013501D01*
X145088939Y-97921298D01*
X145088942Y-97921292D01*
X145093373Y-97915126D01*
X145103106Y-97890914D01*
X145153778Y-97764866D01*
X145153779Y-97764864D01*
X145156613Y-97757813D01*
X145175441Y-97625518D01*
X145179921Y-97594041D01*
X145179921Y-97594038D01*
X145180502Y-97589957D01*
X145180657Y-97575179D01*
X145179763Y-97567790D01*
X145168430Y-97474138D01*
X145180103Y-97404108D01*
X145211505Y-97369466D01*
X145181884Y-97364716D01*
X145128988Y-97317359D01*
X145118210Y-97295502D01*
X145103042Y-97255361D01*
X145103041Y-97255359D01*
X145100357Y-97248256D01*
X145050687Y-97175986D01*
X145008626Y-97114787D01*
X145008625Y-97114786D01*
X145004324Y-97108528D01*
X144992526Y-97098016D01*
X144883404Y-97000791D01*
X144883400Y-97000789D01*
X144877733Y-96995739D01*
X144727893Y-96916403D01*
X144563453Y-96875098D01*
X144555855Y-96875058D01*
X144555853Y-96875058D01*
X144478680Y-96874654D01*
X144393907Y-96874210D01*
X144386520Y-96875984D01*
X144386516Y-96875984D01*
X144243174Y-96910399D01*
X144229044Y-96913791D01*
X144222300Y-96917272D01*
X144222297Y-96917273D01*
X144217101Y-96919955D01*
X144078381Y-96991554D01*
X144072659Y-96996546D01*
X144072657Y-96996547D01*
X144031290Y-97032634D01*
X143950616Y-97103010D01*
X143853125Y-97241726D01*
X143791536Y-97399692D01*
X143790544Y-97407225D01*
X143790544Y-97407226D01*
X143771514Y-97551779D01*
X143769406Y-97567790D01*
X143788011Y-97736314D01*
X143820766Y-97825821D01*
X143839035Y-97875742D01*
X143846278Y-97895535D01*
X143850514Y-97901838D01*
X143850514Y-97901839D01*
X143928940Y-98018550D01*
X143950332Y-98086248D01*
X143931728Y-98154763D01*
X143927445Y-98161277D01*
X143859413Y-98258077D01*
X143853103Y-98267055D01*
X143791514Y-98425021D01*
X143790522Y-98432554D01*
X143790522Y-98432555D01*
X143772140Y-98572188D01*
X143769384Y-98593119D01*
X140092789Y-98593119D01*
X140209871Y-98263643D01*
X140209872Y-98263641D01*
X140210846Y-98260899D01*
X140308820Y-97875742D01*
X140309639Y-97870560D01*
X140370404Y-97486073D01*
X140370405Y-97486066D01*
X140370859Y-97483192D01*
X140396435Y-97086594D01*
X140396354Y-97083692D01*
X140385411Y-96692243D01*
X140385410Y-96692233D01*
X140385329Y-96689327D01*
X140337636Y-96294777D01*
X140253762Y-95906307D01*
X140134422Y-95527226D01*
X139988355Y-95179164D01*
X139987975Y-95177375D01*
X139986847Y-95175569D01*
X139984420Y-95169786D01*
X139983512Y-95167621D01*
X141444115Y-95167621D01*
X141462720Y-95336145D01*
X141480905Y-95385837D01*
X141512141Y-95471192D01*
X141520987Y-95495366D01*
X141525223Y-95501669D01*
X141525223Y-95501670D01*
X141537779Y-95520356D01*
X141615551Y-95636093D01*
X141621163Y-95641200D01*
X141621166Y-95641203D01*
X141735333Y-95745087D01*
X141735337Y-95745090D01*
X141740954Y-95750201D01*
X141747627Y-95753824D01*
X141747631Y-95753827D01*
X141883279Y-95827477D01*
X141883281Y-95827478D01*
X141889956Y-95831102D01*
X141897305Y-95833030D01*
X142046604Y-95872198D01*
X142046606Y-95872198D01*
X142053954Y-95874126D01*
X142140330Y-95875483D01*
X142215882Y-95876670D01*
X142215885Y-95876670D01*
X142223481Y-95876789D01*
X142230886Y-95875093D01*
X142230887Y-95875093D01*
X142313850Y-95856092D01*
X142388750Y-95838938D01*
X142540219Y-95762757D01*
X142669144Y-95652644D01*
X142768082Y-95514957D01*
X142775958Y-95495366D01*
X142828487Y-95364697D01*
X142828488Y-95364695D01*
X142831322Y-95357644D01*
X142855211Y-95189788D01*
X142855301Y-95181198D01*
X142855323Y-95179145D01*
X142855323Y-95179139D01*
X142855366Y-95175010D01*
X142853561Y-95160090D01*
X142849687Y-95128081D01*
X142834997Y-95006690D01*
X142775066Y-94848087D01*
X142743733Y-94802498D01*
X142683335Y-94714618D01*
X142683334Y-94714617D01*
X142679033Y-94708359D01*
X142638510Y-94672254D01*
X142558113Y-94600622D01*
X142558109Y-94600620D01*
X142552442Y-94595570D01*
X142402602Y-94516234D01*
X142238162Y-94474929D01*
X142230564Y-94474889D01*
X142230562Y-94474889D01*
X142153389Y-94474485D01*
X142068616Y-94474041D01*
X142061229Y-94475815D01*
X142061225Y-94475815D01*
X141917883Y-94510230D01*
X141903753Y-94513622D01*
X141897009Y-94517103D01*
X141897006Y-94517104D01*
X141759838Y-94587902D01*
X141753090Y-94591385D01*
X141747368Y-94596377D01*
X141747366Y-94596378D01*
X141722578Y-94618002D01*
X141625325Y-94702841D01*
X141596226Y-94744245D01*
X141536857Y-94828719D01*
X141527834Y-94841557D01*
X141466245Y-94999523D01*
X141465253Y-95007056D01*
X141465253Y-95007057D01*
X141460075Y-95046393D01*
X141444115Y-95167621D01*
X139983512Y-95167621D01*
X139983407Y-95167371D01*
X139983406Y-95167370D01*
X139980759Y-95161063D01*
X139980672Y-95160747D01*
X139976290Y-95154584D01*
X139936072Y-95066488D01*
X139857376Y-94894107D01*
X139857372Y-94894099D01*
X139856216Y-94891567D01*
X139854537Y-94888612D01*
X139702115Y-94620435D01*
X139702113Y-94620432D01*
X139700732Y-94618002D01*
X139521660Y-94359263D01*
X139482649Y-94312376D01*
X139322195Y-94119529D01*
X139322189Y-94119523D01*
X139320404Y-94117377D01*
X139318434Y-94115396D01*
X139318427Y-94115388D01*
X139206151Y-94002467D01*
X139098542Y-93894240D01*
X139084755Y-93882634D01*
X138921973Y-93745610D01*
X138882739Y-93686439D01*
X138881724Y-93615449D01*
X138894788Y-93584863D01*
X139038698Y-93342611D01*
X141294394Y-93342611D01*
X141312999Y-93511135D01*
X141336669Y-93575815D01*
X141366868Y-93658337D01*
X141371266Y-93670356D01*
X141375502Y-93676659D01*
X141375502Y-93676660D01*
X141385543Y-93691602D01*
X141465830Y-93811083D01*
X141471442Y-93816190D01*
X141471445Y-93816193D01*
X141585612Y-93920077D01*
X141585616Y-93920080D01*
X141591233Y-93925191D01*
X141597906Y-93928814D01*
X141597910Y-93928817D01*
X141733558Y-94002467D01*
X141733560Y-94002468D01*
X141740235Y-94006092D01*
X141747584Y-94008020D01*
X141896883Y-94047188D01*
X141896885Y-94047188D01*
X141904233Y-94049116D01*
X141990609Y-94050473D01*
X142066161Y-94051660D01*
X142066164Y-94051660D01*
X142073760Y-94051779D01*
X142081165Y-94050083D01*
X142081166Y-94050083D01*
X142216529Y-94019081D01*
X142239029Y-94013928D01*
X142390498Y-93937747D01*
X142488046Y-93854433D01*
X142513651Y-93832564D01*
X142513652Y-93832563D01*
X142519423Y-93827634D01*
X142618361Y-93689947D01*
X142626237Y-93670356D01*
X142678766Y-93539687D01*
X142678767Y-93539685D01*
X142681601Y-93532634D01*
X142699183Y-93409095D01*
X142704909Y-93368862D01*
X142704909Y-93368859D01*
X142705490Y-93364778D01*
X142705645Y-93350000D01*
X142704724Y-93342385D01*
X142694137Y-93254905D01*
X142685276Y-93181680D01*
X142625345Y-93023077D01*
X142573519Y-92947670D01*
X142533614Y-92889608D01*
X142533613Y-92889607D01*
X142529312Y-92883349D01*
X142517514Y-92872837D01*
X142408392Y-92775612D01*
X142408388Y-92775610D01*
X142402721Y-92770560D01*
X142252881Y-92691224D01*
X142088441Y-92649919D01*
X142080843Y-92649879D01*
X142080841Y-92649879D01*
X142003668Y-92649475D01*
X141918895Y-92649031D01*
X141911508Y-92650805D01*
X141911504Y-92650805D01*
X141768162Y-92685220D01*
X141754032Y-92688612D01*
X141747288Y-92692093D01*
X141747285Y-92692094D01*
X141661849Y-92736191D01*
X141603369Y-92766375D01*
X141475604Y-92877831D01*
X141378113Y-93016547D01*
X141316524Y-93174513D01*
X141315532Y-93182046D01*
X141315532Y-93182047D01*
X141300555Y-93295815D01*
X141294394Y-93342611D01*
X139038698Y-93342611D01*
X139080650Y-93271990D01*
X139083849Y-93266886D01*
X139494316Y-92645610D01*
X139497757Y-92640664D01*
X139709736Y-92350947D01*
X139735911Y-92324483D01*
X140601268Y-91676646D01*
X141048746Y-91341649D01*
X141115264Y-91316837D01*
X141184638Y-91331927D01*
G37*
%TD.AperFunction*%
%TD*%
%TA.AperFunction,Conductor*%
%TO.N,Net-(7.4_1-Pad1)*%
G36*
X150898663Y-101551102D02*
G01*
X151004544Y-101565195D01*
X151036634Y-101573891D01*
X151127382Y-101611935D01*
X151156081Y-101628723D01*
X151240360Y-101694351D01*
X151252800Y-101705434D01*
X151266529Y-101719400D01*
X152446573Y-102919790D01*
X153414980Y-103904894D01*
X153448471Y-103967495D01*
X153442519Y-104038995D01*
X153413304Y-104113928D01*
X153399926Y-104148240D01*
X153398934Y-104155773D01*
X153398934Y-104155774D01*
X153389885Y-104224513D01*
X153377796Y-104316338D01*
X153396401Y-104484862D01*
X153410499Y-104523385D01*
X153451838Y-104636349D01*
X153454668Y-104644083D01*
X153458904Y-104650386D01*
X153458904Y-104650387D01*
X153468316Y-104664394D01*
X153549232Y-104784810D01*
X153554844Y-104789917D01*
X153554847Y-104789920D01*
X153632615Y-104860683D01*
X153669537Y-104921323D01*
X153667814Y-104992299D01*
X153665208Y-104999646D01*
X153616524Y-105124513D01*
X153615532Y-105132046D01*
X153615532Y-105132047D01*
X153595864Y-105281446D01*
X153594394Y-105292611D01*
X153612999Y-105461135D01*
X153671266Y-105620356D01*
X153675502Y-105626659D01*
X153675502Y-105626660D01*
X153684889Y-105640629D01*
X153765830Y-105761083D01*
X153771442Y-105766190D01*
X153771445Y-105766193D01*
X153885612Y-105870077D01*
X153885616Y-105870080D01*
X153891233Y-105875191D01*
X153897906Y-105878814D01*
X153897910Y-105878817D01*
X154033558Y-105952467D01*
X154033560Y-105952468D01*
X154040235Y-105956092D01*
X154047584Y-105958020D01*
X154196883Y-105997188D01*
X154196885Y-105997188D01*
X154204233Y-105999116D01*
X154290609Y-106000473D01*
X154366161Y-106001660D01*
X154366164Y-106001660D01*
X154373760Y-106001779D01*
X154381165Y-106000083D01*
X154381166Y-106000083D01*
X154441586Y-105986245D01*
X154539029Y-105963928D01*
X154690498Y-105887747D01*
X154819423Y-105777634D01*
X154918361Y-105639947D01*
X154926237Y-105620356D01*
X154978766Y-105489687D01*
X154978767Y-105489685D01*
X154981601Y-105482634D01*
X155005490Y-105314778D01*
X155005645Y-105300000D01*
X155003840Y-105285080D01*
X154991596Y-105183907D01*
X154985276Y-105131680D01*
X154925345Y-104973077D01*
X154866211Y-104887037D01*
X154833614Y-104839608D01*
X154833613Y-104839607D01*
X154829312Y-104833349D01*
X154815970Y-104821461D01*
X154751296Y-104763839D01*
X154713740Y-104703589D01*
X154714720Y-104632599D01*
X154718208Y-104622766D01*
X154735801Y-104579003D01*
X154779768Y-104523259D01*
X154852708Y-104500000D01*
X159875650Y-104500000D01*
X159943771Y-104520002D01*
X159990264Y-104573658D01*
X159999736Y-104604121D01*
X160008442Y-104653497D01*
X160009876Y-104664394D01*
X160013884Y-104710200D01*
X160013885Y-104710208D01*
X160014365Y-104715690D01*
X160027266Y-104763839D01*
X160027693Y-104765431D01*
X160030072Y-104776162D01*
X160039015Y-104826878D01*
X160040895Y-104832043D01*
X160040897Y-104832051D01*
X160056626Y-104875265D01*
X160059932Y-104885750D01*
X160071836Y-104930178D01*
X160071838Y-104930184D01*
X160073261Y-104935494D01*
X160094296Y-104980603D01*
X160095026Y-104982169D01*
X160099232Y-104992325D01*
X160116844Y-105040713D01*
X160119596Y-105045479D01*
X160119597Y-105045482D01*
X160142598Y-105085321D01*
X160147664Y-105095052D01*
X160169432Y-105141732D01*
X160198973Y-105183922D01*
X160204864Y-105193168D01*
X160230623Y-105237784D01*
X160234162Y-105242001D01*
X160263721Y-105277228D01*
X160270411Y-105285945D01*
X160299953Y-105328137D01*
X160460861Y-105489045D01*
X160460863Y-105489046D01*
X160963095Y-105991278D01*
X160997121Y-106053590D01*
X161000000Y-106080373D01*
X161000000Y-106491742D01*
X160998922Y-106508188D01*
X160985128Y-106612963D01*
X160976615Y-106644735D01*
X160942118Y-106728018D01*
X160897570Y-106783299D01*
X160855124Y-106802318D01*
X160719654Y-106834842D01*
X160703991Y-106838603D01*
X160697247Y-106842084D01*
X160697244Y-106842085D01*
X160655461Y-106863651D01*
X160553328Y-106916366D01*
X160547606Y-106921358D01*
X160547604Y-106921359D01*
X160541892Y-106926342D01*
X160494052Y-106968076D01*
X160493051Y-106968949D01*
X160428569Y-106998657D01*
X160410222Y-107000000D01*
X160039870Y-107000000D01*
X159971749Y-106979998D01*
X159956060Y-106968084D01*
X159902721Y-106920560D01*
X159891014Y-106914361D01*
X159795238Y-106863651D01*
X159752881Y-106841224D01*
X159588441Y-106799919D01*
X159580843Y-106799879D01*
X159580841Y-106799879D01*
X159503668Y-106799475D01*
X159418895Y-106799031D01*
X159411508Y-106800805D01*
X159411504Y-106800805D01*
X159309679Y-106825252D01*
X159254032Y-106838612D01*
X159247288Y-106842093D01*
X159247285Y-106842094D01*
X159110117Y-106912892D01*
X159103369Y-106916375D01*
X159097647Y-106921367D01*
X159097645Y-106921368D01*
X159043102Y-106968949D01*
X158978620Y-106998657D01*
X158960273Y-107000000D01*
X158520341Y-107000000D01*
X158452220Y-106979998D01*
X158405727Y-106926342D01*
X158395254Y-106889137D01*
X158392170Y-106863651D01*
X158385276Y-106806680D01*
X158325345Y-106648077D01*
X158294638Y-106603398D01*
X158233614Y-106514608D01*
X158233613Y-106514607D01*
X158229312Y-106508349D01*
X158196972Y-106479535D01*
X158108392Y-106400612D01*
X158108388Y-106400610D01*
X158102721Y-106395560D01*
X157952881Y-106316224D01*
X157788441Y-106274919D01*
X157780843Y-106274879D01*
X157780841Y-106274879D01*
X157703668Y-106274475D01*
X157618895Y-106274031D01*
X157611508Y-106275805D01*
X157611504Y-106275805D01*
X157468162Y-106310220D01*
X157454032Y-106313612D01*
X157447288Y-106317093D01*
X157447285Y-106317094D01*
X157442089Y-106319776D01*
X157303369Y-106391375D01*
X157297647Y-106396367D01*
X157297645Y-106396368D01*
X157226069Y-106458808D01*
X157175604Y-106502831D01*
X157134475Y-106561351D01*
X157104925Y-106603398D01*
X157078113Y-106641547D01*
X157016524Y-106799513D01*
X157015532Y-106807046D01*
X157015532Y-106807047D01*
X157004553Y-106890446D01*
X156975831Y-106955373D01*
X156916566Y-106994465D01*
X156879631Y-107000000D01*
X153215365Y-107000000D01*
X153198919Y-106998922D01*
X153165064Y-106994465D01*
X153150806Y-106992588D01*
X153085879Y-106963866D01*
X153049386Y-106912204D01*
X153028027Y-106855680D01*
X153025343Y-106848577D01*
X153017276Y-106836839D01*
X152933612Y-106715108D01*
X152933611Y-106715107D01*
X152929310Y-106708849D01*
X152861719Y-106648627D01*
X152808390Y-106601112D01*
X152808386Y-106601110D01*
X152802719Y-106596060D01*
X152652879Y-106516724D01*
X152504825Y-106479535D01*
X152446426Y-106446426D01*
X151652288Y-105652288D01*
X151641428Y-105639906D01*
X151577084Y-105556052D01*
X151560640Y-105527569D01*
X151523385Y-105437628D01*
X151514872Y-105405856D01*
X151501078Y-105301081D01*
X151500000Y-105284635D01*
X151500000Y-104000000D01*
X150441412Y-104000000D01*
X150373291Y-103979998D01*
X150337573Y-103945369D01*
X150333613Y-103939607D01*
X150329312Y-103933349D01*
X150317514Y-103922837D01*
X150208392Y-103825612D01*
X150208388Y-103825610D01*
X150202721Y-103820560D01*
X150052881Y-103741224D01*
X149888441Y-103699919D01*
X149880843Y-103699879D01*
X149880841Y-103699879D01*
X149803668Y-103699475D01*
X149718895Y-103699031D01*
X149711508Y-103700805D01*
X149711504Y-103700805D01*
X149568162Y-103735220D01*
X149554032Y-103738612D01*
X149547288Y-103742093D01*
X149547285Y-103742094D01*
X149542089Y-103744776D01*
X149403369Y-103816375D01*
X149275604Y-103927831D01*
X149178113Y-104066547D01*
X149116524Y-104224513D01*
X149115532Y-104232046D01*
X149115532Y-104232047D01*
X149096684Y-104375219D01*
X149094394Y-104392611D01*
X149112999Y-104561135D01*
X149115609Y-104568268D01*
X149117344Y-104575665D01*
X149114056Y-104576436D01*
X149117589Y-104632286D01*
X149083052Y-104694317D01*
X149052483Y-104716457D01*
X149013364Y-104736648D01*
X149007642Y-104741640D01*
X149007640Y-104741641D01*
X148952297Y-104789920D01*
X148885599Y-104848104D01*
X148849886Y-104898918D01*
X148792775Y-104980180D01*
X148788108Y-104986820D01*
X148726519Y-105144786D01*
X148725527Y-105152319D01*
X148725527Y-105152320D01*
X148705541Y-105304135D01*
X148704389Y-105312884D01*
X148722994Y-105481408D01*
X148725791Y-105489050D01*
X148778433Y-105632900D01*
X148781261Y-105640629D01*
X148875825Y-105781356D01*
X148957629Y-105855792D01*
X148994549Y-105916430D01*
X148992826Y-105987405D01*
X148961922Y-106038078D01*
X148152288Y-106847712D01*
X148139906Y-106858572D01*
X148056052Y-106922916D01*
X148027569Y-106939360D01*
X147937628Y-106976615D01*
X147905856Y-106985128D01*
X147801081Y-106998922D01*
X147784635Y-107000000D01*
X144508258Y-107000000D01*
X144491812Y-106998922D01*
X144387037Y-106985128D01*
X144355265Y-106976615D01*
X144265326Y-106939361D01*
X144236840Y-106922914D01*
X144159607Y-106863651D01*
X144136349Y-106840393D01*
X144077086Y-106763160D01*
X144060639Y-106734674D01*
X144023385Y-106644735D01*
X144014872Y-106612963D01*
X144001078Y-106508188D01*
X144000000Y-106491742D01*
X144000000Y-105008258D01*
X144001078Y-104991812D01*
X144014872Y-104887037D01*
X144023385Y-104855265D01*
X144060639Y-104765326D01*
X144077086Y-104736840D01*
X144136349Y-104659607D01*
X144159607Y-104636349D01*
X144236840Y-104577086D01*
X144265326Y-104560639D01*
X144355265Y-104523385D01*
X144387037Y-104514872D01*
X144491812Y-104501078D01*
X144508258Y-104500000D01*
X147000000Y-104500000D01*
X148300000Y-103025000D01*
X148733690Y-102532929D01*
X149414430Y-101760552D01*
X149474477Y-101722672D01*
X149545471Y-101723270D01*
X149604872Y-101762155D01*
X149633820Y-101826982D01*
X149626349Y-101889631D01*
X149566077Y-102044220D01*
X149565085Y-102051753D01*
X149565085Y-102051754D01*
X149555546Y-102124215D01*
X149543947Y-102212318D01*
X149562552Y-102380842D01*
X149620819Y-102540063D01*
X149625055Y-102546366D01*
X149625055Y-102546367D01*
X149638127Y-102565820D01*
X149715383Y-102680790D01*
X149720995Y-102685897D01*
X149720998Y-102685900D01*
X149835165Y-102789784D01*
X149835169Y-102789787D01*
X149840786Y-102794898D01*
X149847459Y-102798521D01*
X149847463Y-102798524D01*
X149983111Y-102872174D01*
X149983113Y-102872175D01*
X149989788Y-102875799D01*
X149997137Y-102877727D01*
X150146436Y-102916895D01*
X150146438Y-102916895D01*
X150153786Y-102918823D01*
X150240162Y-102920180D01*
X150315714Y-102921367D01*
X150315717Y-102921367D01*
X150323313Y-102921486D01*
X150330718Y-102919790D01*
X150330719Y-102919790D01*
X150418280Y-102899736D01*
X150488582Y-102883635D01*
X150640051Y-102807454D01*
X150768976Y-102697341D01*
X150867914Y-102559654D01*
X150875790Y-102540063D01*
X150928319Y-102409394D01*
X150928320Y-102409392D01*
X150931154Y-102402341D01*
X150955043Y-102234485D01*
X150955198Y-102219707D01*
X150953393Y-102204787D01*
X150939338Y-102088649D01*
X150934829Y-102051387D01*
X150874898Y-101892784D01*
X150778865Y-101753056D01*
X150779912Y-101752336D01*
X150753131Y-101695005D01*
X150762629Y-101624647D01*
X150808658Y-101570593D01*
X150877689Y-101550000D01*
X150882040Y-101550000D01*
X150898663Y-101551102D01*
G37*
%TD.AperFunction*%
%TD*%
%TA.AperFunction,Conductor*%
%TO.N,+12V*%
G36*
X158751857Y-90207482D02*
G01*
X158857638Y-90220146D01*
X158889756Y-90228386D01*
X158980778Y-90265067D01*
X159009633Y-90281399D01*
X159087933Y-90340555D01*
X159111530Y-90363852D01*
X159171688Y-90441391D01*
X159188389Y-90470035D01*
X159226235Y-90560580D01*
X159234886Y-90592592D01*
X159248904Y-90698194D01*
X159250000Y-90714774D01*
X159250000Y-93254905D01*
X159229998Y-93323026D01*
X159176342Y-93369519D01*
X159153421Y-93377421D01*
X159138190Y-93381078D01*
X159131446Y-93384559D01*
X159131443Y-93384560D01*
X158997867Y-93453504D01*
X158987527Y-93458841D01*
X158859762Y-93570297D01*
X158762271Y-93709013D01*
X158700682Y-93866979D01*
X158699690Y-93874512D01*
X158699690Y-93874513D01*
X158685279Y-93983981D01*
X158678552Y-94035077D01*
X158679368Y-94042466D01*
X158697157Y-94203601D01*
X158755424Y-94362822D01*
X158849988Y-94503549D01*
X158855600Y-94508656D01*
X158855603Y-94508659D01*
X158969770Y-94612543D01*
X158969774Y-94612546D01*
X158975391Y-94617657D01*
X158982064Y-94621280D01*
X158982068Y-94621283D01*
X159117716Y-94694933D01*
X159117718Y-94694934D01*
X159124393Y-94698558D01*
X159155974Y-94706843D01*
X159216789Y-94743477D01*
X159248144Y-94807175D01*
X159250000Y-94828719D01*
X159250000Y-96850000D01*
X159962595Y-97562595D01*
X159996621Y-97624907D01*
X159999500Y-97651690D01*
X159999500Y-104024000D01*
X159979498Y-104092121D01*
X159925842Y-104138614D01*
X159873500Y-104150000D01*
X157808258Y-104150000D01*
X157791812Y-104148922D01*
X157687037Y-104135128D01*
X157655265Y-104126615D01*
X157565326Y-104089361D01*
X157536840Y-104072914D01*
X157459607Y-104013651D01*
X157436349Y-103990393D01*
X157377086Y-103913160D01*
X157360639Y-103884674D01*
X157323385Y-103794735D01*
X157314872Y-103762963D01*
X157301078Y-103658188D01*
X157300000Y-103641742D01*
X157300000Y-101932615D01*
X157320002Y-101864494D01*
X157373658Y-101818001D01*
X157443932Y-101807897D01*
X157457973Y-101810739D01*
X157596909Y-101847188D01*
X157596911Y-101847188D01*
X157604259Y-101849116D01*
X157690635Y-101850473D01*
X157766187Y-101851660D01*
X157766190Y-101851660D01*
X157773786Y-101851779D01*
X157781191Y-101850083D01*
X157781192Y-101850083D01*
X157841612Y-101836245D01*
X157939055Y-101813928D01*
X158090524Y-101737747D01*
X158169739Y-101670090D01*
X158213677Y-101632564D01*
X158213678Y-101632563D01*
X158219449Y-101627634D01*
X158318387Y-101489947D01*
X158327344Y-101467666D01*
X158378792Y-101339687D01*
X158378793Y-101339685D01*
X158381627Y-101332634D01*
X158405516Y-101164778D01*
X158405671Y-101150000D01*
X158385302Y-100981680D01*
X158325371Y-100823077D01*
X158229338Y-100683349D01*
X158223145Y-100677831D01*
X158108418Y-100575612D01*
X158108414Y-100575610D01*
X158102747Y-100570560D01*
X157952907Y-100491224D01*
X157788467Y-100449919D01*
X157780869Y-100449879D01*
X157780867Y-100449879D01*
X157703694Y-100449475D01*
X157618921Y-100449031D01*
X157611534Y-100450805D01*
X157611530Y-100450805D01*
X157455415Y-100488286D01*
X157384507Y-100484740D01*
X157326773Y-100443420D01*
X157300542Y-100377447D01*
X157300000Y-100365768D01*
X157300000Y-90726826D01*
X157301060Y-90710513D01*
X157314632Y-90606565D01*
X157323008Y-90575037D01*
X157359677Y-90485700D01*
X157375867Y-90457380D01*
X157434246Y-90380452D01*
X157457164Y-90357239D01*
X157533331Y-90297884D01*
X157561445Y-90281330D01*
X157650302Y-90243519D01*
X157681724Y-90234739D01*
X157734008Y-90227230D01*
X157785479Y-90219837D01*
X157801775Y-90218567D01*
X157936090Y-90216845D01*
X157950309Y-90216663D01*
X158735264Y-90206599D01*
X158751857Y-90207482D01*
G37*
%TD.AperFunction*%
%TD*%
%TA.AperFunction,Conductor*%
%TO.N,+15V*%
G36*
X155848223Y-86300010D02*
G01*
X156028125Y-86340593D01*
X156201137Y-86379622D01*
X156206980Y-86381087D01*
X156924695Y-86579480D01*
X156930462Y-86581224D01*
X157382636Y-86729818D01*
X157637844Y-86813685D01*
X157643508Y-86815698D01*
X158338999Y-87081717D01*
X158344557Y-87083997D01*
X159026537Y-87382956D01*
X159031951Y-87385484D01*
X159511615Y-87623705D01*
X159698871Y-87716704D01*
X159704200Y-87719512D01*
X160354485Y-88082208D01*
X160359675Y-88085267D01*
X160892489Y-88416788D01*
X160991896Y-88478640D01*
X160996934Y-88481944D01*
X161609638Y-88905095D01*
X161614511Y-88908636D01*
X162206270Y-89360573D01*
X162210969Y-89364343D01*
X162412914Y-89534453D01*
X162452128Y-89593638D01*
X162453119Y-89664627D01*
X162415572Y-89724884D01*
X162351410Y-89755275D01*
X162318569Y-89756130D01*
X162213498Y-89745087D01*
X162213496Y-89745087D01*
X162207369Y-89744443D01*
X162120529Y-89752346D01*
X162008342Y-89762555D01*
X162008339Y-89762556D01*
X162002203Y-89763114D01*
X161804572Y-89821280D01*
X161622002Y-89916726D01*
X161617201Y-89920586D01*
X161617198Y-89920588D01*
X161475358Y-90034630D01*
X161461447Y-90045815D01*
X161329024Y-90203630D01*
X161326056Y-90209028D01*
X161326053Y-90209033D01*
X161282909Y-90287513D01*
X161229776Y-90384162D01*
X161167484Y-90580532D01*
X161166798Y-90586649D01*
X161166797Y-90586653D01*
X161149820Y-90738008D01*
X161144520Y-90785262D01*
X161145036Y-90791406D01*
X161153541Y-90892683D01*
X161161759Y-90990553D01*
X161163458Y-90996478D01*
X161193837Y-91102421D01*
X161218544Y-91188586D01*
X161221359Y-91194063D01*
X161221360Y-91194066D01*
X161309897Y-91366341D01*
X161312712Y-91371818D01*
X161440677Y-91533270D01*
X161597564Y-91666791D01*
X161777398Y-91767297D01*
X161872238Y-91798113D01*
X161967471Y-91829056D01*
X161967475Y-91829057D01*
X161973329Y-91830959D01*
X162177894Y-91855351D01*
X162184029Y-91854879D01*
X162184031Y-91854879D01*
X162240039Y-91850569D01*
X162383300Y-91839546D01*
X162389230Y-91837890D01*
X162389232Y-91837890D01*
X162575797Y-91785800D01*
X162575796Y-91785800D01*
X162581725Y-91784145D01*
X162587214Y-91781372D01*
X162587220Y-91781370D01*
X162760116Y-91694033D01*
X162765610Y-91691258D01*
X162927951Y-91564424D01*
X163021785Y-91455716D01*
X163058540Y-91413134D01*
X163058540Y-91413133D01*
X163062564Y-91408472D01*
X163083387Y-91371818D01*
X163161276Y-91234707D01*
X163164323Y-91229344D01*
X163229351Y-91033863D01*
X163255171Y-90829474D01*
X163255583Y-90800000D01*
X163235480Y-90594970D01*
X163233698Y-90589068D01*
X163232868Y-90584876D01*
X163239257Y-90514167D01*
X163282859Y-90458137D01*
X163349831Y-90434575D01*
X163418911Y-90450961D01*
X163446474Y-90472225D01*
X163629459Y-90659010D01*
X163856266Y-90890528D01*
X163860378Y-90894931D01*
X164355429Y-91451122D01*
X164359326Y-91455716D01*
X164443379Y-91559766D01*
X164827267Y-92034985D01*
X164830907Y-92039719D01*
X164972341Y-92233020D01*
X165052944Y-92343183D01*
X165077027Y-92409970D01*
X165061178Y-92479175D01*
X165010430Y-92528826D01*
X164940895Y-92543158D01*
X164914002Y-92537951D01*
X164762254Y-92490977D01*
X164756129Y-92490333D01*
X164756128Y-92490333D01*
X164563498Y-92470087D01*
X164563496Y-92470087D01*
X164557369Y-92469443D01*
X164470529Y-92477346D01*
X164358342Y-92487555D01*
X164358339Y-92487556D01*
X164352203Y-92488114D01*
X164154572Y-92546280D01*
X163972002Y-92641726D01*
X163967201Y-92645586D01*
X163967198Y-92645588D01*
X163816254Y-92766950D01*
X163811447Y-92770815D01*
X163679024Y-92928630D01*
X163676056Y-92934028D01*
X163676053Y-92934033D01*
X163603849Y-93065373D01*
X163579776Y-93109162D01*
X163517484Y-93305532D01*
X163516798Y-93311649D01*
X163516797Y-93311653D01*
X163499067Y-93469727D01*
X163494520Y-93510262D01*
X163495036Y-93516406D01*
X163509748Y-93691600D01*
X163511759Y-93715553D01*
X163513458Y-93721478D01*
X163547585Y-93840492D01*
X163568544Y-93913586D01*
X163571359Y-93919063D01*
X163571360Y-93919066D01*
X163601106Y-93976946D01*
X163662712Y-94096818D01*
X163790677Y-94258270D01*
X163947564Y-94391791D01*
X164127398Y-94492297D01*
X164179251Y-94509145D01*
X164317471Y-94554056D01*
X164317475Y-94554057D01*
X164323329Y-94555959D01*
X164527894Y-94580351D01*
X164534029Y-94579879D01*
X164534031Y-94579879D01*
X164590039Y-94575569D01*
X164733300Y-94564546D01*
X164739234Y-94562889D01*
X164739241Y-94562888D01*
X164872216Y-94525761D01*
X164943206Y-94526707D01*
X165002416Y-94565883D01*
X165031045Y-94630851D01*
X165020006Y-94700984D01*
X165015652Y-94709363D01*
X164912095Y-94891564D01*
X164792005Y-95154614D01*
X164787643Y-95160750D01*
X164787625Y-95160814D01*
X164781355Y-95175756D01*
X164780343Y-95177375D01*
X164780002Y-95178980D01*
X164778423Y-95182743D01*
X164778422Y-95182744D01*
X164634984Y-95524553D01*
X164634981Y-95524563D01*
X164633867Y-95527216D01*
X164514532Y-95906299D01*
X164430662Y-96294771D01*
X164382972Y-96689322D01*
X164371870Y-97086589D01*
X164397448Y-97483188D01*
X164459490Y-97875738D01*
X164463651Y-97892094D01*
X164479071Y-97952712D01*
X164476480Y-98023661D01*
X164435943Y-98081947D01*
X164370329Y-98109064D01*
X164300470Y-98096402D01*
X164273141Y-98077851D01*
X164267514Y-98072837D01*
X164212320Y-98023661D01*
X164158392Y-97975612D01*
X164158388Y-97975610D01*
X164152721Y-97970560D01*
X164002881Y-97891224D01*
X163838441Y-97849919D01*
X163830843Y-97849879D01*
X163830841Y-97849879D01*
X163753668Y-97849475D01*
X163668895Y-97849031D01*
X163661508Y-97850805D01*
X163661504Y-97850805D01*
X163545921Y-97878555D01*
X163504032Y-97888612D01*
X163497288Y-97892093D01*
X163497285Y-97892094D01*
X163360117Y-97962892D01*
X163353369Y-97966375D01*
X163347647Y-97971367D01*
X163347645Y-97971368D01*
X163276069Y-98033808D01*
X163225604Y-98077831D01*
X163128113Y-98216547D01*
X163066524Y-98374513D01*
X163065532Y-98382046D01*
X163065532Y-98382047D01*
X163054641Y-98464778D01*
X163044394Y-98542611D01*
X163062999Y-98711135D01*
X163121266Y-98870356D01*
X163125502Y-98876659D01*
X163125502Y-98876660D01*
X163135814Y-98892006D01*
X163215830Y-99011083D01*
X163221442Y-99016190D01*
X163221445Y-99016193D01*
X163335612Y-99120077D01*
X163335616Y-99120080D01*
X163341233Y-99125191D01*
X163347906Y-99128814D01*
X163347910Y-99128817D01*
X163483558Y-99202467D01*
X163483560Y-99202468D01*
X163490235Y-99206092D01*
X163497584Y-99208020D01*
X163646883Y-99247188D01*
X163646885Y-99247188D01*
X163654233Y-99249116D01*
X163740609Y-99250473D01*
X163816161Y-99251660D01*
X163816164Y-99251660D01*
X163823760Y-99251779D01*
X163831165Y-99250083D01*
X163831166Y-99250083D01*
X163891586Y-99236245D01*
X163989029Y-99213928D01*
X164140498Y-99137747D01*
X164269423Y-99027634D01*
X164368361Y-98889947D01*
X164376237Y-98870356D01*
X164428766Y-98739687D01*
X164428767Y-98739685D01*
X164431601Y-98732634D01*
X164443426Y-98649546D01*
X164472827Y-98584923D01*
X164532498Y-98546454D01*
X164603494Y-98546352D01*
X164663275Y-98584650D01*
X164686895Y-98625108D01*
X164690543Y-98635374D01*
X164691759Y-98637999D01*
X164691761Y-98638004D01*
X164802311Y-98876660D01*
X164857585Y-98995987D01*
X164859041Y-98998493D01*
X164859044Y-98998500D01*
X164921527Y-99106092D01*
X165057169Y-99339660D01*
X165287594Y-99663463D01*
X165546897Y-99964639D01*
X165832868Y-100240619D01*
X166143071Y-100489053D01*
X166145494Y-100490651D01*
X166145500Y-100490655D01*
X166245048Y-100556293D01*
X166474860Y-100707822D01*
X166477416Y-100709187D01*
X166477424Y-100709192D01*
X166767118Y-100863928D01*
X166825410Y-100895064D01*
X166828082Y-100896188D01*
X166828088Y-100896191D01*
X166957485Y-100950630D01*
X167191430Y-101049054D01*
X167191718Y-101049222D01*
X167202617Y-101051178D01*
X167202618Y-101051178D01*
X167207149Y-101051991D01*
X167228344Y-101057738D01*
X171464054Y-102613777D01*
X171521097Y-102656041D01*
X171546236Y-102722438D01*
X171546350Y-102740024D01*
X171543228Y-102789220D01*
X171516136Y-103216145D01*
X171515700Y-103221322D01*
X171484332Y-103520077D01*
X171433776Y-104001584D01*
X171433568Y-104003561D01*
X171432921Y-104008699D01*
X171327781Y-104724441D01*
X171318604Y-104786912D01*
X171317745Y-104792022D01*
X171268148Y-105054015D01*
X171172636Y-105558543D01*
X171140312Y-105621754D01*
X171078945Y-105657455D01*
X171008018Y-105654312D01*
X170989876Y-105646461D01*
X170864864Y-105580271D01*
X170864862Y-105580270D01*
X170858155Y-105576719D01*
X170693715Y-105535414D01*
X170686117Y-105535374D01*
X170686115Y-105535374D01*
X170608942Y-105534970D01*
X170524169Y-105534526D01*
X170516782Y-105536300D01*
X170516778Y-105536300D01*
X170424133Y-105558543D01*
X170359306Y-105574107D01*
X170352562Y-105577588D01*
X170352559Y-105577589D01*
X170251335Y-105629835D01*
X170208643Y-105651870D01*
X170202921Y-105656862D01*
X170202919Y-105656863D01*
X170172791Y-105683145D01*
X170108309Y-105712852D01*
X170050810Y-105707957D01*
X169227818Y-105438902D01*
X166158981Y-104435628D01*
X166146518Y-104430807D01*
X166068081Y-104395562D01*
X166044988Y-104382073D01*
X165975764Y-104331072D01*
X165965419Y-104322567D01*
X165229933Y-103649235D01*
X164458083Y-102942611D01*
X166094394Y-102942611D01*
X166112999Y-103111135D01*
X166171266Y-103270356D01*
X166175502Y-103276659D01*
X166175502Y-103276660D01*
X166188574Y-103296113D01*
X166265830Y-103411083D01*
X166271442Y-103416190D01*
X166271445Y-103416193D01*
X166385612Y-103520077D01*
X166385616Y-103520080D01*
X166391233Y-103525191D01*
X166397906Y-103528814D01*
X166397910Y-103528817D01*
X166533558Y-103602467D01*
X166533560Y-103602468D01*
X166540235Y-103606092D01*
X166547584Y-103608020D01*
X166696883Y-103647188D01*
X166696885Y-103647188D01*
X166704233Y-103649116D01*
X166790609Y-103650473D01*
X166866161Y-103651660D01*
X166866164Y-103651660D01*
X166873760Y-103651779D01*
X166881165Y-103650083D01*
X166881166Y-103650083D01*
X166941586Y-103636245D01*
X167039029Y-103613928D01*
X167190498Y-103537747D01*
X167319423Y-103427634D01*
X167418361Y-103289947D01*
X167426576Y-103269511D01*
X167478766Y-103139687D01*
X167478767Y-103139685D01*
X167481601Y-103132634D01*
X167505490Y-102964778D01*
X167505645Y-102950000D01*
X167503840Y-102935080D01*
X167486188Y-102789220D01*
X167485276Y-102781680D01*
X167425345Y-102623077D01*
X167405428Y-102594098D01*
X167333614Y-102489608D01*
X167333613Y-102489607D01*
X167329312Y-102483349D01*
X167277157Y-102436880D01*
X167208392Y-102375612D01*
X167208388Y-102375610D01*
X167202721Y-102370560D01*
X167052881Y-102291224D01*
X166888441Y-102249919D01*
X166880843Y-102249879D01*
X166880841Y-102249879D01*
X166803668Y-102249475D01*
X166718895Y-102249031D01*
X166711508Y-102250805D01*
X166711504Y-102250805D01*
X166568162Y-102285220D01*
X166554032Y-102288612D01*
X166547288Y-102292093D01*
X166547285Y-102292094D01*
X166410117Y-102362892D01*
X166403369Y-102366375D01*
X166275604Y-102477831D01*
X166271237Y-102484045D01*
X166196995Y-102589681D01*
X166178113Y-102616547D01*
X166116524Y-102774513D01*
X166094394Y-102942611D01*
X164458083Y-102942611D01*
X162668801Y-101304535D01*
X162656819Y-101291938D01*
X162629421Y-101258826D01*
X162601407Y-101193594D01*
X162600500Y-101178505D01*
X162600500Y-93843216D01*
X162585635Y-93673308D01*
X162545896Y-93525000D01*
X162528162Y-93458814D01*
X162528161Y-93458812D01*
X162526739Y-93453504D01*
X162464471Y-93319970D01*
X162432891Y-93252247D01*
X162432889Y-93252244D01*
X162430568Y-93247266D01*
X162300047Y-93060861D01*
X162139139Y-92899953D01*
X161952734Y-92769432D01*
X161947756Y-92767111D01*
X161947753Y-92767109D01*
X161751478Y-92675584D01*
X161751476Y-92675583D01*
X161746496Y-92673261D01*
X161741188Y-92671839D01*
X161741186Y-92671838D01*
X161532007Y-92615789D01*
X161532005Y-92615789D01*
X161526692Y-92614365D01*
X161300000Y-92594532D01*
X161073308Y-92614365D01*
X161067995Y-92615789D01*
X161067993Y-92615789D01*
X160858814Y-92671838D01*
X160858812Y-92671839D01*
X160853504Y-92673261D01*
X160848524Y-92675583D01*
X160848522Y-92675584D01*
X160652247Y-92767109D01*
X160652244Y-92767111D01*
X160647266Y-92769432D01*
X160460861Y-92899953D01*
X160299953Y-93060861D01*
X160169432Y-93247266D01*
X160167111Y-93252244D01*
X160167109Y-93252247D01*
X160135529Y-93319970D01*
X160073261Y-93453504D01*
X160071840Y-93458809D01*
X160071837Y-93458816D01*
X160068914Y-93469727D01*
X160031963Y-93530350D01*
X159968103Y-93561372D01*
X159897608Y-93552944D01*
X159863388Y-93531193D01*
X159792550Y-93468079D01*
X159786879Y-93463026D01*
X159759486Y-93448522D01*
X159643750Y-93387243D01*
X159643748Y-93387242D01*
X159637039Y-93383690D01*
X159634007Y-93382928D01*
X159579093Y-93341000D01*
X159554915Y-93274247D01*
X159554990Y-93258450D01*
X159555500Y-93254905D01*
X159555500Y-90714774D01*
X159554835Y-90694623D01*
X159553739Y-90678043D01*
X159551747Y-90657993D01*
X159537729Y-90552391D01*
X159529807Y-90512892D01*
X159521156Y-90480880D01*
X159508103Y-90442765D01*
X159470257Y-90352220D01*
X159452306Y-90316157D01*
X159450000Y-90312202D01*
X159450000Y-89900000D01*
X155358258Y-89900000D01*
X155341812Y-89898922D01*
X155237037Y-89885128D01*
X155205265Y-89876615D01*
X155115326Y-89839361D01*
X155086840Y-89822914D01*
X155009607Y-89763651D01*
X154986349Y-89740393D01*
X154927086Y-89663160D01*
X154910639Y-89634674D01*
X154873385Y-89544735D01*
X154864872Y-89512963D01*
X154851078Y-89408188D01*
X154850000Y-89391742D01*
X154850000Y-87716679D01*
X154870002Y-87648558D01*
X154889155Y-87625389D01*
X154959542Y-87558429D01*
X154961858Y-87556226D01*
X155196431Y-87282738D01*
X155336201Y-87081714D01*
X155400292Y-86989535D01*
X155400296Y-86989529D01*
X155402116Y-86986911D01*
X155576802Y-86671783D01*
X155616005Y-86580280D01*
X155704680Y-86373301D01*
X155749892Y-86318562D01*
X155817521Y-86296956D01*
X155848223Y-86300010D01*
G37*
%TD.AperFunction*%
%TD*%
M02*
