%FSLAX45Y45*%
G04 Gerber Fmt 4.5, Leading zero omitted, Abs format (unit mm)*
G04 Created by KiCad (PCBNEW (6.0.5)) date 2022-06-17 18:07:54*
%MOMM*%
%LPD*%
G01*
G04 APERTURE LIST*
%TA.AperFunction,Profile*%
%ADD10C,0.200000*%
%TD*%
%ADD11C,0.200000*%
%ADD12C,0.040000*%
%ADD13C,0.050000*%
%ADD14C,0.070000*%
G04 APERTURE END LIST*
D10*
X14498380Y-11265866D02*
X14525548Y-11293034D01*
X14923736Y-8592046D02*
G75*
G03*
X13843687Y-9376749I314684J-1568754D01*
G01*
X14613416Y-12007924D02*
G75*
G03*
X15863416Y-12007924I625000J1847125D01*
G01*
X14578416Y-9404247D02*
G75*
G03*
X14578416Y-9404247I-40000J0D01*
G01*
X15978416Y-9404247D02*
G75*
G03*
X15978416Y-9404247I-40000J0D01*
G01*
X14923736Y-8592048D02*
G75*
G03*
X15553096Y-8592048I314680J81250D01*
G01*
X16320331Y-11190609D02*
X16777271Y-11358472D01*
X16506323Y-9529167D02*
G75*
G03*
X16729694Y-10076280I361307J-171643D01*
G01*
X16633148Y-9376747D02*
G75*
G03*
X15553096Y-8592048I-1394728J-784053D01*
G01*
X16633144Y-9376749D02*
G75*
G03*
X16506326Y-9529169I174516J-274171D01*
G01*
X13970505Y-9529169D02*
G75*
G03*
X13843687Y-9376749I-301335J-121751D01*
G01*
X17186634Y-10244143D02*
X16729694Y-10076280D01*
X15951285Y-11293035D02*
G75*
G03*
X15863416Y-11505166I212135J-212135D01*
G01*
X16320330Y-11190612D02*
G75*
G03*
X15978452Y-11265866I-112070J-305068D01*
G01*
X14613420Y-11505166D02*
G75*
G03*
X14525548Y-11293034I-300000J-4D01*
G01*
X15863416Y-12007924D02*
X15863416Y-11505166D01*
X14498380Y-11265865D02*
G75*
G03*
X14156500Y-11190609I-229811J-229815D01*
G01*
X13747138Y-10076280D02*
G75*
G03*
X13970506Y-9529169I-137932J375466D01*
G01*
X14613416Y-11505166D02*
X14613416Y-12007924D01*
X15951284Y-11293034D02*
X15978452Y-11265866D01*
X13290200Y-10244143D02*
G75*
G03*
X13699560Y-11358472I1948220J83343D01*
G01*
X13699560Y-11358472D02*
X14156500Y-11190609D01*
X13747138Y-10076280D02*
X13290198Y-10244143D01*
X16777272Y-11358472D02*
G75*
G03*
X17186634Y-10244143I-1538852J1197672D01*
G01*
D11*
D12*
X13349425Y-10343438D02*
X13389425Y-10383438D01*
X13389425Y-10343438D02*
X13349425Y-10383438D01*
X13630000Y-10420000D02*
X13670000Y-10460000D01*
X13670000Y-10420000D02*
X13630000Y-10460000D01*
X13635755Y-10635755D02*
X13675755Y-10675755D01*
X13675755Y-10635755D02*
X13635755Y-10675755D01*
X13673751Y-10216251D02*
X13713751Y-10256251D01*
X13713751Y-10216251D02*
X13673751Y-10256251D01*
X13699132Y-11128368D02*
X13739132Y-11168368D01*
X13739132Y-11128368D02*
X13699132Y-11168368D01*
X13705000Y-10505000D02*
X13745000Y-10545000D01*
X13745000Y-10505000D02*
X13705000Y-10545000D01*
X13711250Y-10828750D02*
X13751250Y-10868750D01*
X13751250Y-10828750D02*
X13711250Y-10868750D01*
X13776000Y-10684000D02*
X13816000Y-10724000D01*
X13816000Y-10684000D02*
X13776000Y-10724000D01*
X13804286Y-10785714D02*
X13844286Y-10825714D01*
X13844286Y-10785714D02*
X13804286Y-10825714D01*
X13811150Y-10176824D02*
X13851150Y-10216824D01*
X13851150Y-10176824D02*
X13811150Y-10216824D01*
X13830000Y-10560000D02*
X13870000Y-10600000D01*
X13870000Y-10560000D02*
X13830000Y-10600000D01*
X13875000Y-10970000D02*
X13915000Y-11010000D01*
X13915000Y-10970000D02*
X13875000Y-11010000D01*
X13883000Y-11170000D02*
X13923000Y-11210000D01*
X13923000Y-11170000D02*
X13883000Y-11210000D01*
X13900000Y-10645000D02*
X13940000Y-10685000D01*
X13940000Y-10645000D02*
X13900000Y-10685000D01*
X13915000Y-10745000D02*
X13955000Y-10785000D01*
X13955000Y-10745000D02*
X13915000Y-10785000D01*
X13955000Y-10137500D02*
X13995000Y-10177500D01*
X13995000Y-10137500D02*
X13955000Y-10177500D01*
X13977000Y-11133000D02*
X14017000Y-11173000D01*
X14017000Y-11133000D02*
X13977000Y-11173000D01*
X14095002Y-10060000D02*
X14135002Y-10100000D01*
X14135002Y-10060000D02*
X14095002Y-10100000D01*
X14180000Y-9315000D02*
X14220000Y-9355000D01*
X14220000Y-9315000D02*
X14180000Y-9355000D01*
X14194972Y-9497501D02*
X14234972Y-9537501D01*
X14234972Y-9497501D02*
X14194972Y-9537501D01*
X14223637Y-11033637D02*
X14263637Y-11073637D01*
X14263637Y-11033637D02*
X14223637Y-11073637D01*
X14239791Y-10062500D02*
X14279791Y-10102500D01*
X14279791Y-10062500D02*
X14239791Y-10102500D01*
X14301909Y-10429058D02*
X14341909Y-10469058D01*
X14341909Y-10429058D02*
X14301909Y-10469058D01*
X14375050Y-10899425D02*
X14415050Y-10939425D01*
X14415050Y-10899425D02*
X14375050Y-10939425D01*
X14380678Y-9174322D02*
X14420678Y-9214322D01*
X14420678Y-9174322D02*
X14380678Y-9214322D01*
X14390000Y-8858000D02*
X14430000Y-8898000D01*
X14430000Y-8858000D02*
X14390000Y-8898000D01*
X14405000Y-8970000D02*
X14445000Y-9010000D01*
X14445000Y-8970000D02*
X14405000Y-9010000D01*
X14427499Y-9840051D02*
X14467499Y-9880051D01*
X14467499Y-9840051D02*
X14427499Y-9880051D01*
X14427501Y-9737518D02*
X14467501Y-9777518D01*
X14467501Y-9737518D02*
X14427501Y-9777518D01*
X14496524Y-10778644D02*
X14536524Y-10818644D01*
X14536524Y-10778644D02*
X14496524Y-10818644D01*
X14550000Y-11127500D02*
X14590000Y-11167500D01*
X14590000Y-11127500D02*
X14550000Y-11167500D01*
X14562498Y-10880000D02*
X14602498Y-10920000D01*
X14602498Y-10880000D02*
X14562498Y-10920000D01*
X14562710Y-11226639D02*
X14602710Y-11266639D01*
X14602710Y-11226639D02*
X14562710Y-11266639D01*
X14652640Y-8724200D02*
X14692640Y-8764200D01*
X14692640Y-8724200D02*
X14652640Y-8764200D01*
X14652640Y-8819200D02*
X14692640Y-8859200D01*
X14692640Y-8819200D02*
X14652640Y-8859200D01*
X14691995Y-9824137D02*
X14731995Y-9864137D01*
X14731995Y-9824137D02*
X14691995Y-9864137D01*
X14720915Y-10258299D02*
X14760915Y-10298299D01*
X14760915Y-10258299D02*
X14720915Y-10298299D01*
X14751716Y-11820677D02*
X14791716Y-11860677D01*
X14791716Y-11820677D02*
X14751716Y-11860677D01*
X14752500Y-11561500D02*
X14792500Y-11601500D01*
X14792500Y-11561500D02*
X14752500Y-11601500D01*
X14765966Y-8907661D02*
X14805966Y-8947661D01*
X14805966Y-8907661D02*
X14765966Y-8947661D01*
X14786367Y-11413907D02*
X14826367Y-11453907D01*
X14826367Y-11413907D02*
X14786367Y-11453907D01*
X14798245Y-9414461D02*
X14838245Y-9454461D01*
X14838245Y-9414461D02*
X14798245Y-9454461D01*
X14828146Y-9110678D02*
X14868146Y-9150678D01*
X14868146Y-9110678D02*
X14828146Y-9150678D01*
X14850000Y-11802500D02*
X14890000Y-11842500D01*
X14890000Y-11802500D02*
X14850000Y-11842500D01*
X14860000Y-8920000D02*
X14900000Y-8960000D01*
X14900000Y-8920000D02*
X14860000Y-8960000D01*
X14866230Y-10968770D02*
X14906230Y-11008770D01*
X14906230Y-10968770D02*
X14866230Y-11008770D01*
X14872640Y-8724200D02*
X14912640Y-8764200D01*
X14912640Y-8724200D02*
X14872640Y-8764200D01*
X14872640Y-8819200D02*
X14912640Y-8859200D01*
X14912640Y-8819200D02*
X14872640Y-8859200D01*
X14875000Y-11960000D02*
X14915000Y-12000000D01*
X14915000Y-11960000D02*
X14875000Y-12000000D01*
X14890000Y-9350000D02*
X14930000Y-9390000D01*
X14930000Y-9350000D02*
X14890000Y-9390000D01*
X14897712Y-11069788D02*
X14937712Y-11109788D01*
X14937712Y-11069788D02*
X14897712Y-11109788D01*
X14912503Y-10015000D02*
X14952503Y-10055000D01*
X14952503Y-10015000D02*
X14912503Y-10055000D01*
X14920999Y-10512027D02*
X14960999Y-10552027D01*
X14960999Y-10512027D02*
X14920999Y-10552027D01*
X14936747Y-10704781D02*
X14976747Y-10744781D01*
X14976747Y-10704781D02*
X14936747Y-10744781D01*
X14954078Y-10606345D02*
X14994078Y-10646345D01*
X14994078Y-10606345D02*
X14954078Y-10646345D01*
X14960000Y-10420000D02*
X15000000Y-10460000D01*
X15000000Y-10420000D02*
X14960000Y-10460000D01*
X15004955Y-10201971D02*
X15044955Y-10241971D01*
X15044955Y-10201971D02*
X15004955Y-10241971D01*
X15007401Y-9469600D02*
X15047401Y-9509600D01*
X15047401Y-9469600D02*
X15007401Y-9509600D01*
X15019998Y-9090980D02*
X15059998Y-9130980D01*
X15059998Y-9090980D02*
X15019998Y-9130980D01*
X15024967Y-10751764D02*
X15064967Y-10791764D01*
X15064967Y-10751764D02*
X15024967Y-10791764D01*
X15052500Y-11525000D02*
X15092500Y-11565000D01*
X15092500Y-11525000D02*
X15052500Y-11565000D01*
X15058850Y-9910195D02*
X15098850Y-9950195D01*
X15098850Y-9910195D02*
X15058850Y-9950195D01*
X15059881Y-10016436D02*
X15099881Y-10056436D01*
X15099881Y-10016436D02*
X15059881Y-10056436D01*
X15080474Y-9812560D02*
X15120474Y-9852560D01*
X15120474Y-9812560D02*
X15080474Y-9852560D01*
X15127500Y-11154045D02*
X15167500Y-11194045D01*
X15167500Y-11154045D02*
X15127500Y-11194045D01*
X15153673Y-9981750D02*
X15193673Y-10021750D01*
X15193673Y-9981750D02*
X15153673Y-10021750D01*
X15160000Y-10950000D02*
X15200000Y-10990000D01*
X15200000Y-10950000D02*
X15160000Y-10990000D01*
X15171123Y-12020796D02*
X15211123Y-12060796D01*
X15211123Y-12020796D02*
X15171123Y-12060796D01*
X15190000Y-10850000D02*
X15230000Y-10890000D01*
X15230000Y-10850000D02*
X15190000Y-10890000D01*
X15220000Y-10697550D02*
X15260000Y-10737550D01*
X15260000Y-10697550D02*
X15220000Y-10737550D01*
X15220000Y-9665000D02*
X15260000Y-9705000D01*
X15260000Y-9665000D02*
X15220000Y-9705000D01*
X15244539Y-11175531D02*
X15284539Y-11215531D01*
X15284539Y-11175531D02*
X15244539Y-11215531D01*
X15253696Y-11392852D02*
X15293696Y-11432852D01*
X15293696Y-11392852D02*
X15253696Y-11432852D01*
X15274423Y-9901750D02*
X15314423Y-9941750D01*
X15314423Y-9901750D02*
X15274423Y-9941750D01*
X15310000Y-11100000D02*
X15350000Y-11140000D01*
X15350000Y-11100000D02*
X15310000Y-11140000D01*
X15362977Y-10037783D02*
X15402977Y-10077783D01*
X15402977Y-10037783D02*
X15362977Y-10077783D01*
X15388340Y-10412373D02*
X15428340Y-10452373D01*
X15428340Y-10412373D02*
X15388340Y-10452373D01*
X15410000Y-9825000D02*
X15450000Y-9865000D01*
X15450000Y-9825000D02*
X15410000Y-9865000D01*
X15410000Y-10510000D02*
X15450000Y-10550000D01*
X15450000Y-10510000D02*
X15410000Y-10550000D01*
X15412721Y-10222210D02*
X15452721Y-10262210D01*
X15452721Y-10222210D02*
X15412721Y-10262210D01*
X15415000Y-11065000D02*
X15455000Y-11105000D01*
X15455000Y-11065000D02*
X15415000Y-11105000D01*
X15416460Y-10122280D02*
X15456460Y-10162280D01*
X15456460Y-10122280D02*
X15416460Y-10162280D01*
X15440000Y-10864900D02*
X15480000Y-10904900D01*
X15480000Y-10864900D02*
X15440000Y-10904900D01*
X15445000Y-9305000D02*
X15485000Y-9345000D01*
X15485000Y-9305000D02*
X15445000Y-9345000D01*
X15479000Y-11515000D02*
X15519000Y-11555000D01*
X15519000Y-11515000D02*
X15479000Y-11555000D01*
X15525000Y-10905000D02*
X15565000Y-10945000D01*
X15565000Y-10905000D02*
X15525000Y-10945000D01*
X15560000Y-8720000D02*
X15600000Y-8760000D01*
X15600000Y-8720000D02*
X15560000Y-8760000D01*
X15560000Y-8815001D02*
X15600000Y-8855001D01*
X15600000Y-8815001D02*
X15560000Y-8855001D01*
X15581298Y-11793691D02*
X15621298Y-11833691D01*
X15621298Y-11793691D02*
X15581298Y-11833691D01*
X15595000Y-9825000D02*
X15635000Y-9865000D01*
X15635000Y-9825000D02*
X15595000Y-9865000D01*
X15605000Y-10000000D02*
X15645000Y-10040000D01*
X15645000Y-10000000D02*
X15605000Y-10040000D01*
X15610000Y-10955000D02*
X15650000Y-10995000D01*
X15650000Y-10955000D02*
X15610000Y-10995000D01*
X15618400Y-9500000D02*
X15658400Y-9540000D01*
X15658400Y-9500000D02*
X15618400Y-9540000D01*
X15620000Y-9090981D02*
X15660000Y-9130981D01*
X15660000Y-9090981D02*
X15620000Y-9130981D01*
X15672000Y-11520000D02*
X15712000Y-11560000D01*
X15712000Y-11520000D02*
X15672000Y-11560000D01*
X15740000Y-10800000D02*
X15780000Y-10840000D01*
X15780000Y-10800000D02*
X15740000Y-10840000D01*
X15745000Y-11110000D02*
X15785000Y-11150000D01*
X15785000Y-11110000D02*
X15745000Y-11150000D01*
X15750000Y-10677500D02*
X15790000Y-10717500D01*
X15790000Y-10677500D02*
X15750000Y-10717500D01*
X15750003Y-10095000D02*
X15790003Y-10135000D01*
X15790003Y-10095000D02*
X15750003Y-10135000D01*
X15763481Y-11940007D02*
X15803481Y-11980007D01*
X15803481Y-11940007D02*
X15763481Y-11980007D01*
X15780000Y-8720000D02*
X15820000Y-8760000D01*
X15820000Y-8720000D02*
X15780000Y-8760000D01*
X15780000Y-8815000D02*
X15820000Y-8855000D01*
X15820000Y-8815000D02*
X15780000Y-8855000D01*
X15818964Y-9181036D02*
X15858964Y-9221036D01*
X15858964Y-9181036D02*
X15818964Y-9221036D01*
X15818964Y-9581036D02*
X15858964Y-9621036D01*
X15858964Y-9581036D02*
X15818964Y-9621036D01*
X15819510Y-9665490D02*
X15859510Y-9705490D01*
X15859510Y-9665490D02*
X15819510Y-9705490D01*
X15820000Y-9090980D02*
X15860000Y-9130980D01*
X15860000Y-9090980D02*
X15820000Y-9130980D01*
X15840000Y-10855000D02*
X15880000Y-10895000D01*
X15880000Y-10855000D02*
X15840000Y-10895000D01*
X15915000Y-10150000D02*
X15955000Y-10190000D01*
X15955000Y-10150000D02*
X15915000Y-10190000D01*
X15915000Y-10325000D02*
X15955000Y-10365000D01*
X15955000Y-10325000D02*
X15915000Y-10365000D01*
X15920000Y-10000000D02*
X15960000Y-10040000D01*
X15960000Y-10000000D02*
X15920000Y-10040000D01*
X15925002Y-10905000D02*
X15965002Y-10945000D01*
X15965002Y-10905000D02*
X15925002Y-10945000D01*
X15930000Y-10730000D02*
X15970000Y-10770000D01*
X15970000Y-10730000D02*
X15930000Y-10770000D01*
X15997081Y-11130040D02*
X16037081Y-11170040D01*
X16037081Y-11130040D02*
X15997081Y-11170040D01*
X16010000Y-10942746D02*
X16050000Y-10982746D01*
X16050000Y-10942746D02*
X16010000Y-10982746D01*
X16074996Y-10729999D02*
X16114996Y-10769999D01*
X16114996Y-10729999D02*
X16074996Y-10769999D01*
X16110000Y-9370000D02*
X16150000Y-9410000D01*
X16150000Y-9370000D02*
X16110000Y-9410000D01*
X16110000Y-9480000D02*
X16150000Y-9520000D01*
X16150000Y-9480000D02*
X16110000Y-9520000D01*
X16147501Y-11077499D02*
X16187501Y-11117499D01*
X16187501Y-11077499D02*
X16147501Y-11117499D01*
X16355000Y-9835000D02*
X16395000Y-9875000D01*
X16395000Y-9835000D02*
X16355000Y-9875000D01*
X16375000Y-10465000D02*
X16415000Y-10505000D01*
X16415000Y-10465000D02*
X16375000Y-10505000D01*
X16660000Y-10275000D02*
X16700000Y-10315000D01*
X16700000Y-10275000D02*
X16660000Y-10315000D01*
X16700000Y-10950000D02*
X16740000Y-10990000D01*
X16740000Y-10950000D02*
X16700000Y-10990000D01*
X16905000Y-10200000D02*
X16945000Y-10240000D01*
X16945000Y-10200000D02*
X16905000Y-10240000D01*
X17000000Y-10260000D02*
X17040000Y-10300000D01*
X17040000Y-10260000D02*
X17000000Y-10300000D01*
X17040527Y-10603550D02*
X17080527Y-10643550D01*
X17080527Y-10603550D02*
X17040527Y-10643550D01*
X17079998Y-10295000D02*
X17119998Y-10335000D01*
X17119998Y-10295000D02*
X17079998Y-10335000D01*
D13*
X15808413Y-11850006D02*
G75*
G03*
X15808413Y-11850006I-25000J0D01*
G01*
D14*
X14045000Y-9287500D02*
X14045000Y-9357500D01*
X14010000Y-9322500D02*
X14080000Y-9322500D01*
X14225000Y-9075000D02*
X14225000Y-9145000D01*
X14190000Y-9110000D02*
X14260000Y-9110000D01*
X14500000Y-10557500D02*
X14500000Y-10627500D01*
X14465000Y-10592500D02*
X14535000Y-10592500D01*
X15145000Y-9370000D02*
X15145000Y-9440000D01*
X15110000Y-9405000D02*
X15180000Y-9405000D01*
X15980000Y-10552500D02*
X15980000Y-10622500D01*
X15945000Y-10587500D02*
X16015000Y-10587500D01*
X16220000Y-9045000D02*
X16220000Y-9115000D01*
X16185000Y-9080000D02*
X16255000Y-9080000D01*
X16455000Y-9317500D02*
X16455000Y-9387500D01*
X16420000Y-9352500D02*
X16490000Y-9352500D01*
D11*
X13537817Y-12431274D02*
X13537817Y-12231274D01*
X13585436Y-12231274D01*
X13614007Y-12240798D01*
X13633055Y-12259845D01*
X13642579Y-12278893D01*
X13652103Y-12316988D01*
X13652103Y-12345559D01*
X13642579Y-12383655D01*
X13633055Y-12402702D01*
X13614007Y-12421750D01*
X13585436Y-12431274D01*
X13537817Y-12431274D01*
X13737817Y-12431274D02*
X13737817Y-12297940D01*
X13737817Y-12336036D02*
X13747341Y-12316988D01*
X13756864Y-12307464D01*
X13775912Y-12297940D01*
X13794960Y-12297940D01*
X13861626Y-12431274D02*
X13861626Y-12297940D01*
X13861626Y-12231274D02*
X13852103Y-12240798D01*
X13861626Y-12250321D01*
X13871150Y-12240798D01*
X13861626Y-12231274D01*
X13861626Y-12250321D01*
X13985436Y-12431274D02*
X13966388Y-12421750D01*
X13956864Y-12402702D01*
X13956864Y-12231274D01*
X14090198Y-12431274D02*
X14071150Y-12421750D01*
X14061626Y-12402702D01*
X14061626Y-12231274D01*
X14318769Y-12431274D02*
X14318769Y-12231274D01*
X14385436Y-12374131D01*
X14452103Y-12231274D01*
X14452103Y-12431274D01*
X14633055Y-12431274D02*
X14633055Y-12326512D01*
X14623531Y-12307464D01*
X14604484Y-12297940D01*
X14566388Y-12297940D01*
X14547341Y-12307464D01*
X14633055Y-12421750D02*
X14614007Y-12431274D01*
X14566388Y-12431274D01*
X14547341Y-12421750D01*
X14537817Y-12402702D01*
X14537817Y-12383655D01*
X14547341Y-12364607D01*
X14566388Y-12355083D01*
X14614007Y-12355083D01*
X14633055Y-12345559D01*
X14728293Y-12297940D02*
X14728293Y-12497940D01*
X14728293Y-12307464D02*
X14747341Y-12297940D01*
X14785436Y-12297940D01*
X14804484Y-12307464D01*
X14814007Y-12316988D01*
X14823531Y-12336036D01*
X14823531Y-12393178D01*
X14814007Y-12412226D01*
X14804484Y-12421750D01*
X14785436Y-12431274D01*
X14747341Y-12431274D01*
X14728293Y-12421750D01*
X14909245Y-12412226D02*
X14918769Y-12421750D01*
X14909245Y-12431274D01*
X14899722Y-12421750D01*
X14909245Y-12412226D01*
X14909245Y-12431274D01*
X14909245Y-12307464D02*
X14918769Y-12316988D01*
X14909245Y-12326512D01*
X14899722Y-12316988D01*
X14909245Y-12307464D01*
X14909245Y-12326512D01*
D12*
X13240198Y-12740798D02*
X13280198Y-12780798D01*
X13280198Y-12740798D02*
X13240198Y-12780798D01*
D11*
X13575912Y-12651274D02*
X13594960Y-12651274D01*
X13614007Y-12660798D01*
X13623531Y-12670321D01*
X13633055Y-12689369D01*
X13642579Y-12727464D01*
X13642579Y-12775083D01*
X13633055Y-12813178D01*
X13623531Y-12832226D01*
X13614007Y-12841750D01*
X13594960Y-12851274D01*
X13575912Y-12851274D01*
X13556864Y-12841750D01*
X13547341Y-12832226D01*
X13537817Y-12813178D01*
X13528293Y-12775083D01*
X13528293Y-12727464D01*
X13537817Y-12689369D01*
X13547341Y-12670321D01*
X13556864Y-12660798D01*
X13575912Y-12651274D01*
X13728293Y-12832226D02*
X13737817Y-12841750D01*
X13728293Y-12851274D01*
X13718769Y-12841750D01*
X13728293Y-12832226D01*
X13728293Y-12851274D01*
X13909245Y-12717940D02*
X13909245Y-12851274D01*
X13861626Y-12641750D02*
X13814007Y-12784607D01*
X13937817Y-12784607D01*
X14052103Y-12651274D02*
X14071150Y-12651274D01*
X14090198Y-12660798D01*
X14099722Y-12670321D01*
X14109245Y-12689369D01*
X14118769Y-12727464D01*
X14118769Y-12775083D01*
X14109245Y-12813178D01*
X14099722Y-12832226D01*
X14090198Y-12841750D01*
X14071150Y-12851274D01*
X14052103Y-12851274D01*
X14033055Y-12841750D01*
X14023531Y-12832226D01*
X14014007Y-12813178D01*
X14004484Y-12775083D01*
X14004484Y-12727464D01*
X14014007Y-12689369D01*
X14023531Y-12670321D01*
X14033055Y-12660798D01*
X14052103Y-12651274D01*
X14242579Y-12651274D02*
X14261626Y-12651274D01*
X14280674Y-12660798D01*
X14290198Y-12670321D01*
X14299722Y-12689369D01*
X14309245Y-12727464D01*
X14309245Y-12775083D01*
X14299722Y-12813178D01*
X14290198Y-12832226D01*
X14280674Y-12841750D01*
X14261626Y-12851274D01*
X14242579Y-12851274D01*
X14223531Y-12841750D01*
X14214007Y-12832226D01*
X14204484Y-12813178D01*
X14194960Y-12775083D01*
X14194960Y-12727464D01*
X14204484Y-12689369D01*
X14214007Y-12670321D01*
X14223531Y-12660798D01*
X14242579Y-12651274D01*
X14394960Y-12851274D02*
X14394960Y-12717940D01*
X14394960Y-12736988D02*
X14404484Y-12727464D01*
X14423531Y-12717940D01*
X14452103Y-12717940D01*
X14471150Y-12727464D01*
X14480674Y-12746512D01*
X14480674Y-12851274D01*
X14480674Y-12746512D02*
X14490198Y-12727464D01*
X14509245Y-12717940D01*
X14537817Y-12717940D01*
X14556864Y-12727464D01*
X14566388Y-12746512D01*
X14566388Y-12851274D01*
X14661626Y-12851274D02*
X14661626Y-12717940D01*
X14661626Y-12736988D02*
X14671150Y-12727464D01*
X14690198Y-12717940D01*
X14718769Y-12717940D01*
X14737817Y-12727464D01*
X14747341Y-12746512D01*
X14747341Y-12851274D01*
X14747341Y-12746512D02*
X14756864Y-12727464D01*
X14775912Y-12717940D01*
X14804484Y-12717940D01*
X14823531Y-12727464D01*
X14833055Y-12746512D01*
X14833055Y-12851274D01*
X15223531Y-12641750D02*
X15052103Y-12898893D01*
X15480674Y-12651274D02*
X15499722Y-12651274D01*
X15518769Y-12660798D01*
X15528293Y-12670321D01*
X15537817Y-12689369D01*
X15547341Y-12727464D01*
X15547341Y-12775083D01*
X15537817Y-12813178D01*
X15528293Y-12832226D01*
X15518769Y-12841750D01*
X15499722Y-12851274D01*
X15480674Y-12851274D01*
X15461626Y-12841750D01*
X15452103Y-12832226D01*
X15442579Y-12813178D01*
X15433055Y-12775083D01*
X15433055Y-12727464D01*
X15442579Y-12689369D01*
X15452103Y-12670321D01*
X15461626Y-12660798D01*
X15480674Y-12651274D01*
X15633055Y-12832226D02*
X15642579Y-12841750D01*
X15633055Y-12851274D01*
X15623531Y-12841750D01*
X15633055Y-12832226D01*
X15633055Y-12851274D01*
X15766388Y-12651274D02*
X15785436Y-12651274D01*
X15804484Y-12660798D01*
X15814007Y-12670321D01*
X15823531Y-12689369D01*
X15833055Y-12727464D01*
X15833055Y-12775083D01*
X15823531Y-12813178D01*
X15814007Y-12832226D01*
X15804484Y-12841750D01*
X15785436Y-12851274D01*
X15766388Y-12851274D01*
X15747341Y-12841750D01*
X15737817Y-12832226D01*
X15728293Y-12813178D01*
X15718769Y-12775083D01*
X15718769Y-12727464D01*
X15728293Y-12689369D01*
X15737817Y-12670321D01*
X15747341Y-12660798D01*
X15766388Y-12651274D01*
X16023531Y-12851274D02*
X15909245Y-12851274D01*
X15966388Y-12851274D02*
X15966388Y-12651274D01*
X15947341Y-12679845D01*
X15928293Y-12698893D01*
X15909245Y-12708417D01*
X16204484Y-12651274D02*
X16109245Y-12651274D01*
X16099722Y-12746512D01*
X16109245Y-12736988D01*
X16128293Y-12727464D01*
X16175912Y-12727464D01*
X16194960Y-12736988D01*
X16204484Y-12746512D01*
X16214007Y-12765559D01*
X16214007Y-12813178D01*
X16204484Y-12832226D01*
X16194960Y-12841750D01*
X16175912Y-12851274D01*
X16128293Y-12851274D01*
X16109245Y-12841750D01*
X16099722Y-12832226D01*
X16280674Y-12651274D02*
X16414007Y-12651274D01*
X16328293Y-12851274D01*
X16480674Y-12651274D02*
X16480674Y-12689369D01*
X16556864Y-12651274D02*
X16556864Y-12689369D01*
X16852103Y-12927464D02*
X16842579Y-12917940D01*
X16823531Y-12889369D01*
X16814007Y-12870321D01*
X16804484Y-12841750D01*
X16794960Y-12794131D01*
X16794960Y-12756036D01*
X16804484Y-12708417D01*
X16814007Y-12679845D01*
X16823531Y-12660798D01*
X16842579Y-12632226D01*
X16852103Y-12622702D01*
X17033055Y-12851274D02*
X16918769Y-12851274D01*
X16975912Y-12851274D02*
X16975912Y-12651274D01*
X16956865Y-12679845D01*
X16937817Y-12698893D01*
X16918769Y-12708417D01*
X17109246Y-12670321D02*
X17118769Y-12660798D01*
X17137817Y-12651274D01*
X17185436Y-12651274D01*
X17204484Y-12660798D01*
X17214007Y-12670321D01*
X17223531Y-12689369D01*
X17223531Y-12708417D01*
X17214007Y-12736988D01*
X17099722Y-12851274D01*
X17223531Y-12851274D01*
X17394960Y-12651274D02*
X17356865Y-12651274D01*
X17337817Y-12660798D01*
X17328293Y-12670321D01*
X17309246Y-12698893D01*
X17299722Y-12736988D01*
X17299722Y-12813178D01*
X17309246Y-12832226D01*
X17318769Y-12841750D01*
X17337817Y-12851274D01*
X17375912Y-12851274D01*
X17394960Y-12841750D01*
X17404484Y-12832226D01*
X17414007Y-12813178D01*
X17414007Y-12765559D01*
X17404484Y-12746512D01*
X17394960Y-12736988D01*
X17375912Y-12727464D01*
X17337817Y-12727464D01*
X17318769Y-12736988D01*
X17309246Y-12746512D01*
X17299722Y-12765559D01*
X17652103Y-12851274D02*
X17652103Y-12651274D01*
X17737817Y-12851274D02*
X17737817Y-12746512D01*
X17728293Y-12727464D01*
X17709246Y-12717940D01*
X17680674Y-12717940D01*
X17661626Y-12727464D01*
X17652103Y-12736988D01*
X17861626Y-12851274D02*
X17842579Y-12841750D01*
X17833055Y-12832226D01*
X17823531Y-12813178D01*
X17823531Y-12756036D01*
X17833055Y-12736988D01*
X17842579Y-12727464D01*
X17861626Y-12717940D01*
X17890198Y-12717940D01*
X17909246Y-12727464D01*
X17918769Y-12736988D01*
X17928293Y-12756036D01*
X17928293Y-12813178D01*
X17918769Y-12832226D01*
X17909246Y-12841750D01*
X17890198Y-12851274D01*
X17861626Y-12851274D01*
X18042579Y-12851274D02*
X18023531Y-12841750D01*
X18014007Y-12822702D01*
X18014007Y-12651274D01*
X18194960Y-12841750D02*
X18175912Y-12851274D01*
X18137817Y-12851274D01*
X18118769Y-12841750D01*
X18109246Y-12822702D01*
X18109246Y-12746512D01*
X18118769Y-12727464D01*
X18137817Y-12717940D01*
X18175912Y-12717940D01*
X18194960Y-12727464D01*
X18204484Y-12746512D01*
X18204484Y-12765559D01*
X18109246Y-12784607D01*
X18280674Y-12841750D02*
X18299722Y-12851274D01*
X18337817Y-12851274D01*
X18356865Y-12841750D01*
X18366388Y-12822702D01*
X18366388Y-12813178D01*
X18356865Y-12794131D01*
X18337817Y-12784607D01*
X18309246Y-12784607D01*
X18290198Y-12775083D01*
X18280674Y-12756036D01*
X18280674Y-12746512D01*
X18290198Y-12727464D01*
X18309246Y-12717940D01*
X18337817Y-12717940D01*
X18356865Y-12727464D01*
X18433055Y-12927464D02*
X18442579Y-12917940D01*
X18461626Y-12889369D01*
X18471150Y-12870321D01*
X18480674Y-12841750D01*
X18490198Y-12794131D01*
X18490198Y-12756036D01*
X18480674Y-12708417D01*
X18471150Y-12679845D01*
X18461626Y-12660798D01*
X18442579Y-12632226D01*
X18433055Y-12622702D01*
D13*
X13280198Y-13024798D02*
G75*
G03*
X13280198Y-13024798I-25000J0D01*
G01*
D11*
X13575912Y-12915274D02*
X13594960Y-12915274D01*
X13614007Y-12924798D01*
X13623531Y-12934321D01*
X13633055Y-12953369D01*
X13642579Y-12991464D01*
X13642579Y-13039083D01*
X13633055Y-13077178D01*
X13623531Y-13096226D01*
X13614007Y-13105750D01*
X13594960Y-13115274D01*
X13575912Y-13115274D01*
X13556864Y-13105750D01*
X13547341Y-13096226D01*
X13537817Y-13077178D01*
X13528293Y-13039083D01*
X13528293Y-12991464D01*
X13537817Y-12953369D01*
X13547341Y-12934321D01*
X13556864Y-12924798D01*
X13575912Y-12915274D01*
X13728293Y-13096226D02*
X13737817Y-13105750D01*
X13728293Y-13115274D01*
X13718769Y-13105750D01*
X13728293Y-13096226D01*
X13728293Y-13115274D01*
X13918769Y-12915274D02*
X13823531Y-12915274D01*
X13814007Y-13010512D01*
X13823531Y-13000988D01*
X13842579Y-12991464D01*
X13890198Y-12991464D01*
X13909245Y-13000988D01*
X13918769Y-13010512D01*
X13928293Y-13029559D01*
X13928293Y-13077178D01*
X13918769Y-13096226D01*
X13909245Y-13105750D01*
X13890198Y-13115274D01*
X13842579Y-13115274D01*
X13823531Y-13105750D01*
X13814007Y-13096226D01*
X14052103Y-12915274D02*
X14071150Y-12915274D01*
X14090198Y-12924798D01*
X14099722Y-12934321D01*
X14109245Y-12953369D01*
X14118769Y-12991464D01*
X14118769Y-13039083D01*
X14109245Y-13077178D01*
X14099722Y-13096226D01*
X14090198Y-13105750D01*
X14071150Y-13115274D01*
X14052103Y-13115274D01*
X14033055Y-13105750D01*
X14023531Y-13096226D01*
X14014007Y-13077178D01*
X14004484Y-13039083D01*
X14004484Y-12991464D01*
X14014007Y-12953369D01*
X14023531Y-12934321D01*
X14033055Y-12924798D01*
X14052103Y-12915274D01*
X14242579Y-12915274D02*
X14261626Y-12915274D01*
X14280674Y-12924798D01*
X14290198Y-12934321D01*
X14299722Y-12953369D01*
X14309245Y-12991464D01*
X14309245Y-13039083D01*
X14299722Y-13077178D01*
X14290198Y-13096226D01*
X14280674Y-13105750D01*
X14261626Y-13115274D01*
X14242579Y-13115274D01*
X14223531Y-13105750D01*
X14214007Y-13096226D01*
X14204484Y-13077178D01*
X14194960Y-13039083D01*
X14194960Y-12991464D01*
X14204484Y-12953369D01*
X14214007Y-12934321D01*
X14223531Y-12924798D01*
X14242579Y-12915274D01*
X14394960Y-13115274D02*
X14394960Y-12981940D01*
X14394960Y-13000988D02*
X14404484Y-12991464D01*
X14423531Y-12981940D01*
X14452103Y-12981940D01*
X14471150Y-12991464D01*
X14480674Y-13010512D01*
X14480674Y-13115274D01*
X14480674Y-13010512D02*
X14490198Y-12991464D01*
X14509245Y-12981940D01*
X14537817Y-12981940D01*
X14556864Y-12991464D01*
X14566388Y-13010512D01*
X14566388Y-13115274D01*
X14661626Y-13115274D02*
X14661626Y-12981940D01*
X14661626Y-13000988D02*
X14671150Y-12991464D01*
X14690198Y-12981940D01*
X14718769Y-12981940D01*
X14737817Y-12991464D01*
X14747341Y-13010512D01*
X14747341Y-13115274D01*
X14747341Y-13010512D02*
X14756864Y-12991464D01*
X14775912Y-12981940D01*
X14804484Y-12981940D01*
X14823531Y-12991464D01*
X14833055Y-13010512D01*
X14833055Y-13115274D01*
X15223531Y-12905750D02*
X15052103Y-13162893D01*
X15480674Y-12915274D02*
X15499722Y-12915274D01*
X15518769Y-12924798D01*
X15528293Y-12934321D01*
X15537817Y-12953369D01*
X15547341Y-12991464D01*
X15547341Y-13039083D01*
X15537817Y-13077178D01*
X15528293Y-13096226D01*
X15518769Y-13105750D01*
X15499722Y-13115274D01*
X15480674Y-13115274D01*
X15461626Y-13105750D01*
X15452103Y-13096226D01*
X15442579Y-13077178D01*
X15433055Y-13039083D01*
X15433055Y-12991464D01*
X15442579Y-12953369D01*
X15452103Y-12934321D01*
X15461626Y-12924798D01*
X15480674Y-12915274D01*
X15633055Y-13096226D02*
X15642579Y-13105750D01*
X15633055Y-13115274D01*
X15623531Y-13105750D01*
X15633055Y-13096226D01*
X15633055Y-13115274D01*
X15766388Y-12915274D02*
X15785436Y-12915274D01*
X15804484Y-12924798D01*
X15814007Y-12934321D01*
X15823531Y-12953369D01*
X15833055Y-12991464D01*
X15833055Y-13039083D01*
X15823531Y-13077178D01*
X15814007Y-13096226D01*
X15804484Y-13105750D01*
X15785436Y-13115274D01*
X15766388Y-13115274D01*
X15747341Y-13105750D01*
X15737817Y-13096226D01*
X15728293Y-13077178D01*
X15718769Y-13039083D01*
X15718769Y-12991464D01*
X15728293Y-12953369D01*
X15737817Y-12934321D01*
X15747341Y-12924798D01*
X15766388Y-12915274D01*
X16023531Y-13115274D02*
X15909245Y-13115274D01*
X15966388Y-13115274D02*
X15966388Y-12915274D01*
X15947341Y-12943845D01*
X15928293Y-12962893D01*
X15909245Y-12972417D01*
X16118769Y-13115274D02*
X16156864Y-13115274D01*
X16175912Y-13105750D01*
X16185436Y-13096226D01*
X16204484Y-13067655D01*
X16214007Y-13029559D01*
X16214007Y-12953369D01*
X16204484Y-12934321D01*
X16194960Y-12924798D01*
X16175912Y-12915274D01*
X16137817Y-12915274D01*
X16118769Y-12924798D01*
X16109245Y-12934321D01*
X16099722Y-12953369D01*
X16099722Y-13000988D01*
X16109245Y-13020036D01*
X16118769Y-13029559D01*
X16137817Y-13039083D01*
X16175912Y-13039083D01*
X16194960Y-13029559D01*
X16204484Y-13020036D01*
X16214007Y-13000988D01*
X16280674Y-12915274D02*
X16414007Y-12915274D01*
X16328293Y-13115274D01*
X16480674Y-12915274D02*
X16480674Y-12953369D01*
X16556864Y-12915274D02*
X16556864Y-12953369D01*
X16852103Y-13191464D02*
X16842579Y-13181940D01*
X16823531Y-13153369D01*
X16814007Y-13134321D01*
X16804484Y-13105750D01*
X16794960Y-13058131D01*
X16794960Y-13020036D01*
X16804484Y-12972417D01*
X16814007Y-12943845D01*
X16823531Y-12924798D01*
X16842579Y-12896226D01*
X16852103Y-12886702D01*
X17033055Y-13115274D02*
X16918769Y-13115274D01*
X16975912Y-13115274D02*
X16975912Y-12915274D01*
X16956865Y-12943845D01*
X16937817Y-12962893D01*
X16918769Y-12972417D01*
X17271150Y-13115274D02*
X17271150Y-12915274D01*
X17356865Y-13115274D02*
X17356865Y-13010512D01*
X17347341Y-12991464D01*
X17328293Y-12981940D01*
X17299722Y-12981940D01*
X17280674Y-12991464D01*
X17271150Y-13000988D01*
X17480674Y-13115274D02*
X17461626Y-13105750D01*
X17452103Y-13096226D01*
X17442579Y-13077178D01*
X17442579Y-13020036D01*
X17452103Y-13000988D01*
X17461626Y-12991464D01*
X17480674Y-12981940D01*
X17509246Y-12981940D01*
X17528293Y-12991464D01*
X17537817Y-13000988D01*
X17547341Y-13020036D01*
X17547341Y-13077178D01*
X17537817Y-13096226D01*
X17528293Y-13105750D01*
X17509246Y-13115274D01*
X17480674Y-13115274D01*
X17661626Y-13115274D02*
X17642579Y-13105750D01*
X17633055Y-13086702D01*
X17633055Y-12915274D01*
X17814007Y-13105750D02*
X17794960Y-13115274D01*
X17756865Y-13115274D01*
X17737817Y-13105750D01*
X17728293Y-13086702D01*
X17728293Y-13010512D01*
X17737817Y-12991464D01*
X17756865Y-12981940D01*
X17794960Y-12981940D01*
X17814007Y-12991464D01*
X17823531Y-13010512D01*
X17823531Y-13029559D01*
X17728293Y-13048607D01*
X17890198Y-13191464D02*
X17899722Y-13181940D01*
X17918769Y-13153369D01*
X17928293Y-13134321D01*
X17937817Y-13105750D01*
X17947341Y-13058131D01*
X17947341Y-13020036D01*
X17937817Y-12972417D01*
X17928293Y-12943845D01*
X17918769Y-12924798D01*
X17899722Y-12896226D01*
X17890198Y-12886702D01*
D14*
X13245198Y-13253798D02*
X13245198Y-13323798D01*
X13210198Y-13288798D02*
X13280198Y-13288798D01*
D11*
X13575912Y-13179274D02*
X13594960Y-13179274D01*
X13614007Y-13188798D01*
X13623531Y-13198321D01*
X13633055Y-13217369D01*
X13642579Y-13255464D01*
X13642579Y-13303083D01*
X13633055Y-13341178D01*
X13623531Y-13360226D01*
X13614007Y-13369750D01*
X13594960Y-13379274D01*
X13575912Y-13379274D01*
X13556864Y-13369750D01*
X13547341Y-13360226D01*
X13537817Y-13341178D01*
X13528293Y-13303083D01*
X13528293Y-13255464D01*
X13537817Y-13217369D01*
X13547341Y-13198321D01*
X13556864Y-13188798D01*
X13575912Y-13179274D01*
X13728293Y-13360226D02*
X13737817Y-13369750D01*
X13728293Y-13379274D01*
X13718769Y-13369750D01*
X13728293Y-13360226D01*
X13728293Y-13379274D01*
X13804484Y-13179274D02*
X13937817Y-13179274D01*
X13852103Y-13379274D01*
X14052103Y-13179274D02*
X14071150Y-13179274D01*
X14090198Y-13188798D01*
X14099722Y-13198321D01*
X14109245Y-13217369D01*
X14118769Y-13255464D01*
X14118769Y-13303083D01*
X14109245Y-13341178D01*
X14099722Y-13360226D01*
X14090198Y-13369750D01*
X14071150Y-13379274D01*
X14052103Y-13379274D01*
X14033055Y-13369750D01*
X14023531Y-13360226D01*
X14014007Y-13341178D01*
X14004484Y-13303083D01*
X14004484Y-13255464D01*
X14014007Y-13217369D01*
X14023531Y-13198321D01*
X14033055Y-13188798D01*
X14052103Y-13179274D01*
X14242579Y-13179274D02*
X14261626Y-13179274D01*
X14280674Y-13188798D01*
X14290198Y-13198321D01*
X14299722Y-13217369D01*
X14309245Y-13255464D01*
X14309245Y-13303083D01*
X14299722Y-13341178D01*
X14290198Y-13360226D01*
X14280674Y-13369750D01*
X14261626Y-13379274D01*
X14242579Y-13379274D01*
X14223531Y-13369750D01*
X14214007Y-13360226D01*
X14204484Y-13341178D01*
X14194960Y-13303083D01*
X14194960Y-13255464D01*
X14204484Y-13217369D01*
X14214007Y-13198321D01*
X14223531Y-13188798D01*
X14242579Y-13179274D01*
X14394960Y-13379274D02*
X14394960Y-13245940D01*
X14394960Y-13264988D02*
X14404484Y-13255464D01*
X14423531Y-13245940D01*
X14452103Y-13245940D01*
X14471150Y-13255464D01*
X14480674Y-13274512D01*
X14480674Y-13379274D01*
X14480674Y-13274512D02*
X14490198Y-13255464D01*
X14509245Y-13245940D01*
X14537817Y-13245940D01*
X14556864Y-13255464D01*
X14566388Y-13274512D01*
X14566388Y-13379274D01*
X14661626Y-13379274D02*
X14661626Y-13245940D01*
X14661626Y-13264988D02*
X14671150Y-13255464D01*
X14690198Y-13245940D01*
X14718769Y-13245940D01*
X14737817Y-13255464D01*
X14747341Y-13274512D01*
X14747341Y-13379274D01*
X14747341Y-13274512D02*
X14756864Y-13255464D01*
X14775912Y-13245940D01*
X14804484Y-13245940D01*
X14823531Y-13255464D01*
X14833055Y-13274512D01*
X14833055Y-13379274D01*
X15223531Y-13169750D02*
X15052103Y-13426893D01*
X15480674Y-13179274D02*
X15499722Y-13179274D01*
X15518769Y-13188798D01*
X15528293Y-13198321D01*
X15537817Y-13217369D01*
X15547341Y-13255464D01*
X15547341Y-13303083D01*
X15537817Y-13341178D01*
X15528293Y-13360226D01*
X15518769Y-13369750D01*
X15499722Y-13379274D01*
X15480674Y-13379274D01*
X15461626Y-13369750D01*
X15452103Y-13360226D01*
X15442579Y-13341178D01*
X15433055Y-13303083D01*
X15433055Y-13255464D01*
X15442579Y-13217369D01*
X15452103Y-13198321D01*
X15461626Y-13188798D01*
X15480674Y-13179274D01*
X15633055Y-13360226D02*
X15642579Y-13369750D01*
X15633055Y-13379274D01*
X15623531Y-13369750D01*
X15633055Y-13360226D01*
X15633055Y-13379274D01*
X15766388Y-13179274D02*
X15785436Y-13179274D01*
X15804484Y-13188798D01*
X15814007Y-13198321D01*
X15823531Y-13217369D01*
X15833055Y-13255464D01*
X15833055Y-13303083D01*
X15823531Y-13341178D01*
X15814007Y-13360226D01*
X15804484Y-13369750D01*
X15785436Y-13379274D01*
X15766388Y-13379274D01*
X15747341Y-13369750D01*
X15737817Y-13360226D01*
X15728293Y-13341178D01*
X15718769Y-13303083D01*
X15718769Y-13255464D01*
X15728293Y-13217369D01*
X15737817Y-13198321D01*
X15747341Y-13188798D01*
X15766388Y-13179274D01*
X15909245Y-13198321D02*
X15918769Y-13188798D01*
X15937817Y-13179274D01*
X15985436Y-13179274D01*
X16004484Y-13188798D01*
X16014007Y-13198321D01*
X16023531Y-13217369D01*
X16023531Y-13236417D01*
X16014007Y-13264988D01*
X15899722Y-13379274D01*
X16023531Y-13379274D01*
X16090198Y-13179274D02*
X16223531Y-13179274D01*
X16137817Y-13379274D01*
X16385436Y-13179274D02*
X16347341Y-13179274D01*
X16328293Y-13188798D01*
X16318769Y-13198321D01*
X16299722Y-13226893D01*
X16290198Y-13264988D01*
X16290198Y-13341178D01*
X16299722Y-13360226D01*
X16309245Y-13369750D01*
X16328293Y-13379274D01*
X16366388Y-13379274D01*
X16385436Y-13369750D01*
X16394960Y-13360226D01*
X16404484Y-13341178D01*
X16404484Y-13293559D01*
X16394960Y-13274512D01*
X16385436Y-13264988D01*
X16366388Y-13255464D01*
X16328293Y-13255464D01*
X16309245Y-13264988D01*
X16299722Y-13274512D01*
X16290198Y-13293559D01*
X16480674Y-13179274D02*
X16480674Y-13217369D01*
X16556864Y-13179274D02*
X16556864Y-13217369D01*
X16852103Y-13455464D02*
X16842579Y-13445940D01*
X16823531Y-13417369D01*
X16814007Y-13398321D01*
X16804484Y-13369750D01*
X16794960Y-13322131D01*
X16794960Y-13284036D01*
X16804484Y-13236417D01*
X16814007Y-13207845D01*
X16823531Y-13188798D01*
X16842579Y-13160226D01*
X16852103Y-13150702D01*
X16909246Y-13179274D02*
X17042579Y-13179274D01*
X16956865Y-13379274D01*
X17271150Y-13379274D02*
X17271150Y-13179274D01*
X17356865Y-13379274D02*
X17356865Y-13274512D01*
X17347341Y-13255464D01*
X17328293Y-13245940D01*
X17299722Y-13245940D01*
X17280674Y-13255464D01*
X17271150Y-13264988D01*
X17480674Y-13379274D02*
X17461626Y-13369750D01*
X17452103Y-13360226D01*
X17442579Y-13341178D01*
X17442579Y-13284036D01*
X17452103Y-13264988D01*
X17461626Y-13255464D01*
X17480674Y-13245940D01*
X17509246Y-13245940D01*
X17528293Y-13255464D01*
X17537817Y-13264988D01*
X17547341Y-13284036D01*
X17547341Y-13341178D01*
X17537817Y-13360226D01*
X17528293Y-13369750D01*
X17509246Y-13379274D01*
X17480674Y-13379274D01*
X17661626Y-13379274D02*
X17642579Y-13369750D01*
X17633055Y-13350702D01*
X17633055Y-13179274D01*
X17814007Y-13369750D02*
X17794960Y-13379274D01*
X17756865Y-13379274D01*
X17737817Y-13369750D01*
X17728293Y-13350702D01*
X17728293Y-13274512D01*
X17737817Y-13255464D01*
X17756865Y-13245940D01*
X17794960Y-13245940D01*
X17814007Y-13255464D01*
X17823531Y-13274512D01*
X17823531Y-13293559D01*
X17728293Y-13312607D01*
X17899722Y-13369750D02*
X17918769Y-13379274D01*
X17956865Y-13379274D01*
X17975912Y-13369750D01*
X17985436Y-13350702D01*
X17985436Y-13341178D01*
X17975912Y-13322131D01*
X17956865Y-13312607D01*
X17928293Y-13312607D01*
X17909246Y-13303083D01*
X17899722Y-13284036D01*
X17899722Y-13274512D01*
X17909246Y-13255464D01*
X17928293Y-13245940D01*
X17956865Y-13245940D01*
X17975912Y-13255464D01*
X18052103Y-13455464D02*
X18061626Y-13445940D01*
X18080674Y-13417369D01*
X18090198Y-13398321D01*
X18099722Y-13369750D01*
X18109246Y-13322131D01*
X18109246Y-13284036D01*
X18099722Y-13236417D01*
X18090198Y-13207845D01*
X18080674Y-13188798D01*
X18061626Y-13160226D01*
X18052103Y-13150702D01*
M02*
