%TF.GenerationSoftware,KiCad,Pcbnew,(6.0.5)*%
%TF.CreationDate,2022-06-17T18:07:44-04:00*%
%TF.ProjectId,Maka_BMS,4d616b61-5f42-44d5-932e-6b696361645f,rev?*%
%TF.SameCoordinates,Original*%
%TF.FileFunction,Paste,Top*%
%TF.FilePolarity,Positive*%
%FSLAX46Y46*%
G04 Gerber Fmt 4.6, Leading zero omitted, Abs format (unit mm)*
G04 Created by KiCad (PCBNEW (6.0.5)) date 2022-06-17 18:07:44*
%MOMM*%
%LPD*%
G01*
G04 APERTURE LIST*
G04 Aperture macros list*
%AMRoundRect*
0 Rectangle with rounded corners*
0 $1 Rounding radius*
0 $2 $3 $4 $5 $6 $7 $8 $9 X,Y pos of 4 corners*
0 Add a 4 corners polygon primitive as box body*
4,1,4,$2,$3,$4,$5,$6,$7,$8,$9,$2,$3,0*
0 Add four circle primitives for the rounded corners*
1,1,$1+$1,$2,$3*
1,1,$1+$1,$4,$5*
1,1,$1+$1,$6,$7*
1,1,$1+$1,$8,$9*
0 Add four rect primitives between the rounded corners*
20,1,$1+$1,$2,$3,$4,$5,0*
20,1,$1+$1,$4,$5,$6,$7,0*
20,1,$1+$1,$6,$7,$8,$9,0*
20,1,$1+$1,$8,$9,$2,$3,0*%
%AMRotRect*
0 Rectangle, with rotation*
0 The origin of the aperture is its center*
0 $1 length*
0 $2 width*
0 $3 Rotation angle, in degrees counterclockwise*
0 Add horizontal line*
21,1,$1,$2,0,0,$3*%
G04 Aperture macros list end*
%ADD10RoundRect,0.250000X-0.375000X-0.850000X0.375000X-0.850000X0.375000X0.850000X-0.375000X0.850000X0*%
%ADD11R,0.650000X1.220000*%
%ADD12R,1.060000X0.650000*%
%ADD13RoundRect,0.218750X-0.256250X0.218750X-0.256250X-0.218750X0.256250X-0.218750X0.256250X0.218750X0*%
%ADD14RotRect,2.150000X4.500000X250.000000*%
%ADD15R,1.000000X1.750000*%
%ADD16RoundRect,0.250001X-0.462499X-0.624999X0.462499X-0.624999X0.462499X0.624999X-0.462499X0.624999X0*%
%ADD17R,0.650000X1.060000*%
%ADD18RoundRect,0.147500X-0.147500X-0.172500X0.147500X-0.172500X0.147500X0.172500X-0.147500X0.172500X0*%
%ADD19R,1.200000X0.900000*%
%ADD20RoundRect,0.250001X-0.624999X0.462499X-0.624999X-0.462499X0.624999X-0.462499X0.624999X0.462499X0*%
%ADD21R,1.220000X0.650000*%
%ADD22R,1.800000X2.500000*%
%ADD23RoundRect,0.147500X-0.212545X0.079606X-0.111649X-0.197603X0.212545X-0.079606X0.111649X0.197603X0*%
%ADD24RoundRect,0.147500X-0.079606X-0.212545X0.197603X-0.111649X0.079606X0.212545X-0.197603X0.111649X0*%
%ADD25RoundRect,0.147500X0.079606X0.212545X-0.197603X0.111649X-0.079606X-0.212545X0.197603X-0.111649X0*%
%ADD26R,2.500000X1.800000*%
%ADD27R,2.150000X4.500000*%
%ADD28RoundRect,0.218750X-0.293200X-0.165979X0.117915X-0.315613X0.293200X0.165979X-0.117915X0.315613X0*%
%ADD29RoundRect,0.147500X0.197603X0.111649X-0.079606X0.212545X-0.197603X-0.111649X0.079606X-0.212545X0*%
%ADD30RotRect,2.300000X1.400000X160.000000*%
%ADD31RotRect,1.250000X1.400000X160.000000*%
%ADD32RoundRect,0.147500X-0.197603X-0.111649X0.079606X-0.212545X0.197603X0.111649X-0.079606X0.212545X0*%
%ADD33R,1.200000X0.400000*%
%ADD34RoundRect,0.100000X0.564852X0.312007X-0.633256X-0.124069X-0.564852X-0.312007X0.633256X0.124069X0*%
%ADD35RoundRect,0.147500X0.172500X-0.147500X0.172500X0.147500X-0.172500X0.147500X-0.172500X-0.147500X0*%
%ADD36RoundRect,0.218750X0.256250X-0.218750X0.256250X0.218750X-0.256250X0.218750X-0.256250X-0.218750X0*%
G04 APERTURE END LIST*
D10*
%TO.C,L1*%
X150850000Y-117450000D03*
X153000000Y-117450000D03*
%TD*%
D11*
%TO.C,U4*%
X146775000Y-118435000D03*
X147725000Y-118435000D03*
X148675000Y-118435000D03*
X148675000Y-115815000D03*
X147725000Y-115815000D03*
X146775000Y-115815000D03*
%TD*%
D12*
%TO.C,Q4*%
X155800000Y-88350000D03*
X158000000Y-88350000D03*
X155800000Y-87400000D03*
X158000000Y-87400000D03*
X155800000Y-89300000D03*
X158000000Y-89300000D03*
%TD*%
D13*
%TO.C,C16*%
X153200000Y-108712500D03*
X153200000Y-110287500D03*
%TD*%
D14*
%TO.C,L2*%
X167143894Y-107106169D03*
X165656106Y-111193831D03*
%TD*%
D15*
%TO.C,J9*%
X158400000Y-96859800D03*
X158400000Y-91109800D03*
X156400000Y-96859800D03*
X156400000Y-91109800D03*
X154400000Y-96859800D03*
X154400000Y-91109800D03*
X152400000Y-96859800D03*
X152400000Y-91109800D03*
X150400000Y-96859800D03*
X150400000Y-91109800D03*
X148400000Y-96859800D03*
X148400000Y-91109800D03*
X146400000Y-96859800D03*
X146400000Y-91109800D03*
%TD*%
D12*
%TO.C,Q5*%
X157700000Y-103050000D03*
X155500000Y-102100000D03*
X157700000Y-102100000D03*
X155500000Y-103050000D03*
X157700000Y-101150000D03*
X155500000Y-101150000D03*
%TD*%
%TO.C,Q3*%
X143300000Y-97100000D03*
X141100000Y-97100000D03*
X141100000Y-96150000D03*
X143300000Y-96150000D03*
X143300000Y-95200000D03*
X141100000Y-95200000D03*
%TD*%
%TO.C,Q2*%
X143300000Y-98850000D03*
X141100000Y-99800000D03*
X141100000Y-98850000D03*
X143300000Y-99800000D03*
X141100000Y-100750000D03*
X143300000Y-100750000D03*
%TD*%
D13*
%TO.C,C23*%
X148800000Y-108262500D03*
X148800000Y-109837500D03*
%TD*%
D16*
%TO.C,R29*%
X154575000Y-99150000D03*
X157550000Y-99150000D03*
%TD*%
D17*
%TO.C,U2*%
X152400000Y-112100000D03*
X151450000Y-112100000D03*
X150500000Y-112100000D03*
X150500000Y-114300000D03*
X152400000Y-114300000D03*
%TD*%
D18*
%TO.C,R19*%
X144750000Y-111500000D03*
X145720000Y-111500000D03*
%TD*%
D13*
%TO.C,C15*%
X150300000Y-108800000D03*
X150300000Y-110375000D03*
%TD*%
D19*
%TO.C,D3*%
X162150000Y-105400000D03*
X162150000Y-108700000D03*
%TD*%
D12*
%TO.C,Q1*%
X146726400Y-88392000D03*
X148926400Y-88392000D03*
X146726400Y-87442000D03*
X148926400Y-87442000D03*
X146726400Y-89342000D03*
X148926400Y-89342000D03*
%TD*%
D13*
%TO.C,C14*%
X147300000Y-108262500D03*
X147300000Y-109837500D03*
%TD*%
D20*
%TO.C,R8*%
X145300000Y-100500000D03*
X145300000Y-103475000D03*
%TD*%
D21*
%TO.C,U1*%
X157710000Y-117300000D03*
X157710000Y-116350000D03*
X157710000Y-115400000D03*
X155090000Y-115400000D03*
X155090000Y-116350000D03*
X155090000Y-117300000D03*
%TD*%
D22*
%TO.C,D1*%
X161425000Y-93550000D03*
X161425000Y-97550000D03*
%TD*%
D23*
%TO.C,C2*%
X142759120Y-105894249D03*
X143090880Y-106805751D03*
%TD*%
D24*
%TO.C,R3*%
X142338498Y-104841760D03*
X143250000Y-104510000D03*
%TD*%
D23*
%TO.C,R1*%
X143815880Y-108605751D03*
X143484120Y-107694249D03*
%TD*%
D25*
%TO.C,C4*%
X142895751Y-103514120D03*
X141984249Y-103845880D03*
%TD*%
D12*
%TO.C,Q6*%
X155500000Y-105700000D03*
X155500000Y-104750000D03*
X157700000Y-105700000D03*
X157700000Y-104750000D03*
X155500000Y-106650000D03*
X157700000Y-106650000D03*
%TD*%
D26*
%TO.C,D2*%
X159450000Y-109250000D03*
X155450000Y-109250000D03*
%TD*%
D27*
%TO.C,L3*%
X160000000Y-101875000D03*
X164350000Y-101875000D03*
%TD*%
D28*
%TO.C,C11*%
X169100000Y-104850000D03*
X170580016Y-105388682D03*
%TD*%
D29*
%TO.C,R32*%
X167655751Y-105165880D03*
X166744249Y-104834120D03*
%TD*%
D30*
%TO.C,D4*%
X169500000Y-102900000D03*
D31*
X167338707Y-102113354D03*
%TD*%
D32*
%TO.C,R21*%
X168000000Y-104231760D03*
X167088498Y-103900000D03*
%TD*%
D24*
%TO.C,R5*%
X143044249Y-110190880D03*
X143955751Y-109859120D03*
%TD*%
D33*
%TO.C,U5*%
X147550000Y-99382500D03*
X147550000Y-100017500D03*
X147550000Y-100652500D03*
X147550000Y-101287500D03*
X147550000Y-101922500D03*
X147550000Y-102557500D03*
X147550000Y-103192500D03*
X147550000Y-103827500D03*
X147550000Y-104462500D03*
X147550000Y-105097500D03*
X147550000Y-105732500D03*
X147550000Y-106367500D03*
X152750000Y-106367500D03*
X152750000Y-105732500D03*
X152750000Y-105097500D03*
X152750000Y-104462500D03*
X152750000Y-103827500D03*
X152750000Y-103192500D03*
X152750000Y-102557500D03*
X152750000Y-101922500D03*
X152750000Y-101287500D03*
X152750000Y-100652500D03*
X152750000Y-100017500D03*
X152750000Y-99382500D03*
%TD*%
D34*
%TO.C,U3*%
X142427053Y-109302734D03*
X142204740Y-108691934D03*
X141982427Y-108081134D03*
X141760114Y-107470334D03*
X141537801Y-106859534D03*
X141315488Y-106248733D03*
X141093175Y-105637933D03*
X140870861Y-105027133D03*
X140648548Y-104416333D03*
X140426235Y-103805533D03*
X140203922Y-103194732D03*
X139981609Y-102583932D03*
X134601869Y-104541998D03*
X134824182Y-105152798D03*
X135046495Y-105763598D03*
X135268808Y-106374398D03*
X135491121Y-106985198D03*
X135713434Y-107595999D03*
X135935747Y-108206799D03*
X136158061Y-108817599D03*
X136380374Y-109428399D03*
X136602687Y-110039199D03*
X136825000Y-110650000D03*
X137047313Y-111260800D03*
%TD*%
D12*
%TO.C,U7*%
X154050000Y-111850000D03*
X154050000Y-112800000D03*
X154050000Y-113750000D03*
X156250000Y-113750000D03*
X156250000Y-111850000D03*
%TD*%
D35*
%TO.C,C24*%
X159100000Y-112470000D03*
X159100000Y-111500000D03*
%TD*%
D36*
%TO.C,C25*%
X157850000Y-112362500D03*
X157850000Y-113937500D03*
%TD*%
D18*
%TO.C,C13*%
X152815000Y-115600000D03*
X153785000Y-115600000D03*
%TD*%
M02*
