%TF.GenerationSoftware,KiCad,Pcbnew,(6.0.5)*%
%TF.CreationDate,2022-06-17T15:31:11-04:00*%
%TF.ProjectId,Hall_ring,48616c6c-5f72-4696-9e67-2e6b69636164,0*%
%TF.SameCoordinates,Original*%
%TF.FileFunction,Legend,Bot*%
%TF.FilePolarity,Positive*%
%FSLAX46Y46*%
G04 Gerber Fmt 4.6, Leading zero omitted, Abs format (unit mm)*
G04 Created by KiCad (PCBNEW (6.0.5)) date 2022-06-17 15:31:11*
%MOMM*%
%LPD*%
G01*
G04 APERTURE LIST*
G04 Aperture macros list*
%AMRoundRect*
0 Rectangle with rounded corners*
0 $1 Rounding radius*
0 $2 $3 $4 $5 $6 $7 $8 $9 X,Y pos of 4 corners*
0 Add a 4 corners polygon primitive as box body*
4,1,4,$2,$3,$4,$5,$6,$7,$8,$9,$2,$3,0*
0 Add four circle primitives for the rounded corners*
1,1,$1+$1,$2,$3*
1,1,$1+$1,$4,$5*
1,1,$1+$1,$6,$7*
1,1,$1+$1,$8,$9*
0 Add four rect primitives between the rounded corners*
20,1,$1+$1,$2,$3,$4,$5,0*
20,1,$1+$1,$4,$5,$6,$7,0*
20,1,$1+$1,$6,$7,$8,$9,0*
20,1,$1+$1,$8,$9,$2,$3,0*%
%AMHorizOval*
0 Thick line with rounded ends*
0 $1 width*
0 $2 $3 position (X,Y) of the first rounded end (center of the circle)*
0 $4 $5 position (X,Y) of the second rounded end (center of the circle)*
0 Add line between two ends*
20,1,$1,$2,$3,$4,$5,0*
0 Add two circle primitives to create the rounded ends*
1,1,$1,$2,$3*
1,1,$1,$4,$5*%
G04 Aperture macros list end*
%ADD10C,0.150000*%
%ADD11C,0.120000*%
%ADD12RoundRect,0.050000X-0.675000X0.675000X-0.675000X-0.675000X0.675000X-0.675000X0.675000X0.675000X0*%
%ADD13O,1.450000X1.450000*%
%ADD14RoundRect,0.299900X-0.275100X-0.400100X0.275100X-0.400100X0.275100X0.400100X-0.275100X0.400100X0*%
%ADD15O,1.150000X1.400000*%
%ADD16C,0.990000*%
%ADD17C,1.348000*%
%ADD18RoundRect,0.299900X0.438294X0.208947X-0.038194X0.484047X-0.438294X-0.208947X0.038194X-0.484047X0*%
%ADD19HorizOval,1.150000X0.062500X0.108253X-0.062500X-0.108253X0*%
%ADD20RoundRect,0.299900X-0.400100X0.275100X-0.400100X-0.275100X0.400100X-0.275100X0.400100X0.275100X0*%
%ADD21O,1.400000X1.150000*%
%ADD22RoundRect,0.299900X0.400100X-0.275100X0.400100X0.275100X-0.400100X0.275100X-0.400100X-0.275100X0*%
%ADD23RoundRect,0.299900X-0.438294X-0.208947X0.038194X-0.484047X0.438294X0.208947X-0.038194X0.484047X0*%
%ADD24HorizOval,1.150000X-0.062500X-0.108253X0.062500X0.108253X0*%
%ADD25RoundRect,0.299900X-0.038194X-0.484047X0.438294X-0.208947X0.038194X0.484047X-0.438294X0.208947X0*%
%ADD26HorizOval,1.150000X-0.062500X0.108253X0.062500X-0.108253X0*%
%ADD27RoundRect,0.299900X0.038194X0.484047X-0.438294X0.208947X-0.038194X-0.484047X0.438294X-0.208947X0*%
G04 APERTURE END LIST*
D10*
%TO.C,U2*%
X117691361Y-144127562D02*
X118096123Y-143426494D01*
X118184981Y-143367825D01*
X118250030Y-143350395D01*
X118356318Y-143356775D01*
X118521276Y-143452013D01*
X118579945Y-143540871D01*
X118597374Y-143605920D01*
X118590995Y-143712208D01*
X118186233Y-144413276D01*
X118605006Y-144545084D02*
X118622435Y-144610132D01*
X118681104Y-144698991D01*
X118887301Y-144818038D01*
X118993589Y-144824418D01*
X119058638Y-144806988D01*
X119147496Y-144748319D01*
X119195115Y-144665841D01*
X119225305Y-144518313D01*
X119016147Y-143737727D01*
X119552258Y-144047251D01*
%TO.C,U4*%
X143152380Y-128828095D02*
X143961904Y-128828095D01*
X144057142Y-128875714D01*
X144104761Y-128923333D01*
X144152380Y-129018571D01*
X144152380Y-129209047D01*
X144104761Y-129304285D01*
X144057142Y-129351904D01*
X143961904Y-129399523D01*
X143152380Y-129399523D01*
X143485714Y-130304285D02*
X144152380Y-130304285D01*
X143104761Y-130066190D02*
X143819047Y-129828095D01*
X143819047Y-130447142D01*
%TO.C,U1*%
X109752380Y-128778095D02*
X110561904Y-128778095D01*
X110657142Y-128825714D01*
X110704761Y-128873333D01*
X110752380Y-128968571D01*
X110752380Y-129159047D01*
X110704761Y-129254285D01*
X110657142Y-129301904D01*
X110561904Y-129349523D01*
X109752380Y-129349523D01*
X110752380Y-130349523D02*
X110752380Y-129778095D01*
X110752380Y-130063809D02*
X109752380Y-130063809D01*
X109895238Y-129968571D01*
X109990476Y-129873333D01*
X110038095Y-129778095D01*
%TO.C,U5*%
X134441361Y-115139036D02*
X134846123Y-114437968D01*
X134934981Y-114379299D01*
X135000030Y-114361869D01*
X135106318Y-114368249D01*
X135271276Y-114463487D01*
X135329945Y-114552345D01*
X135347374Y-114617394D01*
X135340995Y-114723682D01*
X134936233Y-115424750D01*
X135761019Y-115900941D02*
X135348626Y-115662846D01*
X135545482Y-115226643D01*
X135562912Y-115291692D01*
X135621581Y-115380550D01*
X135827777Y-115499598D01*
X135934065Y-115505978D01*
X135999114Y-115488548D01*
X136087972Y-115429879D01*
X136207020Y-115223682D01*
X136213400Y-115117394D01*
X136195970Y-115052345D01*
X136137301Y-114963487D01*
X135931104Y-114844439D01*
X135824816Y-114838060D01*
X135759767Y-114855489D01*
%TO.C,U7*%
X119011019Y-114190532D02*
X119415781Y-114891600D01*
X119422161Y-114997888D01*
X119404731Y-115062937D01*
X119346062Y-115151796D01*
X119181104Y-115247034D01*
X119074816Y-115253413D01*
X119009767Y-115235984D01*
X118920909Y-115177315D01*
X118516147Y-114476246D01*
X118186233Y-114666723D02*
X117608882Y-115000056D01*
X118480036Y-115651796D01*
%TO.C,U3*%
X135736019Y-143254795D02*
X136140781Y-143955863D01*
X136147161Y-144062151D01*
X136129731Y-144127200D01*
X136071062Y-144216059D01*
X135906104Y-144311297D01*
X135799816Y-144317676D01*
X135734767Y-144300247D01*
X135645909Y-144241578D01*
X135241147Y-143540509D01*
X134911233Y-143730986D02*
X134375122Y-144040509D01*
X134854273Y-144203757D01*
X134730555Y-144275186D01*
X134671886Y-144364044D01*
X134654456Y-144429093D01*
X134660836Y-144535381D01*
X134779884Y-144741578D01*
X134868742Y-144800247D01*
X134933791Y-144817676D01*
X135040079Y-144811297D01*
X135287515Y-144668440D01*
X135346184Y-144579581D01*
X135363614Y-144514532D01*
D11*
%TO.C,U2*%
X118508512Y-146796025D02*
X116256846Y-145496025D01*
X119389730Y-146669711D02*
X119594634Y-146614808D01*
X115968930Y-144694711D02*
X115914026Y-144489808D01*
X119594634Y-146614808D02*
X120069634Y-145792083D01*
X116389026Y-143667083D02*
X115914026Y-144489808D01*
%TO.C,U4*%
X145600000Y-127610000D02*
X145450000Y-127460000D01*
X146150000Y-128310000D02*
X146150000Y-130910000D01*
X144500000Y-131710000D02*
X145450000Y-131710000D01*
X145450000Y-127460000D02*
X144500000Y-127460000D01*
X145600000Y-131560000D02*
X145450000Y-131710000D01*
%TO.C,U1*%
X108400000Y-127570000D02*
X108550000Y-127420000D01*
X108400000Y-131520000D02*
X108550000Y-131670000D01*
X109500000Y-127420000D02*
X108550000Y-127420000D01*
X107850000Y-130820000D02*
X107850000Y-128220000D01*
X108550000Y-131670000D02*
X109500000Y-131670000D01*
%TO.C,U5*%
X134405366Y-112465192D02*
X133930366Y-113287917D01*
X138031070Y-114385289D02*
X138085974Y-114590192D01*
X134610270Y-112410289D02*
X134405366Y-112465192D01*
X137610974Y-115412917D02*
X138085974Y-114590192D01*
X135491488Y-112283975D02*
X137743154Y-113583975D01*
%TO.C,U7*%
X119381070Y-112415289D02*
X119585974Y-112470192D01*
X116291488Y-113563975D02*
X118543154Y-112263975D01*
X120060974Y-113292917D02*
X119585974Y-112470192D01*
X115905366Y-114595192D02*
X116380366Y-115417917D01*
X115960270Y-114390289D02*
X115905366Y-114595192D01*
%TO.C,U3*%
X138044634Y-144484808D02*
X137569634Y-143662083D01*
X137658512Y-145516025D02*
X135406846Y-146816025D01*
X137989730Y-144689711D02*
X138044634Y-144484808D01*
X133889026Y-145787083D02*
X134364026Y-146609808D01*
X134568930Y-146664711D02*
X134364026Y-146609808D01*
%TD*%
%LPC*%
D12*
%TO.C,D1*%
X129250000Y-115290000D03*
D13*
X127250000Y-115290000D03*
X125250000Y-115290000D03*
%TD*%
D14*
%TO.C,U6*%
X125704600Y-111340000D03*
D15*
X126974600Y-111340000D03*
X128244600Y-111340000D03*
%TD*%
D16*
%TO.C,J1*%
X132250000Y-139390000D03*
X121750000Y-139390000D03*
D17*
X130750000Y-142040000D03*
X123250000Y-142040000D03*
%TD*%
D18*
%TO.C,U2*%
X118999852Y-145925000D03*
D19*
X117900000Y-145290000D03*
X116800147Y-144655000D03*
%TD*%
D20*
%TO.C,U4*%
X145150000Y-128320000D03*
D21*
X145150000Y-129590000D03*
X145150000Y-130860000D03*
%TD*%
D22*
%TO.C,U1*%
X108850000Y-130810000D03*
D21*
X108850000Y-129540000D03*
X108850000Y-128270000D03*
%TD*%
D23*
%TO.C,U5*%
X135000148Y-113155000D03*
D24*
X136100000Y-113790000D03*
X137199853Y-114425000D03*
%TD*%
D25*
%TO.C,U7*%
X116800148Y-114425000D03*
D26*
X117900000Y-113790000D03*
X118999853Y-113155000D03*
%TD*%
D27*
%TO.C,U3*%
X137149852Y-144655000D03*
D26*
X136050000Y-145290000D03*
X134950147Y-145925000D03*
%TD*%
M02*
