%FSLAX45Y45*%
G04 Gerber Fmt 4.5, Leading zero omitted, Abs format (unit mm)*
G04 Created by KiCad (PCBNEW (6.0.5)) date 2022-06-17 15:32:32*
%MOMM*%
%LPD*%
G01*
G04 APERTURE LIST*
%TA.AperFunction,Profile*%
%ADD10C,0.200000*%
%TD*%
%ADD11C,0.200000*%
%ADD12C,0.040000*%
%ADD13C,0.074000*%
%ADD14C,0.075000*%
%ADD15C,0.080000*%
G04 APERTURE END LIST*
D10*
X13375000Y-13829000D02*
G75*
G03*
X13275000Y-13729000I-100000J0D01*
G01*
X12974994Y-11159954D02*
G75*
G03*
X13061819Y-11267372I109866J4D01*
G01*
X14550000Y-12679000D02*
X14494046Y-12679000D01*
X14625000Y-13154000D02*
X14625000Y-12754000D01*
X13856658Y-14233753D02*
G75*
G03*
X14386615Y-13315876I-1156658J1279753D01*
G01*
X13374996Y-14180784D02*
G75*
G03*
X13450439Y-14223830I50004J5D01*
G01*
X13229969Y-11312432D02*
G75*
G03*
X13358866Y-11262811I33751J104552D01*
G01*
X12425000Y-11529000D02*
G75*
G03*
X12525000Y-11629000I100000J0D01*
G01*
X13375000Y-14180784D02*
X13375000Y-13829000D01*
X13835707Y-14521101D02*
G75*
G03*
X13863157Y-14418647I-37497J64951D01*
G01*
X12525000Y-11629000D02*
X13320635Y-11629000D01*
X12013157Y-14693647D02*
X12041135Y-14645189D01*
X14625000Y-12754000D02*
G75*
G03*
X14550000Y-12679000I-75000J0D01*
G01*
X13275000Y-13729000D02*
X12125000Y-13729000D01*
X13450439Y-14223829D02*
G75*
G03*
X13373632Y-11641809I-750439J1269829D01*
G01*
X13835178Y-11537810D02*
G75*
G03*
X13856658Y-11674246I95142J-54930D01*
G01*
X13358864Y-14645190D02*
G75*
G03*
X13244224Y-14579000I-114644J-66190D01*
G01*
X12155778Y-14578999D02*
G75*
G03*
X12041135Y-14645189I2J-132381D01*
G01*
X13835180Y-11537811D02*
X13863157Y-11489353D01*
X13863155Y-11489352D02*
G75*
G03*
X13835705Y-11386901I-64945J37502D01*
G01*
X13863157Y-14418647D02*
X13835180Y-14370189D01*
X13835705Y-11386901D02*
X13489295Y-11186901D01*
X12025000Y-13829000D02*
X12025000Y-14180784D01*
X10905955Y-12679006D02*
G75*
G03*
X11013384Y-12592132I-5J109866D01*
G01*
X11013373Y-13315819D02*
G75*
G03*
X11543242Y-14233662I1686627J361819D01*
G01*
X11564822Y-14370190D02*
G75*
G03*
X11543242Y-14233663I-95143J54930D01*
G01*
X12020121Y-11645033D02*
G75*
G03*
X12074029Y-11556291I-46091J88743D01*
G01*
X13489295Y-14721099D02*
X13835705Y-14521099D01*
X11543343Y-11674247D02*
G75*
G03*
X11013384Y-12592132I1156657J-1279753D01*
G01*
X14386628Y-12592181D02*
G75*
G03*
X13856658Y-11674247I-1686628J-361819D01*
G01*
X11564821Y-14370189D02*
X11536843Y-14418647D01*
X13489299Y-11186895D02*
G75*
G03*
X13386843Y-11214353I-37499J-64955D01*
G01*
X12155778Y-14579000D02*
X13244224Y-14579000D01*
X11536848Y-14418650D02*
G75*
G03*
X11564295Y-14521099I64952J-37500D01*
G01*
X14494046Y-13228995D02*
G75*
G03*
X14386616Y-13315876I4J-109865D01*
G01*
X14386633Y-12592180D02*
G75*
G03*
X14494046Y-12679000I107417J23040D01*
G01*
X12500000Y-11029000D02*
G75*
G03*
X12425000Y-11104000I0J-75000D01*
G01*
X13358866Y-14645189D02*
X13386843Y-14693647D01*
X12074029Y-11556291D02*
X12074029Y-11319785D01*
X11564292Y-11386896D02*
G75*
G03*
X11536843Y-11489353I37508J-64954D01*
G01*
X13386850Y-14693643D02*
G75*
G03*
X13489295Y-14721099I64950J37493D01*
G01*
X10775000Y-13154000D02*
G75*
G03*
X10850000Y-13229000I75000J0D01*
G01*
X11910708Y-14721094D02*
G75*
G03*
X12013157Y-14693647I37502J64945D01*
G01*
X11543340Y-11674245D02*
G75*
G03*
X11564820Y-11537811I-73661J81505D01*
G01*
X12900000Y-11029000D02*
X12500000Y-11029000D01*
X10850001Y-13229000D02*
X10905955Y-13229000D01*
X12020122Y-11645035D02*
G75*
G03*
X11949562Y-14223829I679878J-1308965D01*
G01*
X13386843Y-11214353D02*
X13358866Y-11262811D01*
X11013367Y-13315820D02*
G75*
G03*
X10905955Y-13229000I-107417J-23040D01*
G01*
X12125000Y-13729000D02*
G75*
G03*
X12025000Y-13829000I0J-100000D01*
G01*
X12425000Y-11104000D02*
X12425000Y-11529000D01*
X10905955Y-12679000D02*
X10850001Y-12679000D01*
X12975000Y-11104000D02*
G75*
G03*
X12900000Y-11029000I-75000J0D01*
G01*
X13373630Y-11641811D02*
G75*
G03*
X13320635Y-11629000I-53000J-103229D01*
G01*
X12074029Y-11319785D02*
X12013157Y-11214353D01*
X14550000Y-13229000D02*
G75*
G03*
X14625000Y-13154000I0J75001D01*
G01*
X13229970Y-11312428D02*
G75*
G03*
X13061819Y-11267372I-529970J-1641592D01*
G01*
X11949563Y-14223827D02*
G75*
G03*
X12025000Y-14180784I25437J43047D01*
G01*
X10850001Y-12679000D02*
G75*
G03*
X10775000Y-12754000I-1J-75000D01*
G01*
X10775000Y-12754000D02*
X10775001Y-13154000D01*
X11910706Y-11186901D02*
X11564295Y-11386901D01*
X11536843Y-11489353D02*
X11564820Y-11537811D01*
X14494046Y-13229000D02*
X14550000Y-13229000D01*
X12975000Y-11159954D02*
X12975000Y-11104000D01*
X13856660Y-14233755D02*
G75*
G03*
X13835180Y-14370189I73660J-81505D01*
G01*
X11564295Y-14521099D02*
X11910705Y-14721099D01*
X12013162Y-11214350D02*
G75*
G03*
X11910706Y-11186901I-64952J-37500D01*
G01*
D11*
D12*
X12025000Y-14468999D02*
X12065000Y-14508999D01*
X12065000Y-14468999D02*
X12025000Y-14508999D01*
X12430000Y-13821500D02*
X12470000Y-13861500D01*
X12470000Y-13821500D02*
X12430000Y-13861500D01*
X12430000Y-14446502D02*
X12470000Y-14486502D01*
X12470000Y-14446502D02*
X12430000Y-14486502D01*
X12460000Y-14274000D02*
X12500000Y-14314000D01*
X12500000Y-14274000D02*
X12460000Y-14314000D01*
X12530000Y-13821500D02*
X12570000Y-13861500D01*
X12570000Y-13821500D02*
X12530000Y-13861500D01*
X12630000Y-13821500D02*
X12670000Y-13861500D01*
X12670000Y-13821500D02*
X12630000Y-13861500D01*
X12670000Y-11299000D02*
X12710000Y-11339000D01*
X12710000Y-11299000D02*
X12670000Y-11339000D01*
X12730000Y-13821500D02*
X12770000Y-13861500D01*
X12770000Y-13821500D02*
X12730000Y-13861500D01*
X12730000Y-14446501D02*
X12770000Y-14486501D01*
X12770000Y-14446501D02*
X12730000Y-14486501D01*
X12769178Y-11299822D02*
X12809178Y-11339822D01*
X12809178Y-11299822D02*
X12769178Y-11339822D01*
X12830000Y-13821500D02*
X12870000Y-13861500D01*
X12870000Y-13821500D02*
X12830000Y-13861500D01*
X12830000Y-14446501D02*
X12870000Y-14486501D01*
X12870000Y-14446501D02*
X12830000Y-14486501D01*
X12889043Y-11308000D02*
X12929043Y-11348000D01*
X12929043Y-11308000D02*
X12889043Y-11348000D01*
X12930000Y-14446499D02*
X12970000Y-14486499D01*
X12970000Y-14446499D02*
X12930000Y-14486499D01*
X13084091Y-14493999D02*
X13124091Y-14533999D01*
X13124091Y-14493999D02*
X13084091Y-14533999D01*
X13198503Y-11541500D02*
X13238503Y-11581500D01*
X13238503Y-11541500D02*
X13198503Y-11581500D01*
X13650000Y-11554000D02*
X13690000Y-11594000D01*
X13690000Y-11554000D02*
X13650000Y-11594000D01*
X14370000Y-13114000D02*
X14410000Y-13154000D01*
X14410000Y-13114000D02*
X14370000Y-13154000D01*
D13*
X12362000Y-14204000D02*
G75*
G03*
X12362000Y-14204000I-37000J0D01*
G01*
X13112000Y-14204000D02*
G75*
G03*
X13112000Y-14204000I-37000J0D01*
G01*
D14*
X10885000Y-12789500D02*
X10885000Y-12864500D01*
X10847500Y-12827000D02*
X10922500Y-12827000D01*
X10885000Y-12916500D02*
X10885000Y-12991500D01*
X10847500Y-12954000D02*
X10922500Y-12954000D01*
X10885000Y-13043500D02*
X10885000Y-13118500D01*
X10847500Y-13081000D02*
X10922500Y-13081000D01*
X11680015Y-14428000D02*
X11680015Y-14503000D01*
X11642515Y-14465500D02*
X11717515Y-14465500D01*
X11680015Y-11405000D02*
X11680015Y-11480000D01*
X11642515Y-11442500D02*
X11717515Y-11442500D01*
X11790000Y-11341500D02*
X11790000Y-11416500D01*
X11752500Y-11379000D02*
X11827500Y-11379000D01*
X11790000Y-14491500D02*
X11790000Y-14566500D01*
X11752500Y-14529000D02*
X11827500Y-14529000D01*
X11899985Y-14555000D02*
X11899985Y-14630000D01*
X11862485Y-14592500D02*
X11937485Y-14592500D01*
X11899985Y-11278000D02*
X11899985Y-11353000D01*
X11862485Y-11315500D02*
X11937485Y-11315500D01*
X12570460Y-11096500D02*
X12570460Y-11171500D01*
X12532960Y-11134000D02*
X12607960Y-11134000D01*
X12697460Y-11096500D02*
X12697460Y-11171500D01*
X12659960Y-11134000D02*
X12734960Y-11134000D01*
X12824460Y-11096500D02*
X12824460Y-11171500D01*
X12786960Y-11134000D02*
X12861960Y-11134000D01*
X13495015Y-14555000D02*
X13495015Y-14630000D01*
X13457515Y-14592500D02*
X13532515Y-14592500D01*
X13500015Y-11278000D02*
X13500015Y-11353000D01*
X13462515Y-11315500D02*
X13537515Y-11315500D01*
X13605000Y-14491500D02*
X13605000Y-14566500D01*
X13567500Y-14529000D02*
X13642500Y-14529000D01*
X13610000Y-11341500D02*
X13610000Y-11416500D01*
X13572500Y-11379000D02*
X13647500Y-11379000D01*
X13714985Y-14428000D02*
X13714985Y-14503000D01*
X13677485Y-14465500D02*
X13752485Y-14465500D01*
X13719985Y-11405000D02*
X13719985Y-11480000D01*
X13682485Y-11442500D02*
X13757485Y-11442500D01*
X14515000Y-12794500D02*
X14515000Y-12869500D01*
X14477500Y-12832000D02*
X14552500Y-12832000D01*
X14515000Y-12921500D02*
X14515000Y-12996500D01*
X14477500Y-12959000D02*
X14552500Y-12959000D01*
X14515000Y-13048500D02*
X14515000Y-13123500D01*
X14477500Y-13086000D02*
X14552500Y-13086000D01*
D15*
X12553284Y-11557284D02*
X12553284Y-11500715D01*
X12496715Y-11500715D01*
X12496715Y-11557284D01*
X12553284Y-11557284D01*
X12753284Y-11557284D02*
X12753284Y-11500715D01*
X12696715Y-11500715D01*
X12696715Y-11557284D01*
X12753284Y-11557284D01*
X12953284Y-11557284D02*
X12953284Y-11500715D01*
X12896715Y-11500715D01*
X12896715Y-11557284D01*
X12953284Y-11557284D01*
D11*
X11022619Y-15051621D02*
X11022619Y-14851621D01*
X11070238Y-14851621D01*
X11098810Y-14861145D01*
X11117857Y-14880193D01*
X11127381Y-14899240D01*
X11136905Y-14937336D01*
X11136905Y-14965907D01*
X11127381Y-15004002D01*
X11117857Y-15023050D01*
X11098810Y-15042097D01*
X11070238Y-15051621D01*
X11022619Y-15051621D01*
X11222619Y-15051621D02*
X11222619Y-14918288D01*
X11222619Y-14956383D02*
X11232143Y-14937336D01*
X11241667Y-14927812D01*
X11260714Y-14918288D01*
X11279762Y-14918288D01*
X11346428Y-15051621D02*
X11346428Y-14918288D01*
X11346428Y-14851621D02*
X11336905Y-14861145D01*
X11346428Y-14870669D01*
X11355952Y-14861145D01*
X11346428Y-14851621D01*
X11346428Y-14870669D01*
X11470238Y-15051621D02*
X11451190Y-15042097D01*
X11441667Y-15023050D01*
X11441667Y-14851621D01*
X11575000Y-15051621D02*
X11555952Y-15042097D01*
X11546428Y-15023050D01*
X11546428Y-14851621D01*
X11803571Y-15051621D02*
X11803571Y-14851621D01*
X11870238Y-14994478D01*
X11936905Y-14851621D01*
X11936905Y-15051621D01*
X12117857Y-15051621D02*
X12117857Y-14946859D01*
X12108333Y-14927812D01*
X12089286Y-14918288D01*
X12051190Y-14918288D01*
X12032143Y-14927812D01*
X12117857Y-15042097D02*
X12098809Y-15051621D01*
X12051190Y-15051621D01*
X12032143Y-15042097D01*
X12022619Y-15023050D01*
X12022619Y-15004002D01*
X12032143Y-14984955D01*
X12051190Y-14975431D01*
X12098809Y-14975431D01*
X12117857Y-14965907D01*
X12213095Y-14918288D02*
X12213095Y-15118288D01*
X12213095Y-14927812D02*
X12232143Y-14918288D01*
X12270238Y-14918288D01*
X12289286Y-14927812D01*
X12298809Y-14937336D01*
X12308333Y-14956383D01*
X12308333Y-15013526D01*
X12298809Y-15032574D01*
X12289286Y-15042097D01*
X12270238Y-15051621D01*
X12232143Y-15051621D01*
X12213095Y-15042097D01*
X12394048Y-15032574D02*
X12403571Y-15042097D01*
X12394048Y-15051621D01*
X12384524Y-15042097D01*
X12394048Y-15032574D01*
X12394048Y-15051621D01*
X12394048Y-14927812D02*
X12403571Y-14937336D01*
X12394048Y-14946859D01*
X12384524Y-14937336D01*
X12394048Y-14927812D01*
X12394048Y-14946859D01*
D12*
X10725000Y-15361145D02*
X10765000Y-15401145D01*
X10765000Y-15361145D02*
X10725000Y-15401145D01*
D11*
X11060714Y-15271621D02*
X11079762Y-15271621D01*
X11098810Y-15281145D01*
X11108333Y-15290669D01*
X11117857Y-15309717D01*
X11127381Y-15347812D01*
X11127381Y-15395431D01*
X11117857Y-15433526D01*
X11108333Y-15452574D01*
X11098810Y-15462097D01*
X11079762Y-15471621D01*
X11060714Y-15471621D01*
X11041667Y-15462097D01*
X11032143Y-15452574D01*
X11022619Y-15433526D01*
X11013095Y-15395431D01*
X11013095Y-15347812D01*
X11022619Y-15309717D01*
X11032143Y-15290669D01*
X11041667Y-15281145D01*
X11060714Y-15271621D01*
X11213095Y-15452574D02*
X11222619Y-15462097D01*
X11213095Y-15471621D01*
X11203571Y-15462097D01*
X11213095Y-15452574D01*
X11213095Y-15471621D01*
X11394048Y-15338288D02*
X11394048Y-15471621D01*
X11346428Y-15262097D02*
X11298809Y-15404955D01*
X11422619Y-15404955D01*
X11536905Y-15271621D02*
X11555952Y-15271621D01*
X11575000Y-15281145D01*
X11584524Y-15290669D01*
X11594048Y-15309717D01*
X11603571Y-15347812D01*
X11603571Y-15395431D01*
X11594048Y-15433526D01*
X11584524Y-15452574D01*
X11575000Y-15462097D01*
X11555952Y-15471621D01*
X11536905Y-15471621D01*
X11517857Y-15462097D01*
X11508333Y-15452574D01*
X11498809Y-15433526D01*
X11489286Y-15395431D01*
X11489286Y-15347812D01*
X11498809Y-15309717D01*
X11508333Y-15290669D01*
X11517857Y-15281145D01*
X11536905Y-15271621D01*
X11727381Y-15271621D02*
X11746428Y-15271621D01*
X11765476Y-15281145D01*
X11775000Y-15290669D01*
X11784524Y-15309717D01*
X11794048Y-15347812D01*
X11794048Y-15395431D01*
X11784524Y-15433526D01*
X11775000Y-15452574D01*
X11765476Y-15462097D01*
X11746428Y-15471621D01*
X11727381Y-15471621D01*
X11708333Y-15462097D01*
X11698809Y-15452574D01*
X11689286Y-15433526D01*
X11679762Y-15395431D01*
X11679762Y-15347812D01*
X11689286Y-15309717D01*
X11698809Y-15290669D01*
X11708333Y-15281145D01*
X11727381Y-15271621D01*
X11879762Y-15471621D02*
X11879762Y-15338288D01*
X11879762Y-15357336D02*
X11889286Y-15347812D01*
X11908333Y-15338288D01*
X11936905Y-15338288D01*
X11955952Y-15347812D01*
X11965476Y-15366859D01*
X11965476Y-15471621D01*
X11965476Y-15366859D02*
X11975000Y-15347812D01*
X11994048Y-15338288D01*
X12022619Y-15338288D01*
X12041667Y-15347812D01*
X12051190Y-15366859D01*
X12051190Y-15471621D01*
X12146428Y-15471621D02*
X12146428Y-15338288D01*
X12146428Y-15357336D02*
X12155952Y-15347812D01*
X12175000Y-15338288D01*
X12203571Y-15338288D01*
X12222619Y-15347812D01*
X12232143Y-15366859D01*
X12232143Y-15471621D01*
X12232143Y-15366859D02*
X12241667Y-15347812D01*
X12260714Y-15338288D01*
X12289286Y-15338288D01*
X12308333Y-15347812D01*
X12317857Y-15366859D01*
X12317857Y-15471621D01*
X12708333Y-15262097D02*
X12536905Y-15519240D01*
X12965476Y-15271621D02*
X12984524Y-15271621D01*
X13003571Y-15281145D01*
X13013095Y-15290669D01*
X13022619Y-15309717D01*
X13032143Y-15347812D01*
X13032143Y-15395431D01*
X13022619Y-15433526D01*
X13013095Y-15452574D01*
X13003571Y-15462097D01*
X12984524Y-15471621D01*
X12965476Y-15471621D01*
X12946428Y-15462097D01*
X12936905Y-15452574D01*
X12927381Y-15433526D01*
X12917857Y-15395431D01*
X12917857Y-15347812D01*
X12927381Y-15309717D01*
X12936905Y-15290669D01*
X12946428Y-15281145D01*
X12965476Y-15271621D01*
X13117857Y-15452574D02*
X13127381Y-15462097D01*
X13117857Y-15471621D01*
X13108333Y-15462097D01*
X13117857Y-15452574D01*
X13117857Y-15471621D01*
X13251190Y-15271621D02*
X13270238Y-15271621D01*
X13289286Y-15281145D01*
X13298809Y-15290669D01*
X13308333Y-15309717D01*
X13317857Y-15347812D01*
X13317857Y-15395431D01*
X13308333Y-15433526D01*
X13298809Y-15452574D01*
X13289286Y-15462097D01*
X13270238Y-15471621D01*
X13251190Y-15471621D01*
X13232143Y-15462097D01*
X13222619Y-15452574D01*
X13213095Y-15433526D01*
X13203571Y-15395431D01*
X13203571Y-15347812D01*
X13213095Y-15309717D01*
X13222619Y-15290669D01*
X13232143Y-15281145D01*
X13251190Y-15271621D01*
X13508333Y-15471621D02*
X13394048Y-15471621D01*
X13451190Y-15471621D02*
X13451190Y-15271621D01*
X13432143Y-15300193D01*
X13413095Y-15319240D01*
X13394048Y-15328764D01*
X13689286Y-15271621D02*
X13594048Y-15271621D01*
X13584524Y-15366859D01*
X13594048Y-15357336D01*
X13613095Y-15347812D01*
X13660714Y-15347812D01*
X13679762Y-15357336D01*
X13689286Y-15366859D01*
X13698809Y-15385907D01*
X13698809Y-15433526D01*
X13689286Y-15452574D01*
X13679762Y-15462097D01*
X13660714Y-15471621D01*
X13613095Y-15471621D01*
X13594048Y-15462097D01*
X13584524Y-15452574D01*
X13765476Y-15271621D02*
X13898809Y-15271621D01*
X13813095Y-15471621D01*
X13965476Y-15271621D02*
X13965476Y-15309717D01*
X14041667Y-15271621D02*
X14041667Y-15309717D01*
X14336905Y-15547812D02*
X14327381Y-15538288D01*
X14308333Y-15509717D01*
X14298809Y-15490669D01*
X14289286Y-15462097D01*
X14279762Y-15414478D01*
X14279762Y-15376383D01*
X14289286Y-15328764D01*
X14298809Y-15300193D01*
X14308333Y-15281145D01*
X14327381Y-15252574D01*
X14336905Y-15243050D01*
X14517857Y-15471621D02*
X14403571Y-15471621D01*
X14460714Y-15471621D02*
X14460714Y-15271621D01*
X14441667Y-15300193D01*
X14422619Y-15319240D01*
X14403571Y-15328764D01*
X14632143Y-15357336D02*
X14613095Y-15347812D01*
X14603571Y-15338288D01*
X14594048Y-15319240D01*
X14594048Y-15309717D01*
X14603571Y-15290669D01*
X14613095Y-15281145D01*
X14632143Y-15271621D01*
X14670238Y-15271621D01*
X14689286Y-15281145D01*
X14698809Y-15290669D01*
X14708333Y-15309717D01*
X14708333Y-15319240D01*
X14698809Y-15338288D01*
X14689286Y-15347812D01*
X14670238Y-15357336D01*
X14632143Y-15357336D01*
X14613095Y-15366859D01*
X14603571Y-15376383D01*
X14594048Y-15395431D01*
X14594048Y-15433526D01*
X14603571Y-15452574D01*
X14613095Y-15462097D01*
X14632143Y-15471621D01*
X14670238Y-15471621D01*
X14689286Y-15462097D01*
X14698809Y-15452574D01*
X14708333Y-15433526D01*
X14708333Y-15395431D01*
X14698809Y-15376383D01*
X14689286Y-15366859D01*
X14670238Y-15357336D01*
X14946428Y-15471621D02*
X14946428Y-15271621D01*
X15032143Y-15471621D02*
X15032143Y-15366859D01*
X15022619Y-15347812D01*
X15003571Y-15338288D01*
X14975000Y-15338288D01*
X14955952Y-15347812D01*
X14946428Y-15357336D01*
X15155952Y-15471621D02*
X15136905Y-15462097D01*
X15127381Y-15452574D01*
X15117857Y-15433526D01*
X15117857Y-15376383D01*
X15127381Y-15357336D01*
X15136905Y-15347812D01*
X15155952Y-15338288D01*
X15184524Y-15338288D01*
X15203571Y-15347812D01*
X15213095Y-15357336D01*
X15222619Y-15376383D01*
X15222619Y-15433526D01*
X15213095Y-15452574D01*
X15203571Y-15462097D01*
X15184524Y-15471621D01*
X15155952Y-15471621D01*
X15336905Y-15471621D02*
X15317857Y-15462097D01*
X15308333Y-15443050D01*
X15308333Y-15271621D01*
X15489286Y-15462097D02*
X15470238Y-15471621D01*
X15432143Y-15471621D01*
X15413095Y-15462097D01*
X15403571Y-15443050D01*
X15403571Y-15366859D01*
X15413095Y-15347812D01*
X15432143Y-15338288D01*
X15470238Y-15338288D01*
X15489286Y-15347812D01*
X15498809Y-15366859D01*
X15498809Y-15385907D01*
X15403571Y-15404955D01*
X15575000Y-15462097D02*
X15594048Y-15471621D01*
X15632143Y-15471621D01*
X15651190Y-15462097D01*
X15660714Y-15443050D01*
X15660714Y-15433526D01*
X15651190Y-15414478D01*
X15632143Y-15404955D01*
X15603571Y-15404955D01*
X15584524Y-15395431D01*
X15575000Y-15376383D01*
X15575000Y-15366859D01*
X15584524Y-15347812D01*
X15603571Y-15338288D01*
X15632143Y-15338288D01*
X15651190Y-15347812D01*
X15727381Y-15547812D02*
X15736905Y-15538288D01*
X15755952Y-15509717D01*
X15765476Y-15490669D01*
X15775000Y-15462097D01*
X15784524Y-15414478D01*
X15784524Y-15376383D01*
X15775000Y-15328764D01*
X15765476Y-15300193D01*
X15755952Y-15281145D01*
X15736905Y-15252574D01*
X15727381Y-15243050D01*
D13*
X10765000Y-15645145D02*
G75*
G03*
X10765000Y-15645145I-37000J0D01*
G01*
D11*
X11060714Y-15535621D02*
X11079762Y-15535621D01*
X11098810Y-15545145D01*
X11108333Y-15554669D01*
X11117857Y-15573717D01*
X11127381Y-15611812D01*
X11127381Y-15659431D01*
X11117857Y-15697526D01*
X11108333Y-15716574D01*
X11098810Y-15726097D01*
X11079762Y-15735621D01*
X11060714Y-15735621D01*
X11041667Y-15726097D01*
X11032143Y-15716574D01*
X11022619Y-15697526D01*
X11013095Y-15659431D01*
X11013095Y-15611812D01*
X11022619Y-15573717D01*
X11032143Y-15554669D01*
X11041667Y-15545145D01*
X11060714Y-15535621D01*
X11213095Y-15716574D02*
X11222619Y-15726097D01*
X11213095Y-15735621D01*
X11203571Y-15726097D01*
X11213095Y-15716574D01*
X11213095Y-15735621D01*
X11289286Y-15535621D02*
X11422619Y-15535621D01*
X11336905Y-15735621D01*
X11584524Y-15602288D02*
X11584524Y-15735621D01*
X11536905Y-15526097D02*
X11489286Y-15668955D01*
X11613095Y-15668955D01*
X11727381Y-15535621D02*
X11746428Y-15535621D01*
X11765476Y-15545145D01*
X11775000Y-15554669D01*
X11784524Y-15573717D01*
X11794048Y-15611812D01*
X11794048Y-15659431D01*
X11784524Y-15697526D01*
X11775000Y-15716574D01*
X11765476Y-15726097D01*
X11746428Y-15735621D01*
X11727381Y-15735621D01*
X11708333Y-15726097D01*
X11698809Y-15716574D01*
X11689286Y-15697526D01*
X11679762Y-15659431D01*
X11679762Y-15611812D01*
X11689286Y-15573717D01*
X11698809Y-15554669D01*
X11708333Y-15545145D01*
X11727381Y-15535621D01*
X11879762Y-15735621D02*
X11879762Y-15602288D01*
X11879762Y-15621336D02*
X11889286Y-15611812D01*
X11908333Y-15602288D01*
X11936905Y-15602288D01*
X11955952Y-15611812D01*
X11965476Y-15630859D01*
X11965476Y-15735621D01*
X11965476Y-15630859D02*
X11975000Y-15611812D01*
X11994048Y-15602288D01*
X12022619Y-15602288D01*
X12041667Y-15611812D01*
X12051190Y-15630859D01*
X12051190Y-15735621D01*
X12146428Y-15735621D02*
X12146428Y-15602288D01*
X12146428Y-15621336D02*
X12155952Y-15611812D01*
X12175000Y-15602288D01*
X12203571Y-15602288D01*
X12222619Y-15611812D01*
X12232143Y-15630859D01*
X12232143Y-15735621D01*
X12232143Y-15630859D02*
X12241667Y-15611812D01*
X12260714Y-15602288D01*
X12289286Y-15602288D01*
X12308333Y-15611812D01*
X12317857Y-15630859D01*
X12317857Y-15735621D01*
X12708333Y-15526097D02*
X12536905Y-15783240D01*
X12965476Y-15535621D02*
X12984524Y-15535621D01*
X13003571Y-15545145D01*
X13013095Y-15554669D01*
X13022619Y-15573717D01*
X13032143Y-15611812D01*
X13032143Y-15659431D01*
X13022619Y-15697526D01*
X13013095Y-15716574D01*
X13003571Y-15726097D01*
X12984524Y-15735621D01*
X12965476Y-15735621D01*
X12946428Y-15726097D01*
X12936905Y-15716574D01*
X12927381Y-15697526D01*
X12917857Y-15659431D01*
X12917857Y-15611812D01*
X12927381Y-15573717D01*
X12936905Y-15554669D01*
X12946428Y-15545145D01*
X12965476Y-15535621D01*
X13117857Y-15716574D02*
X13127381Y-15726097D01*
X13117857Y-15735621D01*
X13108333Y-15726097D01*
X13117857Y-15716574D01*
X13117857Y-15735621D01*
X13251190Y-15535621D02*
X13270238Y-15535621D01*
X13289286Y-15545145D01*
X13298809Y-15554669D01*
X13308333Y-15573717D01*
X13317857Y-15611812D01*
X13317857Y-15659431D01*
X13308333Y-15697526D01*
X13298809Y-15716574D01*
X13289286Y-15726097D01*
X13270238Y-15735621D01*
X13251190Y-15735621D01*
X13232143Y-15726097D01*
X13222619Y-15716574D01*
X13213095Y-15697526D01*
X13203571Y-15659431D01*
X13203571Y-15611812D01*
X13213095Y-15573717D01*
X13222619Y-15554669D01*
X13232143Y-15545145D01*
X13251190Y-15535621D01*
X13394048Y-15554669D02*
X13403571Y-15545145D01*
X13422619Y-15535621D01*
X13470238Y-15535621D01*
X13489286Y-15545145D01*
X13498809Y-15554669D01*
X13508333Y-15573717D01*
X13508333Y-15592764D01*
X13498809Y-15621336D01*
X13384524Y-15735621D01*
X13508333Y-15735621D01*
X13603571Y-15735621D02*
X13641667Y-15735621D01*
X13660714Y-15726097D01*
X13670238Y-15716574D01*
X13689286Y-15688002D01*
X13698809Y-15649907D01*
X13698809Y-15573717D01*
X13689286Y-15554669D01*
X13679762Y-15545145D01*
X13660714Y-15535621D01*
X13622619Y-15535621D01*
X13603571Y-15545145D01*
X13594048Y-15554669D01*
X13584524Y-15573717D01*
X13584524Y-15621336D01*
X13594048Y-15640383D01*
X13603571Y-15649907D01*
X13622619Y-15659431D01*
X13660714Y-15659431D01*
X13679762Y-15649907D01*
X13689286Y-15640383D01*
X13698809Y-15621336D01*
X13889286Y-15735621D02*
X13775000Y-15735621D01*
X13832143Y-15735621D02*
X13832143Y-15535621D01*
X13813095Y-15564193D01*
X13794048Y-15583240D01*
X13775000Y-15592764D01*
X13965476Y-15535621D02*
X13965476Y-15573717D01*
X14041667Y-15535621D02*
X14041667Y-15573717D01*
X14336905Y-15811812D02*
X14327381Y-15802288D01*
X14308333Y-15773717D01*
X14298809Y-15754669D01*
X14289286Y-15726097D01*
X14279762Y-15678478D01*
X14279762Y-15640383D01*
X14289286Y-15592764D01*
X14298809Y-15564193D01*
X14308333Y-15545145D01*
X14327381Y-15516574D01*
X14336905Y-15507050D01*
X14403571Y-15554669D02*
X14413095Y-15545145D01*
X14432143Y-15535621D01*
X14479762Y-15535621D01*
X14498809Y-15545145D01*
X14508333Y-15554669D01*
X14517857Y-15573717D01*
X14517857Y-15592764D01*
X14508333Y-15621336D01*
X14394048Y-15735621D01*
X14517857Y-15735621D01*
X14755952Y-15735621D02*
X14755952Y-15535621D01*
X14841667Y-15735621D02*
X14841667Y-15630859D01*
X14832143Y-15611812D01*
X14813095Y-15602288D01*
X14784524Y-15602288D01*
X14765476Y-15611812D01*
X14755952Y-15621336D01*
X14965476Y-15735621D02*
X14946428Y-15726097D01*
X14936905Y-15716574D01*
X14927381Y-15697526D01*
X14927381Y-15640383D01*
X14936905Y-15621336D01*
X14946428Y-15611812D01*
X14965476Y-15602288D01*
X14994048Y-15602288D01*
X15013095Y-15611812D01*
X15022619Y-15621336D01*
X15032143Y-15640383D01*
X15032143Y-15697526D01*
X15022619Y-15716574D01*
X15013095Y-15726097D01*
X14994048Y-15735621D01*
X14965476Y-15735621D01*
X15146428Y-15735621D02*
X15127381Y-15726097D01*
X15117857Y-15707050D01*
X15117857Y-15535621D01*
X15298809Y-15726097D02*
X15279762Y-15735621D01*
X15241667Y-15735621D01*
X15222619Y-15726097D01*
X15213095Y-15707050D01*
X15213095Y-15630859D01*
X15222619Y-15611812D01*
X15241667Y-15602288D01*
X15279762Y-15602288D01*
X15298809Y-15611812D01*
X15308333Y-15630859D01*
X15308333Y-15649907D01*
X15213095Y-15668955D01*
X15384524Y-15726097D02*
X15403571Y-15735621D01*
X15441667Y-15735621D01*
X15460714Y-15726097D01*
X15470238Y-15707050D01*
X15470238Y-15697526D01*
X15460714Y-15678478D01*
X15441667Y-15668955D01*
X15413095Y-15668955D01*
X15394048Y-15659431D01*
X15384524Y-15640383D01*
X15384524Y-15630859D01*
X15394048Y-15611812D01*
X15413095Y-15602288D01*
X15441667Y-15602288D01*
X15460714Y-15611812D01*
X15536905Y-15811812D02*
X15546428Y-15802288D01*
X15565476Y-15773717D01*
X15575000Y-15754669D01*
X15584524Y-15726097D01*
X15594048Y-15678478D01*
X15594048Y-15640383D01*
X15584524Y-15592764D01*
X15575000Y-15564193D01*
X15565476Y-15545145D01*
X15546428Y-15516574D01*
X15536905Y-15507050D01*
D14*
X10727500Y-15871645D02*
X10727500Y-15946645D01*
X10690000Y-15909145D02*
X10765000Y-15909145D01*
D11*
X11060714Y-15799621D02*
X11079762Y-15799621D01*
X11098810Y-15809145D01*
X11108333Y-15818669D01*
X11117857Y-15837717D01*
X11127381Y-15875812D01*
X11127381Y-15923431D01*
X11117857Y-15961526D01*
X11108333Y-15980574D01*
X11098810Y-15990097D01*
X11079762Y-15999621D01*
X11060714Y-15999621D01*
X11041667Y-15990097D01*
X11032143Y-15980574D01*
X11022619Y-15961526D01*
X11013095Y-15923431D01*
X11013095Y-15875812D01*
X11022619Y-15837717D01*
X11032143Y-15818669D01*
X11041667Y-15809145D01*
X11060714Y-15799621D01*
X11213095Y-15980574D02*
X11222619Y-15990097D01*
X11213095Y-15999621D01*
X11203571Y-15990097D01*
X11213095Y-15980574D01*
X11213095Y-15999621D01*
X11289286Y-15799621D02*
X11422619Y-15799621D01*
X11336905Y-15999621D01*
X11594048Y-15799621D02*
X11498809Y-15799621D01*
X11489286Y-15894859D01*
X11498809Y-15885336D01*
X11517857Y-15875812D01*
X11565476Y-15875812D01*
X11584524Y-15885336D01*
X11594048Y-15894859D01*
X11603571Y-15913907D01*
X11603571Y-15961526D01*
X11594048Y-15980574D01*
X11584524Y-15990097D01*
X11565476Y-15999621D01*
X11517857Y-15999621D01*
X11498809Y-15990097D01*
X11489286Y-15980574D01*
X11727381Y-15799621D02*
X11746428Y-15799621D01*
X11765476Y-15809145D01*
X11775000Y-15818669D01*
X11784524Y-15837717D01*
X11794048Y-15875812D01*
X11794048Y-15923431D01*
X11784524Y-15961526D01*
X11775000Y-15980574D01*
X11765476Y-15990097D01*
X11746428Y-15999621D01*
X11727381Y-15999621D01*
X11708333Y-15990097D01*
X11698809Y-15980574D01*
X11689286Y-15961526D01*
X11679762Y-15923431D01*
X11679762Y-15875812D01*
X11689286Y-15837717D01*
X11698809Y-15818669D01*
X11708333Y-15809145D01*
X11727381Y-15799621D01*
X11879762Y-15999621D02*
X11879762Y-15866288D01*
X11879762Y-15885336D02*
X11889286Y-15875812D01*
X11908333Y-15866288D01*
X11936905Y-15866288D01*
X11955952Y-15875812D01*
X11965476Y-15894859D01*
X11965476Y-15999621D01*
X11965476Y-15894859D02*
X11975000Y-15875812D01*
X11994048Y-15866288D01*
X12022619Y-15866288D01*
X12041667Y-15875812D01*
X12051190Y-15894859D01*
X12051190Y-15999621D01*
X12146428Y-15999621D02*
X12146428Y-15866288D01*
X12146428Y-15885336D02*
X12155952Y-15875812D01*
X12175000Y-15866288D01*
X12203571Y-15866288D01*
X12222619Y-15875812D01*
X12232143Y-15894859D01*
X12232143Y-15999621D01*
X12232143Y-15894859D02*
X12241667Y-15875812D01*
X12260714Y-15866288D01*
X12289286Y-15866288D01*
X12308333Y-15875812D01*
X12317857Y-15894859D01*
X12317857Y-15999621D01*
X12708333Y-15790097D02*
X12536905Y-16047240D01*
X12965476Y-15799621D02*
X12984524Y-15799621D01*
X13003571Y-15809145D01*
X13013095Y-15818669D01*
X13022619Y-15837717D01*
X13032143Y-15875812D01*
X13032143Y-15923431D01*
X13022619Y-15961526D01*
X13013095Y-15980574D01*
X13003571Y-15990097D01*
X12984524Y-15999621D01*
X12965476Y-15999621D01*
X12946428Y-15990097D01*
X12936905Y-15980574D01*
X12927381Y-15961526D01*
X12917857Y-15923431D01*
X12917857Y-15875812D01*
X12927381Y-15837717D01*
X12936905Y-15818669D01*
X12946428Y-15809145D01*
X12965476Y-15799621D01*
X13117857Y-15980574D02*
X13127381Y-15990097D01*
X13117857Y-15999621D01*
X13108333Y-15990097D01*
X13117857Y-15980574D01*
X13117857Y-15999621D01*
X13251190Y-15799621D02*
X13270238Y-15799621D01*
X13289286Y-15809145D01*
X13298809Y-15818669D01*
X13308333Y-15837717D01*
X13317857Y-15875812D01*
X13317857Y-15923431D01*
X13308333Y-15961526D01*
X13298809Y-15980574D01*
X13289286Y-15990097D01*
X13270238Y-15999621D01*
X13251190Y-15999621D01*
X13232143Y-15990097D01*
X13222619Y-15980574D01*
X13213095Y-15961526D01*
X13203571Y-15923431D01*
X13203571Y-15875812D01*
X13213095Y-15837717D01*
X13222619Y-15818669D01*
X13232143Y-15809145D01*
X13251190Y-15799621D01*
X13394048Y-15818669D02*
X13403571Y-15809145D01*
X13422619Y-15799621D01*
X13470238Y-15799621D01*
X13489286Y-15809145D01*
X13498809Y-15818669D01*
X13508333Y-15837717D01*
X13508333Y-15856764D01*
X13498809Y-15885336D01*
X13384524Y-15999621D01*
X13508333Y-15999621D01*
X13603571Y-15999621D02*
X13641667Y-15999621D01*
X13660714Y-15990097D01*
X13670238Y-15980574D01*
X13689286Y-15952002D01*
X13698809Y-15913907D01*
X13698809Y-15837717D01*
X13689286Y-15818669D01*
X13679762Y-15809145D01*
X13660714Y-15799621D01*
X13622619Y-15799621D01*
X13603571Y-15809145D01*
X13594048Y-15818669D01*
X13584524Y-15837717D01*
X13584524Y-15885336D01*
X13594048Y-15904383D01*
X13603571Y-15913907D01*
X13622619Y-15923431D01*
X13660714Y-15923431D01*
X13679762Y-15913907D01*
X13689286Y-15904383D01*
X13698809Y-15885336D01*
X13879762Y-15799621D02*
X13784524Y-15799621D01*
X13775000Y-15894859D01*
X13784524Y-15885336D01*
X13803571Y-15875812D01*
X13851190Y-15875812D01*
X13870238Y-15885336D01*
X13879762Y-15894859D01*
X13889286Y-15913907D01*
X13889286Y-15961526D01*
X13879762Y-15980574D01*
X13870238Y-15990097D01*
X13851190Y-15999621D01*
X13803571Y-15999621D01*
X13784524Y-15990097D01*
X13775000Y-15980574D01*
X13965476Y-15799621D02*
X13965476Y-15837717D01*
X14041667Y-15799621D02*
X14041667Y-15837717D01*
X14336905Y-16075812D02*
X14327381Y-16066288D01*
X14308333Y-16037717D01*
X14298809Y-16018669D01*
X14289286Y-15990097D01*
X14279762Y-15942478D01*
X14279762Y-15904383D01*
X14289286Y-15856764D01*
X14298809Y-15828193D01*
X14308333Y-15809145D01*
X14327381Y-15780574D01*
X14336905Y-15771050D01*
X14403571Y-15818669D02*
X14413095Y-15809145D01*
X14432143Y-15799621D01*
X14479762Y-15799621D01*
X14498809Y-15809145D01*
X14508333Y-15818669D01*
X14517857Y-15837717D01*
X14517857Y-15856764D01*
X14508333Y-15885336D01*
X14394048Y-15999621D01*
X14517857Y-15999621D01*
X14708333Y-15999621D02*
X14594048Y-15999621D01*
X14651190Y-15999621D02*
X14651190Y-15799621D01*
X14632143Y-15828193D01*
X14613095Y-15847240D01*
X14594048Y-15856764D01*
X14946428Y-15999621D02*
X14946428Y-15799621D01*
X15032143Y-15999621D02*
X15032143Y-15894859D01*
X15022619Y-15875812D01*
X15003571Y-15866288D01*
X14975000Y-15866288D01*
X14955952Y-15875812D01*
X14946428Y-15885336D01*
X15155952Y-15999621D02*
X15136905Y-15990097D01*
X15127381Y-15980574D01*
X15117857Y-15961526D01*
X15117857Y-15904383D01*
X15127381Y-15885336D01*
X15136905Y-15875812D01*
X15155952Y-15866288D01*
X15184524Y-15866288D01*
X15203571Y-15875812D01*
X15213095Y-15885336D01*
X15222619Y-15904383D01*
X15222619Y-15961526D01*
X15213095Y-15980574D01*
X15203571Y-15990097D01*
X15184524Y-15999621D01*
X15155952Y-15999621D01*
X15336905Y-15999621D02*
X15317857Y-15990097D01*
X15308333Y-15971050D01*
X15308333Y-15799621D01*
X15489286Y-15990097D02*
X15470238Y-15999621D01*
X15432143Y-15999621D01*
X15413095Y-15990097D01*
X15403571Y-15971050D01*
X15403571Y-15894859D01*
X15413095Y-15875812D01*
X15432143Y-15866288D01*
X15470238Y-15866288D01*
X15489286Y-15875812D01*
X15498809Y-15894859D01*
X15498809Y-15913907D01*
X15403571Y-15932955D01*
X15575000Y-15990097D02*
X15594048Y-15999621D01*
X15632143Y-15999621D01*
X15651190Y-15990097D01*
X15660714Y-15971050D01*
X15660714Y-15961526D01*
X15651190Y-15942478D01*
X15632143Y-15932955D01*
X15603571Y-15932955D01*
X15584524Y-15923431D01*
X15575000Y-15904383D01*
X15575000Y-15894859D01*
X15584524Y-15875812D01*
X15603571Y-15866288D01*
X15632143Y-15866288D01*
X15651190Y-15875812D01*
X15727381Y-16075812D02*
X15736905Y-16066288D01*
X15755952Y-16037717D01*
X15765476Y-16018669D01*
X15775000Y-15990097D01*
X15784524Y-15942478D01*
X15784524Y-15904383D01*
X15775000Y-15856764D01*
X15765476Y-15828193D01*
X15755952Y-15809145D01*
X15736905Y-15780574D01*
X15727381Y-15771050D01*
D15*
X10753285Y-16201430D02*
X10753285Y-16144861D01*
X10696716Y-16144861D01*
X10696716Y-16201430D01*
X10753285Y-16201430D01*
D11*
X11060714Y-16063621D02*
X11079762Y-16063621D01*
X11098810Y-16073145D01*
X11108333Y-16082669D01*
X11117857Y-16101717D01*
X11127381Y-16139812D01*
X11127381Y-16187431D01*
X11117857Y-16225526D01*
X11108333Y-16244574D01*
X11098810Y-16254097D01*
X11079762Y-16263621D01*
X11060714Y-16263621D01*
X11041667Y-16254097D01*
X11032143Y-16244574D01*
X11022619Y-16225526D01*
X11013095Y-16187431D01*
X11013095Y-16139812D01*
X11022619Y-16101717D01*
X11032143Y-16082669D01*
X11041667Y-16073145D01*
X11060714Y-16063621D01*
X11213095Y-16244574D02*
X11222619Y-16254097D01*
X11213095Y-16263621D01*
X11203571Y-16254097D01*
X11213095Y-16244574D01*
X11213095Y-16263621D01*
X11336905Y-16149336D02*
X11317857Y-16139812D01*
X11308333Y-16130288D01*
X11298809Y-16111240D01*
X11298809Y-16101717D01*
X11308333Y-16082669D01*
X11317857Y-16073145D01*
X11336905Y-16063621D01*
X11375000Y-16063621D01*
X11394048Y-16073145D01*
X11403571Y-16082669D01*
X11413095Y-16101717D01*
X11413095Y-16111240D01*
X11403571Y-16130288D01*
X11394048Y-16139812D01*
X11375000Y-16149336D01*
X11336905Y-16149336D01*
X11317857Y-16158859D01*
X11308333Y-16168383D01*
X11298809Y-16187431D01*
X11298809Y-16225526D01*
X11308333Y-16244574D01*
X11317857Y-16254097D01*
X11336905Y-16263621D01*
X11375000Y-16263621D01*
X11394048Y-16254097D01*
X11403571Y-16244574D01*
X11413095Y-16225526D01*
X11413095Y-16187431D01*
X11403571Y-16168383D01*
X11394048Y-16158859D01*
X11375000Y-16149336D01*
X11536905Y-16063621D02*
X11555952Y-16063621D01*
X11575000Y-16073145D01*
X11584524Y-16082669D01*
X11594048Y-16101717D01*
X11603571Y-16139812D01*
X11603571Y-16187431D01*
X11594048Y-16225526D01*
X11584524Y-16244574D01*
X11575000Y-16254097D01*
X11555952Y-16263621D01*
X11536905Y-16263621D01*
X11517857Y-16254097D01*
X11508333Y-16244574D01*
X11498809Y-16225526D01*
X11489286Y-16187431D01*
X11489286Y-16139812D01*
X11498809Y-16101717D01*
X11508333Y-16082669D01*
X11517857Y-16073145D01*
X11536905Y-16063621D01*
X11727381Y-16063621D02*
X11746428Y-16063621D01*
X11765476Y-16073145D01*
X11775000Y-16082669D01*
X11784524Y-16101717D01*
X11794048Y-16139812D01*
X11794048Y-16187431D01*
X11784524Y-16225526D01*
X11775000Y-16244574D01*
X11765476Y-16254097D01*
X11746428Y-16263621D01*
X11727381Y-16263621D01*
X11708333Y-16254097D01*
X11698809Y-16244574D01*
X11689286Y-16225526D01*
X11679762Y-16187431D01*
X11679762Y-16139812D01*
X11689286Y-16101717D01*
X11698809Y-16082669D01*
X11708333Y-16073145D01*
X11727381Y-16063621D01*
X11879762Y-16263621D02*
X11879762Y-16130288D01*
X11879762Y-16149336D02*
X11889286Y-16139812D01*
X11908333Y-16130288D01*
X11936905Y-16130288D01*
X11955952Y-16139812D01*
X11965476Y-16158859D01*
X11965476Y-16263621D01*
X11965476Y-16158859D02*
X11975000Y-16139812D01*
X11994048Y-16130288D01*
X12022619Y-16130288D01*
X12041667Y-16139812D01*
X12051190Y-16158859D01*
X12051190Y-16263621D01*
X12146428Y-16263621D02*
X12146428Y-16130288D01*
X12146428Y-16149336D02*
X12155952Y-16139812D01*
X12175000Y-16130288D01*
X12203571Y-16130288D01*
X12222619Y-16139812D01*
X12232143Y-16158859D01*
X12232143Y-16263621D01*
X12232143Y-16158859D02*
X12241667Y-16139812D01*
X12260714Y-16130288D01*
X12289286Y-16130288D01*
X12308333Y-16139812D01*
X12317857Y-16158859D01*
X12317857Y-16263621D01*
X12708333Y-16054097D02*
X12536905Y-16311240D01*
X12965476Y-16063621D02*
X12984524Y-16063621D01*
X13003571Y-16073145D01*
X13013095Y-16082669D01*
X13022619Y-16101717D01*
X13032143Y-16139812D01*
X13032143Y-16187431D01*
X13022619Y-16225526D01*
X13013095Y-16244574D01*
X13003571Y-16254097D01*
X12984524Y-16263621D01*
X12965476Y-16263621D01*
X12946428Y-16254097D01*
X12936905Y-16244574D01*
X12927381Y-16225526D01*
X12917857Y-16187431D01*
X12917857Y-16139812D01*
X12927381Y-16101717D01*
X12936905Y-16082669D01*
X12946428Y-16073145D01*
X12965476Y-16063621D01*
X13117857Y-16244574D02*
X13127381Y-16254097D01*
X13117857Y-16263621D01*
X13108333Y-16254097D01*
X13117857Y-16244574D01*
X13117857Y-16263621D01*
X13251190Y-16063621D02*
X13270238Y-16063621D01*
X13289286Y-16073145D01*
X13298809Y-16082669D01*
X13308333Y-16101717D01*
X13317857Y-16139812D01*
X13317857Y-16187431D01*
X13308333Y-16225526D01*
X13298809Y-16244574D01*
X13289286Y-16254097D01*
X13270238Y-16263621D01*
X13251190Y-16263621D01*
X13232143Y-16254097D01*
X13222619Y-16244574D01*
X13213095Y-16225526D01*
X13203571Y-16187431D01*
X13203571Y-16139812D01*
X13213095Y-16101717D01*
X13222619Y-16082669D01*
X13232143Y-16073145D01*
X13251190Y-16063621D01*
X13384524Y-16063621D02*
X13508333Y-16063621D01*
X13441667Y-16139812D01*
X13470238Y-16139812D01*
X13489286Y-16149336D01*
X13498809Y-16158859D01*
X13508333Y-16177907D01*
X13508333Y-16225526D01*
X13498809Y-16244574D01*
X13489286Y-16254097D01*
X13470238Y-16263621D01*
X13413095Y-16263621D01*
X13394048Y-16254097D01*
X13384524Y-16244574D01*
X13698809Y-16263621D02*
X13584524Y-16263621D01*
X13641667Y-16263621D02*
X13641667Y-16063621D01*
X13622619Y-16092193D01*
X13603571Y-16111240D01*
X13584524Y-16120764D01*
X13879762Y-16063621D02*
X13784524Y-16063621D01*
X13775000Y-16158859D01*
X13784524Y-16149336D01*
X13803571Y-16139812D01*
X13851190Y-16139812D01*
X13870238Y-16149336D01*
X13879762Y-16158859D01*
X13889286Y-16177907D01*
X13889286Y-16225526D01*
X13879762Y-16244574D01*
X13870238Y-16254097D01*
X13851190Y-16263621D01*
X13803571Y-16263621D01*
X13784524Y-16254097D01*
X13775000Y-16244574D01*
X13965476Y-16063621D02*
X13965476Y-16101717D01*
X14041667Y-16063621D02*
X14041667Y-16101717D01*
X14336905Y-16339812D02*
X14327381Y-16330288D01*
X14308333Y-16301717D01*
X14298809Y-16282669D01*
X14289286Y-16254097D01*
X14279762Y-16206478D01*
X14279762Y-16168383D01*
X14289286Y-16120764D01*
X14298809Y-16092193D01*
X14308333Y-16073145D01*
X14327381Y-16044574D01*
X14336905Y-16035050D01*
X14394048Y-16063621D02*
X14517857Y-16063621D01*
X14451190Y-16139812D01*
X14479762Y-16139812D01*
X14498809Y-16149336D01*
X14508333Y-16158859D01*
X14517857Y-16177907D01*
X14517857Y-16225526D01*
X14508333Y-16244574D01*
X14498809Y-16254097D01*
X14479762Y-16263621D01*
X14422619Y-16263621D01*
X14403571Y-16254097D01*
X14394048Y-16244574D01*
X14755952Y-16263621D02*
X14755952Y-16063621D01*
X14841667Y-16263621D02*
X14841667Y-16158859D01*
X14832143Y-16139812D01*
X14813095Y-16130288D01*
X14784524Y-16130288D01*
X14765476Y-16139812D01*
X14755952Y-16149336D01*
X14965476Y-16263621D02*
X14946428Y-16254097D01*
X14936905Y-16244574D01*
X14927381Y-16225526D01*
X14927381Y-16168383D01*
X14936905Y-16149336D01*
X14946428Y-16139812D01*
X14965476Y-16130288D01*
X14994048Y-16130288D01*
X15013095Y-16139812D01*
X15022619Y-16149336D01*
X15032143Y-16168383D01*
X15032143Y-16225526D01*
X15022619Y-16244574D01*
X15013095Y-16254097D01*
X14994048Y-16263621D01*
X14965476Y-16263621D01*
X15146428Y-16263621D02*
X15127381Y-16254097D01*
X15117857Y-16235050D01*
X15117857Y-16063621D01*
X15298809Y-16254097D02*
X15279762Y-16263621D01*
X15241667Y-16263621D01*
X15222619Y-16254097D01*
X15213095Y-16235050D01*
X15213095Y-16158859D01*
X15222619Y-16139812D01*
X15241667Y-16130288D01*
X15279762Y-16130288D01*
X15298809Y-16139812D01*
X15308333Y-16158859D01*
X15308333Y-16177907D01*
X15213095Y-16196955D01*
X15384524Y-16254097D02*
X15403571Y-16263621D01*
X15441667Y-16263621D01*
X15460714Y-16254097D01*
X15470238Y-16235050D01*
X15470238Y-16225526D01*
X15460714Y-16206478D01*
X15441667Y-16196955D01*
X15413095Y-16196955D01*
X15394048Y-16187431D01*
X15384524Y-16168383D01*
X15384524Y-16158859D01*
X15394048Y-16139812D01*
X15413095Y-16130288D01*
X15441667Y-16130288D01*
X15460714Y-16139812D01*
X15536905Y-16339812D02*
X15546428Y-16330288D01*
X15565476Y-16301717D01*
X15575000Y-16282669D01*
X15584524Y-16254097D01*
X15594048Y-16206478D01*
X15594048Y-16168383D01*
X15584524Y-16120764D01*
X15575000Y-16092193D01*
X15565476Y-16073145D01*
X15546428Y-16044574D01*
X15536905Y-16035050D01*
M02*
