%TF.GenerationSoftware,KiCad,Pcbnew,(6.0.5)*%
%TF.CreationDate,2022-06-17T15:31:11-04:00*%
%TF.ProjectId,Hall_ring,48616c6c-5f72-4696-9e67-2e6b69636164,0*%
%TF.SameCoordinates,Original*%
%TF.FileFunction,Profile,NP*%
%FSLAX46Y46*%
G04 Gerber Fmt 4.6, Leading zero omitted, Abs format (unit mm)*
G04 Created by KiCad (PCBNEW (6.0.5)) date 2022-06-17 15:31:11*
%MOMM*%
%LPD*%
G01*
G04 APERTURE LIST*
%TA.AperFunction,Profile*%
%ADD10C,0.200000*%
%TD*%
G04 APERTURE END LIST*
D10*
X133750000Y-138290000D02*
G75*
G03*
X132750000Y-137290000I-1000000J0D01*
G01*
X129749942Y-111599543D02*
G75*
G03*
X130618188Y-112673725I1098658J43D01*
G01*
X145500003Y-126790001D02*
X144940460Y-126790000D01*
X146250004Y-131540000D02*
X146250004Y-127540001D01*
X138566581Y-142337533D02*
G75*
G03*
X143866155Y-133158765I-11566581J12797533D01*
G01*
X133749959Y-141807845D02*
G75*
G03*
X134504390Y-142238296I500041J45D01*
G01*
X132299690Y-113124318D02*
G75*
G03*
X133588662Y-112628110I337510J1045518D01*
G01*
X124250000Y-115290000D02*
G75*
G03*
X125250004Y-116290000I1000000J0D01*
G01*
X133750004Y-141807845D02*
X133750004Y-138290000D01*
X138357066Y-145211010D02*
G75*
G03*
X138631573Y-144186471I-374966J649510D01*
G01*
X125250004Y-116290000D02*
X133206348Y-116290000D01*
X120131574Y-146936470D02*
X120411346Y-146451891D01*
X146249999Y-127540001D02*
G75*
G03*
X145500004Y-126790001I-749999J1D01*
G01*
X132750000Y-137290000D02*
X121250000Y-137290000D01*
X134504389Y-142238294D02*
G75*
G03*
X133736317Y-116418088I-7504389J12698294D01*
G01*
X138351780Y-115378096D02*
G75*
G03*
X138566581Y-116742463I951420J-549304D01*
G01*
X133588643Y-146451903D02*
G75*
G03*
X132442239Y-145790003I-1146443J-661897D01*
G01*
X121557782Y-145789988D02*
G75*
G03*
X120411346Y-146451892I18J-1323812D01*
G01*
X138351802Y-115378109D02*
X138631574Y-114893531D01*
X138631552Y-114893518D02*
G75*
G03*
X138357054Y-113869011I-649452J375018D01*
G01*
X138631573Y-144186471D02*
X138351801Y-143701892D01*
X138357054Y-113869011D02*
X134892953Y-111869012D01*
X120250000Y-138290000D02*
X120250004Y-141807845D01*
X109059547Y-126790062D02*
G75*
G03*
X110133835Y-125921317I-47J1098662D01*
G01*
X110133729Y-133158186D02*
G75*
G03*
X115432425Y-142336624I16866271J3618186D01*
G01*
X115648225Y-143701903D02*
G75*
G03*
X115432419Y-142336629I-951425J549303D01*
G01*
X120201212Y-116450330D02*
G75*
G03*
X120740286Y-115562914I-460912J887430D01*
G01*
X134892954Y-147210990D02*
X138357054Y-145210990D01*
X115433426Y-116742471D02*
G75*
G03*
X110133836Y-125921317I11566574J-12797529D01*
G01*
X143866277Y-125921815D02*
G75*
G03*
X138566578Y-116742467I-16866277J-3618185D01*
G01*
X115648206Y-143701892D02*
X115368434Y-144186470D01*
X134892991Y-111868947D02*
G75*
G03*
X133868434Y-112143531I-374991J-649553D01*
G01*
X121557782Y-145790001D02*
X132442240Y-145790001D01*
X115368483Y-144186498D02*
G75*
G03*
X115642953Y-145210991I649517J-375002D01*
G01*
X144940461Y-132289951D02*
G75*
G03*
X143866160Y-133158765I39J-1098649D01*
G01*
X143866333Y-125921803D02*
G75*
G03*
X144940460Y-126789999I1074167J230403D01*
G01*
X124999999Y-110289999D02*
G75*
G03*
X124249999Y-111040000I1J-750001D01*
G01*
X133588662Y-146451892D02*
X133868433Y-146936471D01*
X120740286Y-115562914D02*
X120740286Y-113197849D01*
X115642923Y-113868961D02*
G75*
G03*
X115368434Y-114893531I375077J-649539D01*
G01*
X133868498Y-146936433D02*
G75*
G03*
X134892954Y-147210990I649502J374933D01*
G01*
X107750001Y-131540000D02*
G75*
G03*
X108500004Y-132289999I749999J0D01*
G01*
X119107080Y-147210945D02*
G75*
G03*
X120131574Y-146936470I375020J649445D01*
G01*
X115433405Y-116742448D02*
G75*
G03*
X115648205Y-115378110I-736605J815048D01*
G01*
X128999999Y-110290000D02*
X124999999Y-110290000D01*
X108500005Y-132290000D02*
X109059548Y-132290001D01*
X120201221Y-116450347D02*
G75*
G03*
X119495618Y-142238294I6798779J-13089653D01*
G01*
X133868434Y-112143531D02*
X133588662Y-112628110D01*
X110133667Y-133158199D02*
G75*
G03*
X109059548Y-132290001I-1074167J-230401D01*
G01*
X121250000Y-137290000D02*
G75*
G03*
X120250000Y-138290000I0J-1000000D01*
G01*
X124250004Y-111040000D02*
X124250004Y-115290000D01*
X109059547Y-126790000D02*
X108500005Y-126790000D01*
X129750000Y-111040000D02*
G75*
G03*
X128999999Y-110290000I-750000J0D01*
G01*
X133736304Y-116418109D02*
G75*
G03*
X133206347Y-116290000I-530004J-1032291D01*
G01*
X120740286Y-113197849D02*
X120131575Y-112143530D01*
X145500003Y-132290005D02*
G75*
G03*
X146250005Y-131540001I-3J750005D01*
G01*
X132299702Y-113124280D02*
G75*
G03*
X130618188Y-112673725I-5299702J-16415920D01*
G01*
X119495635Y-142238268D02*
G75*
G03*
X120250004Y-141807845I254365J430468D01*
G01*
X108500005Y-126790001D02*
G75*
G03*
X107750001Y-127540000I-5J-749999D01*
G01*
X107750000Y-127540000D02*
X107750005Y-131540000D01*
X119107056Y-111869011D02*
X115642953Y-113869012D01*
X115368434Y-114893531D02*
X115648205Y-115378110D01*
X144940461Y-132290001D02*
X145500003Y-132290001D01*
X129750003Y-111599543D02*
X129750003Y-111040000D01*
X138566599Y-142337553D02*
G75*
G03*
X138351801Y-143701892I736601J-815047D01*
G01*
X115642954Y-145210991D02*
X119107055Y-147210989D01*
X120131618Y-112143505D02*
G75*
G03*
X119107056Y-111869011I-649518J-374995D01*
G01*
M02*
