%TF.GenerationSoftware,KiCad,Pcbnew,(6.0.5)*%
%TF.CreationDate,2022-06-17T15:31:11-04:00*%
%TF.ProjectId,Hall_ring,48616c6c-5f72-4696-9e67-2e6b69636164,0*%
%TF.SameCoordinates,Original*%
%TF.FileFunction,Soldermask,Top*%
%TF.FilePolarity,Negative*%
%FSLAX46Y46*%
G04 Gerber Fmt 4.6, Leading zero omitted, Abs format (unit mm)*
G04 Created by KiCad (PCBNEW (6.0.5)) date 2022-06-17 15:31:11*
%MOMM*%
%LPD*%
G01*
G04 APERTURE LIST*
G04 Aperture macros list*
%AMRoundRect*
0 Rectangle with rounded corners*
0 $1 Rounding radius*
0 $2 $3 $4 $5 $6 $7 $8 $9 X,Y pos of 4 corners*
0 Add a 4 corners polygon primitive as box body*
4,1,4,$2,$3,$4,$5,$6,$7,$8,$9,$2,$3,0*
0 Add four circle primitives for the rounded corners*
1,1,$1+$1,$2,$3*
1,1,$1+$1,$4,$5*
1,1,$1+$1,$6,$7*
1,1,$1+$1,$8,$9*
0 Add four rect primitives between the rounded corners*
20,1,$1+$1,$2,$3,$4,$5,0*
20,1,$1+$1,$4,$5,$6,$7,0*
20,1,$1+$1,$6,$7,$8,$9,0*
20,1,$1+$1,$8,$9,$2,$3,0*%
%AMHorizOval*
0 Thick line with rounded ends*
0 $1 width*
0 $2 $3 position (X,Y) of the first rounded end (center of the circle)*
0 $4 $5 position (X,Y) of the second rounded end (center of the circle)*
0 Add line between two ends*
20,1,$1,$2,$3,$4,$5,0*
0 Add two circle primitives to create the rounded ends*
1,1,$1,$2,$3*
1,1,$1,$4,$5*%
G04 Aperture macros list end*
%ADD10RoundRect,0.197500X-0.213989X-0.075639X0.041489X-0.223139X0.213989X0.075639X-0.041489X0.223139X0*%
%ADD11RoundRect,0.197500X-0.172500X0.147500X-0.172500X-0.147500X0.172500X-0.147500X0.172500X0.147500X0*%
%ADD12RoundRect,0.197500X0.041489X0.223139X-0.213989X0.075639X-0.041489X-0.223139X0.213989X-0.075639X0*%
%ADD13RoundRect,0.197500X-0.041489X-0.223139X0.213989X-0.075639X0.041489X0.223139X-0.213989X0.075639X0*%
%ADD14RoundRect,0.197500X-0.147500X-0.172500X0.147500X-0.172500X0.147500X0.172500X-0.147500X0.172500X0*%
%ADD15RoundRect,0.197500X0.172500X-0.147500X0.172500X0.147500X-0.172500X0.147500X-0.172500X-0.147500X0*%
%ADD16RoundRect,0.050000X-0.675000X0.675000X-0.675000X-0.675000X0.675000X-0.675000X0.675000X0.675000X0*%
%ADD17O,1.450000X1.450000*%
%ADD18RoundRect,0.197500X0.147500X0.172500X-0.147500X0.172500X-0.147500X-0.172500X0.147500X-0.172500X0*%
%ADD19RoundRect,0.299900X-0.275100X-0.400100X0.275100X-0.400100X0.275100X0.400100X-0.275100X0.400100X0*%
%ADD20O,1.150000X1.400000*%
%ADD21RoundRect,0.197500X0.213989X0.075639X-0.041489X0.223139X-0.213989X-0.075639X0.041489X-0.223139X0*%
%ADD22C,0.990000*%
%ADD23RoundRect,0.050000X0.300000X0.800000X-0.300000X0.800000X-0.300000X-0.800000X0.300000X-0.800000X0*%
%ADD24C,1.348000*%
%ADD25RoundRect,0.299900X0.438294X0.208947X-0.038194X0.484047X-0.438294X-0.208947X0.038194X-0.484047X0*%
%ADD26HorizOval,1.150000X0.062500X0.108253X-0.062500X-0.108253X0*%
%ADD27RoundRect,0.299900X-0.400100X0.275100X-0.400100X-0.275100X0.400100X-0.275100X0.400100X0.275100X0*%
%ADD28O,1.400000X1.150000*%
%ADD29RoundRect,0.299900X0.400100X-0.275100X0.400100X0.275100X-0.400100X0.275100X-0.400100X-0.275100X0*%
%ADD30RoundRect,0.299900X-0.438294X-0.208947X0.038194X-0.484047X0.438294X0.208947X-0.038194X0.484047X0*%
%ADD31HorizOval,1.150000X-0.062500X-0.108253X0.062500X0.108253X0*%
%ADD32RoundRect,0.299900X-0.038194X-0.484047X0.438294X-0.208947X0.038194X0.484047X-0.438294X0.208947X0*%
%ADD33HorizOval,1.150000X-0.062500X0.108253X0.062500X-0.108253X0*%
%ADD34RoundRect,0.299900X0.038194X0.484047X-0.438294X0.208947X-0.038194X-0.484047X0.438294X-0.208947X0*%
G04 APERTURE END LIST*
D10*
%TO.C,C5*%
X134379978Y-114397500D03*
X135220022Y-114882500D03*
%TD*%
D11*
%TO.C,C4*%
X143800000Y-128405000D03*
X143800000Y-129375000D03*
%TD*%
D12*
%TO.C,C3*%
X136320022Y-143597500D03*
X135479978Y-144082500D03*
%TD*%
D13*
%TO.C,C7*%
X117079978Y-116082500D03*
X117920022Y-115597500D03*
%TD*%
D14*
%TO.C,C6*%
X124915000Y-113190000D03*
X125885000Y-113190000D03*
%TD*%
D15*
%TO.C,C1*%
X110400000Y-130790000D03*
X110400000Y-129820000D03*
%TD*%
D16*
%TO.C,D1*%
X129250000Y-115290000D03*
D17*
X127250000Y-115290000D03*
X125250000Y-115290000D03*
%TD*%
D18*
%TO.C,R1*%
X132235000Y-115690000D03*
X131265000Y-115690000D03*
%TD*%
D19*
%TO.C,U6*%
X125704600Y-111340000D03*
D20*
X126974600Y-111340000D03*
X128244600Y-111340000D03*
%TD*%
D21*
%TO.C,C2*%
X119550000Y-144440000D03*
X118709956Y-143955000D03*
%TD*%
D18*
%TO.C,R2*%
X127885000Y-113190000D03*
X126915000Y-113190000D03*
%TD*%
D22*
%TO.C,J1*%
X132250000Y-139390000D03*
X121750000Y-139390000D03*
D23*
X129500000Y-138415000D03*
X129500000Y-144665000D03*
X128500000Y-138415000D03*
X128500000Y-144665000D03*
X127500000Y-138415000D03*
X127500000Y-144665000D03*
X126500000Y-138415000D03*
X126500000Y-144665000D03*
X125500000Y-138415000D03*
X125500000Y-144665000D03*
X124500000Y-138415000D03*
X124500000Y-144665000D03*
D24*
X130750000Y-142040000D03*
X123250000Y-142040000D03*
%TD*%
D25*
%TO.C,U2*%
X118999852Y-145925000D03*
D26*
X117900000Y-145290000D03*
X116800147Y-144655000D03*
%TD*%
D27*
%TO.C,U4*%
X145150000Y-128320000D03*
D28*
X145150000Y-129590000D03*
X145150000Y-130860000D03*
%TD*%
D29*
%TO.C,U1*%
X108850000Y-130810000D03*
D28*
X108850000Y-129540000D03*
X108850000Y-128270000D03*
%TD*%
D30*
%TO.C,U5*%
X135000148Y-113155000D03*
D31*
X136100000Y-113790000D03*
X137199853Y-114425000D03*
%TD*%
D32*
%TO.C,U7*%
X116800148Y-114425000D03*
D33*
X117900000Y-113790000D03*
X118999853Y-113155000D03*
%TD*%
D34*
%TO.C,U3*%
X137149852Y-144655000D03*
D33*
X136050000Y-145290000D03*
X134950147Y-145925000D03*
%TD*%
M02*
