%TF.GenerationSoftware,KiCad,Pcbnew,(6.0.5)*%
%TF.CreationDate,2022-06-17T15:31:11-04:00*%
%TF.ProjectId,Hall_ring,48616c6c-5f72-4696-9e67-2e6b69636164,0*%
%TF.SameCoordinates,Original*%
%TF.FileFunction,Copper,L1,Top*%
%TF.FilePolarity,Positive*%
%FSLAX46Y46*%
G04 Gerber Fmt 4.6, Leading zero omitted, Abs format (unit mm)*
G04 Created by KiCad (PCBNEW (6.0.5)) date 2022-06-17 15:31:11*
%MOMM*%
%LPD*%
G01*
G04 APERTURE LIST*
G04 Aperture macros list*
%AMRoundRect*
0 Rectangle with rounded corners*
0 $1 Rounding radius*
0 $2 $3 $4 $5 $6 $7 $8 $9 X,Y pos of 4 corners*
0 Add a 4 corners polygon primitive as box body*
4,1,4,$2,$3,$4,$5,$6,$7,$8,$9,$2,$3,0*
0 Add four circle primitives for the rounded corners*
1,1,$1+$1,$2,$3*
1,1,$1+$1,$4,$5*
1,1,$1+$1,$6,$7*
1,1,$1+$1,$8,$9*
0 Add four rect primitives between the rounded corners*
20,1,$1+$1,$2,$3,$4,$5,0*
20,1,$1+$1,$4,$5,$6,$7,0*
20,1,$1+$1,$6,$7,$8,$9,0*
20,1,$1+$1,$8,$9,$2,$3,0*%
%AMHorizOval*
0 Thick line with rounded ends*
0 $1 width*
0 $2 $3 position (X,Y) of the first rounded end (center of the circle)*
0 $4 $5 position (X,Y) of the second rounded end (center of the circle)*
0 Add line between two ends*
20,1,$1,$2,$3,$4,$5,0*
0 Add two circle primitives to create the rounded ends*
1,1,$1,$2,$3*
1,1,$1,$4,$5*%
G04 Aperture macros list end*
%TA.AperFunction,SMDPad,CuDef*%
%ADD10RoundRect,0.147500X-0.213989X-0.075639X0.041489X-0.223139X0.213989X0.075639X-0.041489X0.223139X0*%
%TD*%
%TA.AperFunction,SMDPad,CuDef*%
%ADD11RoundRect,0.147500X-0.172500X0.147500X-0.172500X-0.147500X0.172500X-0.147500X0.172500X0.147500X0*%
%TD*%
%TA.AperFunction,SMDPad,CuDef*%
%ADD12RoundRect,0.147500X0.041489X0.223139X-0.213989X0.075639X-0.041489X-0.223139X0.213989X-0.075639X0*%
%TD*%
%TA.AperFunction,SMDPad,CuDef*%
%ADD13RoundRect,0.147500X-0.041489X-0.223139X0.213989X-0.075639X0.041489X0.223139X-0.213989X0.075639X0*%
%TD*%
%TA.AperFunction,SMDPad,CuDef*%
%ADD14RoundRect,0.147500X-0.147500X-0.172500X0.147500X-0.172500X0.147500X0.172500X-0.147500X0.172500X0*%
%TD*%
%TA.AperFunction,SMDPad,CuDef*%
%ADD15RoundRect,0.147500X0.172500X-0.147500X0.172500X0.147500X-0.172500X0.147500X-0.172500X-0.147500X0*%
%TD*%
%TA.AperFunction,ComponentPad*%
%ADD16R,1.350000X1.350000*%
%TD*%
%TA.AperFunction,ComponentPad*%
%ADD17O,1.350000X1.350000*%
%TD*%
%TA.AperFunction,SMDPad,CuDef*%
%ADD18RoundRect,0.147500X0.147500X0.172500X-0.147500X0.172500X-0.147500X-0.172500X0.147500X-0.172500X0*%
%TD*%
%TA.AperFunction,ComponentPad*%
%ADD19RoundRect,0.249900X-0.275100X-0.400100X0.275100X-0.400100X0.275100X0.400100X-0.275100X0.400100X0*%
%TD*%
%TA.AperFunction,ComponentPad*%
%ADD20O,1.050000X1.300000*%
%TD*%
%TA.AperFunction,SMDPad,CuDef*%
%ADD21RoundRect,0.147500X0.213989X0.075639X-0.041489X0.223139X-0.213989X-0.075639X0.041489X-0.223139X0*%
%TD*%
%TA.AperFunction,SMDPad,CuDef*%
%ADD22R,0.600000X1.600000*%
%TD*%
%TA.AperFunction,ComponentPad*%
%ADD23C,1.248000*%
%TD*%
%TA.AperFunction,ComponentPad*%
%ADD24RoundRect,0.249900X0.438294X0.208947X-0.038194X0.484047X-0.438294X-0.208947X0.038194X-0.484047X0*%
%TD*%
%TA.AperFunction,ComponentPad*%
%ADD25HorizOval,1.050000X0.062500X0.108253X-0.062500X-0.108253X0*%
%TD*%
%TA.AperFunction,ComponentPad*%
%ADD26RoundRect,0.249900X-0.400100X0.275100X-0.400100X-0.275100X0.400100X-0.275100X0.400100X0.275100X0*%
%TD*%
%TA.AperFunction,ComponentPad*%
%ADD27O,1.300000X1.050000*%
%TD*%
%TA.AperFunction,ComponentPad*%
%ADD28RoundRect,0.249900X0.400100X-0.275100X0.400100X0.275100X-0.400100X0.275100X-0.400100X-0.275100X0*%
%TD*%
%TA.AperFunction,ComponentPad*%
%ADD29RoundRect,0.249900X-0.438294X-0.208947X0.038194X-0.484047X0.438294X0.208947X-0.038194X0.484047X0*%
%TD*%
%TA.AperFunction,ComponentPad*%
%ADD30HorizOval,1.050000X-0.062500X-0.108253X0.062500X0.108253X0*%
%TD*%
%TA.AperFunction,ComponentPad*%
%ADD31RoundRect,0.249900X-0.038194X-0.484047X0.438294X-0.208947X0.038194X0.484047X-0.438294X0.208947X0*%
%TD*%
%TA.AperFunction,ComponentPad*%
%ADD32HorizOval,1.050000X-0.062500X0.108253X0.062500X-0.108253X0*%
%TD*%
%TA.AperFunction,ComponentPad*%
%ADD33RoundRect,0.249900X0.038194X0.484047X-0.438294X0.208947X-0.038194X-0.484047X0.438294X-0.208947X0*%
%TD*%
%TA.AperFunction,ViaPad*%
%ADD34C,0.800000*%
%TD*%
%TA.AperFunction,Conductor*%
%ADD35C,0.250000*%
%TD*%
%TA.AperFunction,Conductor*%
%ADD36C,0.200000*%
%TD*%
G04 APERTURE END LIST*
D10*
%TO.P,C5,1*%
%TO.N,VCC*%
X134379978Y-114397500D03*
%TO.P,C5,2*%
%TO.N,GND*%
X135220022Y-114882500D03*
%TD*%
D11*
%TO.P,C4,1*%
%TO.N,VCC*%
X143800000Y-128405000D03*
%TO.P,C4,2*%
%TO.N,GND*%
X143800000Y-129375000D03*
%TD*%
D12*
%TO.P,C3,1*%
%TO.N,VCC*%
X136320022Y-143597500D03*
%TO.P,C3,2*%
%TO.N,GND*%
X135479978Y-144082500D03*
%TD*%
D13*
%TO.P,C7,1*%
%TO.N,/batt*%
X117079978Y-116082500D03*
%TO.P,C7,2*%
%TO.N,GND*%
X117920022Y-115597500D03*
%TD*%
D14*
%TO.P,C6,1*%
%TO.N,VCC*%
X124915000Y-113190000D03*
%TO.P,C6,2*%
%TO.N,GND*%
X125885000Y-113190000D03*
%TD*%
D15*
%TO.P,C1,1*%
%TO.N,VCC*%
X110400000Y-130790000D03*
%TO.P,C1,2*%
%TO.N,GND*%
X110400000Y-129820000D03*
%TD*%
D16*
%TO.P,D1,1*%
%TO.N,Net-(D1-Pad1)*%
X129250000Y-115290000D03*
D17*
%TO.P,D1,2*%
%TO.N,GND*%
X127250000Y-115290000D03*
%TO.P,D1,3*%
%TO.N,Net-(D1-Pad3)*%
X125250000Y-115290000D03*
%TD*%
D18*
%TO.P,R1,1*%
%TO.N,Net-(J1-Pad03)*%
X132235000Y-115690000D03*
%TO.P,R1,2*%
%TO.N,Net-(D1-Pad1)*%
X131265000Y-115690000D03*
%TD*%
D19*
%TO.P,U6,1*%
%TO.N,VCC*%
X125704600Y-111340000D03*
D20*
%TO.P,U6,2*%
%TO.N,GND*%
X126974600Y-111340000D03*
%TO.P,U6,3*%
%TO.N,/hall_button*%
X128244600Y-111340000D03*
%TD*%
D21*
%TO.P,C2,1*%
%TO.N,VCC*%
X119550000Y-144440000D03*
%TO.P,C2,2*%
%TO.N,GND*%
X118709956Y-143955000D03*
%TD*%
D18*
%TO.P,R2,1*%
%TO.N,Net-(J1-Pad05)*%
X127885000Y-113190000D03*
%TO.P,R2,2*%
%TO.N,Net-(D1-Pad3)*%
X126915000Y-113190000D03*
%TD*%
D22*
%TO.P,J1,01*%
%TO.N,GND*%
X129500000Y-138415000D03*
%TO.P,J1,02*%
%TO.N,VCC*%
X129500000Y-144665000D03*
%TO.P,J1,03*%
%TO.N,Net-(J1-Pad03)*%
X128500000Y-138415000D03*
%TO.P,J1,04*%
%TO.N,/hall_4*%
X128500000Y-144665000D03*
%TO.P,J1,05*%
%TO.N,Net-(J1-Pad05)*%
X127500000Y-138415000D03*
%TO.P,J1,06*%
%TO.N,/hall_5*%
X127500000Y-144665000D03*
%TO.P,J1,07*%
%TO.N,/hall_button*%
X126500000Y-138415000D03*
%TO.P,J1,08*%
%TO.N,/hall_3*%
X126500000Y-144665000D03*
%TO.P,J1,09*%
%TO.N,/batt*%
X125500000Y-138415000D03*
%TO.P,J1,10*%
%TO.N,/hall_1*%
X125500000Y-144665000D03*
%TO.P,J1,11*%
%TO.N,/disable_power*%
X124500000Y-138415000D03*
%TO.P,J1,12*%
%TO.N,/hall_2*%
X124500000Y-144665000D03*
D23*
%TO.P,J1,S1*%
%TO.N,GND*%
X130750000Y-142040000D03*
%TO.P,J1,S2*%
X123250000Y-142040000D03*
%TD*%
D24*
%TO.P,U2,1*%
%TO.N,VCC*%
X118999852Y-145925000D03*
D25*
%TO.P,U2,2*%
%TO.N,GND*%
X117900000Y-145290000D03*
%TO.P,U2,3*%
%TO.N,/hall_2*%
X116800147Y-144655000D03*
%TD*%
D26*
%TO.P,U4,1*%
%TO.N,VCC*%
X145150000Y-128320000D03*
D27*
%TO.P,U4,2*%
%TO.N,GND*%
X145150000Y-129590000D03*
%TO.P,U4,3*%
%TO.N,/hall_4*%
X145150000Y-130860000D03*
%TD*%
D28*
%TO.P,U1,1*%
%TO.N,VCC*%
X108850000Y-130810000D03*
D27*
%TO.P,U1,2*%
%TO.N,GND*%
X108850000Y-129540000D03*
%TO.P,U1,3*%
%TO.N,/hall_1*%
X108850000Y-128270000D03*
%TD*%
D29*
%TO.P,U5,1*%
%TO.N,VCC*%
X135000148Y-113155000D03*
D30*
%TO.P,U5,2*%
%TO.N,GND*%
X136100000Y-113790000D03*
%TO.P,U5,3*%
%TO.N,/hall_5*%
X137199853Y-114425000D03*
%TD*%
D31*
%TO.P,U7,1*%
%TO.N,/batt*%
X116800148Y-114425000D03*
D32*
%TO.P,U7,2*%
%TO.N,GND*%
X117900000Y-113790000D03*
%TO.P,U7,3*%
%TO.N,/disable_power*%
X118999853Y-113155000D03*
%TD*%
D33*
%TO.P,U3,1*%
%TO.N,VCC*%
X137149852Y-144655000D03*
D32*
%TO.P,U3,2*%
%TO.N,GND*%
X136050000Y-145290000D03*
%TO.P,U3,3*%
%TO.N,/hall_3*%
X134950147Y-145925000D03*
%TD*%
D34*
%TO.N,VCC*%
X136700000Y-115740000D03*
X120450000Y-144889990D03*
X143900000Y-131340000D03*
X129500000Y-144664992D03*
%TO.N,Net-(D1-Pad3)*%
X126900000Y-113190000D03*
%TO.N,/hall_5*%
X127500000Y-144665012D03*
%TO.N,/hall_3*%
X131040911Y-145139991D03*
%TO.N,/hall_1*%
X124800000Y-142940000D03*
%TO.N,/hall_button*%
X126500000Y-138415000D03*
X129090432Y-113280000D03*
%TO.N,/hall_4*%
X128500000Y-144665012D03*
%TO.N,/hall_2*%
X124500000Y-144665020D03*
%TO.N,/batt*%
X125500000Y-138415000D03*
%TO.N,Net-(J1-Pad03)*%
X132185032Y-115614996D03*
X128500000Y-138415000D03*
%TO.N,Net-(J1-Pad05)*%
X127500000Y-138415000D03*
X127891776Y-113198224D03*
%TO.N,/disable_power*%
X124500000Y-138415000D03*
%TD*%
D35*
%TO.N,VCC*%
X141600000Y-137990000D02*
X138900000Y-141490000D01*
X136700000Y-115740000D02*
X138700000Y-117740000D01*
X134379978Y-114397500D02*
X134379978Y-113775170D01*
X143250000Y-133890000D02*
X141600000Y-137990000D01*
D36*
X124915000Y-111604600D02*
X124915000Y-113190000D01*
D35*
X118999852Y-145925000D02*
X119550000Y-145374852D01*
X143900000Y-131340000D02*
X143250000Y-133890000D01*
X137149852Y-144427330D02*
X137149852Y-144655000D01*
X136320022Y-143597500D02*
X137149852Y-144427330D01*
D36*
X125704600Y-111340000D02*
X125179600Y-111340000D01*
D35*
X134379978Y-113775170D02*
X135000148Y-113155000D01*
X119999990Y-144889990D02*
X120450000Y-144889990D01*
X143300000Y-125190000D02*
X143800000Y-128405000D01*
D36*
X108850000Y-130810000D02*
X110380000Y-130810000D01*
D35*
X119550000Y-144440000D02*
X119999990Y-144889990D01*
X141550000Y-121140000D02*
X143300000Y-125190000D01*
X136320022Y-143597500D02*
X138900000Y-141490000D01*
D36*
X125179600Y-111340000D02*
X124915000Y-111604600D01*
D35*
X143800000Y-128405000D02*
X145065000Y-128405000D01*
X145065000Y-128405000D02*
X145150000Y-128320000D01*
D36*
X110380000Y-130810000D02*
X110400000Y-130790000D01*
D35*
X119550000Y-145374852D02*
X119550000Y-144440000D01*
X138700000Y-117740000D02*
X141550000Y-121140000D01*
D36*
%TO.N,GND*%
X109130000Y-129820000D02*
X108850000Y-129540000D01*
X136050000Y-145290000D02*
X136050000Y-144652522D01*
X136050000Y-144652522D02*
X135479978Y-144082500D01*
X110400000Y-129820000D02*
X109130000Y-129820000D01*
X118859956Y-144330044D02*
X117900000Y-145290000D01*
X135220022Y-114882500D02*
X135220022Y-114669978D01*
X135220022Y-114669978D02*
X136100000Y-113790000D01*
%TO.N,Net-(D1-Pad1)*%
X129650000Y-115690000D02*
X129250000Y-115290000D01*
X131265000Y-115690000D02*
X129650000Y-115690000D01*
%TO.N,/hall_3*%
X126500000Y-143790000D02*
X126925001Y-143364999D01*
X131040911Y-144574306D02*
X131040911Y-145139991D01*
X126500000Y-144415000D02*
X126500000Y-143790000D01*
X126925001Y-143364999D02*
X129831604Y-143364999D01*
X129831604Y-143364999D02*
X131040911Y-144574306D01*
%TO.N,/hall_1*%
X125500000Y-144415000D02*
X125500000Y-143640000D01*
X125500000Y-143640000D02*
X124800000Y-142940000D01*
%TO.N,/hall_button*%
X128244600Y-111340000D02*
X128244600Y-112434168D01*
X128244600Y-112434168D02*
X129090432Y-113280000D01*
%TO.N,/batt*%
X116800148Y-115802670D02*
X117079978Y-116082500D01*
X116800148Y-114425000D02*
X116800148Y-115802670D01*
%TD*%
%TA.AperFunction,Conductor*%
%TO.N,GND*%
G36*
X127497403Y-110610502D02*
G01*
X127543896Y-110664158D01*
X127554000Y-110734432D01*
X127537384Y-110780856D01*
X127534333Y-110784847D01*
X127531451Y-110791028D01*
X127531449Y-110791031D01*
X127513010Y-110830575D01*
X127458533Y-110947401D01*
X127419407Y-111122440D01*
X127419100Y-111127931D01*
X127419100Y-111509810D01*
X127433603Y-111643309D01*
X127490811Y-111813300D01*
X127583187Y-111967040D01*
X127587878Y-111972000D01*
X127587879Y-111972002D01*
X127626492Y-112012834D01*
X127706422Y-112097357D01*
X127788925Y-112153425D01*
X127834021Y-112208255D01*
X127844100Y-112257635D01*
X127844100Y-112389900D01*
X127824098Y-112458021D01*
X127770442Y-112504514D01*
X127747524Y-112512416D01*
X127645808Y-112536836D01*
X127639064Y-112540317D01*
X127639061Y-112540318D01*
X127509854Y-112607007D01*
X127495145Y-112614599D01*
X127489423Y-112619591D01*
X127489421Y-112619592D01*
X127483913Y-112624397D01*
X127419430Y-112654103D01*
X127349123Y-112644231D01*
X127317268Y-112623521D01*
X127308392Y-112615612D01*
X127308388Y-112615610D01*
X127302721Y-112610560D01*
X127279268Y-112598142D01*
X127215795Y-112564535D01*
X127152881Y-112531224D01*
X126988441Y-112489919D01*
X126980843Y-112489879D01*
X126980841Y-112489879D01*
X126903668Y-112489475D01*
X126818895Y-112489031D01*
X126811508Y-112490805D01*
X126811504Y-112490805D01*
X126668162Y-112525220D01*
X126654032Y-112528612D01*
X126647288Y-112532093D01*
X126647285Y-112532094D01*
X126519320Y-112598142D01*
X126503369Y-112606375D01*
X126497647Y-112611367D01*
X126497645Y-112611368D01*
X126456359Y-112647384D01*
X126375604Y-112717831D01*
X126349068Y-112755588D01*
X126284156Y-112847949D01*
X126278113Y-112856547D01*
X126216524Y-113014513D01*
X126215532Y-113022046D01*
X126215532Y-113022047D01*
X126198851Y-113148759D01*
X126194394Y-113182611D01*
X126212999Y-113351135D01*
X126236248Y-113414665D01*
X126262117Y-113485354D01*
X126271266Y-113510356D01*
X126365830Y-113651083D01*
X126371442Y-113656190D01*
X126371445Y-113656193D01*
X126485612Y-113760077D01*
X126485616Y-113760080D01*
X126491233Y-113765191D01*
X126497906Y-113768814D01*
X126497910Y-113768817D01*
X126633558Y-113842467D01*
X126633560Y-113842468D01*
X126640235Y-113846092D01*
X126647584Y-113848020D01*
X126796883Y-113887188D01*
X126796885Y-113887188D01*
X126804233Y-113889116D01*
X126890609Y-113890473D01*
X126966161Y-113891660D01*
X126966164Y-113891660D01*
X126973760Y-113891779D01*
X126981165Y-113890083D01*
X126981166Y-113890083D01*
X127088943Y-113865399D01*
X127139029Y-113853928D01*
X127290498Y-113777747D01*
X127296269Y-113772818D01*
X127296272Y-113772816D01*
X127302395Y-113767586D01*
X127307786Y-113762982D01*
X127372574Y-113733949D01*
X127442774Y-113744553D01*
X127474417Y-113765597D01*
X127483009Y-113773415D01*
X127512419Y-113789383D01*
X127625334Y-113850691D01*
X127625336Y-113850692D01*
X127632011Y-113854316D01*
X127639360Y-113856244D01*
X127788659Y-113895412D01*
X127788661Y-113895412D01*
X127796009Y-113897340D01*
X127882385Y-113898697D01*
X127957937Y-113899884D01*
X127957940Y-113899884D01*
X127965536Y-113900003D01*
X127972941Y-113898307D01*
X127972942Y-113898307D01*
X128033362Y-113884469D01*
X128130805Y-113862152D01*
X128282274Y-113785971D01*
X128367982Y-113712769D01*
X128432772Y-113683738D01*
X128502972Y-113694343D01*
X128545308Y-113730540D01*
X128547060Y-113729027D01*
X128552029Y-113734784D01*
X128556262Y-113741083D01*
X128561874Y-113746190D01*
X128561877Y-113746193D01*
X128676044Y-113850077D01*
X128676048Y-113850080D01*
X128681665Y-113855191D01*
X128688338Y-113858814D01*
X128688342Y-113858817D01*
X128823990Y-113932467D01*
X128823992Y-113932468D01*
X128830667Y-113936092D01*
X128838016Y-113938020D01*
X128987315Y-113977188D01*
X128987317Y-113977188D01*
X128994665Y-113979116D01*
X129081041Y-113980473D01*
X129156593Y-113981660D01*
X129156596Y-113981660D01*
X129164192Y-113981779D01*
X129171597Y-113980083D01*
X129171598Y-113980083D01*
X129232018Y-113966245D01*
X129329461Y-113943928D01*
X129480930Y-113867747D01*
X129592079Y-113772816D01*
X129604083Y-113762564D01*
X129604084Y-113762563D01*
X129609855Y-113757634D01*
X129708793Y-113619947D01*
X129721198Y-113589090D01*
X129769198Y-113469687D01*
X129769199Y-113469685D01*
X129772033Y-113462634D01*
X129786253Y-113362719D01*
X129795341Y-113298862D01*
X129795341Y-113298859D01*
X129795922Y-113294778D01*
X129796077Y-113280000D01*
X129775708Y-113111680D01*
X129715777Y-112953077D01*
X129697534Y-112926533D01*
X129624046Y-112819608D01*
X129624045Y-112819607D01*
X129619744Y-112813349D01*
X129597418Y-112793457D01*
X129498824Y-112705612D01*
X129498820Y-112705610D01*
X129493153Y-112700560D01*
X129343313Y-112621224D01*
X129178873Y-112579919D01*
X129171275Y-112579879D01*
X129171273Y-112579879D01*
X129009327Y-112579031D01*
X129009342Y-112576097D01*
X128952757Y-112566356D01*
X128919154Y-112542329D01*
X128708971Y-112332146D01*
X128674945Y-112269834D01*
X128680010Y-112199019D01*
X128716738Y-112146813D01*
X128840715Y-112042045D01*
X128840719Y-112042041D01*
X128845929Y-112037638D01*
X128859664Y-112019674D01*
X128950723Y-111900574D01*
X128950726Y-111900570D01*
X128954867Y-111895153D01*
X129030667Y-111732599D01*
X129069793Y-111557560D01*
X129070100Y-111552069D01*
X129070100Y-111170190D01*
X129055597Y-111036691D01*
X128998389Y-110866700D01*
X128952578Y-110790457D01*
X128934638Y-110721765D01*
X128956684Y-110654278D01*
X129011717Y-110609424D01*
X129077026Y-110600641D01*
X129099891Y-110603651D01*
X129131664Y-110612164D01*
X129209426Y-110644374D01*
X129237912Y-110660821D01*
X129304681Y-110712055D01*
X129327939Y-110735313D01*
X129379179Y-110802090D01*
X129395625Y-110830575D01*
X129427836Y-110908337D01*
X129436349Y-110940107D01*
X129445700Y-111011133D01*
X129446778Y-111027583D01*
X129446778Y-111029141D01*
X129444863Y-111040000D01*
X129446777Y-111050855D01*
X129446777Y-111050856D01*
X129447589Y-111055459D01*
X129449503Y-111077339D01*
X129449503Y-111562234D01*
X129447590Y-111584108D01*
X129444867Y-111599555D01*
X129446011Y-111606042D01*
X129446739Y-111615661D01*
X129446739Y-111615662D01*
X129449322Y-111649777D01*
X129461505Y-111810687D01*
X129462574Y-111815325D01*
X129462575Y-111815329D01*
X129508008Y-112012370D01*
X129509078Y-112017010D01*
X129510835Y-112021439D01*
X129510836Y-112021442D01*
X129538291Y-112090647D01*
X129587157Y-112213825D01*
X129589554Y-112217929D01*
X129589556Y-112217932D01*
X129670032Y-112355686D01*
X129693963Y-112396649D01*
X129827064Y-112561320D01*
X129830584Y-112564534D01*
X129830585Y-112564535D01*
X129979916Y-112700880D01*
X129979920Y-112700883D01*
X129983429Y-112704087D01*
X129987378Y-112706725D01*
X129987382Y-112706728D01*
X130013306Y-112724045D01*
X130159496Y-112821699D01*
X130163804Y-112823716D01*
X130163806Y-112823717D01*
X130181543Y-112832021D01*
X130351257Y-112911477D01*
X130355820Y-112912823D01*
X130355823Y-112912824D01*
X130540320Y-112967241D01*
X130540322Y-112967241D01*
X130547515Y-112969363D01*
X130554186Y-112972073D01*
X130554189Y-112972073D01*
X130554194Y-112972075D01*
X130565036Y-112972474D01*
X130565329Y-112972485D01*
X130566461Y-112972526D01*
X130590322Y-112975706D01*
X131108700Y-113096065D01*
X131112783Y-113097085D01*
X131659676Y-113243624D01*
X131663726Y-113244782D01*
X132172823Y-113399729D01*
X132195078Y-113408907D01*
X132205955Y-113414664D01*
X132205959Y-113414665D01*
X132205962Y-113414666D01*
X132211697Y-113415461D01*
X132217355Y-113416784D01*
X132217353Y-113416794D01*
X132218813Y-113417071D01*
X132376480Y-113455108D01*
X132411999Y-113463677D01*
X132416734Y-113464084D01*
X132416736Y-113464084D01*
X132450001Y-113466941D01*
X132622957Y-113481796D01*
X132627708Y-113481485D01*
X132627712Y-113481485D01*
X132757297Y-113473001D01*
X132834239Y-113467964D01*
X133041034Y-113422496D01*
X133208235Y-113358129D01*
X133234193Y-113348136D01*
X133234194Y-113348135D01*
X133238632Y-113346427D01*
X133422534Y-113241491D01*
X133588551Y-113110076D01*
X133651091Y-113042966D01*
X133729665Y-112958651D01*
X133729667Y-112958648D01*
X133732903Y-112955176D01*
X133819138Y-112828886D01*
X133820503Y-112826935D01*
X133820561Y-112826845D01*
X133822360Y-112824333D01*
X133822364Y-112824328D01*
X133822744Y-112824600D01*
X133823709Y-112823766D01*
X133822976Y-112823265D01*
X133822977Y-112823264D01*
X133848296Y-112786185D01*
X133852920Y-112780674D01*
X133858280Y-112765947D01*
X133867560Y-112746045D01*
X134073180Y-112389900D01*
X134110024Y-112326085D01*
X134122616Y-112308100D01*
X134125614Y-112304527D01*
X134125614Y-112304526D01*
X134132700Y-112296081D01*
X134136470Y-112285720D01*
X134137246Y-112284376D01*
X134146402Y-112270671D01*
X134155834Y-112258378D01*
X134190020Y-112213819D01*
X134213279Y-112190558D01*
X134280058Y-112139311D01*
X134308542Y-112122863D01*
X134322396Y-112117124D01*
X134386310Y-112090646D01*
X134418075Y-112082133D01*
X134451677Y-112077707D01*
X134521825Y-112088645D01*
X134574925Y-112135771D01*
X134594117Y-112204124D01*
X134573308Y-112272003D01*
X134563022Y-112284783D01*
X134560962Y-112286416D01*
X134506676Y-112358719D01*
X134063812Y-113125781D01*
X134054011Y-113148759D01*
X134031514Y-113201501D01*
X134031513Y-113201505D01*
X134028339Y-113208946D01*
X134006309Y-113358129D01*
X134022382Y-113485354D01*
X134011076Y-113555445D01*
X134004800Y-113565987D01*
X134001956Y-113571568D01*
X133996129Y-113579589D01*
X133993065Y-113589020D01*
X133993063Y-113589023D01*
X133988714Y-113602407D01*
X133981150Y-113620668D01*
X133977048Y-113628719D01*
X133970259Y-113642044D01*
X133968708Y-113651838D01*
X133966506Y-113665740D01*
X133961892Y-113684960D01*
X133954478Y-113707777D01*
X133954478Y-113909726D01*
X133937597Y-113972726D01*
X133751247Y-114295496D01*
X133738130Y-114324143D01*
X133736711Y-114331689D01*
X133736710Y-114331692D01*
X133727409Y-114381156D01*
X133713234Y-114456537D01*
X133728367Y-114590400D01*
X133732128Y-114599029D01*
X133732129Y-114599033D01*
X133770717Y-114687566D01*
X133782192Y-114713895D01*
X133869951Y-114816103D01*
X133895632Y-114834354D01*
X133898193Y-114835833D01*
X133898203Y-114835839D01*
X134050024Y-114923492D01*
X134243824Y-115035382D01*
X134246531Y-115036622D01*
X134246536Y-115036624D01*
X134252047Y-115039147D01*
X134272470Y-115048498D01*
X134404865Y-115073395D01*
X134465370Y-115066555D01*
X134529363Y-115059321D01*
X134529366Y-115059320D01*
X134538727Y-115058262D01*
X134547364Y-115054498D01*
X134547366Y-115054497D01*
X134653588Y-115008199D01*
X134662222Y-115004436D01*
X134764431Y-114916678D01*
X134782682Y-114890997D01*
X134784161Y-114888436D01*
X134784167Y-114888426D01*
X134967804Y-114570354D01*
X135008709Y-114499504D01*
X135021826Y-114470857D01*
X135025282Y-114452482D01*
X135044982Y-114347715D01*
X135046722Y-114338463D01*
X135044456Y-114318422D01*
X135056678Y-114248488D01*
X135104770Y-114196261D01*
X135153861Y-114179263D01*
X135182135Y-114175691D01*
X135321153Y-114117254D01*
X135439334Y-114023584D01*
X135493620Y-113951281D01*
X135936484Y-113184219D01*
X135953766Y-113143702D01*
X135968782Y-113108499D01*
X135968783Y-113108495D01*
X135971957Y-113101054D01*
X135980535Y-113042966D01*
X136010274Y-112978498D01*
X136070146Y-112940342D01*
X136141142Y-112940613D01*
X136168183Y-112952254D01*
X136879129Y-113362719D01*
X136928122Y-113414101D01*
X136941558Y-113483815D01*
X136915172Y-113549726D01*
X136873574Y-113581313D01*
X136874601Y-113583181D01*
X136868627Y-113586465D01*
X136862321Y-113589090D01*
X136856727Y-113593007D01*
X136856725Y-113593008D01*
X136816974Y-113620842D01*
X136715399Y-113691965D01*
X136593995Y-113823990D01*
X136590984Y-113828592D01*
X136488079Y-114006829D01*
X136415077Y-114133272D01*
X136400044Y-114159309D01*
X136345855Y-114282174D01*
X136343516Y-114293775D01*
X136311751Y-114451307D01*
X136311751Y-114451312D01*
X136310403Y-114457995D01*
X136313532Y-114637325D01*
X136315114Y-114643965D01*
X136348871Y-114785661D01*
X136355098Y-114811801D01*
X136358065Y-114817939D01*
X136358066Y-114817941D01*
X136380682Y-114864723D01*
X136409093Y-114923492D01*
X136424658Y-114955690D01*
X136436298Y-115025726D01*
X136408227Y-115090937D01*
X136369008Y-115122496D01*
X136329618Y-115142827D01*
X136303369Y-115156375D01*
X136297647Y-115161367D01*
X136297645Y-115161368D01*
X136226069Y-115223808D01*
X136175604Y-115267831D01*
X136078113Y-115406547D01*
X136016524Y-115564513D01*
X136015532Y-115572046D01*
X136015532Y-115572047D01*
X135998614Y-115700559D01*
X135994394Y-115732611D01*
X136012999Y-115901135D01*
X136039345Y-115973127D01*
X136063963Y-116040399D01*
X136071266Y-116060356D01*
X136075502Y-116066659D01*
X136075502Y-116066660D01*
X136090617Y-116089153D01*
X136165830Y-116201083D01*
X136171442Y-116206190D01*
X136171445Y-116206193D01*
X136285612Y-116310077D01*
X136285616Y-116310080D01*
X136291233Y-116315191D01*
X136297906Y-116318814D01*
X136297910Y-116318817D01*
X136433558Y-116392467D01*
X136433560Y-116392468D01*
X136440235Y-116396092D01*
X136447584Y-116398020D01*
X136596883Y-116437188D01*
X136596885Y-116437188D01*
X136604233Y-116439116D01*
X136690920Y-116440478D01*
X136749423Y-116441397D01*
X136817221Y-116462466D01*
X136836539Y-116478286D01*
X138381995Y-118023742D01*
X138389462Y-118031894D01*
X140809243Y-120918651D01*
X141172219Y-121351675D01*
X141191320Y-121382639D01*
X142881518Y-125294239D01*
X142890357Y-125324854D01*
X143290373Y-127896958D01*
X143281077Y-127967343D01*
X143267222Y-127991180D01*
X143227101Y-128045500D01*
X143182465Y-128172605D01*
X143179500Y-128203971D01*
X143179501Y-128606028D01*
X143182465Y-128637395D01*
X143185009Y-128644641D01*
X143185010Y-128644643D01*
X143209538Y-128714489D01*
X143227101Y-128764500D01*
X143307138Y-128872862D01*
X143314709Y-128878454D01*
X143387935Y-128932539D01*
X143415500Y-128952899D01*
X143542605Y-128997535D01*
X143550251Y-128998258D01*
X143550252Y-128998258D01*
X143556335Y-128998833D01*
X143573971Y-129000500D01*
X143799809Y-129000500D01*
X144026028Y-129000499D01*
X144028976Y-129000220D01*
X144028985Y-129000220D01*
X144049745Y-128998258D01*
X144049746Y-128998258D01*
X144057395Y-128997535D01*
X144064641Y-128994991D01*
X144064643Y-128994990D01*
X144122042Y-128974833D01*
X144184500Y-128952899D01*
X144192083Y-128947298D01*
X144193139Y-128946739D01*
X144262701Y-128932539D01*
X144328898Y-128958200D01*
X144345706Y-128975111D01*
X144345781Y-128975036D01*
X144351861Y-128981116D01*
X144357049Y-128987951D01*
X144477166Y-129079125D01*
X144518353Y-129095432D01*
X144609847Y-129131657D01*
X144609849Y-129131658D01*
X144617377Y-129134638D01*
X144707136Y-129145500D01*
X145592864Y-129145500D01*
X145682623Y-129134638D01*
X145690151Y-129131658D01*
X145690153Y-129131657D01*
X145777121Y-129097224D01*
X145847821Y-129090745D01*
X145910801Y-129123518D01*
X145946065Y-129185137D01*
X145949504Y-129214376D01*
X145949504Y-130081612D01*
X145929502Y-130149733D01*
X145875846Y-130196226D01*
X145805572Y-130206330D01*
X145746977Y-130181710D01*
X145705153Y-130149733D01*
X145542599Y-130073933D01*
X145367560Y-130034807D01*
X145362069Y-130034500D01*
X144980190Y-130034500D01*
X144846691Y-130049003D01*
X144676700Y-130106211D01*
X144522960Y-130198587D01*
X144392643Y-130321822D01*
X144291829Y-130470166D01*
X144289297Y-130476497D01*
X144243325Y-130591435D01*
X144199456Y-130647256D01*
X144132371Y-130670497D01*
X144095641Y-130666846D01*
X143988441Y-130639919D01*
X143980843Y-130639879D01*
X143980841Y-130639879D01*
X143903668Y-130639475D01*
X143818895Y-130639031D01*
X143811508Y-130640805D01*
X143811504Y-130640805D01*
X143668162Y-130675220D01*
X143654032Y-130678612D01*
X143647288Y-130682093D01*
X143647285Y-130682094D01*
X143587695Y-130712851D01*
X143503369Y-130756375D01*
X143375604Y-130867831D01*
X143371237Y-130874045D01*
X143291102Y-130988066D01*
X143278113Y-131006547D01*
X143216524Y-131164513D01*
X143215532Y-131172046D01*
X143215532Y-131172047D01*
X143201465Y-131278902D01*
X143194394Y-131332611D01*
X143212999Y-131501135D01*
X143271266Y-131660356D01*
X143275504Y-131666662D01*
X143275504Y-131666663D01*
X143318106Y-131730062D01*
X143339498Y-131797759D01*
X143335620Y-131831459D01*
X142846757Y-133749308D01*
X142841550Y-133765227D01*
X141233702Y-137760485D01*
X141216579Y-137790404D01*
X138701215Y-141051061D01*
X138601797Y-141179936D01*
X138581745Y-141200554D01*
X136500170Y-142900925D01*
X136434761Y-142928529D01*
X136406306Y-142928545D01*
X136354269Y-142922662D01*
X136354262Y-142922662D01*
X136344909Y-142921605D01*
X136290500Y-142931837D01*
X136220057Y-142945083D01*
X136220053Y-142945084D01*
X136212514Y-142946502D01*
X136183868Y-142959617D01*
X135835677Y-143160646D01*
X135809995Y-143178897D01*
X135722236Y-143281105D01*
X135718473Y-143289739D01*
X135672173Y-143395967D01*
X135672172Y-143395971D01*
X135668411Y-143404600D01*
X135653278Y-143538463D01*
X135678174Y-143670857D01*
X135691289Y-143699503D01*
X135917319Y-144090995D01*
X135935569Y-144116678D01*
X135941391Y-144121677D01*
X135941392Y-144121678D01*
X135953690Y-144132237D01*
X136037778Y-144204436D01*
X136077672Y-144221824D01*
X136092984Y-144228498D01*
X136147438Y-144274052D01*
X136168620Y-144341816D01*
X136167645Y-144359795D01*
X136158013Y-144436042D01*
X136156013Y-144451871D01*
X136178043Y-144601054D01*
X136181217Y-144608495D01*
X136181218Y-144608499D01*
X136195308Y-144641532D01*
X136213516Y-144684219D01*
X136656380Y-145451281D01*
X136658655Y-145454312D01*
X136658657Y-145454314D01*
X136693511Y-145500736D01*
X136710666Y-145523584D01*
X136756406Y-145559837D01*
X136777757Y-145576760D01*
X136818718Y-145634749D01*
X136821826Y-145705677D01*
X136786094Y-145767026D01*
X136762493Y-145784623D01*
X136611209Y-145871967D01*
X136026419Y-146209595D01*
X135957424Y-146226333D01*
X135890332Y-146203112D01*
X135846445Y-146147305D01*
X135838469Y-146084246D01*
X135841955Y-146057409D01*
X135841955Y-146057402D01*
X135842833Y-146050643D01*
X135837050Y-145984545D01*
X135827796Y-145878765D01*
X135827796Y-145878763D01*
X135827201Y-145871967D01*
X135773565Y-145700816D01*
X135771085Y-145695907D01*
X135580146Y-145365190D01*
X135578140Y-145362450D01*
X135578136Y-145362443D01*
X135504862Y-145262329D01*
X135500836Y-145256828D01*
X135366297Y-145138216D01*
X135209427Y-145051261D01*
X135076027Y-145011493D01*
X135044082Y-145001970D01*
X135037544Y-145000021D01*
X135030743Y-144999522D01*
X135030740Y-144999521D01*
X134865467Y-144987384D01*
X134865464Y-144987384D01*
X134858667Y-144986885D01*
X134770980Y-144999521D01*
X134687899Y-145011493D01*
X134687896Y-145011494D01*
X134681142Y-145012467D01*
X134674749Y-145014870D01*
X134519641Y-145073171D01*
X134519637Y-145073173D01*
X134513252Y-145075573D01*
X134362830Y-145173258D01*
X134358040Y-145178116D01*
X134358038Y-145178117D01*
X134241681Y-145296109D01*
X134241678Y-145296113D01*
X134236892Y-145300966D01*
X134233258Y-145306737D01*
X134233257Y-145306738D01*
X134146386Y-145444689D01*
X134141317Y-145452738D01*
X134108894Y-145542798D01*
X134084730Y-145609917D01*
X134080562Y-145621493D01*
X134079685Y-145628249D01*
X134079684Y-145628251D01*
X134069834Y-145704091D01*
X134057461Y-145799358D01*
X134063244Y-145865452D01*
X134072032Y-145965891D01*
X134073094Y-145978034D01*
X134075133Y-145984541D01*
X134075134Y-145984545D01*
X134109792Y-146095139D01*
X134126729Y-146149185D01*
X134129209Y-146154094D01*
X134130085Y-146155611D01*
X134318443Y-146481858D01*
X134318449Y-146481867D01*
X134320148Y-146484810D01*
X134322154Y-146487550D01*
X134322158Y-146487557D01*
X134395428Y-146587666D01*
X134399458Y-146593172D01*
X134533997Y-146711785D01*
X134539964Y-146715093D01*
X134539969Y-146715096D01*
X134609980Y-146753903D01*
X134627206Y-146763451D01*
X134632856Y-146766583D01*
X134682738Y-146817102D01*
X134697389Y-146886571D01*
X134672157Y-146952932D01*
X134615053Y-146995118D01*
X134588211Y-147001708D01*
X134534423Y-147008787D01*
X134501533Y-147008785D01*
X134418097Y-146997797D01*
X134386326Y-146989282D01*
X134308578Y-146957073D01*
X134280094Y-146940625D01*
X134213331Y-146889389D01*
X134190074Y-146866130D01*
X134146118Y-146808838D01*
X134136963Y-146795135D01*
X134136469Y-146794278D01*
X134132699Y-146783920D01*
X134122614Y-146771900D01*
X134110021Y-146753914D01*
X133867561Y-146333960D01*
X133858282Y-146314062D01*
X133852918Y-146299324D01*
X133846005Y-146291085D01*
X133845615Y-146290502D01*
X133844208Y-146288064D01*
X133842182Y-146285363D01*
X133755484Y-146155611D01*
X133733611Y-146122875D01*
X133593225Y-145962794D01*
X133433146Y-145822406D01*
X133350267Y-145767026D01*
X133259544Y-145706404D01*
X133259537Y-145706400D01*
X133256113Y-145704112D01*
X133166401Y-145659869D01*
X133068853Y-145611761D01*
X133068850Y-145611760D01*
X133065154Y-145609937D01*
X132863536Y-145541493D01*
X132695069Y-145507978D01*
X132658752Y-145500753D01*
X132658750Y-145500753D01*
X132654710Y-145499949D01*
X132650606Y-145499680D01*
X132650599Y-145499679D01*
X132529219Y-145491720D01*
X132459491Y-145487148D01*
X132456452Y-145486782D01*
X132453901Y-145486782D01*
X132452637Y-145486699D01*
X132442248Y-145484867D01*
X132431391Y-145486781D01*
X132430377Y-145486960D01*
X132426818Y-145487587D01*
X132404944Y-145489501D01*
X131841059Y-145489501D01*
X131772938Y-145469499D01*
X131726445Y-145415843D01*
X131716341Y-145345569D01*
X131719353Y-145330889D01*
X131719679Y-145329672D01*
X131722512Y-145322625D01*
X131725572Y-145301126D01*
X131745820Y-145158853D01*
X131745820Y-145158850D01*
X131746401Y-145154769D01*
X131746556Y-145139991D01*
X131726187Y-144971671D01*
X131666256Y-144813068D01*
X131651181Y-144791134D01*
X131574525Y-144679599D01*
X131574524Y-144679598D01*
X131570223Y-144673340D01*
X131560854Y-144664992D01*
X131481969Y-144594708D01*
X131444413Y-144534458D01*
X131441410Y-144520666D01*
X131441410Y-144510873D01*
X131438347Y-144501445D01*
X131438346Y-144501440D01*
X131434614Y-144489953D01*
X131430000Y-144470733D01*
X131428110Y-144458799D01*
X131428108Y-144458791D01*
X131426557Y-144449002D01*
X131422057Y-144440171D01*
X131422056Y-144440167D01*
X131416569Y-144429399D01*
X131409005Y-144411138D01*
X131402207Y-144390216D01*
X131389279Y-144372422D01*
X131378949Y-144355565D01*
X131373463Y-144344799D01*
X131373462Y-144344798D01*
X131368961Y-144335964D01*
X131279253Y-144246256D01*
X130092513Y-143059515D01*
X130092509Y-143059512D01*
X130069946Y-143036949D01*
X130050350Y-143026964D01*
X130033497Y-143016638D01*
X130015694Y-143003703D01*
X129994770Y-142996904D01*
X129976510Y-142989340D01*
X129965745Y-142983855D01*
X129965741Y-142983854D01*
X129956908Y-142979353D01*
X129947117Y-142977802D01*
X129947116Y-142977802D01*
X129935182Y-142975912D01*
X129915957Y-142971296D01*
X129904472Y-142967564D01*
X129904468Y-142967563D01*
X129895037Y-142964499D01*
X126893482Y-142964499D01*
X126893478Y-142964500D01*
X126861568Y-142964500D01*
X126852141Y-142967563D01*
X126852134Y-142967564D01*
X126840648Y-142971296D01*
X126821428Y-142975910D01*
X126809494Y-142977800D01*
X126809486Y-142977802D01*
X126799697Y-142979353D01*
X126790866Y-142983853D01*
X126790862Y-142983854D01*
X126780094Y-142989341D01*
X126761833Y-142996905D01*
X126740911Y-143003703D01*
X126725919Y-143014596D01*
X126723117Y-143016631D01*
X126706260Y-143026961D01*
X126695494Y-143032447D01*
X126695493Y-143032448D01*
X126686659Y-143036949D01*
X126664092Y-143059516D01*
X126194516Y-143529091D01*
X126194513Y-143529095D01*
X126187711Y-143535897D01*
X126134211Y-143567016D01*
X126129154Y-143567618D01*
X126099403Y-143580833D01*
X126057735Y-143599341D01*
X125987360Y-143608714D01*
X125923089Y-143578552D01*
X125887054Y-143523584D01*
X125885646Y-143514696D01*
X125875658Y-143495093D01*
X125868094Y-143476832D01*
X125861296Y-143455910D01*
X125848368Y-143438116D01*
X125838038Y-143421259D01*
X125832552Y-143410493D01*
X125832551Y-143410492D01*
X125828050Y-143401658D01*
X125534520Y-143108128D01*
X125500494Y-143045816D01*
X125498872Y-143001280D01*
X125504909Y-142958863D01*
X125504909Y-142958857D01*
X125505490Y-142954778D01*
X125505645Y-142940000D01*
X125503840Y-142925080D01*
X125489583Y-142807274D01*
X125485276Y-142771680D01*
X125425345Y-142613077D01*
X125397450Y-142572490D01*
X125333614Y-142479608D01*
X125333613Y-142479607D01*
X125329312Y-142473349D01*
X125317514Y-142462837D01*
X125208392Y-142365612D01*
X125208388Y-142365610D01*
X125202721Y-142360560D01*
X125052881Y-142281224D01*
X124888441Y-142239919D01*
X124880843Y-142239879D01*
X124880841Y-142239879D01*
X124803668Y-142239475D01*
X124718895Y-142239031D01*
X124711508Y-142240805D01*
X124711504Y-142240805D01*
X124599020Y-142267811D01*
X124554032Y-142278612D01*
X124547288Y-142282093D01*
X124547285Y-142282094D01*
X124410117Y-142352892D01*
X124403369Y-142356375D01*
X124275604Y-142467831D01*
X124247738Y-142507481D01*
X124199445Y-142576195D01*
X124178113Y-142606547D01*
X124116524Y-142764513D01*
X124115532Y-142772046D01*
X124115532Y-142772047D01*
X124095614Y-142923345D01*
X124094394Y-142932611D01*
X124112999Y-143101135D01*
X124115609Y-143108266D01*
X124167754Y-143250758D01*
X124171266Y-143260356D01*
X124175502Y-143266659D01*
X124175502Y-143266660D01*
X124244395Y-143369184D01*
X124265787Y-143436882D01*
X124247183Y-143505397D01*
X124194490Y-143552978D01*
X124154705Y-143564577D01*
X124144129Y-143565836D01*
X124129154Y-143567618D01*
X124120514Y-143571456D01*
X124120513Y-143571456D01*
X124037482Y-143608337D01*
X124026847Y-143613061D01*
X123947759Y-143692287D01*
X123943056Y-143702924D01*
X123943055Y-143702926D01*
X123922706Y-143748954D01*
X123902494Y-143794673D01*
X123899500Y-143820354D01*
X123899500Y-144261963D01*
X123884544Y-144321506D01*
X123882485Y-144325347D01*
X123878113Y-144331567D01*
X123816524Y-144489533D01*
X123815532Y-144497066D01*
X123815532Y-144497067D01*
X123797650Y-144632900D01*
X123794394Y-144657631D01*
X123812999Y-144826155D01*
X123871266Y-144985376D01*
X123878081Y-144995519D01*
X123899500Y-145065794D01*
X123899500Y-145363501D01*
X123879498Y-145431622D01*
X123825842Y-145478115D01*
X123773500Y-145489501D01*
X121595094Y-145489501D01*
X121573218Y-145487587D01*
X121557778Y-145484865D01*
X121547505Y-145486676D01*
X121545948Y-145486778D01*
X121543525Y-145486778D01*
X121540640Y-145487126D01*
X121349425Y-145499662D01*
X121349421Y-145499663D01*
X121345311Y-145499932D01*
X121136480Y-145541473D01*
X121132580Y-145542797D01*
X121132576Y-145542798D01*
X121129040Y-145543998D01*
X121122481Y-145546225D01*
X121051548Y-145549184D01*
X120990274Y-145513323D01*
X120958115Y-145450027D01*
X120965281Y-145379393D01*
X120979654Y-145353387D01*
X121049626Y-145256009D01*
X121068361Y-145229937D01*
X121102857Y-145144126D01*
X121128766Y-145079677D01*
X121128767Y-145079675D01*
X121131601Y-145072624D01*
X121144895Y-144979211D01*
X121154909Y-144908852D01*
X121154909Y-144908849D01*
X121155490Y-144904768D01*
X121155645Y-144889990D01*
X121152106Y-144860741D01*
X121147196Y-144820171D01*
X121135276Y-144721670D01*
X121075345Y-144563067D01*
X121061403Y-144542781D01*
X120983614Y-144429598D01*
X120983613Y-144429597D01*
X120979312Y-144423339D01*
X120952721Y-144399647D01*
X120858392Y-144315602D01*
X120858388Y-144315600D01*
X120852721Y-144310550D01*
X120841127Y-144304411D01*
X120731290Y-144246256D01*
X120702881Y-144231214D01*
X120538441Y-144189909D01*
X120530843Y-144189869D01*
X120530841Y-144189869D01*
X120453668Y-144189465D01*
X120368895Y-144189021D01*
X120297254Y-144206221D01*
X120226349Y-144202674D01*
X120168614Y-144161354D01*
X120152335Y-144134043D01*
X120151548Y-144132237D01*
X120147786Y-144123605D01*
X120060027Y-144021397D01*
X120034346Y-144003146D01*
X120031785Y-144001667D01*
X120031775Y-144001661D01*
X119791439Y-143862904D01*
X119686154Y-143802118D01*
X119683447Y-143800878D01*
X119683442Y-143800876D01*
X119675257Y-143797129D01*
X119657508Y-143789002D01*
X119525113Y-143764105D01*
X119483768Y-143768779D01*
X119400615Y-143778179D01*
X119400612Y-143778180D01*
X119391251Y-143779238D01*
X119382614Y-143783002D01*
X119382612Y-143783003D01*
X119329462Y-143806169D01*
X119267756Y-143833064D01*
X119165547Y-143920822D01*
X119147296Y-143946503D01*
X119145817Y-143949064D01*
X119145811Y-143949074D01*
X119005698Y-144191760D01*
X118921269Y-144337996D01*
X118908152Y-144366643D01*
X118906733Y-144374189D01*
X118906732Y-144374192D01*
X118896351Y-144429399D01*
X118883256Y-144499037D01*
X118898389Y-144632900D01*
X118902151Y-144641531D01*
X118902151Y-144641532D01*
X118913610Y-144667822D01*
X118933984Y-144714567D01*
X118939073Y-144726244D01*
X118947954Y-144796683D01*
X118917344Y-144860741D01*
X118856960Y-144898082D01*
X118839362Y-144901593D01*
X118826390Y-144903232D01*
X118817865Y-144904309D01*
X118678847Y-144962746D01*
X118560666Y-145056416D01*
X118555809Y-145062885D01*
X118536419Y-145088711D01*
X118506380Y-145128719D01*
X118063516Y-145895781D01*
X118046234Y-145936298D01*
X118031218Y-145971501D01*
X118031217Y-145971505D01*
X118028043Y-145978946D01*
X118026861Y-145986952D01*
X118019465Y-146037033D01*
X117989726Y-146101500D01*
X117929853Y-146139656D01*
X117858857Y-146139385D01*
X117831821Y-146127746D01*
X117302957Y-145822406D01*
X117120874Y-145717280D01*
X117071881Y-145665897D01*
X117058445Y-145596184D01*
X117084831Y-145530273D01*
X117126428Y-145498689D01*
X117125400Y-145496819D01*
X117131375Y-145493534D01*
X117137679Y-145490910D01*
X117284601Y-145388034D01*
X117406005Y-145256009D01*
X117409016Y-145251407D01*
X117425481Y-145222890D01*
X117598249Y-144923648D01*
X117598251Y-144923645D01*
X117599956Y-144920691D01*
X117654145Y-144797826D01*
X117687401Y-144632900D01*
X117688250Y-144628691D01*
X117688250Y-144628689D01*
X117689598Y-144622005D01*
X117686468Y-144442674D01*
X117678953Y-144411129D01*
X117646483Y-144274834D01*
X117646482Y-144274831D01*
X117644902Y-144268199D01*
X117566839Y-144106720D01*
X117455922Y-143965769D01*
X117317326Y-143851925D01*
X117292348Y-143839198D01*
X117163594Y-143773594D01*
X117163591Y-143773593D01*
X117157517Y-143770498D01*
X116983950Y-143725286D01*
X116977134Y-143725024D01*
X116977133Y-143725024D01*
X116883180Y-143721415D01*
X116804724Y-143718402D01*
X116628201Y-143750163D01*
X116462615Y-143819090D01*
X116457021Y-143823007D01*
X116457019Y-143823008D01*
X116382894Y-143874911D01*
X116315693Y-143921965D01*
X116194289Y-144053990D01*
X116191278Y-144058592D01*
X116073807Y-144262058D01*
X116004448Y-144382191D01*
X116000338Y-144389309D01*
X115946149Y-144512174D01*
X115939976Y-144542787D01*
X115912045Y-144681307D01*
X115912045Y-144681312D01*
X115910697Y-144687995D01*
X115910816Y-144694815D01*
X115912346Y-144782522D01*
X115893535Y-144850982D01*
X115840698Y-144898403D01*
X115770611Y-144909731D01*
X115705526Y-144881369D01*
X115686399Y-144861419D01*
X115685879Y-144860741D01*
X115638808Y-144799389D01*
X115622365Y-144770908D01*
X115590160Y-144693146D01*
X115581649Y-144661377D01*
X115570666Y-144577933D01*
X115570667Y-144545044D01*
X115581653Y-144461603D01*
X115590167Y-144429830D01*
X115617750Y-144363241D01*
X115625039Y-144348461D01*
X115625604Y-144347482D01*
X115632689Y-144339039D01*
X115638051Y-144324306D01*
X115647333Y-144304402D01*
X115668235Y-144268199D01*
X115889792Y-143884454D01*
X115902388Y-143866465D01*
X115905375Y-143862906D01*
X115905376Y-143862904D01*
X115912462Y-143854459D01*
X115914846Y-143847909D01*
X115954613Y-143765163D01*
X116001600Y-143667395D01*
X116001603Y-143667388D01*
X116003663Y-143663101D01*
X116065645Y-143460441D01*
X116096395Y-143250758D01*
X116095600Y-143108266D01*
X116095240Y-143043596D01*
X116095240Y-143043590D01*
X116095213Y-143038834D01*
X116094204Y-143032447D01*
X116062868Y-142834206D01*
X116062867Y-142834203D01*
X116062125Y-142829507D01*
X116060683Y-142824973D01*
X115999330Y-142632090D01*
X115999329Y-142632087D01*
X115997886Y-142627551D01*
X115903962Y-142437574D01*
X115879957Y-142403253D01*
X115785223Y-142267811D01*
X115785222Y-142267809D01*
X115782495Y-142263911D01*
X115641640Y-142116170D01*
X115637044Y-142110264D01*
X115636850Y-142110142D01*
X115636735Y-142109995D01*
X115627471Y-142104198D01*
X115607753Y-142088951D01*
X115086609Y-141596301D01*
X115082612Y-141592351D01*
X114560862Y-141053085D01*
X114557045Y-141048960D01*
X114059841Y-140486944D01*
X114056213Y-140482653D01*
X113584583Y-139899049D01*
X113581173Y-139894633D01*
X113136006Y-139290537D01*
X113132788Y-139285960D01*
X112715013Y-138662633D01*
X112711989Y-138657896D01*
X112398413Y-138141661D01*
X112322416Y-138016548D01*
X112319612Y-138011689D01*
X112288684Y-137955243D01*
X111959058Y-137353665D01*
X111956468Y-137348678D01*
X111625597Y-136675197D01*
X111623232Y-136670099D01*
X111322728Y-135982549D01*
X111320592Y-135977351D01*
X111252284Y-135799890D01*
X111051030Y-135277043D01*
X111049136Y-135271773D01*
X110991548Y-135099631D01*
X110811080Y-134560177D01*
X110809419Y-134554818D01*
X110603325Y-133833291D01*
X110601903Y-133827854D01*
X110435832Y-133129978D01*
X110432494Y-133105443D01*
X110432479Y-133105041D01*
X110432080Y-133094192D01*
X110432078Y-133094187D01*
X110432078Y-133094184D01*
X110429126Y-133086917D01*
X110427411Y-133081103D01*
X110427397Y-133081036D01*
X110427360Y-133080930D01*
X110378775Y-132916205D01*
X110371423Y-132891277D01*
X110369174Y-132886472D01*
X110283666Y-132703836D01*
X110281648Y-132699525D01*
X110164042Y-132523466D01*
X110021282Y-132367108D01*
X109856619Y-132234012D01*
X109778100Y-132188141D01*
X109677910Y-132129610D01*
X109677907Y-132129608D01*
X109673803Y-132127211D01*
X109669384Y-132125458D01*
X109669380Y-132125456D01*
X109481421Y-132050890D01*
X109481420Y-132050890D01*
X109476997Y-132049135D01*
X109472362Y-132048066D01*
X109472358Y-132048065D01*
X109399259Y-132031210D01*
X109270684Y-132001563D01*
X109118267Y-131990023D01*
X109115764Y-131989806D01*
X109115722Y-131989804D01*
X109112634Y-131989501D01*
X109112633Y-131989501D01*
X109112613Y-131989499D01*
X109112659Y-131989035D01*
X109111445Y-131988613D01*
X109111378Y-131989501D01*
X109098673Y-131988539D01*
X109066644Y-131986114D01*
X109059561Y-131984865D01*
X109048709Y-131986778D01*
X109048707Y-131986778D01*
X109044114Y-131987588D01*
X109022240Y-131989501D01*
X108779782Y-131989501D01*
X108537324Y-131989500D01*
X108515446Y-131987586D01*
X108515078Y-131987521D01*
X108510869Y-131986779D01*
X108510858Y-131986777D01*
X108500002Y-131984863D01*
X108489146Y-131986777D01*
X108487585Y-131986777D01*
X108471139Y-131985699D01*
X108400110Y-131976348D01*
X108368338Y-131967835D01*
X108290576Y-131935625D01*
X108262091Y-131919179D01*
X108195320Y-131867945D01*
X108172061Y-131844686D01*
X108143642Y-131807650D01*
X108118041Y-131741430D01*
X108132305Y-131671881D01*
X108181906Y-131621085D01*
X108251096Y-131605169D01*
X108289985Y-131613793D01*
X108317377Y-131624638D01*
X108407136Y-131635500D01*
X109292864Y-131635500D01*
X109382623Y-131624638D01*
X109390151Y-131621658D01*
X109390153Y-131621657D01*
X109480525Y-131585876D01*
X109522834Y-131569125D01*
X109642951Y-131477951D01*
X109734125Y-131357834D01*
X109737669Y-131348884D01*
X109743614Y-131333869D01*
X109787289Y-131277895D01*
X109854292Y-131254420D01*
X109923351Y-131270897D01*
X109935624Y-131278902D01*
X110015500Y-131337899D01*
X110142605Y-131382535D01*
X110150251Y-131383258D01*
X110150252Y-131383258D01*
X110156335Y-131383833D01*
X110173971Y-131385500D01*
X110399809Y-131385500D01*
X110626028Y-131385499D01*
X110628976Y-131385220D01*
X110628985Y-131385220D01*
X110649745Y-131383258D01*
X110649746Y-131383258D01*
X110657395Y-131382535D01*
X110664641Y-131379991D01*
X110664643Y-131379990D01*
X110734489Y-131355462D01*
X110784500Y-131337899D01*
X110892862Y-131257862D01*
X110972899Y-131149500D01*
X111017535Y-131022395D01*
X111020500Y-130991029D01*
X111020499Y-130588972D01*
X111019410Y-130577442D01*
X111018258Y-130565255D01*
X111018258Y-130565254D01*
X111017535Y-130557605D01*
X110972899Y-130430500D01*
X110892862Y-130322138D01*
X110806934Y-130258671D01*
X110792074Y-130247695D01*
X110792073Y-130247694D01*
X110784500Y-130242101D01*
X110657395Y-130197465D01*
X110649749Y-130196742D01*
X110649748Y-130196742D01*
X110643665Y-130196167D01*
X110626029Y-130194500D01*
X110400191Y-130194500D01*
X110173972Y-130194501D01*
X110171024Y-130194780D01*
X110171015Y-130194780D01*
X110150255Y-130196742D01*
X110150254Y-130196742D01*
X110142605Y-130197465D01*
X110135359Y-130200009D01*
X110135357Y-130200010D01*
X110065511Y-130224538D01*
X110015500Y-130242101D01*
X110007927Y-130247694D01*
X110007926Y-130247695D01*
X109922544Y-130310759D01*
X109855866Y-130335141D01*
X109786590Y-130319604D01*
X109737912Y-130271261D01*
X109737286Y-130270151D01*
X109734125Y-130262166D01*
X109642951Y-130142049D01*
X109522834Y-130050875D01*
X109410702Y-130006479D01*
X109390153Y-129998343D01*
X109390151Y-129998342D01*
X109382623Y-129995362D01*
X109292864Y-129984500D01*
X108407136Y-129984500D01*
X108317377Y-129995362D01*
X108309849Y-129998342D01*
X108309847Y-129998343D01*
X108222886Y-130032773D01*
X108152186Y-130039252D01*
X108089206Y-130006479D01*
X108053942Y-129944859D01*
X108050503Y-129915621D01*
X108050502Y-129048392D01*
X108070504Y-128980271D01*
X108124160Y-128933778D01*
X108194434Y-128923674D01*
X108253029Y-128948295D01*
X108294847Y-128980267D01*
X108457401Y-129056067D01*
X108632440Y-129095193D01*
X108637931Y-129095500D01*
X109019810Y-129095500D01*
X109153309Y-129080997D01*
X109323300Y-129023789D01*
X109477040Y-128931413D01*
X109607357Y-128808178D01*
X109637041Y-128764500D01*
X109704336Y-128665477D01*
X109708171Y-128659834D01*
X109710703Y-128653504D01*
X109710705Y-128653500D01*
X109772245Y-128499639D01*
X109772246Y-128499634D01*
X109774779Y-128493302D01*
X109775893Y-128486575D01*
X109775894Y-128486570D01*
X109802958Y-128323090D01*
X109802958Y-128323086D01*
X109804073Y-128316352D01*
X109794686Y-128137240D01*
X109792875Y-128130664D01*
X109748870Y-127970902D01*
X109748869Y-127970899D01*
X109747057Y-127964321D01*
X109663406Y-127805664D01*
X109659001Y-127800451D01*
X109658998Y-127800447D01*
X109552044Y-127673885D01*
X109547638Y-127668671D01*
X109534844Y-127658889D01*
X109410574Y-127563877D01*
X109410570Y-127563874D01*
X109405153Y-127559733D01*
X109242599Y-127483933D01*
X109067560Y-127444807D01*
X109062069Y-127444500D01*
X108680190Y-127444500D01*
X108546691Y-127459003D01*
X108376700Y-127516211D01*
X108293359Y-127566287D01*
X108249795Y-127592463D01*
X108181102Y-127610403D01*
X108113615Y-127588356D01*
X108068761Y-127533324D01*
X108059978Y-127468012D01*
X108063652Y-127440108D01*
X108072165Y-127408338D01*
X108104375Y-127330576D01*
X108120822Y-127302090D01*
X108172060Y-127235316D01*
X108195317Y-127212058D01*
X108262092Y-127160819D01*
X108290576Y-127144374D01*
X108368343Y-127112163D01*
X108400107Y-127103652D01*
X108471155Y-127094299D01*
X108487601Y-127093221D01*
X108489145Y-127093221D01*
X108500003Y-127095136D01*
X108510865Y-127093221D01*
X108511828Y-127093051D01*
X108515443Y-127092414D01*
X108537319Y-127090500D01*
X109022239Y-127090500D01*
X109044113Y-127092413D01*
X109059560Y-127095136D01*
X109066039Y-127093993D01*
X109270763Y-127078488D01*
X109477152Y-127030882D01*
X109481582Y-127029124D01*
X109481585Y-127029123D01*
X109573105Y-126992802D01*
X109674024Y-126952751D01*
X109856891Y-126845875D01*
X110021586Y-126712691D01*
X110099997Y-126626763D01*
X110161143Y-126559754D01*
X110164357Y-126556232D01*
X110281950Y-126380066D01*
X110283969Y-126375750D01*
X110283972Y-126375744D01*
X110369667Y-126192519D01*
X110371685Y-126188205D01*
X110425271Y-126006235D01*
X110427038Y-126000236D01*
X110427039Y-126000230D01*
X110429439Y-125992081D01*
X110432182Y-125985328D01*
X110432185Y-125985247D01*
X110432215Y-125985173D01*
X110432619Y-125974040D01*
X110435960Y-125949438D01*
X110453762Y-125874643D01*
X110602049Y-125251588D01*
X110603472Y-125246152D01*
X110809600Y-124524603D01*
X110811264Y-124519234D01*
X111049361Y-123807603D01*
X111051262Y-123802314D01*
X111320874Y-123101968D01*
X111323010Y-123096770D01*
X111566056Y-122540751D01*
X111623566Y-122409184D01*
X111625926Y-122404096D01*
X111956880Y-121730529D01*
X111959446Y-121725590D01*
X112320079Y-121067506D01*
X112322886Y-121062643D01*
X112712523Y-120421268D01*
X112715543Y-120416539D01*
X113133368Y-119793219D01*
X113136600Y-119788622D01*
X113581822Y-119184530D01*
X113585257Y-119180081D01*
X114056961Y-118596464D01*
X114060590Y-118592173D01*
X114557860Y-118030161D01*
X114561677Y-118026036D01*
X115083518Y-117486754D01*
X115087516Y-117482803D01*
X115190308Y-117385647D01*
X115608917Y-116989987D01*
X115625824Y-116976899D01*
X115627129Y-116975687D01*
X115638021Y-116968853D01*
X115638023Y-116968850D01*
X115638028Y-116968847D01*
X115642649Y-116962909D01*
X115700343Y-116902254D01*
X115780165Y-116818336D01*
X115780169Y-116818332D01*
X115783446Y-116814886D01*
X115904623Y-116641259D01*
X115998293Y-116451374D01*
X116062321Y-116249556D01*
X116069148Y-116206193D01*
X116094510Y-116045103D01*
X116094510Y-116045097D01*
X116095250Y-116040400D01*
X116095823Y-115927996D01*
X116096306Y-115833441D01*
X116096306Y-115833435D01*
X116096330Y-115828672D01*
X116065536Y-115619191D01*
X116031249Y-115507166D01*
X116004965Y-115421287D01*
X116004964Y-115421284D01*
X116003570Y-115416730D01*
X115955810Y-115317369D01*
X115937347Y-115278957D01*
X115936293Y-115276703D01*
X115936265Y-115276649D01*
X115934997Y-115273852D01*
X115935416Y-115273662D01*
X115935168Y-115272365D01*
X115934363Y-115272752D01*
X115934363Y-115272751D01*
X115914924Y-115232309D01*
X115912461Y-115225543D01*
X115902384Y-115213534D01*
X115889788Y-115195544D01*
X115667355Y-114810278D01*
X115647333Y-114775598D01*
X115638050Y-114755692D01*
X115636459Y-114751320D01*
X115636459Y-114751319D01*
X115632689Y-114740962D01*
X115625605Y-114732520D01*
X115624824Y-114731168D01*
X115617535Y-114716388D01*
X115590112Y-114650186D01*
X115581598Y-114618413D01*
X115570610Y-114534957D01*
X115570609Y-114502068D01*
X115581594Y-114418609D01*
X115590102Y-114386847D01*
X115593180Y-114379414D01*
X115596082Y-114372408D01*
X115640622Y-114317123D01*
X115707983Y-114294695D01*
X115776776Y-114312245D01*
X115825161Y-114364201D01*
X115828392Y-114371179D01*
X115860440Y-114446313D01*
X115863812Y-114454219D01*
X116306676Y-115221281D01*
X116360962Y-115293584D01*
X116364628Y-115296490D01*
X116397109Y-115357872D01*
X116399648Y-115383040D01*
X116399648Y-115866103D01*
X116402712Y-115875534D01*
X116402713Y-115875538D01*
X116406445Y-115887023D01*
X116411061Y-115906248D01*
X116412581Y-115915842D01*
X116414100Y-115925439D01*
X116414101Y-115925444D01*
X116414502Y-115927973D01*
X116414360Y-115927996D01*
X116418924Y-115973127D01*
X116414291Y-116014108D01*
X116414291Y-116014112D01*
X116413234Y-116023463D01*
X116438130Y-116155857D01*
X116442418Y-116165222D01*
X116449513Y-116180719D01*
X116451245Y-116184503D01*
X116677275Y-116575995D01*
X116695525Y-116601678D01*
X116701347Y-116606677D01*
X116701348Y-116606678D01*
X116736653Y-116636991D01*
X116797734Y-116689436D01*
X116841700Y-116708599D01*
X116912590Y-116739497D01*
X116912592Y-116739498D01*
X116921229Y-116743262D01*
X116930590Y-116744320D01*
X116930593Y-116744321D01*
X117008025Y-116753074D01*
X117055091Y-116758395D01*
X117090163Y-116751800D01*
X117179943Y-116734917D01*
X117179947Y-116734916D01*
X117187486Y-116733498D01*
X117216132Y-116720383D01*
X117564323Y-116519354D01*
X117590005Y-116501103D01*
X117607969Y-116480182D01*
X117671628Y-116406041D01*
X117677764Y-116398895D01*
X117712666Y-116318817D01*
X117727827Y-116284033D01*
X117727828Y-116284029D01*
X117731589Y-116275400D01*
X117746722Y-116141537D01*
X117721826Y-116009143D01*
X117708711Y-115980497D01*
X117482681Y-115589005D01*
X117479685Y-115584788D01*
X117468877Y-115569579D01*
X117464431Y-115563322D01*
X117457574Y-115557434D01*
X117369366Y-115481698D01*
X117362222Y-115475564D01*
X117317212Y-115455946D01*
X117262757Y-115410392D01*
X117241575Y-115342629D01*
X117260391Y-115274171D01*
X117304554Y-115231324D01*
X117550676Y-115089225D01*
X117564812Y-115078612D01*
X117616510Y-115039796D01*
X117622979Y-115034939D01*
X117716649Y-114916758D01*
X117775086Y-114777740D01*
X117793987Y-114628129D01*
X117771957Y-114478946D01*
X117768783Y-114471505D01*
X117768782Y-114471501D01*
X117752627Y-114433627D01*
X117736484Y-114395781D01*
X117293620Y-113628719D01*
X117278747Y-113608909D01*
X117244191Y-113562885D01*
X117239334Y-113556416D01*
X117193318Y-113519944D01*
X117152358Y-113461956D01*
X117149251Y-113391027D01*
X117184984Y-113329678D01*
X117208585Y-113312081D01*
X117797492Y-112972075D01*
X117919527Y-112901618D01*
X117988522Y-112884880D01*
X118055614Y-112908100D01*
X118099501Y-112963907D01*
X118106051Y-113015718D01*
X118108188Y-113015763D01*
X118108045Y-113022596D01*
X118107167Y-113029358D01*
X118122800Y-113208034D01*
X118124839Y-113214541D01*
X118124840Y-113214545D01*
X118155406Y-113312081D01*
X118176435Y-113379185D01*
X118178915Y-113384094D01*
X118197353Y-113416029D01*
X118368149Y-113711858D01*
X118368155Y-113711867D01*
X118369854Y-113714810D01*
X118371860Y-113717550D01*
X118371864Y-113717557D01*
X118439889Y-113810500D01*
X118449164Y-113823172D01*
X118583703Y-113941785D01*
X118589670Y-113945093D01*
X118589675Y-113945096D01*
X118655854Y-113981779D01*
X118740573Y-114028739D01*
X118912456Y-114079980D01*
X119001895Y-114086548D01*
X119084532Y-114092616D01*
X119084536Y-114092616D01*
X119091333Y-114093115D01*
X119196001Y-114078032D01*
X119262101Y-114068507D01*
X119262104Y-114068506D01*
X119268858Y-114067533D01*
X119280410Y-114063191D01*
X119430359Y-114006829D01*
X119430363Y-114006827D01*
X119436748Y-114004427D01*
X119587170Y-113906742D01*
X119595488Y-113898307D01*
X119708319Y-113783891D01*
X119708322Y-113783887D01*
X119713108Y-113779034D01*
X119719542Y-113768817D01*
X119805048Y-113633035D01*
X119805049Y-113633032D01*
X119808683Y-113627262D01*
X119861054Y-113481796D01*
X119867129Y-113464921D01*
X119867129Y-113464920D01*
X119869438Y-113458507D01*
X119871875Y-113439748D01*
X119891661Y-113287402D01*
X119892539Y-113280643D01*
X119886369Y-113210118D01*
X119877502Y-113108765D01*
X119877502Y-113108763D01*
X119876907Y-113101967D01*
X119823271Y-112930816D01*
X119820791Y-112925907D01*
X119629852Y-112595190D01*
X119627846Y-112592450D01*
X119627842Y-112592443D01*
X119563486Y-112504514D01*
X119550542Y-112486828D01*
X119416003Y-112368216D01*
X119352348Y-112332931D01*
X119329866Y-112320469D01*
X119279983Y-112269949D01*
X119265333Y-112200480D01*
X119290565Y-112134119D01*
X119342735Y-112093858D01*
X119350422Y-112090674D01*
X119382185Y-112082162D01*
X119416008Y-112077707D01*
X119465634Y-112071171D01*
X119498523Y-112071169D01*
X119547339Y-112077594D01*
X119581979Y-112082153D01*
X119613751Y-112090666D01*
X119691513Y-112122873D01*
X119720000Y-112139319D01*
X119786780Y-112190560D01*
X119810036Y-112213816D01*
X119843659Y-112257635D01*
X119853430Y-112270369D01*
X119862584Y-112284069D01*
X119863550Y-112285741D01*
X119867319Y-112296097D01*
X119874402Y-112304538D01*
X119874403Y-112304540D01*
X119877395Y-112308105D01*
X119889991Y-112326094D01*
X120416789Y-113238535D01*
X120422905Y-113249128D01*
X120439786Y-113312128D01*
X120439786Y-115525592D01*
X120437872Y-115547472D01*
X120435150Y-115562910D01*
X120437064Y-115573766D01*
X120437064Y-115584788D01*
X120436168Y-115584788D01*
X120436676Y-115596993D01*
X120429281Y-115678041D01*
X120425137Y-115700559D01*
X120397072Y-115800812D01*
X120388923Y-115822207D01*
X120350318Y-115901135D01*
X120343178Y-115915732D01*
X120331292Y-115935298D01*
X120271091Y-116016686D01*
X120269379Y-116019000D01*
X120254148Y-116036093D01*
X120178108Y-116107212D01*
X120160039Y-116121265D01*
X120107194Y-116155138D01*
X120091462Y-116165222D01*
X120076745Y-116172097D01*
X120077183Y-116173012D01*
X120069110Y-116176875D01*
X120060578Y-116179556D01*
X120060575Y-116179558D01*
X120060573Y-116179559D01*
X120060483Y-116179385D01*
X120051522Y-116184332D01*
X120051521Y-116184332D01*
X119447877Y-116517554D01*
X119392497Y-116548125D01*
X118968610Y-116810982D01*
X118804280Y-116912885D01*
X118744050Y-116950234D01*
X118116808Y-117384679D01*
X118115562Y-117385639D01*
X118115551Y-117385647D01*
X117564001Y-117810576D01*
X117512382Y-117850345D01*
X116932325Y-118346035D01*
X116378126Y-118870476D01*
X116377025Y-118871629D01*
X116377007Y-118871647D01*
X116007863Y-119258257D01*
X115851210Y-119422322D01*
X115352928Y-120000155D01*
X115351974Y-120001382D01*
X115351969Y-120001388D01*
X115027332Y-120418883D01*
X114884562Y-120602490D01*
X114883657Y-120603785D01*
X114883652Y-120603791D01*
X114478199Y-121183612D01*
X114447313Y-121227781D01*
X114042306Y-121874422D01*
X113670580Y-122540751D01*
X113333090Y-123225058D01*
X113332455Y-123226528D01*
X113332455Y-123226529D01*
X113031330Y-123924130D01*
X113031322Y-123924151D01*
X113030703Y-123925584D01*
X112764195Y-124640531D01*
X112763710Y-124642066D01*
X112547737Y-125325396D01*
X112534252Y-125368061D01*
X112533849Y-125369605D01*
X112367668Y-126005966D01*
X112341464Y-126106308D01*
X112186325Y-126853373D01*
X112186084Y-126854922D01*
X112186081Y-126854941D01*
X112120308Y-127278468D01*
X112069235Y-127607339D01*
X111990493Y-128366270D01*
X111950304Y-129128214D01*
X111950131Y-129214376D01*
X111948834Y-129858652D01*
X111948768Y-129891217D01*
X111985891Y-130653317D01*
X111986045Y-130654866D01*
X111986046Y-130654874D01*
X112058881Y-131385500D01*
X112061578Y-131412558D01*
X112061818Y-131414148D01*
X112061819Y-131414153D01*
X112108528Y-131723115D01*
X112175633Y-132166989D01*
X112175949Y-132168540D01*
X112175950Y-132168548D01*
X112327446Y-132913113D01*
X112327451Y-132913135D01*
X112327764Y-132914673D01*
X112517580Y-133653689D01*
X112518049Y-133655194D01*
X112518051Y-133655201D01*
X112572713Y-133830602D01*
X112744593Y-134382139D01*
X112809164Y-134557513D01*
X113000069Y-135076011D01*
X113008221Y-135098153D01*
X113008852Y-135099631D01*
X113299194Y-135779760D01*
X113307787Y-135799890D01*
X113642520Y-136485550D01*
X114011561Y-137153370D01*
X114144519Y-137367564D01*
X114410080Y-137795379D01*
X114413963Y-137801635D01*
X114414872Y-137802946D01*
X114847786Y-138427374D01*
X114847797Y-138427388D01*
X114848692Y-138428680D01*
X114849663Y-138429939D01*
X114849668Y-138429946D01*
X115050076Y-138689829D01*
X115314630Y-139032896D01*
X115315648Y-139034087D01*
X115315656Y-139034096D01*
X115618118Y-139387713D01*
X115810582Y-139612729D01*
X116335274Y-140166691D01*
X116887358Y-140693358D01*
X117465415Y-141191379D01*
X117466658Y-141192345D01*
X117466667Y-141192352D01*
X118066708Y-141658499D01*
X118067962Y-141659473D01*
X118693450Y-142096439D01*
X118955601Y-142260466D01*
X119279034Y-142462837D01*
X119340274Y-142501155D01*
X119340374Y-142500986D01*
X119340380Y-142500988D01*
X119340388Y-142500995D01*
X119343859Y-142502298D01*
X119355153Y-142507457D01*
X119488276Y-142568266D01*
X119488278Y-142568267D01*
X119494310Y-142571022D01*
X119500782Y-142572456D01*
X119500785Y-142572457D01*
X119652907Y-142606162D01*
X119652911Y-142606162D01*
X119659381Y-142607596D01*
X119743206Y-142608233D01*
X119821816Y-142608831D01*
X119821820Y-142608831D01*
X119828450Y-142608881D01*
X119994058Y-142574821D01*
X120148898Y-142506918D01*
X120286137Y-142408168D01*
X120399721Y-142282929D01*
X120484638Y-142136726D01*
X120486697Y-142130424D01*
X120535081Y-141982317D01*
X120535082Y-141982314D01*
X120537141Y-141976010D01*
X120547785Y-141875307D01*
X120548652Y-141870319D01*
X120549887Y-141867223D01*
X120550504Y-141860930D01*
X120550504Y-141856227D01*
X120551202Y-141842982D01*
X120553226Y-141823834D01*
X120554574Y-141811082D01*
X120555140Y-141807872D01*
X120552416Y-141792415D01*
X120550504Y-141770547D01*
X120550502Y-139430590D01*
X121000523Y-139430590D01*
X121001763Y-139437805D01*
X121001763Y-139437808D01*
X121017592Y-139529926D01*
X121029963Y-139601918D01*
X121098027Y-139761879D01*
X121201064Y-139901891D01*
X121333548Y-140014444D01*
X121488371Y-140093500D01*
X121495477Y-140095239D01*
X121495480Y-140095240D01*
X121577315Y-140115265D01*
X121657228Y-140134820D01*
X121664729Y-140135285D01*
X121666249Y-140135380D01*
X121666262Y-140135380D01*
X121668190Y-140135500D01*
X121793530Y-140135500D01*
X121884229Y-140124926D01*
X121915398Y-140121292D01*
X121915400Y-140121292D01*
X121922670Y-140120444D01*
X121929547Y-140117948D01*
X121929550Y-140117947D01*
X122079198Y-140063627D01*
X122086077Y-140061130D01*
X122231456Y-139965815D01*
X122351009Y-139839612D01*
X122400070Y-139755147D01*
X122434644Y-139695624D01*
X122434645Y-139695621D01*
X122438322Y-139689291D01*
X122488713Y-139522915D01*
X122489200Y-139515075D01*
X122493718Y-139442245D01*
X122499477Y-139349410D01*
X122490040Y-139294487D01*
X122471277Y-139185298D01*
X122470037Y-139178082D01*
X122401973Y-139018121D01*
X122298936Y-138878109D01*
X122166452Y-138765556D01*
X122011629Y-138686500D01*
X122004523Y-138684761D01*
X122004520Y-138684760D01*
X121914095Y-138662633D01*
X121842772Y-138645180D01*
X121835271Y-138644715D01*
X121833751Y-138644620D01*
X121833738Y-138644620D01*
X121831810Y-138644500D01*
X121706470Y-138644500D01*
X121615771Y-138655074D01*
X121584602Y-138658708D01*
X121584600Y-138658708D01*
X121577330Y-138659556D01*
X121570453Y-138662052D01*
X121570450Y-138662053D01*
X121493929Y-138689829D01*
X121413923Y-138718870D01*
X121268544Y-138814185D01*
X121148991Y-138940388D01*
X121145314Y-138946719D01*
X121100653Y-139023609D01*
X121061678Y-139090709D01*
X121011287Y-139257085D01*
X121010834Y-139264394D01*
X121010833Y-139264397D01*
X121006282Y-139337755D01*
X121000523Y-139430590D01*
X120550502Y-139430590D01*
X120550501Y-138762228D01*
X120550500Y-138327317D01*
X120552414Y-138305437D01*
X120553222Y-138300855D01*
X120553222Y-138300854D01*
X120555136Y-138290000D01*
X120553222Y-138279143D01*
X120553222Y-138268555D01*
X120553829Y-138256206D01*
X120556349Y-138230622D01*
X120562725Y-138165885D01*
X120567543Y-138141661D01*
X120600145Y-138034187D01*
X120609597Y-138011367D01*
X120662537Y-137912324D01*
X120676260Y-137891786D01*
X120747507Y-137804972D01*
X120764972Y-137787507D01*
X120851786Y-137716260D01*
X120872324Y-137702537D01*
X120971367Y-137649597D01*
X120994187Y-137640145D01*
X121101661Y-137607543D01*
X121125885Y-137602725D01*
X121202935Y-137595136D01*
X121216206Y-137593829D01*
X121228555Y-137593222D01*
X121239143Y-137593222D01*
X121250000Y-137595136D01*
X121265437Y-137592414D01*
X121287317Y-137590500D01*
X123773500Y-137590500D01*
X123841621Y-137610502D01*
X123888114Y-137664158D01*
X123899500Y-137716500D01*
X123899500Y-138011943D01*
X123884544Y-138071486D01*
X123882485Y-138075327D01*
X123878113Y-138081547D01*
X123816524Y-138239513D01*
X123815532Y-138247046D01*
X123815532Y-138247047D01*
X123804962Y-138327339D01*
X123794394Y-138407611D01*
X123812999Y-138576135D01*
X123871266Y-138735356D01*
X123878081Y-138745499D01*
X123899500Y-138815774D01*
X123899500Y-139259646D01*
X123902618Y-139285846D01*
X123948061Y-139388153D01*
X124027287Y-139467241D01*
X124037924Y-139471944D01*
X124037926Y-139471945D01*
X124097462Y-139498265D01*
X124129673Y-139512506D01*
X124155354Y-139515500D01*
X124844646Y-139515500D01*
X124848350Y-139515059D01*
X124848353Y-139515059D01*
X124855746Y-139514179D01*
X124870846Y-139512382D01*
X124948787Y-139477762D01*
X125019162Y-139468389D01*
X125050883Y-139477673D01*
X125121007Y-139508675D01*
X125121008Y-139508675D01*
X125129673Y-139512506D01*
X125155354Y-139515500D01*
X125844646Y-139515500D01*
X125848350Y-139515059D01*
X125848353Y-139515059D01*
X125855746Y-139514179D01*
X125870846Y-139512382D01*
X125948787Y-139477762D01*
X126019162Y-139468389D01*
X126050883Y-139477673D01*
X126121007Y-139508675D01*
X126121008Y-139508675D01*
X126129673Y-139512506D01*
X126155354Y-139515500D01*
X126844646Y-139515500D01*
X126848350Y-139515059D01*
X126848353Y-139515059D01*
X126855746Y-139514179D01*
X126870846Y-139512382D01*
X126948787Y-139477762D01*
X127019162Y-139468389D01*
X127050883Y-139477673D01*
X127121007Y-139508675D01*
X127121008Y-139508675D01*
X127129673Y-139512506D01*
X127155354Y-139515500D01*
X127844646Y-139515500D01*
X127848350Y-139515059D01*
X127848353Y-139515059D01*
X127855746Y-139514179D01*
X127870846Y-139512382D01*
X127948787Y-139477762D01*
X128019162Y-139468389D01*
X128050883Y-139477673D01*
X128121007Y-139508675D01*
X128121008Y-139508675D01*
X128129673Y-139512506D01*
X128155354Y-139515500D01*
X128844646Y-139515500D01*
X128848350Y-139515059D01*
X128848353Y-139515059D01*
X128855746Y-139514179D01*
X128870846Y-139512382D01*
X128948988Y-139477673D01*
X128962518Y-139471663D01*
X128973153Y-139466939D01*
X129009439Y-139430590D01*
X131500523Y-139430590D01*
X131501763Y-139437805D01*
X131501763Y-139437808D01*
X131517592Y-139529926D01*
X131529963Y-139601918D01*
X131598027Y-139761879D01*
X131701064Y-139901891D01*
X131833548Y-140014444D01*
X131988371Y-140093500D01*
X131995477Y-140095239D01*
X131995480Y-140095240D01*
X132077315Y-140115265D01*
X132157228Y-140134820D01*
X132164729Y-140135285D01*
X132166249Y-140135380D01*
X132166262Y-140135380D01*
X132168190Y-140135500D01*
X132293530Y-140135500D01*
X132384229Y-140124926D01*
X132415398Y-140121292D01*
X132415400Y-140121292D01*
X132422670Y-140120444D01*
X132429547Y-140117948D01*
X132429550Y-140117947D01*
X132579198Y-140063627D01*
X132586077Y-140061130D01*
X132731456Y-139965815D01*
X132851009Y-139839612D01*
X132900070Y-139755147D01*
X132934644Y-139695624D01*
X132934645Y-139695621D01*
X132938322Y-139689291D01*
X132988713Y-139522915D01*
X132989200Y-139515075D01*
X132993718Y-139442245D01*
X132999477Y-139349410D01*
X132990040Y-139294487D01*
X132971277Y-139185298D01*
X132970037Y-139178082D01*
X132901973Y-139018121D01*
X132798936Y-138878109D01*
X132666452Y-138765556D01*
X132511629Y-138686500D01*
X132504523Y-138684761D01*
X132504520Y-138684760D01*
X132414095Y-138662633D01*
X132342772Y-138645180D01*
X132335271Y-138644715D01*
X132333751Y-138644620D01*
X132333738Y-138644620D01*
X132331810Y-138644500D01*
X132206470Y-138644500D01*
X132115771Y-138655074D01*
X132084602Y-138658708D01*
X132084600Y-138658708D01*
X132077330Y-138659556D01*
X132070453Y-138662052D01*
X132070450Y-138662053D01*
X131993929Y-138689829D01*
X131913923Y-138718870D01*
X131768544Y-138814185D01*
X131648991Y-138940388D01*
X131645314Y-138946719D01*
X131600653Y-139023609D01*
X131561678Y-139090709D01*
X131511287Y-139257085D01*
X131510834Y-139264394D01*
X131510833Y-139264397D01*
X131506282Y-139337755D01*
X131500523Y-139430590D01*
X129009439Y-139430590D01*
X129052241Y-139387713D01*
X129097506Y-139285327D01*
X129100500Y-139259646D01*
X129100500Y-138817893D01*
X129115717Y-138758627D01*
X129118361Y-138754947D01*
X129123703Y-138741660D01*
X129178766Y-138604687D01*
X129178767Y-138604685D01*
X129181601Y-138597634D01*
X129205490Y-138429778D01*
X129205645Y-138415000D01*
X129203840Y-138400080D01*
X129193869Y-138317691D01*
X129185276Y-138246680D01*
X129179167Y-138230512D01*
X129128031Y-138095184D01*
X129128029Y-138095181D01*
X129125345Y-138088077D01*
X129121041Y-138081815D01*
X129117523Y-138075086D01*
X129119516Y-138074044D01*
X129100500Y-138012804D01*
X129100500Y-137716500D01*
X129120502Y-137648379D01*
X129174158Y-137601886D01*
X129226500Y-137590500D01*
X132712683Y-137590500D01*
X132734563Y-137592414D01*
X132739145Y-137593222D01*
X132750000Y-137595136D01*
X132760857Y-137593222D01*
X132771445Y-137593222D01*
X132783794Y-137593829D01*
X132797065Y-137595136D01*
X132874115Y-137602725D01*
X132898339Y-137607543D01*
X133005813Y-137640145D01*
X133028633Y-137649597D01*
X133127676Y-137702537D01*
X133148214Y-137716260D01*
X133235028Y-137787507D01*
X133252493Y-137804972D01*
X133323740Y-137891786D01*
X133337463Y-137912324D01*
X133390403Y-138011367D01*
X133399855Y-138034187D01*
X133432457Y-138141661D01*
X133437275Y-138165885D01*
X133443651Y-138230622D01*
X133446171Y-138256206D01*
X133446778Y-138268555D01*
X133446778Y-138279143D01*
X133444864Y-138290000D01*
X133446778Y-138300854D01*
X133447590Y-138305459D01*
X133449504Y-138327339D01*
X133449504Y-141770547D01*
X133447592Y-141792415D01*
X133444868Y-141807872D01*
X133445320Y-141810432D01*
X133462822Y-141976019D01*
X133464881Y-141982321D01*
X133464881Y-141982322D01*
X133513268Y-142130437D01*
X133513270Y-142130442D01*
X133515329Y-142136744D01*
X133600250Y-142282954D01*
X133713841Y-142408199D01*
X133851088Y-142506954D01*
X133940612Y-142546212D01*
X133999861Y-142572195D01*
X133999865Y-142572196D01*
X134005937Y-142574859D01*
X134088745Y-142591889D01*
X134165057Y-142607583D01*
X134165058Y-142607583D01*
X134171554Y-142608919D01*
X134178183Y-142608869D01*
X134178188Y-142608869D01*
X134333993Y-142607683D01*
X134333997Y-142607683D01*
X134340633Y-142607632D01*
X134432824Y-142587205D01*
X134499233Y-142572490D01*
X134499236Y-142572489D01*
X134505712Y-142571054D01*
X134511746Y-142568298D01*
X134511748Y-142568297D01*
X134644882Y-142507481D01*
X134644884Y-142507480D01*
X134656580Y-142502137D01*
X134659624Y-142500994D01*
X134659631Y-142500988D01*
X134659634Y-142500987D01*
X134659733Y-142501155D01*
X134694166Y-142479608D01*
X135274945Y-142116170D01*
X135307981Y-142095497D01*
X135931895Y-141659473D01*
X135933506Y-141658347D01*
X135933511Y-141658344D01*
X135934795Y-141657446D01*
X136538557Y-141188132D01*
X136548063Y-141179936D01*
X137116480Y-140689827D01*
X137116490Y-140689818D01*
X137117710Y-140688766D01*
X137663271Y-140167789D01*
X137669621Y-140161725D01*
X137669627Y-140161718D01*
X137670760Y-140160637D01*
X138196279Y-139605107D01*
X138391033Y-139377074D01*
X138691879Y-139024820D01*
X138691884Y-139024814D01*
X138692913Y-139023609D01*
X139159379Y-138417644D01*
X139594474Y-137788775D01*
X139997075Y-137138624D01*
X140046283Y-137049327D01*
X140365367Y-136470281D01*
X140365368Y-136470278D01*
X140366145Y-136468869D01*
X140492120Y-136209969D01*
X140700028Y-135782680D01*
X140700030Y-135782676D01*
X140700730Y-135781237D01*
X140829139Y-135479250D01*
X140999348Y-135078962D01*
X140999353Y-135078949D01*
X140999968Y-135077503D01*
X141000515Y-135076011D01*
X141262530Y-134361001D01*
X141262533Y-134360992D01*
X141263086Y-134359483D01*
X141379275Y-133984479D01*
X141488930Y-133630567D01*
X141488935Y-133630548D01*
X141489406Y-133629029D01*
X141678344Y-132888025D01*
X141740721Y-132578492D01*
X141829097Y-132139948D01*
X141829099Y-132139934D01*
X141829412Y-132138383D01*
X141942220Y-131382038D01*
X141943915Y-131364674D01*
X142016326Y-130622500D01*
X142016327Y-130622492D01*
X142016478Y-130620940D01*
X142038194Y-130153874D01*
X142051920Y-129858652D01*
X142051920Y-129858639D01*
X142051994Y-129857053D01*
X142050531Y-129519856D01*
X142048683Y-129093920D01*
X142048683Y-129093913D01*
X142048676Y-129092348D01*
X142048050Y-129080997D01*
X142023966Y-128644643D01*
X142006533Y-128328798D01*
X141956376Y-127857101D01*
X141925841Y-127569940D01*
X141925839Y-127569926D01*
X141925674Y-127568373D01*
X141806307Y-126813035D01*
X141752233Y-126556232D01*
X141649066Y-126066284D01*
X141649064Y-126066277D01*
X141648739Y-126064732D01*
X141453379Y-125325396D01*
X141452895Y-125323880D01*
X141452889Y-125323860D01*
X141221214Y-124598451D01*
X141221212Y-124598444D01*
X141220729Y-124596933D01*
X141037083Y-124108934D01*
X140951949Y-123882708D01*
X140951947Y-123882703D01*
X140951390Y-123881223D01*
X140646057Y-123180112D01*
X140305518Y-122495410D01*
X139930650Y-121828883D01*
X139690852Y-121449042D01*
X139523282Y-121183612D01*
X139523279Y-121183608D01*
X139522422Y-121182250D01*
X139081887Y-120557179D01*
X139080895Y-120555913D01*
X138611174Y-119956553D01*
X138611169Y-119956547D01*
X138610180Y-119955285D01*
X138108520Y-119378118D01*
X138107413Y-119376968D01*
X138107403Y-119376957D01*
X137579311Y-118828323D01*
X137579307Y-118828319D01*
X137578200Y-118827169D01*
X137020588Y-118303859D01*
X136437124Y-117809538D01*
X135829312Y-117345480D01*
X135828027Y-117344598D01*
X135828007Y-117344584D01*
X135200049Y-116913796D01*
X135200030Y-116913784D01*
X135198720Y-116912885D01*
X134546977Y-116512867D01*
X134533572Y-116505549D01*
X133891661Y-116155138D01*
X133875762Y-116146459D01*
X133875672Y-116146633D01*
X133867084Y-116143979D01*
X133867083Y-116143978D01*
X133865285Y-116143422D01*
X133851689Y-116138345D01*
X133719441Y-116080072D01*
X133719436Y-116080070D01*
X133716027Y-116078568D01*
X133656409Y-116060356D01*
X133553747Y-116028995D01*
X133553742Y-116028994D01*
X133550168Y-116027902D01*
X133546494Y-116027241D01*
X133546488Y-116027240D01*
X133473447Y-116014108D01*
X133379479Y-115997213D01*
X133271892Y-115990823D01*
X133265747Y-115989899D01*
X133265726Y-115990117D01*
X133259433Y-115989500D01*
X133253362Y-115989500D01*
X133245891Y-115989278D01*
X133231278Y-115988410D01*
X133217390Y-115986779D01*
X133217218Y-115986779D01*
X133206359Y-115984864D01*
X133190913Y-115987587D01*
X133169038Y-115989500D01*
X132975953Y-115989500D01*
X132907832Y-115969498D01*
X132861339Y-115915842D01*
X132851235Y-115845568D01*
X132859046Y-115816503D01*
X132863798Y-115804683D01*
X132863799Y-115804681D01*
X132866633Y-115797630D01*
X132890522Y-115629774D01*
X132890600Y-115622301D01*
X132890634Y-115619131D01*
X132890634Y-115619125D01*
X132890677Y-115614996D01*
X132870308Y-115446676D01*
X132810377Y-115288073D01*
X132767400Y-115225541D01*
X132718646Y-115154604D01*
X132718645Y-115154603D01*
X132714344Y-115148345D01*
X132708151Y-115142827D01*
X132593424Y-115040608D01*
X132593420Y-115040606D01*
X132587753Y-115035556D01*
X132574614Y-115028599D01*
X132501937Y-114990119D01*
X132437913Y-114956220D01*
X132273473Y-114914915D01*
X132265875Y-114914875D01*
X132265873Y-114914875D01*
X132188700Y-114914471D01*
X132103927Y-114914027D01*
X132096540Y-114915801D01*
X132096536Y-114915801D01*
X131953194Y-114950216D01*
X131939064Y-114953608D01*
X131932320Y-114957089D01*
X131932317Y-114957090D01*
X131795149Y-115027888D01*
X131788401Y-115031371D01*
X131782679Y-115036363D01*
X131782677Y-115036364D01*
X131726608Y-115085276D01*
X131662126Y-115114984D01*
X131602031Y-115109210D01*
X131504642Y-115075010D01*
X131497395Y-115072465D01*
X131489749Y-115071742D01*
X131489748Y-115071742D01*
X131483665Y-115071167D01*
X131466029Y-115069500D01*
X131265170Y-115069500D01*
X131063972Y-115069501D01*
X131061024Y-115069780D01*
X131061015Y-115069780D01*
X131040255Y-115071742D01*
X131040254Y-115071742D01*
X131032605Y-115072465D01*
X131025359Y-115075009D01*
X131025357Y-115075010D01*
X130972119Y-115093706D01*
X130905500Y-115117101D01*
X130897927Y-115122694D01*
X130897926Y-115122695D01*
X130856879Y-115153013D01*
X130797138Y-115197138D01*
X130791546Y-115204709D01*
X130766692Y-115238359D01*
X130710131Y-115281270D01*
X130665340Y-115289500D01*
X130351500Y-115289500D01*
X130283379Y-115269498D01*
X130236886Y-115215842D01*
X130225500Y-115163500D01*
X130225500Y-114570354D01*
X130222382Y-114544154D01*
X130211003Y-114518535D01*
X130181663Y-114452482D01*
X130176939Y-114441847D01*
X130153681Y-114418629D01*
X130106264Y-114371295D01*
X130097713Y-114362759D01*
X130087076Y-114358056D01*
X130087074Y-114358055D01*
X130027286Y-114331623D01*
X129995327Y-114317494D01*
X129969646Y-114314500D01*
X128530354Y-114314500D01*
X128526650Y-114314941D01*
X128526647Y-114314941D01*
X128519254Y-114315821D01*
X128504154Y-114317618D01*
X128495514Y-114321456D01*
X128495513Y-114321456D01*
X128457225Y-114338463D01*
X128401847Y-114363061D01*
X128393628Y-114371294D01*
X128393627Y-114371295D01*
X128378102Y-114386847D01*
X128322759Y-114442287D01*
X128318056Y-114452924D01*
X128318055Y-114452926D01*
X128298654Y-114496811D01*
X128277494Y-114544673D01*
X128274500Y-114570354D01*
X128274500Y-115863500D01*
X128254498Y-115931621D01*
X128200842Y-115978114D01*
X128148500Y-115989500D01*
X126191082Y-115989500D01*
X126122961Y-115969498D01*
X126076468Y-115915842D01*
X126066364Y-115845568D01*
X126081526Y-115801263D01*
X126101813Y-115765551D01*
X126145476Y-115688691D01*
X126205861Y-115507166D01*
X126217747Y-115413077D01*
X126229396Y-115320872D01*
X126229397Y-115320863D01*
X126229838Y-115317369D01*
X126230220Y-115290000D01*
X126211552Y-115099608D01*
X126156259Y-114916467D01*
X126153043Y-114910419D01*
X126069342Y-114753001D01*
X126069341Y-114752999D01*
X126066446Y-114747555D01*
X125987022Y-114650171D01*
X125949430Y-114604078D01*
X125949427Y-114604075D01*
X125945535Y-114599303D01*
X125915039Y-114574074D01*
X125802879Y-114481288D01*
X125798132Y-114477361D01*
X125718040Y-114434055D01*
X125635276Y-114389304D01*
X125635273Y-114389303D01*
X125629851Y-114386371D01*
X125538376Y-114358055D01*
X125452988Y-114331623D01*
X125452985Y-114331622D01*
X125447101Y-114329801D01*
X125440976Y-114329157D01*
X125440975Y-114329157D01*
X125262971Y-114310448D01*
X125262970Y-114310448D01*
X125256843Y-114309804D01*
X125139867Y-114320449D01*
X125072466Y-114326583D01*
X125072465Y-114326583D01*
X125066325Y-114327142D01*
X124882803Y-114381156D01*
X124877338Y-114384013D01*
X124734879Y-114458489D01*
X124665244Y-114472323D01*
X124599183Y-114446313D01*
X124557671Y-114388717D01*
X124550504Y-114346827D01*
X124550504Y-113933520D01*
X124570506Y-113865399D01*
X124624162Y-113818906D01*
X124688362Y-113808079D01*
X124713971Y-113810500D01*
X124914830Y-113810500D01*
X125116028Y-113810499D01*
X125118976Y-113810220D01*
X125118985Y-113810220D01*
X125139745Y-113808258D01*
X125139746Y-113808258D01*
X125147395Y-113807535D01*
X125154641Y-113804991D01*
X125154643Y-113804990D01*
X125234238Y-113777038D01*
X125274500Y-113762899D01*
X125313696Y-113733949D01*
X125375291Y-113688454D01*
X125382862Y-113682862D01*
X125406334Y-113651083D01*
X125457305Y-113582074D01*
X125457306Y-113582073D01*
X125462899Y-113574500D01*
X125507535Y-113447395D01*
X125510500Y-113416029D01*
X125510499Y-112963972D01*
X125509997Y-112958651D01*
X125508258Y-112940255D01*
X125508258Y-112940254D01*
X125507535Y-112932605D01*
X125500589Y-112912824D01*
X125469511Y-112824328D01*
X125462899Y-112805500D01*
X125444563Y-112780674D01*
X125388454Y-112704709D01*
X125382862Y-112697138D01*
X125375291Y-112691546D01*
X125375287Y-112691542D01*
X125366641Y-112685156D01*
X125323730Y-112628595D01*
X125315500Y-112583805D01*
X125315500Y-112416500D01*
X125335502Y-112348379D01*
X125389158Y-112301886D01*
X125441500Y-112290500D01*
X126022464Y-112290500D01*
X126112223Y-112279638D01*
X126119751Y-112276658D01*
X126119753Y-112276657D01*
X126237542Y-112230021D01*
X126252434Y-112224125D01*
X126372551Y-112132951D01*
X126463725Y-112012834D01*
X126492181Y-111940961D01*
X126516257Y-111880153D01*
X126516258Y-111880151D01*
X126519238Y-111872623D01*
X126530100Y-111782864D01*
X126530100Y-110897136D01*
X126519238Y-110807377D01*
X126512767Y-110791031D01*
X126501622Y-110762883D01*
X126495143Y-110692182D01*
X126527916Y-110629203D01*
X126589536Y-110593939D01*
X126618774Y-110590500D01*
X127429282Y-110590500D01*
X127497403Y-110610502D01*
G37*
%TD.AperFunction*%
%TD*%
M02*
