%FSLAX45Y45*%
G04 Gerber Fmt 4.5, Leading zero omitted, Abs format (unit mm)*
G04 Created by KiCad (PCBNEW (6.0.5)) date 2022-06-17 15:32:32*
%MOMM*%
%LPD*%
G01*
G04 APERTURE LIST*
%TA.AperFunction,Profile*%
%ADD10C,0.200000*%
%TD*%
%ADD11C,0.200000*%
%ADD12C,0.089000*%
G04 APERTURE END LIST*
D10*
X13375000Y-13829000D02*
G75*
G03*
X13275000Y-13729000I-100000J0D01*
G01*
X12974994Y-11159954D02*
G75*
G03*
X13061819Y-11267372I109866J4D01*
G01*
X14550000Y-12679000D02*
X14494046Y-12679000D01*
X14625000Y-13154000D02*
X14625000Y-12754000D01*
X13856658Y-14233753D02*
G75*
G03*
X14386615Y-13315876I-1156658J1279753D01*
G01*
X13374996Y-14180784D02*
G75*
G03*
X13450439Y-14223830I50004J5D01*
G01*
X13229969Y-11312432D02*
G75*
G03*
X13358866Y-11262811I33751J104552D01*
G01*
X12425000Y-11529000D02*
G75*
G03*
X12525000Y-11629000I100000J0D01*
G01*
X13375000Y-14180784D02*
X13375000Y-13829000D01*
X13835707Y-14521101D02*
G75*
G03*
X13863157Y-14418647I-37497J64951D01*
G01*
X12525000Y-11629000D02*
X13320635Y-11629000D01*
X12013157Y-14693647D02*
X12041135Y-14645189D01*
X14625000Y-12754000D02*
G75*
G03*
X14550000Y-12679000I-75000J0D01*
G01*
X13275000Y-13729000D02*
X12125000Y-13729000D01*
X13450439Y-14223829D02*
G75*
G03*
X13373632Y-11641809I-750439J1269829D01*
G01*
X13835178Y-11537810D02*
G75*
G03*
X13856658Y-11674246I95142J-54930D01*
G01*
X13358864Y-14645190D02*
G75*
G03*
X13244224Y-14579000I-114644J-66190D01*
G01*
X12155778Y-14578999D02*
G75*
G03*
X12041135Y-14645189I2J-132381D01*
G01*
X13835180Y-11537811D02*
X13863157Y-11489353D01*
X13863155Y-11489352D02*
G75*
G03*
X13835705Y-11386901I-64945J37502D01*
G01*
X13863157Y-14418647D02*
X13835180Y-14370189D01*
X13835705Y-11386901D02*
X13489295Y-11186901D01*
X12025000Y-13829000D02*
X12025000Y-14180784D01*
X10905955Y-12679006D02*
G75*
G03*
X11013384Y-12592132I-5J109866D01*
G01*
X11013373Y-13315819D02*
G75*
G03*
X11543242Y-14233662I1686627J361819D01*
G01*
X11564822Y-14370190D02*
G75*
G03*
X11543242Y-14233663I-95143J54930D01*
G01*
X12020121Y-11645033D02*
G75*
G03*
X12074029Y-11556291I-46091J88743D01*
G01*
X13489295Y-14721099D02*
X13835705Y-14521099D01*
X11543343Y-11674247D02*
G75*
G03*
X11013384Y-12592132I1156657J-1279753D01*
G01*
X14386628Y-12592181D02*
G75*
G03*
X13856658Y-11674247I-1686628J-361819D01*
G01*
X11564821Y-14370189D02*
X11536843Y-14418647D01*
X13489299Y-11186895D02*
G75*
G03*
X13386843Y-11214353I-37499J-64955D01*
G01*
X12155778Y-14579000D02*
X13244224Y-14579000D01*
X11536848Y-14418650D02*
G75*
G03*
X11564295Y-14521099I64952J-37500D01*
G01*
X14494046Y-13228995D02*
G75*
G03*
X14386616Y-13315876I4J-109865D01*
G01*
X14386633Y-12592180D02*
G75*
G03*
X14494046Y-12679000I107417J23040D01*
G01*
X12500000Y-11029000D02*
G75*
G03*
X12425000Y-11104000I0J-75000D01*
G01*
X13358866Y-14645189D02*
X13386843Y-14693647D01*
X12074029Y-11556291D02*
X12074029Y-11319785D01*
X11564292Y-11386896D02*
G75*
G03*
X11536843Y-11489353I37508J-64954D01*
G01*
X13386850Y-14693643D02*
G75*
G03*
X13489295Y-14721099I64950J37493D01*
G01*
X10775000Y-13154000D02*
G75*
G03*
X10850000Y-13229000I75000J0D01*
G01*
X11910708Y-14721094D02*
G75*
G03*
X12013157Y-14693647I37502J64945D01*
G01*
X11543340Y-11674245D02*
G75*
G03*
X11564820Y-11537811I-73661J81505D01*
G01*
X12900000Y-11029000D02*
X12500000Y-11029000D01*
X10850001Y-13229000D02*
X10905955Y-13229000D01*
X12020122Y-11645035D02*
G75*
G03*
X11949562Y-14223829I679878J-1308965D01*
G01*
X13386843Y-11214353D02*
X13358866Y-11262811D01*
X11013367Y-13315820D02*
G75*
G03*
X10905955Y-13229000I-107417J-23040D01*
G01*
X12125000Y-13729000D02*
G75*
G03*
X12025000Y-13829000I0J-100000D01*
G01*
X12425000Y-11104000D02*
X12425000Y-11529000D01*
X10905955Y-12679000D02*
X10850001Y-12679000D01*
X12975000Y-11104000D02*
G75*
G03*
X12900000Y-11029000I-75000J0D01*
G01*
X13373630Y-11641811D02*
G75*
G03*
X13320635Y-11629000I-53000J-103229D01*
G01*
X12074029Y-11319785D02*
X12013157Y-11214353D01*
X14550000Y-13229000D02*
G75*
G03*
X14625000Y-13154000I0J75001D01*
G01*
X13229970Y-11312428D02*
G75*
G03*
X13061819Y-11267372I-529970J-1641592D01*
G01*
X11949563Y-14223827D02*
G75*
G03*
X12025000Y-14180784I25437J43047D01*
G01*
X10850001Y-12679000D02*
G75*
G03*
X10775000Y-12754000I-1J-75000D01*
G01*
X10775000Y-12754000D02*
X10775001Y-13154000D01*
X11910706Y-11186901D02*
X11564295Y-11386901D01*
X11536843Y-11489353D02*
X11564820Y-11537811D01*
X14494046Y-13229000D02*
X14550000Y-13229000D01*
X12975000Y-11159954D02*
X12975000Y-11104000D01*
X13856660Y-14233755D02*
G75*
G03*
X13835180Y-14370189I73660J-81505D01*
G01*
X11564295Y-14521099D02*
X11910705Y-14721099D01*
X12013162Y-11214350D02*
G75*
G03*
X11910706Y-11186901I-64952J-37500D01*
G01*
D11*
D12*
X12130500Y-13894500D02*
X12219500Y-13983500D01*
X12219500Y-13894500D02*
X12130500Y-13983500D01*
X13180500Y-13894500D02*
X13269500Y-13983500D01*
X13269500Y-13894500D02*
X13180500Y-13983500D01*
D11*
X11022619Y-15051621D02*
X11022619Y-14851621D01*
X11070238Y-14851621D01*
X11098810Y-14861145D01*
X11117857Y-14880193D01*
X11127381Y-14899240D01*
X11136905Y-14937336D01*
X11136905Y-14965907D01*
X11127381Y-15004002D01*
X11117857Y-15023050D01*
X11098810Y-15042097D01*
X11070238Y-15051621D01*
X11022619Y-15051621D01*
X11222619Y-15051621D02*
X11222619Y-14918288D01*
X11222619Y-14956383D02*
X11232143Y-14937336D01*
X11241667Y-14927812D01*
X11260714Y-14918288D01*
X11279762Y-14918288D01*
X11346428Y-15051621D02*
X11346428Y-14918288D01*
X11346428Y-14851621D02*
X11336905Y-14861145D01*
X11346428Y-14870669D01*
X11355952Y-14861145D01*
X11346428Y-14851621D01*
X11346428Y-14870669D01*
X11470238Y-15051621D02*
X11451190Y-15042097D01*
X11441667Y-15023050D01*
X11441667Y-14851621D01*
X11575000Y-15051621D02*
X11555952Y-15042097D01*
X11546428Y-15023050D01*
X11546428Y-14851621D01*
X11803571Y-15051621D02*
X11803571Y-14851621D01*
X11870238Y-14994478D01*
X11936905Y-14851621D01*
X11936905Y-15051621D01*
X12117857Y-15051621D02*
X12117857Y-14946859D01*
X12108333Y-14927812D01*
X12089286Y-14918288D01*
X12051190Y-14918288D01*
X12032143Y-14927812D01*
X12117857Y-15042097D02*
X12098809Y-15051621D01*
X12051190Y-15051621D01*
X12032143Y-15042097D01*
X12022619Y-15023050D01*
X12022619Y-15004002D01*
X12032143Y-14984955D01*
X12051190Y-14975431D01*
X12098809Y-14975431D01*
X12117857Y-14965907D01*
X12213095Y-14918288D02*
X12213095Y-15118288D01*
X12213095Y-14927812D02*
X12232143Y-14918288D01*
X12270238Y-14918288D01*
X12289286Y-14927812D01*
X12298809Y-14937336D01*
X12308333Y-14956383D01*
X12308333Y-15013526D01*
X12298809Y-15032574D01*
X12289286Y-15042097D01*
X12270238Y-15051621D01*
X12232143Y-15051621D01*
X12213095Y-15042097D01*
X12394048Y-15032574D02*
X12403571Y-15042097D01*
X12394048Y-15051621D01*
X12384524Y-15042097D01*
X12394048Y-15032574D01*
X12394048Y-15051621D01*
X12394048Y-14927812D02*
X12403571Y-14937336D01*
X12394048Y-14946859D01*
X12384524Y-14937336D01*
X12394048Y-14927812D01*
X12394048Y-14946859D01*
D12*
X10676000Y-15336645D02*
X10765000Y-15425645D01*
X10765000Y-15336645D02*
X10676000Y-15425645D01*
D11*
X11060714Y-15271621D02*
X11079762Y-15271621D01*
X11098810Y-15281145D01*
X11108333Y-15290669D01*
X11117857Y-15309717D01*
X11127381Y-15347812D01*
X11127381Y-15395431D01*
X11117857Y-15433526D01*
X11108333Y-15452574D01*
X11098810Y-15462097D01*
X11079762Y-15471621D01*
X11060714Y-15471621D01*
X11041667Y-15462097D01*
X11032143Y-15452574D01*
X11022619Y-15433526D01*
X11013095Y-15395431D01*
X11013095Y-15347812D01*
X11022619Y-15309717D01*
X11032143Y-15290669D01*
X11041667Y-15281145D01*
X11060714Y-15271621D01*
X11213095Y-15452574D02*
X11222619Y-15462097D01*
X11213095Y-15471621D01*
X11203571Y-15462097D01*
X11213095Y-15452574D01*
X11213095Y-15471621D01*
X11336905Y-15357336D02*
X11317857Y-15347812D01*
X11308333Y-15338288D01*
X11298809Y-15319240D01*
X11298809Y-15309717D01*
X11308333Y-15290669D01*
X11317857Y-15281145D01*
X11336905Y-15271621D01*
X11375000Y-15271621D01*
X11394048Y-15281145D01*
X11403571Y-15290669D01*
X11413095Y-15309717D01*
X11413095Y-15319240D01*
X11403571Y-15338288D01*
X11394048Y-15347812D01*
X11375000Y-15357336D01*
X11336905Y-15357336D01*
X11317857Y-15366859D01*
X11308333Y-15376383D01*
X11298809Y-15395431D01*
X11298809Y-15433526D01*
X11308333Y-15452574D01*
X11317857Y-15462097D01*
X11336905Y-15471621D01*
X11375000Y-15471621D01*
X11394048Y-15462097D01*
X11403571Y-15452574D01*
X11413095Y-15433526D01*
X11413095Y-15395431D01*
X11403571Y-15376383D01*
X11394048Y-15366859D01*
X11375000Y-15357336D01*
X11508333Y-15471621D02*
X11546428Y-15471621D01*
X11565476Y-15462097D01*
X11575000Y-15452574D01*
X11594048Y-15424002D01*
X11603571Y-15385907D01*
X11603571Y-15309717D01*
X11594048Y-15290669D01*
X11584524Y-15281145D01*
X11565476Y-15271621D01*
X11527381Y-15271621D01*
X11508333Y-15281145D01*
X11498809Y-15290669D01*
X11489286Y-15309717D01*
X11489286Y-15357336D01*
X11498809Y-15376383D01*
X11508333Y-15385907D01*
X11527381Y-15395431D01*
X11565476Y-15395431D01*
X11584524Y-15385907D01*
X11594048Y-15376383D01*
X11603571Y-15357336D01*
X11727381Y-15271621D02*
X11746428Y-15271621D01*
X11765476Y-15281145D01*
X11775000Y-15290669D01*
X11784524Y-15309717D01*
X11794048Y-15347812D01*
X11794048Y-15395431D01*
X11784524Y-15433526D01*
X11775000Y-15452574D01*
X11765476Y-15462097D01*
X11746428Y-15471621D01*
X11727381Y-15471621D01*
X11708333Y-15462097D01*
X11698809Y-15452574D01*
X11689286Y-15433526D01*
X11679762Y-15395431D01*
X11679762Y-15347812D01*
X11689286Y-15309717D01*
X11698809Y-15290669D01*
X11708333Y-15281145D01*
X11727381Y-15271621D01*
X11879762Y-15471621D02*
X11879762Y-15338288D01*
X11879762Y-15357336D02*
X11889286Y-15347812D01*
X11908333Y-15338288D01*
X11936905Y-15338288D01*
X11955952Y-15347812D01*
X11965476Y-15366859D01*
X11965476Y-15471621D01*
X11965476Y-15366859D02*
X11975000Y-15347812D01*
X11994048Y-15338288D01*
X12022619Y-15338288D01*
X12041667Y-15347812D01*
X12051190Y-15366859D01*
X12051190Y-15471621D01*
X12146428Y-15471621D02*
X12146428Y-15338288D01*
X12146428Y-15357336D02*
X12155952Y-15347812D01*
X12175000Y-15338288D01*
X12203571Y-15338288D01*
X12222619Y-15347812D01*
X12232143Y-15366859D01*
X12232143Y-15471621D01*
X12232143Y-15366859D02*
X12241667Y-15347812D01*
X12260714Y-15338288D01*
X12289286Y-15338288D01*
X12308333Y-15347812D01*
X12317857Y-15366859D01*
X12317857Y-15471621D01*
X12708333Y-15262097D02*
X12536905Y-15519240D01*
X12965476Y-15271621D02*
X12984524Y-15271621D01*
X13003571Y-15281145D01*
X13013095Y-15290669D01*
X13022619Y-15309717D01*
X13032143Y-15347812D01*
X13032143Y-15395431D01*
X13022619Y-15433526D01*
X13013095Y-15452574D01*
X13003571Y-15462097D01*
X12984524Y-15471621D01*
X12965476Y-15471621D01*
X12946428Y-15462097D01*
X12936905Y-15452574D01*
X12927381Y-15433526D01*
X12917857Y-15395431D01*
X12917857Y-15347812D01*
X12927381Y-15309717D01*
X12936905Y-15290669D01*
X12946428Y-15281145D01*
X12965476Y-15271621D01*
X13117857Y-15452574D02*
X13127381Y-15462097D01*
X13117857Y-15471621D01*
X13108333Y-15462097D01*
X13117857Y-15452574D01*
X13117857Y-15471621D01*
X13251190Y-15271621D02*
X13270238Y-15271621D01*
X13289286Y-15281145D01*
X13298809Y-15290669D01*
X13308333Y-15309717D01*
X13317857Y-15347812D01*
X13317857Y-15395431D01*
X13308333Y-15433526D01*
X13298809Y-15452574D01*
X13289286Y-15462097D01*
X13270238Y-15471621D01*
X13251190Y-15471621D01*
X13232143Y-15462097D01*
X13222619Y-15452574D01*
X13213095Y-15433526D01*
X13203571Y-15395431D01*
X13203571Y-15347812D01*
X13213095Y-15309717D01*
X13222619Y-15290669D01*
X13232143Y-15281145D01*
X13251190Y-15271621D01*
X13384524Y-15271621D02*
X13508333Y-15271621D01*
X13441667Y-15347812D01*
X13470238Y-15347812D01*
X13489286Y-15357336D01*
X13498809Y-15366859D01*
X13508333Y-15385907D01*
X13508333Y-15433526D01*
X13498809Y-15452574D01*
X13489286Y-15462097D01*
X13470238Y-15471621D01*
X13413095Y-15471621D01*
X13394048Y-15462097D01*
X13384524Y-15452574D01*
X13689286Y-15271621D02*
X13594048Y-15271621D01*
X13584524Y-15366859D01*
X13594048Y-15357336D01*
X13613095Y-15347812D01*
X13660714Y-15347812D01*
X13679762Y-15357336D01*
X13689286Y-15366859D01*
X13698809Y-15385907D01*
X13698809Y-15433526D01*
X13689286Y-15452574D01*
X13679762Y-15462097D01*
X13660714Y-15471621D01*
X13613095Y-15471621D01*
X13594048Y-15462097D01*
X13584524Y-15452574D01*
X13822619Y-15271621D02*
X13841667Y-15271621D01*
X13860714Y-15281145D01*
X13870238Y-15290669D01*
X13879762Y-15309717D01*
X13889286Y-15347812D01*
X13889286Y-15395431D01*
X13879762Y-15433526D01*
X13870238Y-15452574D01*
X13860714Y-15462097D01*
X13841667Y-15471621D01*
X13822619Y-15471621D01*
X13803571Y-15462097D01*
X13794048Y-15452574D01*
X13784524Y-15433526D01*
X13775000Y-15395431D01*
X13775000Y-15347812D01*
X13784524Y-15309717D01*
X13794048Y-15290669D01*
X13803571Y-15281145D01*
X13822619Y-15271621D01*
X13965476Y-15271621D02*
X13965476Y-15309717D01*
X14041667Y-15271621D02*
X14041667Y-15309717D01*
X14336905Y-15547812D02*
X14327381Y-15538288D01*
X14308333Y-15509717D01*
X14298809Y-15490669D01*
X14289286Y-15462097D01*
X14279762Y-15414478D01*
X14279762Y-15376383D01*
X14289286Y-15328764D01*
X14298809Y-15300193D01*
X14308333Y-15281145D01*
X14327381Y-15252574D01*
X14336905Y-15243050D01*
X14403571Y-15290669D02*
X14413095Y-15281145D01*
X14432143Y-15271621D01*
X14479762Y-15271621D01*
X14498809Y-15281145D01*
X14508333Y-15290669D01*
X14517857Y-15309717D01*
X14517857Y-15328764D01*
X14508333Y-15357336D01*
X14394048Y-15471621D01*
X14517857Y-15471621D01*
X14755952Y-15471621D02*
X14755952Y-15271621D01*
X14841667Y-15471621D02*
X14841667Y-15366859D01*
X14832143Y-15347812D01*
X14813095Y-15338288D01*
X14784524Y-15338288D01*
X14765476Y-15347812D01*
X14755952Y-15357336D01*
X14965476Y-15471621D02*
X14946428Y-15462097D01*
X14936905Y-15452574D01*
X14927381Y-15433526D01*
X14927381Y-15376383D01*
X14936905Y-15357336D01*
X14946428Y-15347812D01*
X14965476Y-15338288D01*
X14994048Y-15338288D01*
X15013095Y-15347812D01*
X15022619Y-15357336D01*
X15032143Y-15376383D01*
X15032143Y-15433526D01*
X15022619Y-15452574D01*
X15013095Y-15462097D01*
X14994048Y-15471621D01*
X14965476Y-15471621D01*
X15146428Y-15471621D02*
X15127381Y-15462097D01*
X15117857Y-15443050D01*
X15117857Y-15271621D01*
X15298809Y-15462097D02*
X15279762Y-15471621D01*
X15241667Y-15471621D01*
X15222619Y-15462097D01*
X15213095Y-15443050D01*
X15213095Y-15366859D01*
X15222619Y-15347812D01*
X15241667Y-15338288D01*
X15279762Y-15338288D01*
X15298809Y-15347812D01*
X15308333Y-15366859D01*
X15308333Y-15385907D01*
X15213095Y-15404955D01*
X15384524Y-15462097D02*
X15403571Y-15471621D01*
X15441667Y-15471621D01*
X15460714Y-15462097D01*
X15470238Y-15443050D01*
X15470238Y-15433526D01*
X15460714Y-15414478D01*
X15441667Y-15404955D01*
X15413095Y-15404955D01*
X15394048Y-15395431D01*
X15384524Y-15376383D01*
X15384524Y-15366859D01*
X15394048Y-15347812D01*
X15413095Y-15338288D01*
X15441667Y-15338288D01*
X15460714Y-15347812D01*
X15536905Y-15547812D02*
X15546428Y-15538288D01*
X15565476Y-15509717D01*
X15575000Y-15490669D01*
X15584524Y-15462097D01*
X15594048Y-15414478D01*
X15594048Y-15376383D01*
X15584524Y-15328764D01*
X15575000Y-15300193D01*
X15565476Y-15281145D01*
X15546428Y-15252574D01*
X15536905Y-15243050D01*
X15898809Y-15547812D02*
X15889286Y-15538288D01*
X15870238Y-15509717D01*
X15860714Y-15490669D01*
X15851190Y-15462097D01*
X15841667Y-15414478D01*
X15841667Y-15376383D01*
X15851190Y-15328764D01*
X15860714Y-15300193D01*
X15870238Y-15281145D01*
X15889286Y-15252574D01*
X15898809Y-15243050D01*
X15975000Y-15338288D02*
X15975000Y-15471621D01*
X15975000Y-15357336D02*
X15984524Y-15347812D01*
X16003571Y-15338288D01*
X16032143Y-15338288D01*
X16051190Y-15347812D01*
X16060714Y-15366859D01*
X16060714Y-15471621D01*
X16184524Y-15471621D02*
X16165476Y-15462097D01*
X16155952Y-15452574D01*
X16146428Y-15433526D01*
X16146428Y-15376383D01*
X16155952Y-15357336D01*
X16165476Y-15347812D01*
X16184524Y-15338288D01*
X16213095Y-15338288D01*
X16232143Y-15347812D01*
X16241667Y-15357336D01*
X16251190Y-15376383D01*
X16251190Y-15433526D01*
X16241667Y-15452574D01*
X16232143Y-15462097D01*
X16213095Y-15471621D01*
X16184524Y-15471621D01*
X16308333Y-15338288D02*
X16384524Y-15338288D01*
X16336905Y-15271621D02*
X16336905Y-15443050D01*
X16346428Y-15462097D01*
X16365476Y-15471621D01*
X16384524Y-15471621D01*
X16603571Y-15338288D02*
X16603571Y-15538288D01*
X16603571Y-15347812D02*
X16622619Y-15338288D01*
X16660714Y-15338288D01*
X16679762Y-15347812D01*
X16689286Y-15357336D01*
X16698809Y-15376383D01*
X16698809Y-15433526D01*
X16689286Y-15452574D01*
X16679762Y-15462097D01*
X16660714Y-15471621D01*
X16622619Y-15471621D01*
X16603571Y-15462097D01*
X16813095Y-15471621D02*
X16794048Y-15462097D01*
X16784524Y-15443050D01*
X16784524Y-15271621D01*
X16975000Y-15471621D02*
X16975000Y-15366859D01*
X16965476Y-15347812D01*
X16946429Y-15338288D01*
X16908333Y-15338288D01*
X16889286Y-15347812D01*
X16975000Y-15462097D02*
X16955952Y-15471621D01*
X16908333Y-15471621D01*
X16889286Y-15462097D01*
X16879762Y-15443050D01*
X16879762Y-15424002D01*
X16889286Y-15404955D01*
X16908333Y-15395431D01*
X16955952Y-15395431D01*
X16975000Y-15385907D01*
X17041667Y-15338288D02*
X17117857Y-15338288D01*
X17070238Y-15271621D02*
X17070238Y-15443050D01*
X17079762Y-15462097D01*
X17098810Y-15471621D01*
X17117857Y-15471621D01*
X17260714Y-15462097D02*
X17241667Y-15471621D01*
X17203571Y-15471621D01*
X17184524Y-15462097D01*
X17175000Y-15443050D01*
X17175000Y-15366859D01*
X17184524Y-15347812D01*
X17203571Y-15338288D01*
X17241667Y-15338288D01*
X17260714Y-15347812D01*
X17270238Y-15366859D01*
X17270238Y-15385907D01*
X17175000Y-15404955D01*
X17441667Y-15471621D02*
X17441667Y-15271621D01*
X17441667Y-15462097D02*
X17422619Y-15471621D01*
X17384524Y-15471621D01*
X17365476Y-15462097D01*
X17355952Y-15452574D01*
X17346429Y-15433526D01*
X17346429Y-15376383D01*
X17355952Y-15357336D01*
X17365476Y-15347812D01*
X17384524Y-15338288D01*
X17422619Y-15338288D01*
X17441667Y-15347812D01*
X17517857Y-15547812D02*
X17527381Y-15538288D01*
X17546429Y-15509717D01*
X17555952Y-15490669D01*
X17565476Y-15462097D01*
X17575000Y-15414478D01*
X17575000Y-15376383D01*
X17565476Y-15328764D01*
X17555952Y-15300193D01*
X17546429Y-15281145D01*
X17527381Y-15252574D01*
X17517857Y-15243050D01*
M02*
