%TF.GenerationSoftware,KiCad,Pcbnew,(6.0.5)*%
%TF.CreationDate,2022-06-17T15:31:11-04:00*%
%TF.ProjectId,Hall_ring,48616c6c-5f72-4696-9e67-2e6b69636164,0*%
%TF.SameCoordinates,Original*%
%TF.FileFunction,Legend,Top*%
%TF.FilePolarity,Positive*%
%FSLAX46Y46*%
G04 Gerber Fmt 4.6, Leading zero omitted, Abs format (unit mm)*
G04 Created by KiCad (PCBNEW (6.0.5)) date 2022-06-17 15:31:11*
%MOMM*%
%LPD*%
G01*
G04 APERTURE LIST*
G04 Aperture macros list*
%AMRoundRect*
0 Rectangle with rounded corners*
0 $1 Rounding radius*
0 $2 $3 $4 $5 $6 $7 $8 $9 X,Y pos of 4 corners*
0 Add a 4 corners polygon primitive as box body*
4,1,4,$2,$3,$4,$5,$6,$7,$8,$9,$2,$3,0*
0 Add four circle primitives for the rounded corners*
1,1,$1+$1,$2,$3*
1,1,$1+$1,$4,$5*
1,1,$1+$1,$6,$7*
1,1,$1+$1,$8,$9*
0 Add four rect primitives between the rounded corners*
20,1,$1+$1,$2,$3,$4,$5,0*
20,1,$1+$1,$4,$5,$6,$7,0*
20,1,$1+$1,$6,$7,$8,$9,0*
20,1,$1+$1,$8,$9,$2,$3,0*%
%AMHorizOval*
0 Thick line with rounded ends*
0 $1 width*
0 $2 $3 position (X,Y) of the first rounded end (center of the circle)*
0 $4 $5 position (X,Y) of the second rounded end (center of the circle)*
0 Add line between two ends*
20,1,$1,$2,$3,$4,$5,0*
0 Add two circle primitives to create the rounded ends*
1,1,$1,$2,$3*
1,1,$1,$4,$5*%
G04 Aperture macros list end*
%ADD10C,0.150000*%
%ADD11C,0.120000*%
%ADD12C,0.200000*%
%ADD13RoundRect,0.197500X-0.213989X-0.075639X0.041489X-0.223139X0.213989X0.075639X-0.041489X0.223139X0*%
%ADD14RoundRect,0.197500X-0.172500X0.147500X-0.172500X-0.147500X0.172500X-0.147500X0.172500X0.147500X0*%
%ADD15RoundRect,0.197500X0.041489X0.223139X-0.213989X0.075639X-0.041489X-0.223139X0.213989X-0.075639X0*%
%ADD16RoundRect,0.197500X-0.041489X-0.223139X0.213989X-0.075639X0.041489X0.223139X-0.213989X0.075639X0*%
%ADD17RoundRect,0.197500X-0.147500X-0.172500X0.147500X-0.172500X0.147500X0.172500X-0.147500X0.172500X0*%
%ADD18RoundRect,0.197500X0.172500X-0.147500X0.172500X0.147500X-0.172500X0.147500X-0.172500X-0.147500X0*%
%ADD19RoundRect,0.050000X-0.675000X0.675000X-0.675000X-0.675000X0.675000X-0.675000X0.675000X0.675000X0*%
%ADD20O,1.450000X1.450000*%
%ADD21RoundRect,0.197500X0.147500X0.172500X-0.147500X0.172500X-0.147500X-0.172500X0.147500X-0.172500X0*%
%ADD22RoundRect,0.299900X-0.275100X-0.400100X0.275100X-0.400100X0.275100X0.400100X-0.275100X0.400100X0*%
%ADD23O,1.150000X1.400000*%
%ADD24RoundRect,0.197500X0.213989X0.075639X-0.041489X0.223139X-0.213989X-0.075639X0.041489X-0.223139X0*%
%ADD25C,0.990000*%
%ADD26RoundRect,0.050000X0.300000X0.800000X-0.300000X0.800000X-0.300000X-0.800000X0.300000X-0.800000X0*%
%ADD27C,1.348000*%
%ADD28RoundRect,0.299900X0.438294X0.208947X-0.038194X0.484047X-0.438294X-0.208947X0.038194X-0.484047X0*%
%ADD29HorizOval,1.150000X0.062500X0.108253X-0.062500X-0.108253X0*%
%ADD30RoundRect,0.299900X-0.400100X0.275100X-0.400100X-0.275100X0.400100X-0.275100X0.400100X0.275100X0*%
%ADD31O,1.400000X1.150000*%
%ADD32RoundRect,0.299900X0.400100X-0.275100X0.400100X0.275100X-0.400100X0.275100X-0.400100X-0.275100X0*%
%ADD33RoundRect,0.299900X-0.438294X-0.208947X0.038194X-0.484047X0.438294X0.208947X-0.038194X0.484047X0*%
%ADD34HorizOval,1.150000X-0.062500X-0.108253X0.062500X0.108253X0*%
%ADD35RoundRect,0.299900X-0.038194X-0.484047X0.438294X-0.208947X0.038194X0.484047X-0.438294X0.208947X0*%
%ADD36HorizOval,1.150000X-0.062500X0.108253X0.062500X-0.108253X0*%
%ADD37RoundRect,0.299900X0.038194X0.484047X-0.438294X0.208947X-0.038194X-0.484047X0.438294X-0.208947X0*%
G04 APERTURE END LIST*
D10*
X140117963Y-139272493D02*
X139251938Y-138772493D01*
X139664331Y-139010588D02*
X139950045Y-138515716D01*
X140403678Y-138777621D02*
X139537652Y-138277621D01*
X140856059Y-137994074D02*
X140402426Y-137732170D01*
X140296138Y-137725790D01*
X140207280Y-137784459D01*
X140112042Y-137949416D01*
X140105662Y-138055704D01*
X140814819Y-137970265D02*
X140808440Y-138076553D01*
X140689392Y-138282749D01*
X140600534Y-138341419D01*
X140494245Y-138335039D01*
X140411767Y-138287420D01*
X140353098Y-138198561D01*
X140359478Y-138092273D01*
X140478525Y-137886077D01*
X140484905Y-137779789D01*
X141165582Y-137457963D02*
X141076724Y-137516632D01*
X140970436Y-137510253D01*
X140228128Y-137081681D01*
X141427487Y-137004331D02*
X141338629Y-137063000D01*
X141232341Y-137056620D01*
X140490033Y-136628049D01*
X141061462Y-135638306D02*
X142094154Y-135849630D01*
X141394795Y-135060955D01*
X141620131Y-134861139D02*
X141602701Y-134796090D01*
X141609081Y-134689802D01*
X141728128Y-134483605D01*
X141816987Y-134424936D01*
X141882036Y-134407506D01*
X141988324Y-134413886D01*
X142070802Y-134461505D01*
X142170711Y-134574173D01*
X142379868Y-135354759D01*
X142689392Y-134818648D01*
X110789178Y-134061917D02*
X111655204Y-133561917D01*
X111203281Y-134207735D01*
X111988537Y-134139268D01*
X111122512Y-134639268D01*
X111574893Y-135422814D02*
X112028525Y-135160910D01*
X112087194Y-135072051D01*
X112080814Y-134965763D01*
X111985576Y-134800806D01*
X111896718Y-134742137D01*
X111616132Y-135399005D02*
X111527274Y-135340336D01*
X111408226Y-135134139D01*
X111401846Y-135027851D01*
X111460515Y-134938993D01*
X111542994Y-134891374D01*
X111649282Y-134884994D01*
X111738141Y-134943663D01*
X111857188Y-135149860D01*
X111946047Y-135208529D01*
X111812988Y-135835207D02*
X112679013Y-135335207D01*
X112190521Y-135727210D02*
X112003464Y-136165122D01*
X112580814Y-135831788D02*
X112060424Y-135692350D01*
X112432036Y-136907429D02*
X112885668Y-136645525D01*
X112944337Y-136556666D01*
X112937957Y-136450378D01*
X112842719Y-136285421D01*
X112753861Y-136226752D01*
X112473275Y-136883620D02*
X112384417Y-136824951D01*
X112265369Y-136618754D01*
X112258989Y-136512466D01*
X112317658Y-136423608D01*
X112400137Y-136375989D01*
X112506425Y-136369609D01*
X112595283Y-136428278D01*
X112714331Y-136634474D01*
X112803189Y-136693144D01*
X113051083Y-137979651D02*
X113917109Y-137479651D01*
X113336798Y-138474523D01*
X114202823Y-137974523D01*
X113574893Y-138886916D02*
X114152243Y-138553583D01*
X114440918Y-138386916D02*
X114375869Y-138369486D01*
X114358440Y-138434535D01*
X114423488Y-138451965D01*
X114440918Y-138386916D01*
X114358440Y-138434535D01*
X114604624Y-139337129D02*
X114027274Y-139670463D01*
X114390338Y-138965976D02*
X113936706Y-139227880D01*
X113878037Y-139316739D01*
X113884417Y-139423027D01*
X113955845Y-139546745D01*
X114044704Y-139605414D01*
X114109752Y-139622844D01*
%TO.C,C5*%
X136722908Y-115514038D02*
X136787957Y-115496608D01*
X136935485Y-115526798D01*
X137017963Y-115574417D01*
X137117872Y-115687084D01*
X137152731Y-115817182D01*
X137146352Y-115923470D01*
X137092353Y-116112237D01*
X137020924Y-116235955D01*
X136884447Y-116377103D01*
X136795588Y-116435772D01*
X136665491Y-116470631D01*
X136517963Y-116440442D01*
X136435485Y-116392823D01*
X136335576Y-116280155D01*
X136318147Y-116215106D01*
X135486981Y-115845204D02*
X135899374Y-116083299D01*
X136178708Y-115694716D01*
X136113660Y-115712145D01*
X136007371Y-115705766D01*
X135801175Y-115586718D01*
X135742506Y-115497860D01*
X135725076Y-115432811D01*
X135731456Y-115326523D01*
X135850503Y-115120326D01*
X135939362Y-115061657D01*
X136004411Y-115044227D01*
X136110699Y-115050607D01*
X136316895Y-115169655D01*
X136375564Y-115258513D01*
X136392994Y-115323562D01*
%TO.C,C4*%
X144057142Y-130956666D02*
X144104761Y-131004285D01*
X144152380Y-131147142D01*
X144152380Y-131242380D01*
X144104761Y-131385238D01*
X144009523Y-131480476D01*
X143914285Y-131528095D01*
X143723809Y-131575714D01*
X143580952Y-131575714D01*
X143390476Y-131528095D01*
X143295238Y-131480476D01*
X143200000Y-131385238D01*
X143152380Y-131242380D01*
X143152380Y-131147142D01*
X143200000Y-131004285D01*
X143247619Y-130956666D01*
X143485714Y-130099523D02*
X144152380Y-130099523D01*
X143104761Y-130337619D02*
X143819047Y-130575714D01*
X143819047Y-129956666D01*
%TO.C,C3*%
X137334233Y-143132628D02*
X137316804Y-143197676D01*
X137216895Y-143310344D01*
X137134417Y-143357963D01*
X136986889Y-143388153D01*
X136856791Y-143353293D01*
X136767933Y-143294624D01*
X136631456Y-143153476D01*
X136560027Y-143029758D01*
X136506028Y-142840992D01*
X136499649Y-142734704D01*
X136534508Y-142604606D01*
X136634417Y-142491938D01*
X136716895Y-142444319D01*
X136864423Y-142414130D01*
X136929471Y-142431559D01*
X137170528Y-142182414D02*
X137706639Y-141872890D01*
X137608440Y-142369471D01*
X137732157Y-142298043D01*
X137838446Y-142291663D01*
X137903494Y-142309093D01*
X137992353Y-142367762D01*
X138111400Y-142573959D01*
X138117780Y-142680247D01*
X138100350Y-142745295D01*
X138041681Y-142834154D01*
X137794245Y-142977011D01*
X137687957Y-142983391D01*
X137622908Y-142965961D01*
%TO.C,C7*%
X119734233Y-115332628D02*
X119716804Y-115397676D01*
X119616895Y-115510344D01*
X119534417Y-115557963D01*
X119386889Y-115588153D01*
X119256791Y-115553293D01*
X119167933Y-115494624D01*
X119031456Y-115353476D01*
X118960027Y-115229758D01*
X118906028Y-115040992D01*
X118899649Y-114934704D01*
X118934508Y-114804606D01*
X119034417Y-114691938D01*
X119116895Y-114644319D01*
X119264423Y-114614130D01*
X119329471Y-114631559D01*
X119570528Y-114382414D02*
X120147878Y-114049081D01*
X120276724Y-115129392D01*
%TO.C,C6*%
X130725000Y-113957857D02*
X130689285Y-113993571D01*
X130582142Y-114029285D01*
X130510714Y-114029285D01*
X130403571Y-113993571D01*
X130332142Y-113922142D01*
X130296428Y-113850714D01*
X130260714Y-113707857D01*
X130260714Y-113600714D01*
X130296428Y-113457857D01*
X130332142Y-113386428D01*
X130403571Y-113315000D01*
X130510714Y-113279285D01*
X130582142Y-113279285D01*
X130689285Y-113315000D01*
X130725000Y-113350714D01*
X131367857Y-113279285D02*
X131225000Y-113279285D01*
X131153571Y-113315000D01*
X131117857Y-113350714D01*
X131046428Y-113457857D01*
X131010714Y-113600714D01*
X131010714Y-113886428D01*
X131046428Y-113957857D01*
X131082142Y-113993571D01*
X131153571Y-114029285D01*
X131296428Y-114029285D01*
X131367857Y-113993571D01*
X131403571Y-113957857D01*
X131439285Y-113886428D01*
X131439285Y-113707857D01*
X131403571Y-113636428D01*
X131367857Y-113600714D01*
X131296428Y-113565000D01*
X131153571Y-113565000D01*
X131082142Y-113600714D01*
X131046428Y-113636428D01*
X131010714Y-113707857D01*
%TO.C,C1*%
X110907142Y-128456666D02*
X110954761Y-128504285D01*
X111002380Y-128647142D01*
X111002380Y-128742380D01*
X110954761Y-128885238D01*
X110859523Y-128980476D01*
X110764285Y-129028095D01*
X110573809Y-129075714D01*
X110430952Y-129075714D01*
X110240476Y-129028095D01*
X110145238Y-128980476D01*
X110050000Y-128885238D01*
X110002380Y-128742380D01*
X110002380Y-128647142D01*
X110050000Y-128504285D01*
X110097619Y-128456666D01*
X111002380Y-127504285D02*
X111002380Y-128075714D01*
X111002380Y-127790000D02*
X110002380Y-127790000D01*
X110145238Y-127885238D01*
X110240476Y-127980476D01*
X110288095Y-128075714D01*
%TO.C,D1*%
X130956428Y-115089285D02*
X130956428Y-114339285D01*
X131135000Y-114339285D01*
X131242142Y-114375000D01*
X131313571Y-114446428D01*
X131349285Y-114517857D01*
X131385000Y-114660714D01*
X131385000Y-114767857D01*
X131349285Y-114910714D01*
X131313571Y-114982142D01*
X131242142Y-115053571D01*
X131135000Y-115089285D01*
X130956428Y-115089285D01*
X132099285Y-115089285D02*
X131670714Y-115089285D01*
X131885000Y-115089285D02*
X131885000Y-114339285D01*
X131813571Y-114446428D01*
X131742142Y-114517857D01*
X131670714Y-114553571D01*
%TO.C,R1*%
X133383333Y-116142380D02*
X133050000Y-115666190D01*
X132811904Y-116142380D02*
X132811904Y-115142380D01*
X133192857Y-115142380D01*
X133288095Y-115190000D01*
X133335714Y-115237619D01*
X133383333Y-115332857D01*
X133383333Y-115475714D01*
X133335714Y-115570952D01*
X133288095Y-115618571D01*
X133192857Y-115666190D01*
X132811904Y-115666190D01*
X134335714Y-116142380D02*
X133764285Y-116142380D01*
X134050000Y-116142380D02*
X134050000Y-115142380D01*
X133954761Y-115285238D01*
X133859523Y-115380476D01*
X133764285Y-115428095D01*
%TO.C,U6*%
X126212695Y-109342380D02*
X126212695Y-110151904D01*
X126260314Y-110247142D01*
X126307933Y-110294761D01*
X126403171Y-110342380D01*
X126593647Y-110342380D01*
X126688885Y-110294761D01*
X126736504Y-110247142D01*
X126784123Y-110151904D01*
X126784123Y-109342380D01*
X127688885Y-109342380D02*
X127498409Y-109342380D01*
X127403171Y-109390000D01*
X127355552Y-109437619D01*
X127260314Y-109580476D01*
X127212695Y-109770952D01*
X127212695Y-110151904D01*
X127260314Y-110247142D01*
X127307933Y-110294761D01*
X127403171Y-110342380D01*
X127593647Y-110342380D01*
X127688885Y-110294761D01*
X127736504Y-110247142D01*
X127784123Y-110151904D01*
X127784123Y-109913809D01*
X127736504Y-109818571D01*
X127688885Y-109770952D01*
X127593647Y-109723333D01*
X127403171Y-109723333D01*
X127307933Y-109770952D01*
X127260314Y-109818571D01*
X127212695Y-109913809D01*
%TO.C,C2*%
X117772908Y-142864038D02*
X117837957Y-142846608D01*
X117985485Y-142876798D01*
X118067963Y-142924417D01*
X118167872Y-143037084D01*
X118202731Y-143167182D01*
X118196352Y-143273470D01*
X118142353Y-143462237D01*
X118070924Y-143585955D01*
X117934447Y-143727103D01*
X117845588Y-143785772D01*
X117715491Y-143820631D01*
X117567963Y-143790442D01*
X117485485Y-143742823D01*
X117385576Y-143630155D01*
X117368147Y-143565106D01*
X117038232Y-143374630D02*
X116973183Y-143392060D01*
X116866895Y-143385680D01*
X116660699Y-143266632D01*
X116602030Y-143177774D01*
X116584600Y-143112725D01*
X116590980Y-143006437D01*
X116638599Y-142923959D01*
X116751266Y-142824050D01*
X117531852Y-142614893D01*
X116995741Y-142305369D01*
%TO.C,R2*%
X132375000Y-114139285D02*
X132125000Y-113782142D01*
X131946428Y-114139285D02*
X131946428Y-113389285D01*
X132232142Y-113389285D01*
X132303571Y-113425000D01*
X132339285Y-113460714D01*
X132375000Y-113532142D01*
X132375000Y-113639285D01*
X132339285Y-113710714D01*
X132303571Y-113746428D01*
X132232142Y-113782142D01*
X131946428Y-113782142D01*
X132660714Y-113460714D02*
X132696428Y-113425000D01*
X132767857Y-113389285D01*
X132946428Y-113389285D01*
X133017857Y-113425000D01*
X133053571Y-113460714D01*
X133089285Y-113532142D01*
X133089285Y-113603571D01*
X133053571Y-113710714D01*
X132625000Y-114139285D01*
X133089285Y-114139285D01*
%TO.C,J1*%
X134196666Y-142522380D02*
X134196666Y-143236666D01*
X134149047Y-143379523D01*
X134053809Y-143474761D01*
X133910952Y-143522380D01*
X133815714Y-143522380D01*
X135196666Y-143522380D02*
X134625238Y-143522380D01*
X134910952Y-143522380D02*
X134910952Y-142522380D01*
X134815714Y-142665238D01*
X134720476Y-142760476D01*
X134625238Y-142808095D01*
D11*
%TO.C,D1*%
X124190000Y-114230000D02*
X124190000Y-116350000D01*
X130310000Y-114230000D02*
X130310000Y-115290000D01*
X128250000Y-114230000D02*
X128250000Y-116350000D01*
X128250000Y-114230000D02*
X124190000Y-114230000D01*
X129250000Y-114230000D02*
X130310000Y-114230000D01*
X128250000Y-116350000D02*
X124190000Y-116350000D01*
%TO.C,U6*%
X125694600Y-112340000D02*
X128294600Y-112340000D01*
X124994600Y-111790000D02*
X124844600Y-111640000D01*
X128944600Y-111790000D02*
X129094600Y-111640000D01*
X129094600Y-110690000D02*
X129094600Y-111640000D01*
X124844600Y-111640000D02*
X124844600Y-110690000D01*
D12*
%TO.C,J1*%
X133550000Y-144665000D02*
X130150000Y-144665000D01*
X120450000Y-144665000D02*
X120450000Y-138415000D01*
X133550000Y-138415000D02*
X130150000Y-138415000D01*
X123850000Y-138415000D02*
X120450000Y-138415000D01*
X133550000Y-138415000D02*
X133550000Y-144665000D01*
X123850000Y-144665000D02*
X120450000Y-144665000D01*
X129600000Y-137040000D02*
G75*
G03*
X129600000Y-137040000I-100000J0D01*
G01*
%TD*%
%LPC*%
D13*
%TO.C,C5*%
X134379978Y-114397500D03*
X135220022Y-114882500D03*
%TD*%
D14*
%TO.C,C4*%
X143800000Y-128405000D03*
X143800000Y-129375000D03*
%TD*%
D15*
%TO.C,C3*%
X136320022Y-143597500D03*
X135479978Y-144082500D03*
%TD*%
D16*
%TO.C,C7*%
X117079978Y-116082500D03*
X117920022Y-115597500D03*
%TD*%
D17*
%TO.C,C6*%
X124915000Y-113190000D03*
X125885000Y-113190000D03*
%TD*%
D18*
%TO.C,C1*%
X110400000Y-130790000D03*
X110400000Y-129820000D03*
%TD*%
D19*
%TO.C,D1*%
X129250000Y-115290000D03*
D20*
X127250000Y-115290000D03*
X125250000Y-115290000D03*
%TD*%
D21*
%TO.C,R1*%
X132235000Y-115690000D03*
X131265000Y-115690000D03*
%TD*%
D22*
%TO.C,U6*%
X125704600Y-111340000D03*
D23*
X126974600Y-111340000D03*
X128244600Y-111340000D03*
%TD*%
D24*
%TO.C,C2*%
X119550000Y-144440000D03*
X118709956Y-143955000D03*
%TD*%
D21*
%TO.C,R2*%
X127885000Y-113190000D03*
X126915000Y-113190000D03*
%TD*%
D25*
%TO.C,J1*%
X132250000Y-139390000D03*
X121750000Y-139390000D03*
D26*
X129500000Y-138415000D03*
X129500000Y-144665000D03*
X128500000Y-138415000D03*
X128500000Y-144665000D03*
X127500000Y-138415000D03*
X127500000Y-144665000D03*
X126500000Y-138415000D03*
X126500000Y-144665000D03*
X125500000Y-138415000D03*
X125500000Y-144665000D03*
X124500000Y-138415000D03*
X124500000Y-144665000D03*
D27*
X130750000Y-142040000D03*
X123250000Y-142040000D03*
%TD*%
D28*
%TO.C,U2*%
X118999852Y-145925000D03*
D29*
X117900000Y-145290000D03*
X116800147Y-144655000D03*
%TD*%
D30*
%TO.C,U4*%
X145150000Y-128320000D03*
D31*
X145150000Y-129590000D03*
X145150000Y-130860000D03*
%TD*%
D32*
%TO.C,U1*%
X108850000Y-130810000D03*
D31*
X108850000Y-129540000D03*
X108850000Y-128270000D03*
%TD*%
D33*
%TO.C,U5*%
X135000148Y-113155000D03*
D34*
X136100000Y-113790000D03*
X137199853Y-114425000D03*
%TD*%
D35*
%TO.C,U7*%
X116800148Y-114425000D03*
D36*
X117900000Y-113790000D03*
X118999853Y-113155000D03*
%TD*%
D37*
%TO.C,U3*%
X137149852Y-144655000D03*
D36*
X136050000Y-145290000D03*
X134950147Y-145925000D03*
%TD*%
M02*
