M48
; DRILL file {KiCad (6.0.5)} date Fri Jun 17 15:32:31 2022
; FORMAT={-:-/ absolute / metric / decimal}
; #@! TF.CreationDate,2022-06-17T15:32:31-04:00
; #@! TF.GenerationSoftware,Kicad,Pcbnew,(6.0.5)
; #@! TF.FileFunction,Plated,1,2,PTH
FMAT,2
METRIC
; #@! TA.AperFunction,Plated,PTH,ViaDrill
T1C0.400
; #@! TA.AperFunction,Plated,PTH,ComponentDrill
T2C0.740
; #@! TA.AperFunction,Plated,PTH,ComponentDrill
T3C0.750
; #@! TA.AperFunction,Plated,PTH,ComponentDrill
T4C0.800
%
G90
G05
T1
X120.45Y-144.89
X124.5Y-138.415
X124.5Y-144.665
X124.8Y-142.94
X125.5Y-138.415
X126.5Y-138.415
X126.9Y-113.19
X127.5Y-138.415
X127.5Y-144.665
X127.892Y-113.198
X128.5Y-138.415
X128.5Y-144.665
X129.09Y-113.28
X129.5Y-144.665
X131.041Y-145.14
X132.185Y-115.615
X136.7Y-115.74
X143.9Y-131.34
T2
X123.25Y-142.04
X130.75Y-142.04
T3
X108.85Y-128.27
X108.85Y-129.54
X108.85Y-130.81
X116.8Y-144.655
X116.8Y-114.425
X117.9Y-113.79
X117.9Y-145.29
X119.0Y-145.925
X119.0Y-113.155
X125.705Y-111.34
X126.975Y-111.34
X128.245Y-111.34
X134.95Y-145.925
X135.0Y-113.155
X136.05Y-145.29
X136.1Y-113.79
X137.15Y-144.655
X137.2Y-114.425
X145.15Y-128.32
X145.15Y-129.59
X145.15Y-130.86
T4
X125.25Y-115.29
X127.25Y-115.29
X129.25Y-115.29
T0
M30
