M48
; DRILL file {KiCad (6.0.5)} date Thu Jun 23 22:14:48 2022
; FORMAT={-:-/ absolute / metric / decimal}
; #@! TF.CreationDate,2022-06-23T22:14:48-04:00
; #@! TF.GenerationSoftware,Kicad,Pcbnew,(6.0.5)
; #@! TF.FileFunction,NonPlated,1,2,NPTH
FMAT,2
METRIC
; #@! TA.AperFunction,NonPlated,NPTH,ComponentDrill
T1C0.890
; #@! TA.AperFunction,NonPlated,NPTH,ComponentDrill
T2C1.000
; #@! TA.AperFunction,NonPlated,NPTH,ComponentDrill
T3C1.800
%
G90
G05
T1
X126.35Y-104.525
X126.35Y-115.025
T2
X139.23Y-81.62
X139.23Y-84.16
X139.23Y-86.7
X139.23Y-89.24
X139.23Y-91.78
X139.23Y-94.32
X139.23Y-96.86
X139.23Y-99.4
X139.23Y-101.94
X139.23Y-104.48
X139.23Y-107.02
X139.23Y-109.56
X139.23Y-112.1
X139.23Y-114.64
X139.23Y-117.18
X139.23Y-119.72
X139.23Y-122.26
X139.23Y-124.8
X139.23Y-127.34
X139.23Y-129.88
X141.77Y-81.62
X141.77Y-84.16
X141.77Y-86.7
X141.77Y-89.24
X141.77Y-91.78
X141.77Y-94.32
X141.77Y-96.86
X141.77Y-99.4
X141.77Y-101.94
X141.77Y-104.48
X141.77Y-107.02
X141.77Y-109.56
X141.77Y-112.1
X141.77Y-114.64
X141.77Y-117.18
X141.77Y-119.72
X141.77Y-122.26
X141.77Y-124.8
X141.77Y-127.34
X141.77Y-129.88
T3
X140.5Y-82.87
X140.5Y-128.62
T0
M30
