%TF.GenerationSoftware,KiCad,Pcbnew,(6.0.5)*%
%TF.CreationDate,2022-06-23T22:14:42-04:00*%
%TF.ProjectId,pi_zero_shield,70695f7a-6572-46f5-9f73-6869656c642e,rev?*%
%TF.SameCoordinates,Original*%
%TF.FileFunction,Paste,Top*%
%TF.FilePolarity,Positive*%
%FSLAX46Y46*%
G04 Gerber Fmt 4.6, Leading zero omitted, Abs format (unit mm)*
G04 Created by KiCad (PCBNEW (6.0.5)) date 2022-06-23 22:14:42*
%MOMM*%
%LPD*%
G01*
G04 APERTURE LIST*
G04 Aperture macros list*
%AMRoundRect*
0 Rectangle with rounded corners*
0 $1 Rounding radius*
0 $2 $3 $4 $5 $6 $7 $8 $9 X,Y pos of 4 corners*
0 Add a 4 corners polygon primitive as box body*
4,1,4,$2,$3,$4,$5,$6,$7,$8,$9,$2,$3,0*
0 Add four circle primitives for the rounded corners*
1,1,$1+$1,$2,$3*
1,1,$1+$1,$4,$5*
1,1,$1+$1,$6,$7*
1,1,$1+$1,$8,$9*
0 Add four rect primitives between the rounded corners*
20,1,$1+$1,$2,$3,$4,$5,0*
20,1,$1+$1,$4,$5,$6,$7,0*
20,1,$1+$1,$6,$7,$8,$9,0*
20,1,$1+$1,$8,$9,$2,$3,0*%
G04 Aperture macros list end*
%ADD10C,0.750000*%
%ADD11RoundRect,0.225000X-0.225000X-0.250000X0.225000X-0.250000X0.225000X0.250000X-0.225000X0.250000X0*%
%ADD12R,1.600000X0.600000*%
%ADD13R,1.270000X2.920000*%
%ADD14R,1.550000X0.600000*%
%ADD15R,1.800000X0.800000*%
%ADD16RoundRect,0.200000X-0.275000X0.200000X-0.275000X-0.200000X0.275000X-0.200000X0.275000X0.200000X0*%
%ADD17RoundRect,0.225000X0.225000X0.250000X-0.225000X0.250000X-0.225000X-0.250000X0.225000X-0.250000X0*%
%ADD18RoundRect,0.075000X0.650000X0.075000X-0.650000X0.075000X-0.650000X-0.075000X0.650000X-0.075000X0*%
%ADD19R,1.650000X1.000000*%
%ADD20R,1.600000X1.000000*%
%ADD21R,2.920000X1.270000*%
G04 APERTURE END LIST*
D10*
%TO.C,J3*%
X129375000Y-113525000D02*
G75*
G03*
X129375000Y-113525000I-375000J0D01*
G01*
X129375000Y-106025000D02*
G75*
G03*
X129375000Y-106025000I-375000J0D01*
G01*
%TD*%
D11*
%TO.C,C1*%
X125600000Y-95987325D03*
X127150000Y-95987325D03*
%TD*%
D12*
%TO.C,J3*%
X125375000Y-107275000D03*
X131625000Y-107275000D03*
X125375000Y-108275000D03*
X131625000Y-108275000D03*
X125375000Y-109275000D03*
X131625000Y-109275000D03*
X125375000Y-110275000D03*
X131625000Y-110275000D03*
X125375000Y-111275000D03*
X131625000Y-111275000D03*
X125375000Y-112275000D03*
X131625000Y-112275000D03*
%TD*%
D13*
%TO.C,J5*%
X120900000Y-82495000D03*
X117900000Y-82495000D03*
%TD*%
D14*
%TO.C,J1*%
X130457500Y-91400000D03*
X130457500Y-90400000D03*
X130457500Y-89400000D03*
X130457500Y-88400000D03*
X130457500Y-87400000D03*
X130457500Y-86400000D03*
X130457500Y-85400000D03*
X130457500Y-84400000D03*
X130457500Y-83400000D03*
X130457500Y-82400000D03*
D15*
X127882500Y-92700000D03*
X127882500Y-81100000D03*
%TD*%
D16*
%TO.C,R2*%
X132800000Y-81575000D03*
X132800000Y-83225000D03*
%TD*%
D17*
%TO.C,C2*%
X130175000Y-95987325D03*
X128625000Y-95987325D03*
%TD*%
D18*
%TO.C,U1*%
X130400000Y-99782325D03*
X130400000Y-99282325D03*
X130400000Y-98782325D03*
X130400000Y-98282325D03*
X130400000Y-97782325D03*
X126000000Y-97782325D03*
X126000000Y-98282325D03*
X126000000Y-98782325D03*
X126000000Y-99282325D03*
X126000000Y-99782325D03*
%TD*%
D16*
%TO.C,R1*%
X134900000Y-81550000D03*
X134900000Y-83200000D03*
%TD*%
D19*
%TO.C,J2*%
X137675000Y-81620000D03*
D20*
X143325000Y-81620000D03*
D19*
X137675000Y-84160000D03*
D20*
X143325000Y-84160000D03*
X137675000Y-86700000D03*
X143325000Y-86700000D03*
X137675000Y-89240000D03*
X143325000Y-89240000D03*
X137675000Y-91780000D03*
X143325000Y-91780000D03*
X137675000Y-94320000D03*
X143325000Y-94320000D03*
X137675000Y-96860000D03*
X143325000Y-96860000D03*
X137675000Y-99400000D03*
X143325000Y-99400000D03*
X137675000Y-101940000D03*
X143325000Y-101940000D03*
X137675000Y-104480000D03*
X143325000Y-104480000D03*
X137675000Y-107020000D03*
X143325000Y-107020000D03*
X137675000Y-109560000D03*
X143325000Y-109560000D03*
X137675000Y-112100000D03*
X143325000Y-112100000D03*
X137675000Y-114640000D03*
X143325000Y-114640000D03*
X137675000Y-117180000D03*
X143325000Y-117180000D03*
X137675000Y-119720000D03*
X143325000Y-119720000D03*
X137675000Y-122260000D03*
X143325000Y-122260000D03*
X137675000Y-124800000D03*
X143325000Y-124800000D03*
X137675000Y-127340000D03*
X143325000Y-127340000D03*
X137675000Y-129880000D03*
X143325000Y-129880000D03*
%TD*%
D21*
%TO.C,J6*%
X133600000Y-128500000D03*
X133600000Y-125500000D03*
X133600000Y-122500000D03*
%TD*%
M02*
