%TF.GenerationSoftware,KiCad,Pcbnew,(6.0.5)*%
%TF.CreationDate,2022-06-23T22:14:42-04:00*%
%TF.ProjectId,pi_zero_shield,70695f7a-6572-46f5-9f73-6869656c642e,rev?*%
%TF.SameCoordinates,Original*%
%TF.FileFunction,Soldermask,Top*%
%TF.FilePolarity,Negative*%
%FSLAX46Y46*%
G04 Gerber Fmt 4.6, Leading zero omitted, Abs format (unit mm)*
G04 Created by KiCad (PCBNEW (6.0.5)) date 2022-06-23 22:14:42*
%MOMM*%
%LPD*%
G01*
G04 APERTURE LIST*
G04 Aperture macros list*
%AMRoundRect*
0 Rectangle with rounded corners*
0 $1 Rounding radius*
0 $2 $3 $4 $5 $6 $7 $8 $9 X,Y pos of 4 corners*
0 Add a 4 corners polygon primitive as box body*
4,1,4,$2,$3,$4,$5,$6,$7,$8,$9,$2,$3,0*
0 Add four circle primitives for the rounded corners*
1,1,$1+$1,$2,$3*
1,1,$1+$1,$4,$5*
1,1,$1+$1,$6,$7*
1,1,$1+$1,$8,$9*
0 Add four rect primitives between the rounded corners*
20,1,$1+$1,$2,$3,$4,$5,0*
20,1,$1+$1,$4,$5,$6,$7,0*
20,1,$1+$1,$6,$7,$8,$9,0*
20,1,$1+$1,$8,$9,$2,$3,0*%
G04 Aperture macros list end*
%ADD10RoundRect,0.275000X-0.225000X-0.250000X0.225000X-0.250000X0.225000X0.250000X-0.225000X0.250000X0*%
%ADD11C,0.990000*%
%ADD12RoundRect,0.050000X-0.800000X0.300000X-0.800000X-0.300000X0.800000X-0.300000X0.800000X0.300000X0*%
%ADD13C,1.348000*%
%ADD14RoundRect,0.050000X0.635000X1.460000X-0.635000X1.460000X-0.635000X-1.460000X0.635000X-1.460000X0*%
%ADD15C,2.810000*%
%ADD16RoundRect,0.050000X0.775000X-0.300000X0.775000X0.300000X-0.775000X0.300000X-0.775000X-0.300000X0*%
%ADD17RoundRect,0.050000X0.900000X-0.400000X0.900000X0.400000X-0.900000X0.400000X-0.900000X-0.400000X0*%
%ADD18RoundRect,0.250000X-0.275000X0.200000X-0.275000X-0.200000X0.275000X-0.200000X0.275000X0.200000X0*%
%ADD19RoundRect,0.050000X-0.850000X-0.850000X0.850000X-0.850000X0.850000X0.850000X-0.850000X0.850000X0*%
%ADD20O,1.800000X1.800000*%
%ADD21RoundRect,0.275000X0.225000X0.250000X-0.225000X0.250000X-0.225000X-0.250000X0.225000X-0.250000X0*%
%ADD22RoundRect,0.125000X0.650000X0.075000X-0.650000X0.075000X-0.650000X-0.075000X0.650000X-0.075000X0*%
%ADD23C,1.100000*%
%ADD24C,1.900000*%
%ADD25RoundRect,0.050000X-0.825000X-0.500000X0.825000X-0.500000X0.825000X0.500000X-0.825000X0.500000X0*%
%ADD26RoundRect,0.050000X-0.800000X-0.500000X0.800000X-0.500000X0.800000X0.500000X-0.800000X0.500000X0*%
%ADD27RoundRect,0.050000X1.460000X-0.635000X1.460000X0.635000X-1.460000X0.635000X-1.460000X-0.635000X0*%
%ADD28RoundRect,0.050000X-1.000000X-1.000000X1.000000X-1.000000X1.000000X1.000000X-1.000000X1.000000X0*%
%ADD29C,2.100000*%
G04 APERTURE END LIST*
D10*
%TO.C,C1*%
X125600000Y-95987325D03*
X127150000Y-95987325D03*
%TD*%
D11*
%TO.C,J3*%
X126350000Y-104525000D03*
X126350000Y-115025000D03*
D12*
X125375000Y-107275000D03*
X131625000Y-107275000D03*
X125375000Y-108275000D03*
X131625000Y-108275000D03*
X125375000Y-109275000D03*
X131625000Y-109275000D03*
X125375000Y-110275000D03*
X131625000Y-110275000D03*
X125375000Y-111275000D03*
X131625000Y-111275000D03*
X125375000Y-112275000D03*
X131625000Y-112275000D03*
D13*
X129000000Y-106025000D03*
X129000000Y-113525000D03*
%TD*%
D14*
%TO.C,J5*%
X120900000Y-82495000D03*
X117900000Y-82495000D03*
D15*
X123050000Y-87965000D03*
X115750000Y-87965000D03*
%TD*%
D16*
%TO.C,J1*%
X130457500Y-91400000D03*
X130457500Y-90400000D03*
X130457500Y-89400000D03*
X130457500Y-88400000D03*
X130457500Y-87400000D03*
X130457500Y-86400000D03*
X130457500Y-85400000D03*
X130457500Y-84400000D03*
X130457500Y-83400000D03*
X130457500Y-82400000D03*
D17*
X127882500Y-92700000D03*
X127882500Y-81100000D03*
%TD*%
D18*
%TO.C,R2*%
X132800000Y-81575000D03*
X132800000Y-83225000D03*
%TD*%
D19*
%TO.C,J4*%
X117750000Y-98025000D03*
D20*
X117750000Y-100565000D03*
X117750000Y-103105000D03*
X117750000Y-105645000D03*
X117750000Y-108185000D03*
X117750000Y-110725000D03*
X117750000Y-113265000D03*
X117750000Y-115805000D03*
X117750000Y-118345000D03*
X117750000Y-120885000D03*
%TD*%
D21*
%TO.C,C2*%
X130175000Y-95987325D03*
X128625000Y-95987325D03*
%TD*%
D22*
%TO.C,U1*%
X130400000Y-99782325D03*
X130400000Y-99282325D03*
X130400000Y-98782325D03*
X130400000Y-98282325D03*
X130400000Y-97782325D03*
X126000000Y-97782325D03*
X126000000Y-98282325D03*
X126000000Y-98782325D03*
X126000000Y-99282325D03*
X126000000Y-99782325D03*
%TD*%
D18*
%TO.C,R1*%
X134900000Y-81550000D03*
X134900000Y-83200000D03*
%TD*%
D23*
%TO.C,J2*%
X139230000Y-127340000D03*
X141770000Y-104480000D03*
X139230000Y-117180000D03*
X141770000Y-124800000D03*
X141770000Y-96860000D03*
X141770000Y-86700000D03*
X141770000Y-119720000D03*
X141770000Y-84160000D03*
X141770000Y-91780000D03*
X139230000Y-129880000D03*
X141770000Y-117180000D03*
X139230000Y-119720000D03*
X141770000Y-112100000D03*
X139230000Y-86700000D03*
X139230000Y-112100000D03*
X139230000Y-122260000D03*
X141770000Y-89240000D03*
X141770000Y-99400000D03*
X141770000Y-81620000D03*
X141770000Y-94320000D03*
X139230000Y-99400000D03*
X139230000Y-109560000D03*
X139230000Y-107020000D03*
D24*
X140500000Y-128620000D03*
D23*
X139230000Y-94320000D03*
X139230000Y-81620000D03*
X141770000Y-114640000D03*
X139230000Y-84160000D03*
X139230000Y-104480000D03*
X141770000Y-101940000D03*
X141770000Y-129880000D03*
X139230000Y-91780000D03*
X139230000Y-101940000D03*
X141770000Y-127340000D03*
X139230000Y-96860000D03*
X141770000Y-107020000D03*
X139230000Y-124800000D03*
X141770000Y-109560000D03*
X139230000Y-89240000D03*
D24*
X140500000Y-82870000D03*
D23*
X139230000Y-114640000D03*
X141770000Y-122260000D03*
D25*
X137675000Y-81620000D03*
D26*
X143325000Y-81620000D03*
D25*
X137675000Y-84160000D03*
D26*
X143325000Y-84160000D03*
X137675000Y-86700000D03*
X143325000Y-86700000D03*
X137675000Y-89240000D03*
X143325000Y-89240000D03*
X137675000Y-91780000D03*
X143325000Y-91780000D03*
X137675000Y-94320000D03*
X143325000Y-94320000D03*
X137675000Y-96860000D03*
X143325000Y-96860000D03*
X137675000Y-99400000D03*
X143325000Y-99400000D03*
X137675000Y-101940000D03*
X143325000Y-101940000D03*
X137675000Y-104480000D03*
X143325000Y-104480000D03*
X137675000Y-107020000D03*
X143325000Y-107020000D03*
X137675000Y-109560000D03*
X143325000Y-109560000D03*
X137675000Y-112100000D03*
X143325000Y-112100000D03*
X137675000Y-114640000D03*
X143325000Y-114640000D03*
X137675000Y-117180000D03*
X143325000Y-117180000D03*
X137675000Y-119720000D03*
X143325000Y-119720000D03*
X137675000Y-122260000D03*
X143325000Y-122260000D03*
X137675000Y-124800000D03*
X143325000Y-124800000D03*
X137675000Y-127340000D03*
X143325000Y-127340000D03*
X137675000Y-129880000D03*
X143325000Y-129880000D03*
%TD*%
D27*
%TO.C,J6*%
X133600000Y-128500000D03*
X133600000Y-125500000D03*
X133600000Y-122500000D03*
D15*
X128130000Y-130650000D03*
X128130000Y-120350000D03*
%TD*%
D28*
%TO.C,BZ1*%
X123340000Y-125490000D03*
D29*
X130090000Y-125490000D03*
%TD*%
M02*
