%TF.GenerationSoftware,KiCad,Pcbnew,(6.0.5)*%
%TF.CreationDate,2022-06-23T22:14:41-04:00*%
%TF.ProjectId,pi_zero_shield,70695f7a-6572-46f5-9f73-6869656c642e,rev?*%
%TF.SameCoordinates,Original*%
%TF.FileFunction,Copper,L1,Top*%
%TF.FilePolarity,Positive*%
%FSLAX46Y46*%
G04 Gerber Fmt 4.6, Leading zero omitted, Abs format (unit mm)*
G04 Created by KiCad (PCBNEW (6.0.5)) date 2022-06-23 22:14:41*
%MOMM*%
%LPD*%
G01*
G04 APERTURE LIST*
G04 Aperture macros list*
%AMRoundRect*
0 Rectangle with rounded corners*
0 $1 Rounding radius*
0 $2 $3 $4 $5 $6 $7 $8 $9 X,Y pos of 4 corners*
0 Add a 4 corners polygon primitive as box body*
4,1,4,$2,$3,$4,$5,$6,$7,$8,$9,$2,$3,0*
0 Add four circle primitives for the rounded corners*
1,1,$1+$1,$2,$3*
1,1,$1+$1,$4,$5*
1,1,$1+$1,$6,$7*
1,1,$1+$1,$8,$9*
0 Add four rect primitives between the rounded corners*
20,1,$1+$1,$2,$3,$4,$5,0*
20,1,$1+$1,$4,$5,$6,$7,0*
20,1,$1+$1,$6,$7,$8,$9,0*
20,1,$1+$1,$8,$9,$2,$3,0*%
G04 Aperture macros list end*
%TA.AperFunction,SMDPad,CuDef*%
%ADD10RoundRect,0.225000X-0.225000X-0.250000X0.225000X-0.250000X0.225000X0.250000X-0.225000X0.250000X0*%
%TD*%
%TA.AperFunction,SMDPad,CuDef*%
%ADD11R,1.600000X0.600000*%
%TD*%
%TA.AperFunction,ComponentPad*%
%ADD12C,1.248000*%
%TD*%
%TA.AperFunction,SMDPad,CuDef*%
%ADD13R,1.270000X2.920000*%
%TD*%
%TA.AperFunction,ComponentPad*%
%ADD14C,2.710000*%
%TD*%
%TA.AperFunction,SMDPad,CuDef*%
%ADD15R,1.550000X0.600000*%
%TD*%
%TA.AperFunction,SMDPad,CuDef*%
%ADD16R,1.800000X0.800000*%
%TD*%
%TA.AperFunction,SMDPad,CuDef*%
%ADD17RoundRect,0.200000X-0.275000X0.200000X-0.275000X-0.200000X0.275000X-0.200000X0.275000X0.200000X0*%
%TD*%
%TA.AperFunction,ComponentPad*%
%ADD18R,1.700000X1.700000*%
%TD*%
%TA.AperFunction,ComponentPad*%
%ADD19O,1.700000X1.700000*%
%TD*%
%TA.AperFunction,SMDPad,CuDef*%
%ADD20RoundRect,0.225000X0.225000X0.250000X-0.225000X0.250000X-0.225000X-0.250000X0.225000X-0.250000X0*%
%TD*%
%TA.AperFunction,SMDPad,CuDef*%
%ADD21RoundRect,0.075000X0.650000X0.075000X-0.650000X0.075000X-0.650000X-0.075000X0.650000X-0.075000X0*%
%TD*%
%TA.AperFunction,SMDPad,CuDef*%
%ADD22R,1.650000X1.000000*%
%TD*%
%TA.AperFunction,SMDPad,CuDef*%
%ADD23R,1.600000X1.000000*%
%TD*%
%TA.AperFunction,SMDPad,CuDef*%
%ADD24R,2.920000X1.270000*%
%TD*%
%TA.AperFunction,ComponentPad*%
%ADD25R,2.000000X2.000000*%
%TD*%
%TA.AperFunction,ComponentPad*%
%ADD26C,2.000000*%
%TD*%
%TA.AperFunction,ViaPad*%
%ADD27C,0.800000*%
%TD*%
%TA.AperFunction,Conductor*%
%ADD28C,0.250000*%
%TD*%
%TA.AperFunction,Conductor*%
%ADD29C,0.350000*%
%TD*%
%TA.AperFunction,Conductor*%
%ADD30C,0.200000*%
%TD*%
%TA.AperFunction,Conductor*%
%ADD31C,1.000000*%
%TD*%
G04 APERTURE END LIST*
D10*
%TO.P,C1,1*%
%TO.N,+5V*%
X125600000Y-95987325D03*
%TO.P,C1,2*%
%TO.N,GND*%
X127150000Y-95987325D03*
%TD*%
D11*
%TO.P,J3,01,01*%
%TO.N,GND*%
X125375000Y-107275000D03*
%TO.P,J3,02,02*%
%TO.N,+3.3VP*%
X131625000Y-107275000D03*
%TO.P,J3,03,03*%
%TO.N,Green_LED*%
X125375000Y-108275000D03*
%TO.P,J3,04,04*%
%TO.N,Hall_Video*%
X131625000Y-108275000D03*
%TO.P,J3,05,05*%
%TO.N,Red_LED*%
X125375000Y-109275000D03*
%TO.P,J3,06,06*%
%TO.N,Hall_Wifi*%
X131625000Y-109275000D03*
%TO.P,J3,07,07*%
%TO.N,Hall_Button*%
X125375000Y-110275000D03*
%TO.P,J3,08,08*%
%TO.N,Hall_Image*%
X131625000Y-110275000D03*
%TO.P,J3,09,09*%
%TO.N,+3V3*%
X125375000Y-111275000D03*
%TO.P,J3,10,10*%
%TO.N,Hall_M2*%
X131625000Y-111275000D03*
%TO.P,J3,11,11*%
%TO.N,~{SHUT_DWN_SIG}*%
X125375000Y-112275000D03*
%TO.P,J3,12,12*%
%TO.N,Hall_M1*%
X131625000Y-112275000D03*
D12*
%TO.P,J3,S1,SHIELD*%
%TO.N,unconnected-(J3-PadS1)*%
X129000000Y-106025000D03*
%TO.P,J3,S2,SHIELD*%
%TO.N,unconnected-(J3-PadS2)*%
X129000000Y-113525000D03*
%TD*%
D13*
%TO.P,J5,1,Pin_1*%
%TO.N,+12V*%
X120900000Y-82495000D03*
%TO.P,J5,2,Pin_2*%
%TO.N,GNDPWR*%
X117900000Y-82495000D03*
D14*
%TO.P,J5,MP*%
%TO.N,N/C*%
X123050000Y-87965000D03*
X115750000Y-87965000D03*
%TD*%
D15*
%TO.P,J1,01,01*%
%TO.N,GND*%
X130457500Y-91400000D03*
%TO.P,J1,02,02*%
%TO.N,+5V*%
X130457500Y-90400000D03*
%TO.P,J1,03,03*%
%TO.N,SCL*%
X130457500Y-89400000D03*
%TO.P,J1,04,04*%
%TO.N,SDA*%
X130457500Y-88400000D03*
%TO.P,J1,05,05*%
%TO.N,~{SHUT_DWN_SIG}*%
X130457500Y-87400000D03*
%TO.P,J1,06,06*%
%TO.N,ENDCAP_EN*%
X130457500Y-86400000D03*
%TO.P,J1,07,07*%
%TO.N,GPS_INT*%
X130457500Y-85400000D03*
%TO.P,J1,08,08*%
%TO.N,IMU_INT*%
X130457500Y-84400000D03*
%TO.P,J1,09,09*%
%TO.N,+3V3*%
X130457500Y-83400000D03*
%TO.P,J1,10,10*%
%TO.N,~{SHUT_DWN_SIG}*%
X130457500Y-82400000D03*
D16*
%TO.P,J1,S1*%
%TO.N,N/C*%
X127882500Y-92700000D03*
%TO.P,J1,S2*%
X127882500Y-81100000D03*
%TD*%
D17*
%TO.P,R2,1*%
%TO.N,/3.3V pullup*%
X132800000Y-81575000D03*
%TO.P,R2,2*%
%TO.N,SDA*%
X132800000Y-83225000D03*
%TD*%
D18*
%TO.P,J4,1,Pin_1*%
%TO.N,/H+*%
X117750000Y-98025000D03*
D19*
%TO.P,J4,2,Pin_2*%
%TO.N,/H-*%
X117750000Y-100565000D03*
%TO.P,J4,3,Pin_3*%
%TO.N,GPIO20*%
X117750000Y-103105000D03*
%TO.P,J4,4,Pin_4*%
%TO.N,GPIO21*%
X117750000Y-105645000D03*
%TO.P,J4,5,Pin_5*%
%TO.N,GPIO19*%
X117750000Y-108185000D03*
%TO.P,J4,6,Pin_6*%
%TO.N,GPIO26*%
X117750000Y-110725000D03*
%TO.P,J4,7,Pin_7*%
%TO.N,GPIO27*%
X117750000Y-113265000D03*
%TO.P,J4,8,Pin_8*%
%TO.N,GPIO22*%
X117750000Y-115805000D03*
%TO.P,J4,9,Pin_9*%
%TO.N,GPIO23*%
X117750000Y-118345000D03*
%TO.P,J4,10,Pin_10*%
%TO.N,GPIO17*%
X117750000Y-120885000D03*
%TD*%
D20*
%TO.P,C2,1*%
%TO.N,Net-(C2-Pad1)*%
X130175000Y-95987325D03*
%TO.P,C2,2*%
%TO.N,GND*%
X128625000Y-95987325D03*
%TD*%
D21*
%TO.P,U1,1,REG*%
%TO.N,Net-(C2-Pad1)*%
X130400000Y-99782325D03*
%TO.P,U1,2,SCL*%
%TO.N,SCL*%
X130400000Y-99282325D03*
%TO.P,U1,3,SDA*%
%TO.N,SDA*%
X130400000Y-98782325D03*
%TO.P,U1,4,IN/TRIG*%
%TO.N,GND*%
X130400000Y-98282325D03*
%TO.P,U1,5,EN*%
%TO.N,Haptic_EN*%
X130400000Y-97782325D03*
%TO.P,U1,6,VDD/NC*%
%TO.N,+5V*%
X126000000Y-97782325D03*
%TO.P,U1,7,OUT+*%
%TO.N,/H+*%
X126000000Y-98282325D03*
%TO.P,U1,8,GND*%
%TO.N,GND*%
X126000000Y-98782325D03*
%TO.P,U1,9,OUT-*%
%TO.N,/H-*%
X126000000Y-99282325D03*
%TO.P,U1,10,VDD*%
%TO.N,+5V*%
X126000000Y-99782325D03*
%TD*%
D17*
%TO.P,R1,1*%
%TO.N,/3.3V pullup*%
X134900000Y-81550000D03*
%TO.P,R1,2*%
%TO.N,SCL*%
X134900000Y-83200000D03*
%TD*%
D22*
%TO.P,J2,1,Pin_1*%
%TO.N,/3.3V pullup*%
X137675000Y-81620000D03*
D23*
%TO.P,J2,2,Pin_2*%
%TO.N,+5V*%
X143325000Y-81620000D03*
D22*
%TO.P,J2,3,Pin_3*%
%TO.N,SDA*%
X137675000Y-84160000D03*
D23*
%TO.P,J2,4,Pin_4*%
%TO.N,+5V*%
X143325000Y-84160000D03*
%TO.P,J2,5,Pin_5*%
%TO.N,SCL*%
X137675000Y-86700000D03*
%TO.P,J2,6,Pin_6*%
%TO.N,GND*%
X143325000Y-86700000D03*
%TO.P,J2,7,Pin_7*%
%TO.N,Haptic_EN*%
X137675000Y-89240000D03*
%TO.P,J2,8,Pin_8*%
%TO.N,~{SHUT_DWN_SIG}*%
X143325000Y-89240000D03*
%TO.P,J2,9,Pin_9*%
%TO.N,GND*%
X137675000Y-91780000D03*
%TO.P,J2,10,Pin_10*%
%TO.N,GPS_INT*%
X143325000Y-91780000D03*
%TO.P,J2,11,Pin_11*%
%TO.N,IMU_INT*%
X137675000Y-94320000D03*
%TO.P,J2,12,Pin_12*%
%TO.N,ENDCAP_EN*%
X143325000Y-94320000D03*
%TO.P,J2,13,Pin_13*%
%TO.N,GPIO27*%
X137675000Y-96860000D03*
%TO.P,J2,14,Pin_14*%
%TO.N,GND*%
X143325000Y-96860000D03*
%TO.P,J2,15,Pin_15*%
%TO.N,GPIO22*%
X137675000Y-99400000D03*
%TO.P,J2,16,Pin_16*%
%TO.N,GPIO23*%
X143325000Y-99400000D03*
%TO.P,J2,17,Pin_17*%
%TO.N,+3.3VP*%
X137675000Y-101940000D03*
%TO.P,J2,18,Pin_18*%
%TO.N,Hall_M2*%
X143325000Y-101940000D03*
%TO.P,J2,19,Pin_19*%
%TO.N,Hall_M1*%
X137675000Y-104480000D03*
%TO.P,J2,20,Pin_20*%
%TO.N,GND*%
X143325000Y-104480000D03*
%TO.P,J2,21,Pin_21*%
%TO.N,Hall_Image*%
X137675000Y-107020000D03*
%TO.P,J2,22,Pin_22*%
%TO.N,Hall_Video*%
X143325000Y-107020000D03*
%TO.P,J2,23,Pin_23*%
%TO.N,Hall_Wifi*%
X137675000Y-109560000D03*
%TO.P,J2,24,Pin_24*%
%TO.N,Hall_Button*%
X143325000Y-109560000D03*
%TO.P,J2,25,Pin_25*%
%TO.N,GND*%
X137675000Y-112100000D03*
%TO.P,J2,26,Pin_26*%
%TO.N,GPIO17*%
X143325000Y-112100000D03*
%TO.P,J2,27,Pin_27*%
%TO.N,unconnected-(J2-Pad27)*%
X137675000Y-114640000D03*
%TO.P,J2,28,Pin_28*%
%TO.N,unconnected-(J2-Pad28)*%
X143325000Y-114640000D03*
%TO.P,J2,29,Pin_29*%
%TO.N,Green_LED*%
X137675000Y-117180000D03*
%TO.P,J2,30,Pin_30*%
%TO.N,GND*%
X143325000Y-117180000D03*
%TO.P,J2,31,Pin_31*%
%TO.N,Red_LED*%
X137675000Y-119720000D03*
%TO.P,J2,32,Pin_32*%
%TO.N,Net-(BZ1-Pad1)*%
X143325000Y-119720000D03*
%TO.P,J2,33,Pin_33*%
%TO.N,/PWM_13*%
X137675000Y-122260000D03*
%TO.P,J2,34,Pin_34*%
%TO.N,GND*%
X143325000Y-122260000D03*
%TO.P,J2,35,Pin_35*%
%TO.N,GPIO19*%
X137675000Y-124800000D03*
%TO.P,J2,36,Pin_36*%
%TO.N,unconnected-(J2-Pad36)*%
X143325000Y-124800000D03*
%TO.P,J2,37,Pin_37*%
%TO.N,GPIO26*%
X137675000Y-127340000D03*
%TO.P,J2,38,Pin_38*%
%TO.N,GPIO20*%
X143325000Y-127340000D03*
%TO.P,J2,39,Pin_39*%
%TO.N,GND*%
X137675000Y-129880000D03*
%TO.P,J2,40,Pin_40*%
%TO.N,GPIO21*%
X143325000Y-129880000D03*
%TD*%
D24*
%TO.P,J6,1,Pin_1*%
%TO.N,+12V*%
X133600000Y-128500000D03*
%TO.P,J6,2,Pin_2*%
%TO.N,GNDPWR*%
X133600000Y-125500000D03*
%TO.P,J6,3,Pin_3*%
%TO.N,/PWM_13*%
X133600000Y-122500000D03*
D14*
%TO.P,J6,MP*%
%TO.N,N/C*%
X128130000Y-130650000D03*
X128130000Y-120350000D03*
%TD*%
D25*
%TO.P,BZ1,1,-*%
%TO.N,Net-(BZ1-Pad1)*%
X123340000Y-125490000D03*
D26*
%TO.P,BZ1,2,+*%
%TO.N,/PWM_13*%
X130090000Y-125490000D03*
%TD*%
D27*
%TO.N,GPIO27*%
X127545970Y-102025500D03*
%TO.N,GPIO22*%
X128975000Y-102750000D03*
%TO.N,GPIO23*%
X130425000Y-103200000D03*
%TO.N,Hall_M2*%
X135525000Y-104625000D03*
X131750000Y-111275000D03*
%TO.N,Hall_M1*%
X135775000Y-106125000D03*
X131750000Y-112275000D03*
%TO.N,Hall_Image*%
X134150000Y-107550500D03*
X131750000Y-110275000D03*
%TO.N,Hall_Button*%
X134950000Y-113050000D03*
X125500000Y-110275000D03*
%TO.N,GPIO17*%
X130450000Y-118100000D03*
%TO.N,GPIO19*%
X119750500Y-108372682D03*
%TO.N,/H+*%
X124249500Y-97837325D03*
%TO.N,/H-*%
X124249500Y-100437325D03*
%TO.N,Haptic_EN*%
X135524500Y-89299465D03*
X132040775Y-96476772D03*
%TO.N,GND*%
X143300000Y-96850000D03*
X143300000Y-86750000D03*
X132056783Y-97894108D03*
X127900000Y-94987325D03*
X125350000Y-107275000D03*
X137650000Y-129900000D03*
X143350000Y-117200000D03*
X143350000Y-104500000D03*
X124257972Y-98836792D03*
X137650000Y-112100000D03*
X143350000Y-122250000D03*
X137700000Y-91800000D03*
%TO.N,SDA*%
X132475500Y-89000000D03*
X130465433Y-88432532D03*
%TO.N,~{SHUT_DWN_SIG}*%
X130457500Y-87400000D03*
X135696046Y-86821437D03*
X133524500Y-95862299D03*
%TO.N,ENDCAP_EN*%
X130500000Y-86400000D03*
X134052189Y-86475590D03*
%TO.N,GPS_INT*%
X135802932Y-85689953D03*
X130500000Y-85400000D03*
%TO.N,IMU_INT*%
X135000000Y-84500000D03*
X130500000Y-84400000D03*
%TO.N,+3V3*%
X130500000Y-83400000D03*
X133800000Y-84475500D03*
%TD*%
D28*
%TO.N,+3.3VP*%
X135560000Y-101940000D02*
X131625000Y-105875000D01*
X131625000Y-105875000D02*
X131625000Y-107275000D01*
X137625000Y-101940000D02*
X135560000Y-101940000D01*
%TO.N,+3V3*%
X132878177Y-85397323D02*
X133800000Y-84475500D01*
X132878177Y-86961882D02*
X132878177Y-85397323D01*
X133200000Y-94513199D02*
X133200000Y-87283705D01*
X134249001Y-95562200D02*
X133200000Y-94513199D01*
X134249001Y-100386689D02*
X134249001Y-95562200D01*
X133200000Y-87283705D02*
X132878177Y-86961882D01*
X133334691Y-101300999D02*
X134249001Y-100386689D01*
X125924001Y-101300999D02*
X133334691Y-101300999D01*
X124250489Y-102974511D02*
X125924001Y-101300999D01*
X124250489Y-110899511D02*
X124250489Y-102974511D01*
%TO.N,~{SHUT_DWN_SIG}*%
X133524500Y-100404774D02*
X133524500Y-95862299D01*
%TO.N,+3V3*%
X125375000Y-111275000D02*
X124625978Y-111275000D01*
%TO.N,~{SHUT_DWN_SIG}*%
X123800979Y-102788317D02*
X126184522Y-100404774D01*
X124625978Y-112275000D02*
X123800979Y-111450001D01*
X125375000Y-112275000D02*
X124625978Y-112275000D01*
%TO.N,+3V3*%
X124625978Y-111275000D02*
X124250489Y-110899511D01*
%TO.N,~{SHUT_DWN_SIG}*%
X126184522Y-100404774D02*
X133524500Y-100404774D01*
X123800979Y-111450001D02*
X123800979Y-102788317D01*
%TO.N,Hall_M1*%
X137350000Y-104480000D02*
X135775000Y-106055000D01*
X137625000Y-104480000D02*
X137350000Y-104480000D01*
X135775000Y-106055000D02*
X135775000Y-106125000D01*
%TO.N,Hall_M2*%
X137085489Y-103064511D02*
X135525000Y-104625000D01*
X143375000Y-101940000D02*
X142250489Y-103064511D01*
X142250489Y-103064511D02*
X137085489Y-103064511D01*
%TO.N,Hall_Button*%
X143375000Y-109560000D02*
X142185000Y-110750000D01*
X142185000Y-110750000D02*
X137250000Y-110750000D01*
X137250000Y-110750000D02*
X134950000Y-113050000D01*
%TO.N,Hall_Wifi*%
X133910000Y-109560000D02*
X137625000Y-109560000D01*
X133625000Y-109275000D02*
X133910000Y-109560000D01*
X131625000Y-109275000D02*
X133625000Y-109275000D01*
%TO.N,Hall_Video*%
X142070000Y-108275000D02*
X131625000Y-108275000D01*
X143325000Y-107020000D02*
X142070000Y-108275000D01*
%TO.N,Hall_Image*%
X136449500Y-107550500D02*
X134150000Y-107550500D01*
X137625000Y-107020000D02*
X136980000Y-107020000D01*
X136980000Y-107020000D02*
X136449500Y-107550500D01*
D29*
%TO.N,Red_LED*%
X126224022Y-109275000D02*
X125375000Y-109275000D01*
X127500000Y-116900000D02*
X127500000Y-110550978D01*
X127500000Y-110550978D02*
X126224022Y-109275000D01*
X130320000Y-119720000D02*
X127500000Y-116900000D01*
X137625000Y-119720000D02*
X130320000Y-119720000D01*
D28*
%TO.N,GPIO17*%
X140354511Y-117645789D02*
X139900300Y-118100000D01*
X143025000Y-112100000D02*
X140354511Y-114770489D01*
X140354511Y-114770489D02*
X140354511Y-117645789D01*
X139900300Y-118100000D02*
X130450000Y-118100000D01*
X143325000Y-112100000D02*
X143025000Y-112100000D01*
D29*
%TO.N,Green_LED*%
X132180000Y-117180000D02*
X132180000Y-115205000D01*
X125375000Y-108275000D02*
X126224022Y-108275000D01*
X126224022Y-108275000D02*
X128750000Y-110800978D01*
X128750000Y-110800978D02*
X128750000Y-111775000D01*
X128750000Y-111775000D02*
X132180000Y-115205000D01*
D28*
%TO.N,GPIO27*%
X137675000Y-96860000D02*
X137675000Y-97596408D01*
%TO.N,GPIO22*%
X129249501Y-102475499D02*
X128975000Y-102750000D01*
X133431613Y-102475499D02*
X129249501Y-102475499D01*
X136507112Y-99400000D02*
X133431613Y-102475499D01*
X137675000Y-99400000D02*
X136507112Y-99400000D01*
%TO.N,GPIO27*%
X133245908Y-102025500D02*
X127545970Y-102025500D01*
X137675000Y-97596408D02*
X133245908Y-102025500D01*
%TO.N,GPIO23*%
X143325000Y-99400000D02*
X141680218Y-101044782D01*
X133342814Y-103200000D02*
X130425000Y-103200000D01*
X141680218Y-101044782D02*
X135498032Y-101044782D01*
X135498032Y-101044782D02*
X133342814Y-103200000D01*
%TO.N,GPIO21*%
X116575489Y-106819511D02*
X117750000Y-105645000D01*
X116575489Y-129334734D02*
X116575489Y-106819511D01*
X133526477Y-136798523D02*
X124039278Y-136798523D01*
X141600000Y-131775000D02*
X138550000Y-131775000D01*
X124039278Y-136798523D02*
X116575489Y-129334734D01*
X143325000Y-130050000D02*
X141600000Y-131775000D01*
X143325000Y-129880000D02*
X143325000Y-130050000D01*
X138550000Y-131775000D02*
X133526477Y-136798523D01*
%TO.N,GPIO26*%
X118924511Y-121375912D02*
X118924511Y-111899511D01*
X124246681Y-136299511D02*
X117570978Y-129623808D01*
X133292343Y-136299511D02*
X124246681Y-136299511D01*
X117570978Y-129623808D02*
X117570978Y-122729445D01*
X136549513Y-128165487D02*
X136549513Y-133042341D01*
X117570978Y-122729445D02*
X118924511Y-121375912D01*
X137375000Y-127340000D02*
X136549513Y-128165487D01*
X118924511Y-111899511D02*
X117750000Y-110725000D01*
X136549513Y-133042341D02*
X133292343Y-136299511D01*
X137675000Y-127340000D02*
X137375000Y-127340000D01*
%TO.N,Net-(C2-Pad1)*%
X128775489Y-97386836D02*
X128775489Y-99113163D01*
D30*
X129444650Y-99782325D02*
X128775489Y-99113163D01*
X130400000Y-99782325D02*
X129444650Y-99782325D01*
D28*
X130175000Y-95987325D02*
X128775489Y-97386836D01*
D29*
%TO.N,Green_LED*%
X132180000Y-117180000D02*
X137625000Y-117180000D01*
D28*
%TO.N,GPIO19*%
X118570000Y-129210000D02*
X118570000Y-123138840D01*
X118570000Y-123138840D02*
X119923533Y-121785307D01*
X119923533Y-121785307D02*
X119923532Y-120976136D01*
X124434510Y-135074510D02*
X118570000Y-129210000D01*
X137675000Y-124800000D02*
X137375000Y-124800000D01*
X135550491Y-126624509D02*
X135550491Y-132628531D01*
X119923532Y-120976136D02*
X119939511Y-120960157D01*
X133104512Y-135074510D02*
X124434510Y-135074510D01*
X119940000Y-108562182D02*
X119750500Y-108372682D01*
X119939522Y-120253732D02*
X119940000Y-120253255D01*
X119939511Y-120960141D02*
X119939522Y-120960130D01*
X119939522Y-120960130D02*
X119939522Y-120253732D01*
X137375000Y-124800000D02*
X135550491Y-126624509D01*
X119940000Y-120253255D02*
X119940000Y-108562182D01*
X119939511Y-120960157D02*
X119939511Y-120960141D01*
X135550491Y-132628531D02*
X133104512Y-135074510D01*
%TO.N,GPIO20*%
X124453086Y-135799501D02*
X118070489Y-129416904D01*
X136050002Y-132835436D02*
X133085937Y-135799501D01*
X136945978Y-126120000D02*
X136050002Y-127015976D01*
X119440489Y-109122482D02*
X119007948Y-108689941D01*
X119007948Y-108689941D02*
X119007948Y-104362948D01*
X136050002Y-127015976D02*
X136050002Y-132835436D01*
X119440000Y-109142971D02*
X119440489Y-109142482D01*
X119440489Y-109142482D02*
X119440489Y-109122482D01*
X133085937Y-135799501D02*
X124453086Y-135799501D01*
X118070489Y-122936350D02*
X119440000Y-121566839D01*
X143325000Y-127340000D02*
X142105000Y-126120000D01*
X119007948Y-104362948D02*
X117750000Y-103105000D01*
X142105000Y-126120000D02*
X136945978Y-126120000D01*
X118070489Y-129416904D02*
X118070489Y-122936350D01*
X119440000Y-121566839D02*
X119440000Y-109142971D01*
D30*
%TO.N,/H+*%
X126000000Y-98282325D02*
X124795000Y-98282325D01*
D28*
X124350000Y-97837325D02*
X124249500Y-97837325D01*
X124700000Y-98187325D02*
X124350000Y-97837325D01*
D30*
X124795000Y-98282325D02*
X124700000Y-98187325D01*
D28*
%TO.N,/H-*%
X124700000Y-99437325D02*
X124249500Y-99887825D01*
X124249500Y-99887825D02*
X124249500Y-100437325D01*
D30*
X126000000Y-99282325D02*
X124855000Y-99282325D01*
X124855000Y-99282325D02*
X124700000Y-99437325D01*
D29*
%TO.N,/PWM_13*%
X132440000Y-122260000D02*
X137625000Y-122260000D01*
X130100000Y-124600000D02*
X132440000Y-122260000D01*
X130100000Y-125500000D02*
X130100000Y-124600000D01*
D28*
%TO.N,Haptic_EN*%
X130400000Y-97782325D02*
X131705553Y-96476772D01*
X131705553Y-96476772D02*
X132040775Y-96476772D01*
X135583965Y-89240000D02*
X135524500Y-89299465D01*
X137625000Y-89240000D02*
X135583965Y-89240000D01*
D29*
%TO.N,GND*%
X127900000Y-94987325D02*
X130457500Y-92429825D01*
X127150000Y-95987325D02*
X127900000Y-95987325D01*
X127900000Y-95987325D02*
X127900000Y-94987325D01*
D30*
X131668566Y-98282325D02*
X132056783Y-97894108D01*
D29*
X127900000Y-95987325D02*
X128625000Y-95987325D01*
X130457500Y-92429825D02*
X130457500Y-91400000D01*
D30*
X126000000Y-98782325D02*
X124312439Y-98782325D01*
X130400000Y-98282325D02*
X131668566Y-98282325D01*
X124312439Y-98782325D02*
X124257972Y-98836792D01*
D29*
%TO.N,+5V*%
X127400000Y-88467500D02*
X127400000Y-83600000D01*
X130457500Y-90400000D02*
X129332500Y-90400000D01*
X142359022Y-79500000D02*
X143375000Y-80515978D01*
X143375000Y-80515978D02*
X143375000Y-84160000D01*
D30*
X126754651Y-97782325D02*
X126000000Y-97782325D01*
X127200000Y-99336976D02*
X127200000Y-98227674D01*
X127200000Y-98227674D02*
X126754651Y-97782325D01*
D29*
X125600000Y-97382325D02*
X125975480Y-97757805D01*
X126200000Y-80500000D02*
X127200000Y-79500000D01*
X128207455Y-90400000D02*
X130457500Y-90400000D01*
X126607989Y-92399466D02*
X126607989Y-91999466D01*
X125600000Y-95987325D02*
X125600000Y-97382325D01*
X129332500Y-90400000D02*
X127400000Y-88467500D01*
X126200000Y-82400000D02*
X126200000Y-80500000D01*
X127400000Y-83600000D02*
X126200000Y-82400000D01*
X126607989Y-91999466D02*
X128207455Y-90400000D01*
X125600000Y-93407456D02*
X126607989Y-92399466D01*
D30*
X126754651Y-99782325D02*
X127200000Y-99336976D01*
X126000000Y-99782325D02*
X126754651Y-99782325D01*
D29*
X125600000Y-95987325D02*
X125600000Y-93407456D01*
X127200000Y-79500000D02*
X142359022Y-79500000D01*
D28*
%TO.N,SCL*%
X132075499Y-85175401D02*
X134050900Y-83200000D01*
X136224501Y-84499501D02*
X137675000Y-85950000D01*
X134050900Y-83200000D02*
X134900000Y-83200000D01*
X131800000Y-94300000D02*
X131800000Y-89400000D01*
X132075499Y-88299901D02*
X132075499Y-85175401D01*
X131000000Y-95100000D02*
X131000000Y-96475489D01*
X136224501Y-84199901D02*
X136224501Y-84499501D01*
X135224600Y-83200000D02*
X136224501Y-84199901D01*
X131800000Y-89400000D02*
X131750999Y-89350999D01*
X131750999Y-88624401D02*
X132075499Y-88299901D01*
X129545000Y-99282325D02*
X130400000Y-99282325D01*
X131750999Y-89350999D02*
X131750999Y-88624401D01*
X129225000Y-97667319D02*
X129225000Y-98962325D01*
X134900000Y-83200000D02*
X135224600Y-83200000D01*
X130457500Y-89400000D02*
X131800000Y-89400000D01*
X137675000Y-85950000D02*
X137675000Y-86700000D01*
X131000000Y-96475489D02*
X130167684Y-97307805D01*
X129584514Y-97307805D02*
X129225000Y-97667319D01*
X129225000Y-98962325D02*
X129545000Y-99282325D01*
X131000000Y-95100000D02*
X131800000Y-94300000D01*
X130167684Y-97307805D02*
X129584514Y-97307805D01*
%TO.N,SDA*%
X132193164Y-98782325D02*
X132800000Y-98175489D01*
X130457500Y-88400000D02*
X130465433Y-88407933D01*
X133549520Y-82475480D02*
X132800000Y-83225000D01*
X130465433Y-88407933D02*
X130465433Y-88432532D01*
X130400000Y-98782325D02*
X132193164Y-98782325D01*
X132300000Y-89175500D02*
X132475500Y-89000000D01*
X131625988Y-88013708D02*
X131207164Y-88432532D01*
X135990480Y-82475480D02*
X133549520Y-82475480D01*
X131625988Y-84399012D02*
X131625988Y-88013708D01*
X131207164Y-88432532D02*
X130465433Y-88432532D01*
X137675000Y-84160000D02*
X135990480Y-82475480D01*
X132800000Y-96211399D02*
X132300000Y-95711399D01*
X132800000Y-83225000D02*
X131625988Y-84399012D01*
X132800000Y-98175489D02*
X132800000Y-96211399D01*
X132300000Y-95711399D02*
X132300000Y-89175500D01*
%TO.N,~{SHUT_DWN_SIG}*%
X129432500Y-82400000D02*
X128600000Y-83232500D01*
X136958057Y-88083448D02*
X135696046Y-86821437D01*
X130457500Y-82400000D02*
X129432500Y-82400000D01*
X129432500Y-87400000D02*
X130457500Y-87400000D01*
X142168448Y-88083448D02*
X136958057Y-88083448D01*
X128600000Y-83232500D02*
X128600000Y-86567500D01*
X128600000Y-86567500D02*
X129432500Y-87400000D01*
X143325000Y-89240000D02*
X142168448Y-88083448D01*
%TO.N,ENDCAP_EN*%
X143375000Y-94320000D02*
X142055000Y-93000000D01*
X134200000Y-90400000D02*
X134200000Y-86623401D01*
X134200000Y-86623401D02*
X134052189Y-86475590D01*
X142055000Y-93000000D02*
X136800000Y-93000000D01*
X136800000Y-93000000D02*
X134200000Y-90400000D01*
%TO.N,GPS_INT*%
X135650000Y-90750000D02*
X134800000Y-89900000D01*
X134800000Y-89900000D02*
X134800000Y-86692885D01*
X134800000Y-86692885D02*
X135802932Y-85689953D01*
X142345000Y-90750000D02*
X135650000Y-90750000D01*
X143375000Y-91780000D02*
X142345000Y-90750000D01*
%TO.N,IMU_INT*%
X133675499Y-87123500D02*
X133327688Y-86775689D01*
X133327688Y-86775689D02*
X133327688Y-86172312D01*
X133327688Y-86172312D02*
X135000000Y-84500000D01*
X137375000Y-94320000D02*
X133675499Y-90620499D01*
X133675499Y-90620499D02*
X133675499Y-87123500D01*
X137675000Y-94320000D02*
X137375000Y-94320000D01*
%TO.N,/3.3V pullup*%
X137675000Y-81620000D02*
X132555000Y-81620000D01*
D31*
%TO.N,+12V*%
X120039511Y-122906075D02*
X120039511Y-122910487D01*
X120900000Y-122045585D02*
X120039511Y-122906075D01*
X132300000Y-133800000D02*
X133500000Y-132600000D01*
X124530000Y-133800000D02*
X132300000Y-133800000D01*
X133500000Y-132600000D02*
X133500000Y-128500000D01*
X119540000Y-128810000D02*
X124530000Y-133800000D01*
X120900000Y-82495000D02*
X120900000Y-122045585D01*
X120039511Y-122910487D02*
X119540000Y-123409998D01*
X119540000Y-123409998D02*
X119540000Y-128810000D01*
%TO.N,GNDPWR*%
X122300000Y-95300000D02*
X125683478Y-91916522D01*
X119535000Y-80035000D02*
X117900000Y-81670000D01*
X121440000Y-128020000D02*
X120830000Y-127410000D01*
X125700000Y-84000000D02*
X121735000Y-80035000D01*
X120830000Y-124500978D02*
X122300000Y-123030978D01*
X117900000Y-81670000D02*
X117900000Y-82495000D01*
X122300000Y-123030978D02*
X122300000Y-95300000D01*
X130725245Y-128020000D02*
X121440000Y-128020000D01*
X120830000Y-127410000D02*
X120830000Y-124500978D01*
X125683478Y-91916522D02*
X125683478Y-91542545D01*
X121735000Y-80035000D02*
X119535000Y-80035000D01*
X125683478Y-91542545D02*
X125700000Y-91526023D01*
X125700000Y-91526023D02*
X125700000Y-84000000D01*
X133245245Y-125500000D02*
X130725245Y-128020000D01*
X133290489Y-125500000D02*
X133245245Y-125500000D01*
D29*
%TO.N,Net-(BZ1-Pad1)*%
X143050489Y-120894511D02*
X143375000Y-120570000D01*
X143375000Y-120570000D02*
X143375000Y-119720000D01*
X131105489Y-120894511D02*
X126510000Y-125490000D01*
X131105489Y-120894511D02*
X143050489Y-120894511D01*
X126510000Y-125490000D02*
X123340000Y-125490000D01*
%TD*%
M02*
