M48
; DRILL file {KiCad (6.0.5)} date Thu Jun 23 22:14:48 2022
; FORMAT={-:-/ absolute / metric / decimal}
; #@! TF.CreationDate,2022-06-23T22:14:48-04:00
; #@! TF.GenerationSoftware,Kicad,Pcbnew,(6.0.5)
; #@! TF.FileFunction,Plated,1,2,PTH
FMAT,2
METRIC
; #@! TA.AperFunction,Plated,PTH,ViaDrill
T1C0.400
; #@! TA.AperFunction,Plated,PTH,ComponentDrill
T2C0.740
; #@! TA.AperFunction,Plated,PTH,ComponentDrill
T3C1.000
; #@! TA.AperFunction,Plated,PTH,ComponentDrill
T4C2.410
%
G90
G05
T1
X119.75Y-108.373
X124.249Y-97.837
X124.249Y-100.437
X124.258Y-98.837
X125.35Y-107.275
X125.5Y-110.275
X127.546Y-102.025
X127.9Y-94.987
X128.975Y-102.75
X130.425Y-103.2
X130.45Y-118.1
X130.457Y-87.4
X130.465Y-88.433
X130.5Y-83.4
X130.5Y-84.4
X130.5Y-85.4
X130.5Y-86.4
X131.75Y-110.275
X131.75Y-111.275
X131.75Y-112.275
X132.041Y-96.477
X132.057Y-97.894
X132.475Y-89.0
X133.524Y-95.862
X133.8Y-84.475
X134.052Y-86.476
X134.15Y-107.55
X134.95Y-113.05
X135.0Y-84.5
X135.524Y-89.299
X135.525Y-104.625
X135.696Y-86.821
X135.775Y-106.125
X135.803Y-85.69
X137.65Y-112.1
X137.65Y-129.9
X137.7Y-91.8
X143.3Y-86.75
X143.3Y-96.85
X143.35Y-104.5
X143.35Y-117.2
X143.35Y-122.25
T2
X129.0Y-106.025
X129.0Y-113.525
T3
X117.75Y-98.025
X117.75Y-100.565
X117.75Y-103.105
X117.75Y-105.645
X117.75Y-108.185
X117.75Y-110.725
X117.75Y-113.265
X117.75Y-115.805
X117.75Y-118.345
X117.75Y-120.885
X123.34Y-125.49
X130.09Y-125.49
T4
X115.75Y-87.965
X123.05Y-87.965
X128.13Y-120.35
X128.13Y-130.65
T0
M30
