%FSLAX45Y45*%
G04 Gerber Fmt 4.5, Leading zero omitted, Abs format (unit mm)*
G04 Created by KiCad (PCBNEW (6.0.5)) date 2022-06-23 22:14:49*
%MOMM*%
%LPD*%
G01*
G04 APERTURE LIST*
%TA.AperFunction,Profile*%
%ADD10C,0.200000*%
%TD*%
%ADD11C,0.200000*%
%ADD12C,0.040000*%
%ADD13C,0.074000*%
%ADD14C,0.100000*%
%ADD15C,0.241000*%
G04 APERTURE END LIST*
D10*
X11885000Y-7675000D02*
G75*
G03*
X11885000Y-7675000I-135000J0D01*
G01*
X14185000Y-7675000D02*
G75*
G03*
X14185000Y-7675000I-135000J0D01*
G01*
X11700000Y-7325000D02*
G75*
G03*
X11400000Y-7625000I0J-300000D01*
G01*
X11885000Y-13475000D02*
G75*
G03*
X11885000Y-13475000I-135000J0D01*
G01*
X14475000Y-7625000D02*
G75*
G03*
X14175000Y-7325000I-300000J0D01*
G01*
X14175000Y-13825000D02*
G75*
G03*
X14475000Y-13525000I0J300000D01*
G01*
X11700000Y-7325000D02*
X14175000Y-7325000D01*
X11400000Y-13525000D02*
G75*
G03*
X11700000Y-13825000I300000J0D01*
G01*
X11400000Y-13525000D02*
X11400000Y-7625000D01*
X14185000Y-13475000D02*
G75*
G03*
X14185000Y-13475000I-135000J0D01*
G01*
X14475000Y-7625000D02*
X14475000Y-13525000D01*
X14175000Y-13825000D02*
X11700000Y-13825000D01*
D11*
D12*
X11955050Y-10817268D02*
X11995050Y-10857268D01*
X11995050Y-10817268D02*
X11955050Y-10857268D01*
X12404950Y-9763733D02*
X12444950Y-9803733D01*
X12444950Y-9763733D02*
X12404950Y-9803733D01*
X12404950Y-10023733D02*
X12444950Y-10063733D01*
X12444950Y-10023733D02*
X12404950Y-10063733D01*
X12405797Y-9863679D02*
X12445797Y-9903679D01*
X12445797Y-9863679D02*
X12405797Y-9903679D01*
X12515000Y-10707500D02*
X12555000Y-10747500D01*
X12555000Y-10707500D02*
X12515000Y-10747500D01*
X12530000Y-11007500D02*
X12570000Y-11047500D01*
X12570000Y-11007500D02*
X12530000Y-11047500D01*
X12734597Y-10182550D02*
X12774597Y-10222550D01*
X12774597Y-10182550D02*
X12734597Y-10222550D01*
X12770000Y-9478733D02*
X12810000Y-9518733D01*
X12810000Y-9478733D02*
X12770000Y-9518733D01*
X12877500Y-10255000D02*
X12917500Y-10295000D01*
X12917500Y-10255000D02*
X12877500Y-10295000D01*
X13022500Y-10300000D02*
X13062500Y-10340000D01*
X13062500Y-10300000D02*
X13022500Y-10340000D01*
X13025000Y-11790000D02*
X13065000Y-11830000D01*
X13065000Y-11790000D02*
X13025000Y-11830000D01*
X13025750Y-8720000D02*
X13065750Y-8760000D01*
X13065750Y-8720000D02*
X13025750Y-8760000D01*
X13026543Y-8823253D02*
X13066543Y-8863253D01*
X13066543Y-8823253D02*
X13026543Y-8863253D01*
X13030000Y-8320000D02*
X13070000Y-8360000D01*
X13070000Y-8320000D02*
X13030000Y-8360000D01*
X13030000Y-8420000D02*
X13070000Y-8460000D01*
X13070000Y-8420000D02*
X13030000Y-8460000D01*
X13030000Y-8520000D02*
X13070000Y-8560000D01*
X13070000Y-8520000D02*
X13030000Y-8560000D01*
X13030000Y-8620000D02*
X13070000Y-8660000D01*
X13070000Y-8620000D02*
X13030000Y-8660000D01*
X13155000Y-11007500D02*
X13195000Y-11047500D01*
X13195000Y-11007500D02*
X13155000Y-11047500D01*
X13155000Y-11107500D02*
X13195000Y-11147500D01*
X13195000Y-11107500D02*
X13155000Y-11147500D01*
X13155000Y-11207500D02*
X13195000Y-11247500D01*
X13195000Y-11207500D02*
X13155000Y-11247500D01*
X13184077Y-9627677D02*
X13224077Y-9667677D01*
X13224077Y-9627677D02*
X13184077Y-9667677D01*
X13185678Y-9769411D02*
X13225678Y-9809411D01*
X13225678Y-9769411D02*
X13185678Y-9809411D01*
X13227550Y-8880000D02*
X13267550Y-8920000D01*
X13267550Y-8880000D02*
X13227550Y-8920000D01*
X13332450Y-9566230D02*
X13372450Y-9606230D01*
X13372450Y-9566230D02*
X13332450Y-9606230D01*
X13360000Y-8427550D02*
X13400000Y-8467550D01*
X13400000Y-8427550D02*
X13360000Y-8467550D01*
X13385219Y-8627559D02*
X13425219Y-8667559D01*
X13425219Y-8627559D02*
X13385219Y-8667559D01*
X13395000Y-10735050D02*
X13435000Y-10775050D01*
X13435000Y-10735050D02*
X13395000Y-10775050D01*
X13475000Y-11285000D02*
X13515000Y-11325000D01*
X13515000Y-11285000D02*
X13475000Y-11325000D01*
X13480000Y-8430000D02*
X13520000Y-8470000D01*
X13520000Y-8430000D02*
X13480000Y-8470000D01*
X13532450Y-8909947D02*
X13572450Y-8949947D01*
X13572450Y-8909947D02*
X13532450Y-8949947D01*
X13532500Y-10442500D02*
X13572500Y-10482500D01*
X13572500Y-10442500D02*
X13532500Y-10482500D01*
X13549605Y-8662144D02*
X13589605Y-8702144D01*
X13589605Y-8662144D02*
X13549605Y-8702144D01*
X13557500Y-10592500D02*
X13597500Y-10632500D01*
X13597500Y-10592500D02*
X13557500Y-10632500D01*
X13560293Y-8548995D02*
X13600293Y-8588995D01*
X13600293Y-8548995D02*
X13560293Y-8588995D01*
X13745000Y-11190000D02*
X13785000Y-11230000D01*
X13785000Y-11190000D02*
X13745000Y-11230000D01*
X13745000Y-12970000D02*
X13785000Y-13010000D01*
X13785000Y-12970000D02*
X13745000Y-13010000D01*
X13750000Y-9160000D02*
X13790000Y-9200000D01*
X13790000Y-9160000D02*
X13750000Y-9200000D01*
X14310000Y-8655000D02*
X14350000Y-8695000D01*
X14350000Y-8655000D02*
X14310000Y-8695000D01*
X14310000Y-9665000D02*
X14350000Y-9705000D01*
X14350000Y-9665000D02*
X14310000Y-9705000D01*
X14315000Y-10430000D02*
X14355000Y-10470000D01*
X14355000Y-10430000D02*
X14315000Y-10470000D01*
X14315000Y-11700000D02*
X14355000Y-11740000D01*
X14355000Y-11700000D02*
X14315000Y-11740000D01*
X14315000Y-12205000D02*
X14355000Y-12245000D01*
X14355000Y-12205000D02*
X14315000Y-12245000D01*
D13*
X12937000Y-10602500D02*
G75*
G03*
X12937000Y-10602500I-37000J0D01*
G01*
X12937000Y-11352500D02*
G75*
G03*
X12937000Y-11352500I-37000J0D01*
G01*
D14*
X11775000Y-9752500D02*
X11775000Y-9852500D01*
X11725000Y-9802500D02*
X11825000Y-9802500D01*
X11775000Y-10006500D02*
X11775000Y-10106500D01*
X11725000Y-10056500D02*
X11825000Y-10056500D01*
X11775000Y-10260500D02*
X11775000Y-10360500D01*
X11725000Y-10310500D02*
X11825000Y-10310500D01*
X11775000Y-10514500D02*
X11775000Y-10614500D01*
X11725000Y-10564500D02*
X11825000Y-10564500D01*
X11775000Y-10768500D02*
X11775000Y-10868500D01*
X11725000Y-10818500D02*
X11825000Y-10818500D01*
X11775000Y-11022500D02*
X11775000Y-11122500D01*
X11725000Y-11072500D02*
X11825000Y-11072500D01*
X11775000Y-11276500D02*
X11775000Y-11376500D01*
X11725000Y-11326500D02*
X11825000Y-11326500D01*
X11775000Y-11530500D02*
X11775000Y-11630500D01*
X11725000Y-11580500D02*
X11825000Y-11580500D01*
X11775000Y-11784500D02*
X11775000Y-11884500D01*
X11725000Y-11834500D02*
X11825000Y-11834500D01*
X11775000Y-12038500D02*
X11775000Y-12138500D01*
X11725000Y-12088500D02*
X11825000Y-12088500D01*
X12334000Y-12499000D02*
X12334000Y-12599000D01*
X12284000Y-12549000D02*
X12384000Y-12549000D01*
X13009000Y-12499000D02*
X13009000Y-12599000D01*
X12959000Y-12549000D02*
X13059000Y-12549000D01*
D15*
X11660207Y-8881707D02*
X11660207Y-8711293D01*
X11489793Y-8711293D01*
X11489793Y-8881707D01*
X11660207Y-8881707D01*
X12390207Y-8881707D02*
X12390207Y-8711293D01*
X12219793Y-8711293D01*
X12219793Y-8881707D01*
X12390207Y-8881707D01*
X12898207Y-12120207D02*
X12898207Y-11949793D01*
X12727793Y-11949793D01*
X12727793Y-12120207D01*
X12898207Y-12120207D01*
X12898207Y-13150207D02*
X12898207Y-12979793D01*
X12727793Y-12979793D01*
X12727793Y-13150207D01*
X12898207Y-13150207D01*
D11*
X11647619Y-14145476D02*
X11647619Y-13945476D01*
X11695238Y-13945476D01*
X11723810Y-13955000D01*
X11742857Y-13974048D01*
X11752381Y-13993095D01*
X11761905Y-14031190D01*
X11761905Y-14059762D01*
X11752381Y-14097857D01*
X11742857Y-14116905D01*
X11723810Y-14135952D01*
X11695238Y-14145476D01*
X11647619Y-14145476D01*
X11847619Y-14145476D02*
X11847619Y-14012143D01*
X11847619Y-14050238D02*
X11857143Y-14031190D01*
X11866667Y-14021667D01*
X11885714Y-14012143D01*
X11904762Y-14012143D01*
X11971429Y-14145476D02*
X11971429Y-14012143D01*
X11971429Y-13945476D02*
X11961905Y-13955000D01*
X11971429Y-13964524D01*
X11980952Y-13955000D01*
X11971429Y-13945476D01*
X11971429Y-13964524D01*
X12095238Y-14145476D02*
X12076190Y-14135952D01*
X12066667Y-14116905D01*
X12066667Y-13945476D01*
X12200000Y-14145476D02*
X12180952Y-14135952D01*
X12171429Y-14116905D01*
X12171429Y-13945476D01*
X12428571Y-14145476D02*
X12428571Y-13945476D01*
X12495238Y-14088333D01*
X12561905Y-13945476D01*
X12561905Y-14145476D01*
X12742857Y-14145476D02*
X12742857Y-14040714D01*
X12733333Y-14021667D01*
X12714286Y-14012143D01*
X12676190Y-14012143D01*
X12657143Y-14021667D01*
X12742857Y-14135952D02*
X12723810Y-14145476D01*
X12676190Y-14145476D01*
X12657143Y-14135952D01*
X12647619Y-14116905D01*
X12647619Y-14097857D01*
X12657143Y-14078809D01*
X12676190Y-14069286D01*
X12723810Y-14069286D01*
X12742857Y-14059762D01*
X12838095Y-14012143D02*
X12838095Y-14212143D01*
X12838095Y-14021667D02*
X12857143Y-14012143D01*
X12895238Y-14012143D01*
X12914286Y-14021667D01*
X12923810Y-14031190D01*
X12933333Y-14050238D01*
X12933333Y-14107381D01*
X12923810Y-14126428D01*
X12914286Y-14135952D01*
X12895238Y-14145476D01*
X12857143Y-14145476D01*
X12838095Y-14135952D01*
X13019048Y-14126428D02*
X13028571Y-14135952D01*
X13019048Y-14145476D01*
X13009524Y-14135952D01*
X13019048Y-14126428D01*
X13019048Y-14145476D01*
X13019048Y-14021667D02*
X13028571Y-14031190D01*
X13019048Y-14040714D01*
X13009524Y-14031190D01*
X13019048Y-14021667D01*
X13019048Y-14040714D01*
D12*
X11350000Y-14455000D02*
X11390000Y-14495000D01*
X11390000Y-14455000D02*
X11350000Y-14495000D01*
D11*
X11685714Y-14365476D02*
X11704762Y-14365476D01*
X11723810Y-14375000D01*
X11733333Y-14384524D01*
X11742857Y-14403571D01*
X11752381Y-14441667D01*
X11752381Y-14489286D01*
X11742857Y-14527381D01*
X11733333Y-14546428D01*
X11723810Y-14555952D01*
X11704762Y-14565476D01*
X11685714Y-14565476D01*
X11666667Y-14555952D01*
X11657143Y-14546428D01*
X11647619Y-14527381D01*
X11638095Y-14489286D01*
X11638095Y-14441667D01*
X11647619Y-14403571D01*
X11657143Y-14384524D01*
X11666667Y-14375000D01*
X11685714Y-14365476D01*
X11838095Y-14546428D02*
X11847619Y-14555952D01*
X11838095Y-14565476D01*
X11828571Y-14555952D01*
X11838095Y-14546428D01*
X11838095Y-14565476D01*
X12019048Y-14432143D02*
X12019048Y-14565476D01*
X11971429Y-14355952D02*
X11923810Y-14498809D01*
X12047619Y-14498809D01*
X12161905Y-14365476D02*
X12180952Y-14365476D01*
X12200000Y-14375000D01*
X12209524Y-14384524D01*
X12219048Y-14403571D01*
X12228571Y-14441667D01*
X12228571Y-14489286D01*
X12219048Y-14527381D01*
X12209524Y-14546428D01*
X12200000Y-14555952D01*
X12180952Y-14565476D01*
X12161905Y-14565476D01*
X12142857Y-14555952D01*
X12133333Y-14546428D01*
X12123810Y-14527381D01*
X12114286Y-14489286D01*
X12114286Y-14441667D01*
X12123810Y-14403571D01*
X12133333Y-14384524D01*
X12142857Y-14375000D01*
X12161905Y-14365476D01*
X12352381Y-14365476D02*
X12371429Y-14365476D01*
X12390476Y-14375000D01*
X12400000Y-14384524D01*
X12409524Y-14403571D01*
X12419048Y-14441667D01*
X12419048Y-14489286D01*
X12409524Y-14527381D01*
X12400000Y-14546428D01*
X12390476Y-14555952D01*
X12371429Y-14565476D01*
X12352381Y-14565476D01*
X12333333Y-14555952D01*
X12323810Y-14546428D01*
X12314286Y-14527381D01*
X12304762Y-14489286D01*
X12304762Y-14441667D01*
X12314286Y-14403571D01*
X12323810Y-14384524D01*
X12333333Y-14375000D01*
X12352381Y-14365476D01*
X12504762Y-14565476D02*
X12504762Y-14432143D01*
X12504762Y-14451190D02*
X12514286Y-14441667D01*
X12533333Y-14432143D01*
X12561905Y-14432143D01*
X12580952Y-14441667D01*
X12590476Y-14460714D01*
X12590476Y-14565476D01*
X12590476Y-14460714D02*
X12600000Y-14441667D01*
X12619048Y-14432143D01*
X12647619Y-14432143D01*
X12666667Y-14441667D01*
X12676190Y-14460714D01*
X12676190Y-14565476D01*
X12771429Y-14565476D02*
X12771429Y-14432143D01*
X12771429Y-14451190D02*
X12780952Y-14441667D01*
X12800000Y-14432143D01*
X12828571Y-14432143D01*
X12847619Y-14441667D01*
X12857143Y-14460714D01*
X12857143Y-14565476D01*
X12857143Y-14460714D02*
X12866667Y-14441667D01*
X12885714Y-14432143D01*
X12914286Y-14432143D01*
X12933333Y-14441667D01*
X12942857Y-14460714D01*
X12942857Y-14565476D01*
X13333333Y-14355952D02*
X13161905Y-14613095D01*
X13590476Y-14365476D02*
X13609524Y-14365476D01*
X13628571Y-14375000D01*
X13638095Y-14384524D01*
X13647619Y-14403571D01*
X13657143Y-14441667D01*
X13657143Y-14489286D01*
X13647619Y-14527381D01*
X13638095Y-14546428D01*
X13628571Y-14555952D01*
X13609524Y-14565476D01*
X13590476Y-14565476D01*
X13571429Y-14555952D01*
X13561905Y-14546428D01*
X13552381Y-14527381D01*
X13542857Y-14489286D01*
X13542857Y-14441667D01*
X13552381Y-14403571D01*
X13561905Y-14384524D01*
X13571429Y-14375000D01*
X13590476Y-14365476D01*
X13742857Y-14546428D02*
X13752381Y-14555952D01*
X13742857Y-14565476D01*
X13733333Y-14555952D01*
X13742857Y-14546428D01*
X13742857Y-14565476D01*
X13876190Y-14365476D02*
X13895238Y-14365476D01*
X13914286Y-14375000D01*
X13923810Y-14384524D01*
X13933333Y-14403571D01*
X13942857Y-14441667D01*
X13942857Y-14489286D01*
X13933333Y-14527381D01*
X13923810Y-14546428D01*
X13914286Y-14555952D01*
X13895238Y-14565476D01*
X13876190Y-14565476D01*
X13857143Y-14555952D01*
X13847619Y-14546428D01*
X13838095Y-14527381D01*
X13828571Y-14489286D01*
X13828571Y-14441667D01*
X13838095Y-14403571D01*
X13847619Y-14384524D01*
X13857143Y-14375000D01*
X13876190Y-14365476D01*
X14133333Y-14565476D02*
X14019048Y-14565476D01*
X14076190Y-14565476D02*
X14076190Y-14365476D01*
X14057143Y-14394048D01*
X14038095Y-14413095D01*
X14019048Y-14422619D01*
X14314286Y-14365476D02*
X14219048Y-14365476D01*
X14209524Y-14460714D01*
X14219048Y-14451190D01*
X14238095Y-14441667D01*
X14285714Y-14441667D01*
X14304762Y-14451190D01*
X14314286Y-14460714D01*
X14323810Y-14479762D01*
X14323810Y-14527381D01*
X14314286Y-14546428D01*
X14304762Y-14555952D01*
X14285714Y-14565476D01*
X14238095Y-14565476D01*
X14219048Y-14555952D01*
X14209524Y-14546428D01*
X14390476Y-14365476D02*
X14523810Y-14365476D01*
X14438095Y-14565476D01*
X14590476Y-14365476D02*
X14590476Y-14403571D01*
X14666667Y-14365476D02*
X14666667Y-14403571D01*
X14961905Y-14641667D02*
X14952381Y-14632143D01*
X14933333Y-14603571D01*
X14923810Y-14584524D01*
X14914286Y-14555952D01*
X14904762Y-14508333D01*
X14904762Y-14470238D01*
X14914286Y-14422619D01*
X14923810Y-14394048D01*
X14933333Y-14375000D01*
X14952381Y-14346428D01*
X14961905Y-14336905D01*
X15123810Y-14432143D02*
X15123810Y-14565476D01*
X15076190Y-14355952D02*
X15028571Y-14498809D01*
X15152381Y-14498809D01*
X15219048Y-14384524D02*
X15228571Y-14375000D01*
X15247619Y-14365476D01*
X15295238Y-14365476D01*
X15314286Y-14375000D01*
X15323810Y-14384524D01*
X15333333Y-14403571D01*
X15333333Y-14422619D01*
X15323810Y-14451190D01*
X15209524Y-14565476D01*
X15333333Y-14565476D01*
X15571429Y-14565476D02*
X15571429Y-14365476D01*
X15657143Y-14565476D02*
X15657143Y-14460714D01*
X15647619Y-14441667D01*
X15628571Y-14432143D01*
X15600000Y-14432143D01*
X15580952Y-14441667D01*
X15571429Y-14451190D01*
X15780952Y-14565476D02*
X15761905Y-14555952D01*
X15752381Y-14546428D01*
X15742857Y-14527381D01*
X15742857Y-14470238D01*
X15752381Y-14451190D01*
X15761905Y-14441667D01*
X15780952Y-14432143D01*
X15809524Y-14432143D01*
X15828571Y-14441667D01*
X15838095Y-14451190D01*
X15847619Y-14470238D01*
X15847619Y-14527381D01*
X15838095Y-14546428D01*
X15828571Y-14555952D01*
X15809524Y-14565476D01*
X15780952Y-14565476D01*
X15961905Y-14565476D02*
X15942857Y-14555952D01*
X15933333Y-14536905D01*
X15933333Y-14365476D01*
X16114286Y-14555952D02*
X16095238Y-14565476D01*
X16057143Y-14565476D01*
X16038095Y-14555952D01*
X16028571Y-14536905D01*
X16028571Y-14460714D01*
X16038095Y-14441667D01*
X16057143Y-14432143D01*
X16095238Y-14432143D01*
X16114286Y-14441667D01*
X16123810Y-14460714D01*
X16123810Y-14479762D01*
X16028571Y-14498809D01*
X16200000Y-14555952D02*
X16219048Y-14565476D01*
X16257143Y-14565476D01*
X16276190Y-14555952D01*
X16285714Y-14536905D01*
X16285714Y-14527381D01*
X16276190Y-14508333D01*
X16257143Y-14498809D01*
X16228571Y-14498809D01*
X16209524Y-14489286D01*
X16200000Y-14470238D01*
X16200000Y-14460714D01*
X16209524Y-14441667D01*
X16228571Y-14432143D01*
X16257143Y-14432143D01*
X16276190Y-14441667D01*
X16352381Y-14641667D02*
X16361905Y-14632143D01*
X16380952Y-14603571D01*
X16390476Y-14584524D01*
X16400000Y-14555952D01*
X16409524Y-14508333D01*
X16409524Y-14470238D01*
X16400000Y-14422619D01*
X16390476Y-14394048D01*
X16380952Y-14375000D01*
X16361905Y-14346428D01*
X16352381Y-14336905D01*
D13*
X11390000Y-14739000D02*
G75*
G03*
X11390000Y-14739000I-37000J0D01*
G01*
D11*
X11685714Y-14629476D02*
X11704762Y-14629476D01*
X11723810Y-14639000D01*
X11733333Y-14648524D01*
X11742857Y-14667571D01*
X11752381Y-14705667D01*
X11752381Y-14753286D01*
X11742857Y-14791381D01*
X11733333Y-14810428D01*
X11723810Y-14819952D01*
X11704762Y-14829476D01*
X11685714Y-14829476D01*
X11666667Y-14819952D01*
X11657143Y-14810428D01*
X11647619Y-14791381D01*
X11638095Y-14753286D01*
X11638095Y-14705667D01*
X11647619Y-14667571D01*
X11657143Y-14648524D01*
X11666667Y-14639000D01*
X11685714Y-14629476D01*
X11838095Y-14810428D02*
X11847619Y-14819952D01*
X11838095Y-14829476D01*
X11828571Y-14819952D01*
X11838095Y-14810428D01*
X11838095Y-14829476D01*
X11914286Y-14629476D02*
X12047619Y-14629476D01*
X11961905Y-14829476D01*
X12209524Y-14696143D02*
X12209524Y-14829476D01*
X12161905Y-14619952D02*
X12114286Y-14762809D01*
X12238095Y-14762809D01*
X12352381Y-14629476D02*
X12371429Y-14629476D01*
X12390476Y-14639000D01*
X12400000Y-14648524D01*
X12409524Y-14667571D01*
X12419048Y-14705667D01*
X12419048Y-14753286D01*
X12409524Y-14791381D01*
X12400000Y-14810428D01*
X12390476Y-14819952D01*
X12371429Y-14829476D01*
X12352381Y-14829476D01*
X12333333Y-14819952D01*
X12323810Y-14810428D01*
X12314286Y-14791381D01*
X12304762Y-14753286D01*
X12304762Y-14705667D01*
X12314286Y-14667571D01*
X12323810Y-14648524D01*
X12333333Y-14639000D01*
X12352381Y-14629476D01*
X12504762Y-14829476D02*
X12504762Y-14696143D01*
X12504762Y-14715190D02*
X12514286Y-14705667D01*
X12533333Y-14696143D01*
X12561905Y-14696143D01*
X12580952Y-14705667D01*
X12590476Y-14724714D01*
X12590476Y-14829476D01*
X12590476Y-14724714D02*
X12600000Y-14705667D01*
X12619048Y-14696143D01*
X12647619Y-14696143D01*
X12666667Y-14705667D01*
X12676190Y-14724714D01*
X12676190Y-14829476D01*
X12771429Y-14829476D02*
X12771429Y-14696143D01*
X12771429Y-14715190D02*
X12780952Y-14705667D01*
X12800000Y-14696143D01*
X12828571Y-14696143D01*
X12847619Y-14705667D01*
X12857143Y-14724714D01*
X12857143Y-14829476D01*
X12857143Y-14724714D02*
X12866667Y-14705667D01*
X12885714Y-14696143D01*
X12914286Y-14696143D01*
X12933333Y-14705667D01*
X12942857Y-14724714D01*
X12942857Y-14829476D01*
X13333333Y-14619952D02*
X13161905Y-14877095D01*
X13590476Y-14629476D02*
X13609524Y-14629476D01*
X13628571Y-14639000D01*
X13638095Y-14648524D01*
X13647619Y-14667571D01*
X13657143Y-14705667D01*
X13657143Y-14753286D01*
X13647619Y-14791381D01*
X13638095Y-14810428D01*
X13628571Y-14819952D01*
X13609524Y-14829476D01*
X13590476Y-14829476D01*
X13571429Y-14819952D01*
X13561905Y-14810428D01*
X13552381Y-14791381D01*
X13542857Y-14753286D01*
X13542857Y-14705667D01*
X13552381Y-14667571D01*
X13561905Y-14648524D01*
X13571429Y-14639000D01*
X13590476Y-14629476D01*
X13742857Y-14810428D02*
X13752381Y-14819952D01*
X13742857Y-14829476D01*
X13733333Y-14819952D01*
X13742857Y-14810428D01*
X13742857Y-14829476D01*
X13876190Y-14629476D02*
X13895238Y-14629476D01*
X13914286Y-14639000D01*
X13923810Y-14648524D01*
X13933333Y-14667571D01*
X13942857Y-14705667D01*
X13942857Y-14753286D01*
X13933333Y-14791381D01*
X13923810Y-14810428D01*
X13914286Y-14819952D01*
X13895238Y-14829476D01*
X13876190Y-14829476D01*
X13857143Y-14819952D01*
X13847619Y-14810428D01*
X13838095Y-14791381D01*
X13828571Y-14753286D01*
X13828571Y-14705667D01*
X13838095Y-14667571D01*
X13847619Y-14648524D01*
X13857143Y-14639000D01*
X13876190Y-14629476D01*
X14019048Y-14648524D02*
X14028571Y-14639000D01*
X14047619Y-14629476D01*
X14095238Y-14629476D01*
X14114286Y-14639000D01*
X14123810Y-14648524D01*
X14133333Y-14667571D01*
X14133333Y-14686619D01*
X14123810Y-14715190D01*
X14009524Y-14829476D01*
X14133333Y-14829476D01*
X14228571Y-14829476D02*
X14266667Y-14829476D01*
X14285714Y-14819952D01*
X14295238Y-14810428D01*
X14314286Y-14781857D01*
X14323810Y-14743762D01*
X14323810Y-14667571D01*
X14314286Y-14648524D01*
X14304762Y-14639000D01*
X14285714Y-14629476D01*
X14247619Y-14629476D01*
X14228571Y-14639000D01*
X14219048Y-14648524D01*
X14209524Y-14667571D01*
X14209524Y-14715190D01*
X14219048Y-14734238D01*
X14228571Y-14743762D01*
X14247619Y-14753286D01*
X14285714Y-14753286D01*
X14304762Y-14743762D01*
X14314286Y-14734238D01*
X14323810Y-14715190D01*
X14514286Y-14829476D02*
X14400000Y-14829476D01*
X14457143Y-14829476D02*
X14457143Y-14629476D01*
X14438095Y-14658048D01*
X14419048Y-14677095D01*
X14400000Y-14686619D01*
X14590476Y-14629476D02*
X14590476Y-14667571D01*
X14666667Y-14629476D02*
X14666667Y-14667571D01*
X14961905Y-14905667D02*
X14952381Y-14896143D01*
X14933333Y-14867571D01*
X14923810Y-14848524D01*
X14914286Y-14819952D01*
X14904762Y-14772333D01*
X14904762Y-14734238D01*
X14914286Y-14686619D01*
X14923810Y-14658048D01*
X14933333Y-14639000D01*
X14952381Y-14610428D01*
X14961905Y-14600905D01*
X15028571Y-14648524D02*
X15038095Y-14639000D01*
X15057143Y-14629476D01*
X15104762Y-14629476D01*
X15123810Y-14639000D01*
X15133333Y-14648524D01*
X15142857Y-14667571D01*
X15142857Y-14686619D01*
X15133333Y-14715190D01*
X15019048Y-14829476D01*
X15142857Y-14829476D01*
X15380952Y-14829476D02*
X15380952Y-14629476D01*
X15466667Y-14829476D02*
X15466667Y-14724714D01*
X15457143Y-14705667D01*
X15438095Y-14696143D01*
X15409524Y-14696143D01*
X15390476Y-14705667D01*
X15380952Y-14715190D01*
X15590476Y-14829476D02*
X15571429Y-14819952D01*
X15561905Y-14810428D01*
X15552381Y-14791381D01*
X15552381Y-14734238D01*
X15561905Y-14715190D01*
X15571429Y-14705667D01*
X15590476Y-14696143D01*
X15619048Y-14696143D01*
X15638095Y-14705667D01*
X15647619Y-14715190D01*
X15657143Y-14734238D01*
X15657143Y-14791381D01*
X15647619Y-14810428D01*
X15638095Y-14819952D01*
X15619048Y-14829476D01*
X15590476Y-14829476D01*
X15771429Y-14829476D02*
X15752381Y-14819952D01*
X15742857Y-14800905D01*
X15742857Y-14629476D01*
X15923810Y-14819952D02*
X15904762Y-14829476D01*
X15866667Y-14829476D01*
X15847619Y-14819952D01*
X15838095Y-14800905D01*
X15838095Y-14724714D01*
X15847619Y-14705667D01*
X15866667Y-14696143D01*
X15904762Y-14696143D01*
X15923810Y-14705667D01*
X15933333Y-14724714D01*
X15933333Y-14743762D01*
X15838095Y-14762809D01*
X16009524Y-14819952D02*
X16028571Y-14829476D01*
X16066667Y-14829476D01*
X16085714Y-14819952D01*
X16095238Y-14800905D01*
X16095238Y-14791381D01*
X16085714Y-14772333D01*
X16066667Y-14762809D01*
X16038095Y-14762809D01*
X16019048Y-14753286D01*
X16009524Y-14734238D01*
X16009524Y-14724714D01*
X16019048Y-14705667D01*
X16038095Y-14696143D01*
X16066667Y-14696143D01*
X16085714Y-14705667D01*
X16161905Y-14905667D02*
X16171429Y-14896143D01*
X16190476Y-14867571D01*
X16200000Y-14848524D01*
X16209524Y-14819952D01*
X16219048Y-14772333D01*
X16219048Y-14734238D01*
X16209524Y-14686619D01*
X16200000Y-14658048D01*
X16190476Y-14639000D01*
X16171429Y-14610428D01*
X16161905Y-14600905D01*
D14*
X11340000Y-14953000D02*
X11340000Y-15053000D01*
X11290000Y-15003000D02*
X11390000Y-15003000D01*
D11*
X11752381Y-15093476D02*
X11638095Y-15093476D01*
X11695238Y-15093476D02*
X11695238Y-14893476D01*
X11676190Y-14922048D01*
X11657143Y-14941095D01*
X11638095Y-14950619D01*
X11838095Y-15074428D02*
X11847619Y-15083952D01*
X11838095Y-15093476D01*
X11828571Y-15083952D01*
X11838095Y-15074428D01*
X11838095Y-15093476D01*
X11971429Y-14893476D02*
X11990476Y-14893476D01*
X12009524Y-14903000D01*
X12019048Y-14912524D01*
X12028571Y-14931571D01*
X12038095Y-14969667D01*
X12038095Y-15017286D01*
X12028571Y-15055381D01*
X12019048Y-15074428D01*
X12009524Y-15083952D01*
X11990476Y-15093476D01*
X11971429Y-15093476D01*
X11952381Y-15083952D01*
X11942857Y-15074428D01*
X11933333Y-15055381D01*
X11923810Y-15017286D01*
X11923810Y-14969667D01*
X11933333Y-14931571D01*
X11942857Y-14912524D01*
X11952381Y-14903000D01*
X11971429Y-14893476D01*
X12161905Y-14893476D02*
X12180952Y-14893476D01*
X12200000Y-14903000D01*
X12209524Y-14912524D01*
X12219048Y-14931571D01*
X12228571Y-14969667D01*
X12228571Y-15017286D01*
X12219048Y-15055381D01*
X12209524Y-15074428D01*
X12200000Y-15083952D01*
X12180952Y-15093476D01*
X12161905Y-15093476D01*
X12142857Y-15083952D01*
X12133333Y-15074428D01*
X12123810Y-15055381D01*
X12114286Y-15017286D01*
X12114286Y-14969667D01*
X12123810Y-14931571D01*
X12133333Y-14912524D01*
X12142857Y-14903000D01*
X12161905Y-14893476D01*
X12352381Y-14893476D02*
X12371429Y-14893476D01*
X12390476Y-14903000D01*
X12400000Y-14912524D01*
X12409524Y-14931571D01*
X12419048Y-14969667D01*
X12419048Y-15017286D01*
X12409524Y-15055381D01*
X12400000Y-15074428D01*
X12390476Y-15083952D01*
X12371429Y-15093476D01*
X12352381Y-15093476D01*
X12333333Y-15083952D01*
X12323810Y-15074428D01*
X12314286Y-15055381D01*
X12304762Y-15017286D01*
X12304762Y-14969667D01*
X12314286Y-14931571D01*
X12323810Y-14912524D01*
X12333333Y-14903000D01*
X12352381Y-14893476D01*
X12504762Y-15093476D02*
X12504762Y-14960143D01*
X12504762Y-14979190D02*
X12514286Y-14969667D01*
X12533333Y-14960143D01*
X12561905Y-14960143D01*
X12580952Y-14969667D01*
X12590476Y-14988714D01*
X12590476Y-15093476D01*
X12590476Y-14988714D02*
X12600000Y-14969667D01*
X12619048Y-14960143D01*
X12647619Y-14960143D01*
X12666667Y-14969667D01*
X12676190Y-14988714D01*
X12676190Y-15093476D01*
X12771429Y-15093476D02*
X12771429Y-14960143D01*
X12771429Y-14979190D02*
X12780952Y-14969667D01*
X12800000Y-14960143D01*
X12828571Y-14960143D01*
X12847619Y-14969667D01*
X12857143Y-14988714D01*
X12857143Y-15093476D01*
X12857143Y-14988714D02*
X12866667Y-14969667D01*
X12885714Y-14960143D01*
X12914286Y-14960143D01*
X12933333Y-14969667D01*
X12942857Y-14988714D01*
X12942857Y-15093476D01*
X13333333Y-14883952D02*
X13161905Y-15141095D01*
X13590476Y-14893476D02*
X13609524Y-14893476D01*
X13628571Y-14903000D01*
X13638095Y-14912524D01*
X13647619Y-14931571D01*
X13657143Y-14969667D01*
X13657143Y-15017286D01*
X13647619Y-15055381D01*
X13638095Y-15074428D01*
X13628571Y-15083952D01*
X13609524Y-15093476D01*
X13590476Y-15093476D01*
X13571429Y-15083952D01*
X13561905Y-15074428D01*
X13552381Y-15055381D01*
X13542857Y-15017286D01*
X13542857Y-14969667D01*
X13552381Y-14931571D01*
X13561905Y-14912524D01*
X13571429Y-14903000D01*
X13590476Y-14893476D01*
X13742857Y-15074428D02*
X13752381Y-15083952D01*
X13742857Y-15093476D01*
X13733333Y-15083952D01*
X13742857Y-15074428D01*
X13742857Y-15093476D01*
X13876190Y-14893476D02*
X13895238Y-14893476D01*
X13914286Y-14903000D01*
X13923810Y-14912524D01*
X13933333Y-14931571D01*
X13942857Y-14969667D01*
X13942857Y-15017286D01*
X13933333Y-15055381D01*
X13923810Y-15074428D01*
X13914286Y-15083952D01*
X13895238Y-15093476D01*
X13876190Y-15093476D01*
X13857143Y-15083952D01*
X13847619Y-15074428D01*
X13838095Y-15055381D01*
X13828571Y-15017286D01*
X13828571Y-14969667D01*
X13838095Y-14931571D01*
X13847619Y-14912524D01*
X13857143Y-14903000D01*
X13876190Y-14893476D01*
X14009524Y-14893476D02*
X14133333Y-14893476D01*
X14066667Y-14969667D01*
X14095238Y-14969667D01*
X14114286Y-14979190D01*
X14123810Y-14988714D01*
X14133333Y-15007762D01*
X14133333Y-15055381D01*
X14123810Y-15074428D01*
X14114286Y-15083952D01*
X14095238Y-15093476D01*
X14038095Y-15093476D01*
X14019048Y-15083952D01*
X14009524Y-15074428D01*
X14228571Y-15093476D02*
X14266667Y-15093476D01*
X14285714Y-15083952D01*
X14295238Y-15074428D01*
X14314286Y-15045857D01*
X14323810Y-15007762D01*
X14323810Y-14931571D01*
X14314286Y-14912524D01*
X14304762Y-14903000D01*
X14285714Y-14893476D01*
X14247619Y-14893476D01*
X14228571Y-14903000D01*
X14219048Y-14912524D01*
X14209524Y-14931571D01*
X14209524Y-14979190D01*
X14219048Y-14998238D01*
X14228571Y-15007762D01*
X14247619Y-15017286D01*
X14285714Y-15017286D01*
X14304762Y-15007762D01*
X14314286Y-14998238D01*
X14323810Y-14979190D01*
X14495238Y-14960143D02*
X14495238Y-15093476D01*
X14447619Y-14883952D02*
X14400000Y-15026809D01*
X14523810Y-15026809D01*
X14590476Y-14893476D02*
X14590476Y-14931571D01*
X14666667Y-14893476D02*
X14666667Y-14931571D01*
X14961905Y-15169667D02*
X14952381Y-15160143D01*
X14933333Y-15131571D01*
X14923810Y-15112524D01*
X14914286Y-15083952D01*
X14904762Y-15036333D01*
X14904762Y-14998238D01*
X14914286Y-14950619D01*
X14923810Y-14922048D01*
X14933333Y-14903000D01*
X14952381Y-14874428D01*
X14961905Y-14864905D01*
X15142857Y-15093476D02*
X15028571Y-15093476D01*
X15085714Y-15093476D02*
X15085714Y-14893476D01*
X15066667Y-14922048D01*
X15047619Y-14941095D01*
X15028571Y-14950619D01*
X15219048Y-14912524D02*
X15228571Y-14903000D01*
X15247619Y-14893476D01*
X15295238Y-14893476D01*
X15314286Y-14903000D01*
X15323810Y-14912524D01*
X15333333Y-14931571D01*
X15333333Y-14950619D01*
X15323810Y-14979190D01*
X15209524Y-15093476D01*
X15333333Y-15093476D01*
X15571429Y-15093476D02*
X15571429Y-14893476D01*
X15657143Y-15093476D02*
X15657143Y-14988714D01*
X15647619Y-14969667D01*
X15628571Y-14960143D01*
X15600000Y-14960143D01*
X15580952Y-14969667D01*
X15571429Y-14979190D01*
X15780952Y-15093476D02*
X15761905Y-15083952D01*
X15752381Y-15074428D01*
X15742857Y-15055381D01*
X15742857Y-14998238D01*
X15752381Y-14979190D01*
X15761905Y-14969667D01*
X15780952Y-14960143D01*
X15809524Y-14960143D01*
X15828571Y-14969667D01*
X15838095Y-14979190D01*
X15847619Y-14998238D01*
X15847619Y-15055381D01*
X15838095Y-15074428D01*
X15828571Y-15083952D01*
X15809524Y-15093476D01*
X15780952Y-15093476D01*
X15961905Y-15093476D02*
X15942857Y-15083952D01*
X15933333Y-15064905D01*
X15933333Y-14893476D01*
X16114286Y-15083952D02*
X16095238Y-15093476D01*
X16057143Y-15093476D01*
X16038095Y-15083952D01*
X16028571Y-15064905D01*
X16028571Y-14988714D01*
X16038095Y-14969667D01*
X16057143Y-14960143D01*
X16095238Y-14960143D01*
X16114286Y-14969667D01*
X16123810Y-14988714D01*
X16123810Y-15007762D01*
X16028571Y-15026809D01*
X16200000Y-15083952D02*
X16219048Y-15093476D01*
X16257143Y-15093476D01*
X16276190Y-15083952D01*
X16285714Y-15064905D01*
X16285714Y-15055381D01*
X16276190Y-15036333D01*
X16257143Y-15026809D01*
X16228571Y-15026809D01*
X16209524Y-15017286D01*
X16200000Y-14998238D01*
X16200000Y-14988714D01*
X16209524Y-14969667D01*
X16228571Y-14960143D01*
X16257143Y-14960143D01*
X16276190Y-14969667D01*
X16352381Y-15169667D02*
X16361905Y-15160143D01*
X16380952Y-15131571D01*
X16390476Y-15112524D01*
X16400000Y-15083952D01*
X16409524Y-15036333D01*
X16409524Y-14998238D01*
X16400000Y-14950619D01*
X16390476Y-14922048D01*
X16380952Y-14903000D01*
X16361905Y-14874428D01*
X16352381Y-14864905D01*
X11360711Y-15337711D02*
X11360711Y-15196289D01*
X11219289Y-15196289D01*
X11219289Y-15337711D01*
X11360711Y-15337711D01*
X11638095Y-15176524D02*
X11647619Y-15167000D01*
X11666667Y-15157476D01*
X11714286Y-15157476D01*
X11733333Y-15167000D01*
X11742857Y-15176524D01*
X11752381Y-15195571D01*
X11752381Y-15214619D01*
X11742857Y-15243190D01*
X11628571Y-15357476D01*
X11752381Y-15357476D01*
X11838095Y-15338428D02*
X11847619Y-15347952D01*
X11838095Y-15357476D01*
X11828571Y-15347952D01*
X11838095Y-15338428D01*
X11838095Y-15357476D01*
X12019048Y-15224143D02*
X12019048Y-15357476D01*
X11971429Y-15147952D02*
X11923810Y-15290809D01*
X12047619Y-15290809D01*
X12228571Y-15357476D02*
X12114286Y-15357476D01*
X12171429Y-15357476D02*
X12171429Y-15157476D01*
X12152381Y-15186048D01*
X12133333Y-15205095D01*
X12114286Y-15214619D01*
X12352381Y-15157476D02*
X12371429Y-15157476D01*
X12390476Y-15167000D01*
X12400000Y-15176524D01*
X12409524Y-15195571D01*
X12419048Y-15233667D01*
X12419048Y-15281286D01*
X12409524Y-15319381D01*
X12400000Y-15338428D01*
X12390476Y-15347952D01*
X12371429Y-15357476D01*
X12352381Y-15357476D01*
X12333333Y-15347952D01*
X12323810Y-15338428D01*
X12314286Y-15319381D01*
X12304762Y-15281286D01*
X12304762Y-15233667D01*
X12314286Y-15195571D01*
X12323810Y-15176524D01*
X12333333Y-15167000D01*
X12352381Y-15157476D01*
X12504762Y-15357476D02*
X12504762Y-15224143D01*
X12504762Y-15243190D02*
X12514286Y-15233667D01*
X12533333Y-15224143D01*
X12561905Y-15224143D01*
X12580952Y-15233667D01*
X12590476Y-15252714D01*
X12590476Y-15357476D01*
X12590476Y-15252714D02*
X12600000Y-15233667D01*
X12619048Y-15224143D01*
X12647619Y-15224143D01*
X12666667Y-15233667D01*
X12676190Y-15252714D01*
X12676190Y-15357476D01*
X12771429Y-15357476D02*
X12771429Y-15224143D01*
X12771429Y-15243190D02*
X12780952Y-15233667D01*
X12800000Y-15224143D01*
X12828571Y-15224143D01*
X12847619Y-15233667D01*
X12857143Y-15252714D01*
X12857143Y-15357476D01*
X12857143Y-15252714D02*
X12866667Y-15233667D01*
X12885714Y-15224143D01*
X12914286Y-15224143D01*
X12933333Y-15233667D01*
X12942857Y-15252714D01*
X12942857Y-15357476D01*
X13333333Y-15147952D02*
X13161905Y-15405095D01*
X13590476Y-15157476D02*
X13609524Y-15157476D01*
X13628571Y-15167000D01*
X13638095Y-15176524D01*
X13647619Y-15195571D01*
X13657143Y-15233667D01*
X13657143Y-15281286D01*
X13647619Y-15319381D01*
X13638095Y-15338428D01*
X13628571Y-15347952D01*
X13609524Y-15357476D01*
X13590476Y-15357476D01*
X13571429Y-15347952D01*
X13561905Y-15338428D01*
X13552381Y-15319381D01*
X13542857Y-15281286D01*
X13542857Y-15233667D01*
X13552381Y-15195571D01*
X13561905Y-15176524D01*
X13571429Y-15167000D01*
X13590476Y-15157476D01*
X13742857Y-15338428D02*
X13752381Y-15347952D01*
X13742857Y-15357476D01*
X13733333Y-15347952D01*
X13742857Y-15338428D01*
X13742857Y-15357476D01*
X13876190Y-15157476D02*
X13895238Y-15157476D01*
X13914286Y-15167000D01*
X13923810Y-15176524D01*
X13933333Y-15195571D01*
X13942857Y-15233667D01*
X13942857Y-15281286D01*
X13933333Y-15319381D01*
X13923810Y-15338428D01*
X13914286Y-15347952D01*
X13895238Y-15357476D01*
X13876190Y-15357476D01*
X13857143Y-15347952D01*
X13847619Y-15338428D01*
X13838095Y-15319381D01*
X13828571Y-15281286D01*
X13828571Y-15233667D01*
X13838095Y-15195571D01*
X13847619Y-15176524D01*
X13857143Y-15167000D01*
X13876190Y-15157476D01*
X14038095Y-15357476D02*
X14076190Y-15357476D01*
X14095238Y-15347952D01*
X14104762Y-15338428D01*
X14123810Y-15309857D01*
X14133333Y-15271762D01*
X14133333Y-15195571D01*
X14123810Y-15176524D01*
X14114286Y-15167000D01*
X14095238Y-15157476D01*
X14057143Y-15157476D01*
X14038095Y-15167000D01*
X14028571Y-15176524D01*
X14019048Y-15195571D01*
X14019048Y-15243190D01*
X14028571Y-15262238D01*
X14038095Y-15271762D01*
X14057143Y-15281286D01*
X14095238Y-15281286D01*
X14114286Y-15271762D01*
X14123810Y-15262238D01*
X14133333Y-15243190D01*
X14304762Y-15224143D02*
X14304762Y-15357476D01*
X14257143Y-15147952D02*
X14209524Y-15290809D01*
X14333333Y-15290809D01*
X14419048Y-15357476D02*
X14457143Y-15357476D01*
X14476190Y-15347952D01*
X14485714Y-15338428D01*
X14504762Y-15309857D01*
X14514286Y-15271762D01*
X14514286Y-15195571D01*
X14504762Y-15176524D01*
X14495238Y-15167000D01*
X14476190Y-15157476D01*
X14438095Y-15157476D01*
X14419048Y-15167000D01*
X14409524Y-15176524D01*
X14400000Y-15195571D01*
X14400000Y-15243190D01*
X14409524Y-15262238D01*
X14419048Y-15271762D01*
X14438095Y-15281286D01*
X14476190Y-15281286D01*
X14495238Y-15271762D01*
X14504762Y-15262238D01*
X14514286Y-15243190D01*
X14590476Y-15157476D02*
X14590476Y-15195571D01*
X14666667Y-15157476D02*
X14666667Y-15195571D01*
X14961905Y-15433667D02*
X14952381Y-15424143D01*
X14933333Y-15395571D01*
X14923810Y-15376524D01*
X14914286Y-15347952D01*
X14904762Y-15300333D01*
X14904762Y-15262238D01*
X14914286Y-15214619D01*
X14923810Y-15186048D01*
X14933333Y-15167000D01*
X14952381Y-15138428D01*
X14961905Y-15128905D01*
X15123810Y-15224143D02*
X15123810Y-15357476D01*
X15076190Y-15147952D02*
X15028571Y-15290809D01*
X15152381Y-15290809D01*
X15380952Y-15357476D02*
X15380952Y-15157476D01*
X15466667Y-15357476D02*
X15466667Y-15252714D01*
X15457143Y-15233667D01*
X15438095Y-15224143D01*
X15409524Y-15224143D01*
X15390476Y-15233667D01*
X15380952Y-15243190D01*
X15590476Y-15357476D02*
X15571429Y-15347952D01*
X15561905Y-15338428D01*
X15552381Y-15319381D01*
X15552381Y-15262238D01*
X15561905Y-15243190D01*
X15571429Y-15233667D01*
X15590476Y-15224143D01*
X15619048Y-15224143D01*
X15638095Y-15233667D01*
X15647619Y-15243190D01*
X15657143Y-15262238D01*
X15657143Y-15319381D01*
X15647619Y-15338428D01*
X15638095Y-15347952D01*
X15619048Y-15357476D01*
X15590476Y-15357476D01*
X15771429Y-15357476D02*
X15752381Y-15347952D01*
X15742857Y-15328905D01*
X15742857Y-15157476D01*
X15923810Y-15347952D02*
X15904762Y-15357476D01*
X15866667Y-15357476D01*
X15847619Y-15347952D01*
X15838095Y-15328905D01*
X15838095Y-15252714D01*
X15847619Y-15233667D01*
X15866667Y-15224143D01*
X15904762Y-15224143D01*
X15923810Y-15233667D01*
X15933333Y-15252714D01*
X15933333Y-15271762D01*
X15838095Y-15290809D01*
X16009524Y-15347952D02*
X16028571Y-15357476D01*
X16066667Y-15357476D01*
X16085714Y-15347952D01*
X16095238Y-15328905D01*
X16095238Y-15319381D01*
X16085714Y-15300333D01*
X16066667Y-15290809D01*
X16038095Y-15290809D01*
X16019048Y-15281286D01*
X16009524Y-15262238D01*
X16009524Y-15252714D01*
X16019048Y-15233667D01*
X16038095Y-15224143D01*
X16066667Y-15224143D01*
X16085714Y-15233667D01*
X16161905Y-15433667D02*
X16171429Y-15424143D01*
X16190476Y-15395571D01*
X16200000Y-15376524D01*
X16209524Y-15347952D01*
X16219048Y-15300333D01*
X16219048Y-15262238D01*
X16209524Y-15214619D01*
X16200000Y-15186048D01*
X16190476Y-15167000D01*
X16171429Y-15138428D01*
X16161905Y-15128905D01*
M02*
