%FSLAX45Y45*%
G04 Gerber Fmt 4.5, Leading zero omitted, Abs format (unit mm)*
G04 Created by KiCad (PCBNEW (6.0.5)) date 2022-06-23 22:14:49*
%MOMM*%
%LPD*%
G01*
G04 APERTURE LIST*
%TA.AperFunction,Profile*%
%ADD10C,0.200000*%
%TD*%
%ADD11C,0.200000*%
%ADD12C,0.089000*%
%ADD13C,0.100000*%
%ADD14C,0.180000*%
G04 APERTURE END LIST*
D10*
X11885000Y-7675000D02*
G75*
G03*
X11885000Y-7675000I-135000J0D01*
G01*
X14185000Y-7675000D02*
G75*
G03*
X14185000Y-7675000I-135000J0D01*
G01*
X11700000Y-7325000D02*
G75*
G03*
X11400000Y-7625000I0J-300000D01*
G01*
X11885000Y-13475000D02*
G75*
G03*
X11885000Y-13475000I-135000J0D01*
G01*
X14475000Y-7625000D02*
G75*
G03*
X14175000Y-7325000I-300000J0D01*
G01*
X14175000Y-13825000D02*
G75*
G03*
X14475000Y-13525000I0J300000D01*
G01*
X11700000Y-7325000D02*
X14175000Y-7325000D01*
X11400000Y-13525000D02*
G75*
G03*
X11700000Y-13825000I300000J0D01*
G01*
X11400000Y-13525000D02*
X11400000Y-7625000D01*
X14185000Y-13475000D02*
G75*
G03*
X14185000Y-13475000I-135000J0D01*
G01*
X14475000Y-7625000D02*
X14475000Y-13525000D01*
X14175000Y-13825000D02*
X11700000Y-13825000D01*
D11*
D12*
X12590500Y-10408000D02*
X12679500Y-10497000D01*
X12679500Y-10408000D02*
X12590500Y-10497000D01*
X12590500Y-11458000D02*
X12679500Y-11547000D01*
X12679500Y-11458000D02*
X12590500Y-11547000D01*
D13*
X13973000Y-8162000D02*
G75*
G03*
X13973000Y-8162000I-50000J0D01*
G01*
X13973000Y-8416000D02*
G75*
G03*
X13973000Y-8416000I-50000J0D01*
G01*
X13973000Y-8670000D02*
G75*
G03*
X13973000Y-8670000I-50000J0D01*
G01*
X13973000Y-8924000D02*
G75*
G03*
X13973000Y-8924000I-50000J0D01*
G01*
X13973000Y-9178000D02*
G75*
G03*
X13973000Y-9178000I-50000J0D01*
G01*
X13973000Y-9432000D02*
G75*
G03*
X13973000Y-9432000I-50000J0D01*
G01*
X13973000Y-9686000D02*
G75*
G03*
X13973000Y-9686000I-50000J0D01*
G01*
X13973000Y-9940000D02*
G75*
G03*
X13973000Y-9940000I-50000J0D01*
G01*
X13973000Y-10194000D02*
G75*
G03*
X13973000Y-10194000I-50000J0D01*
G01*
X13973000Y-10448000D02*
G75*
G03*
X13973000Y-10448000I-50000J0D01*
G01*
X13973000Y-10702000D02*
G75*
G03*
X13973000Y-10702000I-50000J0D01*
G01*
X13973000Y-10956000D02*
G75*
G03*
X13973000Y-10956000I-50000J0D01*
G01*
X13973000Y-11210000D02*
G75*
G03*
X13973000Y-11210000I-50000J0D01*
G01*
X13973000Y-11464000D02*
G75*
G03*
X13973000Y-11464000I-50000J0D01*
G01*
X13973000Y-11718000D02*
G75*
G03*
X13973000Y-11718000I-50000J0D01*
G01*
X13973000Y-11972000D02*
G75*
G03*
X13973000Y-11972000I-50000J0D01*
G01*
X13973000Y-12226000D02*
G75*
G03*
X13973000Y-12226000I-50000J0D01*
G01*
X13973000Y-12480000D02*
G75*
G03*
X13973000Y-12480000I-50000J0D01*
G01*
X13973000Y-12734000D02*
G75*
G03*
X13973000Y-12734000I-50000J0D01*
G01*
X13973000Y-12988000D02*
G75*
G03*
X13973000Y-12988000I-50000J0D01*
G01*
X14227000Y-8162000D02*
G75*
G03*
X14227000Y-8162000I-50000J0D01*
G01*
X14227000Y-8416000D02*
G75*
G03*
X14227000Y-8416000I-50000J0D01*
G01*
X14227000Y-8670000D02*
G75*
G03*
X14227000Y-8670000I-50000J0D01*
G01*
X14227000Y-8924000D02*
G75*
G03*
X14227000Y-8924000I-50000J0D01*
G01*
X14227000Y-9178000D02*
G75*
G03*
X14227000Y-9178000I-50000J0D01*
G01*
X14227000Y-9432000D02*
G75*
G03*
X14227000Y-9432000I-50000J0D01*
G01*
X14227000Y-9686000D02*
G75*
G03*
X14227000Y-9686000I-50000J0D01*
G01*
X14227000Y-9940000D02*
G75*
G03*
X14227000Y-9940000I-50000J0D01*
G01*
X14227000Y-10194000D02*
G75*
G03*
X14227000Y-10194000I-50000J0D01*
G01*
X14227000Y-10448000D02*
G75*
G03*
X14227000Y-10448000I-50000J0D01*
G01*
X14227000Y-10702000D02*
G75*
G03*
X14227000Y-10702000I-50000J0D01*
G01*
X14227000Y-10956000D02*
G75*
G03*
X14227000Y-10956000I-50000J0D01*
G01*
X14227000Y-11210000D02*
G75*
G03*
X14227000Y-11210000I-50000J0D01*
G01*
X14227000Y-11464000D02*
G75*
G03*
X14227000Y-11464000I-50000J0D01*
G01*
X14227000Y-11718000D02*
G75*
G03*
X14227000Y-11718000I-50000J0D01*
G01*
X14227000Y-11972000D02*
G75*
G03*
X14227000Y-11972000I-50000J0D01*
G01*
X14227000Y-12226000D02*
G75*
G03*
X14227000Y-12226000I-50000J0D01*
G01*
X14227000Y-12480000D02*
G75*
G03*
X14227000Y-12480000I-50000J0D01*
G01*
X14227000Y-12734000D02*
G75*
G03*
X14227000Y-12734000I-50000J0D01*
G01*
X14227000Y-12988000D02*
G75*
G03*
X14227000Y-12988000I-50000J0D01*
G01*
D14*
X14050000Y-8197000D02*
X14050000Y-8377000D01*
X13960000Y-8287000D02*
X14140000Y-8287000D01*
X14050000Y-12772000D02*
X14050000Y-12952000D01*
X13960000Y-12862000D02*
X14140000Y-12862000D01*
D11*
X11647619Y-14145476D02*
X11647619Y-13945476D01*
X11695238Y-13945476D01*
X11723810Y-13955000D01*
X11742857Y-13974048D01*
X11752381Y-13993095D01*
X11761905Y-14031190D01*
X11761905Y-14059762D01*
X11752381Y-14097857D01*
X11742857Y-14116905D01*
X11723810Y-14135952D01*
X11695238Y-14145476D01*
X11647619Y-14145476D01*
X11847619Y-14145476D02*
X11847619Y-14012143D01*
X11847619Y-14050238D02*
X11857143Y-14031190D01*
X11866667Y-14021667D01*
X11885714Y-14012143D01*
X11904762Y-14012143D01*
X11971429Y-14145476D02*
X11971429Y-14012143D01*
X11971429Y-13945476D02*
X11961905Y-13955000D01*
X11971429Y-13964524D01*
X11980952Y-13955000D01*
X11971429Y-13945476D01*
X11971429Y-13964524D01*
X12095238Y-14145476D02*
X12076190Y-14135952D01*
X12066667Y-14116905D01*
X12066667Y-13945476D01*
X12200000Y-14145476D02*
X12180952Y-14135952D01*
X12171429Y-14116905D01*
X12171429Y-13945476D01*
X12428571Y-14145476D02*
X12428571Y-13945476D01*
X12495238Y-14088333D01*
X12561905Y-13945476D01*
X12561905Y-14145476D01*
X12742857Y-14145476D02*
X12742857Y-14040714D01*
X12733333Y-14021667D01*
X12714286Y-14012143D01*
X12676190Y-14012143D01*
X12657143Y-14021667D01*
X12742857Y-14135952D02*
X12723810Y-14145476D01*
X12676190Y-14145476D01*
X12657143Y-14135952D01*
X12647619Y-14116905D01*
X12647619Y-14097857D01*
X12657143Y-14078809D01*
X12676190Y-14069286D01*
X12723810Y-14069286D01*
X12742857Y-14059762D01*
X12838095Y-14012143D02*
X12838095Y-14212143D01*
X12838095Y-14021667D02*
X12857143Y-14012143D01*
X12895238Y-14012143D01*
X12914286Y-14021667D01*
X12923810Y-14031190D01*
X12933333Y-14050238D01*
X12933333Y-14107381D01*
X12923810Y-14126428D01*
X12914286Y-14135952D01*
X12895238Y-14145476D01*
X12857143Y-14145476D01*
X12838095Y-14135952D01*
X13019048Y-14126428D02*
X13028571Y-14135952D01*
X13019048Y-14145476D01*
X13009524Y-14135952D01*
X13019048Y-14126428D01*
X13019048Y-14145476D01*
X13019048Y-14021667D02*
X13028571Y-14031190D01*
X13019048Y-14040714D01*
X13009524Y-14031190D01*
X13019048Y-14021667D01*
X13019048Y-14040714D01*
D12*
X11301000Y-14430500D02*
X11390000Y-14519500D01*
X11390000Y-14430500D02*
X11301000Y-14519500D01*
D11*
X11685714Y-14365476D02*
X11704762Y-14365476D01*
X11723810Y-14375000D01*
X11733333Y-14384524D01*
X11742857Y-14403571D01*
X11752381Y-14441667D01*
X11752381Y-14489286D01*
X11742857Y-14527381D01*
X11733333Y-14546428D01*
X11723810Y-14555952D01*
X11704762Y-14565476D01*
X11685714Y-14565476D01*
X11666667Y-14555952D01*
X11657143Y-14546428D01*
X11647619Y-14527381D01*
X11638095Y-14489286D01*
X11638095Y-14441667D01*
X11647619Y-14403571D01*
X11657143Y-14384524D01*
X11666667Y-14375000D01*
X11685714Y-14365476D01*
X11838095Y-14546428D02*
X11847619Y-14555952D01*
X11838095Y-14565476D01*
X11828571Y-14555952D01*
X11838095Y-14546428D01*
X11838095Y-14565476D01*
X11961905Y-14451190D02*
X11942857Y-14441667D01*
X11933333Y-14432143D01*
X11923810Y-14413095D01*
X11923810Y-14403571D01*
X11933333Y-14384524D01*
X11942857Y-14375000D01*
X11961905Y-14365476D01*
X12000000Y-14365476D01*
X12019048Y-14375000D01*
X12028571Y-14384524D01*
X12038095Y-14403571D01*
X12038095Y-14413095D01*
X12028571Y-14432143D01*
X12019048Y-14441667D01*
X12000000Y-14451190D01*
X11961905Y-14451190D01*
X11942857Y-14460714D01*
X11933333Y-14470238D01*
X11923810Y-14489286D01*
X11923810Y-14527381D01*
X11933333Y-14546428D01*
X11942857Y-14555952D01*
X11961905Y-14565476D01*
X12000000Y-14565476D01*
X12019048Y-14555952D01*
X12028571Y-14546428D01*
X12038095Y-14527381D01*
X12038095Y-14489286D01*
X12028571Y-14470238D01*
X12019048Y-14460714D01*
X12000000Y-14451190D01*
X12133333Y-14565476D02*
X12171429Y-14565476D01*
X12190476Y-14555952D01*
X12200000Y-14546428D01*
X12219048Y-14517857D01*
X12228571Y-14479762D01*
X12228571Y-14403571D01*
X12219048Y-14384524D01*
X12209524Y-14375000D01*
X12190476Y-14365476D01*
X12152381Y-14365476D01*
X12133333Y-14375000D01*
X12123810Y-14384524D01*
X12114286Y-14403571D01*
X12114286Y-14451190D01*
X12123810Y-14470238D01*
X12133333Y-14479762D01*
X12152381Y-14489286D01*
X12190476Y-14489286D01*
X12209524Y-14479762D01*
X12219048Y-14470238D01*
X12228571Y-14451190D01*
X12352381Y-14365476D02*
X12371429Y-14365476D01*
X12390476Y-14375000D01*
X12400000Y-14384524D01*
X12409524Y-14403571D01*
X12419048Y-14441667D01*
X12419048Y-14489286D01*
X12409524Y-14527381D01*
X12400000Y-14546428D01*
X12390476Y-14555952D01*
X12371429Y-14565476D01*
X12352381Y-14565476D01*
X12333333Y-14555952D01*
X12323810Y-14546428D01*
X12314286Y-14527381D01*
X12304762Y-14489286D01*
X12304762Y-14441667D01*
X12314286Y-14403571D01*
X12323810Y-14384524D01*
X12333333Y-14375000D01*
X12352381Y-14365476D01*
X12504762Y-14565476D02*
X12504762Y-14432143D01*
X12504762Y-14451190D02*
X12514286Y-14441667D01*
X12533333Y-14432143D01*
X12561905Y-14432143D01*
X12580952Y-14441667D01*
X12590476Y-14460714D01*
X12590476Y-14565476D01*
X12590476Y-14460714D02*
X12600000Y-14441667D01*
X12619048Y-14432143D01*
X12647619Y-14432143D01*
X12666667Y-14441667D01*
X12676190Y-14460714D01*
X12676190Y-14565476D01*
X12771429Y-14565476D02*
X12771429Y-14432143D01*
X12771429Y-14451190D02*
X12780952Y-14441667D01*
X12800000Y-14432143D01*
X12828571Y-14432143D01*
X12847619Y-14441667D01*
X12857143Y-14460714D01*
X12857143Y-14565476D01*
X12857143Y-14460714D02*
X12866667Y-14441667D01*
X12885714Y-14432143D01*
X12914286Y-14432143D01*
X12933333Y-14441667D01*
X12942857Y-14460714D01*
X12942857Y-14565476D01*
X13333333Y-14355952D02*
X13161905Y-14613095D01*
X13590476Y-14365476D02*
X13609524Y-14365476D01*
X13628571Y-14375000D01*
X13638095Y-14384524D01*
X13647619Y-14403571D01*
X13657143Y-14441667D01*
X13657143Y-14489286D01*
X13647619Y-14527381D01*
X13638095Y-14546428D01*
X13628571Y-14555952D01*
X13609524Y-14565476D01*
X13590476Y-14565476D01*
X13571429Y-14555952D01*
X13561905Y-14546428D01*
X13552381Y-14527381D01*
X13542857Y-14489286D01*
X13542857Y-14441667D01*
X13552381Y-14403571D01*
X13561905Y-14384524D01*
X13571429Y-14375000D01*
X13590476Y-14365476D01*
X13742857Y-14546428D02*
X13752381Y-14555952D01*
X13742857Y-14565476D01*
X13733333Y-14555952D01*
X13742857Y-14546428D01*
X13742857Y-14565476D01*
X13876190Y-14365476D02*
X13895238Y-14365476D01*
X13914286Y-14375000D01*
X13923810Y-14384524D01*
X13933333Y-14403571D01*
X13942857Y-14441667D01*
X13942857Y-14489286D01*
X13933333Y-14527381D01*
X13923810Y-14546428D01*
X13914286Y-14555952D01*
X13895238Y-14565476D01*
X13876190Y-14565476D01*
X13857143Y-14555952D01*
X13847619Y-14546428D01*
X13838095Y-14527381D01*
X13828571Y-14489286D01*
X13828571Y-14441667D01*
X13838095Y-14403571D01*
X13847619Y-14384524D01*
X13857143Y-14375000D01*
X13876190Y-14365476D01*
X14009524Y-14365476D02*
X14133333Y-14365476D01*
X14066667Y-14441667D01*
X14095238Y-14441667D01*
X14114286Y-14451190D01*
X14123810Y-14460714D01*
X14133333Y-14479762D01*
X14133333Y-14527381D01*
X14123810Y-14546428D01*
X14114286Y-14555952D01*
X14095238Y-14565476D01*
X14038095Y-14565476D01*
X14019048Y-14555952D01*
X14009524Y-14546428D01*
X14314286Y-14365476D02*
X14219048Y-14365476D01*
X14209524Y-14460714D01*
X14219048Y-14451190D01*
X14238095Y-14441667D01*
X14285714Y-14441667D01*
X14304762Y-14451190D01*
X14314286Y-14460714D01*
X14323810Y-14479762D01*
X14323810Y-14527381D01*
X14314286Y-14546428D01*
X14304762Y-14555952D01*
X14285714Y-14565476D01*
X14238095Y-14565476D01*
X14219048Y-14555952D01*
X14209524Y-14546428D01*
X14447619Y-14365476D02*
X14466667Y-14365476D01*
X14485714Y-14375000D01*
X14495238Y-14384524D01*
X14504762Y-14403571D01*
X14514286Y-14441667D01*
X14514286Y-14489286D01*
X14504762Y-14527381D01*
X14495238Y-14546428D01*
X14485714Y-14555952D01*
X14466667Y-14565476D01*
X14447619Y-14565476D01*
X14428571Y-14555952D01*
X14419048Y-14546428D01*
X14409524Y-14527381D01*
X14400000Y-14489286D01*
X14400000Y-14441667D01*
X14409524Y-14403571D01*
X14419048Y-14384524D01*
X14428571Y-14375000D01*
X14447619Y-14365476D01*
X14590476Y-14365476D02*
X14590476Y-14403571D01*
X14666667Y-14365476D02*
X14666667Y-14403571D01*
X14961905Y-14641667D02*
X14952381Y-14632143D01*
X14933333Y-14603571D01*
X14923810Y-14584524D01*
X14914286Y-14555952D01*
X14904762Y-14508333D01*
X14904762Y-14470238D01*
X14914286Y-14422619D01*
X14923810Y-14394048D01*
X14933333Y-14375000D01*
X14952381Y-14346428D01*
X14961905Y-14336905D01*
X15028571Y-14384524D02*
X15038095Y-14375000D01*
X15057143Y-14365476D01*
X15104762Y-14365476D01*
X15123810Y-14375000D01*
X15133333Y-14384524D01*
X15142857Y-14403571D01*
X15142857Y-14422619D01*
X15133333Y-14451190D01*
X15019048Y-14565476D01*
X15142857Y-14565476D01*
X15380952Y-14565476D02*
X15380952Y-14365476D01*
X15466667Y-14565476D02*
X15466667Y-14460714D01*
X15457143Y-14441667D01*
X15438095Y-14432143D01*
X15409524Y-14432143D01*
X15390476Y-14441667D01*
X15380952Y-14451190D01*
X15590476Y-14565476D02*
X15571429Y-14555952D01*
X15561905Y-14546428D01*
X15552381Y-14527381D01*
X15552381Y-14470238D01*
X15561905Y-14451190D01*
X15571429Y-14441667D01*
X15590476Y-14432143D01*
X15619048Y-14432143D01*
X15638095Y-14441667D01*
X15647619Y-14451190D01*
X15657143Y-14470238D01*
X15657143Y-14527381D01*
X15647619Y-14546428D01*
X15638095Y-14555952D01*
X15619048Y-14565476D01*
X15590476Y-14565476D01*
X15771429Y-14565476D02*
X15752381Y-14555952D01*
X15742857Y-14536905D01*
X15742857Y-14365476D01*
X15923810Y-14555952D02*
X15904762Y-14565476D01*
X15866667Y-14565476D01*
X15847619Y-14555952D01*
X15838095Y-14536905D01*
X15838095Y-14460714D01*
X15847619Y-14441667D01*
X15866667Y-14432143D01*
X15904762Y-14432143D01*
X15923810Y-14441667D01*
X15933333Y-14460714D01*
X15933333Y-14479762D01*
X15838095Y-14498809D01*
X16009524Y-14555952D02*
X16028571Y-14565476D01*
X16066667Y-14565476D01*
X16085714Y-14555952D01*
X16095238Y-14536905D01*
X16095238Y-14527381D01*
X16085714Y-14508333D01*
X16066667Y-14498809D01*
X16038095Y-14498809D01*
X16019048Y-14489286D01*
X16009524Y-14470238D01*
X16009524Y-14460714D01*
X16019048Y-14441667D01*
X16038095Y-14432143D01*
X16066667Y-14432143D01*
X16085714Y-14441667D01*
X16161905Y-14641667D02*
X16171429Y-14632143D01*
X16190476Y-14603571D01*
X16200000Y-14584524D01*
X16209524Y-14555952D01*
X16219048Y-14508333D01*
X16219048Y-14470238D01*
X16209524Y-14422619D01*
X16200000Y-14394048D01*
X16190476Y-14375000D01*
X16171429Y-14346428D01*
X16161905Y-14336905D01*
X16523810Y-14641667D02*
X16514286Y-14632143D01*
X16495238Y-14603571D01*
X16485714Y-14584524D01*
X16476190Y-14555952D01*
X16466667Y-14508333D01*
X16466667Y-14470238D01*
X16476190Y-14422619D01*
X16485714Y-14394048D01*
X16495238Y-14375000D01*
X16514286Y-14346428D01*
X16523810Y-14336905D01*
X16600000Y-14432143D02*
X16600000Y-14565476D01*
X16600000Y-14451190D02*
X16609524Y-14441667D01*
X16628571Y-14432143D01*
X16657143Y-14432143D01*
X16676190Y-14441667D01*
X16685714Y-14460714D01*
X16685714Y-14565476D01*
X16809524Y-14565476D02*
X16790476Y-14555952D01*
X16780952Y-14546428D01*
X16771429Y-14527381D01*
X16771429Y-14470238D01*
X16780952Y-14451190D01*
X16790476Y-14441667D01*
X16809524Y-14432143D01*
X16838095Y-14432143D01*
X16857143Y-14441667D01*
X16866667Y-14451190D01*
X16876191Y-14470238D01*
X16876191Y-14527381D01*
X16866667Y-14546428D01*
X16857143Y-14555952D01*
X16838095Y-14565476D01*
X16809524Y-14565476D01*
X16933333Y-14432143D02*
X17009524Y-14432143D01*
X16961905Y-14365476D02*
X16961905Y-14536905D01*
X16971429Y-14555952D01*
X16990476Y-14565476D01*
X17009524Y-14565476D01*
X17228572Y-14432143D02*
X17228572Y-14632143D01*
X17228572Y-14441667D02*
X17247619Y-14432143D01*
X17285714Y-14432143D01*
X17304762Y-14441667D01*
X17314286Y-14451190D01*
X17323810Y-14470238D01*
X17323810Y-14527381D01*
X17314286Y-14546428D01*
X17304762Y-14555952D01*
X17285714Y-14565476D01*
X17247619Y-14565476D01*
X17228572Y-14555952D01*
X17438095Y-14565476D02*
X17419048Y-14555952D01*
X17409524Y-14536905D01*
X17409524Y-14365476D01*
X17600000Y-14565476D02*
X17600000Y-14460714D01*
X17590476Y-14441667D01*
X17571429Y-14432143D01*
X17533333Y-14432143D01*
X17514286Y-14441667D01*
X17600000Y-14555952D02*
X17580952Y-14565476D01*
X17533333Y-14565476D01*
X17514286Y-14555952D01*
X17504762Y-14536905D01*
X17504762Y-14517857D01*
X17514286Y-14498809D01*
X17533333Y-14489286D01*
X17580952Y-14489286D01*
X17600000Y-14479762D01*
X17666667Y-14432143D02*
X17742857Y-14432143D01*
X17695238Y-14365476D02*
X17695238Y-14536905D01*
X17704762Y-14555952D01*
X17723810Y-14565476D01*
X17742857Y-14565476D01*
X17885714Y-14555952D02*
X17866667Y-14565476D01*
X17828572Y-14565476D01*
X17809524Y-14555952D01*
X17800000Y-14536905D01*
X17800000Y-14460714D01*
X17809524Y-14441667D01*
X17828572Y-14432143D01*
X17866667Y-14432143D01*
X17885714Y-14441667D01*
X17895238Y-14460714D01*
X17895238Y-14479762D01*
X17800000Y-14498809D01*
X18066667Y-14565476D02*
X18066667Y-14365476D01*
X18066667Y-14555952D02*
X18047619Y-14565476D01*
X18009524Y-14565476D01*
X17990476Y-14555952D01*
X17980952Y-14546428D01*
X17971429Y-14527381D01*
X17971429Y-14470238D01*
X17980952Y-14451190D01*
X17990476Y-14441667D01*
X18009524Y-14432143D01*
X18047619Y-14432143D01*
X18066667Y-14441667D01*
X18142857Y-14641667D02*
X18152381Y-14632143D01*
X18171429Y-14603571D01*
X18180952Y-14584524D01*
X18190476Y-14555952D01*
X18200000Y-14508333D01*
X18200000Y-14470238D01*
X18190476Y-14422619D01*
X18180952Y-14394048D01*
X18171429Y-14375000D01*
X18152381Y-14346428D01*
X18142857Y-14336905D01*
D13*
X11390000Y-14739000D02*
G75*
G03*
X11390000Y-14739000I-50000J0D01*
G01*
D11*
X11752381Y-14829476D02*
X11638095Y-14829476D01*
X11695238Y-14829476D02*
X11695238Y-14629476D01*
X11676190Y-14658048D01*
X11657143Y-14677095D01*
X11638095Y-14686619D01*
X11838095Y-14810428D02*
X11847619Y-14819952D01*
X11838095Y-14829476D01*
X11828571Y-14819952D01*
X11838095Y-14810428D01*
X11838095Y-14829476D01*
X11971429Y-14629476D02*
X11990476Y-14629476D01*
X12009524Y-14639000D01*
X12019048Y-14648524D01*
X12028571Y-14667571D01*
X12038095Y-14705667D01*
X12038095Y-14753286D01*
X12028571Y-14791381D01*
X12019048Y-14810428D01*
X12009524Y-14819952D01*
X11990476Y-14829476D01*
X11971429Y-14829476D01*
X11952381Y-14819952D01*
X11942857Y-14810428D01*
X11933333Y-14791381D01*
X11923810Y-14753286D01*
X11923810Y-14705667D01*
X11933333Y-14667571D01*
X11942857Y-14648524D01*
X11952381Y-14639000D01*
X11971429Y-14629476D01*
X12161905Y-14629476D02*
X12180952Y-14629476D01*
X12200000Y-14639000D01*
X12209524Y-14648524D01*
X12219048Y-14667571D01*
X12228571Y-14705667D01*
X12228571Y-14753286D01*
X12219048Y-14791381D01*
X12209524Y-14810428D01*
X12200000Y-14819952D01*
X12180952Y-14829476D01*
X12161905Y-14829476D01*
X12142857Y-14819952D01*
X12133333Y-14810428D01*
X12123810Y-14791381D01*
X12114286Y-14753286D01*
X12114286Y-14705667D01*
X12123810Y-14667571D01*
X12133333Y-14648524D01*
X12142857Y-14639000D01*
X12161905Y-14629476D01*
X12352381Y-14629476D02*
X12371429Y-14629476D01*
X12390476Y-14639000D01*
X12400000Y-14648524D01*
X12409524Y-14667571D01*
X12419048Y-14705667D01*
X12419048Y-14753286D01*
X12409524Y-14791381D01*
X12400000Y-14810428D01*
X12390476Y-14819952D01*
X12371429Y-14829476D01*
X12352381Y-14829476D01*
X12333333Y-14819952D01*
X12323810Y-14810428D01*
X12314286Y-14791381D01*
X12304762Y-14753286D01*
X12304762Y-14705667D01*
X12314286Y-14667571D01*
X12323810Y-14648524D01*
X12333333Y-14639000D01*
X12352381Y-14629476D01*
X12504762Y-14829476D02*
X12504762Y-14696143D01*
X12504762Y-14715190D02*
X12514286Y-14705667D01*
X12533333Y-14696143D01*
X12561905Y-14696143D01*
X12580952Y-14705667D01*
X12590476Y-14724714D01*
X12590476Y-14829476D01*
X12590476Y-14724714D02*
X12600000Y-14705667D01*
X12619048Y-14696143D01*
X12647619Y-14696143D01*
X12666667Y-14705667D01*
X12676190Y-14724714D01*
X12676190Y-14829476D01*
X12771429Y-14829476D02*
X12771429Y-14696143D01*
X12771429Y-14715190D02*
X12780952Y-14705667D01*
X12800000Y-14696143D01*
X12828571Y-14696143D01*
X12847619Y-14705667D01*
X12857143Y-14724714D01*
X12857143Y-14829476D01*
X12857143Y-14724714D02*
X12866667Y-14705667D01*
X12885714Y-14696143D01*
X12914286Y-14696143D01*
X12933333Y-14705667D01*
X12942857Y-14724714D01*
X12942857Y-14829476D01*
X13333333Y-14619952D02*
X13161905Y-14877095D01*
X13590476Y-14629476D02*
X13609524Y-14629476D01*
X13628571Y-14639000D01*
X13638095Y-14648524D01*
X13647619Y-14667571D01*
X13657143Y-14705667D01*
X13657143Y-14753286D01*
X13647619Y-14791381D01*
X13638095Y-14810428D01*
X13628571Y-14819952D01*
X13609524Y-14829476D01*
X13590476Y-14829476D01*
X13571429Y-14819952D01*
X13561905Y-14810428D01*
X13552381Y-14791381D01*
X13542857Y-14753286D01*
X13542857Y-14705667D01*
X13552381Y-14667571D01*
X13561905Y-14648524D01*
X13571429Y-14639000D01*
X13590476Y-14629476D01*
X13742857Y-14810428D02*
X13752381Y-14819952D01*
X13742857Y-14829476D01*
X13733333Y-14819952D01*
X13742857Y-14810428D01*
X13742857Y-14829476D01*
X13876190Y-14629476D02*
X13895238Y-14629476D01*
X13914286Y-14639000D01*
X13923810Y-14648524D01*
X13933333Y-14667571D01*
X13942857Y-14705667D01*
X13942857Y-14753286D01*
X13933333Y-14791381D01*
X13923810Y-14810428D01*
X13914286Y-14819952D01*
X13895238Y-14829476D01*
X13876190Y-14829476D01*
X13857143Y-14819952D01*
X13847619Y-14810428D01*
X13838095Y-14791381D01*
X13828571Y-14753286D01*
X13828571Y-14705667D01*
X13838095Y-14667571D01*
X13847619Y-14648524D01*
X13857143Y-14639000D01*
X13876190Y-14629476D01*
X14009524Y-14629476D02*
X14133333Y-14629476D01*
X14066667Y-14705667D01*
X14095238Y-14705667D01*
X14114286Y-14715190D01*
X14123810Y-14724714D01*
X14133333Y-14743762D01*
X14133333Y-14791381D01*
X14123810Y-14810428D01*
X14114286Y-14819952D01*
X14095238Y-14829476D01*
X14038095Y-14829476D01*
X14019048Y-14819952D01*
X14009524Y-14810428D01*
X14228571Y-14829476D02*
X14266667Y-14829476D01*
X14285714Y-14819952D01*
X14295238Y-14810428D01*
X14314286Y-14781857D01*
X14323810Y-14743762D01*
X14323810Y-14667571D01*
X14314286Y-14648524D01*
X14304762Y-14639000D01*
X14285714Y-14629476D01*
X14247619Y-14629476D01*
X14228571Y-14639000D01*
X14219048Y-14648524D01*
X14209524Y-14667571D01*
X14209524Y-14715190D01*
X14219048Y-14734238D01*
X14228571Y-14743762D01*
X14247619Y-14753286D01*
X14285714Y-14753286D01*
X14304762Y-14743762D01*
X14314286Y-14734238D01*
X14323810Y-14715190D01*
X14495238Y-14696143D02*
X14495238Y-14829476D01*
X14447619Y-14619952D02*
X14400000Y-14762809D01*
X14523810Y-14762809D01*
X14590476Y-14629476D02*
X14590476Y-14667571D01*
X14666667Y-14629476D02*
X14666667Y-14667571D01*
X14961905Y-14905667D02*
X14952381Y-14896143D01*
X14933333Y-14867571D01*
X14923810Y-14848524D01*
X14914286Y-14819952D01*
X14904762Y-14772333D01*
X14904762Y-14734238D01*
X14914286Y-14686619D01*
X14923810Y-14658048D01*
X14933333Y-14639000D01*
X14952381Y-14610428D01*
X14961905Y-14600905D01*
X15123810Y-14696143D02*
X15123810Y-14829476D01*
X15076190Y-14619952D02*
X15028571Y-14762809D01*
X15152381Y-14762809D01*
X15266667Y-14629476D02*
X15285714Y-14629476D01*
X15304762Y-14639000D01*
X15314286Y-14648524D01*
X15323810Y-14667571D01*
X15333333Y-14705667D01*
X15333333Y-14753286D01*
X15323810Y-14791381D01*
X15314286Y-14810428D01*
X15304762Y-14819952D01*
X15285714Y-14829476D01*
X15266667Y-14829476D01*
X15247619Y-14819952D01*
X15238095Y-14810428D01*
X15228571Y-14791381D01*
X15219048Y-14753286D01*
X15219048Y-14705667D01*
X15228571Y-14667571D01*
X15238095Y-14648524D01*
X15247619Y-14639000D01*
X15266667Y-14629476D01*
X15571429Y-14829476D02*
X15571429Y-14629476D01*
X15657143Y-14829476D02*
X15657143Y-14724714D01*
X15647619Y-14705667D01*
X15628571Y-14696143D01*
X15600000Y-14696143D01*
X15580952Y-14705667D01*
X15571429Y-14715190D01*
X15780952Y-14829476D02*
X15761905Y-14819952D01*
X15752381Y-14810428D01*
X15742857Y-14791381D01*
X15742857Y-14734238D01*
X15752381Y-14715190D01*
X15761905Y-14705667D01*
X15780952Y-14696143D01*
X15809524Y-14696143D01*
X15828571Y-14705667D01*
X15838095Y-14715190D01*
X15847619Y-14734238D01*
X15847619Y-14791381D01*
X15838095Y-14810428D01*
X15828571Y-14819952D01*
X15809524Y-14829476D01*
X15780952Y-14829476D01*
X15961905Y-14829476D02*
X15942857Y-14819952D01*
X15933333Y-14800905D01*
X15933333Y-14629476D01*
X16114286Y-14819952D02*
X16095238Y-14829476D01*
X16057143Y-14829476D01*
X16038095Y-14819952D01*
X16028571Y-14800905D01*
X16028571Y-14724714D01*
X16038095Y-14705667D01*
X16057143Y-14696143D01*
X16095238Y-14696143D01*
X16114286Y-14705667D01*
X16123810Y-14724714D01*
X16123810Y-14743762D01*
X16028571Y-14762809D01*
X16200000Y-14819952D02*
X16219048Y-14829476D01*
X16257143Y-14829476D01*
X16276190Y-14819952D01*
X16285714Y-14800905D01*
X16285714Y-14791381D01*
X16276190Y-14772333D01*
X16257143Y-14762809D01*
X16228571Y-14762809D01*
X16209524Y-14753286D01*
X16200000Y-14734238D01*
X16200000Y-14724714D01*
X16209524Y-14705667D01*
X16228571Y-14696143D01*
X16257143Y-14696143D01*
X16276190Y-14705667D01*
X16352381Y-14905667D02*
X16361905Y-14896143D01*
X16380952Y-14867571D01*
X16390476Y-14848524D01*
X16400000Y-14819952D01*
X16409524Y-14772333D01*
X16409524Y-14734238D01*
X16400000Y-14686619D01*
X16390476Y-14658048D01*
X16380952Y-14639000D01*
X16361905Y-14610428D01*
X16352381Y-14600905D01*
X16714286Y-14905667D02*
X16704762Y-14896143D01*
X16685714Y-14867571D01*
X16676190Y-14848524D01*
X16666667Y-14819952D01*
X16657143Y-14772333D01*
X16657143Y-14734238D01*
X16666667Y-14686619D01*
X16676190Y-14658048D01*
X16685714Y-14639000D01*
X16704762Y-14610428D01*
X16714286Y-14600905D01*
X16790476Y-14696143D02*
X16790476Y-14829476D01*
X16790476Y-14715190D02*
X16800000Y-14705667D01*
X16819048Y-14696143D01*
X16847619Y-14696143D01*
X16866667Y-14705667D01*
X16876191Y-14724714D01*
X16876191Y-14829476D01*
X17000000Y-14829476D02*
X16980952Y-14819952D01*
X16971429Y-14810428D01*
X16961905Y-14791381D01*
X16961905Y-14734238D01*
X16971429Y-14715190D01*
X16980952Y-14705667D01*
X17000000Y-14696143D01*
X17028572Y-14696143D01*
X17047619Y-14705667D01*
X17057143Y-14715190D01*
X17066667Y-14734238D01*
X17066667Y-14791381D01*
X17057143Y-14810428D01*
X17047619Y-14819952D01*
X17028572Y-14829476D01*
X17000000Y-14829476D01*
X17123810Y-14696143D02*
X17200000Y-14696143D01*
X17152381Y-14629476D02*
X17152381Y-14800905D01*
X17161905Y-14819952D01*
X17180952Y-14829476D01*
X17200000Y-14829476D01*
X17419048Y-14696143D02*
X17419048Y-14896143D01*
X17419048Y-14705667D02*
X17438095Y-14696143D01*
X17476191Y-14696143D01*
X17495238Y-14705667D01*
X17504762Y-14715190D01*
X17514286Y-14734238D01*
X17514286Y-14791381D01*
X17504762Y-14810428D01*
X17495238Y-14819952D01*
X17476191Y-14829476D01*
X17438095Y-14829476D01*
X17419048Y-14819952D01*
X17628572Y-14829476D02*
X17609524Y-14819952D01*
X17600000Y-14800905D01*
X17600000Y-14629476D01*
X17790476Y-14829476D02*
X17790476Y-14724714D01*
X17780952Y-14705667D01*
X17761905Y-14696143D01*
X17723810Y-14696143D01*
X17704762Y-14705667D01*
X17790476Y-14819952D02*
X17771429Y-14829476D01*
X17723810Y-14829476D01*
X17704762Y-14819952D01*
X17695238Y-14800905D01*
X17695238Y-14781857D01*
X17704762Y-14762809D01*
X17723810Y-14753286D01*
X17771429Y-14753286D01*
X17790476Y-14743762D01*
X17857143Y-14696143D02*
X17933333Y-14696143D01*
X17885714Y-14629476D02*
X17885714Y-14800905D01*
X17895238Y-14819952D01*
X17914286Y-14829476D01*
X17933333Y-14829476D01*
X18076191Y-14819952D02*
X18057143Y-14829476D01*
X18019048Y-14829476D01*
X18000000Y-14819952D01*
X17990476Y-14800905D01*
X17990476Y-14724714D01*
X18000000Y-14705667D01*
X18019048Y-14696143D01*
X18057143Y-14696143D01*
X18076191Y-14705667D01*
X18085714Y-14724714D01*
X18085714Y-14743762D01*
X17990476Y-14762809D01*
X18257143Y-14829476D02*
X18257143Y-14629476D01*
X18257143Y-14819952D02*
X18238095Y-14829476D01*
X18200000Y-14829476D01*
X18180952Y-14819952D01*
X18171429Y-14810428D01*
X18161905Y-14791381D01*
X18161905Y-14734238D01*
X18171429Y-14715190D01*
X18180952Y-14705667D01*
X18200000Y-14696143D01*
X18238095Y-14696143D01*
X18257143Y-14705667D01*
X18333333Y-14905667D02*
X18342857Y-14896143D01*
X18361905Y-14867571D01*
X18371429Y-14848524D01*
X18380952Y-14819952D01*
X18390476Y-14772333D01*
X18390476Y-14734238D01*
X18380952Y-14686619D01*
X18371429Y-14658048D01*
X18361905Y-14639000D01*
X18342857Y-14610428D01*
X18333333Y-14600905D01*
D14*
X11300000Y-14913000D02*
X11300000Y-15093000D01*
X11210000Y-15003000D02*
X11390000Y-15003000D01*
D11*
X11752381Y-15093476D02*
X11638095Y-15093476D01*
X11695238Y-15093476D02*
X11695238Y-14893476D01*
X11676190Y-14922048D01*
X11657143Y-14941095D01*
X11638095Y-14950619D01*
X11838095Y-15074428D02*
X11847619Y-15083952D01*
X11838095Y-15093476D01*
X11828571Y-15083952D01*
X11838095Y-15074428D01*
X11838095Y-15093476D01*
X11961905Y-14979190D02*
X11942857Y-14969667D01*
X11933333Y-14960143D01*
X11923810Y-14941095D01*
X11923810Y-14931571D01*
X11933333Y-14912524D01*
X11942857Y-14903000D01*
X11961905Y-14893476D01*
X12000000Y-14893476D01*
X12019048Y-14903000D01*
X12028571Y-14912524D01*
X12038095Y-14931571D01*
X12038095Y-14941095D01*
X12028571Y-14960143D01*
X12019048Y-14969667D01*
X12000000Y-14979190D01*
X11961905Y-14979190D01*
X11942857Y-14988714D01*
X11933333Y-14998238D01*
X11923810Y-15017286D01*
X11923810Y-15055381D01*
X11933333Y-15074428D01*
X11942857Y-15083952D01*
X11961905Y-15093476D01*
X12000000Y-15093476D01*
X12019048Y-15083952D01*
X12028571Y-15074428D01*
X12038095Y-15055381D01*
X12038095Y-15017286D01*
X12028571Y-14998238D01*
X12019048Y-14988714D01*
X12000000Y-14979190D01*
X12161905Y-14893476D02*
X12180952Y-14893476D01*
X12200000Y-14903000D01*
X12209524Y-14912524D01*
X12219048Y-14931571D01*
X12228571Y-14969667D01*
X12228571Y-15017286D01*
X12219048Y-15055381D01*
X12209524Y-15074428D01*
X12200000Y-15083952D01*
X12180952Y-15093476D01*
X12161905Y-15093476D01*
X12142857Y-15083952D01*
X12133333Y-15074428D01*
X12123810Y-15055381D01*
X12114286Y-15017286D01*
X12114286Y-14969667D01*
X12123810Y-14931571D01*
X12133333Y-14912524D01*
X12142857Y-14903000D01*
X12161905Y-14893476D01*
X12352381Y-14893476D02*
X12371429Y-14893476D01*
X12390476Y-14903000D01*
X12400000Y-14912524D01*
X12409524Y-14931571D01*
X12419048Y-14969667D01*
X12419048Y-15017286D01*
X12409524Y-15055381D01*
X12400000Y-15074428D01*
X12390476Y-15083952D01*
X12371429Y-15093476D01*
X12352381Y-15093476D01*
X12333333Y-15083952D01*
X12323810Y-15074428D01*
X12314286Y-15055381D01*
X12304762Y-15017286D01*
X12304762Y-14969667D01*
X12314286Y-14931571D01*
X12323810Y-14912524D01*
X12333333Y-14903000D01*
X12352381Y-14893476D01*
X12504762Y-15093476D02*
X12504762Y-14960143D01*
X12504762Y-14979190D02*
X12514286Y-14969667D01*
X12533333Y-14960143D01*
X12561905Y-14960143D01*
X12580952Y-14969667D01*
X12590476Y-14988714D01*
X12590476Y-15093476D01*
X12590476Y-14988714D02*
X12600000Y-14969667D01*
X12619048Y-14960143D01*
X12647619Y-14960143D01*
X12666667Y-14969667D01*
X12676190Y-14988714D01*
X12676190Y-15093476D01*
X12771429Y-15093476D02*
X12771429Y-14960143D01*
X12771429Y-14979190D02*
X12780952Y-14969667D01*
X12800000Y-14960143D01*
X12828571Y-14960143D01*
X12847619Y-14969667D01*
X12857143Y-14988714D01*
X12857143Y-15093476D01*
X12857143Y-14988714D02*
X12866667Y-14969667D01*
X12885714Y-14960143D01*
X12914286Y-14960143D01*
X12933333Y-14969667D01*
X12942857Y-14988714D01*
X12942857Y-15093476D01*
X13333333Y-14883952D02*
X13161905Y-15141095D01*
X13590476Y-14893476D02*
X13609524Y-14893476D01*
X13628571Y-14903000D01*
X13638095Y-14912524D01*
X13647619Y-14931571D01*
X13657143Y-14969667D01*
X13657143Y-15017286D01*
X13647619Y-15055381D01*
X13638095Y-15074428D01*
X13628571Y-15083952D01*
X13609524Y-15093476D01*
X13590476Y-15093476D01*
X13571429Y-15083952D01*
X13561905Y-15074428D01*
X13552381Y-15055381D01*
X13542857Y-15017286D01*
X13542857Y-14969667D01*
X13552381Y-14931571D01*
X13561905Y-14912524D01*
X13571429Y-14903000D01*
X13590476Y-14893476D01*
X13742857Y-15074428D02*
X13752381Y-15083952D01*
X13742857Y-15093476D01*
X13733333Y-15083952D01*
X13742857Y-15074428D01*
X13742857Y-15093476D01*
X13876190Y-14893476D02*
X13895238Y-14893476D01*
X13914286Y-14903000D01*
X13923810Y-14912524D01*
X13933333Y-14931571D01*
X13942857Y-14969667D01*
X13942857Y-15017286D01*
X13933333Y-15055381D01*
X13923810Y-15074428D01*
X13914286Y-15083952D01*
X13895238Y-15093476D01*
X13876190Y-15093476D01*
X13857143Y-15083952D01*
X13847619Y-15074428D01*
X13838095Y-15055381D01*
X13828571Y-15017286D01*
X13828571Y-14969667D01*
X13838095Y-14931571D01*
X13847619Y-14912524D01*
X13857143Y-14903000D01*
X13876190Y-14893476D01*
X14009524Y-14893476D02*
X14142857Y-14893476D01*
X14057143Y-15093476D01*
X14257143Y-14893476D02*
X14276190Y-14893476D01*
X14295238Y-14903000D01*
X14304762Y-14912524D01*
X14314286Y-14931571D01*
X14323810Y-14969667D01*
X14323810Y-15017286D01*
X14314286Y-15055381D01*
X14304762Y-15074428D01*
X14295238Y-15083952D01*
X14276190Y-15093476D01*
X14257143Y-15093476D01*
X14238095Y-15083952D01*
X14228571Y-15074428D01*
X14219048Y-15055381D01*
X14209524Y-15017286D01*
X14209524Y-14969667D01*
X14219048Y-14931571D01*
X14228571Y-14912524D01*
X14238095Y-14903000D01*
X14257143Y-14893476D01*
X14419048Y-15093476D02*
X14457143Y-15093476D01*
X14476190Y-15083952D01*
X14485714Y-15074428D01*
X14504762Y-15045857D01*
X14514286Y-15007762D01*
X14514286Y-14931571D01*
X14504762Y-14912524D01*
X14495238Y-14903000D01*
X14476190Y-14893476D01*
X14438095Y-14893476D01*
X14419048Y-14903000D01*
X14409524Y-14912524D01*
X14400000Y-14931571D01*
X14400000Y-14979190D01*
X14409524Y-14998238D01*
X14419048Y-15007762D01*
X14438095Y-15017286D01*
X14476190Y-15017286D01*
X14495238Y-15007762D01*
X14504762Y-14998238D01*
X14514286Y-14979190D01*
X14590476Y-14893476D02*
X14590476Y-14931571D01*
X14666667Y-14893476D02*
X14666667Y-14931571D01*
X14961905Y-15169667D02*
X14952381Y-15160143D01*
X14933333Y-15131571D01*
X14923810Y-15112524D01*
X14914286Y-15083952D01*
X14904762Y-15036333D01*
X14904762Y-14998238D01*
X14914286Y-14950619D01*
X14923810Y-14922048D01*
X14933333Y-14903000D01*
X14952381Y-14874428D01*
X14961905Y-14864905D01*
X15028571Y-14912524D02*
X15038095Y-14903000D01*
X15057143Y-14893476D01*
X15104762Y-14893476D01*
X15123810Y-14903000D01*
X15133333Y-14912524D01*
X15142857Y-14931571D01*
X15142857Y-14950619D01*
X15133333Y-14979190D01*
X15019048Y-15093476D01*
X15142857Y-15093476D01*
X15380952Y-15093476D02*
X15380952Y-14893476D01*
X15466667Y-15093476D02*
X15466667Y-14988714D01*
X15457143Y-14969667D01*
X15438095Y-14960143D01*
X15409524Y-14960143D01*
X15390476Y-14969667D01*
X15380952Y-14979190D01*
X15590476Y-15093476D02*
X15571429Y-15083952D01*
X15561905Y-15074428D01*
X15552381Y-15055381D01*
X15552381Y-14998238D01*
X15561905Y-14979190D01*
X15571429Y-14969667D01*
X15590476Y-14960143D01*
X15619048Y-14960143D01*
X15638095Y-14969667D01*
X15647619Y-14979190D01*
X15657143Y-14998238D01*
X15657143Y-15055381D01*
X15647619Y-15074428D01*
X15638095Y-15083952D01*
X15619048Y-15093476D01*
X15590476Y-15093476D01*
X15771429Y-15093476D02*
X15752381Y-15083952D01*
X15742857Y-15064905D01*
X15742857Y-14893476D01*
X15923810Y-15083952D02*
X15904762Y-15093476D01*
X15866667Y-15093476D01*
X15847619Y-15083952D01*
X15838095Y-15064905D01*
X15838095Y-14988714D01*
X15847619Y-14969667D01*
X15866667Y-14960143D01*
X15904762Y-14960143D01*
X15923810Y-14969667D01*
X15933333Y-14988714D01*
X15933333Y-15007762D01*
X15838095Y-15026809D01*
X16009524Y-15083952D02*
X16028571Y-15093476D01*
X16066667Y-15093476D01*
X16085714Y-15083952D01*
X16095238Y-15064905D01*
X16095238Y-15055381D01*
X16085714Y-15036333D01*
X16066667Y-15026809D01*
X16038095Y-15026809D01*
X16019048Y-15017286D01*
X16009524Y-14998238D01*
X16009524Y-14988714D01*
X16019048Y-14969667D01*
X16038095Y-14960143D01*
X16066667Y-14960143D01*
X16085714Y-14969667D01*
X16161905Y-15169667D02*
X16171429Y-15160143D01*
X16190476Y-15131571D01*
X16200000Y-15112524D01*
X16209524Y-15083952D01*
X16219048Y-15036333D01*
X16219048Y-14998238D01*
X16209524Y-14950619D01*
X16200000Y-14922048D01*
X16190476Y-14903000D01*
X16171429Y-14874428D01*
X16161905Y-14864905D01*
X16523810Y-15169667D02*
X16514286Y-15160143D01*
X16495238Y-15131571D01*
X16485714Y-15112524D01*
X16476190Y-15083952D01*
X16466667Y-15036333D01*
X16466667Y-14998238D01*
X16476190Y-14950619D01*
X16485714Y-14922048D01*
X16495238Y-14903000D01*
X16514286Y-14874428D01*
X16523810Y-14864905D01*
X16600000Y-14960143D02*
X16600000Y-15093476D01*
X16600000Y-14979190D02*
X16609524Y-14969667D01*
X16628571Y-14960143D01*
X16657143Y-14960143D01*
X16676190Y-14969667D01*
X16685714Y-14988714D01*
X16685714Y-15093476D01*
X16809524Y-15093476D02*
X16790476Y-15083952D01*
X16780952Y-15074428D01*
X16771429Y-15055381D01*
X16771429Y-14998238D01*
X16780952Y-14979190D01*
X16790476Y-14969667D01*
X16809524Y-14960143D01*
X16838095Y-14960143D01*
X16857143Y-14969667D01*
X16866667Y-14979190D01*
X16876191Y-14998238D01*
X16876191Y-15055381D01*
X16866667Y-15074428D01*
X16857143Y-15083952D01*
X16838095Y-15093476D01*
X16809524Y-15093476D01*
X16933333Y-14960143D02*
X17009524Y-14960143D01*
X16961905Y-14893476D02*
X16961905Y-15064905D01*
X16971429Y-15083952D01*
X16990476Y-15093476D01*
X17009524Y-15093476D01*
X17228572Y-14960143D02*
X17228572Y-15160143D01*
X17228572Y-14969667D02*
X17247619Y-14960143D01*
X17285714Y-14960143D01*
X17304762Y-14969667D01*
X17314286Y-14979190D01*
X17323810Y-14998238D01*
X17323810Y-15055381D01*
X17314286Y-15074428D01*
X17304762Y-15083952D01*
X17285714Y-15093476D01*
X17247619Y-15093476D01*
X17228572Y-15083952D01*
X17438095Y-15093476D02*
X17419048Y-15083952D01*
X17409524Y-15064905D01*
X17409524Y-14893476D01*
X17600000Y-15093476D02*
X17600000Y-14988714D01*
X17590476Y-14969667D01*
X17571429Y-14960143D01*
X17533333Y-14960143D01*
X17514286Y-14969667D01*
X17600000Y-15083952D02*
X17580952Y-15093476D01*
X17533333Y-15093476D01*
X17514286Y-15083952D01*
X17504762Y-15064905D01*
X17504762Y-15045857D01*
X17514286Y-15026809D01*
X17533333Y-15017286D01*
X17580952Y-15017286D01*
X17600000Y-15007762D01*
X17666667Y-14960143D02*
X17742857Y-14960143D01*
X17695238Y-14893476D02*
X17695238Y-15064905D01*
X17704762Y-15083952D01*
X17723810Y-15093476D01*
X17742857Y-15093476D01*
X17885714Y-15083952D02*
X17866667Y-15093476D01*
X17828572Y-15093476D01*
X17809524Y-15083952D01*
X17800000Y-15064905D01*
X17800000Y-14988714D01*
X17809524Y-14969667D01*
X17828572Y-14960143D01*
X17866667Y-14960143D01*
X17885714Y-14969667D01*
X17895238Y-14988714D01*
X17895238Y-15007762D01*
X17800000Y-15026809D01*
X18066667Y-15093476D02*
X18066667Y-14893476D01*
X18066667Y-15083952D02*
X18047619Y-15093476D01*
X18009524Y-15093476D01*
X17990476Y-15083952D01*
X17980952Y-15074428D01*
X17971429Y-15055381D01*
X17971429Y-14998238D01*
X17980952Y-14979190D01*
X17990476Y-14969667D01*
X18009524Y-14960143D01*
X18047619Y-14960143D01*
X18066667Y-14969667D01*
X18142857Y-15169667D02*
X18152381Y-15160143D01*
X18171429Y-15131571D01*
X18180952Y-15112524D01*
X18190476Y-15083952D01*
X18200000Y-15036333D01*
X18200000Y-14998238D01*
X18190476Y-14950619D01*
X18180952Y-14922048D01*
X18171429Y-14903000D01*
X18152381Y-14874428D01*
X18142857Y-14864905D01*
M02*
